<svg width="1400" height="150" viewBox="0 0 1400 150" fill="none" xmlns="http://www.w3.org/2000/svg">
<path d="M1089.18 70.85C1089.02 69.31 1088.46 68.2 1087.5 67.52C1086.56 66.82 1085.35 66.47 1083.87 66.47C1083.27 66.47 1082.68 66.53 1082.1 66.65C1081.52 66.77 1081 66.97 1080.54 67.25C1080.1 67.53 1079.74 67.91 1079.46 68.39C1079.2 68.85 1079.07 69.43 1079.07 70.13C1079.07 70.79 1079.26 71.33 1079.64 71.75C1080.04 72.15 1080.56 72.48 1081.2 72.74C1081.86 73 1082.6 73.22 1083.42 73.4C1084.24 73.56 1085.07 73.74 1085.91 73.94C1086.77 74.14 1087.61 74.38 1088.43 74.66C1089.25 74.92 1089.98 75.28 1090.62 75.74C1091.28 76.2 1091.8 76.78 1092.18 77.48C1092.58 78.18 1092.78 79.06 1092.78 80.12C1092.78 81.26 1092.52 82.24 1092 83.06C1091.5 83.86 1090.85 84.52 1090.05 85.04C1089.25 85.54 1088.35 85.9 1087.35 86.12C1086.37 86.36 1085.39 86.48 1084.41 86.48C1083.21 86.48 1082.07 86.33 1080.99 86.03C1079.93 85.73 1078.99 85.28 1078.17 84.68C1077.37 84.06 1076.73 83.28 1076.25 82.34C1075.79 81.38 1075.56 80.25 1075.56 78.95H1078.26C1078.26 79.85 1078.43 80.63 1078.77 81.29C1079.13 81.93 1079.59 82.46 1080.15 82.88C1080.73 83.3 1081.4 83.61 1082.16 83.81C1082.92 84.01 1083.7 84.11 1084.5 84.11C1085.14 84.11 1085.78 84.05 1086.42 83.93C1087.08 83.81 1087.67 83.61 1088.19 83.33C1088.71 83.03 1089.13 82.63 1089.45 82.13C1089.77 81.63 1089.93 80.99 1089.93 80.21C1089.93 79.47 1089.73 78.87 1089.33 78.41C1088.95 77.95 1088.43 77.58 1087.77 77.3C1087.13 77 1086.4 76.76 1085.58 76.58C1084.76 76.4 1083.92 76.22 1083.06 76.04C1082.22 75.84 1081.39 75.62 1080.57 75.38C1079.75 75.12 1079.01 74.79 1078.35 74.39C1077.71 73.97 1077.19 73.44 1076.79 72.8C1076.41 72.14 1076.22 71.32 1076.22 70.34C1076.22 69.26 1076.44 68.33 1076.88 67.55C1077.32 66.75 1077.9 66.1 1078.62 65.6C1079.36 65.08 1080.19 64.7 1081.11 64.46C1082.05 64.2 1083.01 64.07 1083.99 64.07C1085.09 64.07 1086.11 64.2 1087.05 64.46C1087.99 64.72 1088.81 65.13 1089.51 65.69C1090.23 66.25 1090.79 66.96 1091.19 67.82C1091.61 68.66 1091.84 69.67 1091.88 70.85H1089.18ZM1095.83 64.58H1098.38V72.77H1098.44C1098.64 72.29 1098.92 71.89 1099.28 71.57C1099.64 71.23 1100.04 70.96 1100.48 70.76C1100.94 70.54 1101.41 70.38 1101.89 70.28C1102.39 70.18 1102.87 70.13 1103.33 70.13C1104.35 70.13 1105.2 70.27 1105.88 70.55C1106.56 70.83 1107.11 71.22 1107.53 71.72C1107.95 72.22 1108.24 72.82 1108.4 73.52C1108.58 74.2 1108.67 74.96 1108.67 75.8V86H1106.12V75.5C1106.12 74.54 1105.84 73.78 1105.28 73.22C1104.72 72.66 1103.95 72.38 1102.97 72.38C1102.19 72.38 1101.51 72.5 1100.93 72.74C1100.37 72.98 1099.9 73.32 1099.52 73.76C1099.14 74.2 1098.85 74.72 1098.65 75.32C1098.47 75.9 1098.38 76.54 1098.38 77.24V86H1095.83V64.58ZM1114.36 78.26C1114.36 79.2 1114.48 80.04 1114.72 80.78C1114.98 81.5 1115.33 82.11 1115.77 82.61C1116.21 83.09 1116.72 83.46 1117.3 83.72C1117.9 83.98 1118.53 84.11 1119.19 84.11C1119.85 84.11 1120.47 83.98 1121.05 83.72C1121.65 83.46 1122.17 83.09 1122.61 82.61C1123.05 82.11 1123.39 81.5 1123.63 80.78C1123.89 80.04 1124.02 79.2 1124.02 78.26C1124.02 77.32 1123.89 76.49 1123.63 75.77C1123.39 75.03 1123.05 74.41 1122.61 73.91C1122.17 73.41 1121.65 73.03 1121.05 72.77C1120.47 72.51 1119.85 72.38 1119.19 72.38C1118.53 72.38 1117.9 72.51 1117.3 72.77C1116.72 73.03 1116.21 73.41 1115.77 73.91C1115.33 74.41 1114.98 75.03 1114.72 75.77C1114.48 76.49 1114.36 77.32 1114.36 78.26ZM1111.66 78.26C1111.66 77.12 1111.82 76.06 1112.14 75.08C1112.46 74.08 1112.94 73.22 1113.58 72.5C1114.22 71.76 1115.01 71.18 1115.95 70.76C1116.89 70.34 1117.97 70.13 1119.19 70.13C1120.43 70.13 1121.51 70.34 1122.43 70.76C1123.37 71.18 1124.16 71.76 1124.8 72.5C1125.44 73.22 1125.92 74.08 1126.24 75.08C1126.56 76.06 1126.72 77.12 1126.72 78.26C1126.72 79.4 1126.56 80.46 1126.24 81.44C1125.92 82.42 1125.44 83.28 1124.8 84.02C1124.16 84.74 1123.37 85.31 1122.43 85.73C1121.51 86.13 1120.43 86.33 1119.19 86.33C1117.97 86.33 1116.89 86.13 1115.95 85.73C1115.01 85.31 1114.22 84.74 1113.58 84.02C1112.94 83.28 1112.46 82.42 1112.14 81.44C1111.82 80.46 1111.66 79.4 1111.66 78.26ZM1129.81 70.49H1132.36V72.59H1132.42C1132.84 71.73 1133.5 71.11 1134.4 70.73C1135.3 70.33 1136.29 70.13 1137.37 70.13C1138.57 70.13 1139.61 70.35 1140.49 70.79C1141.39 71.23 1142.13 71.83 1142.71 72.59C1143.31 73.33 1143.76 74.19 1144.06 75.17C1144.36 76.15 1144.51 77.19 1144.51 78.29C1144.51 79.39 1144.36 80.43 1144.06 81.41C1143.78 82.39 1143.34 83.25 1142.74 83.99C1142.16 84.71 1141.42 85.28 1140.52 85.7C1139.64 86.12 1138.61 86.33 1137.43 86.33C1137.05 86.33 1136.62 86.29 1136.14 86.21C1135.68 86.13 1135.22 86 1134.76 85.82C1134.3 85.64 1133.86 85.4 1133.44 85.1C1133.04 84.78 1132.7 84.39 1132.42 83.93H1132.36V91.91H1129.81V70.49ZM1141.81 78.11C1141.81 77.39 1141.71 76.69 1141.51 76.01C1141.33 75.31 1141.04 74.69 1140.64 74.15C1140.26 73.61 1139.76 73.18 1139.14 72.86C1138.54 72.54 1137.83 72.38 1137.01 72.38C1136.15 72.38 1135.42 72.55 1134.82 72.89C1134.22 73.23 1133.73 73.68 1133.35 74.24C1132.97 74.78 1132.69 75.4 1132.51 76.1C1132.35 76.8 1132.27 77.51 1132.27 78.23C1132.27 78.99 1132.36 79.73 1132.54 80.45C1132.72 81.15 1133 81.77 1133.38 82.31C1133.78 82.85 1134.29 83.29 1134.91 83.63C1135.53 83.95 1136.28 84.11 1137.16 84.11C1138.04 84.11 1138.77 83.94 1139.35 83.6C1139.95 83.26 1140.43 82.81 1140.79 82.25C1141.15 81.69 1141.41 81.05 1141.57 80.33C1141.73 79.61 1141.81 78.87 1141.81 78.11ZM1156.25 64.58H1159.28L1170.56 81.95H1170.62V64.58H1173.32V86H1170.2L1159.01 68.81H1158.95V86H1156.25V64.58ZM1179.37 78.26C1179.37 79.2 1179.49 80.04 1179.73 80.78C1179.99 81.5 1180.34 82.11 1180.78 82.61C1181.22 83.09 1181.73 83.46 1182.31 83.72C1182.91 83.98 1183.54 84.11 1184.2 84.11C1184.86 84.11 1185.48 83.98 1186.06 83.72C1186.66 83.46 1187.18 83.09 1187.62 82.61C1188.06 82.11 1188.4 81.5 1188.64 80.78C1188.9 80.04 1189.03 79.2 1189.03 78.26C1189.03 77.32 1188.9 76.49 1188.64 75.77C1188.4 75.03 1188.06 74.41 1187.62 73.91C1187.18 73.41 1186.66 73.03 1186.06 72.77C1185.48 72.51 1184.86 72.38 1184.2 72.38C1183.54 72.38 1182.91 72.51 1182.31 72.77C1181.73 73.03 1181.22 73.41 1180.78 73.91C1180.34 74.41 1179.99 75.03 1179.73 75.77C1179.49 76.49 1179.37 77.32 1179.37 78.26ZM1176.67 78.26C1176.67 77.12 1176.83 76.06 1177.15 75.08C1177.47 74.08 1177.95 73.22 1178.59 72.5C1179.23 71.76 1180.02 71.18 1180.96 70.76C1181.9 70.34 1182.98 70.13 1184.2 70.13C1185.44 70.13 1186.52 70.34 1187.44 70.76C1188.38 71.18 1189.17 71.76 1189.81 72.5C1190.45 73.22 1190.93 74.08 1191.25 75.08C1191.57 76.06 1191.73 77.12 1191.73 78.26C1191.73 79.4 1191.57 80.46 1191.25 81.44C1190.93 82.42 1190.45 83.28 1189.81 84.02C1189.17 84.74 1188.38 85.31 1187.44 85.73C1186.52 86.13 1185.44 86.33 1184.2 86.33C1182.98 86.33 1181.9 86.13 1180.96 85.73C1180.02 85.31 1179.23 84.74 1178.59 84.02C1177.95 83.28 1177.47 82.42 1177.15 81.44C1176.83 80.46 1176.67 79.4 1176.67 78.26ZM1210.09 86H1207.39L1204.24 73.67H1204.18L1201.06 86H1198.3L1193.32 70.49H1196.14L1199.65 83.18H1199.71L1202.83 70.49H1205.62L1208.86 83.18H1208.92L1212.4 70.49H1215.04L1210.09 86Z" fill="white"/>
<path d="M1231.76 84.384L1229.89 83.184L1235.95 77.072V77.968L1229.89 71.856L1231.76 70.656L1238.32 77.52L1231.76 84.384Z" fill="white"/>
<path d="M504.22 123V121.11L507.82 120.39C510.34 119.85 511.6 118.38 511.6 115.98V91.41C511.6 87.21 511.6 83.01 511.6 78.81C511.6 74.61 511.57 70.41 511.51 66.21H504.4C502.48 66.21 501.07 66.72 500.17 67.74C499.27 68.76 498.37 70.2 497.47 72.06L494.32 78.72H491.8L492.25 63.51H543.91L544.36 78.72H541.84L538.69 72.06C537.79 70.2 536.89 68.76 535.99 67.74C535.09 66.72 533.68 66.21 531.76 66.21H524.56V115.98C524.56 118.44 525.82 119.91 528.34 120.39L532.03 121.11V123H504.22ZM545.532 123V121.11L547.242 120.57C548.442 120.15 549.252 119.61 549.672 118.95C550.092 118.23 550.302 117.27 550.302 116.07V70.53C550.302 69.33 550.092 68.37 549.672 67.65C549.312 66.93 548.532 66.36 547.332 65.94L545.532 65.4V63.51H567.762V65.4L566.232 65.85C565.092 66.27 564.312 66.84 563.892 67.56C563.472 68.22 563.262 69.15 563.262 70.35V91.05H585.672V70.35C585.672 69.15 585.462 68.22 585.042 67.56C584.622 66.84 583.812 66.27 582.612 65.85L581.172 65.4V63.51H603.402V65.4L601.692 65.94C600.552 66.36 599.742 66.93 599.262 67.65C598.842 68.31 598.632 69.24 598.632 70.44V116.07C598.632 117.27 598.842 118.23 599.262 118.95C599.742 119.61 600.552 120.15 601.692 120.57L603.402 121.11V123H581.172V121.11L582.612 120.66C583.812 120.24 584.622 119.7 585.042 119.04C585.462 118.32 585.672 117.36 585.672 116.16V93.75H563.262V116.16C563.262 117.36 563.472 118.32 563.892 119.04C564.372 119.7 565.182 120.24 566.322 120.66L567.762 121.11V123H545.532ZM604.883 123V121.11L606.683 120.48C607.763 120.18 608.513 119.67 608.933 118.95C609.353 118.17 609.593 117.12 609.653 115.8V70.53C609.593 69.27 609.383 68.31 609.023 67.65C608.663 66.93 607.913 66.39 606.773 66.03L604.883 65.4V63.51H647.723L648.353 77.91H645.833L642.233 69.81C641.753 68.67 641.213 67.8 640.613 67.2C640.013 66.54 639.113 66.21 637.913 66.21H622.613C622.553 69.93 622.523 73.77 622.523 77.73C622.523 81.63 622.523 86.04 622.523 90.96H631.433C632.633 90.96 633.533 90.66 634.133 90.06C634.793 89.4 635.393 88.53 635.933 87.45L637.463 84.03H639.443V100.68H637.463L635.843 97.26C635.363 96.18 634.823 95.31 634.223 94.65C633.623 93.99 632.723 93.66 631.523 93.66H622.523C622.523 97.98 622.523 101.7 622.523 104.82C622.523 107.94 622.523 110.73 622.523 113.19C622.583 115.59 622.613 117.96 622.613 120.3H639.893C641.093 120.3 642.023 120 642.683 119.4C643.343 118.74 643.883 117.84 644.303 116.7L647.633 108.6H650.153L649.523 123H604.883ZM690.657 123.36L671.397 70.26C670.617 68.04 669.087 66.6 666.807 65.94L664.827 65.4V63.51H689.757V65.31L687.237 65.94C685.857 66.3 685.077 66.93 684.897 67.83C684.777 68.73 684.957 69.87 685.437 71.25L698.397 109.68L711.447 71.25C711.927 69.87 712.137 68.73 712.077 67.83C712.077 66.93 711.387 66.3 710.007 65.94L707.847 65.31V63.51H721.257V65.4L719.007 65.94C717.747 66.24 716.847 66.75 716.307 67.47C715.827 68.19 715.377 69.18 714.957 70.44L697.047 123.36H690.657ZM708.81 123V121.11L711.24 120.39C712.5 120.03 713.46 119.49 714.12 118.77C714.84 118.05 715.41 117.06 715.83 115.8L734.01 63.24H741.48L759.57 116.16C760.05 117.48 760.59 118.5 761.19 119.22C761.79 119.88 762.75 120.42 764.07 120.84L765.42 121.2V123H742.56V121.2L744.09 120.75C745.41 120.33 746.19 119.67 746.43 118.77C746.73 117.87 746.67 116.76 746.25 115.44L742.47 103.83H722.58L718.71 115.26C718.29 116.58 718.17 117.66 718.35 118.5C718.53 119.34 719.28 120 720.6 120.48L722.58 121.11V123H708.81ZM723.48 101.22H741.66L732.84 74.13L723.48 101.22ZM788.896 124.53C784.396 124.53 780.406 123.72 776.926 122.1C773.506 120.48 770.806 117.93 768.826 114.45C766.906 110.91 765.946 106.26 765.946 100.5V90.78C765.946 87.42 765.946 84.03 765.946 80.61C765.946 77.19 765.916 73.74 765.856 70.26C765.856 67.92 764.746 66.45 762.526 65.85L760.546 65.4V63.51H784.846V65.4L782.326 65.94C780.046 66.48 778.906 67.98 778.906 70.44C778.846 73.8 778.816 77.19 778.816 80.61C778.816 83.97 778.816 87.36 778.816 90.78V102.21C778.816 108.03 779.986 112.23 782.326 114.81C784.726 117.39 788.116 118.68 792.496 118.68C797.116 118.68 800.716 117.3 803.296 114.54C805.936 111.72 807.256 107.55 807.256 102.03V70.71C807.256 69.51 807.016 68.46 806.536 67.56C806.056 66.66 805.216 66.09 804.016 65.85L801.856 65.4V63.51H815.716V65.4L813.196 65.94C812.056 66.18 811.276 66.72 810.856 67.56C810.436 68.4 810.226 69.42 810.226 70.62V101.49C810.226 108.93 808.276 114.63 804.376 118.59C800.476 122.55 795.316 124.53 788.896 124.53ZM815.592 123V121.11L817.392 120.57C818.652 120.15 819.462 119.61 819.822 118.95C820.182 118.23 820.362 117.24 820.362 115.98V70.44C820.362 69.24 820.182 68.31 819.822 67.65C819.462 66.93 818.682 66.36 817.482 65.94L815.592 65.4V63.51H837.912V65.4L836.202 65.94C835.062 66.36 834.282 66.93 833.862 67.65C833.502 68.37 833.322 69.36 833.322 70.62V120.3H846.552C848.592 120.3 850.122 119.79 851.142 118.77C852.162 117.75 853.122 116.28 854.022 114.36L857.352 106.89H859.872L858.972 123H815.592ZM866.438 123V121.11L870.038 120.39C872.558 119.85 873.818 118.38 873.818 115.98V91.41C873.818 87.21 873.818 83.01 873.818 78.81C873.818 74.61 873.788 70.41 873.728 66.21H866.618C864.698 66.21 863.288 66.72 862.388 67.74C861.488 68.76 860.588 70.2 859.688 72.06L856.538 78.72H854.018L854.468 63.51H906.128L906.578 78.72H904.058L900.908 72.06C900.008 70.2 899.108 68.76 898.208 67.74C897.308 66.72 895.898 66.21 893.978 66.21H886.778V115.98C886.778 118.44 888.038 119.91 890.558 120.39L894.248 121.11V123H866.438Z" fill="url(#paint0_linear_198_26)"/>
<path d="M616.906 39V38.4463L617.433 38.2881C617.785 38.1651 618.013 38.0069 618.119 37.8136C618.242 37.6026 618.303 37.3126 618.303 36.9435V23.6291C618.303 23.26 618.242 22.9787 618.119 22.7854C618.013 22.5745 617.785 22.4075 617.433 22.2844L616.906 22.1263V21.5726H623.497V22.1263L622.97 22.2844C622.636 22.4075 622.408 22.5745 622.285 22.7854C622.162 22.9787 622.1 23.26 622.1 23.6291V36.9435C622.1 37.3126 622.162 37.6026 622.285 37.8136C622.408 38.0069 622.636 38.1651 622.97 38.2881L623.497 38.4463V39H616.906ZM625.024 39V38.4463L625.789 38.2354C626.122 38.1475 626.351 37.9805 626.474 37.7345C626.615 37.4884 626.685 37.1896 626.685 36.8381V24.0773C626.527 23.7433 626.386 23.4972 626.263 23.3391C626.158 23.1633 626.043 23.0139 625.92 22.8908C625.797 22.7678 625.63 22.6272 625.419 22.469L624.945 22.1263V21.5726H629.453L638.207 33.5424V23.7609C638.207 23.4094 638.145 23.1018 638.022 22.8381C637.917 22.5745 637.688 22.3987 637.336 22.3108L636.546 22.1263V21.5726H640.474V22.1263L639.815 22.3108C639.481 22.4163 639.27 22.6008 639.182 22.8645C639.112 23.1106 639.077 23.4094 639.077 23.7609V39.1055H637.6L627.555 25.2901V36.8117C627.555 37.1808 627.608 37.4884 627.713 37.7345C627.819 37.9805 628.038 38.1475 628.372 38.2354L629.084 38.4463V39H625.024ZM645.569 39V38.4463L646.624 38.2354C647.362 38.0772 647.731 37.6466 647.731 36.9435V29.7458C647.731 28.5154 647.731 27.2851 647.731 26.0547C647.731 24.8243 647.722 23.5939 647.705 22.3635H645.622C645.059 22.3635 644.646 22.5129 644.383 22.8118C644.119 23.1106 643.855 23.5324 643.592 24.0773L642.669 26.0283H641.931L642.062 21.5726H657.196L657.328 26.0283H656.59L655.667 24.0773C655.403 23.5324 655.14 23.1106 654.876 22.8118C654.612 22.5129 654.199 22.3635 653.637 22.3635H651.528V36.9435C651.528 37.6642 651.897 38.0948 652.635 38.2354L653.716 38.4463V39H645.569ZM658.462 39V38.4463L659.016 38.2881C659.367 38.1827 659.587 38.0333 659.675 37.8399C659.78 37.629 659.833 37.339 659.833 36.9699C659.851 35.9504 659.86 34.931 659.86 33.9115C659.86 32.8921 659.86 31.8638 659.86 30.8268V29.7458C659.86 28.7264 659.86 27.7069 659.86 26.6874C659.86 25.668 659.851 24.6485 659.833 23.6291C659.833 23.26 659.789 22.9787 659.701 22.7854C659.614 22.5745 659.394 22.4163 659.042 22.3108L658.462 22.1263V21.5726H665.844C667.901 21.5726 669.483 21.9681 670.59 22.759C671.715 23.5324 672.278 24.6222 672.278 26.0283C672.278 26.8017 671.97 27.5839 671.355 28.3748C670.757 29.1658 669.834 29.7722 668.586 30.194L672.172 37.1808C672.471 37.7608 672.937 38.1563 673.57 38.3672L674.07 38.4727V39H669.404L665.475 30.7741H663.577C663.577 32.022 663.577 33.1469 663.577 34.1488C663.577 35.1507 663.586 36.091 663.603 36.9699C663.603 37.3214 663.656 37.6026 663.762 37.8136C663.885 38.0245 664.113 38.1739 664.447 38.2618L665.08 38.4463V39H658.462ZM663.577 30.0095H665.001C666.249 30.0095 667.163 29.6931 667.743 29.0603C668.323 28.4275 668.613 27.4608 668.613 26.1601C668.613 24.8595 668.332 23.9015 667.769 23.2863C667.224 22.6536 666.337 22.3372 665.106 22.3372H663.603C663.603 23.0227 663.595 23.7257 663.577 24.4464C663.577 25.1495 663.577 25.9492 663.577 26.8456C663.577 27.7245 663.577 28.7791 663.577 30.0095ZM682.652 39.4482C681.579 39.4482 680.551 39.2549 679.567 38.8682C678.582 38.4815 677.695 37.9102 676.904 37.1544C676.131 36.3811 675.515 35.4231 675.058 34.2806C674.601 33.1381 674.373 31.8023 674.373 30.2731C674.373 28.7791 674.601 27.4608 675.058 26.3183C675.515 25.1758 676.131 24.2179 676.904 23.4445C677.695 22.6711 678.582 22.0911 679.567 21.7044C680.569 21.3001 681.597 21.098 682.652 21.098C683.706 21.098 684.726 21.2914 685.71 21.678C686.712 22.0647 687.599 22.6448 688.373 23.4182C689.146 24.174 689.761 25.1231 690.218 26.2656C690.675 27.4081 690.904 28.7439 690.904 30.2731C690.904 31.7671 690.675 33.0854 690.218 34.2279C689.761 35.3704 689.146 36.3283 688.373 37.1017C687.599 37.8751 686.721 38.4639 685.736 38.8682C684.752 39.2549 683.724 39.4482 682.652 39.4482ZM682.652 38.6573C683.653 38.6573 684.462 38.4024 685.077 37.8927C685.692 37.3654 686.141 36.4865 686.422 35.2561C686.703 34.0258 686.844 32.3648 686.844 30.2731C686.844 28.1815 686.703 26.5292 686.422 25.3164C686.141 24.0861 685.692 23.216 685.077 22.7063C684.462 22.179 683.653 21.9153 682.652 21.9153C681.667 21.9153 680.859 22.179 680.226 22.7063C679.611 23.216 679.163 24.0861 678.881 25.3164C678.6 26.5292 678.459 28.1815 678.459 30.2731C678.459 32.3648 678.6 34.0258 678.881 35.2561C679.163 36.4865 679.611 37.3654 680.226 37.8927C680.859 38.4024 681.667 38.6573 682.652 38.6573ZM691.599 39V38.4463L692.126 38.2618C692.689 38.086 692.97 37.6466 692.97 36.9435C692.988 35.9416 692.996 34.9222 692.996 33.8851C692.996 32.8305 692.996 31.7584 692.996 30.6686V29.7458C692.996 28.7264 692.996 27.7069 692.996 26.6874C692.996 25.668 692.988 24.6485 692.97 23.6291C692.97 22.9084 692.698 22.4602 692.153 22.2844L691.599 22.1263V21.5726H698.533C700.379 21.5726 701.969 21.9153 703.305 22.6008C704.641 23.2863 705.669 24.2794 706.39 25.5801C707.111 26.8632 707.471 28.4188 707.471 30.2467C707.471 32.1099 707.075 33.6918 706.284 34.9925C705.511 36.2932 704.412 37.2863 702.989 37.9718C701.583 38.6573 699.939 39 698.058 39H691.599ZM696.793 38.2354H698.138C699.386 38.2354 700.396 37.9893 701.17 37.4972C701.961 37.005 702.541 36.1789 702.91 35.0189C703.279 33.8412 703.463 32.2593 703.463 30.2731C703.463 28.2869 703.279 26.7138 702.91 25.5537C702.541 24.3937 701.969 23.5676 701.196 23.0754C700.44 22.5833 699.456 22.3372 698.243 22.3372H696.793C696.775 23.55 696.767 24.7804 696.767 26.0283C696.767 27.2587 696.767 28.4979 696.767 29.7458V30.6422C696.767 31.9605 696.767 33.2524 696.767 34.5179C696.767 35.7659 696.775 37.005 696.793 38.2354ZM716.33 39.4482C715.012 39.4482 713.843 39.2109 712.824 38.7363C711.822 38.2618 711.031 37.5148 710.451 36.4953C709.888 35.4583 709.607 34.0961 709.607 32.4087V29.5612C709.607 28.5769 709.607 27.5839 709.607 26.582C709.607 25.5801 709.598 24.5694 709.581 23.55C709.581 22.8645 709.256 22.4339 708.605 22.2581L708.025 22.1263V21.5726H715.144V22.1263L714.406 22.2844C713.738 22.4426 713.404 22.8821 713.404 23.6027C713.386 24.587 713.377 25.5801 713.377 26.582C713.377 27.5663 713.377 28.5594 713.377 29.5612V32.9096C713.377 34.6146 713.72 35.845 714.406 36.6008C715.109 37.3566 716.102 37.7345 717.385 37.7345C718.738 37.7345 719.793 37.3302 720.549 36.5217C721.322 35.6956 721.709 34.474 721.709 32.8569V23.6818C721.709 23.3303 721.638 23.0227 721.498 22.759C721.357 22.4954 721.111 22.3284 720.76 22.2581L720.127 22.1263V21.5726H724.187V22.1263L723.449 22.2844C723.115 22.3548 722.886 22.5129 722.763 22.759C722.64 23.0051 722.579 23.3039 722.579 23.6554V32.6987C722.579 34.8782 722.008 36.548 720.865 37.7081C719.723 38.8682 718.211 39.4482 716.33 39.4482ZM733.572 39.4482C731.867 39.4482 730.33 39.0967 728.959 38.3936C727.588 37.6905 726.498 36.6535 725.689 35.2825C724.898 33.9115 724.503 32.2417 724.503 30.2731C724.503 28.7967 724.74 27.4872 725.215 26.3447C725.707 25.2022 726.375 24.2443 727.218 23.4709C728.08 22.6799 729.064 22.0911 730.171 21.7044C731.279 21.3001 732.456 21.098 733.704 21.098C734.671 21.098 735.576 21.2123 736.42 21.4408C737.264 21.6517 738.072 21.9681 738.845 22.3899L738.951 25.8438H738.239L737.132 23.7609C736.956 23.4094 736.763 23.093 736.552 22.8118C736.358 22.5305 736.103 22.3284 735.787 22.2054C735.348 21.9944 734.829 21.889 734.232 21.889C733.195 21.889 732.245 22.1526 731.384 22.6799C730.54 23.2072 729.864 24.0861 729.354 25.3164C728.844 26.5292 728.589 28.1903 728.589 30.2995C728.589 32.3911 728.827 34.0521 729.301 35.2825C729.793 36.5129 730.453 37.3917 731.279 37.919C732.105 38.4288 733.036 38.6836 734.073 38.6836C734.548 38.6836 734.935 38.6485 735.233 38.5782C735.532 38.5078 735.831 38.4112 736.13 38.2881C736.481 38.1475 736.754 37.9454 736.947 37.6817C737.141 37.4005 737.307 37.0841 737.448 36.7326L738.45 34.3334H739.162L739.056 38.1299C738.301 38.5518 737.466 38.877 736.552 39.1055C735.638 39.334 734.645 39.4482 733.572 39.4482ZM740.442 39V38.4463L740.969 38.2881C741.32 38.1651 741.549 38.0069 741.654 37.8136C741.777 37.6026 741.839 37.3126 741.839 36.9435V23.6291C741.839 23.26 741.777 22.9787 741.654 22.7854C741.549 22.5745 741.32 22.4075 740.969 22.2844L740.442 22.1263V21.5726H747.033V22.1263L746.506 22.2844C746.172 22.4075 745.943 22.5745 745.82 22.7854C745.697 22.9787 745.636 23.26 745.636 23.6291V36.9435C745.636 37.3126 745.697 37.6026 745.82 37.8136C745.943 38.0069 746.172 38.1651 746.506 38.2881L747.033 38.4463V39H740.442ZM748.559 39V38.4463L749.324 38.2354C749.658 38.1475 749.886 37.9805 750.009 37.7345C750.15 37.4884 750.22 37.1896 750.22 36.8381V24.0773C750.062 23.7433 749.922 23.4972 749.799 23.3391C749.693 23.1633 749.579 23.0139 749.456 22.8908C749.333 22.7678 749.166 22.6272 748.955 22.469L748.48 22.1263V21.5726H752.989L761.742 33.5424V23.7609C761.742 23.4094 761.681 23.1018 761.557 22.8381C761.452 22.5745 761.224 22.3987 760.872 22.3108L760.081 22.1263V21.5726H764.009V22.1263L763.35 22.3108C763.016 22.4163 762.805 22.6008 762.718 22.8645C762.647 23.1106 762.612 23.4094 762.612 23.7609V39.1055H761.136L751.09 25.2901V36.8117C751.09 37.1808 751.143 37.4884 751.249 37.7345C751.354 37.9805 751.574 38.1475 751.908 38.2354L752.62 38.4463V39H748.559ZM774.021 39.4482C772.228 39.4482 770.655 39.0703 769.301 38.3145C767.948 37.5587 766.885 36.4953 766.111 35.1243C765.355 33.7357 764.978 32.1099 764.978 30.2467C764.978 28.4188 765.347 26.8193 766.085 25.4483C766.841 24.0773 767.93 23.0139 769.354 22.2581C770.778 21.4847 772.483 21.098 774.469 21.098C775.418 21.098 776.297 21.2035 777.106 21.4144C777.932 21.6253 778.705 21.9329 779.426 22.3372L779.531 26.1074H778.819L777.501 23.4445C777.29 23.0227 777.088 22.7151 776.895 22.5217C776.701 22.3284 776.446 22.1878 776.13 22.0999C775.902 22.012 775.682 21.9593 775.471 21.9417C775.26 21.9065 774.988 21.889 774.654 21.889C773.546 21.889 772.571 22.179 771.727 22.759C770.883 23.3215 770.224 24.2179 769.75 25.4483C769.293 26.6787 769.064 28.2781 769.064 30.2467C769.064 33.2172 769.548 35.3704 770.514 36.7062C771.499 38.0245 772.808 38.6836 774.443 38.6836C774.829 38.6836 775.163 38.6309 775.445 38.5254C775.778 38.4727 776.007 38.3409 776.13 38.1299C776.253 37.9014 776.315 37.6202 776.315 37.2863C776.315 36.5656 776.306 35.7834 776.288 34.9398C776.288 34.0785 776.288 33.2963 776.288 32.5933C776.288 31.9078 775.928 31.4859 775.207 31.3277L774.021 31.0641V30.5104H781.298V31.0641L780.981 31.1432C780.647 31.2486 780.392 31.4068 780.217 31.6177C780.041 31.8111 779.953 32.0835 779.953 32.4351C779.953 33.1381 779.944 33.8588 779.927 34.597C779.927 35.3177 779.927 36.0471 779.927 36.7853V37.919C779.013 38.4112 778.081 38.7891 777.132 39.0527C776.2 39.3164 775.163 39.4482 774.021 39.4482Z" fill="#FBF9F3"/>
<defs>
<linearGradient id="paint0_linear_198_26" x1="490" y1="91.5" x2="909" y2="91.5" gradientUnits="userSpaceOnUse">
<stop stop-color="#CCAA3C"/>
<stop offset="0.2" stop-color="#DAC471"/>
<stop offset="0.318478" stop-color="#FFFDB8"/>
<stop offset="0.557693" stop-color="#F3EAA1"/>
<stop offset="0.8" stop-color="#DAC471"/>
<stop offset="1" stop-color="#CCAA3C"/>
</linearGradient>
</defs>
</svg>
