<svg width="767" height="250" viewBox="0 0 767 250" fill="none" xmlns="http://www.w3.org/2000/svg">
<path d="M188.22 146V144.11L191.82 143.39C194.34 142.85 195.6 141.38 195.6 138.98V114.41C195.6 110.21 195.6 106.01 195.6 101.81C195.6 97.61 195.57 93.41 195.51 89.21H188.4C186.48 89.21 185.07 89.72 184.17 90.74C183.27 91.76 182.37 93.2 181.47 95.06L178.32 101.72H175.8L176.25 86.51H227.91L228.36 101.72H225.84L222.69 95.06C221.79 93.2 220.89 91.76 219.99 90.74C219.09 89.72 217.68 89.21 215.76 89.21H208.56V138.98C208.56 141.44 209.82 142.91 212.34 143.39L216.03 144.11V146H188.22ZM229.532 146V144.11L231.242 143.57C232.442 143.15 233.252 142.61 233.672 141.95C234.092 141.23 234.302 140.27 234.302 139.07V93.53C234.302 92.33 234.092 91.37 233.672 90.65C233.312 89.93 232.532 89.36 231.332 88.94L229.532 88.4V86.51H251.762V88.4L250.232 88.85C249.092 89.27 248.312 89.84 247.892 90.56C247.472 91.22 247.262 92.15 247.262 93.35V114.05H269.672V93.35C269.672 92.15 269.462 91.22 269.042 90.56C268.622 89.84 267.812 89.27 266.612 88.85L265.172 88.4V86.51H287.402V88.4L285.692 88.94C284.552 89.36 283.742 89.93 283.262 90.65C282.842 91.31 282.632 92.24 282.632 93.44V139.07C282.632 140.27 282.842 141.23 283.262 141.95C283.742 142.61 284.552 143.15 285.692 143.57L287.402 144.11V146H265.172V144.11L266.612 143.66C267.812 143.24 268.622 142.7 269.042 142.04C269.462 141.32 269.672 140.36 269.672 139.16V116.75H247.262V139.16C247.262 140.36 247.472 141.32 247.892 142.04C248.372 142.7 249.182 143.24 250.322 143.66L251.762 144.11V146H229.532ZM288.883 146V144.11L290.683 143.48C291.763 143.18 292.513 142.67 292.933 141.95C293.353 141.17 293.593 140.12 293.653 138.8V93.53C293.593 92.27 293.383 91.31 293.023 90.65C292.663 89.93 291.913 89.39 290.773 89.03L288.883 88.4V86.51H331.723L332.353 100.91H329.833L326.233 92.81C325.753 91.67 325.213 90.8 324.613 90.2C324.013 89.54 323.113 89.21 321.913 89.21H306.613C306.553 92.93 306.523 96.77 306.523 100.73C306.523 104.63 306.523 109.04 306.523 113.96H315.433C316.633 113.96 317.533 113.66 318.133 113.06C318.793 112.4 319.393 111.53 319.933 110.45L321.463 107.03H323.443V123.68H321.463L319.843 120.26C319.363 119.18 318.823 118.31 318.223 117.65C317.623 116.99 316.723 116.66 315.523 116.66H306.523C306.523 120.98 306.523 124.7 306.523 127.82C306.523 130.94 306.523 133.73 306.523 136.19C306.583 138.59 306.613 140.96 306.613 143.3H323.893C325.093 143.3 326.023 143 326.683 142.4C327.343 141.74 327.883 140.84 328.303 139.7L331.633 131.6H334.153L333.523 146H288.883ZM374.657 146.36L355.397 93.26C354.617 91.04 353.087 89.6 350.807 88.94L348.827 88.4V86.51H373.757V88.31L371.237 88.94C369.857 89.3 369.077 89.93 368.897 90.83C368.777 91.73 368.957 92.87 369.437 94.25L382.397 132.68L395.447 94.25C395.927 92.87 396.137 91.73 396.077 90.83C396.077 89.93 395.387 89.3 394.007 88.94L391.847 88.31V86.51H405.257V88.4L403.007 88.94C401.747 89.24 400.847 89.75 400.307 90.47C399.827 91.19 399.377 92.18 398.957 93.44L381.047 146.36H374.657ZM392.81 146V144.11L395.24 143.39C396.5 143.03 397.46 142.49 398.12 141.77C398.84 141.05 399.41 140.06 399.83 138.8L418.01 86.24H425.48L443.57 139.16C444.05 140.48 444.59 141.5 445.19 142.22C445.79 142.88 446.75 143.42 448.07 143.84L449.42 144.2V146H426.56V144.2L428.09 143.75C429.41 143.33 430.19 142.67 430.43 141.77C430.73 140.87 430.67 139.76 430.25 138.44L426.47 126.83H406.58L402.71 138.26C402.29 139.58 402.17 140.66 402.35 141.5C402.53 142.34 403.28 143 404.6 143.48L406.58 144.11V146H392.81ZM407.48 124.22H425.66L416.84 97.13L407.48 124.22ZM472.896 147.53C468.396 147.53 464.406 146.72 460.926 145.1C457.506 143.48 454.806 140.93 452.826 137.45C450.906 133.91 449.946 129.26 449.946 123.5V113.78C449.946 110.42 449.946 107.03 449.946 103.61C449.946 100.19 449.916 96.74 449.856 93.26C449.856 90.92 448.746 89.45 446.526 88.85L444.546 88.4V86.51H468.846V88.4L466.326 88.94C464.046 89.48 462.906 90.98 462.906 93.44C462.846 96.8 462.816 100.19 462.816 103.61C462.816 106.97 462.816 110.36 462.816 113.78V125.21C462.816 131.03 463.986 135.23 466.326 137.81C468.726 140.39 472.116 141.68 476.496 141.68C481.116 141.68 484.716 140.3 487.296 137.54C489.936 134.72 491.256 130.55 491.256 125.03V93.71C491.256 92.51 491.016 91.46 490.536 90.56C490.056 89.66 489.216 89.09 488.016 88.85L485.856 88.4V86.51H499.716V88.4L497.196 88.94C496.056 89.18 495.276 89.72 494.856 90.56C494.436 91.4 494.226 92.42 494.226 93.62V124.49C494.226 131.93 492.276 137.63 488.376 141.59C484.476 145.55 479.316 147.53 472.896 147.53ZM499.592 146V144.11L501.392 143.57C502.652 143.15 503.462 142.61 503.822 141.95C504.182 141.23 504.362 140.24 504.362 138.98V93.44C504.362 92.24 504.182 91.31 503.822 90.65C503.462 89.93 502.682 89.36 501.482 88.94L499.592 88.4V86.51H521.912V88.4L520.202 88.94C519.062 89.36 518.282 89.93 517.862 90.65C517.502 91.37 517.322 92.36 517.322 93.62V143.3H530.552C532.592 143.3 534.122 142.79 535.142 141.77C536.162 140.75 537.122 139.28 538.022 137.36L541.352 129.89H543.872L542.972 146H499.592ZM550.438 146V144.11L554.038 143.39C556.558 142.85 557.818 141.38 557.818 138.98V114.41C557.818 110.21 557.818 106.01 557.818 101.81C557.818 97.61 557.788 93.41 557.728 89.21H550.618C548.698 89.21 547.288 89.72 546.388 90.74C545.488 91.76 544.588 93.2 543.688 95.06L540.538 101.72H538.018L538.468 86.51H590.128L590.578 101.72H588.058L584.908 95.06C584.008 93.2 583.108 91.76 582.208 90.74C581.308 89.72 579.898 89.21 577.978 89.21H570.778V138.98C570.778 141.44 572.038 142.91 574.558 143.39L578.248 144.11V146H550.438Z" fill="url(#paint0_linear_198_27)"/>
<path d="M315.183 190.85C315.023 189.31 314.463 188.2 313.503 187.52C312.563 186.82 311.353 186.47 309.873 186.47C309.273 186.47 308.683 186.53 308.103 186.65C307.523 186.77 307.003 186.97 306.543 187.25C306.103 187.53 305.743 187.91 305.463 188.39C305.203 188.85 305.073 189.43 305.073 190.13C305.073 190.79 305.263 191.33 305.643 191.75C306.043 192.15 306.563 192.48 307.203 192.74C307.863 193 308.603 193.22 309.423 193.4C310.243 193.56 311.073 193.74 311.913 193.94C312.773 194.14 313.613 194.38 314.433 194.66C315.253 194.92 315.983 195.28 316.623 195.74C317.283 196.2 317.803 196.78 318.183 197.48C318.583 198.18 318.783 199.06 318.783 200.12C318.783 201.26 318.523 202.24 318.003 203.06C317.503 203.86 316.853 204.52 316.053 205.04C315.253 205.54 314.353 205.9 313.353 206.12C312.373 206.36 311.393 206.48 310.413 206.48C309.213 206.48 308.073 206.33 306.993 206.03C305.933 205.73 304.993 205.28 304.173 204.68C303.373 204.06 302.733 203.28 302.253 202.34C301.793 201.38 301.563 200.25 301.563 198.95H304.263C304.263 199.85 304.433 200.63 304.773 201.29C305.133 201.93 305.593 202.46 306.153 202.88C306.733 203.3 307.403 203.61 308.163 203.81C308.923 204.01 309.703 204.11 310.503 204.11C311.143 204.11 311.783 204.05 312.423 203.93C313.083 203.81 313.673 203.61 314.193 203.33C314.713 203.03 315.133 202.63 315.453 202.13C315.773 201.63 315.933 200.99 315.933 200.21C315.933 199.47 315.733 198.87 315.333 198.41C314.953 197.95 314.433 197.58 313.773 197.3C313.133 197 312.403 196.76 311.583 196.58C310.763 196.4 309.923 196.22 309.063 196.04C308.223 195.84 307.393 195.62 306.573 195.38C305.753 195.12 305.013 194.79 304.353 194.39C303.713 193.97 303.193 193.44 302.793 192.8C302.413 192.14 302.223 191.32 302.223 190.34C302.223 189.26 302.443 188.33 302.883 187.55C303.323 186.75 303.903 186.1 304.623 185.6C305.363 185.08 306.193 184.7 307.113 184.46C308.053 184.2 309.013 184.07 309.993 184.07C311.093 184.07 312.113 184.2 313.053 184.46C313.993 184.72 314.813 185.13 315.513 185.69C316.233 186.25 316.793 186.96 317.193 187.82C317.613 188.66 317.843 189.67 317.883 190.85H315.183ZM321.826 184.58H324.376V192.77H324.436C324.636 192.29 324.916 191.89 325.276 191.57C325.636 191.23 326.036 190.96 326.476 190.76C326.936 190.54 327.406 190.38 327.886 190.28C328.386 190.18 328.866 190.13 329.326 190.13C330.346 190.13 331.196 190.27 331.876 190.55C332.556 190.83 333.106 191.22 333.526 191.72C333.946 192.22 334.236 192.82 334.396 193.52C334.576 194.2 334.666 194.96 334.666 195.8V206H332.116V195.5C332.116 194.54 331.836 193.78 331.276 193.22C330.716 192.66 329.946 192.38 328.966 192.38C328.186 192.38 327.506 192.5 326.926 192.74C326.366 192.98 325.896 193.32 325.516 193.76C325.136 194.2 324.846 194.72 324.646 195.32C324.466 195.9 324.376 196.54 324.376 197.24V206H321.826V184.58ZM340.356 198.26C340.356 199.2 340.476 200.04 340.716 200.78C340.976 201.5 341.326 202.11 341.766 202.61C342.206 203.09 342.716 203.46 343.296 203.72C343.896 203.98 344.526 204.11 345.186 204.11C345.846 204.11 346.466 203.98 347.046 203.72C347.646 203.46 348.166 203.09 348.606 202.61C349.046 202.11 349.386 201.5 349.626 200.78C349.886 200.04 350.016 199.2 350.016 198.26C350.016 197.32 349.886 196.49 349.626 195.77C349.386 195.03 349.046 194.41 348.606 193.91C348.166 193.41 347.646 193.03 347.046 192.77C346.466 192.51 345.846 192.38 345.186 192.38C344.526 192.38 343.896 192.51 343.296 192.77C342.716 193.03 342.206 193.41 341.766 193.91C341.326 194.41 340.976 195.03 340.716 195.77C340.476 196.49 340.356 197.32 340.356 198.26ZM337.656 198.26C337.656 197.12 337.816 196.06 338.136 195.08C338.456 194.08 338.936 193.22 339.576 192.5C340.216 191.76 341.006 191.18 341.946 190.76C342.886 190.34 343.966 190.13 345.186 190.13C346.426 190.13 347.506 190.34 348.426 190.76C349.366 191.18 350.156 191.76 350.796 192.5C351.436 193.22 351.916 194.08 352.236 195.08C352.556 196.06 352.716 197.12 352.716 198.26C352.716 199.4 352.556 200.46 352.236 201.44C351.916 202.42 351.436 203.28 350.796 204.02C350.156 204.74 349.366 205.31 348.426 205.73C347.506 206.13 346.426 206.33 345.186 206.33C343.966 206.33 342.886 206.13 341.946 205.73C341.006 205.31 340.216 204.74 339.576 204.02C338.936 203.28 338.456 202.42 338.136 201.44C337.816 200.46 337.656 199.4 337.656 198.26ZM355.813 190.49H358.363V192.59H358.423C358.843 191.73 359.503 191.11 360.403 190.73C361.303 190.33 362.293 190.13 363.373 190.13C364.573 190.13 365.613 190.35 366.493 190.79C367.393 191.23 368.133 191.83 368.713 192.59C369.313 193.33 369.763 194.19 370.063 195.17C370.363 196.15 370.513 197.19 370.513 198.29C370.513 199.39 370.363 200.43 370.063 201.41C369.783 202.39 369.343 203.25 368.743 203.99C368.163 204.71 367.423 205.28 366.523 205.7C365.643 206.12 364.613 206.33 363.433 206.33C363.053 206.33 362.623 206.29 362.143 206.21C361.683 206.13 361.223 206 360.763 205.82C360.303 205.64 359.863 205.4 359.443 205.1C359.043 204.78 358.703 204.39 358.423 203.93H358.363V211.91H355.813V190.49ZM367.813 198.11C367.813 197.39 367.713 196.69 367.513 196.01C367.333 195.31 367.043 194.69 366.643 194.15C366.263 193.61 365.763 193.18 365.143 192.86C364.543 192.54 363.833 192.38 363.013 192.38C362.153 192.38 361.423 192.55 360.823 192.89C360.223 193.23 359.733 193.68 359.353 194.24C358.973 194.78 358.693 195.4 358.513 196.1C358.353 196.8 358.273 197.51 358.273 198.23C358.273 198.99 358.363 199.73 358.543 200.45C358.723 201.15 359.003 201.77 359.383 202.31C359.783 202.85 360.293 203.29 360.913 203.63C361.533 203.95 362.283 204.11 363.163 204.11C364.043 204.11 364.773 203.94 365.353 203.6C365.953 203.26 366.433 202.81 366.793 202.25C367.153 201.69 367.413 201.05 367.573 200.33C367.733 199.61 367.813 198.87 367.813 198.11ZM382.246 184.58H385.276L396.556 201.95H396.616V184.58H399.316V206H396.196L385.006 188.81H384.946V206H382.246V184.58ZM405.366 198.26C405.366 199.2 405.486 200.04 405.726 200.78C405.986 201.5 406.336 202.11 406.776 202.61C407.216 203.09 407.726 203.46 408.306 203.72C408.906 203.98 409.536 204.11 410.196 204.11C410.856 204.11 411.476 203.98 412.056 203.72C412.656 203.46 413.176 203.09 413.616 202.61C414.056 202.11 414.396 201.5 414.636 200.78C414.896 200.04 415.026 199.2 415.026 198.26C415.026 197.32 414.896 196.49 414.636 195.77C414.396 195.03 414.056 194.41 413.616 193.91C413.176 193.41 412.656 193.03 412.056 192.77C411.476 192.51 410.856 192.38 410.196 192.38C409.536 192.38 408.906 192.51 408.306 192.77C407.726 193.03 407.216 193.41 406.776 193.91C406.336 194.41 405.986 195.03 405.726 195.77C405.486 196.49 405.366 197.32 405.366 198.26ZM402.666 198.26C402.666 197.12 402.826 196.06 403.146 195.08C403.466 194.08 403.946 193.22 404.586 192.5C405.226 191.76 406.016 191.18 406.956 190.76C407.896 190.34 408.976 190.13 410.196 190.13C411.436 190.13 412.516 190.34 413.436 190.76C414.376 191.18 415.166 191.76 415.806 192.5C416.446 193.22 416.926 194.08 417.246 195.08C417.566 196.06 417.726 197.12 417.726 198.26C417.726 199.4 417.566 200.46 417.246 201.44C416.926 202.42 416.446 203.28 415.806 204.02C415.166 204.74 414.376 205.31 413.436 205.73C412.516 206.13 411.436 206.33 410.196 206.33C408.976 206.33 407.896 206.13 406.956 205.73C406.016 205.31 405.226 204.74 404.586 204.02C403.946 203.28 403.466 202.42 403.146 201.44C402.826 200.46 402.666 199.4 402.666 198.26ZM436.093 206H433.393L430.243 193.67H430.183L427.063 206H424.303L419.323 190.49H422.143L425.653 203.18H425.713L428.833 190.49H431.623L434.863 203.18H434.923L438.403 190.49H441.043L436.093 206Z" fill="white"/>
<path d="M457.759 204.384L455.887 203.184L461.951 197.072V197.968L455.887 191.856L457.759 190.656L464.319 197.52L457.759 204.384Z" fill="white"/>
<path d="M300.906 62V61.4463L301.433 61.2881C301.785 61.1651 302.013 61.0069 302.119 60.8136C302.242 60.6026 302.303 60.3126 302.303 59.9435V46.6291C302.303 46.26 302.242 45.9787 302.119 45.7854C302.013 45.5745 301.785 45.4075 301.433 45.2844L300.906 45.1263V44.5726H307.497V45.1263L306.97 45.2844C306.636 45.4075 306.408 45.5745 306.285 45.7854C306.162 45.9787 306.1 46.26 306.1 46.6291V59.9435C306.1 60.3126 306.162 60.6026 306.285 60.8136C306.408 61.0069 306.636 61.1651 306.97 61.2881L307.497 61.4463V62H300.906ZM309.024 62V61.4463L309.789 61.2354C310.122 61.1475 310.351 60.9805 310.474 60.7345C310.615 60.4884 310.685 60.1896 310.685 59.8381V47.0773C310.527 46.7433 310.386 46.4972 310.263 46.3391C310.158 46.1633 310.043 46.0139 309.92 45.8908C309.797 45.7678 309.63 45.6272 309.419 45.469L308.945 45.1263V44.5726H313.453L322.207 56.5424V46.7609C322.207 46.4094 322.145 46.1018 322.022 45.8381C321.917 45.5745 321.688 45.3987 321.336 45.3108L320.546 45.1263V44.5726H324.474V45.1263L323.815 45.3108C323.481 45.4163 323.27 45.6008 323.182 45.8645C323.112 46.1106 323.077 46.4094 323.077 46.7609V62.1055H321.6L311.555 48.2901V59.8117C311.555 60.1808 311.608 60.4884 311.713 60.7345C311.819 60.9805 312.038 61.1475 312.372 61.2354L313.084 61.4463V62H309.024ZM329.569 62V61.4463L330.624 61.2354C331.362 61.0772 331.731 60.6466 331.731 59.9435V52.7458C331.731 51.5154 331.731 50.2851 331.731 49.0547C331.731 47.8243 331.722 46.5939 331.705 45.3635H329.622C329.059 45.3635 328.646 45.5129 328.383 45.8118C328.119 46.1106 327.855 46.5324 327.592 47.0773L326.669 49.0283H325.931L326.062 44.5726H341.196L341.328 49.0283H340.59L339.667 47.0773C339.403 46.5324 339.14 46.1106 338.876 45.8118C338.612 45.5129 338.199 45.3635 337.637 45.3635H335.528V59.9435C335.528 60.6642 335.897 61.0948 336.635 61.2354L337.716 61.4463V62H329.569ZM342.462 62V61.4463L343.016 61.2881C343.367 61.1827 343.587 61.0333 343.675 60.8399C343.78 60.629 343.833 60.339 343.833 59.9699C343.851 58.9504 343.86 57.931 343.86 56.9115C343.86 55.8921 343.86 54.8638 343.86 53.8268V52.7458C343.86 51.7264 343.86 50.7069 343.86 49.6874C343.86 48.668 343.851 47.6485 343.833 46.6291C343.833 46.26 343.789 45.9787 343.701 45.7854C343.614 45.5745 343.394 45.4163 343.042 45.3108L342.462 45.1263V44.5726H349.844C351.901 44.5726 353.483 44.9681 354.59 45.759C355.715 46.5324 356.278 47.6222 356.278 49.0283C356.278 49.8017 355.97 50.5839 355.355 51.3748C354.757 52.1658 353.834 52.7722 352.586 53.194L356.172 60.1808C356.471 60.7608 356.937 61.1563 357.57 61.3672L358.07 61.4727V62H353.404L349.475 53.7741H347.577C347.577 55.022 347.577 56.1469 347.577 57.1488C347.577 58.1507 347.586 59.091 347.603 59.9699C347.603 60.3214 347.656 60.6026 347.762 60.8136C347.885 61.0245 348.113 61.1739 348.447 61.2618L349.08 61.4463V62H342.462ZM347.577 53.0095H349.001C350.249 53.0095 351.163 52.6931 351.743 52.0603C352.323 51.4275 352.613 50.4608 352.613 49.1601C352.613 47.8595 352.332 46.9015 351.769 46.2863C351.224 45.6536 350.337 45.3372 349.106 45.3372H347.603C347.603 46.0227 347.595 46.7257 347.577 47.4464C347.577 48.1495 347.577 48.9492 347.577 49.8456C347.577 50.7245 347.577 51.7791 347.577 53.0095ZM366.652 62.4482C365.579 62.4482 364.551 62.2549 363.567 61.8682C362.582 61.4815 361.695 60.9102 360.904 60.1544C360.131 59.3811 359.515 58.4231 359.058 57.2806C358.601 56.1381 358.373 54.8023 358.373 53.2731C358.373 51.7791 358.601 50.4608 359.058 49.3183C359.515 48.1758 360.131 47.2179 360.904 46.4445C361.695 45.6711 362.582 45.0911 363.567 44.7044C364.569 44.3001 365.597 44.098 366.652 44.098C367.706 44.098 368.726 44.2914 369.71 44.678C370.712 45.0647 371.599 45.6448 372.373 46.4182C373.146 47.174 373.761 48.1231 374.218 49.2656C374.675 50.4081 374.904 51.7439 374.904 53.2731C374.904 54.7671 374.675 56.0854 374.218 57.2279C373.761 58.3704 373.146 59.3283 372.373 60.1017C371.599 60.8751 370.721 61.4639 369.736 61.8682C368.752 62.2549 367.724 62.4482 366.652 62.4482ZM366.652 61.6573C367.653 61.6573 368.462 61.4024 369.077 60.8927C369.692 60.3654 370.141 59.4865 370.422 58.2561C370.703 57.0258 370.844 55.3648 370.844 53.2731C370.844 51.1815 370.703 49.5292 370.422 48.3164C370.141 47.0861 369.692 46.216 369.077 45.7063C368.462 45.179 367.653 44.9153 366.652 44.9153C365.667 44.9153 364.859 45.179 364.226 45.7063C363.611 46.216 363.163 47.0861 362.881 48.3164C362.6 49.5292 362.459 51.1815 362.459 53.2731C362.459 55.3648 362.6 57.0258 362.881 58.2561C363.163 59.4865 363.611 60.3654 364.226 60.8927C364.859 61.4024 365.667 61.6573 366.652 61.6573ZM375.599 62V61.4463L376.126 61.2618C376.689 61.086 376.97 60.6466 376.97 59.9435C376.988 58.9416 376.996 57.9222 376.996 56.8851C376.996 55.8305 376.996 54.7584 376.996 53.6686V52.7458C376.996 51.7264 376.996 50.7069 376.996 49.6874C376.996 48.668 376.988 47.6485 376.97 46.6291C376.97 45.9084 376.698 45.4602 376.153 45.2844L375.599 45.1263V44.5726H382.533C384.379 44.5726 385.969 44.9153 387.305 45.6008C388.641 46.2863 389.669 47.2794 390.39 48.5801C391.111 49.8632 391.471 51.4188 391.471 53.2467C391.471 55.1099 391.075 56.6918 390.284 57.9925C389.511 59.2932 388.412 60.2863 386.989 60.9718C385.583 61.6573 383.939 62 382.058 62H375.599ZM380.793 61.2354H382.138C383.386 61.2354 384.396 60.9893 385.17 60.4972C385.961 60.005 386.541 59.1789 386.91 58.0189C387.279 56.8412 387.463 55.2593 387.463 53.2731C387.463 51.2869 387.279 49.7138 386.91 48.5537C386.541 47.3937 385.969 46.5676 385.196 46.0754C384.44 45.5833 383.456 45.3372 382.243 45.3372H380.793C380.775 46.55 380.767 47.7804 380.767 49.0283C380.767 50.2587 380.767 51.4979 380.767 52.7458V53.6422C380.767 54.9605 380.767 56.2524 380.767 57.5179C380.767 58.7659 380.775 60.005 380.793 61.2354ZM400.33 62.4482C399.012 62.4482 397.843 62.2109 396.824 61.7363C395.822 61.2618 395.031 60.5148 394.451 59.4953C393.888 58.4583 393.607 57.0961 393.607 55.4087V52.5612C393.607 51.5769 393.607 50.5839 393.607 49.582C393.607 48.5801 393.598 47.5694 393.581 46.55C393.581 45.8645 393.256 45.4339 392.605 45.2581L392.025 45.1263V44.5726H399.144V45.1263L398.406 45.2844C397.738 45.4426 397.404 45.8821 397.404 46.6027C397.386 47.587 397.377 48.5801 397.377 49.582C397.377 50.5663 397.377 51.5594 397.377 52.5612V55.9096C397.377 57.6146 397.72 58.845 398.406 59.6008C399.109 60.3566 400.102 60.7345 401.385 60.7345C402.738 60.7345 403.793 60.3302 404.549 59.5217C405.322 58.6956 405.709 57.474 405.709 55.8569V46.6818C405.709 46.3303 405.638 46.0227 405.498 45.759C405.357 45.4954 405.111 45.3284 404.76 45.2581L404.127 45.1263V44.5726H408.187V45.1263L407.449 45.2844C407.115 45.3548 406.886 45.5129 406.763 45.759C406.64 46.0051 406.579 46.3039 406.579 46.6554V55.6987C406.579 57.8782 406.008 59.548 404.865 60.7081C403.723 61.8682 402.211 62.4482 400.33 62.4482ZM417.572 62.4482C415.867 62.4482 414.33 62.0967 412.959 61.3936C411.588 60.6905 410.498 59.6535 409.689 58.2825C408.898 56.9115 408.503 55.2417 408.503 53.2731C408.503 51.7967 408.74 50.4872 409.215 49.3447C409.707 48.2022 410.375 47.2443 411.218 46.4709C412.08 45.6799 413.064 45.0911 414.171 44.7044C415.279 44.3001 416.456 44.098 417.704 44.098C418.671 44.098 419.576 44.2123 420.42 44.4408C421.264 44.6517 422.072 44.9681 422.845 45.3899L422.951 48.8438H422.239L421.132 46.7609C420.956 46.4094 420.763 46.093 420.552 45.8118C420.358 45.5305 420.103 45.3284 419.787 45.2054C419.348 44.9944 418.829 44.889 418.232 44.889C417.195 44.889 416.245 45.1526 415.384 45.6799C414.54 46.2072 413.864 47.0861 413.354 48.3164C412.844 49.5292 412.589 51.1903 412.589 53.2995C412.589 55.3911 412.827 57.0521 413.301 58.2825C413.793 59.5129 414.453 60.3917 415.279 60.919C416.105 61.4288 417.036 61.6836 418.073 61.6836C418.548 61.6836 418.935 61.6485 419.233 61.5782C419.532 61.5078 419.831 61.4112 420.13 61.2881C420.481 61.1475 420.754 60.9454 420.947 60.6817C421.141 60.4005 421.307 60.0841 421.448 59.7326L422.45 57.3334H423.162L423.056 61.1299C422.301 61.5518 421.466 61.877 420.552 62.1055C419.638 62.334 418.645 62.4482 417.572 62.4482ZM424.442 62V61.4463L424.969 61.2881C425.32 61.1651 425.549 61.0069 425.654 60.8136C425.777 60.6026 425.839 60.3126 425.839 59.9435V46.6291C425.839 46.26 425.777 45.9787 425.654 45.7854C425.549 45.5745 425.32 45.4075 424.969 45.2844L424.442 45.1263V44.5726H431.033V45.1263L430.506 45.2844C430.172 45.4075 429.943 45.5745 429.82 45.7854C429.697 45.9787 429.636 46.26 429.636 46.6291V59.9435C429.636 60.3126 429.697 60.6026 429.82 60.8136C429.943 61.0069 430.172 61.1651 430.506 61.2881L431.033 61.4463V62H424.442ZM432.559 62V61.4463L433.324 61.2354C433.658 61.1475 433.886 60.9805 434.009 60.7345C434.15 60.4884 434.22 60.1896 434.22 59.8381V47.0773C434.062 46.7433 433.922 46.4972 433.799 46.3391C433.693 46.1633 433.579 46.0139 433.456 45.8908C433.333 45.7678 433.166 45.6272 432.955 45.469L432.48 45.1263V44.5726H436.989L445.742 56.5424V46.7609C445.742 46.4094 445.681 46.1018 445.557 45.8381C445.452 45.5745 445.224 45.3987 444.872 45.3108L444.081 45.1263V44.5726H448.009V45.1263L447.35 45.3108C447.016 45.4163 446.805 45.6008 446.718 45.8645C446.647 46.1106 446.612 46.4094 446.612 46.7609V62.1055H445.136L435.09 48.2901V59.8117C435.09 60.1808 435.143 60.4884 435.249 60.7345C435.354 60.9805 435.574 61.1475 435.908 61.2354L436.62 61.4463V62H432.559ZM458.021 62.4482C456.228 62.4482 454.655 62.0703 453.301 61.3145C451.948 60.5587 450.885 59.4953 450.111 58.1243C449.355 56.7357 448.978 55.1099 448.978 53.2467C448.978 51.4188 449.347 49.8193 450.085 48.4483C450.841 47.0773 451.93 46.0139 453.354 45.2581C454.778 44.4847 456.483 44.098 458.469 44.098C459.418 44.098 460.297 44.2035 461.106 44.4144C461.932 44.6253 462.705 44.9329 463.426 45.3372L463.531 49.1074H462.819L461.501 46.4445C461.29 46.0227 461.088 45.7151 460.895 45.5217C460.701 45.3284 460.446 45.1878 460.13 45.0999C459.902 45.012 459.682 44.9593 459.471 44.9417C459.26 44.9065 458.988 44.889 458.654 44.889C457.546 44.889 456.571 45.179 455.727 45.759C454.883 46.3215 454.224 47.2179 453.75 48.4483C453.293 49.6787 453.064 51.2781 453.064 53.2467C453.064 56.2172 453.548 58.3704 454.514 59.7062C455.499 61.0245 456.808 61.6836 458.443 61.6836C458.829 61.6836 459.163 61.6309 459.445 61.5254C459.778 61.4727 460.007 61.3409 460.13 61.1299C460.253 60.9014 460.315 60.6202 460.315 60.2863C460.315 59.5656 460.306 58.7834 460.288 57.9398C460.288 57.0785 460.288 56.2963 460.288 55.5933C460.288 54.9078 459.928 54.4859 459.207 54.3277L458.021 54.0641V53.5104H465.298V54.0641L464.981 54.1432C464.647 54.2486 464.392 54.4068 464.217 54.6177C464.041 54.8111 463.953 55.0835 463.953 55.4351C463.953 56.1381 463.944 56.8588 463.927 57.597C463.927 58.3177 463.927 59.0471 463.927 59.7853V60.919C463.013 61.4112 462.081 61.7891 461.132 62.0527C460.2 62.3164 459.163 62.4482 458.021 62.4482Z" fill="#FBF9F3"/>
<defs>
<linearGradient id="paint0_linear_198_27" x1="174" y1="114.5" x2="593" y2="114.5" gradientUnits="userSpaceOnUse">
<stop stop-color="#CCAA3C"/>
<stop offset="0.2" stop-color="#DAC471"/>
<stop offset="0.318478" stop-color="#FFFDB8"/>
<stop offset="0.557693" stop-color="#F3EAA1"/>
<stop offset="0.8" stop-color="#DAC471"/>
<stop offset="1" stop-color="#CCAA3C"/>
</linearGradient>
</defs>
</svg>
