<svg width="767" height="100" viewBox="0 0 767 100" fill="none" xmlns="http://www.w3.org/2000/svg">
<g clip-path="url(#clip0_20775_14438)">
<g filter="url(#filter0_d_20775_14438)">
<path d="M-96 21.0001L178 20.9999L155.764 50.2702L178 77.9999L-96 78.0001L-74.0011 49.5001L-96 21.0001Z" fill="#FBF9F3"/>
</g>
<path d="M626.628 51.74H633.404L630.072 42.416H630.016L626.628 51.74ZM628.616 40.008H631.556L639.368 60H636.428L634.244 53.98H625.788L623.548 60H620.832L628.616 40.008ZM650.776 50.172C650.59 49.2573 650.198 48.548 649.6 48.044C649.003 47.54 648.2 47.288 647.192 47.288C646.334 47.288 645.615 47.4467 645.036 47.764C644.458 48.0813 643.991 48.5013 643.636 49.024C643.3 49.5467 643.058 50.1533 642.908 50.844C642.759 51.516 642.684 52.216 642.684 52.944C642.684 53.616 642.759 54.2693 642.908 54.904C643.076 55.5387 643.328 56.108 643.664 56.612C644 57.0973 644.439 57.4893 644.98 57.788C645.522 58.0867 646.166 58.236 646.912 58.236C648.088 58.236 649.003 57.928 649.656 57.312C650.328 56.696 650.739 55.828 650.888 54.708H653.324C653.063 56.5 652.391 57.8813 651.308 58.852C650.244 59.8227 648.788 60.308 646.94 60.308C645.839 60.308 644.859 60.1307 644 59.776C643.16 59.4213 642.451 58.9173 641.872 58.264C641.312 57.6107 640.883 56.836 640.584 55.94C640.304 55.0253 640.164 54.0267 640.164 52.944C640.164 51.8613 640.304 50.8533 640.584 49.92C640.864 48.968 641.284 48.1467 641.844 47.456C642.423 46.7467 643.142 46.196 644 45.804C644.859 45.3933 645.858 45.188 646.996 45.188C647.818 45.188 648.583 45.2907 649.292 45.496C650.02 45.6827 650.655 45.9813 651.196 46.392C651.756 46.8027 652.214 47.3253 652.568 47.96C652.923 48.576 653.147 49.3133 653.24 50.172H650.776ZM659.291 45.524H662.175V47.624H659.291V56.612C659.291 56.892 659.31 57.116 659.347 57.284C659.403 57.452 659.497 57.5827 659.627 57.676C659.758 57.7693 659.935 57.8347 660.159 57.872C660.402 57.8907 660.71 57.9 661.083 57.9H662.175V60H660.355C659.739 60 659.207 59.9627 658.759 59.888C658.33 59.7947 657.975 59.636 657.695 59.412C657.434 59.188 657.238 58.8707 657.107 58.46C656.977 58.0493 656.911 57.508 656.911 56.836V47.624H654.447V45.524H656.911V41.184H659.291V45.524ZM667.339 42.92H664.959V40.008H667.339V42.92ZM664.959 45.524H667.339V60H664.959V45.524ZM677.55 60H675.002L669.626 45.524H672.286L676.346 57.592H676.402L680.35 45.524H682.842L677.55 60ZM697.85 59.944C697.44 60.1867 696.87 60.308 696.142 60.308C695.526 60.308 695.032 60.14 694.658 59.804C694.304 59.4493 694.126 58.88 694.126 58.096C693.473 58.88 692.708 59.4493 691.83 59.804C690.972 60.14 690.038 60.308 689.03 60.308C688.377 60.308 687.752 60.2333 687.154 60.084C686.576 59.9347 686.072 59.7013 685.642 59.384C685.213 59.0667 684.868 58.656 684.606 58.152C684.364 57.6293 684.242 57.004 684.242 56.276C684.242 55.4547 684.382 54.7827 684.662 54.26C684.942 53.7373 685.306 53.3173 685.754 53C686.221 52.664 686.744 52.412 687.322 52.244C687.92 52.076 688.526 51.936 689.142 51.824C689.796 51.6933 690.412 51.6 690.99 51.544C691.588 51.4693 692.11 51.376 692.558 51.264C693.006 51.1333 693.361 50.956 693.622 50.732C693.884 50.4893 694.014 50.144 694.014 49.696C694.014 49.1733 693.912 48.7533 693.706 48.436C693.52 48.1187 693.268 47.876 692.95 47.708C692.652 47.54 692.306 47.428 691.914 47.372C691.541 47.316 691.168 47.288 690.794 47.288C689.786 47.288 688.946 47.484 688.274 47.876C687.602 48.2493 687.238 48.968 687.182 50.032H684.802C684.84 49.136 685.026 48.38 685.362 47.764C685.698 47.148 686.146 46.6533 686.706 46.28C687.266 45.888 687.901 45.608 688.61 45.44C689.338 45.272 690.113 45.188 690.934 45.188C691.588 45.188 692.232 45.2347 692.866 45.328C693.52 45.4213 694.108 45.6173 694.63 45.916C695.153 46.196 695.573 46.5973 695.89 47.12C696.208 47.6427 696.366 48.324 696.366 49.164V56.612C696.366 57.172 696.394 57.5827 696.45 57.844C696.525 58.1053 696.749 58.236 697.122 58.236C697.328 58.236 697.57 58.1893 697.85 58.096V59.944ZM693.986 52.524C693.688 52.748 693.296 52.916 692.81 53.028C692.325 53.1213 691.812 53.2053 691.27 53.28C690.748 53.336 690.216 53.4107 689.674 53.504C689.133 53.5787 688.648 53.7093 688.218 53.896C687.789 54.0827 687.434 54.3533 687.154 54.708C686.893 55.044 686.762 55.5107 686.762 56.108C686.762 56.5 686.837 56.836 686.986 57.116C687.154 57.3773 687.36 57.592 687.602 57.76C687.864 57.928 688.162 58.0493 688.498 58.124C688.834 58.1987 689.189 58.236 689.562 58.236C690.346 58.236 691.018 58.1333 691.578 57.928C692.138 57.704 692.596 57.4333 692.95 57.116C693.305 56.78 693.566 56.4253 693.734 56.052C693.902 55.66 693.986 55.296 693.986 54.96V52.524ZM703.369 45.524H706.253V47.624H703.369V56.612C703.369 56.892 703.388 57.116 703.425 57.284C703.481 57.452 703.575 57.5827 703.705 57.676C703.836 57.7693 704.013 57.8347 704.237 57.872C704.48 57.8907 704.788 57.9 705.161 57.9H706.253V60H704.433C703.817 60 703.285 59.9627 702.837 59.888C702.408 59.7947 702.053 59.636 701.773 59.412C701.512 59.188 701.316 58.8707 701.185 58.46C701.055 58.0493 700.989 57.508 700.989 56.836V47.624H698.525V45.524H700.989V41.184H703.369V45.524ZM718.949 51.376C718.912 50.816 718.781 50.284 718.557 49.78C718.352 49.276 718.063 48.8467 717.689 48.492C717.335 48.1187 716.905 47.8293 716.401 47.624C715.916 47.4 715.375 47.288 714.777 47.288C714.161 47.288 713.601 47.4 713.097 47.624C712.612 47.8293 712.192 48.1187 711.837 48.492C711.483 48.8653 711.203 49.304 710.997 49.808C710.792 50.2933 710.671 50.816 710.633 51.376H718.949ZM721.245 55.408C720.928 57.032 720.228 58.2547 719.145 59.076C718.063 59.8973 716.7 60.308 715.057 60.308C713.9 60.308 712.892 60.1213 712.033 59.748C711.193 59.3747 710.484 58.852 709.905 58.18C709.327 57.508 708.888 56.7053 708.589 55.772C708.309 54.8387 708.151 53.8213 708.113 52.72C708.113 51.6187 708.281 50.6107 708.617 49.696C708.953 48.7813 709.42 47.988 710.017 47.316C710.633 46.644 711.352 46.1213 712.173 45.748C713.013 45.3747 713.928 45.188 714.917 45.188C716.205 45.188 717.269 45.4587 718.109 46C718.968 46.5227 719.649 47.1947 720.153 48.016C720.676 48.8373 721.031 49.7333 721.217 50.704C721.423 51.6747 721.507 52.5987 721.469 53.476H710.633C710.615 54.1107 710.689 54.7173 710.857 55.296C711.025 55.856 711.296 56.36 711.669 56.808C712.043 57.2373 712.519 57.5827 713.097 57.844C713.676 58.1053 714.357 58.236 715.141 58.236C716.149 58.236 716.971 58.0027 717.605 57.536C718.259 57.0693 718.688 56.36 718.893 55.408H721.245Z" fill="#FFFEF9"/>
<path d="M738.76 59.384L736.888 58.184L742.952 52.072V52.968L736.888 46.856L738.76 45.656L745.32 52.52L738.76 59.384Z" fill="#FFFEF9"/>
<path d="M32.5134 38.24C32.5134 37.6853 32.4614 37.1567 32.3574 36.654C32.2534 36.134 32.0714 35.6833 31.8114 35.302C31.5687 34.9033 31.2481 34.5827 30.8494 34.34C30.4507 34.0973 29.9481 33.976 29.3414 33.976C28.7347 33.976 28.2234 34.0973 27.8074 34.34C27.3914 34.5827 27.0534 34.9033 26.7934 35.302C26.5507 35.7007 26.3687 36.16 26.2474 36.68C26.1434 37.1827 26.0914 37.7113 26.0914 38.266C26.0914 38.786 26.152 39.306 26.2734 39.826C26.3947 40.346 26.5854 40.814 26.8454 41.23C27.1227 41.6287 27.4607 41.958 27.8594 42.218C28.2754 42.4607 28.7694 42.582 29.3414 42.582C29.9481 42.582 30.4507 42.4607 30.8494 42.218C31.2654 41.9753 31.5947 41.6547 31.8374 41.256C32.08 40.84 32.2534 40.372 32.3574 39.852C32.4614 39.332 32.5134 38.7947 32.5134 38.24ZM32.5654 43.284H32.5134C32.0801 44.012 31.5081 44.5407 30.7974 44.87C30.1041 45.182 29.3154 45.338 28.4314 45.338C27.426 45.338 26.542 45.1473 25.7794 44.766C25.0167 44.3673 24.384 43.8387 23.8814 43.18C23.396 42.504 23.0234 41.7327 22.7634 40.866C22.5207 39.9993 22.3994 39.098 22.3994 38.162C22.3994 37.2607 22.5207 36.394 22.7634 35.562C23.0234 34.7127 23.396 33.9673 23.8814 33.326C24.384 32.6847 25.008 32.1733 25.7534 31.792C26.4987 31.3933 27.3654 31.194 28.3534 31.194C29.1507 31.194 29.9047 31.3673 30.6154 31.714C31.3434 32.0433 31.9154 32.5373 32.3314 33.196H32.3834V26.436H36.0754V45H32.5654V43.284ZM42.1419 38.292C42.1419 38.8293 42.1939 39.358 42.2979 39.878C42.4019 40.3807 42.5752 40.84 42.8179 41.256C43.0779 41.6547 43.4159 41.9753 43.8319 42.218C44.2479 42.4607 44.7679 42.582 45.3919 42.582C46.0159 42.582 46.5359 42.4607 46.9519 42.218C47.3852 41.9753 47.7232 41.6547 47.9659 41.256C48.2259 40.84 48.4079 40.3807 48.5119 39.878C48.6159 39.358 48.6679 38.8293 48.6679 38.292C48.6679 37.7547 48.6159 37.226 48.5119 36.706C48.4079 36.186 48.2259 35.7267 47.9659 35.328C47.7232 34.9293 47.3852 34.6087 46.9519 34.366C46.5359 34.106 46.0159 33.976 45.3919 33.976C44.7679 33.976 44.2479 34.106 43.8319 34.366C43.4159 34.6087 43.0779 34.9293 42.8179 35.328C42.5752 35.7267 42.4019 36.186 42.2979 36.706C42.1939 37.226 42.1419 37.7547 42.1419 38.292ZM38.4499 38.292C38.4499 37.2173 38.6146 36.2467 38.9439 35.38C39.2732 34.496 39.7412 33.7507 40.3479 33.144C40.9546 32.52 41.6826 32.0433 42.5319 31.714C43.3812 31.3673 44.3346 31.194 45.3919 31.194C46.4492 31.194 47.4026 31.3673 48.2519 31.714C49.1186 32.0433 49.8552 32.52 50.4619 33.144C51.0686 33.7507 51.5366 34.496 51.8659 35.38C52.1952 36.2467 52.3599 37.2173 52.3599 38.292C52.3599 39.3667 52.1952 40.3373 51.8659 41.204C51.5366 42.0707 51.0686 42.816 50.4619 43.44C49.8552 44.0467 49.1186 44.5147 48.2519 44.844C47.4026 45.1733 46.4492 45.338 45.3919 45.338C44.3346 45.338 43.3812 45.1733 42.5319 44.844C41.6826 44.5147 40.9546 44.0467 40.3479 43.44C39.7412 42.816 39.2732 42.0707 38.9439 41.204C38.6146 40.3373 38.4499 39.3667 38.4499 38.292ZM70.1264 45H66.3304L63.9384 35.978H63.8864L61.5984 45H57.7764L53.5124 31.558H57.4124L59.8824 40.684H59.9344L62.1704 31.558H65.7584L68.0464 40.658H68.0984L70.5684 31.558H74.3644L70.1264 45ZM75.9362 31.558H79.4462V33.43H79.5242C79.9922 32.65 80.5989 32.0867 81.3442 31.74C82.0896 31.376 82.8522 31.194 83.6322 31.194C84.6202 31.194 85.4262 31.3327 86.0502 31.61C86.6916 31.87 87.1942 32.2427 87.5582 32.728C87.9222 33.196 88.1736 33.7767 88.3122 34.47C88.4682 35.146 88.5462 35.9 88.5462 36.732V45H84.8542V37.408C84.8542 36.2987 84.6809 35.4753 84.3342 34.938C83.9876 34.3833 83.3722 34.106 82.4882 34.106C81.4829 34.106 80.7549 34.4093 80.3042 35.016C79.8536 35.6053 79.6282 36.5847 79.6282 37.954V45H75.9362V31.558ZM91.4523 26.436H95.1443V45H91.4523V26.436ZM101.327 38.292C101.327 38.8293 101.379 39.358 101.483 39.878C101.587 40.3807 101.761 40.84 102.003 41.256C102.263 41.6547 102.601 41.9753 103.017 42.218C103.433 42.4607 103.953 42.582 104.577 42.582C105.201 42.582 105.721 42.4607 106.137 42.218C106.571 41.9753 106.909 41.6547 107.151 41.256C107.411 40.84 107.593 40.3807 107.697 39.878C107.801 39.358 107.853 38.8293 107.853 38.292C107.853 37.7547 107.801 37.226 107.697 36.706C107.593 36.186 107.411 35.7267 107.151 35.328C106.909 34.9293 106.571 34.6087 106.137 34.366C105.721 34.106 105.201 33.976 104.577 33.976C103.953 33.976 103.433 34.106 103.017 34.366C102.601 34.6087 102.263 34.9293 102.003 35.328C101.761 35.7267 101.587 36.186 101.483 36.706C101.379 37.226 101.327 37.7547 101.327 38.292ZM97.6355 38.292C97.6355 37.2173 97.8001 36.2467 98.1295 35.38C98.4588 34.496 98.9268 33.7507 99.5335 33.144C100.14 32.52 100.868 32.0433 101.717 31.714C102.567 31.3673 103.52 31.194 104.577 31.194C105.635 31.194 106.588 31.3673 107.437 31.714C108.304 32.0433 109.041 32.52 109.647 33.144C110.254 33.7507 110.722 34.496 111.051 35.38C111.381 36.2467 111.545 37.2173 111.545 38.292C111.545 39.3667 111.381 40.3373 111.051 41.204C110.722 42.0707 110.254 42.816 109.647 43.44C109.041 44.0467 108.304 44.5147 107.437 44.844C106.588 45.1733 105.635 45.338 104.577 45.338C103.52 45.338 102.567 45.1733 101.717 44.844C100.868 44.5147 100.14 44.0467 99.5335 43.44C98.9268 42.816 98.4588 42.0707 98.1295 41.204C97.8001 40.3373 97.6355 39.3667 97.6355 38.292ZM113.79 35.692C113.842 34.8253 114.059 34.106 114.44 33.534C114.821 32.962 115.307 32.5027 115.896 32.156C116.485 31.8093 117.144 31.5667 117.872 31.428C118.617 31.272 119.363 31.194 120.108 31.194C120.784 31.194 121.469 31.246 122.162 31.35C122.855 31.4367 123.488 31.6187 124.06 31.896C124.632 32.1733 125.1 32.5633 125.464 33.066C125.828 33.5513 126.01 34.2013 126.01 35.016V42.01C126.01 42.6167 126.045 43.1973 126.114 43.752C126.183 44.3067 126.305 44.7227 126.478 45H122.734C122.665 44.792 122.604 44.584 122.552 44.376C122.517 44.1507 122.491 43.9253 122.474 43.7C121.885 44.3067 121.191 44.7313 120.394 44.974C119.597 45.2167 118.782 45.338 117.95 45.338C117.309 45.338 116.711 45.26 116.156 45.104C115.601 44.948 115.116 44.7053 114.7 44.376C114.284 44.0467 113.955 43.6307 113.712 43.128C113.487 42.6253 113.374 42.0273 113.374 41.334C113.374 40.5713 113.504 39.9473 113.764 39.462C114.041 38.9593 114.388 38.5607 114.804 38.266C115.237 37.9713 115.723 37.7547 116.26 37.616C116.815 37.46 117.369 37.3387 117.924 37.252C118.479 37.1653 119.025 37.096 119.562 37.044C120.099 36.992 120.576 36.914 120.992 36.81C121.408 36.706 121.737 36.5587 121.98 36.368C122.223 36.16 122.335 35.8653 122.318 35.484C122.318 35.0853 122.249 34.7733 122.11 34.548C121.989 34.3053 121.815 34.1233 121.59 34.002C121.382 33.8633 121.131 33.7767 120.836 33.742C120.559 33.69 120.255 33.664 119.926 33.664C119.198 33.664 118.626 33.82 118.21 34.132C117.794 34.444 117.551 34.964 117.482 35.692H113.79ZM122.318 38.422C122.162 38.5607 121.963 38.6733 121.72 38.76C121.495 38.8293 121.243 38.89 120.966 38.942C120.706 38.994 120.429 39.0373 120.134 39.072C119.839 39.1067 119.545 39.15 119.25 39.202C118.973 39.254 118.695 39.3233 118.418 39.41C118.158 39.4967 117.924 39.618 117.716 39.774C117.525 39.9127 117.369 40.0947 117.248 40.32C117.127 40.5453 117.066 40.8313 117.066 41.178C117.066 41.5073 117.127 41.7847 117.248 42.01C117.369 42.2353 117.534 42.4173 117.742 42.556C117.95 42.6773 118.193 42.764 118.47 42.816C118.747 42.868 119.033 42.894 119.328 42.894C120.056 42.894 120.619 42.7727 121.018 42.53C121.417 42.2873 121.711 42.0013 121.902 41.672C122.093 41.3253 122.205 40.9787 122.24 40.632C122.292 40.2853 122.318 40.008 122.318 39.8V38.422ZM138.418 38.24C138.418 37.6853 138.366 37.1567 138.262 36.654C138.158 36.134 137.976 35.6833 137.716 35.302C137.473 34.9033 137.152 34.5827 136.754 34.34C136.355 34.0973 135.852 33.976 135.246 33.976C134.639 33.976 134.128 34.0973 133.712 34.34C133.296 34.5827 132.958 34.9033 132.698 35.302C132.455 35.7007 132.273 36.16 132.152 36.68C132.048 37.1827 131.996 37.7113 131.996 38.266C131.996 38.786 132.056 39.306 132.178 39.826C132.299 40.346 132.49 40.814 132.75 41.23C133.027 41.6287 133.365 41.958 133.764 42.218C134.18 42.4607 134.674 42.582 135.246 42.582C135.852 42.582 136.355 42.4607 136.754 42.218C137.17 41.9753 137.499 41.6547 137.742 41.256C137.984 40.84 138.158 40.372 138.262 39.852C138.366 39.332 138.418 38.7947 138.418 38.24ZM138.47 43.284H138.418C137.984 44.012 137.412 44.5407 136.702 44.87C136.008 45.182 135.22 45.338 134.336 45.338C133.33 45.338 132.446 45.1473 131.684 44.766C130.921 44.3673 130.288 43.8387 129.786 43.18C129.3 42.504 128.928 41.7327 128.668 40.866C128.425 39.9993 128.304 39.098 128.304 38.162C128.304 37.2607 128.425 36.394 128.668 35.562C128.928 34.7127 129.3 33.9673 129.786 33.326C130.288 32.6847 130.912 32.1733 131.658 31.792C132.403 31.3933 133.27 31.194 134.258 31.194C135.055 31.194 135.809 31.3673 136.52 31.714C137.248 32.0433 137.82 32.5373 138.236 33.196H138.288V26.436H141.98V45H138.47V43.284ZM41.832 57.558H44.536V60.028H41.832V66.684C41.832 67.308 41.936 67.724 42.144 67.932C42.352 68.14 42.768 68.244 43.392 68.244C43.6 68.244 43.7994 68.2353 43.99 68.218C44.1807 68.2007 44.3627 68.1747 44.536 68.14V71C44.224 71.052 43.8774 71.0867 43.496 71.104C43.1147 71.1213 42.742 71.13 42.378 71.13C41.806 71.13 41.26 71.0867 40.74 71C40.2374 70.9307 39.7867 70.7833 39.388 70.558C39.0067 70.3327 38.7034 70.012 38.478 69.596C38.2527 69.18 38.14 68.634 38.14 67.958V60.028H35.904V57.558H38.14V53.528H41.832V57.558ZM46.2927 52.436H49.9847V59.43H50.0627C50.5307 58.65 51.1287 58.0867 51.8567 57.74C52.5847 57.376 53.2953 57.194 53.9887 57.194C54.9767 57.194 55.7827 57.3327 56.4067 57.61C57.048 57.87 57.5507 58.2427 57.9147 58.728C58.2787 59.196 58.53 59.7767 58.6687 60.47C58.8247 61.146 58.9027 61.9 58.9027 62.732V71H55.2107V63.408C55.2107 62.2987 55.0373 61.4753 54.6907 60.938C54.344 60.3833 53.7287 60.106 52.8447 60.106C51.8393 60.106 51.1113 60.4093 50.6607 61.016C50.21 61.6053 49.9847 62.5847 49.9847 63.954V71H46.2927V52.436ZM70.7528 62.836C70.5794 61.9 70.2674 61.1893 69.8168 60.704C69.3834 60.2187 68.7161 59.976 67.8148 59.976C67.2254 59.976 66.7314 60.08 66.3328 60.288C65.9514 60.4787 65.6394 60.7213 65.3968 61.016C65.1714 61.3107 65.0068 61.6227 64.9028 61.952C64.8161 62.2813 64.7641 62.576 64.7468 62.836H70.7528ZM64.7468 65.176C64.7988 66.372 65.1021 67.2387 65.6568 67.776C66.2114 68.3133 67.0088 68.582 68.0488 68.582C68.7941 68.582 69.4354 68.4 69.9728 68.036C70.5101 67.6547 70.8394 67.256 70.9608 66.84H74.2108C73.6908 68.452 72.8934 69.6047 71.8188 70.298C70.7441 70.9913 69.4441 71.338 67.9188 71.338C66.8614 71.338 65.9081 71.1733 65.0588 70.844C64.2094 70.4973 63.4901 70.012 62.9008 69.388C62.3114 68.764 61.8521 68.0187 61.5228 67.152C61.2108 66.2853 61.0548 65.332 61.0548 64.292C61.0548 63.2867 61.2194 62.3507 61.5488 61.484C61.8781 60.6173 62.3461 59.872 62.9528 59.248C63.5594 58.6067 64.2788 58.104 65.1108 57.74C65.9601 57.376 66.8961 57.194 67.9188 57.194C69.0628 57.194 70.0594 57.4193 70.9088 57.87C71.7581 58.3033 72.4514 58.8927 72.9888 59.638C73.5434 60.3833 73.9421 61.2327 74.1848 62.186C74.4274 63.1393 74.5141 64.136 74.4448 65.176H64.7468ZM83.7148 61.692C83.7668 60.8253 83.9835 60.106 84.3648 59.534C84.7461 58.962 85.2315 58.5027 85.8208 58.156C86.4101 57.8093 87.0688 57.5667 87.7968 57.428C88.5421 57.272 89.2875 57.194 90.0328 57.194C90.7088 57.194 91.3935 57.246 92.0868 57.35C92.7801 57.4367 93.4128 57.6187 93.9848 57.896C94.5568 58.1733 95.0248 58.5633 95.3888 59.066C95.7528 59.5513 95.9348 60.2013 95.9348 61.016V68.01C95.9348 68.6167 95.9695 69.1973 96.0388 69.752C96.1081 70.3067 96.2295 70.7227 96.4028 71H92.6588C92.5895 70.792 92.5288 70.584 92.4768 70.376C92.4421 70.1507 92.4161 69.9253 92.3988 69.7C91.8095 70.3067 91.1161 70.7313 90.3188 70.974C89.5215 71.2167 88.7068 71.338 87.8748 71.338C87.2335 71.338 86.6355 71.26 86.0808 71.104C85.5261 70.948 85.0408 70.7053 84.6248 70.376C84.2088 70.0467 83.8795 69.6307 83.6368 69.128C83.4115 68.6253 83.2988 68.0273 83.2988 67.334C83.2988 66.5713 83.4288 65.9473 83.6888 65.462C83.9661 64.9593 84.3128 64.5607 84.7288 64.266C85.1621 63.9713 85.6475 63.7547 86.1848 63.616C86.7395 63.46 87.2941 63.3387 87.8488 63.252C88.4035 63.1653 88.9495 63.096 89.4868 63.044C90.0241 62.992 90.5008 62.914 90.9168 62.81C91.3328 62.706 91.6621 62.5587 91.9048 62.368C92.1475 62.16 92.2601 61.8653 92.2428 61.484C92.2428 61.0853 92.1735 60.7733 92.0348 60.548C91.9135 60.3053 91.7401 60.1233 91.5148 60.002C91.3068 59.8633 91.0555 59.7767 90.7608 59.742C90.4835 59.69 90.1801 59.664 89.8508 59.664C89.1228 59.664 88.5508 59.82 88.1348 60.132C87.7188 60.444 87.4761 60.964 87.4068 61.692H83.7148ZM92.2428 64.422C92.0868 64.5607 91.8875 64.6733 91.6448 64.76C91.4195 64.8293 91.1681 64.89 90.8908 64.942C90.6308 64.994 90.3535 65.0373 90.0588 65.072C89.7641 65.1067 89.4695 65.15 89.1748 65.202C88.8975 65.254 88.6201 65.3233 88.3428 65.41C88.0828 65.4967 87.8488 65.618 87.6408 65.774C87.4501 65.9127 87.2941 66.0947 87.1728 66.32C87.0515 66.5453 86.9908 66.8313 86.9908 67.178C86.9908 67.5073 87.0515 67.7847 87.1728 68.01C87.2941 68.2353 87.4588 68.4173 87.6668 68.556C87.8748 68.6773 88.1175 68.764 88.3948 68.816C88.6721 68.868 88.9581 68.894 89.2528 68.894C89.9808 68.894 90.5441 68.7727 90.9428 68.53C91.3415 68.2873 91.6361 68.0013 91.8268 67.672C92.0175 67.3253 92.1301 66.9787 92.1648 66.632C92.2168 66.2853 92.2428 66.008 92.2428 65.8V64.422ZM105.586 68.582C106.193 68.582 106.696 68.4607 107.094 68.218C107.51 67.9753 107.84 67.6633 108.082 67.282C108.342 66.8833 108.524 66.424 108.628 65.904C108.732 65.384 108.784 64.8553 108.784 64.318C108.784 63.7807 108.724 63.252 108.602 62.732C108.498 62.212 108.316 61.7527 108.056 61.354C107.796 60.938 107.458 60.6087 107.042 60.366C106.644 60.106 106.15 59.976 105.56 59.976C104.954 59.976 104.442 60.106 104.026 60.366C103.628 60.6087 103.298 60.9293 103.038 61.328C102.796 61.7267 102.622 62.186 102.518 62.706C102.414 63.226 102.362 63.7633 102.362 64.318C102.362 64.8553 102.414 65.384 102.518 65.904C102.64 66.424 102.822 66.8833 103.064 67.282C103.324 67.6633 103.662 67.9753 104.078 68.218C104.494 68.4607 104.997 68.582 105.586 68.582ZM98.8005 57.558H102.31V59.274H102.362C102.813 58.546 103.385 58.0173 104.078 57.688C104.772 57.3587 105.534 57.194 106.366 57.194C107.424 57.194 108.334 57.3933 109.096 57.792C109.859 58.1907 110.492 58.7193 110.994 59.378C111.497 60.0367 111.87 60.808 112.112 61.692C112.355 62.5587 112.476 63.4687 112.476 64.422C112.476 65.3233 112.355 66.19 112.112 67.022C111.87 67.854 111.497 68.5907 110.994 69.232C110.509 69.8733 109.894 70.3847 109.148 70.766C108.42 71.1473 107.562 71.338 106.574 71.338C105.742 71.338 104.971 71.1733 104.26 70.844C103.567 70.4973 102.995 69.9947 102.544 69.336H102.492V75.706H98.8005V57.558ZM121.481 68.582C122.088 68.582 122.59 68.4607 122.989 68.218C123.405 67.9753 123.734 67.6633 123.977 67.282C124.237 66.8833 124.419 66.424 124.523 65.904C124.627 65.384 124.679 64.8553 124.679 64.318C124.679 63.7807 124.618 63.252 124.497 62.732C124.393 62.212 124.211 61.7527 123.951 61.354C123.691 60.938 123.353 60.6087 122.937 60.366C122.538 60.106 122.044 59.976 121.455 59.976C120.848 59.976 120.337 60.106 119.921 60.366C119.522 60.6087 119.193 60.9293 118.933 61.328C118.69 61.7267 118.517 62.186 118.413 62.706C118.309 63.226 118.257 63.7633 118.257 64.318C118.257 64.8553 118.309 65.384 118.413 65.904C118.534 66.424 118.716 66.8833 118.959 67.282C119.219 67.6633 119.557 67.9753 119.973 68.218C120.389 68.4607 120.892 68.582 121.481 68.582ZM114.695 57.558H118.205V59.274H118.257C118.708 58.546 119.28 58.0173 119.973 57.688C120.666 57.3587 121.429 57.194 122.261 57.194C123.318 57.194 124.228 57.3933 124.991 57.792C125.754 58.1907 126.386 58.7193 126.889 59.378C127.392 60.0367 127.764 60.808 128.007 61.692C128.25 62.5587 128.371 63.4687 128.371 64.422C128.371 65.3233 128.25 66.19 128.007 67.022C127.764 67.854 127.392 68.5907 126.889 69.232C126.404 69.8733 125.788 70.3847 125.043 70.766C124.315 71.1473 123.457 71.338 122.469 71.338C121.637 71.338 120.866 71.1733 120.155 70.844C119.462 70.4973 118.89 69.9947 118.439 69.336H118.387V75.706H114.695V57.558Z" fill="#BD0000"/>
<path d="M392.982 49.0337C392.728 47.6618 392.271 46.6201 391.61 45.9088C390.975 45.1974 389.997 44.8417 388.676 44.8417C387.812 44.8417 387.088 44.9941 386.503 45.299C385.945 45.5785 385.487 45.9342 385.132 46.3661C384.801 46.798 384.56 47.2553 384.407 47.738C384.28 48.2207 384.204 48.6526 384.179 49.0337H392.982ZM384.179 52.4635C384.255 54.2166 384.7 55.4869 385.513 56.2745C386.326 57.0621 387.494 57.4558 389.019 57.4558C390.111 57.4558 391.051 57.1891 391.839 56.6556C392.626 56.0966 393.109 55.5123 393.287 54.9025H398.051C397.288 57.2653 396.12 58.9548 394.544 59.9711C392.969 60.9873 391.064 61.4954 388.828 61.4954C387.278 61.4954 385.881 61.2541 384.636 60.7713C383.391 60.2632 382.337 59.5519 381.473 58.6372C380.609 57.7226 379.936 56.6301 379.453 55.3598C378.996 54.0895 378.767 52.6922 378.767 51.1678C378.767 49.6943 379.009 48.3223 379.491 47.052C379.974 45.7817 380.66 44.6893 381.549 43.7747C382.438 42.8346 383.493 42.0978 384.712 41.5643C385.957 41.0308 387.329 40.764 388.828 40.764C390.505 40.764 391.966 41.0943 393.211 41.7549C394.456 42.39 395.472 43.2538 396.259 44.3463C397.072 45.4388 397.657 46.6837 398.012 48.081C398.368 49.4783 398.495 50.9392 398.394 52.4635H384.179ZM401.603 41.2976H406.748V44.0414H406.862C407.548 42.8981 408.437 42.0724 409.53 41.5643C410.622 41.0308 411.74 40.764 412.883 40.764C414.331 40.764 415.513 40.9673 416.427 41.3738C417.368 41.7549 418.104 42.3011 418.638 43.0125C419.171 43.6984 419.54 44.5495 419.743 45.5658C419.972 46.5566 420.086 47.6618 420.086 48.8813V61H414.674V49.8721C414.674 48.2461 414.42 47.0393 413.912 46.2517C413.404 45.4388 412.502 45.0323 411.207 45.0323C409.733 45.0323 408.666 45.4769 408.005 46.3661C407.345 47.2299 407.015 48.6653 407.015 50.6724V61H401.603V41.2976ZM431.053 41.2976H435.016V44.9179H431.053V54.6739C431.053 55.5885 431.205 56.1982 431.51 56.5031C431.815 56.808 432.425 56.9604 433.339 56.9604C433.644 56.9604 433.936 56.9477 434.216 56.9223C434.495 56.8969 434.762 56.8588 435.016 56.808V61C434.559 61.0762 434.051 61.127 433.492 61.1524C432.933 61.1778 432.387 61.1905 431.853 61.1905C431.015 61.1905 430.214 61.127 429.452 61C428.715 60.8984 428.055 60.6824 427.471 60.3521C426.912 60.0219 426.467 59.5519 426.137 58.9421C425.806 58.3324 425.641 57.5321 425.641 56.5412V44.9179H422.364V41.2976H425.641V35.3906H431.053V41.2976ZM443.155 38.2488H437.743V33.79H443.155V38.2488ZM437.743 41.2976H443.155V61H437.743V41.2976ZM447.416 41.2976H452.561V44.956H452.637C452.891 44.3463 453.234 43.7874 453.666 43.2792C454.098 42.7457 454.593 42.3011 455.152 41.9454C455.711 41.5643 456.308 41.2721 456.943 41.0689C457.578 40.8657 458.239 40.764 458.925 40.764C459.281 40.764 459.674 40.8275 460.106 40.9546V45.985C459.852 45.9342 459.547 45.8961 459.192 45.8707C458.836 45.8198 458.493 45.7944 458.163 45.7944C457.172 45.7944 456.333 45.9596 455.647 46.2899C454.962 46.6201 454.403 47.0774 453.971 47.6618C453.564 48.2207 453.272 48.8813 453.094 49.6435C452.916 50.4056 452.827 51.2313 452.827 52.1206V61H447.416V41.2976ZM474.82 49.0337C474.566 47.6618 474.109 46.6201 473.448 45.9088C472.813 45.1974 471.835 44.8417 470.514 44.8417C469.65 44.8417 468.926 44.9941 468.341 45.299C467.782 45.5785 467.325 45.9342 466.969 46.3661C466.639 46.798 466.398 47.2553 466.245 47.738C466.118 48.2207 466.042 48.6526 466.017 49.0337H474.82ZM466.017 52.4635C466.093 54.2166 466.538 55.4869 467.351 56.2745C468.164 57.0621 469.332 57.4558 470.857 57.4558C471.949 57.4558 472.889 57.1891 473.677 56.6556C474.464 56.0966 474.947 55.5123 475.125 54.9025H479.888C479.126 57.2653 477.958 58.9548 476.382 59.9711C474.807 60.9873 472.902 61.4954 470.666 61.4954C469.116 61.4954 467.719 61.2541 466.474 60.7713C465.229 60.2632 464.175 59.5519 463.311 58.6372C462.447 57.7226 461.774 56.6301 461.291 55.3598C460.834 54.0895 460.605 52.6922 460.605 51.1678C460.605 49.6943 460.847 48.3223 461.329 47.052C461.812 45.7817 462.498 44.6893 463.387 43.7747C464.276 42.8346 465.331 42.0978 466.55 41.5643C467.795 41.0308 469.167 40.764 470.666 40.764C472.343 40.764 473.804 41.0943 475.049 41.7549C476.294 42.39 477.31 43.2538 478.097 44.3463C478.91 45.4388 479.495 46.6837 479.85 48.081C480.206 49.4783 480.333 50.9392 480.231 52.4635H466.017ZM498.849 51.1678C498.849 51.9554 498.926 52.7303 499.078 53.4925C499.23 54.2293 499.484 54.9025 499.84 55.5123C500.221 56.0966 500.717 56.5666 501.326 56.9223C501.936 57.278 502.698 57.4558 503.613 57.4558C504.528 57.4558 505.29 57.278 505.899 56.9223C506.535 56.5666 507.03 56.0966 507.386 55.5123C507.767 54.9025 508.034 54.2293 508.186 53.4925C508.338 52.7303 508.415 51.9554 508.415 51.1678C508.415 50.3802 508.338 49.6054 508.186 48.8432C508.034 48.081 507.767 47.4077 507.386 46.8234C507.03 46.239 506.535 45.769 505.899 45.4133C505.29 45.0323 504.528 44.8417 503.613 44.8417C502.698 44.8417 501.936 45.0323 501.326 45.4133C500.717 45.769 500.221 46.239 499.84 46.8234C499.484 47.4077 499.23 48.081 499.078 48.8432C498.926 49.6054 498.849 50.3802 498.849 51.1678ZM493.438 51.1678C493.438 49.5927 493.679 48.1699 494.162 46.8996C494.645 45.6039 495.331 44.5114 496.22 43.6222C497.109 42.7076 498.176 42.0089 499.421 41.5262C500.666 41.0181 502.063 40.764 503.613 40.764C505.163 40.764 506.56 41.0181 507.805 41.5262C509.075 42.0089 510.155 42.7076 511.044 43.6222C511.933 44.5114 512.619 45.6039 513.102 46.8996C513.585 48.1699 513.826 49.5927 513.826 51.1678C513.826 52.743 513.585 54.1658 513.102 55.4361C512.619 56.7064 511.933 57.7988 511.044 58.7134C510.155 59.6027 509.075 60.2886 507.805 60.7713C506.56 61.2541 505.163 61.4954 503.613 61.4954C502.063 61.4954 500.666 61.2541 499.421 60.7713C498.176 60.2886 497.109 59.6027 496.22 58.7134C495.331 57.7988 494.645 56.7064 494.162 55.4361C493.679 54.1658 493.438 52.743 493.438 51.1678ZM517.345 41.2976H522.489V44.956H522.566C522.82 44.3463 523.163 43.7874 523.595 43.2792C524.027 42.7457 524.522 42.3011 525.081 41.9454C525.64 41.5643 526.237 41.2721 526.872 41.0689C527.507 40.8657 528.168 40.764 528.854 40.764C529.209 40.764 529.603 40.8275 530.035 40.9546V45.985C529.781 45.9342 529.476 45.8961 529.12 45.8707C528.765 45.8198 528.422 45.7944 528.092 45.7944C527.101 45.7944 526.262 45.9596 525.576 46.2899C524.89 46.6201 524.331 47.0774 523.9 47.6618C523.493 48.2207 523.201 48.8813 523.023 49.6435C522.845 50.4056 522.756 51.2313 522.756 52.1206V61H517.345V41.2976ZM545.473 51.0916C545.473 50.2786 545.397 49.5037 545.244 48.767C545.092 48.0048 544.825 47.3442 544.444 46.7853C544.088 46.2009 543.618 45.7309 543.034 45.3752C542.45 45.0196 541.713 44.8417 540.824 44.8417C539.934 44.8417 539.185 45.0196 538.575 45.3752C537.965 45.7309 537.47 46.2009 537.089 46.7853C536.733 47.3696 536.466 48.0429 536.289 48.8051C536.136 49.5418 536.06 50.3167 536.06 51.1297C536.06 51.8919 536.149 52.6541 536.327 53.4163C536.505 54.1785 536.784 54.8644 537.165 55.4742C537.572 56.0585 538.067 56.5412 538.651 56.9223C539.261 57.278 539.985 57.4558 540.824 57.4558C541.713 57.4558 542.45 57.278 543.034 56.9223C543.644 56.5666 544.126 56.0966 544.482 55.5123C544.838 54.9025 545.092 54.2166 545.244 53.4544C545.397 52.6922 545.473 51.9046 545.473 51.0916ZM545.549 58.4848H545.473C544.838 59.5519 543.999 60.3267 542.958 60.8095C541.941 61.2668 540.785 61.4954 539.49 61.4954C538.016 61.4954 536.72 61.216 535.603 60.657C534.485 60.0727 533.557 59.2978 532.821 58.3324C532.109 57.3415 531.563 56.2109 531.182 54.9406C530.826 53.6703 530.648 52.3492 530.648 50.9773C530.648 49.6562 530.826 48.3859 531.182 47.1664C531.563 45.9215 532.109 44.829 532.821 43.889C533.557 42.949 534.472 42.1995 535.565 41.6405C536.657 41.0562 537.927 40.764 539.375 40.764C540.544 40.764 541.649 41.0181 542.691 41.5262C543.758 42.0089 544.596 42.733 545.206 43.6984H545.282V33.79H550.694V61H545.549V58.4848ZM568.046 49.0337C567.792 47.6618 567.335 46.6201 566.674 45.9088C566.039 45.1974 565.061 44.8417 563.74 44.8417C562.876 44.8417 562.152 44.9941 561.567 45.299C561.009 45.5785 560.551 45.9342 560.196 46.3661C559.865 46.798 559.624 47.2553 559.471 47.738C559.344 48.2207 559.268 48.6526 559.243 49.0337H568.046ZM559.243 52.4635C559.319 54.2166 559.764 55.4869 560.577 56.2745C561.39 57.0621 562.558 57.4558 564.083 57.4558C565.175 57.4558 566.115 57.1891 566.903 56.6556C567.69 56.0966 568.173 55.5123 568.351 54.9025H573.115C572.352 57.2653 571.184 58.9548 569.609 59.9711C568.033 60.9873 566.128 61.4954 563.892 61.4954C562.342 61.4954 560.945 61.2541 559.7 60.7713C558.455 60.2632 557.401 59.5519 556.537 58.6372C555.673 57.7226 555 56.6301 554.517 55.3598C554.06 54.0895 553.831 52.6922 553.831 51.1678C553.831 49.6943 554.073 48.3223 554.555 47.052C555.038 45.7817 555.724 44.6893 556.613 43.7747C557.502 42.8346 558.557 42.0978 559.776 41.5643C561.021 41.0308 562.393 40.764 563.892 40.764C565.569 40.764 567.03 41.0943 568.275 41.7549C569.52 42.39 570.536 43.2538 571.323 44.3463C572.136 45.4388 572.721 46.6837 573.076 48.081C573.432 49.4783 573.559 50.9392 573.458 52.4635H559.243ZM576.667 41.2976H581.812V44.956H581.888C582.142 44.3463 582.485 43.7874 582.917 43.2792C583.349 42.7457 583.844 42.3011 584.403 41.9454C584.962 41.5643 585.559 41.2721 586.194 41.0689C586.829 40.8657 587.49 40.764 588.176 40.764C588.532 40.764 588.925 40.8275 589.357 40.9546V45.985C589.103 45.9342 588.798 45.8961 588.443 45.8707C588.087 45.8198 587.744 45.7944 587.414 45.7944C586.423 45.7944 585.585 45.9596 584.899 46.2899C584.213 46.6201 583.654 47.0774 583.222 47.6618C582.815 48.2207 582.523 48.8813 582.345 49.6435C582.167 50.4056 582.079 51.2313 582.079 52.1206V61H576.667V41.2976Z" fill="#FFFEF9"/>
<path d="M592.179 35.5635L592.379 35.0348L594.022 35.6207V33.8629H594.58V35.6207L596.223 35.0348L596.438 35.5635L594.751 36.1209L595.78 37.5214L595.323 37.8501L594.28 36.421L593.236 37.8501L592.779 37.5214L593.822 36.1209L592.179 35.5635ZM596.774 35.5635L596.974 35.0348L598.618 35.6207V33.8629H599.175V35.6207L600.819 35.0348L601.033 35.5635L599.347 36.1209L600.376 37.5214L599.918 37.8501L598.875 36.421L597.832 37.8501L597.374 37.5214L598.418 36.1209L596.774 35.5635Z" fill="#FFFEF9"/>
<path d="M205.32 49.0337C205.066 47.6618 204.609 46.6201 203.948 45.9088C203.313 45.1974 202.335 44.8417 201.014 44.8417C200.15 44.8417 199.426 44.9941 198.841 45.299C198.282 45.5785 197.825 45.9342 197.469 46.3661C197.139 46.798 196.898 47.2553 196.745 47.738C196.618 48.2207 196.542 48.6526 196.517 49.0337H205.32ZM196.517 52.4635C196.593 54.2166 197.037 55.4869 197.85 56.2745C198.663 57.0621 199.832 57.4558 201.357 57.4558C202.449 57.4558 203.389 57.1891 204.177 56.6556C204.964 56.0966 205.447 55.5123 205.625 54.9025H210.388C209.626 57.2653 208.458 58.9548 206.882 59.9711C205.307 60.9873 203.402 61.4954 201.166 61.4954C199.616 61.4954 198.219 61.2541 196.974 60.7713C195.729 60.2632 194.675 59.5519 193.811 58.6372C192.947 57.7226 192.274 56.6301 191.791 55.3598C191.334 54.0895 191.105 52.6922 191.105 51.1678C191.105 49.6943 191.347 48.3223 191.829 47.052C192.312 45.7817 192.998 44.6893 193.887 43.7747C194.776 42.8346 195.831 42.0978 197.05 41.5643C198.295 41.0308 199.667 40.764 201.166 40.764C202.843 40.764 204.304 41.0943 205.549 41.7549C206.793 42.39 207.81 43.2538 208.597 44.3463C209.41 45.4388 209.995 46.6837 210.35 48.081C210.706 49.4783 210.833 50.9392 210.731 52.4635H196.517ZM218.971 50.6343L212.493 41.2976H218.666L222.134 46.4423L225.564 41.2976H231.547L225.069 50.52L232.348 61H226.174L222.058 54.7882L217.942 61H211.883L218.971 50.6343ZM241.269 41.2976H245.233V44.9179H241.269V54.6739C241.269 55.5885 241.422 56.1982 241.727 56.5031C242.032 56.808 242.641 56.9604 243.556 56.9604C243.861 56.9604 244.153 56.9477 244.432 56.9223C244.712 56.8969 244.979 56.8588 245.233 56.808V61C244.775 61.0762 244.267 61.127 243.708 61.1524C243.149 61.1778 242.603 61.1905 242.07 61.1905C241.231 61.1905 240.431 61.127 239.669 61C238.932 60.8984 238.271 60.6824 237.687 60.3521C237.128 60.0219 236.684 59.5519 236.353 58.9421C236.023 58.3324 235.858 57.5321 235.858 56.5412V44.9179H232.58V41.2976H235.858V35.3906H241.269V41.2976ZM247.807 41.2976H252.952V44.956H253.028C253.282 44.3463 253.625 43.7874 254.057 43.2792C254.489 42.7457 254.985 42.3011 255.544 41.9454C256.103 41.5643 256.7 41.2721 257.335 41.0689C257.97 40.8657 258.63 40.764 259.316 40.764C259.672 40.764 260.066 40.8275 260.498 40.9546V45.985C260.244 45.9342 259.939 45.8961 259.583 45.8707C259.228 45.8198 258.885 45.7944 258.554 45.7944C257.563 45.7944 256.725 45.9596 256.039 46.2899C255.353 46.6201 254.794 47.0774 254.362 47.6618C253.956 48.2207 253.664 48.8813 253.486 49.6435C253.308 50.4056 253.219 51.2313 253.219 52.1206V61H247.807V41.2976ZM262.391 47.3569C262.467 46.0866 262.785 45.0323 263.343 44.1939C263.902 43.3555 264.614 42.6822 265.478 42.1741C266.341 41.6659 267.307 41.3103 268.374 41.107C269.466 40.8784 270.559 40.764 271.651 40.764C272.642 40.764 273.646 40.8402 274.662 40.9927C275.678 41.1197 276.605 41.3865 277.444 41.793C278.282 42.1995 278.968 42.7711 279.502 43.5079C280.035 44.2193 280.302 45.172 280.302 46.3661V56.6174C280.302 57.5067 280.353 58.3578 280.455 59.1708C280.556 59.9838 280.734 60.5935 280.988 61H275.5C275.399 60.6951 275.31 60.3903 275.234 60.0854C275.183 59.7551 275.145 59.4248 275.119 59.0945C274.255 59.9838 273.239 60.6062 272.07 60.9619C270.902 61.3176 269.708 61.4954 268.488 61.4954C267.548 61.4954 266.672 61.3811 265.859 61.1524C265.046 60.9238 264.334 60.5681 263.725 60.0854C263.115 59.6027 262.632 58.9929 262.276 58.2561C261.946 57.5194 261.781 56.6429 261.781 55.6266C261.781 54.5087 261.972 53.5941 262.353 52.8827C262.759 52.146 263.267 51.5616 263.877 51.1297C264.512 50.6978 265.224 50.3802 266.011 50.177C266.824 49.9483 267.637 49.7705 268.45 49.6435C269.263 49.5164 270.063 49.4148 270.851 49.3386C271.639 49.2624 272.337 49.148 272.947 48.9956C273.557 48.8432 274.039 48.6272 274.395 48.3478C274.751 48.0429 274.916 47.611 274.891 47.052C274.891 46.4677 274.789 46.0104 274.586 45.6801C274.408 45.3244 274.154 45.0577 273.824 44.8798C273.519 44.6766 273.15 44.5495 272.718 44.4987C272.312 44.4225 271.867 44.3844 271.385 44.3844C270.317 44.3844 269.479 44.6131 268.869 45.0704C268.26 45.5277 267.904 46.2899 267.802 47.3569H262.391ZM274.891 51.3584C274.662 51.5616 274.37 51.7268 274.014 51.8538C273.684 51.9554 273.315 52.0443 272.909 52.1206C272.528 52.1968 272.121 52.2603 271.689 52.3111C271.257 52.3619 270.826 52.4254 270.394 52.5017C269.987 52.5779 269.581 52.6795 269.174 52.8065C268.793 52.9336 268.45 53.1114 268.145 53.3401C267.866 53.5433 267.637 53.8101 267.459 54.1403C267.281 54.4706 267.193 54.8898 267.193 55.398C267.193 55.8807 267.281 56.2872 267.459 56.6174C267.637 56.9477 267.878 57.2145 268.183 57.4177C268.488 57.5956 268.844 57.7226 269.25 57.7988C269.657 57.875 270.076 57.9132 270.508 57.9132C271.575 57.9132 272.401 57.7353 272.985 57.3796C273.569 57.0239 274.001 56.6047 274.281 56.122C274.56 55.6139 274.725 55.1058 274.776 54.5977C274.852 54.0895 274.891 53.683 274.891 53.3782V51.3584Z" fill="#FFFEF9"/>
<path d="M347.705 47.7572L347.752 47.704L347.795 47.6045L347.705 47.7572Z" fill="#FFFEF9"/>
<path d="M350.258 57.0468C349.626 56.3757 348.858 55.847 348.006 55.4959C347.043 55.106 346.011 54.9143 344.972 54.9321C344.453 54.9299 343.936 54.973 343.424 55.0611L347.703 47.7565L347.793 47.6044L360.757 25.4806H359.548L347.72 45.6518C347.398 45.1627 347.046 44.6944 346.665 44.2497C345.424 42.8174 343.896 41.6625 342.179 40.8603C340.407 40.0204 338.368 39.5999 336.062 39.5988C334.2 39.5988 332.539 39.8743 331.077 40.4255C329.615 40.9766 328.245 41.8964 326.967 43.1849L326.833 43.0526L328.694 32.4859H347.9V24.7151H321.909L317.324 50.4333H325.831C326.76 49.1503 327.756 48.2089 328.82 47.6093C329.884 47.0097 331.257 46.711 332.94 46.7132C334.105 46.6879 335.26 46.9135 336.33 47.3746C337.294 47.8094 338.155 48.4433 338.856 49.2346C339.572 50.0465 340.115 50.9962 340.452 52.0255C340.81 53.1193 340.989 54.2639 340.982 55.4149C340.983 56.1159 340.912 56.8151 340.769 57.5015L330.53 74.9594H331.761L337.985 64.3382C338.058 64.7074 338.157 65.0709 338.281 65.4261C338.577 66.3026 339.054 67.107 339.681 67.7871C340.312 68.4593 341.08 68.9886 341.933 69.3397C343.886 70.0915 346.049 70.0915 348.003 69.3397C348.855 68.9886 349.623 68.4593 350.255 67.7871C350.882 67.1066 351.359 66.3024 351.657 65.4261C352.296 63.4721 352.296 61.3651 351.657 59.4111C351.36 58.5342 350.884 57.7289 350.258 57.0468V57.0468ZM348.77 64.229C348.624 64.8036 348.378 65.3477 348.042 65.8362C347.714 66.3128 347.283 66.7086 346.779 66.9935C346.218 67.2816 345.597 67.4318 344.966 67.4318C344.336 67.4318 343.714 67.2816 343.153 66.9935C342.65 66.7086 342.218 66.3128 341.89 65.8362C341.555 65.3474 341.309 64.8033 341.163 64.229C340.852 63.0365 340.852 61.7842 341.163 60.5916C341.306 60.0162 341.552 59.4717 341.89 58.9846C342.222 58.516 342.653 58.1269 343.153 57.8454C343.714 57.5564 344.335 57.4056 344.966 57.4056C345.597 57.4056 346.218 57.5564 346.779 57.8454C347.279 58.1269 347.711 58.516 348.042 58.9846C348.381 59.4713 348.628 60.016 348.77 60.5916C349.083 61.7839 349.083 63.0367 348.77 64.229Z" fill="#FFFEF9"/>
<path d="M352.469 55.3164H354.803V54.1359C354.803 53.2398 354.913 52.5118 355.134 51.9518C355.312 51.4538 355.615 51.0097 356.014 50.6621C356.375 50.3616 356.804 50.1539 357.264 50.057C357.746 49.9548 358.238 49.9043 358.732 49.9066C359.739 49.9066 360.472 49.9705 360.929 50.0984V52.542C360.717 52.4853 360.502 52.4444 360.284 52.4196C360.015 52.3897 359.745 52.3759 359.474 52.3783C359.09 52.3678 358.712 52.4732 358.389 52.6809C358.087 52.8826 357.936 53.2761 357.936 53.8614V55.3164H360.6V57.6509H357.935V69.5172H354.803V57.6509H352.469V55.3164Z" fill="#FFFEF9"/>
<path d="M360.352 55.3164H362.682V54.1359C362.682 53.2398 362.792 52.5117 363.013 51.9518C363.191 51.4542 363.493 51.0103 363.891 50.6621C364.252 50.3622 364.681 50.1546 365.14 50.057C365.624 49.9548 366.116 49.9044 366.61 49.9066C367.618 49.9066 368.35 49.9705 368.808 50.0984V52.542C368.596 52.4853 368.38 52.4444 368.163 52.4196C367.893 52.3897 367.622 52.3759 367.351 52.3783C366.967 52.368 366.589 52.4734 366.266 52.6809C365.966 52.8826 365.813 53.2761 365.813 53.8614V55.3164H368.479V57.6509H365.823V69.5172H362.682V57.6509H360.346L360.352 55.3164Z" fill="#FFFEF9"/>
<path d="M363.086 32.1044C363.02 31.7843 362.887 31.4818 362.696 31.2165C362.508 30.9633 362.262 30.7587 361.979 30.6196C361.631 30.4609 361.251 30.385 360.869 30.398C360.498 30.3887 360.129 30.4615 359.79 30.6113C359.497 30.7459 359.239 30.9456 359.036 31.195C358.832 31.4512 358.682 31.7458 358.596 32.0613C358.499 32.4129 358.451 32.7763 358.454 33.141C358.451 33.5093 358.492 33.8766 358.574 34.2355C358.645 34.556 358.781 34.8587 358.973 35.1251C359.161 35.3785 359.41 35.5808 359.697 35.7137C360.044 35.8655 360.42 35.9383 360.798 35.9269C361.169 35.9361 361.538 35.8663 361.879 35.7219C362.171 35.5931 362.427 35.395 362.625 35.1449C362.825 34.8875 362.973 34.5931 363.058 34.2785C363.156 33.927 363.203 33.5636 363.2 33.1988C363.203 32.8309 363.164 32.4639 363.086 32.1044V32.1044ZM361.729 33.6883C361.717 33.8777 361.679 34.0645 361.616 34.2438C361.558 34.4128 361.461 34.5657 361.332 34.6902C361.262 34.7538 361.18 34.803 361.091 34.8348C361.002 34.8666 360.907 34.8804 360.813 34.8754C360.717 34.8818 360.621 34.8687 360.531 34.8369C360.441 34.805 360.358 34.7551 360.287 34.6902C360.162 34.5657 360.07 34.4124 360.018 34.2438C359.959 34.0618 359.925 33.8728 359.917 33.6817C359.909 33.4833 359.904 33.308 359.904 33.1559C359.904 33.0038 359.904 32.8153 359.925 32.6152C359.937 32.4255 359.978 32.2387 360.046 32.0613C360.107 31.898 360.207 31.7517 360.337 31.6348C360.487 31.5153 360.677 31.4563 360.869 31.4694C360.961 31.464 361.052 31.4783 361.138 31.5114C361.224 31.5445 361.301 31.5956 361.365 31.6612C361.484 31.7924 361.574 31.9474 361.628 32.1159C361.686 32.2956 361.721 32.4816 361.734 32.6698C361.749 32.8649 361.755 33.0336 361.755 33.1758C361.755 33.3179 361.744 33.4949 361.729 33.6883ZM355.754 27.3575C355.686 27.0283 355.553 26.716 355.362 26.4399C355.177 26.1786 354.93 25.9669 354.644 25.8232C354.298 25.6597 353.919 25.5814 353.536 25.595C353.164 25.5855 352.794 25.6607 352.455 25.8149C352.161 25.9553 351.903 26.1625 351.703 26.42C351.499 26.6865 351.349 26.9904 351.261 27.3145C351.165 27.6713 351.117 28.0395 351.119 28.4091C351.117 28.7753 351.158 29.1404 351.242 29.497C351.311 29.8107 351.446 30.106 351.638 30.3633C351.83 30.61 352.079 30.8054 352.364 30.9321C352.712 31.0789 353.088 31.1488 353.465 31.1371C353.835 31.1461 354.203 31.0785 354.545 30.9387C354.834 30.8164 355.09 30.6265 355.291 30.3848C355.492 30.1353 355.64 29.8472 355.726 29.5383C355.823 29.189 355.87 28.8278 355.866 28.4652C355.868 28.093 355.831 27.7217 355.754 27.3575V27.3575ZM354.396 28.9563C354.382 29.136 354.344 29.3129 354.282 29.4821C354.223 29.6433 354.126 29.7876 353.998 29.902C353.846 30.0127 353.663 30.0724 353.475 30.0724C353.287 30.0724 353.104 30.0127 352.953 29.902C352.829 29.7867 352.737 29.6423 352.683 29.4821C352.625 29.3102 352.592 29.131 352.584 28.9497C352.574 28.7596 352.569 28.5893 352.569 28.4372C352.569 28.285 352.569 28.0916 352.591 27.8833C352.603 27.684 352.644 27.4876 352.711 27.2997C352.773 27.1282 352.873 26.9728 353.002 26.845C353.149 26.7158 353.341 26.6499 353.536 26.6615C353.629 26.6556 353.721 26.6703 353.807 26.7047C353.893 26.739 353.97 26.792 354.032 26.8598C354.155 26.9991 354.245 27.1641 354.295 27.3426C354.353 27.5347 354.389 27.7328 354.403 27.9329C354.416 28.1363 354.424 28.3098 354.424 28.452C354.424 28.5942 354.413 28.7712 354.396 28.9563Z" fill="#FFFEF9"/>
<path d="M337.937 64.0575C337.919 64.0856 337.901 64.1138 337.881 64.1419C337.55 64.6379 337.243 65.033 337.041 65.6035C336.993 65.7352 336.97 65.8748 336.973 66.0151C335.404 67.8669 333.733 69.7666 333.19 72.0946H333.141C330.949 72.1038 328.768 71.8021 326.661 71.1985C324.674 70.637 322.813 69.7003 321.179 68.439C319.582 67.1982 318.278 65.6218 317.358 63.8212C316.404 61.9826 315.905 59.8448 315.861 57.4077H325.299C325.519 59.534 326.317 61.2287 327.691 62.4918C329.066 63.755 330.816 64.386 332.941 64.3849C334.105 64.4034 335.256 64.1413 336.297 63.621C336.836 63.3467 337.342 63.014 337.808 62.629C337.816 63.1077 337.859 63.5852 337.937 64.0575V64.0575Z" fill="#FFFEF9"/>
<path d="M338.58 61.9045C338.539 62.0583 338.457 62.1981 338.343 62.3088C338.229 62.4195 338.087 62.497 337.932 62.5329C338.159 62.3358 338.376 62.126 338.58 61.9045V61.9045Z" fill="#FFFEF9"/>
<path d="M370.002 51.5923L370.268 50.8053L371.591 51.3261V49.8745H372.418V51.3261L373.74 50.8053L374.031 51.5923L372.652 52.052L373.499 53.1879L372.859 53.659L371.999 52.4753L371.173 53.659L370.495 53.1879L371.341 52.052L370.002 51.5923Z" fill="#FFFEF9"/>
<path d="M302.696 70.7832V40.6108H291V33.5013C292.592 33.55 294.186 33.4275 295.752 33.1359C297.205 32.8757 298.6 32.3584 299.872 31.6082C301.094 30.8725 302.147 29.8871 302.962 28.7164C303.802 27.5216 304.356 26.0374 304.624 24.2639H312.133V70.7849L302.696 70.7832Z" fill="#FFFEF9"/>
</g>
<defs>
<filter id="filter0_d_20775_14438" x="-106.559" y="17.4802" width="291.599" height="74.5991" filterUnits="userSpaceOnUse" color-interpolation-filters="sRGB">
<feFlood flood-opacity="0" result="BackgroundImageFix"/>
<feColorMatrix in="SourceAlpha" type="matrix" values="0 0 0 0 0 0 0 0 0 0 0 0 0 0 0 0 0 0 127 0" result="hardAlpha"/>
<feOffset dx="-1.75991" dy="5.27974"/>
<feGaussianBlur stdDeviation="4.39978"/>
<feComposite in2="hardAlpha" operator="out"/>
<feColorMatrix type="matrix" values="0 0 0 0 0 0 0 0 0 0 0 0 0 0 0 0 0 0 0.25 0"/>
<feBlend mode="normal" in2="BackgroundImageFix" result="effect1_dropShadow_20775_14438"/>
<feBlend mode="normal" in="SourceGraphic" in2="effect1_dropShadow_20775_14438" result="shape"/>
</filter>
<clipPath id="clip0_20775_14438">
<rect width="767" height="100" fill="white"/>
</clipPath>
</defs>
</svg>
