<svg width="1400" height="250" viewBox="0 0 1400 250" fill="none" xmlns="http://www.w3.org/2000/svg">
<line x1="242.234" y1="38" x2="242.234" y2="213" stroke="#FFFEF9" stroke-width="2.02606"/>
<path d="M114.058 77.015H110.912V75.3369H110.842C110.422 76.0361 109.879 76.541 109.21 76.8518C108.542 77.1626 107.859 77.3179 107.159 77.3179C106.274 77.3179 105.543 77.2014 104.969 76.9683C104.409 76.7353 103.966 76.409 103.64 75.9894C103.314 75.5544 103.081 75.0339 102.941 74.4279C102.816 73.8064 102.754 73.1227 102.754 72.3769V64.9652H106.064V71.7709C106.064 72.7653 106.219 73.5111 106.53 74.0084C106.841 74.49 107.392 74.7309 108.185 74.7309C109.086 74.7309 109.739 74.4667 110.143 73.9384C110.547 73.3946 110.749 72.5089 110.749 71.2814V64.9652H114.058V77.015ZM122.653 74.8474C123.197 74.8474 123.648 74.7386 124.005 74.5211C124.378 74.3036 124.673 74.0239 124.891 73.6821C125.124 73.3247 125.287 72.9129 125.38 72.4468C125.473 71.9806 125.52 71.5067 125.52 71.0251C125.52 70.5434 125.466 70.0695 125.357 69.6033C125.264 69.1372 125.1 68.7254 124.867 68.3681C124.634 67.9952 124.331 67.6999 123.958 67.4824C123.601 67.2493 123.158 67.1328 122.63 67.1328C122.086 67.1328 121.628 67.2493 121.255 67.4824C120.897 67.6999 120.602 67.9874 120.369 68.3448C120.152 68.7021 119.996 69.1139 119.903 69.58C119.81 70.0462 119.763 70.5278 119.763 71.0251C119.763 71.5067 119.81 71.9806 119.903 72.4468C120.012 72.9129 120.175 73.3247 120.392 73.6821C120.626 74.0239 120.929 74.3036 121.301 74.5211C121.674 74.7386 122.125 74.8474 122.653 74.8474ZM116.57 64.9652H119.717V66.5035H119.763C120.167 65.8509 120.68 65.377 121.301 65.0818C121.923 64.7866 122.607 64.6389 123.352 64.6389C124.3 64.6389 125.116 64.8176 125.8 65.175C126.483 65.5324 127.05 66.0063 127.501 66.5967C127.952 67.1872 128.286 67.8786 128.503 68.6711C128.721 69.448 128.83 70.2637 128.83 71.1183C128.83 71.9263 128.721 72.7032 128.503 73.449C128.286 74.1948 127.952 74.8552 127.501 75.4301C127.066 76.005 126.514 76.4634 125.846 76.8052C125.194 77.147 124.425 77.3179 123.539 77.3179C122.793 77.3179 122.102 77.1703 121.465 76.8751C120.843 76.5644 120.33 76.1138 119.926 75.5233H119.88V81.2335H116.57V64.9652ZM141.5 64.9652H143.924V67.1794H141.5V73.146C141.5 73.7054 141.594 74.0783 141.78 74.2647C141.967 74.4512 142.339 74.5444 142.899 74.5444C143.085 74.5444 143.264 74.5366 143.435 74.5211C143.606 74.5056 143.769 74.4823 143.924 74.4512V77.015C143.645 77.0616 143.334 77.0926 142.992 77.1082C142.65 77.1237 142.316 77.1315 141.99 77.1315C141.477 77.1315 140.988 77.0926 140.521 77.015C140.071 76.9528 139.667 76.8207 139.31 76.6187C138.968 76.4167 138.696 76.1293 138.494 75.7564C138.292 75.3835 138.191 74.894 138.191 74.288V67.1794H136.186V64.9652H138.191V61.3527H141.5V64.9652ZM148.436 71.0018C148.436 71.4834 148.482 71.9573 148.575 72.4235C148.669 72.8741 148.824 73.2858 149.042 73.6587C149.275 74.0161 149.578 74.3036 149.951 74.5211C150.324 74.7386 150.79 74.8474 151.349 74.8474C151.908 74.8474 152.375 74.7386 152.747 74.5211C153.136 74.3036 153.439 74.0161 153.656 73.6587C153.889 73.2858 154.053 72.8741 154.146 72.4235C154.239 71.9573 154.286 71.4834 154.286 71.0018C154.286 70.5201 154.239 70.0462 154.146 69.58C154.053 69.1139 153.889 68.7021 153.656 68.3448C153.439 67.9874 153.136 67.6999 152.747 67.4824C152.375 67.2493 151.908 67.1328 151.349 67.1328C150.79 67.1328 150.324 67.2493 149.951 67.4824C149.578 67.6999 149.275 67.9874 149.042 68.3448C148.824 68.7021 148.669 69.1139 148.575 69.58C148.482 70.0462 148.436 70.5201 148.436 71.0018ZM145.126 71.0018C145.126 70.0384 145.274 69.1683 145.569 68.3914C145.864 67.5989 146.284 66.9308 146.827 66.387C147.371 65.8276 148.024 65.4003 148.785 65.1051C149.547 64.7943 150.401 64.6389 151.349 64.6389C152.297 64.6389 153.151 64.7943 153.913 65.1051C154.69 65.4003 155.35 65.8276 155.894 66.387C156.438 66.9308 156.857 67.5989 157.152 68.3914C157.448 69.1683 157.595 70.0384 157.595 71.0018C157.595 71.9651 157.448 72.8352 157.152 73.6121C156.857 74.389 156.438 75.0572 155.894 75.6165C155.35 76.1604 154.69 76.5799 153.913 76.8751C153.151 77.1703 152.297 77.3179 151.349 77.3179C150.401 77.3179 149.547 77.1703 148.785 76.8751C148.024 76.5799 147.371 76.1604 146.827 75.6165C146.284 75.0572 145.864 74.389 145.569 73.6121C145.274 72.8352 145.126 71.9651 145.126 71.0018Z" fill="#FFFEF9"/>
<path d="M203.687 144.6V147.483H208.968V152.109H203.687V175.622H197.485V152.109H188.069V175.622H181.864V152.109H177.238V147.483H181.864V145.143C181.864 143.368 182.083 141.925 182.519 140.816C182.872 139.829 183.472 138.949 184.262 138.26C184.978 137.665 185.828 137.253 186.739 137.061C187.696 136.859 188.671 136.759 189.648 136.763C191.642 136.763 193.094 136.89 194.002 137.143V141.985C193.583 141.873 193.156 141.792 192.725 141.743C192.192 141.684 191.656 141.656 191.119 141.661C190.359 141.64 189.61 141.849 188.97 142.26C188.372 142.66 188.072 143.44 188.072 144.6V147.483H197.488V145.143C197.488 143.368 197.707 141.925 198.143 140.816C198.496 139.83 199.095 138.95 199.883 138.26C200.6 137.666 201.449 137.255 202.36 137.061C203.317 136.859 204.294 136.759 205.272 136.763C207.269 136.763 208.72 136.89 209.626 137.143V141.985C209.207 141.873 208.78 141.792 208.349 141.743C207.816 141.684 207.28 141.656 206.743 141.661C205.982 141.64 205.232 141.849 204.591 142.26C203.988 142.66 203.687 143.443 203.687 144.6Z" fill="#FFFEF9"/>
<path d="M172.859 150.913C171.608 149.581 170.087 148.532 168.397 147.837C166.487 147.065 164.441 146.686 162.382 146.723C161.276 146.717 160.173 146.817 159.086 147.021L193.692 88.1253H191.307L176.266 113.699C176.05 112.792 175.817 111.907 175.568 111.055C173.762 104.94 171.301 100.039 168.184 96.3518C165.067 92.665 161.463 90.0277 157.373 88.4399C153.185 86.84 148.735 86.0356 144.252 86.068C139.813 86.0434 135.408 86.8478 131.265 88.4399C127.176 90.0212 123.593 92.6585 120.516 96.3518C117.438 100.045 115.003 104.946 113.21 111.055C111.404 117.171 110.502 124.706 110.504 133.661C110.504 142.891 111.406 150.605 113.21 156.804C115.014 163.002 117.453 167.947 120.526 171.638C123.603 175.329 127.186 177.966 131.275 179.55C133.008 180.22 134.793 180.748 136.612 181.129L133.719 186.034H136.163L148.488 165.066C148.641 165.898 148.86 166.716 149.143 167.513C149.732 169.25 150.677 170.845 151.918 172.195C153.169 173.528 154.692 174.577 156.383 175.271C160.255 176.756 164.539 176.756 168.41 175.271C170.1 174.576 171.621 173.527 172.872 172.195C174.113 170.845 175.058 169.25 175.647 167.513C176.918 163.642 176.918 159.466 175.647 155.595C175.054 153.857 174.104 152.262 172.859 150.913ZM144.248 166.639C140.468 166.639 137.567 165.408 135.547 162.946C133.447 160.336 131.94 157.299 131.131 154.048C130.202 150.513 129.652 146.889 129.493 143.237C129.316 139.502 129.228 136.316 129.23 133.677C129.23 132.096 129.252 130.184 129.296 127.941C129.34 125.697 129.493 123.39 129.758 121.018C130.019 118.638 130.457 116.28 131.068 113.964C131.628 111.766 132.494 109.658 133.64 107.7C134.69 105.906 136.133 104.372 137.86 103.215C139.572 102.075 141.704 101.504 144.255 101.502C146.806 101.5 148.961 102.071 150.719 103.215C152.485 104.368 153.971 105.9 155.069 107.7C156.249 109.641 157.117 111.755 157.641 113.964C158.208 116.29 158.646 118.644 158.952 121.018C159.253 123.314 159.429 125.625 159.479 127.941C159.521 130.181 159.543 132.094 159.545 133.677C159.545 136.147 159.467 139.096 159.312 142.523L145.146 166.606C144.854 166.625 144.553 166.635 144.248 166.635V166.639ZM169.92 165.148C169.631 166.286 169.143 167.364 168.479 168.332C167.828 169.276 166.972 170.06 165.976 170.626C164.865 171.198 163.633 171.497 162.384 171.497C161.134 171.497 159.902 171.198 158.791 170.626C157.793 170.062 156.937 169.277 156.288 168.332C155.622 167.365 155.133 166.287 154.847 165.148C154.227 162.785 154.227 160.303 154.847 157.94C155.126 156.799 155.615 155.719 156.288 154.756C156.945 153.828 157.8 153.057 158.791 152.499C159.902 151.926 161.134 151.627 162.384 151.627C163.633 151.627 164.865 151.926 165.976 152.499C166.966 153.058 167.82 153.829 168.479 154.756C169.15 155.72 169.638 156.8 169.92 157.94C170.536 160.304 170.536 162.785 169.92 165.148Z" fill="#FFFEF9"/>
<path d="M183.813 91.8274C183.681 91.1789 183.419 90.5638 183.044 90.019C182.676 89.5033 182.189 89.0841 181.625 88.797C180.941 88.476 180.191 88.3222 179.436 88.3482C178.702 88.3308 177.973 88.4797 177.304 88.7838C176.722 89.0608 176.213 89.4691 175.816 89.9764C175.413 90.5029 175.118 91.1042 174.948 91.7455C174.757 92.449 174.662 93.1754 174.666 93.9045C174.661 94.6268 174.741 95.3471 174.905 96.0504C175.042 96.6711 175.311 97.2553 175.692 97.7638C176.069 98.2504 176.561 98.6355 177.123 98.8843C177.809 99.1761 178.551 99.3158 179.296 99.2938C180.026 99.3112 180.752 99.1774 181.428 98.9007C182 98.6584 182.505 98.2832 182.903 97.8064C183.299 97.3135 183.589 96.745 183.758 96.1356C183.951 95.4459 184.046 94.7322 184.04 94.0159C184.043 93.2804 183.967 92.5467 183.813 91.8274ZM181.134 94.9857C181.109 95.3406 181.034 95.6903 180.911 96.0242C180.796 96.3428 180.602 96.627 180.347 96.8498C180.048 97.0688 179.687 97.1869 179.317 97.1869C178.946 97.1869 178.585 97.0688 178.287 96.8498C178.042 96.6235 177.859 96.3397 177.752 96.0242C177.639 95.6844 177.573 95.3305 177.556 94.9726C177.54 94.5958 177.53 94.2616 177.53 93.9602C177.53 93.6588 177.53 93.2788 177.572 92.866C177.595 92.4733 177.675 92.086 177.808 91.7161C177.93 91.3769 178.127 91.0699 178.385 90.8184C178.673 90.5626 179.052 90.4318 179.436 90.4547C179.619 90.4433 179.802 90.4726 179.972 90.5406C180.142 90.6086 180.295 90.7136 180.419 90.8478C180.66 91.1236 180.837 91.4492 180.937 91.8012C181.05 92.1799 181.121 92.5699 181.147 92.9642C181.176 93.3672 181.189 93.708 181.189 93.9897C181.189 94.2715 181.163 94.6286 181.134 94.9857ZM198.291 101.21C198.161 100.578 197.899 99.9808 197.521 99.4576C197.15 98.9558 196.663 98.5512 196.102 98.2781C195.417 97.9647 194.667 97.8156 193.914 97.8425C193.18 97.8243 192.452 97.9687 191.781 98.2651C191.204 98.5277 190.695 98.9215 190.297 99.415C189.893 99.9198 189.597 100.502 189.426 101.125C189.233 101.82 189.138 102.537 189.144 103.258C189.14 103.986 189.221 104.711 189.383 105.42C189.525 106.051 189.792 106.647 190.169 107.173C190.541 107.675 191.033 108.075 191.601 108.336C192.284 108.637 193.027 108.781 193.773 108.759C194.505 108.777 195.232 108.637 195.906 108.349C196.482 108.097 196.988 107.708 197.38 107.216C197.775 106.706 198.065 106.124 198.235 105.502C198.428 104.808 198.522 104.09 198.517 103.369C198.522 102.64 198.446 101.913 198.291 101.201V101.21ZM195.611 104.339C195.586 104.712 195.511 105.08 195.388 105.433C195.274 105.768 195.082 106.071 194.828 106.318C194.548 106.57 194.179 106.701 193.802 106.682C193.614 106.694 193.424 106.668 193.246 106.606C193.068 106.543 192.904 106.445 192.764 106.318C192.519 106.069 192.336 105.766 192.23 105.433C192.117 105.074 192.05 104.702 192.033 104.326C192.017 103.933 192.007 103.586 192.007 103.287C192.007 102.989 192.007 102.613 192.05 102.219C192.073 101.845 192.154 101.476 192.289 101.125C192.409 100.802 192.605 100.513 192.862 100.283C193.16 100.048 193.535 99.9311 193.914 99.9556C194.095 99.9443 194.277 99.9725 194.447 100.038C194.616 100.104 194.77 100.205 194.897 100.336C195.132 100.594 195.309 100.9 195.414 101.233C195.528 101.588 195.599 101.956 195.624 102.328C195.653 102.711 195.667 103.045 195.667 103.31C195.667 103.576 195.64 103.946 195.611 104.329V104.339Z" fill="#FFFEF9"/>
<path d="M212.055 141.478L212.582 139.919L215.22 140.951V138.074H216.858V140.951L219.479 139.919L220.052 141.478L217.319 142.389L218.997 144.64L217.729 145.573L216.025 143.228L214.387 145.573L213.044 144.64L214.722 142.389L212.055 141.478Z" fill="#FFFEF9"/>
<path d="M39.9961 158.619V141.501L80.0309 87.7721H96.7393V143.215H108.989V158.613H96.7393V179.947H78.9629V158.613L39.9961 158.619ZM78.5795 111.213L54.7454 143.215H78.989V111.213H78.5795Z" fill="#FFFEF9"/>
<path d="M280.77 55.395H289.48V59.945H289.61C290.823 58.2117 292.275 56.8683 293.965 55.915C295.698 54.9617 297.67 54.485 299.88 54.485C302.003 54.485 303.932 54.8967 305.665 55.72C307.442 56.5433 308.785 57.995 309.695 60.075C310.692 58.6017 312.035 57.3017 313.725 56.175C315.458 55.0483 317.495 54.485 319.835 54.485C321.612 54.485 323.258 54.7017 324.775 55.135C326.292 55.5683 327.592 56.2617 328.675 57.215C329.758 58.1683 330.603 59.425 331.21 60.985C331.817 62.5017 332.12 64.3433 332.12 66.51V89H322.89V69.955C322.89 68.8283 322.847 67.7667 322.76 66.77C322.673 65.7733 322.435 64.9067 322.045 64.17C321.655 63.4333 321.07 62.8483 320.29 62.415C319.553 61.9817 318.535 61.765 317.235 61.765C315.935 61.765 314.873 62.025 314.05 62.545C313.27 63.0217 312.642 63.6717 312.165 64.495C311.732 65.275 311.428 66.185 311.255 67.225C311.125 68.2217 311.06 69.24 311.06 70.28V89H301.83V70.15C301.83 69.1533 301.808 68.1783 301.765 67.225C301.722 66.2283 301.527 65.3183 301.18 64.495C300.877 63.6717 300.335 63.0217 299.555 62.545C298.818 62.025 297.713 61.765 296.24 61.765C295.807 61.765 295.222 61.8733 294.485 62.09C293.792 62.2633 293.098 62.6317 292.405 63.195C291.755 63.715 291.192 64.495 290.715 65.535C290.238 66.5317 290 67.8533 290 69.5V89H280.77V55.395ZM346.956 50.195H337.726V42.59H346.956V50.195ZM337.726 55.395H346.956V89H337.726V55.395ZM376.129 72.1C376.129 70.7133 375.999 69.3917 375.739 68.135C375.479 66.835 375.024 65.7083 374.374 64.755C373.767 63.7583 372.966 62.9567 371.969 62.35C370.972 61.7433 369.716 61.44 368.199 61.44C366.682 61.44 365.404 61.7433 364.364 62.35C363.324 62.9567 362.479 63.7583 361.829 64.755C361.222 65.7517 360.767 66.9 360.464 68.2C360.204 69.4567 360.074 70.7783 360.074 72.165C360.074 73.465 360.226 74.765 360.529 76.065C360.832 77.365 361.309 78.535 361.959 79.575C362.652 80.5717 363.497 81.395 364.494 82.045C365.534 82.6517 366.769 82.955 368.199 82.955C369.716 82.955 370.972 82.6517 371.969 82.045C373.009 81.4383 373.832 80.6367 374.439 79.64C375.046 78.6 375.479 77.43 375.739 76.13C375.999 74.83 376.129 73.4867 376.129 72.1ZM376.259 84.71H376.129C375.046 86.53 373.616 87.8517 371.839 88.675C370.106 89.455 368.134 89.845 365.924 89.845C363.411 89.845 361.201 89.3683 359.294 88.415C357.387 87.4183 355.806 86.0967 354.549 84.45C353.336 82.76 352.404 80.8317 351.754 78.665C351.147 76.4983 350.844 74.245 350.844 71.905C350.844 69.6517 351.147 67.485 351.754 65.405C352.404 63.2817 353.336 61.4183 354.549 59.815C355.806 58.2117 357.366 56.9333 359.229 55.98C361.092 54.9833 363.259 54.485 365.729 54.485C367.722 54.485 369.607 54.9183 371.384 55.785C373.204 56.6083 374.634 57.8433 375.674 59.49H375.804V42.59H385.034V89H376.259V84.71ZM389.995 67.29H409.56V75.22H389.995V67.29ZM437.46 67.225C436.853 63.3683 434.578 61.44 430.635 61.44C429.162 61.44 427.927 61.7867 426.93 62.48C425.933 63.13 425.11 63.9967 424.46 65.08C423.853 66.12 423.42 67.29 423.16 68.59C422.9 69.8467 422.77 71.1033 422.77 72.36C422.77 73.5733 422.9 74.8083 423.16 76.065C423.42 77.3217 423.832 78.47 424.395 79.51C425.002 80.5067 425.803 81.33 426.8 81.98C427.797 82.63 429.01 82.955 430.44 82.955C432.65 82.955 434.34 82.3483 435.51 81.135C436.723 79.8783 437.482 78.21 437.785 76.13H446.69C446.083 80.5933 444.35 83.995 441.49 86.335C438.63 88.675 434.968 89.845 430.505 89.845C427.992 89.845 425.673 89.4333 423.55 88.61C421.47 87.7433 419.693 86.5517 418.22 85.035C416.747 83.5183 415.598 81.72 414.775 79.64C413.952 77.5167 413.54 75.1983 413.54 72.685C413.54 70.085 413.908 67.68 414.645 65.47C415.425 63.2167 416.552 61.2883 418.025 59.685C419.498 58.0383 421.297 56.76 423.42 55.85C425.543 54.94 427.97 54.485 430.7 54.485C432.693 54.485 434.6 54.745 436.42 55.265C438.283 55.785 439.93 56.5867 441.36 57.67C442.833 58.71 444.025 60.0317 444.935 61.635C445.845 63.195 446.365 65.0583 446.495 67.225H437.46ZM472.574 68.59C472.141 66.25 471.361 64.4733 470.234 63.26C469.151 62.0467 467.483 61.44 465.229 61.44C463.756 61.44 462.521 61.7 461.524 62.22C460.571 62.6967 459.791 63.3033 459.184 64.04C458.621 64.7767 458.209 65.5567 457.949 66.38C457.733 67.2033 457.603 67.94 457.559 68.59H472.574ZM457.559 74.44C457.689 77.43 458.448 79.5967 459.834 80.94C461.221 82.2833 463.214 82.955 465.814 82.955C467.678 82.955 469.281 82.5 470.624 81.59C471.968 80.6367 472.791 79.64 473.094 78.6H481.219C479.919 82.63 477.926 85.5117 475.239 87.245C472.553 88.9783 469.303 89.845 465.489 89.845C462.846 89.845 460.463 89.4333 458.339 88.61C456.216 87.7433 454.418 86.53 452.944 84.97C451.471 83.41 450.323 81.5467 449.499 79.38C448.719 77.2133 448.329 74.83 448.329 72.23C448.329 69.7167 448.741 67.3767 449.564 65.21C450.388 63.0433 451.558 61.18 453.074 59.62C454.591 58.0167 456.389 56.76 458.469 55.85C460.593 54.94 462.933 54.485 465.489 54.485C468.349 54.485 470.841 55.0483 472.964 56.175C475.088 57.2583 476.821 58.7317 478.164 60.595C479.551 62.4583 480.548 64.5817 481.154 66.965C481.761 69.3483 481.978 71.84 481.804 74.44H457.559ZM485.329 55.395H494.104V60.075H494.299C495.469 58.125 496.985 56.7167 498.849 55.85C500.712 54.94 502.619 54.485 504.569 54.485C507.039 54.485 509.054 54.8317 510.614 55.525C512.217 56.175 513.474 57.1067 514.384 58.32C515.294 59.49 515.922 60.9417 516.269 62.675C516.659 64.365 516.854 66.25 516.854 68.33V89H507.624V70.02C507.624 67.2467 507.19 65.1883 506.324 63.845C505.457 62.4583 503.919 61.765 501.709 61.765C499.195 61.765 497.375 62.5233 496.249 64.04C495.122 65.5133 494.559 67.9617 494.559 71.385V89H485.329V55.395ZM533.609 55.395H540.369V61.57H533.609V78.21C533.609 79.77 533.869 80.81 534.389 81.33C534.909 81.85 535.949 82.11 537.509 82.11C538.029 82.11 538.527 82.0883 539.004 82.045C539.481 82.0017 539.936 81.9367 540.369 81.85V89C539.589 89.13 538.722 89.2167 537.769 89.26C536.816 89.3033 535.884 89.325 534.974 89.325C533.544 89.325 532.179 89.2167 530.879 89C529.622 88.8267 528.496 88.4583 527.499 87.895C526.546 87.3317 525.787 86.53 525.224 85.49C524.661 84.45 524.379 83.085 524.379 81.395V61.57H518.789V55.395H524.379V45.32H533.609V55.395ZM574.335 89H565.56V84.32H565.365C564.195 86.27 562.679 87.6783 560.815 88.545C558.952 89.4117 557.045 89.845 555.095 89.845C552.625 89.845 550.589 89.52 548.985 88.87C547.425 88.22 546.19 87.31 545.28 86.14C544.37 84.9267 543.72 83.475 543.33 81.785C542.984 80.0517 542.81 78.145 542.81 76.065V55.395H552.04V74.375C552.04 77.1483 552.474 79.2283 553.34 80.615C554.207 81.9583 555.745 82.63 557.955 82.63C560.469 82.63 562.289 81.8933 563.415 80.42C564.542 78.9033 565.105 76.4333 565.105 73.01V55.395H574.335V89ZM579.391 55.395H588.166V61.635H588.296C588.729 60.595 589.314 59.6417 590.051 58.775C590.787 57.865 591.632 57.1067 592.586 56.5C593.539 55.85 594.557 55.3517 595.641 55.005C596.724 54.6583 597.851 54.485 599.021 54.485C599.627 54.485 600.299 54.5933 601.036 54.81V63.39C600.602 63.3033 600.082 63.2383 599.476 63.195C598.869 63.1083 598.284 63.065 597.721 63.065C596.031 63.065 594.601 63.3467 593.431 63.91C592.261 64.4733 591.307 65.2533 590.571 66.25C589.877 67.2033 589.379 68.33 589.076 69.63C588.772 70.93 588.621 72.3383 588.621 73.855V89H579.391V55.395ZM619.279 93.16C618.283 95.89 616.896 97.84 615.119 99.01C613.343 100.18 610.873 100.765 607.709 100.765C606.756 100.765 605.803 100.722 604.849 100.635C603.939 100.592 603.008 100.527 602.054 100.44V92.835C602.921 92.9217 603.809 93.0083 604.719 93.095C605.629 93.1817 606.539 93.2033 607.449 93.16C608.663 93.03 609.551 92.5533 610.114 91.73C610.721 90.9067 611.024 89.9967 611.024 89C611.024 88.2633 610.894 87.57 610.634 86.92L598.869 55.395H608.684L616.289 78.405H616.419L623.764 55.395H633.319L619.279 93.16Z" fill="#FFFEF9"/>
<path d="M280.9 116.46H284.67V122.115H284.865C285.948 120.035 287.357 118.41 289.09 117.24C290.867 116.07 293.12 115.485 295.85 115.485C298.06 115.485 300.053 116.027 301.83 117.11C303.65 118.193 304.863 119.84 305.47 122.05C306.467 119.84 307.94 118.193 309.89 117.11C311.84 116.027 313.92 115.485 316.13 115.485C323.54 115.485 327.245 119.407 327.245 127.25V150H323.15V127.445C323.15 124.672 322.565 122.57 321.395 121.14C320.225 119.667 318.167 118.93 315.22 118.93C313.443 118.93 311.97 119.277 310.8 119.97C309.63 120.62 308.698 121.508 308.005 122.635C307.312 123.762 306.813 125.062 306.51 126.535C306.25 127.965 306.12 129.46 306.12 131.02V150H302.025V127.25C302.025 126.123 301.895 125.062 301.635 124.065C301.418 123.025 301.028 122.137 300.465 121.4C299.945 120.62 299.23 120.013 298.32 119.58C297.41 119.147 296.305 118.93 295.005 118.93C293.272 118.93 291.755 119.255 290.455 119.905C289.198 120.512 288.158 121.378 287.335 122.505C286.555 123.588 285.97 124.888 285.58 126.405C285.19 127.878 284.995 129.503 284.995 131.28V150H280.9V116.46ZM347.266 118.93C345.316 118.93 343.604 119.342 342.131 120.165C340.657 120.988 339.422 122.072 338.426 123.415C337.472 124.758 336.736 126.297 336.216 128.03C335.739 129.72 335.501 131.453 335.501 133.23C335.501 135.007 335.739 136.762 336.216 138.495C336.736 140.185 337.472 141.702 338.426 143.045C339.422 144.388 340.657 145.472 342.131 146.295C343.604 147.118 345.316 147.53 347.266 147.53C349.216 147.53 350.927 147.118 352.401 146.295C353.874 145.472 355.087 144.388 356.041 143.045C357.037 141.702 357.774 140.185 358.251 138.495C358.771 136.762 359.031 135.007 359.031 133.23C359.031 131.453 358.771 129.72 358.251 128.03C357.774 126.297 357.037 124.758 356.041 123.415C355.087 122.072 353.874 120.988 352.401 120.165C350.927 119.342 349.216 118.93 347.266 118.93ZM347.266 115.485C349.822 115.485 352.076 115.962 354.026 116.915C356.019 117.868 357.687 119.147 359.031 120.75C360.374 122.353 361.392 124.238 362.086 126.405C362.779 128.528 363.126 130.803 363.126 133.23C363.126 135.657 362.779 137.953 362.086 140.12C361.392 142.243 360.374 144.107 359.031 145.71C357.687 147.313 356.019 148.592 354.026 149.545C352.076 150.455 349.822 150.91 347.266 150.91C344.709 150.91 342.434 150.455 340.441 149.545C338.491 148.592 336.844 147.313 335.501 145.71C334.157 144.107 333.139 142.243 332.446 140.12C331.752 137.953 331.406 135.657 331.406 133.23C331.406 130.803 331.752 128.528 332.446 126.405C333.139 124.238 334.157 122.353 335.501 120.75C336.844 119.147 338.491 117.868 340.441 116.915C342.434 115.962 344.709 115.485 347.266 115.485ZM396.774 150H393.004V143.63H392.874C392.44 144.713 391.79 145.71 390.924 146.62C390.1 147.53 389.147 148.31 388.064 148.96C386.98 149.567 385.81 150.043 384.554 150.39C383.34 150.737 382.127 150.91 380.914 150.91C378.357 150.91 376.125 150.455 374.219 149.545C372.355 148.592 370.795 147.313 369.539 145.71C368.282 144.063 367.35 142.178 366.744 140.055C366.137 137.888 365.834 135.613 365.834 133.23C365.834 130.847 366.137 128.593 366.744 126.47C367.35 124.303 368.282 122.418 369.539 120.815C370.795 119.168 372.355 117.868 374.219 116.915C376.125 115.962 378.357 115.485 380.914 115.485C382.17 115.485 383.384 115.637 384.554 115.94C385.767 116.243 386.894 116.72 387.934 117.37C388.974 117.977 389.884 118.735 390.664 119.645C391.487 120.555 392.115 121.617 392.549 122.83H392.679V103.59H396.774V150ZM369.929 133.23C369.929 134.963 370.124 136.697 370.514 138.43C370.947 140.12 371.597 141.637 372.464 142.98C373.374 144.323 374.522 145.428 375.909 146.295C377.295 147.118 378.964 147.53 380.914 147.53C383.08 147.53 384.9 147.118 386.374 146.295C387.89 145.428 389.104 144.323 390.014 142.98C390.967 141.637 391.639 140.12 392.029 138.43C392.462 136.697 392.679 134.963 392.679 133.23C392.679 131.497 392.462 129.785 392.029 128.095C391.639 126.362 390.967 124.823 390.014 123.48C389.104 122.137 387.89 121.053 386.374 120.23C384.9 119.363 383.08 118.93 380.914 118.93C378.964 118.93 377.295 119.363 375.909 120.23C374.522 121.053 373.374 122.137 372.464 123.48C371.597 124.823 370.947 126.362 370.514 128.095C370.124 129.785 369.929 131.497 369.929 133.23ZM426.753 130.89C426.71 129.33 426.428 127.835 425.908 126.405C425.431 124.975 424.738 123.718 423.828 122.635C422.918 121.508 421.813 120.62 420.513 119.97C419.213 119.277 417.74 118.93 416.093 118.93C414.403 118.93 412.908 119.277 411.608 119.97C410.308 120.62 409.203 121.508 408.293 122.635C407.383 123.718 406.646 124.997 406.083 126.47C405.563 127.9 405.216 129.373 405.043 130.89H426.753ZM405.043 134.335C405.043 135.808 405.238 137.347 405.628 138.95C406.061 140.51 406.733 141.918 407.643 143.175C408.553 144.432 409.701 145.472 411.088 146.295C412.475 147.118 414.143 147.53 416.093 147.53C419.083 147.53 421.423 146.75 423.113 145.19C424.803 143.63 425.973 141.55 426.623 138.95H430.718C429.851 142.763 428.248 145.71 425.908 147.79C423.611 149.87 420.34 150.91 416.093 150.91C413.45 150.91 411.153 150.455 409.203 149.545C407.296 148.592 405.736 147.313 404.523 145.71C403.31 144.063 402.4 142.178 401.793 140.055C401.23 137.888 400.948 135.613 400.948 133.23C400.948 131.02 401.23 128.853 401.793 126.73C402.4 124.607 403.31 122.722 404.523 121.075C405.736 119.385 407.296 118.042 409.203 117.045C411.153 116.005 413.45 115.485 416.093 115.485C418.78 115.485 421.076 116.027 422.983 117.11C424.89 118.193 426.428 119.623 427.598 121.4C428.811 123.133 429.678 125.148 430.198 127.445C430.718 129.698 430.935 131.995 430.848 134.335H405.043ZM434.394 116.46H438.164V124.325H438.294C439.334 121.595 440.937 119.493 443.104 118.02C445.314 116.547 447.936 115.875 450.969 116.005V120.1C449.106 120.013 447.416 120.273 445.899 120.88C444.382 121.443 443.061 122.267 441.934 123.35C440.851 124.433 440.006 125.733 439.399 127.25C438.792 128.723 438.489 130.348 438.489 132.125V150H434.394V116.46ZM454.024 116.46H458.119V122.245H458.249C459.029 120.208 460.416 118.583 462.409 117.37C464.403 116.113 466.591 115.485 468.974 115.485C471.314 115.485 473.264 115.788 474.824 116.395C476.428 117.002 477.706 117.868 478.659 118.995C479.613 120.078 480.284 121.422 480.674 123.025C481.064 124.628 481.259 126.427 481.259 128.42V150H477.164V129.07C477.164 127.64 477.034 126.318 476.774 125.105C476.514 123.848 476.059 122.765 475.409 121.855C474.759 120.945 473.871 120.23 472.744 119.71C471.661 119.19 470.296 118.93 468.649 118.93C467.003 118.93 465.529 119.233 464.229 119.84C462.973 120.403 461.889 121.205 460.979 122.245C460.113 123.242 459.419 124.455 458.899 125.885C458.423 127.272 458.163 128.788 458.119 130.435V150H454.024V116.46ZM527.307 130.89C527.264 129.33 526.982 127.835 526.462 126.405C525.986 124.975 525.292 123.718 524.382 122.635C523.472 121.508 522.367 120.62 521.067 119.97C519.767 119.277 518.294 118.93 516.647 118.93C514.957 118.93 513.462 119.277 512.162 119.97C510.862 120.62 509.757 121.508 508.847 122.635C507.937 123.718 507.201 124.997 506.637 126.47C506.117 127.9 505.771 129.373 505.597 130.89H527.307ZM505.597 134.335C505.597 135.808 505.792 137.347 506.182 138.95C506.616 140.51 507.287 141.918 508.197 143.175C509.107 144.432 510.256 145.472 511.642 146.295C513.029 147.118 514.697 147.53 516.647 147.53C519.637 147.53 521.977 146.75 523.667 145.19C525.357 143.63 526.527 141.55 527.177 138.95H531.272C530.406 142.763 528.802 145.71 526.462 147.79C524.166 149.87 520.894 150.91 516.647 150.91C514.004 150.91 511.707 150.455 509.757 149.545C507.851 148.592 506.291 147.313 505.077 145.71C503.864 144.063 502.954 142.178 502.347 140.055C501.784 137.888 501.502 135.613 501.502 133.23C501.502 131.02 501.784 128.853 502.347 126.73C502.954 124.607 503.864 122.722 505.077 121.075C506.291 119.385 507.851 118.042 509.757 117.045C511.707 116.005 514.004 115.485 516.647 115.485C519.334 115.485 521.631 116.027 523.537 117.11C525.444 118.193 526.982 119.623 528.152 121.4C529.366 123.133 530.232 125.148 530.752 127.445C531.272 129.698 531.489 131.995 531.402 134.335H505.597ZM564.458 150H560.688V143.63H560.558C560.125 144.713 559.475 145.71 558.608 146.62C557.785 147.53 556.832 148.31 555.748 148.96C554.665 149.567 553.495 150.043 552.238 150.39C551.025 150.737 549.812 150.91 548.598 150.91C546.042 150.91 543.81 150.455 541.903 149.545C540.04 148.592 538.48 147.313 537.223 145.71C535.967 144.063 535.035 142.178 534.428 140.055C533.822 137.888 533.518 135.613 533.518 133.23C533.518 130.847 533.822 128.593 534.428 126.47C535.035 124.303 535.967 122.418 537.223 120.815C538.48 119.168 540.04 117.868 541.903 116.915C543.81 115.962 546.042 115.485 548.598 115.485C549.855 115.485 551.068 115.637 552.238 115.94C553.452 116.243 554.578 116.72 555.618 117.37C556.658 117.977 557.568 118.735 558.348 119.645C559.172 120.555 559.8 121.617 560.233 122.83H560.363V103.59H564.458V150ZM537.613 133.23C537.613 134.963 537.808 136.697 538.198 138.43C538.632 140.12 539.282 141.637 540.148 142.98C541.058 144.323 542.207 145.428 543.593 146.295C544.98 147.118 546.648 147.53 548.598 147.53C550.765 147.53 552.585 147.118 554.058 146.295C555.575 145.428 556.788 144.323 557.698 142.98C558.652 141.637 559.323 140.12 559.713 138.43C560.147 136.697 560.363 134.963 560.363 133.23C560.363 131.497 560.147 129.785 559.713 128.095C559.323 126.362 558.652 124.823 557.698 123.48C556.788 122.137 555.575 121.053 554.058 120.23C552.585 119.363 550.765 118.93 548.598 118.93C546.648 118.93 544.98 119.363 543.593 120.23C542.207 121.053 541.058 122.137 540.148 123.48C539.282 124.823 538.632 126.362 538.198 128.095C537.808 129.785 537.613 131.497 537.613 133.23ZM570.388 103.59H574.483V110.155H570.388V103.59ZM570.388 116.46H574.483V150H570.388V116.46ZM586.87 116.46H593.695V119.905H586.87V142.525C586.87 143.868 587.043 144.93 587.39 145.71C587.78 146.447 588.711 146.858 590.185 146.945C591.355 146.945 592.525 146.88 593.695 146.75V150.195C593.088 150.195 592.481 150.217 591.875 150.26C591.268 150.303 590.661 150.325 590.055 150.325C587.325 150.325 585.418 149.805 584.335 148.765C583.251 147.682 582.731 145.71 582.775 142.85V119.905H576.925V116.46H582.775V106.385H586.87V116.46Z" fill="#FFFEF9"/>
<path d="M292.712 195.84C292.541 194.197 291.944 193.013 290.92 192.288C289.917 191.541 288.627 191.168 287.048 191.168C286.408 191.168 285.779 191.232 285.16 191.36C284.541 191.488 283.987 191.701 283.496 192C283.027 192.299 282.643 192.704 282.344 193.216C282.067 193.707 281.928 194.325 281.928 195.072C281.928 195.776 282.131 196.352 282.536 196.8C282.963 197.227 283.517 197.579 284.2 197.856C284.904 198.133 285.693 198.368 286.568 198.56C287.443 198.731 288.328 198.923 289.224 199.136C290.141 199.349 291.037 199.605 291.912 199.904C292.787 200.181 293.565 200.565 294.248 201.056C294.952 201.547 295.507 202.165 295.912 202.912C296.339 203.659 296.552 204.597 296.552 205.728C296.552 206.944 296.275 207.989 295.72 208.864C295.187 209.717 294.493 210.421 293.64 210.976C292.787 211.509 291.827 211.893 290.76 212.128C289.715 212.384 288.669 212.512 287.624 212.512C286.344 212.512 285.128 212.352 283.976 212.032C282.845 211.712 281.843 211.232 280.968 210.592C280.115 209.931 279.432 209.099 278.92 208.096C278.429 207.072 278.184 205.867 278.184 204.48H281.064C281.064 205.44 281.245 206.272 281.608 206.976C281.992 207.659 282.483 208.224 283.08 208.672C283.699 209.12 284.413 209.451 285.224 209.664C286.035 209.877 286.867 209.984 287.72 209.984C288.403 209.984 289.085 209.92 289.768 209.792C290.472 209.664 291.101 209.451 291.656 209.152C292.211 208.832 292.659 208.405 293 207.872C293.341 207.339 293.512 206.656 293.512 205.824C293.512 205.035 293.299 204.395 292.872 203.904C292.467 203.413 291.912 203.019 291.208 202.72C290.525 202.4 289.747 202.144 288.872 201.952C287.997 201.76 287.101 201.568 286.184 201.376C285.288 201.163 284.403 200.928 283.528 200.672C282.653 200.395 281.864 200.043 281.16 199.616C280.477 199.168 279.923 198.603 279.496 197.92C279.091 197.216 278.888 196.341 278.888 195.296C278.888 194.144 279.123 193.152 279.592 192.32C280.061 191.467 280.68 190.773 281.448 190.24C282.237 189.685 283.123 189.28 284.104 189.024C285.107 188.747 286.131 188.608 287.176 188.608C288.349 188.608 289.437 188.747 290.44 189.024C291.443 189.301 292.317 189.739 293.064 190.336C293.832 190.933 294.429 191.691 294.856 192.608C295.304 193.504 295.549 194.581 295.592 195.84H292.712ZM314.454 211.936C313.985 212.213 313.334 212.352 312.502 212.352C311.798 212.352 311.233 212.16 310.806 211.776C310.401 211.371 310.198 210.72 310.198 209.824C309.451 210.72 308.577 211.371 307.574 211.776C306.593 212.16 305.526 212.352 304.374 212.352C303.627 212.352 302.913 212.267 302.23 212.096C301.569 211.925 300.993 211.659 300.502 211.296C300.011 210.933 299.617 210.464 299.318 209.888C299.041 209.291 298.902 208.576 298.902 207.744C298.902 206.805 299.062 206.037 299.382 205.44C299.702 204.843 300.118 204.363 300.63 204C301.163 203.616 301.761 203.328 302.422 203.136C303.105 202.944 303.798 202.784 304.502 202.656C305.249 202.507 305.953 202.4 306.614 202.336C307.297 202.251 307.894 202.144 308.406 202.016C308.918 201.867 309.323 201.664 309.622 201.408C309.921 201.131 310.07 200.736 310.07 200.224C310.07 199.627 309.953 199.147 309.718 198.784C309.505 198.421 309.217 198.144 308.854 197.952C308.513 197.76 308.118 197.632 307.67 197.568C307.243 197.504 306.817 197.472 306.39 197.472C305.238 197.472 304.278 197.696 303.51 198.144C302.742 198.571 302.326 199.392 302.262 200.608H299.542C299.585 199.584 299.798 198.72 300.182 198.016C300.566 197.312 301.078 196.747 301.718 196.32C302.358 195.872 303.083 195.552 303.894 195.36C304.726 195.168 305.611 195.072 306.55 195.072C307.297 195.072 308.033 195.125 308.758 195.232C309.505 195.339 310.177 195.563 310.774 195.904C311.371 196.224 311.851 196.683 312.214 197.28C312.577 197.877 312.758 198.656 312.758 199.616V208.128C312.758 208.768 312.79 209.237 312.854 209.536C312.939 209.835 313.195 209.984 313.622 209.984C313.857 209.984 314.134 209.931 314.454 209.824V211.936ZM310.038 203.456C309.697 203.712 309.249 203.904 308.694 204.032C308.139 204.139 307.553 204.235 306.934 204.32C306.337 204.384 305.729 204.469 305.11 204.576C304.491 204.661 303.937 204.811 303.446 205.024C302.955 205.237 302.55 205.547 302.23 205.952C301.931 206.336 301.782 206.869 301.782 207.552C301.782 208 301.867 208.384 302.038 208.704C302.23 209.003 302.465 209.248 302.742 209.44C303.041 209.632 303.382 209.771 303.766 209.856C304.15 209.941 304.555 209.984 304.982 209.984C305.878 209.984 306.646 209.867 307.286 209.632C307.926 209.376 308.449 209.067 308.854 208.704C309.259 208.32 309.558 207.915 309.75 207.488C309.942 207.04 310.038 206.624 310.038 206.24V203.456ZM324.442 212H321.53L315.386 195.456H318.426L323.066 209.248H323.13L327.642 195.456H330.49L324.442 212ZM344.474 202.144C344.431 201.504 344.282 200.896 344.026 200.32C343.791 199.744 343.46 199.253 343.034 198.848C342.628 198.421 342.138 198.091 341.562 197.856C341.007 197.6 340.388 197.472 339.706 197.472C339.002 197.472 338.362 197.6 337.786 197.856C337.231 198.091 336.751 198.421 336.346 198.848C335.94 199.275 335.62 199.776 335.386 200.352C335.151 200.907 335.012 201.504 334.97 202.144H344.474ZM347.097 206.752C346.735 208.608 345.935 210.005 344.698 210.944C343.46 211.883 341.903 212.352 340.026 212.352C338.703 212.352 337.551 212.139 336.57 211.712C335.61 211.285 334.799 210.688 334.138 209.92C333.476 209.152 332.975 208.235 332.634 207.168C332.314 206.101 332.132 204.939 332.09 203.68C332.09 202.421 332.282 201.269 332.666 200.224C333.05 199.179 333.583 198.272 334.266 197.504C334.97 196.736 335.791 196.139 336.73 195.712C337.69 195.285 338.735 195.072 339.866 195.072C341.338 195.072 342.554 195.381 343.514 196C344.495 196.597 345.274 197.365 345.85 198.304C346.447 199.243 346.852 200.267 347.066 201.376C347.3 202.485 347.396 203.541 347.354 204.544H334.97C334.948 205.269 335.034 205.963 335.226 206.624C335.418 207.264 335.727 207.84 336.154 208.352C336.58 208.843 337.124 209.237 337.786 209.536C338.447 209.835 339.226 209.984 340.122 209.984C341.274 209.984 342.212 209.717 342.938 209.184C343.684 208.651 344.175 207.84 344.41 206.752H347.097ZM359.495 189.152H362.727L374.759 207.68H374.823V189.152H377.703V212H374.375L362.439 193.664H362.375V212H359.495V189.152ZM384.157 203.744C384.157 204.747 384.285 205.643 384.541 206.432C384.818 207.2 385.192 207.851 385.661 208.384C386.13 208.896 386.674 209.291 387.293 209.568C387.933 209.845 388.605 209.984 389.309 209.984C390.013 209.984 390.674 209.845 391.293 209.568C391.933 209.291 392.488 208.896 392.957 208.384C393.426 207.851 393.789 207.2 394.045 206.432C394.322 205.643 394.461 204.747 394.461 203.744C394.461 202.741 394.322 201.856 394.045 201.088C393.789 200.299 393.426 199.637 392.957 199.104C392.488 198.571 391.933 198.165 391.293 197.888C390.674 197.611 390.013 197.472 389.309 197.472C388.605 197.472 387.933 197.611 387.293 197.888C386.674 198.165 386.13 198.571 385.661 199.104C385.192 199.637 384.818 200.299 384.541 201.088C384.285 201.856 384.157 202.741 384.157 203.744ZM381.277 203.744C381.277 202.528 381.448 201.397 381.789 200.352C382.13 199.285 382.642 198.368 383.325 197.6C384.008 196.811 384.85 196.192 385.853 195.744C386.856 195.296 388.008 195.072 389.309 195.072C390.632 195.072 391.784 195.296 392.765 195.744C393.768 196.192 394.61 196.811 395.293 197.6C395.976 198.368 396.488 199.285 396.829 200.352C397.17 201.397 397.341 202.528 397.341 203.744C397.341 204.96 397.17 206.091 396.829 207.136C396.488 208.181 395.976 209.099 395.293 209.888C394.61 210.656 393.768 211.264 392.765 211.712C391.784 212.139 390.632 212.352 389.309 212.352C388.008 212.352 386.856 212.139 385.853 211.712C384.85 211.264 384.008 210.656 383.325 209.888C382.642 209.099 382.13 208.181 381.789 207.136C381.448 206.091 381.277 204.96 381.277 203.744ZM416.932 212H414.052L410.692 198.848H410.628L407.3 212H404.356L399.044 195.456H402.052L405.796 208.992H405.86L409.188 195.456H412.164L415.62 208.992H415.684L419.396 195.456H422.212L416.932 212Z" fill="#FFFEF9"/>
<path d="M438.76 209.384L436.888 208.184L442.952 202.072V202.968L436.888 196.856L438.76 195.656L445.32 202.52L438.76 209.384Z" fill="#FFFEF9"/>
</svg>
