<svg width="767" height="350" viewBox="0 0 767 350" fill="none" xmlns="http://www.w3.org/2000/svg">
<path d="M60.4641 95.62H63.6541V100.405H63.8191C64.7357 98.645 65.9274 97.27 67.3941 96.28C68.8974 95.29 70.8041 94.795 73.1141 94.795C74.9841 94.795 76.6707 95.2533 78.1741 96.17C79.7141 97.0867 80.7407 98.48 81.2541 100.35C82.0974 98.48 83.3441 97.0867 84.9941 96.17C86.6441 95.2533 88.4041 94.795 90.2741 94.795C96.5441 94.795 99.6791 98.1133 99.6791 104.75V124H96.2141V104.915C96.2141 102.568 95.7191 100.79 94.7291 99.58C93.7391 98.3333 91.9974 97.71 89.5041 97.71C88.0007 97.71 86.7541 98.0033 85.7641 98.59C84.7741 99.14 83.9857 99.8917 83.3991 100.845C82.8124 101.798 82.3907 102.898 82.1341 104.145C81.9141 105.355 81.8041 106.62 81.8041 107.94V124H78.3391V104.75C78.3391 103.797 78.2291 102.898 78.0091 102.055C77.8257 101.175 77.4957 100.423 77.0191 99.8C76.5791 99.14 75.9741 98.6267 75.2041 98.26C74.4341 97.8933 73.4991 97.71 72.3991 97.71C70.9324 97.71 69.6491 97.985 68.5491 98.535C67.4857 99.0483 66.6057 99.7817 65.9091 100.735C65.2491 101.652 64.7541 102.752 64.4241 104.035C64.0941 105.282 63.9291 106.657 63.9291 108.16V124H60.4641V95.62ZM116.619 97.71C114.969 97.71 113.521 98.0583 112.274 98.755C111.028 99.4517 109.983 100.368 109.139 101.505C108.333 102.642 107.709 103.943 107.269 105.41C106.866 106.84 106.664 108.307 106.664 109.81C106.664 111.313 106.866 112.798 107.269 114.265C107.709 115.695 108.333 116.978 109.139 118.115C109.983 119.252 111.028 120.168 112.274 120.865C113.521 121.562 114.969 121.91 116.619 121.91C118.269 121.91 119.718 121.562 120.964 120.865C122.211 120.168 123.238 119.252 124.044 118.115C124.888 116.978 125.511 115.695 125.914 114.265C126.354 112.798 126.574 111.313 126.574 109.81C126.574 108.307 126.354 106.84 125.914 105.41C125.511 103.943 124.888 102.642 124.044 101.505C123.238 100.368 122.211 99.4517 120.964 98.755C119.718 98.0583 118.269 97.71 116.619 97.71ZM116.619 94.795C118.783 94.795 120.689 95.1983 122.339 96.005C124.026 96.8117 125.438 97.8933 126.574 99.25C127.711 100.607 128.573 102.202 129.159 104.035C129.746 105.832 130.039 107.757 130.039 109.81C130.039 111.863 129.746 113.807 129.159 115.64C128.573 117.437 127.711 119.013 126.574 120.37C125.438 121.727 124.026 122.808 122.339 123.615C120.689 124.385 118.783 124.77 116.619 124.77C114.456 124.77 112.531 124.385 110.844 123.615C109.194 122.808 107.801 121.727 106.664 120.37C105.528 119.013 104.666 117.437 104.079 115.64C103.493 113.807 103.199 111.863 103.199 109.81C103.199 107.757 103.493 105.832 104.079 104.035C104.666 102.202 105.528 100.607 106.664 99.25C107.801 97.8933 109.194 96.8117 110.844 96.005C112.531 95.1983 114.456 94.795 116.619 94.795ZM158.511 124H155.321V118.61H155.211C154.844 119.527 154.294 120.37 153.561 121.14C152.864 121.91 152.058 122.57 151.141 123.12C150.224 123.633 149.234 124.037 148.171 124.33C147.144 124.623 146.118 124.77 145.091 124.77C142.928 124.77 141.039 124.385 139.426 123.615C137.849 122.808 136.529 121.727 135.466 120.37C134.403 118.977 133.614 117.382 133.101 115.585C132.588 113.752 132.331 111.827 132.331 109.81C132.331 107.793 132.588 105.887 133.101 104.09C133.614 102.257 134.403 100.662 135.466 99.305C136.529 97.9117 137.849 96.8117 139.426 96.005C141.039 95.1983 142.928 94.795 145.091 94.795C146.154 94.795 147.181 94.9233 148.171 95.18C149.198 95.4367 150.151 95.84 151.031 96.39C151.911 96.9033 152.681 97.545 153.341 98.315C154.038 99.085 154.569 99.9833 154.936 101.01H155.046V84.73H158.511V124ZM135.796 109.81C135.796 111.277 135.961 112.743 136.291 114.21C136.658 115.64 137.208 116.923 137.941 118.06C138.711 119.197 139.683 120.132 140.856 120.865C142.029 121.562 143.441 121.91 145.091 121.91C146.924 121.91 148.464 121.562 149.711 120.865C150.994 120.132 152.021 119.197 152.791 118.06C153.598 116.923 154.166 115.64 154.496 114.21C154.863 112.743 155.046 111.277 155.046 109.81C155.046 108.343 154.863 106.895 154.496 105.465C154.166 103.998 153.598 102.697 152.791 101.56C152.021 100.423 150.994 99.5067 149.711 98.81C148.464 98.0767 146.924 97.71 145.091 97.71C143.441 97.71 142.029 98.0767 140.856 98.81C139.683 99.5067 138.711 100.423 137.941 101.56C137.208 102.697 136.658 103.998 136.291 105.465C135.961 106.895 135.796 108.343 135.796 109.81ZM183.878 107.83C183.841 106.51 183.603 105.245 183.163 104.035C182.76 102.825 182.173 101.762 181.403 100.845C180.633 99.8917 179.698 99.14 178.598 98.59C177.498 98.0033 176.251 97.71 174.858 97.71C173.428 97.71 172.163 98.0033 171.063 98.59C169.963 99.14 169.028 99.8917 168.258 100.845C167.488 101.762 166.865 102.843 166.388 104.09C165.948 105.3 165.655 106.547 165.508 107.83H183.878ZM165.508 110.745C165.508 111.992 165.673 113.293 166.003 114.65C166.37 115.97 166.938 117.162 167.708 118.225C168.478 119.288 169.45 120.168 170.623 120.865C171.796 121.562 173.208 121.91 174.858 121.91C177.388 121.91 179.368 121.25 180.798 119.93C182.228 118.61 183.218 116.85 183.768 114.65H187.233C186.5 117.877 185.143 120.37 183.163 122.13C181.22 123.89 178.451 124.77 174.858 124.77C172.621 124.77 170.678 124.385 169.028 123.615C167.415 122.808 166.095 121.727 165.068 120.37C164.041 118.977 163.271 117.382 162.758 115.585C162.281 113.752 162.043 111.827 162.043 109.81C162.043 107.94 162.281 106.107 162.758 104.31C163.271 102.513 164.041 100.918 165.068 99.525C166.095 98.095 167.415 96.9583 169.028 96.115C170.678 95.235 172.621 94.795 174.858 94.795C177.131 94.795 179.075 95.2533 180.688 96.17C182.301 97.0867 183.603 98.2967 184.593 99.8C185.62 101.267 186.353 102.972 186.793 104.915C187.233 106.822 187.416 108.765 187.343 110.745H165.508ZM190.344 95.62H193.534V102.275H193.644C194.524 99.965 195.88 98.1867 197.714 96.94C199.584 95.6933 201.802 95.125 204.369 95.235V98.7C202.792 98.6267 201.362 98.8467 200.079 99.36C198.795 99.8367 197.677 100.533 196.724 101.45C195.807 102.367 195.092 103.467 194.579 104.75C194.065 105.997 193.809 107.372 193.809 108.875V124H190.344V95.62ZM206.954 95.62H210.419V100.515H210.529C211.189 98.7917 212.362 97.4167 214.049 96.39C215.736 95.3267 217.587 94.795 219.604 94.795C221.584 94.795 223.234 95.0517 224.554 95.565C225.911 96.0783 226.992 96.8117 227.799 97.765C228.606 98.6817 229.174 99.8183 229.504 101.175C229.834 102.532 229.999 104.053 229.999 105.74V124H226.534V106.29C226.534 105.08 226.424 103.962 226.204 102.935C225.984 101.872 225.599 100.955 225.049 100.185C224.499 99.415 223.747 98.81 222.794 98.37C221.877 97.93 220.722 97.71 219.329 97.71C217.936 97.71 216.689 97.9667 215.589 98.48C214.526 98.9567 213.609 99.635 212.839 100.515C212.106 101.358 211.519 102.385 211.079 103.595C210.676 104.768 210.456 106.052 210.419 107.445V124H206.954V95.62ZM268.963 107.83C268.926 106.51 268.688 105.245 268.248 104.035C267.844 102.825 267.258 101.762 266.488 100.845C265.718 99.8917 264.783 99.14 263.683 98.59C262.583 98.0033 261.336 97.71 259.943 97.71C258.513 97.71 257.248 98.0033 256.148 98.59C255.048 99.14 254.113 99.8917 253.343 100.845C252.573 101.762 251.949 102.843 251.473 104.09C251.033 105.3 250.739 106.547 250.593 107.83H268.963ZM250.593 110.745C250.593 111.992 250.758 113.293 251.088 114.65C251.454 115.97 252.023 117.162 252.793 118.225C253.563 119.288 254.534 120.168 255.708 120.865C256.881 121.562 258.293 121.91 259.943 121.91C262.473 121.91 264.453 121.25 265.883 119.93C267.313 118.61 268.303 116.85 268.853 114.65H272.318C271.584 117.877 270.228 120.37 268.248 122.13C266.304 123.89 263.536 124.77 259.943 124.77C257.706 124.77 255.763 124.385 254.113 123.615C252.499 122.808 251.179 121.727 250.153 120.37C249.126 118.977 248.356 117.382 247.843 115.585C247.366 113.752 247.128 111.827 247.128 109.81C247.128 107.94 247.366 106.107 247.843 104.31C248.356 102.513 249.126 100.918 250.153 99.525C251.179 98.095 252.499 96.9583 254.113 96.115C255.763 95.235 257.706 94.795 259.943 94.795C262.216 94.795 264.159 95.2533 265.773 96.17C267.386 97.0867 268.688 98.2967 269.678 99.8C270.704 101.267 271.438 102.972 271.878 104.915C272.318 106.822 272.501 108.765 272.428 110.745H250.593ZM300.398 124H297.208V118.61H297.098C296.731 119.527 296.181 120.37 295.448 121.14C294.751 121.91 293.945 122.57 293.028 123.12C292.111 123.633 291.121 124.037 290.058 124.33C289.031 124.623 288.005 124.77 286.978 124.77C284.815 124.77 282.926 124.385 281.313 123.615C279.736 122.808 278.416 121.727 277.353 120.37C276.29 118.977 275.501 117.382 274.988 115.585C274.475 113.752 274.218 111.827 274.218 109.81C274.218 107.793 274.475 105.887 274.988 104.09C275.501 102.257 276.29 100.662 277.353 99.305C278.416 97.9117 279.736 96.8117 281.313 96.005C282.926 95.1983 284.815 94.795 286.978 94.795C288.041 94.795 289.068 94.9233 290.058 95.18C291.085 95.4367 292.038 95.84 292.918 96.39C293.798 96.9033 294.568 97.545 295.228 98.315C295.925 99.085 296.456 99.9833 296.823 101.01H296.933V84.73H300.398V124ZM277.683 109.81C277.683 111.277 277.848 112.743 278.178 114.21C278.545 115.64 279.095 116.923 279.828 118.06C280.598 119.197 281.57 120.132 282.743 120.865C283.916 121.562 285.328 121.91 286.978 121.91C288.811 121.91 290.351 121.562 291.598 120.865C292.881 120.132 293.908 119.197 294.678 118.06C295.485 116.923 296.053 115.64 296.383 114.21C296.75 112.743 296.933 111.277 296.933 109.81C296.933 108.343 296.75 106.895 296.383 105.465C296.053 103.998 295.485 102.697 294.678 101.56C293.908 100.423 292.881 99.5067 291.598 98.81C290.351 98.0767 288.811 97.71 286.978 97.71C285.328 97.71 283.916 98.0767 282.743 98.81C281.57 99.5067 280.598 100.423 279.828 101.56C279.095 102.697 278.545 103.998 278.178 105.465C277.848 106.895 277.683 108.343 277.683 109.81ZM305.415 84.73H308.88V90.285H305.415V84.73ZM305.415 95.62H308.88V124H305.415V95.62ZM319.362 95.62H325.137V98.535H319.362V117.675C319.362 118.812 319.508 119.71 319.802 120.37C320.132 120.993 320.92 121.342 322.167 121.415C323.157 121.415 324.147 121.36 325.137 121.25V124.165C324.623 124.165 324.11 124.183 323.597 124.22C323.083 124.257 322.57 124.275 322.057 124.275C319.747 124.275 318.133 123.835 317.217 122.955C316.3 122.038 315.86 120.37 315.897 117.95V98.535H310.947V95.62H315.897V87.095H319.362V95.62Z" fill="#FFFEF9"/>
<path d="M122.712 309.874C122.541 308.231 121.944 307.047 120.92 306.322C119.917 305.575 118.627 305.202 117.048 305.202C116.408 305.202 115.779 305.266 115.16 305.394C114.541 305.522 113.987 305.735 113.496 306.034C113.027 306.332 112.643 306.738 112.344 307.25C112.067 307.74 111.928 308.359 111.928 309.106C111.928 309.81 112.131 310.386 112.536 310.834C112.963 311.26 113.517 311.612 114.2 311.89C114.904 312.167 115.693 312.402 116.568 312.594C117.443 312.764 118.328 312.956 119.224 313.17C120.141 313.383 121.037 313.639 121.912 313.938C122.787 314.215 123.565 314.599 124.248 315.09C124.952 315.58 125.507 316.199 125.912 316.946C126.339 317.692 126.552 318.631 126.552 319.762C126.552 320.978 126.275 322.023 125.72 322.898C125.187 323.751 124.493 324.455 123.64 325.01C122.787 325.543 121.827 325.927 120.76 326.162C119.715 326.418 118.669 326.546 117.624 326.546C116.344 326.546 115.128 326.386 113.976 326.066C112.845 325.746 111.843 325.266 110.968 324.626C110.115 323.964 109.432 323.132 108.92 322.13C108.429 321.106 108.184 319.9 108.184 318.514H111.064C111.064 319.474 111.245 320.306 111.608 321.01C111.992 321.692 112.483 322.258 113.08 322.706C113.699 323.154 114.413 323.484 115.224 323.698C116.035 323.911 116.867 324.018 117.72 324.018C118.403 324.018 119.085 323.954 119.768 323.826C120.472 323.698 121.101 323.484 121.656 323.186C122.211 322.866 122.659 322.439 123 321.906C123.341 321.372 123.512 320.69 123.512 319.858C123.512 319.068 123.299 318.428 122.872 317.938C122.467 317.447 121.912 317.052 121.208 316.754C120.525 316.434 119.747 316.178 118.872 315.986C117.997 315.794 117.101 315.602 116.184 315.41C115.288 315.196 114.403 314.962 113.528 314.706C112.653 314.428 111.864 314.076 111.16 313.65C110.477 313.202 109.923 312.636 109.496 311.954C109.091 311.25 108.888 310.375 108.888 309.33C108.888 308.178 109.123 307.186 109.592 306.354C110.061 305.5 110.68 304.807 111.448 304.274C112.237 303.719 113.123 303.314 114.104 303.058C115.107 302.78 116.131 302.642 117.176 302.642C118.349 302.642 119.437 302.78 120.44 303.058C121.443 303.335 122.317 303.772 123.064 304.37C123.832 304.967 124.429 305.724 124.856 306.642C125.304 307.538 125.549 308.615 125.592 309.874H122.712ZM144.454 325.97C143.985 326.247 143.334 326.386 142.502 326.386C141.798 326.386 141.233 326.194 140.806 325.81C140.401 325.404 140.198 324.754 140.198 323.858C139.451 324.754 138.577 325.404 137.574 325.81C136.593 326.194 135.526 326.386 134.374 326.386C133.627 326.386 132.913 326.3 132.23 326.13C131.569 325.959 130.993 325.692 130.502 325.33C130.011 324.967 129.617 324.498 129.318 323.922C129.041 323.324 128.902 322.61 128.902 321.778C128.902 320.839 129.062 320.071 129.382 319.474C129.702 318.876 130.118 318.396 130.63 318.034C131.163 317.65 131.761 317.362 132.422 317.17C133.105 316.978 133.798 316.818 134.502 316.69C135.249 316.54 135.953 316.434 136.614 316.37C137.297 316.284 137.894 316.178 138.406 316.05C138.918 315.9 139.323 315.698 139.622 315.442C139.921 315.164 140.07 314.77 140.07 314.258C140.07 313.66 139.953 313.18 139.718 312.818C139.505 312.455 139.217 312.178 138.854 311.986C138.513 311.794 138.118 311.666 137.67 311.602C137.243 311.538 136.817 311.506 136.39 311.506C135.238 311.506 134.278 311.73 133.51 312.178C132.742 312.604 132.326 313.426 132.262 314.642H129.542C129.585 313.618 129.798 312.754 130.182 312.05C130.566 311.346 131.078 310.78 131.718 310.354C132.358 309.906 133.083 309.586 133.894 309.394C134.726 309.202 135.611 309.106 136.55 309.106C137.297 309.106 138.033 309.159 138.758 309.266C139.505 309.372 140.177 309.596 140.774 309.938C141.371 310.258 141.851 310.716 142.214 311.314C142.577 311.911 142.758 312.69 142.758 313.65V322.162C142.758 322.802 142.79 323.271 142.854 323.57C142.939 323.868 143.195 324.018 143.622 324.018C143.857 324.018 144.134 323.964 144.454 323.858V325.97ZM140.038 317.49C139.697 317.746 139.249 317.938 138.694 318.066C138.139 318.172 137.553 318.268 136.934 318.354C136.337 318.418 135.729 318.503 135.11 318.61C134.491 318.695 133.937 318.844 133.446 319.058C132.955 319.271 132.55 319.58 132.23 319.986C131.931 320.37 131.782 320.903 131.782 321.586C131.782 322.034 131.867 322.418 132.038 322.738C132.23 323.036 132.465 323.282 132.742 323.474C133.041 323.666 133.382 323.804 133.766 323.89C134.15 323.975 134.555 324.018 134.982 324.018C135.878 324.018 136.646 323.9 137.286 323.666C137.926 323.41 138.449 323.1 138.854 322.738C139.259 322.354 139.558 321.948 139.75 321.522C139.942 321.074 140.038 320.658 140.038 320.274V317.49ZM154.442 326.034H151.53L145.386 309.49H148.426L153.066 323.282H153.13L157.642 309.49H160.49L154.442 326.034ZM174.474 316.178C174.431 315.538 174.282 314.93 174.026 314.354C173.791 313.778 173.46 313.287 173.034 312.882C172.628 312.455 172.138 312.124 171.562 311.89C171.007 311.634 170.388 311.506 169.706 311.506C169.002 311.506 168.362 311.634 167.786 311.89C167.231 312.124 166.751 312.455 166.346 312.882C165.94 313.308 165.62 313.81 165.386 314.386C165.151 314.94 165.012 315.538 164.97 316.178H174.474ZM177.097 320.786C176.735 322.642 175.935 324.039 174.698 324.978C173.46 325.916 171.903 326.386 170.026 326.386C168.703 326.386 167.551 326.172 166.57 325.746C165.61 325.319 164.799 324.722 164.138 323.954C163.476 323.186 162.975 322.268 162.634 321.202C162.314 320.135 162.132 318.972 162.09 317.714C162.09 316.455 162.282 315.303 162.666 314.258C163.05 313.212 163.583 312.306 164.266 311.538C164.97 310.77 165.791 310.172 166.73 309.746C167.69 309.319 168.735 309.106 169.866 309.106C171.338 309.106 172.554 309.415 173.514 310.034C174.495 310.631 175.274 311.399 175.85 312.338C176.447 313.276 176.852 314.3 177.066 315.41C177.3 316.519 177.396 317.575 177.354 318.578H164.97C164.948 319.303 165.034 319.996 165.226 320.658C165.418 321.298 165.727 321.874 166.154 322.386C166.58 322.876 167.124 323.271 167.786 323.57C168.447 323.868 169.226 324.018 170.122 324.018C171.274 324.018 172.212 323.751 172.938 323.218C173.684 322.684 174.175 321.874 174.41 320.786H177.097ZM189.495 303.186H192.727L204.759 321.714H204.823V303.186H207.703V326.034H204.375L192.439 307.698H192.375V326.034H189.495V303.186ZM214.157 317.778C214.157 318.78 214.285 319.676 214.541 320.466C214.818 321.234 215.192 321.884 215.661 322.418C216.13 322.93 216.674 323.324 217.293 323.602C217.933 323.879 218.605 324.018 219.309 324.018C220.013 324.018 220.674 323.879 221.293 323.602C221.933 323.324 222.488 322.93 222.957 322.418C223.426 321.884 223.789 321.234 224.045 320.466C224.322 319.676 224.461 318.78 224.461 317.778C224.461 316.775 224.322 315.89 224.045 315.122C223.789 314.332 223.426 313.671 222.957 313.138C222.488 312.604 221.933 312.199 221.293 311.922C220.674 311.644 220.013 311.506 219.309 311.506C218.605 311.506 217.933 311.644 217.293 311.922C216.674 312.199 216.13 312.604 215.661 313.138C215.192 313.671 214.818 314.332 214.541 315.122C214.285 315.89 214.157 316.775 214.157 317.778ZM211.277 317.778C211.277 316.562 211.448 315.431 211.789 314.386C212.13 313.319 212.642 312.402 213.325 311.634C214.008 310.844 214.85 310.226 215.853 309.778C216.856 309.33 218.008 309.106 219.309 309.106C220.632 309.106 221.784 309.33 222.765 309.778C223.768 310.226 224.61 310.844 225.293 311.634C225.976 312.402 226.488 313.319 226.829 314.386C227.17 315.431 227.341 316.562 227.341 317.778C227.341 318.994 227.17 320.124 226.829 321.17C226.488 322.215 225.976 323.132 225.293 323.922C224.61 324.69 223.768 325.298 222.765 325.746C221.784 326.172 220.632 326.386 219.309 326.386C218.008 326.386 216.856 326.172 215.853 325.746C214.85 325.298 214.008 324.69 213.325 323.922C212.642 323.132 212.13 322.215 211.789 321.17C211.448 320.124 211.277 318.994 211.277 317.778ZM246.932 326.034H244.052L240.692 312.882H240.628L237.3 326.034H234.356L229.044 309.49H232.052L235.796 323.026H235.86L239.188 309.49H242.164L245.62 323.026H245.684L249.396 309.49H252.212L246.932 326.034Z" fill="#FFFEF9"/>
<path d="M268.76 323.418L266.888 322.218L272.952 316.106V317.002L266.888 310.89L268.76 309.69L275.32 316.554L268.76 323.418Z" fill="#FFFEF9"/>
<path d="M44.6168 43.565H51.9868V47.415H52.0968C53.1234 45.9483 54.3518 44.8117 55.7818 44.005C57.2484 43.1983 58.9168 42.795 60.7868 42.795C62.5834 42.795 64.2151 43.1433 65.6818 43.84C67.1851 44.5367 68.3218 45.765 69.0918 47.525C69.9351 46.2783 71.0718 45.1783 72.5018 44.225C73.9684 43.2717 75.6918 42.795 77.6718 42.795C79.1751 42.795 80.5684 42.9783 81.8518 43.345C83.1351 43.7117 84.2351 44.2983 85.1518 45.105C86.0684 45.9117 86.7834 46.975 87.2968 48.295C87.8101 49.5783 88.0668 51.1367 88.0668 52.97V72H80.2568V55.885C80.2568 54.9317 80.2201 54.0333 80.1468 53.19C80.0734 52.3467 79.8718 51.6133 79.5418 50.99C79.2118 50.3667 78.7168 49.8717 78.0568 49.505C77.4334 49.1383 76.5718 48.955 75.4718 48.955C74.3718 48.955 73.4734 49.175 72.7768 49.615C72.1168 50.0183 71.5851 50.5683 71.1818 51.265C70.8151 51.925 70.5584 52.695 70.4118 53.575C70.3018 54.4183 70.2468 55.28 70.2468 56.16V72H62.4368V56.05C62.4368 55.2067 62.4184 54.3817 62.3818 53.575C62.3451 52.7317 62.1801 51.9617 61.8868 51.265C61.6301 50.5683 61.1718 50.0183 60.5118 49.615C59.8884 49.175 58.9534 48.955 57.7068 48.955C57.3401 48.955 56.8451 49.0467 56.2218 49.23C55.6351 49.3767 55.0484 49.6883 54.4618 50.165C53.9118 50.605 53.4351 51.265 53.0318 52.145C52.6284 52.9883 52.4268 54.1067 52.4268 55.5V72H44.6168V43.565ZM100.621 39.165H92.8105V32.73H100.621V39.165ZM92.8105 43.565H100.621V72H92.8105V43.565ZM125.305 57.7C125.305 56.5267 125.195 55.4083 124.975 54.345C124.755 53.245 124.37 52.2917 123.82 51.485C123.307 50.6417 122.629 49.9633 121.785 49.45C120.942 48.9367 119.879 48.68 118.595 48.68C117.312 48.68 116.23 48.9367 115.35 49.45C114.47 49.9633 113.755 50.6417 113.205 51.485C112.692 52.3283 112.307 53.3 112.05 54.4C111.83 55.4633 111.72 56.5817 111.72 57.755C111.72 58.855 111.849 59.955 112.105 61.055C112.362 62.155 112.765 63.145 113.315 64.025C113.902 64.8683 114.617 65.565 115.46 66.115C116.34 66.6283 117.385 66.885 118.595 66.885C119.879 66.885 120.942 66.6283 121.785 66.115C122.665 65.6017 123.362 64.9233 123.875 64.08C124.389 63.2 124.755 62.21 124.975 61.11C125.195 60.01 125.305 58.8733 125.305 57.7ZM125.415 68.37H125.305C124.389 69.91 123.179 71.0283 121.675 71.725C120.209 72.385 118.54 72.715 116.67 72.715C114.544 72.715 112.674 72.3117 111.06 71.505C109.447 70.6617 108.109 69.5433 107.045 68.15C106.019 66.72 105.23 65.0883 104.68 63.255C104.167 61.4217 103.91 59.515 103.91 57.535C103.91 55.6283 104.167 53.795 104.68 52.035C105.23 50.2383 106.019 48.6617 107.045 47.305C108.109 45.9483 109.429 44.8667 111.005 44.06C112.582 43.2167 114.415 42.795 116.505 42.795C118.192 42.795 119.787 43.1617 121.29 43.895C122.83 44.5917 124.04 45.6367 124.92 47.03H125.03V32.73H132.84V72H125.415V68.37ZM137.038 53.63H153.593V60.34H137.038V53.63ZM177.201 53.575C176.687 50.3117 174.762 48.68 171.426 48.68C170.179 48.68 169.134 48.9733 168.291 49.56C167.447 50.11 166.751 50.8433 166.201 51.76C165.687 52.64 165.321 53.63 165.101 54.73C164.881 55.7933 164.771 56.8567 164.771 57.92C164.771 58.9467 164.881 59.9917 165.101 61.055C165.321 62.1183 165.669 63.09 166.146 63.97C166.659 64.8133 167.337 65.51 168.181 66.06C169.024 66.61 170.051 66.885 171.261 66.885C173.131 66.885 174.561 66.3717 175.551 65.345C176.577 64.2817 177.219 62.87 177.476 61.11H185.011C184.497 64.8867 183.031 67.765 180.611 69.745C178.191 71.725 175.092 72.715 171.316 72.715C169.189 72.715 167.227 72.3667 165.431 71.67C163.671 70.9367 162.167 69.9283 160.921 68.645C159.674 67.3617 158.702 65.84 158.006 64.08C157.309 62.2833 156.961 60.3217 156.961 58.195C156.961 55.995 157.272 53.96 157.896 52.09C158.556 50.1833 159.509 48.5517 160.756 47.195C162.002 45.8017 163.524 44.72 165.321 43.95C167.117 43.18 169.171 42.795 171.481 42.795C173.167 42.795 174.781 43.015 176.321 43.455C177.897 43.895 179.291 44.5733 180.501 45.49C181.747 46.37 182.756 47.4883 183.526 48.845C184.296 50.165 184.736 51.7417 184.846 53.575H177.201ZM206.913 54.73C206.546 52.75 205.886 51.2467 204.933 50.22C204.016 49.1933 202.604 48.68 200.698 48.68C199.451 48.68 198.406 48.9 197.563 49.34C196.756 49.7433 196.096 50.2567 195.583 50.88C195.106 51.5033 194.758 52.1633 194.538 52.86C194.354 53.5567 194.244 54.18 194.208 54.73H206.913ZM194.208 59.68C194.318 62.21 194.959 64.0433 196.133 65.18C197.306 66.3167 198.993 66.885 201.193 66.885C202.769 66.885 204.126 66.5 205.263 65.73C206.399 64.9233 207.096 64.08 207.353 63.2H214.228C213.128 66.61 211.441 69.0483 209.168 70.515C206.894 71.9817 204.144 72.715 200.918 72.715C198.681 72.715 196.664 72.3667 194.868 71.67C193.071 70.9367 191.549 69.91 190.303 68.59C189.056 67.27 188.084 65.6933 187.388 63.86C186.728 62.0267 186.398 60.01 186.398 57.81C186.398 55.6833 186.746 53.7033 187.443 51.87C188.139 50.0367 189.129 48.46 190.413 47.14C191.696 45.7833 193.218 44.72 194.978 43.95C196.774 43.18 198.754 42.795 200.918 42.795C203.338 42.795 205.446 43.2717 207.243 44.225C209.039 45.1417 210.506 46.3883 211.643 47.965C212.816 49.5417 213.659 51.3383 214.173 53.355C214.686 55.3717 214.869 57.48 214.723 59.68H194.208ZM217.705 43.565H225.13V47.525H225.295C226.285 45.875 227.568 44.6833 229.145 43.95C230.721 43.18 232.335 42.795 233.985 42.795C236.075 42.795 237.78 43.0883 239.1 43.675C240.456 44.225 241.52 45.0133 242.29 46.04C243.06 47.03 243.591 48.2583 243.885 49.725C244.215 51.155 244.38 52.75 244.38 54.51V72H236.57V55.94C236.57 53.5933 236.203 51.8517 235.47 50.715C234.736 49.5417 233.435 48.955 231.565 48.955C229.438 48.955 227.898 49.5967 226.945 50.88C225.991 52.1267 225.515 54.1983 225.515 57.095V72H217.705V43.565ZM258.557 43.565H264.277V48.79H258.557V62.87C258.557 64.19 258.777 65.07 259.217 65.51C259.657 65.95 260.537 66.17 261.857 66.17C262.297 66.17 262.719 66.1517 263.122 66.115C263.526 66.0783 263.911 66.0233 264.277 65.95V72C263.617 72.11 262.884 72.1833 262.077 72.22C261.271 72.2567 260.482 72.275 259.712 72.275C258.502 72.275 257.347 72.1833 256.247 72C255.184 71.8533 254.231 71.5417 253.387 71.065C252.581 70.5883 251.939 69.91 251.462 69.03C250.986 68.15 250.747 66.995 250.747 65.565V48.79H246.017V43.565H250.747V35.04H258.557V43.565ZM293.018 72H285.593V68.04H285.428C284.438 69.69 283.155 70.8817 281.578 71.615C280.002 72.3483 278.388 72.715 276.738 72.715C274.648 72.715 272.925 72.44 271.568 71.89C270.248 71.34 269.203 70.57 268.433 69.58C267.663 68.5533 267.113 67.325 266.783 65.895C266.49 64.4283 266.343 62.815 266.343 61.055V43.565H274.153V59.625C274.153 61.9717 274.52 63.7317 275.253 64.905C275.987 66.0417 277.288 66.61 279.158 66.61C281.285 66.61 282.825 65.9867 283.778 64.74C284.732 63.4567 285.208 61.3667 285.208 58.47V43.565H293.018V72ZM297.296 43.565H304.721V48.845H304.831C305.197 47.965 305.692 47.1583 306.316 46.425C306.939 45.655 307.654 45.0133 308.461 44.5C309.267 43.95 310.129 43.5283 311.046 43.235C311.962 42.9417 312.916 42.795 313.906 42.795C314.419 42.795 314.987 42.8867 315.611 43.07V50.33C315.244 50.2567 314.804 50.2017 314.291 50.165C313.777 50.0917 313.282 50.055 312.806 50.055C311.376 50.055 310.166 50.2933 309.176 50.77C308.186 51.2467 307.379 51.9067 306.756 52.75C306.169 53.5567 305.747 54.51 305.491 55.61C305.234 56.71 305.106 57.9017 305.106 59.185V72H297.296V43.565ZM331.048 75.52C330.204 77.83 329.031 79.48 327.528 80.47C326.024 81.46 323.934 81.955 321.258 81.955C320.451 81.955 319.644 81.9183 318.838 81.845C318.068 81.8083 317.279 81.7533 316.473 81.68V75.245C317.206 75.3183 317.958 75.3917 318.728 75.465C319.498 75.5383 320.268 75.5567 321.038 75.52C322.064 75.41 322.816 75.0067 323.293 74.31C323.806 73.6133 324.063 72.8433 324.063 72C324.063 71.3767 323.953 70.79 323.733 70.24L313.778 43.565H322.083L328.518 63.035H328.628L334.843 43.565H342.928L331.048 75.52Z" fill="#FFFEF9"/>
<path d="M176.058 166.015H172.912V164.337H172.842C172.422 165.036 171.879 165.541 171.21 165.852C170.542 166.163 169.859 166.318 169.159 166.318C168.274 166.318 167.543 166.201 166.969 165.968C166.409 165.735 165.966 165.409 165.64 164.99C165.314 164.554 165.081 164.034 164.941 163.428C164.816 162.806 164.754 162.123 164.754 161.377V153.965H168.064V160.771C168.064 161.765 168.219 162.511 168.53 163.008C168.841 163.49 169.392 163.731 170.185 163.731C171.086 163.731 171.739 163.467 172.143 162.938C172.547 162.395 172.749 161.509 172.749 160.281V153.965H176.058V166.015ZM184.653 163.847C185.197 163.847 185.648 163.739 186.005 163.521C186.378 163.304 186.673 163.024 186.891 162.682C187.124 162.325 187.287 161.913 187.38 161.447C187.473 160.981 187.52 160.507 187.52 160.025C187.52 159.543 187.466 159.07 187.357 158.603C187.264 158.137 187.1 157.726 186.867 157.368C186.634 156.995 186.331 156.7 185.958 156.482C185.601 156.249 185.158 156.133 184.63 156.133C184.086 156.133 183.628 156.249 183.255 156.482C182.897 156.7 182.602 156.987 182.369 157.345C182.152 157.702 181.996 158.114 181.903 158.58C181.81 159.046 181.763 159.528 181.763 160.025C181.763 160.507 181.81 160.981 181.903 161.447C182.012 161.913 182.175 162.325 182.392 162.682C182.626 163.024 182.929 163.304 183.301 163.521C183.674 163.739 184.125 163.847 184.653 163.847ZM178.57 153.965H181.717V155.504H181.763C182.167 154.851 182.68 154.377 183.301 154.082C183.923 153.787 184.607 153.639 185.352 153.639C186.3 153.639 187.116 153.818 187.8 154.175C188.483 154.532 189.05 155.006 189.501 155.597C189.952 156.187 190.286 156.879 190.503 157.671C190.721 158.448 190.83 159.264 190.83 160.118C190.83 160.926 190.721 161.703 190.503 162.449C190.286 163.195 189.952 163.855 189.501 164.43C189.066 165.005 188.514 165.463 187.846 165.805C187.194 166.147 186.425 166.318 185.539 166.318C184.793 166.318 184.102 166.17 183.465 165.875C182.843 165.564 182.33 165.114 181.926 164.523H181.88V170.234H178.57V153.965ZM203.5 153.965H205.924V156.179H203.5V162.146C203.5 162.705 203.594 163.078 203.78 163.265C203.967 163.451 204.339 163.544 204.899 163.544C205.085 163.544 205.264 163.537 205.435 163.521C205.606 163.506 205.769 163.482 205.924 163.451V166.015C205.645 166.062 205.334 166.093 204.992 166.108C204.65 166.124 204.316 166.132 203.99 166.132C203.477 166.132 202.988 166.093 202.521 166.015C202.071 165.953 201.667 165.821 201.31 165.619C200.968 165.417 200.696 165.129 200.494 164.756C200.292 164.384 200.191 163.894 200.191 163.288V156.179H198.186V153.965H200.191V150.353H203.5V153.965ZM210.436 160.002C210.436 160.483 210.482 160.957 210.575 161.424C210.669 161.874 210.824 162.286 211.042 162.659C211.275 163.016 211.578 163.304 211.951 163.521C212.324 163.739 212.79 163.847 213.349 163.847C213.908 163.847 214.375 163.739 214.747 163.521C215.136 163.304 215.439 163.016 215.656 162.659C215.889 162.286 216.053 161.874 216.146 161.424C216.239 160.957 216.286 160.483 216.286 160.002C216.286 159.52 216.239 159.046 216.146 158.58C216.053 158.114 215.889 157.702 215.656 157.345C215.439 156.987 215.136 156.7 214.747 156.482C214.375 156.249 213.908 156.133 213.349 156.133C212.79 156.133 212.324 156.249 211.951 156.482C211.578 156.7 211.275 156.987 211.042 157.345C210.824 157.702 210.669 158.114 210.575 158.58C210.482 159.046 210.436 159.52 210.436 160.002ZM207.126 160.002C207.126 159.038 207.274 158.168 207.569 157.391C207.864 156.599 208.284 155.931 208.827 155.387C209.371 154.828 210.024 154.4 210.785 154.105C211.547 153.794 212.401 153.639 213.349 153.639C214.297 153.639 215.151 153.794 215.913 154.105C216.69 154.4 217.35 154.828 217.894 155.387C218.438 155.931 218.857 156.599 219.152 157.391C219.448 158.168 219.595 159.038 219.595 160.002C219.595 160.965 219.448 161.835 219.152 162.612C218.857 163.389 218.438 164.057 217.894 164.617C217.35 165.16 216.69 165.58 215.913 165.875C215.151 166.17 214.297 166.318 213.349 166.318C212.401 166.318 211.547 166.17 210.785 165.875C210.024 165.58 209.371 165.16 208.827 164.617C208.284 164.057 207.864 163.389 207.569 162.612C207.274 161.835 207.126 160.965 207.126 160.002Z" fill="#FFFEF9"/>
<path d="M265.687 233.6V236.483H270.968V241.109H265.687V264.622H259.485V241.109H250.069V264.622H243.864V241.109H239.238V236.483H243.864V234.143C243.864 232.368 244.083 230.925 244.519 229.816C244.872 228.829 245.472 227.949 246.262 227.26C246.978 226.665 247.828 226.253 248.739 226.061C249.696 225.859 250.671 225.759 251.648 225.763C253.642 225.763 255.094 225.89 256.002 226.143V230.985C255.583 230.873 255.156 230.792 254.725 230.743C254.192 230.684 253.656 230.656 253.119 230.661C252.359 230.64 251.61 230.849 250.97 231.26C250.372 231.66 250.072 232.44 250.072 233.6V236.483H259.488V234.143C259.488 232.368 259.707 230.925 260.143 229.816C260.496 228.83 261.095 227.95 261.883 227.26C262.6 226.666 263.449 226.255 264.36 226.061C265.317 225.859 266.294 225.759 267.272 225.763C269.269 225.763 270.72 225.89 271.626 226.143V230.985C271.207 230.873 270.78 230.792 270.349 230.743C269.816 230.684 269.28 230.656 268.743 230.661C267.982 230.64 267.232 230.849 266.591 231.26C265.988 231.66 265.687 232.443 265.687 233.6Z" fill="#FFFEF9"/>
<path d="M234.859 239.913C233.608 238.581 232.087 237.532 230.397 236.837C228.487 236.065 226.441 235.686 224.382 235.723C223.276 235.717 222.173 235.817 221.086 236.021L255.692 177.125H253.307L238.266 202.699C238.05 201.792 237.817 200.907 237.568 200.055C235.762 193.94 233.301 189.039 230.184 185.352C227.067 181.665 223.463 179.028 219.373 177.44C215.185 175.84 210.735 175.036 206.252 175.068C201.813 175.043 197.408 175.848 193.265 177.44C189.176 179.021 185.593 181.658 182.516 185.352C179.438 189.045 177.003 193.946 175.21 200.055C173.404 206.171 172.502 213.706 172.504 222.661C172.504 231.891 173.406 239.605 175.21 245.804C177.014 252.002 179.453 256.947 182.526 260.638C185.603 264.329 189.186 266.966 193.275 268.55C195.008 269.22 196.793 269.748 198.612 270.129L195.719 275.034H198.163L210.488 254.066C210.641 254.898 210.86 255.716 211.143 256.513C211.732 258.25 212.677 259.845 213.918 261.195C215.169 262.528 216.692 263.577 218.383 264.271C222.255 265.756 226.539 265.756 230.41 264.271C232.1 263.576 233.621 262.527 234.872 261.195C236.113 259.845 237.058 258.25 237.647 256.513C238.918 252.642 238.918 248.466 237.647 244.595C237.054 242.857 236.104 241.262 234.859 239.913ZM206.248 255.639C202.468 255.639 199.567 254.408 197.547 251.946C195.447 249.336 193.94 246.299 193.131 243.048C192.202 239.513 191.652 235.889 191.493 232.237C191.316 228.502 191.228 225.316 191.23 222.677C191.23 221.096 191.252 219.184 191.296 216.941C191.34 214.697 191.493 212.39 191.758 210.018C192.019 207.638 192.457 205.28 193.068 202.964C193.628 200.766 194.494 198.658 195.64 196.7C196.69 194.906 198.133 193.372 199.86 192.215C201.572 191.075 203.704 190.504 206.255 190.502C208.806 190.5 210.961 191.071 212.719 192.215C214.485 193.368 215.971 194.9 217.069 196.7C218.249 198.641 219.117 200.755 219.641 202.964C220.208 205.29 220.646 207.644 220.952 210.018C221.253 212.314 221.429 214.625 221.479 216.941C221.521 219.181 221.543 221.094 221.545 222.677C221.545 225.147 221.467 228.096 221.312 231.523L207.146 255.606C206.854 255.625 206.553 255.635 206.248 255.635V255.639ZM231.92 254.148C231.631 255.286 231.143 256.364 230.479 257.332C229.828 258.276 228.972 259.06 227.976 259.626C226.865 260.198 225.633 260.497 224.384 260.497C223.134 260.497 221.902 260.198 220.791 259.626C219.793 259.062 218.937 258.277 218.288 257.332C217.622 256.365 217.133 255.287 216.847 254.148C216.227 251.785 216.227 249.303 216.847 246.94C217.126 245.799 217.615 244.719 218.288 243.756C218.945 242.828 219.8 242.057 220.791 241.499C221.902 240.926 223.134 240.627 224.384 240.627C225.633 240.627 226.865 240.926 227.976 241.499C228.966 242.058 229.82 242.829 230.479 243.756C231.15 244.72 231.638 245.8 231.92 246.94C232.536 249.304 232.536 251.785 231.92 254.148Z" fill="#FFFEF9"/>
<path d="M245.813 180.827C245.681 180.179 245.419 179.564 245.044 179.019C244.676 178.503 244.189 178.084 243.625 177.797C242.941 177.476 242.191 177.322 241.436 177.348C240.702 177.331 239.973 177.48 239.304 177.784C238.722 178.061 238.213 178.469 237.816 178.976C237.413 179.503 237.118 180.104 236.948 180.745C236.757 181.449 236.662 182.175 236.666 182.905C236.661 183.627 236.741 184.347 236.905 185.05C237.042 185.671 237.311 186.255 237.692 186.764C238.069 187.25 238.561 187.635 239.123 187.884C239.809 188.176 240.551 188.316 241.296 188.294C242.026 188.311 242.752 188.177 243.428 187.901C244 187.658 244.505 187.283 244.903 186.806C245.299 186.314 245.589 185.745 245.758 185.136C245.951 184.446 246.046 183.732 246.04 183.016C246.043 182.28 245.967 181.547 245.813 180.827ZM243.134 183.986C243.109 184.341 243.034 184.69 242.911 185.024C242.796 185.343 242.602 185.627 242.347 185.85C242.048 186.069 241.687 186.187 241.317 186.187C240.946 186.187 240.585 186.069 240.287 185.85C240.042 185.624 239.859 185.34 239.752 185.024C239.639 184.684 239.573 184.33 239.556 183.973C239.54 183.596 239.53 183.262 239.53 182.96C239.53 182.659 239.53 182.279 239.572 181.866C239.595 181.473 239.675 181.086 239.808 180.716C239.93 180.377 240.127 180.07 240.385 179.818C240.673 179.563 241.052 179.432 241.436 179.455C241.619 179.443 241.802 179.473 241.972 179.541C242.142 179.609 242.295 179.714 242.419 179.848C242.66 180.124 242.837 180.449 242.937 180.801C243.05 181.18 243.121 181.57 243.147 181.964C243.176 182.367 243.189 182.708 243.189 182.99C243.189 183.271 243.163 183.629 243.134 183.986ZM260.291 190.21C260.161 189.578 259.899 188.981 259.521 188.458C259.15 187.956 258.663 187.551 258.102 187.278C257.417 186.965 256.667 186.816 255.914 186.842C255.18 186.824 254.452 186.969 253.781 187.265C253.204 187.528 252.695 187.921 252.297 188.415C251.893 188.92 251.597 189.502 251.426 190.125C251.233 190.82 251.138 191.537 251.144 192.258C251.14 192.986 251.221 193.711 251.383 194.42C251.525 195.051 251.792 195.647 252.169 196.173C252.541 196.675 253.033 197.075 253.601 197.336C254.284 197.637 255.027 197.781 255.773 197.759C256.505 197.777 257.232 197.637 257.906 197.349C258.482 197.097 258.988 196.708 259.38 196.216C259.775 195.706 260.065 195.124 260.235 194.502C260.428 193.808 260.522 193.09 260.517 192.369C260.522 191.64 260.446 190.913 260.291 190.201V190.21ZM257.611 193.339C257.586 193.712 257.511 194.08 257.388 194.433C257.274 194.768 257.082 195.071 256.828 195.318C256.548 195.57 256.179 195.701 255.802 195.682C255.614 195.694 255.424 195.668 255.246 195.606C255.068 195.543 254.904 195.445 254.764 195.318C254.519 195.069 254.336 194.766 254.23 194.433C254.117 194.074 254.05 193.702 254.033 193.326C254.017 192.933 254.007 192.586 254.007 192.287C254.007 191.989 254.007 191.613 254.05 191.219C254.073 190.845 254.154 190.476 254.289 190.125C254.409 189.802 254.605 189.513 254.862 189.283C255.16 189.048 255.535 188.931 255.914 188.956C256.095 188.944 256.277 188.972 256.447 189.038C256.616 189.104 256.77 189.205 256.897 189.336C257.132 189.594 257.309 189.9 257.414 190.233C257.528 190.588 257.599 190.956 257.624 191.328C257.653 191.711 257.667 192.045 257.667 192.31C257.667 192.576 257.64 192.946 257.611 193.329V193.339Z" fill="#FFFEF9"/>
<path d="M274.055 230.478L274.582 228.919L277.22 229.951V227.074H278.858V229.951L281.479 228.919L282.052 230.478L279.319 231.389L280.997 233.64L279.729 234.573L278.025 232.228L276.387 234.573L275.044 233.64L276.722 231.389L274.055 230.478Z" fill="#FFFEF9"/>
<path d="M101.996 247.619V230.501L142.031 176.772H158.739V232.215H170.989V247.613H158.739V268.947H140.963V247.613L101.996 247.619ZM140.579 200.213L116.745 232.215H140.989V200.213H140.579Z" fill="#FFFEF9"/>
</svg>
