<svg width="399" height="817" viewBox="0 0 399 817" fill="none" xmlns="http://www.w3.org/2000/svg">
<path d="M129.712 757.84C129.541 756.197 128.944 755.013 127.92 754.288C126.917 753.541 125.627 753.168 124.048 753.168C123.408 753.168 122.779 753.232 122.16 753.36C121.541 753.488 120.987 753.701 120.496 754C120.027 754.299 119.643 754.704 119.344 755.216C119.067 755.707 118.928 756.325 118.928 757.072C118.928 757.776 119.131 758.352 119.536 758.8C119.963 759.227 120.517 759.579 121.2 759.856C121.904 760.133 122.693 760.368 123.568 760.56C124.443 760.731 125.328 760.923 126.224 761.136C127.141 761.349 128.037 761.605 128.912 761.904C129.787 762.181 130.565 762.565 131.248 763.056C131.952 763.547 132.507 764.165 132.912 764.912C133.339 765.659 133.552 766.597 133.552 767.728C133.552 768.944 133.275 769.989 132.72 770.864C132.187 771.717 131.493 772.421 130.64 772.976C129.787 773.509 128.827 773.893 127.76 774.128C126.715 774.384 125.669 774.512 124.624 774.512C123.344 774.512 122.128 774.352 120.976 774.032C119.845 773.712 118.843 773.232 117.968 772.592C117.115 771.931 116.432 771.099 115.92 770.096C115.429 769.072 115.184 767.867 115.184 766.48H118.064C118.064 767.44 118.245 768.272 118.608 768.976C118.992 769.659 119.483 770.224 120.08 770.672C120.699 771.12 121.413 771.451 122.224 771.664C123.035 771.877 123.867 771.984 124.72 771.984C125.403 771.984 126.085 771.92 126.768 771.792C127.472 771.664 128.101 771.451 128.656 771.152C129.211 770.832 129.659 770.405 130 769.872C130.341 769.339 130.512 768.656 130.512 767.824C130.512 767.035 130.299 766.395 129.872 765.904C129.467 765.413 128.912 765.019 128.208 764.72C127.525 764.4 126.747 764.144 125.872 763.952C124.997 763.76 124.101 763.568 123.184 763.376C122.288 763.163 121.403 762.928 120.528 762.672C119.653 762.395 118.864 762.043 118.16 761.616C117.477 761.168 116.923 760.603 116.496 759.92C116.091 759.216 115.888 758.341 115.888 757.296C115.888 756.144 116.123 755.152 116.592 754.32C117.061 753.467 117.68 752.773 118.448 752.24C119.237 751.685 120.123 751.28 121.104 751.024C122.107 750.747 123.131 750.608 124.176 750.608C125.349 750.608 126.437 750.747 127.44 751.024C128.443 751.301 129.317 751.739 130.064 752.336C130.832 752.933 131.429 753.691 131.856 754.608C132.304 755.504 132.549 756.581 132.592 757.84H129.712ZM151.454 773.936C150.985 774.213 150.334 774.352 149.502 774.352C148.798 774.352 148.233 774.16 147.806 773.776C147.401 773.371 147.198 772.72 147.198 771.824C146.451 772.72 145.577 773.371 144.574 773.776C143.593 774.16 142.526 774.352 141.374 774.352C140.627 774.352 139.913 774.267 139.23 774.096C138.569 773.925 137.993 773.659 137.502 773.296C137.011 772.933 136.617 772.464 136.318 771.888C136.041 771.291 135.902 770.576 135.902 769.744C135.902 768.805 136.062 768.037 136.382 767.44C136.702 766.843 137.118 766.363 137.63 766C138.163 765.616 138.761 765.328 139.422 765.136C140.105 764.944 140.798 764.784 141.502 764.656C142.249 764.507 142.953 764.4 143.614 764.336C144.297 764.251 144.894 764.144 145.406 764.016C145.918 763.867 146.323 763.664 146.622 763.408C146.921 763.131 147.07 762.736 147.07 762.224C147.07 761.627 146.953 761.147 146.718 760.784C146.505 760.421 146.217 760.144 145.854 759.952C145.513 759.76 145.118 759.632 144.67 759.568C144.243 759.504 143.817 759.472 143.39 759.472C142.238 759.472 141.278 759.696 140.51 760.144C139.742 760.571 139.326 761.392 139.262 762.608H136.542C136.585 761.584 136.798 760.72 137.182 760.016C137.566 759.312 138.078 758.747 138.718 758.32C139.358 757.872 140.083 757.552 140.894 757.36C141.726 757.168 142.611 757.072 143.55 757.072C144.297 757.072 145.033 757.125 145.758 757.232C146.505 757.339 147.177 757.563 147.774 757.904C148.371 758.224 148.851 758.683 149.214 759.28C149.577 759.877 149.758 760.656 149.758 761.616V770.128C149.758 770.768 149.79 771.237 149.854 771.536C149.939 771.835 150.195 771.984 150.622 771.984C150.857 771.984 151.134 771.931 151.454 771.824V773.936ZM147.038 765.456C146.697 765.712 146.249 765.904 145.694 766.032C145.139 766.139 144.553 766.235 143.934 766.32C143.337 766.384 142.729 766.469 142.11 766.576C141.491 766.661 140.937 766.811 140.446 767.024C139.955 767.237 139.55 767.547 139.23 767.952C138.931 768.336 138.782 768.869 138.782 769.552C138.782 770 138.867 770.384 139.038 770.704C139.23 771.003 139.465 771.248 139.742 771.44C140.041 771.632 140.382 771.771 140.766 771.856C141.15 771.941 141.555 771.984 141.982 771.984C142.878 771.984 143.646 771.867 144.286 771.632C144.926 771.376 145.449 771.067 145.854 770.704C146.259 770.32 146.558 769.915 146.75 769.488C146.942 769.04 147.038 768.624 147.038 768.24V765.456ZM161.442 774H158.53L152.386 757.456H155.426L160.066 771.248H160.13L164.642 757.456H167.49L161.442 774ZM181.474 764.144C181.431 763.504 181.282 762.896 181.026 762.32C180.791 761.744 180.46 761.253 180.034 760.848C179.628 760.421 179.138 760.091 178.562 759.856C178.007 759.6 177.388 759.472 176.706 759.472C176.002 759.472 175.362 759.6 174.786 759.856C174.231 760.091 173.751 760.421 173.346 760.848C172.94 761.275 172.62 761.776 172.386 762.352C172.151 762.907 172.012 763.504 171.97 764.144H181.474ZM184.097 768.752C183.735 770.608 182.935 772.005 181.698 772.944C180.46 773.883 178.903 774.352 177.026 774.352C175.703 774.352 174.551 774.139 173.57 773.712C172.61 773.285 171.799 772.688 171.138 771.92C170.476 771.152 169.975 770.235 169.634 769.168C169.314 768.101 169.132 766.939 169.09 765.68C169.09 764.421 169.282 763.269 169.666 762.224C170.05 761.179 170.583 760.272 171.266 759.504C171.97 758.736 172.791 758.139 173.73 757.712C174.69 757.285 175.735 757.072 176.866 757.072C178.338 757.072 179.554 757.381 180.514 758C181.495 758.597 182.274 759.365 182.85 760.304C183.447 761.243 183.852 762.267 184.066 763.376C184.3 764.485 184.396 765.541 184.354 766.544H171.97C171.948 767.269 172.034 767.963 172.226 768.624C172.418 769.264 172.727 769.84 173.154 770.352C173.58 770.843 174.124 771.237 174.786 771.536C175.447 771.835 176.226 771.984 177.122 771.984C178.274 771.984 179.212 771.717 179.938 771.184C180.684 770.651 181.175 769.84 181.41 768.752H184.097ZM196.495 751.152H199.727L211.759 769.68H211.823V751.152H214.703V774H211.375L199.439 755.664H199.375V774H196.495V751.152ZM221.157 765.744C221.157 766.747 221.285 767.643 221.541 768.432C221.818 769.2 222.192 769.851 222.661 770.384C223.13 770.896 223.674 771.291 224.293 771.568C224.933 771.845 225.605 771.984 226.309 771.984C227.013 771.984 227.674 771.845 228.293 771.568C228.933 771.291 229.488 770.896 229.957 770.384C230.426 769.851 230.789 769.2 231.045 768.432C231.322 767.643 231.461 766.747 231.461 765.744C231.461 764.741 231.322 763.856 231.045 763.088C230.789 762.299 230.426 761.637 229.957 761.104C229.488 760.571 228.933 760.165 228.293 759.888C227.674 759.611 227.013 759.472 226.309 759.472C225.605 759.472 224.933 759.611 224.293 759.888C223.674 760.165 223.13 760.571 222.661 761.104C222.192 761.637 221.818 762.299 221.541 763.088C221.285 763.856 221.157 764.741 221.157 765.744ZM218.277 765.744C218.277 764.528 218.448 763.397 218.789 762.352C219.13 761.285 219.642 760.368 220.325 759.6C221.008 758.811 221.85 758.192 222.853 757.744C223.856 757.296 225.008 757.072 226.309 757.072C227.632 757.072 228.784 757.296 229.765 757.744C230.768 758.192 231.61 758.811 232.293 759.6C232.976 760.368 233.488 761.285 233.829 762.352C234.17 763.397 234.341 764.528 234.341 765.744C234.341 766.96 234.17 768.091 233.829 769.136C233.488 770.181 232.976 771.099 232.293 771.888C231.61 772.656 230.768 773.264 229.765 773.712C228.784 774.139 227.632 774.352 226.309 774.352C225.008 774.352 223.856 774.139 222.853 773.712C221.85 773.264 221.008 772.656 220.325 771.888C219.642 771.099 219.13 770.181 218.789 769.136C218.448 768.091 218.277 766.96 218.277 765.744ZM253.932 774H251.052L247.692 760.848H247.628L244.3 774H241.356L236.044 757.456H239.052L242.796 770.992H242.86L246.188 757.456H249.164L252.62 770.992H252.684L256.396 757.456H259.212L253.932 774Z" fill="#373636"/>
<path d="M275.76 771.384L273.888 770.184L279.952 764.072V764.968L273.888 758.856L275.76 757.656L282.32 764.52L275.76 771.384Z" fill="#373636"/>
<path d="M181.374 602.31H178.073V600.549H177.999C177.559 601.283 176.989 601.812 176.288 602.138C175.587 602.464 174.87 602.627 174.136 602.627C173.207 602.627 172.441 602.505 171.838 602.261C171.251 602.016 170.786 601.674 170.444 601.234C170.102 600.777 169.857 600.231 169.71 599.595C169.58 598.943 169.515 598.226 169.515 597.444V589.668H172.987V596.808C172.987 597.851 173.15 598.634 173.476 599.155C173.802 599.661 174.381 599.913 175.212 599.913C176.157 599.913 176.842 599.636 177.266 599.082C177.69 598.511 177.902 597.582 177.902 596.295V589.668H181.374V602.31ZM190.391 600.036C190.961 600.036 191.434 599.921 191.809 599.693C192.2 599.465 192.51 599.172 192.738 598.813C192.982 598.438 193.154 598.006 193.251 597.517C193.349 597.028 193.398 596.531 193.398 596.026C193.398 595.52 193.341 595.023 193.227 594.534C193.129 594.045 192.958 593.613 192.713 593.238C192.469 592.847 192.151 592.537 191.76 592.309C191.385 592.064 190.92 591.942 190.366 591.942C189.796 591.942 189.315 592.064 188.923 592.309C188.549 592.537 188.239 592.839 187.994 593.214C187.766 593.589 187.603 594.021 187.505 594.51C187.408 594.999 187.359 595.504 187.359 596.026C187.359 596.531 187.408 597.028 187.505 597.517C187.619 598.006 187.791 598.438 188.019 598.813C188.263 599.172 188.581 599.465 188.972 599.693C189.364 599.921 189.836 600.036 190.391 600.036ZM184.009 589.668H187.31V591.282H187.359C187.782 590.597 188.32 590.1 188.972 589.791C189.624 589.481 190.342 589.326 191.124 589.326C192.118 589.326 192.974 589.513 193.691 589.888C194.409 590.263 195.004 590.76 195.476 591.38C195.949 591.999 196.3 592.725 196.528 593.556C196.756 594.371 196.87 595.227 196.87 596.123C196.87 596.971 196.756 597.786 196.528 598.569C196.3 599.351 195.949 600.044 195.476 600.647C195.02 601.25 194.441 601.731 193.74 602.09C193.056 602.448 192.249 602.627 191.32 602.627C190.537 602.627 189.812 602.473 189.144 602.163C188.492 601.837 187.954 601.364 187.53 600.745H187.481V606.735H184.009V589.668ZM210.163 589.668H212.706V591.991H210.163V598.251C210.163 598.837 210.261 599.229 210.456 599.424C210.652 599.62 211.043 599.718 211.63 599.718C211.826 599.718 212.013 599.71 212.192 599.693C212.372 599.677 212.543 599.653 212.706 599.62V602.31C212.413 602.358 212.087 602.391 211.728 602.407C211.369 602.424 211.019 602.432 210.677 602.432C210.139 602.432 209.625 602.391 209.136 602.31C208.663 602.244 208.24 602.106 207.865 601.894C207.506 601.682 207.221 601.38 207.009 600.989C206.797 600.598 206.691 600.085 206.691 599.449V591.991H204.588V589.668H206.691V585.878H210.163V589.668ZM217.439 596.001C217.439 596.506 217.488 597.004 217.586 597.493C217.683 597.965 217.846 598.397 218.075 598.789C218.319 599.164 218.637 599.465 219.028 599.693C219.419 599.921 219.908 600.036 220.495 600.036C221.082 600.036 221.571 599.921 221.962 599.693C222.37 599.465 222.688 599.164 222.916 598.789C223.16 598.397 223.332 597.965 223.429 597.493C223.527 597.004 223.576 596.506 223.576 596.001C223.576 595.496 223.527 594.999 223.429 594.51C223.332 594.021 223.16 593.589 222.916 593.214C222.688 592.839 222.37 592.537 221.962 592.309C221.571 592.064 221.082 591.942 220.495 591.942C219.908 591.942 219.419 592.064 219.028 592.309C218.637 592.537 218.319 592.839 218.075 593.214C217.846 593.589 217.683 594.021 217.586 594.51C217.488 594.999 217.439 595.496 217.439 596.001ZM213.967 596.001C213.967 594.99 214.122 594.078 214.431 593.263C214.741 592.431 215.181 591.73 215.752 591.16C216.322 590.573 217.007 590.125 217.806 589.815C218.604 589.489 219.501 589.326 220.495 589.326C221.49 589.326 222.386 589.489 223.185 589.815C224 590.125 224.693 590.573 225.263 591.16C225.834 591.73 226.274 592.431 226.584 593.263C226.893 594.078 227.048 594.99 227.048 596.001C227.048 597.012 226.893 597.925 226.584 598.74C226.274 599.555 225.834 600.256 225.263 600.842C224.693 601.413 224 601.853 223.185 602.163C222.386 602.473 221.49 602.627 220.495 602.627C219.501 602.627 218.604 602.473 217.806 602.163C217.007 601.853 216.322 601.413 215.752 600.842C215.181 600.256 214.741 599.555 214.431 598.74C214.122 597.925 213.967 597.012 213.967 596.001Z" fill="#373636"/>
<path d="M131.647 629.959L127.777 651.927L128.055 652.205C130.723 649.535 133.578 647.624 136.621 646.472C139.664 645.319 143.117 644.746 146.981 644.753C151.77 644.753 156.009 645.628 159.699 647.379C163.269 649.044 166.447 651.445 169.024 654.425C171.622 657.49 173.595 661.034 174.829 664.857C176.182 668.981 176.857 673.297 176.83 677.637C176.871 682.419 175.881 687.154 173.929 691.52C172.072 695.698 169.421 699.476 166.123 702.643C162.838 705.787 158.965 708.251 154.725 709.895C150.326 711.607 145.63 712.425 140.911 712.302C136.355 712.321 131.819 711.693 127.44 710.435C123.309 709.269 119.439 707.323 116.039 704.702C112.721 702.121 110.01 698.844 108.095 695.102C106.116 691.279 105.084 686.835 105.002 681.769H124.622C125.08 686.189 126.738 689.712 129.595 692.338C132.453 694.964 136.091 696.276 140.509 696.274C142.928 696.31 145.321 695.766 147.486 694.686C149.486 693.672 151.26 692.263 152.7 690.544C154.162 688.785 155.286 686.771 156.017 684.604C156.797 682.361 157.194 680.002 157.193 677.627C157.207 675.234 156.833 672.854 156.086 670.58C155.389 668.44 154.26 666.465 152.769 664.778C151.313 663.132 149.524 661.813 147.521 660.908C145.297 659.951 142.894 659.483 140.474 659.533C136.971 659.533 134.115 660.155 131.909 661.4C129.702 662.644 127.629 664.601 125.691 667.27H108.016L117.551 613.804H171.571V629.959H131.647Z" fill="#373636"/>
<path d="M276.444 673.539V676.564H281.985V681.417H276.444V706.086H269.947V681.417H260.069V706.086H253.558V681.417H248.705V676.564H253.558V674.11C253.558 672.247 253.788 670.733 254.246 669.569C254.616 668.534 255.246 667.611 256.075 666.888C256.825 666.263 257.717 665.831 258.673 665.63C259.676 665.417 260.7 665.313 261.725 665.317C263.82 665.317 265.343 665.45 266.294 665.716V670.796C265.854 670.678 265.405 670.593 264.953 670.542C264.394 670.48 263.831 670.451 263.269 670.456C262.471 670.434 261.685 670.653 261.014 671.085C260.386 671.504 260.072 672.322 260.072 673.539V676.564H269.951V674.11C269.951 672.247 270.18 670.733 270.638 669.569C271.008 668.535 271.637 667.612 272.463 666.888C273.215 666.265 274.107 665.833 275.062 665.63C276.066 665.418 277.091 665.313 278.118 665.317C280.21 665.317 281.732 665.45 282.686 665.716V670.796C282.246 670.678 281.798 670.593 281.345 670.542C280.786 670.48 280.223 670.451 279.661 670.456C278.862 670.434 278.075 670.653 277.403 671.085C276.787 671.504 276.444 672.326 276.444 673.539Z" fill="#373636"/>
<path d="M244.106 680.163C242.793 678.766 241.197 677.665 239.424 676.936C237.426 676.127 235.286 675.728 233.131 675.764C231.971 675.757 230.813 675.862 229.673 676.076L265.98 614.285H263.478L247.698 641.116C247.471 640.164 247.227 639.236 246.966 638.342C245.071 631.926 242.488 626.784 239.218 622.916C235.948 619.048 232.167 616.281 227.875 614.615C223.487 612.939 218.824 612.095 214.126 612.127C209.469 612.101 204.848 612.945 200.501 614.615C196.211 616.274 192.452 619.041 189.223 622.916C185.995 626.791 183.436 631.933 181.548 638.342C179.655 644.758 178.709 652.664 178.709 662.059C178.709 671.743 179.655 679.837 181.548 686.34C183.441 692.843 185.999 698.031 189.223 701.904C192.452 705.776 196.211 708.543 200.501 710.205C202.319 710.908 204.192 711.462 206.1 711.861L203.079 717H205.643L218.574 695.002C218.735 695.874 218.965 696.733 219.261 697.569C219.879 699.391 220.871 701.065 222.173 702.481C223.486 703.879 225.084 704.98 226.858 705.709C230.92 707.267 235.414 707.267 239.476 705.709C241.249 704.979 242.845 703.879 244.157 702.481C245.459 701.065 246.451 699.391 247.069 697.569C248.402 693.508 248.402 689.126 247.069 685.065C246.434 683.242 245.425 681.572 244.106 680.163ZM214.089 696.662C210.122 696.662 207.079 695.371 204.959 692.788C202.756 690.049 201.175 686.864 200.326 683.453C199.351 679.744 198.775 675.941 198.607 672.11C198.422 668.191 198.33 664.848 198.332 662.08C198.332 660.421 198.355 658.415 198.401 656.061C198.447 653.708 198.608 651.287 198.886 648.798C199.16 646.301 199.619 643.827 200.261 641.398C200.848 639.092 201.756 636.88 202.959 634.826C204.06 632.943 205.574 631.334 207.386 630.12C209.185 628.924 211.421 628.325 214.095 628.323C216.77 628.321 219.03 628.92 220.877 630.12C222.73 631.33 224.289 632.937 225.442 634.826C226.68 636.862 227.59 639.08 228.14 641.398C228.735 643.838 229.194 646.308 229.515 648.798C229.831 651.208 230.015 653.632 230.068 656.061C230.112 658.412 230.135 660.419 230.137 662.08C230.137 664.672 230.056 667.765 229.893 671.36L215.03 696.628C214.724 696.648 214.408 696.659 214.089 696.659V696.662ZM241.023 695.098C240.719 696.292 240.207 697.423 239.51 698.439C238.827 699.429 237.93 700.251 236.884 700.845C235.719 701.446 234.427 701.759 233.115 701.759C231.804 701.759 230.512 701.446 229.346 700.845C228.299 700.253 227.401 699.43 226.72 698.439C226.021 697.424 225.509 696.293 225.208 695.098C224.558 692.619 224.558 690.015 225.208 687.536C225.501 686.338 226.014 685.206 226.72 684.195C227.41 683.221 228.307 682.412 229.346 681.827C230.512 681.226 231.804 680.913 233.115 680.913C234.427 680.913 235.719 681.226 236.884 681.827C237.923 682.414 238.819 683.223 239.51 684.195C240.214 685.207 240.727 686.339 241.023 687.536C241.668 690.015 241.668 692.619 241.023 695.098Z" fill="#373636"/>
<path d="M255.599 618.173C255.46 617.492 255.185 616.847 254.791 616.275C254.406 615.734 253.895 615.294 253.303 614.993C252.586 614.656 251.799 614.495 251.007 614.522C250.236 614.504 249.471 614.66 248.769 614.979C248.159 615.27 247.625 615.698 247.209 616.231C246.785 616.783 246.476 617.414 246.298 618.087C246.097 618.825 245.998 619.587 246.002 620.352C245.996 621.11 246.081 621.865 246.253 622.603C246.397 623.254 246.678 623.867 247.078 624.401C247.478 624.915 248 625.32 248.597 625.58C249.317 625.886 250.094 626.033 250.876 626.009C251.642 626.028 252.404 625.887 253.114 625.597C253.713 625.343 254.244 624.949 254.661 624.449C255.076 623.932 255.381 623.335 255.558 622.696C255.761 621.972 255.86 621.224 255.853 620.472C255.851 619.699 255.766 618.928 255.599 618.173ZM252.787 621.486C252.761 621.859 252.683 622.225 252.553 622.576C252.433 622.91 252.23 623.208 251.962 623.442C251.649 623.672 251.27 623.796 250.881 623.796C250.493 623.796 250.114 623.672 249.8 623.442C249.544 623.204 249.352 622.907 249.24 622.576C249.121 622.219 249.051 621.848 249.034 621.472C249.017 621.077 249.006 620.726 249.006 620.41C249.006 620.094 249.006 619.695 249.051 619.262C249.075 618.85 249.158 618.444 249.299 618.056C249.426 617.7 249.633 617.378 249.903 617.114C250.206 616.846 250.603 616.708 251.007 616.732C251.198 616.72 251.39 616.751 251.569 616.822C251.747 616.894 251.907 617.004 252.038 617.145C252.29 617.434 252.476 617.776 252.581 618.145C252.7 618.542 252.774 618.952 252.801 619.365C252.832 619.788 252.846 620.146 252.846 620.441C252.846 620.737 252.818 621.111 252.787 621.486ZM270.788 628.017C270.652 627.354 270.377 626.727 269.98 626.178C269.591 625.651 269.081 625.227 268.492 624.94C267.773 624.612 266.986 624.455 266.196 624.483C265.427 624.464 264.662 624.616 263.958 624.927C263.352 625.202 262.819 625.615 262.401 626.133C261.978 626.663 261.666 627.273 261.487 627.927C261.285 628.656 261.185 629.409 261.191 630.165C261.188 630.928 261.272 631.69 261.442 632.434C261.591 633.096 261.872 633.721 262.267 634.273C262.657 634.799 263.174 635.219 263.769 635.493C264.486 635.808 265.265 635.96 266.048 635.936C266.816 635.955 267.579 635.808 268.286 635.507C268.891 635.242 269.422 634.834 269.832 634.317C270.246 633.783 270.551 633.172 270.73 632.52C270.932 631.791 271.031 631.038 271.025 630.282C271.031 629.517 270.951 628.754 270.788 628.007V628.017ZM267.976 631.299C267.95 631.691 267.872 632.077 267.743 632.447C267.623 632.799 267.421 633.117 267.155 633.375C266.861 633.64 266.474 633.777 266.079 633.757C265.881 633.77 265.683 633.743 265.495 633.677C265.308 633.612 265.136 633.509 264.989 633.375C264.733 633.114 264.541 632.796 264.429 632.447C264.31 632.071 264.241 631.68 264.223 631.286C264.206 630.873 264.195 630.509 264.195 630.196C264.195 629.883 264.195 629.488 264.24 629.075C264.265 628.682 264.349 628.295 264.491 627.927C264.617 627.588 264.823 627.285 265.093 627.044C265.405 626.797 265.798 626.675 266.196 626.7C266.386 626.689 266.577 626.718 266.755 626.787C266.933 626.856 267.094 626.962 267.227 627.099C267.475 627.37 267.66 627.691 267.77 628.041C267.89 628.413 267.964 628.799 267.99 629.189C268.021 629.591 268.035 629.942 268.035 630.22C268.035 630.498 268.007 630.887 267.976 631.289V631.299Z" fill="#373636"/>
<path d="M285.234 670.263L285.788 668.627L288.555 669.71V666.692H290.273V669.71L293.023 668.627L293.628 670.263L290.761 671.219L292.521 673.58L291.188 674.56L289.404 672.099L287.685 674.56L286.276 673.58L288.036 671.219L285.234 670.263Z" fill="#373636"/>
<path d="M144.43 491H141.82V486.59H141.73C141.43 487.34 140.98 488.03 140.38 488.66C139.81 489.29 139.15 489.83 138.4 490.28C137.65 490.7 136.84 491.03 135.97 491.27C135.13 491.51 134.29 491.63 133.45 491.63C131.68 491.63 130.135 491.315 128.815 490.685C127.525 490.025 126.445 489.14 125.575 488.03C124.705 486.89 124.06 485.585 123.64 484.115C123.22 482.615 123.01 481.04 123.01 479.39C123.01 477.74 123.22 476.18 123.64 474.71C124.06 473.21 124.705 471.905 125.575 470.795C126.445 469.655 127.525 468.755 128.815 468.095C130.135 467.435 131.68 467.105 133.45 467.105C134.32 467.105 135.16 467.21 135.97 467.42C136.81 467.63 137.59 467.96 138.31 468.41C139.03 468.83 139.66 469.355 140.2 469.985C140.77 470.615 141.205 471.35 141.505 472.19H141.595V458.87H144.43V491ZM125.845 479.39C125.845 480.59 125.98 481.79 126.25 482.99C126.55 484.16 127 485.21 127.6 486.14C128.23 487.07 129.025 487.835 129.985 488.435C130.945 489.005 132.1 489.29 133.45 489.29C134.95 489.29 136.21 489.005 137.23 488.435C138.28 487.835 139.12 487.07 139.75 486.14C140.41 485.21 140.875 484.16 141.145 482.99C141.445 481.79 141.595 480.59 141.595 479.39C141.595 478.19 141.445 477.005 141.145 475.835C140.875 474.635 140.41 473.57 139.75 472.64C139.12 471.71 138.28 470.96 137.23 470.39C136.21 469.79 134.95 469.49 133.45 469.49C132.1 469.49 130.945 469.79 129.985 470.39C129.025 470.96 128.23 471.71 127.6 472.64C127 473.57 126.55 474.635 126.25 475.835C125.98 477.005 125.845 478.19 125.845 479.39ZM165.185 477.77C165.155 476.69 164.96 475.655 164.6 474.665C164.27 473.675 163.79 472.805 163.16 472.055C162.53 471.275 161.765 470.66 160.865 470.21C159.965 469.73 158.945 469.49 157.805 469.49C156.635 469.49 155.6 469.73 154.7 470.21C153.8 470.66 153.035 471.275 152.405 472.055C151.775 472.805 151.265 473.69 150.875 474.71C150.515 475.7 150.275 476.72 150.155 477.77H165.185ZM150.155 480.155C150.155 481.175 150.29 482.24 150.56 483.35C150.86 484.43 151.325 485.405 151.955 486.275C152.585 487.145 153.38 487.865 154.34 488.435C155.3 489.005 156.455 489.29 157.805 489.29C159.875 489.29 161.495 488.75 162.665 487.67C163.835 486.59 164.645 485.15 165.095 483.35H167.93C167.33 485.99 166.22 488.03 164.6 489.47C163.01 490.91 160.745 491.63 157.805 491.63C155.975 491.63 154.385 491.315 153.035 490.685C151.715 490.025 150.635 489.14 149.795 488.03C148.955 486.89 148.325 485.585 147.905 484.115C147.515 482.615 147.32 481.04 147.32 479.39C147.32 477.86 147.515 476.36 147.905 474.89C148.325 473.42 148.955 472.115 149.795 470.975C150.635 469.805 151.715 468.875 153.035 468.185C154.385 467.465 155.975 467.105 157.805 467.105C159.665 467.105 161.255 467.48 162.575 468.23C163.895 468.98 164.96 469.97 165.77 471.2C166.61 472.4 167.21 473.795 167.57 475.385C167.93 476.945 168.08 478.535 168.02 480.155H150.155ZM184.38 474.575C184.35 473.705 184.17 472.955 183.84 472.325C183.51 471.665 183.06 471.125 182.49 470.705C181.95 470.285 181.32 469.985 180.6 469.805C179.88 469.595 179.115 469.49 178.305 469.49C177.675 469.49 177.03 469.565 176.37 469.715C175.74 469.835 175.155 470.06 174.615 470.39C174.075 470.69 173.64 471.095 173.31 471.605C172.98 472.115 172.815 472.745 172.815 473.495C172.815 474.125 172.965 474.665 173.265 475.115C173.595 475.535 174 475.895 174.48 476.195C174.96 476.495 175.485 476.75 176.055 476.96C176.625 477.14 177.15 477.29 177.63 477.41L181.41 478.265C182.22 478.385 183.015 478.61 183.795 478.94C184.605 479.24 185.31 479.645 185.91 480.155C186.54 480.665 187.05 481.295 187.44 482.045C187.83 482.795 188.025 483.68 188.025 484.7C188.025 485.96 187.74 487.04 187.17 487.94C186.6 488.81 185.865 489.53 184.965 490.1C184.095 490.64 183.105 491.03 181.995 491.27C180.885 491.51 179.79 491.63 178.71 491.63C175.98 491.63 173.76 490.985 172.05 489.695C170.37 488.405 169.41 486.335 169.17 483.485H172.005C172.125 485.405 172.815 486.86 174.075 487.85C175.365 488.81 176.955 489.29 178.845 489.29C179.535 489.29 180.24 489.215 180.96 489.065C181.71 488.915 182.4 488.66 183.03 488.3C183.66 487.94 184.17 487.49 184.56 486.95C184.98 486.38 185.19 485.69 185.19 484.88C185.19 484.19 185.04 483.62 184.74 483.17C184.47 482.69 184.095 482.3 183.615 482C183.135 481.67 182.58 481.4 181.95 481.19C181.35 480.98 180.735 480.8 180.105 480.65L176.46 479.84C175.53 479.6 174.675 479.33 173.895 479.03C173.115 478.7 172.425 478.31 171.825 477.86C171.255 477.38 170.805 476.81 170.475 476.15C170.145 475.46 169.98 474.62 169.98 473.63C169.98 472.46 170.235 471.455 170.745 470.615C171.285 469.775 171.975 469.1 172.815 468.59C173.655 468.08 174.585 467.705 175.605 467.465C176.655 467.225 177.69 467.105 178.71 467.105C179.88 467.105 180.96 467.255 181.95 467.555C182.97 467.855 183.855 468.32 184.605 468.95C185.385 469.58 186 470.36 186.45 471.29C186.9 472.22 187.155 473.315 187.215 474.575H184.38ZM190.835 458.87H193.67V463.415H190.835V458.87ZM190.835 467.78H193.67V491H190.835V467.78ZM217.366 489.11C217.366 490.82 217.171 492.365 216.781 493.745C216.421 495.125 215.836 496.295 215.026 497.255C214.216 498.215 213.151 498.95 211.831 499.46C210.541 499.97 208.951 500.225 207.061 500.225C205.891 500.225 204.751 500.09 203.641 499.82C202.531 499.55 201.526 499.13 200.626 498.56C199.756 497.99 199.021 497.255 198.421 496.355C197.851 495.485 197.521 494.435 197.431 493.205H200.266C200.416 494.075 200.701 494.795 201.121 495.365C201.571 495.965 202.096 496.445 202.696 496.805C203.326 497.165 204.016 497.42 204.766 497.57C205.516 497.75 206.281 497.84 207.061 497.84C209.701 497.84 211.606 497.09 212.776 495.59C213.946 494.09 214.531 491.93 214.531 489.11V485.96H214.441C213.781 487.4 212.806 488.555 211.516 489.425C210.256 490.295 208.771 490.73 207.061 490.73C205.201 490.73 203.611 490.43 202.291 489.83C200.971 489.2 199.876 488.345 199.006 487.265C198.166 486.185 197.551 484.925 197.161 483.485C196.771 482.015 196.576 480.455 196.576 478.805C196.576 477.215 196.801 475.715 197.251 474.305C197.731 472.865 198.406 471.62 199.276 470.57C200.176 469.49 201.271 468.65 202.561 468.05C203.881 467.42 205.381 467.105 207.061 467.105C207.931 467.105 208.741 467.225 209.491 467.465C210.271 467.705 210.976 468.05 211.606 468.5C212.236 468.92 212.791 469.415 213.271 469.985C213.781 470.555 214.171 471.155 214.441 471.785H214.531V467.78H217.366V489.11ZM207.061 488.345C208.291 488.345 209.371 488.09 210.301 487.58C211.231 487.04 212.011 486.35 212.641 485.51C213.271 484.64 213.736 483.65 214.036 482.54C214.366 481.43 214.531 480.29 214.531 479.12C214.531 477.98 214.396 476.84 214.126 475.7C213.856 474.56 213.421 473.525 212.821 472.595C212.221 471.665 211.441 470.915 210.481 470.345C209.551 469.775 208.411 469.49 207.061 469.49C205.711 469.49 204.556 469.775 203.596 470.345C202.636 470.885 201.841 471.605 201.211 472.505C200.581 473.405 200.116 474.44 199.816 475.61C199.546 476.75 199.411 477.92 199.411 479.12C199.411 480.29 199.561 481.43 199.861 482.54C200.161 483.65 200.626 484.64 201.256 485.51C201.886 486.35 202.681 487.04 203.641 487.58C204.601 488.09 205.741 488.345 207.061 488.345ZM221.356 467.78H224.191V471.785H224.281C224.821 470.375 225.781 469.25 227.161 468.41C228.541 467.54 230.056 467.105 231.706 467.105C233.326 467.105 234.676 467.315 235.756 467.735C236.866 468.155 237.751 468.755 238.411 469.535C239.071 470.285 239.536 471.215 239.806 472.325C240.076 473.435 240.211 474.68 240.211 476.06V491H237.376V476.51C237.376 475.52 237.286 474.605 237.106 473.765C236.926 472.895 236.611 472.145 236.161 471.515C235.711 470.885 235.096 470.39 234.316 470.03C233.566 469.67 232.621 469.49 231.481 469.49C230.341 469.49 229.321 469.7 228.421 470.12C227.551 470.51 226.801 471.065 226.171 471.785C225.571 472.475 225.091 473.315 224.731 474.305C224.401 475.265 224.221 476.315 224.191 477.455V491H221.356V467.78ZM260.916 477.77C260.886 476.69 260.691 475.655 260.331 474.665C260.001 473.675 259.521 472.805 258.891 472.055C258.261 471.275 257.496 470.66 256.596 470.21C255.696 469.73 254.676 469.49 253.536 469.49C252.366 469.49 251.331 469.73 250.431 470.21C249.531 470.66 248.766 471.275 248.136 472.055C247.506 472.805 246.996 473.69 246.606 474.71C246.246 475.7 246.006 476.72 245.886 477.77H260.916ZM245.886 480.155C245.886 481.175 246.021 482.24 246.291 483.35C246.591 484.43 247.056 485.405 247.686 486.275C248.316 487.145 249.111 487.865 250.071 488.435C251.031 489.005 252.186 489.29 253.536 489.29C255.606 489.29 257.226 488.75 258.396 487.67C259.566 486.59 260.376 485.15 260.826 483.35H263.661C263.061 485.99 261.951 488.03 260.331 489.47C258.741 490.91 256.476 491.63 253.536 491.63C251.706 491.63 250.116 491.315 248.766 490.685C247.446 490.025 246.366 489.14 245.526 488.03C244.686 486.89 244.056 485.585 243.636 484.115C243.246 482.615 243.051 481.04 243.051 479.39C243.051 477.86 243.246 476.36 243.636 474.89C244.056 473.42 244.686 472.115 245.526 470.975C246.366 469.805 247.446 468.875 248.766 468.185C250.116 467.465 251.706 467.105 253.536 467.105C255.396 467.105 256.986 467.48 258.306 468.23C259.626 468.98 260.691 469.97 261.501 471.2C262.341 472.4 262.941 473.795 263.301 475.385C263.661 476.945 263.811 478.535 263.751 480.155H245.886ZM266.205 467.78H268.815V473.225H268.905C269.625 471.335 270.735 469.88 272.235 468.86C273.765 467.84 275.58 467.375 277.68 467.465V470.3C276.39 470.24 275.22 470.42 274.17 470.84C273.12 471.23 272.205 471.8 271.425 472.55C270.675 473.3 270.09 474.2 269.67 475.25C269.25 476.27 269.04 477.395 269.04 478.625V491H266.205V467.78Z" fill="#373636"/>
<path d="M145.398 529.44C145.398 530.13 145.533 530.73 145.803 531.24C146.103 531.72 146.478 532.125 146.928 532.455C147.378 532.755 147.888 532.98 148.458 533.13C149.058 533.28 149.673 533.355 150.303 533.355C150.753 533.355 151.218 533.31 151.698 533.22C152.208 533.1 152.658 532.935 153.048 532.725C153.468 532.485 153.813 532.185 154.083 531.825C154.353 531.435 154.488 530.955 154.488 530.385C154.488 529.425 153.843 528.705 152.553 528.225C151.293 527.745 149.523 527.265 147.243 526.785C146.313 526.575 145.398 526.335 144.498 526.065C143.628 525.765 142.848 525.39 142.158 524.94C141.468 524.46 140.913 523.875 140.493 523.185C140.073 522.465 139.863 521.595 139.863 520.575C139.863 519.075 140.148 517.845 140.718 516.885C141.318 515.925 142.098 515.175 143.058 514.635C144.018 514.065 145.098 513.675 146.298 513.465C147.498 513.225 148.728 513.105 149.988 513.105C151.248 513.105 152.463 513.225 153.633 513.465C154.833 513.705 155.898 514.11 156.828 514.68C157.758 515.25 158.523 516.015 159.123 516.975C159.753 517.905 160.128 519.09 160.248 520.53H154.173C154.083 519.3 153.618 518.475 152.778 518.055C151.938 517.605 150.948 517.38 149.808 517.38C149.448 517.38 149.058 517.41 148.638 517.47C148.218 517.5 147.828 517.59 147.468 517.74C147.138 517.89 146.853 518.115 146.613 518.415C146.373 518.685 146.253 519.06 146.253 519.54C146.253 520.11 146.463 520.575 146.883 520.935C147.303 521.295 147.843 521.595 148.503 521.835C149.193 522.045 149.973 522.24 150.843 522.42C151.713 522.6 152.598 522.795 153.498 523.005C154.428 523.215 155.328 523.47 156.198 523.77C157.098 524.07 157.893 524.475 158.583 524.985C159.273 525.465 159.828 526.08 160.248 526.83C160.668 527.55 160.878 528.45 160.878 529.53C160.878 531.06 160.563 532.35 159.933 533.4C159.333 534.42 158.538 535.245 157.548 535.875C156.558 536.505 155.418 536.94 154.128 537.18C152.868 537.45 151.578 537.585 150.258 537.585C148.908 537.585 147.588 537.45 146.298 537.18C145.008 536.91 143.853 536.46 142.833 535.83C141.843 535.2 141.018 534.375 140.358 533.355C139.728 532.305 139.383 531 139.323 529.44H145.398ZM163.268 504.87H169.658V516.975H169.793C170.603 515.625 171.638 514.65 172.898 514.05C174.158 513.42 175.388 513.105 176.588 513.105C178.298 513.105 179.693 513.345 180.773 513.825C181.883 514.275 182.753 514.92 183.383 515.76C184.013 516.57 184.448 517.575 184.688 518.775C184.958 519.945 185.093 521.25 185.093 522.69V537H178.703V523.86C178.703 521.94 178.403 520.515 177.803 519.585C177.203 518.625 176.138 518.145 174.608 518.145C172.868 518.145 171.608 518.67 170.828 519.72C170.048 520.74 169.658 522.435 169.658 524.805V537H163.268V504.87ZM194.263 525.39C194.263 526.32 194.353 527.235 194.533 528.135C194.713 529.005 195.013 529.8 195.433 530.52C195.883 531.21 196.468 531.765 197.188 532.185C197.908 532.605 198.808 532.815 199.888 532.815C200.968 532.815 201.868 532.605 202.588 532.185C203.338 531.765 203.923 531.21 204.343 530.52C204.793 529.8 205.108 529.005 205.288 528.135C205.468 527.235 205.558 526.32 205.558 525.39C205.558 524.46 205.468 523.545 205.288 522.645C205.108 521.745 204.793 520.95 204.343 520.26C203.923 519.57 203.338 519.015 202.588 518.595C201.868 518.145 200.968 517.92 199.888 517.92C198.808 517.92 197.908 518.145 197.188 518.595C196.468 519.015 195.883 519.57 195.433 520.26C195.013 520.95 194.713 521.745 194.533 522.645C194.353 523.545 194.263 524.46 194.263 525.39ZM187.873 525.39C187.873 523.53 188.158 521.85 188.728 520.35C189.298 518.82 190.108 517.53 191.158 516.48C192.208 515.4 193.468 514.575 194.938 514.005C196.408 513.405 198.058 513.105 199.888 513.105C201.718 513.105 203.368 513.405 204.838 514.005C206.338 514.575 207.613 515.4 208.663 516.48C209.713 517.53 210.523 518.82 211.093 520.35C211.663 521.85 211.948 523.53 211.948 525.39C211.948 527.25 211.663 528.93 211.093 530.43C210.523 531.93 209.713 533.22 208.663 534.3C207.613 535.35 206.338 536.16 204.838 536.73C203.368 537.3 201.718 537.585 199.888 537.585C198.058 537.585 196.408 537.3 194.938 536.73C193.468 536.16 192.208 535.35 191.158 534.3C190.108 533.22 189.298 531.93 188.728 530.43C188.158 528.93 187.873 527.25 187.873 525.39ZM230.412 522.87C230.112 521.25 229.572 520.02 228.792 519.18C228.042 518.34 226.887 517.92 225.327 517.92C224.307 517.92 223.452 518.1 222.762 518.46C222.102 518.79 221.562 519.21 221.142 519.72C220.752 520.23 220.467 520.77 220.287 521.34C220.137 521.91 220.047 522.42 220.017 522.87H230.412ZM220.017 526.92C220.107 528.99 220.632 530.49 221.592 531.42C222.552 532.35 223.932 532.815 225.732 532.815C227.022 532.815 228.132 532.5 229.062 531.87C229.992 531.21 230.562 530.52 230.772 529.8H236.397C235.497 532.59 234.117 534.585 232.257 535.785C230.397 536.985 228.147 537.585 225.507 537.585C223.677 537.585 222.027 537.3 220.557 536.73C219.087 536.13 217.842 535.29 216.822 534.21C215.802 533.13 215.007 531.84 214.437 530.34C213.897 528.84 213.627 527.19 213.627 525.39C213.627 523.65 213.912 522.03 214.482 520.53C215.052 519.03 215.862 517.74 216.912 516.66C217.962 515.55 219.207 514.68 220.647 514.05C222.117 513.42 223.737 513.105 225.507 513.105C227.487 513.105 229.212 513.495 230.682 514.275C232.152 515.025 233.352 516.045 234.282 517.335C235.242 518.625 235.932 520.095 236.352 521.745C236.772 523.395 236.922 525.12 236.802 526.92H220.017ZM244.192 529.44C244.192 530.13 244.327 530.73 244.597 531.24C244.897 531.72 245.272 532.125 245.722 532.455C246.172 532.755 246.682 532.98 247.252 533.13C247.852 533.28 248.467 533.355 249.097 533.355C249.547 533.355 250.012 533.31 250.492 533.22C251.002 533.1 251.452 532.935 251.842 532.725C252.262 532.485 252.607 532.185 252.877 531.825C253.147 531.435 253.282 530.955 253.282 530.385C253.282 529.425 252.637 528.705 251.347 528.225C250.087 527.745 248.317 527.265 246.037 526.785C245.107 526.575 244.192 526.335 243.292 526.065C242.422 525.765 241.642 525.39 240.952 524.94C240.262 524.46 239.707 523.875 239.287 523.185C238.867 522.465 238.657 521.595 238.657 520.575C238.657 519.075 238.942 517.845 239.512 516.885C240.112 515.925 240.892 515.175 241.852 514.635C242.812 514.065 243.892 513.675 245.092 513.465C246.292 513.225 247.522 513.105 248.782 513.105C250.042 513.105 251.257 513.225 252.427 513.465C253.627 513.705 254.692 514.11 255.622 514.68C256.552 515.25 257.317 516.015 257.917 516.975C258.547 517.905 258.922 519.09 259.042 520.53H252.967C252.877 519.3 252.412 518.475 251.572 518.055C250.732 517.605 249.742 517.38 248.602 517.38C248.242 517.38 247.852 517.41 247.432 517.47C247.012 517.5 246.622 517.59 246.262 517.74C245.932 517.89 245.647 518.115 245.407 518.415C245.167 518.685 245.047 519.06 245.047 519.54C245.047 520.11 245.257 520.575 245.677 520.935C246.097 521.295 246.637 521.595 247.297 521.835C247.987 522.045 248.767 522.24 249.637 522.42C250.507 522.6 251.392 522.795 252.292 523.005C253.222 523.215 254.122 523.47 254.992 523.77C255.892 524.07 256.687 524.475 257.377 524.985C258.067 525.465 258.622 526.08 259.042 526.83C259.462 527.55 259.672 528.45 259.672 529.53C259.672 531.06 259.357 532.35 258.727 533.4C258.127 534.42 257.332 535.245 256.342 535.875C255.352 536.505 254.212 536.94 252.922 537.18C251.662 537.45 250.372 537.585 249.052 537.585C247.702 537.585 246.382 537.45 245.092 537.18C243.802 536.91 242.647 536.46 241.627 535.83C240.637 535.2 239.812 534.375 239.152 533.355C238.522 532.305 238.177 531 238.117 529.44H244.192Z" fill="#8A0000"/>
</svg>
