<svg fill="none" height="250" viewBox="0 0 1400 250" width="1400" xmlns="http://www.w3.org/2000/svg"><path d="m753 142c0-2.209 1.791-4 4-4h220c2.209 0 4 1.791 4 4v62c0 2.209-1.791 4-4 4h-220c-2.209 0-4-1.791-4-4z" fill="#bd0000"/><path d="m787.496 162.152h3.04v20.288h12.096v2.56h-15.136zm28.821 12.992c-.042-.64-.192-1.248-.448-1.824-.234-.576-.565-1.067-.992-1.472-.405-.427-.896-.757-1.472-.992-.554-.256-1.173-.384-1.856-.384-.704 0-1.344.128-1.92.384-.554.235-1.034.565-1.44.992-.405.427-.725.928-.96 1.504-.234.555-.373 1.152-.416 1.792zm2.624 4.608c-.362 1.856-1.162 3.253-2.4 4.192-1.237.939-2.794 1.408-4.672 1.408-1.322 0-2.474-.213-3.456-.64-.96-.427-1.77-1.024-2.432-1.792-.661-.768-1.162-1.685-1.504-2.752-.32-1.067-.501-2.229-.544-3.488 0-1.259.192-2.411.576-3.456s.918-1.952 1.6-2.72c.704-.768 1.526-1.365 2.464-1.792.96-.427 2.006-.64 3.136-.64 1.472 0 2.688.309 3.648.928.982.597 1.76 1.365 2.336 2.304.598.939 1.003 1.963 1.216 3.072.235 1.109.331 2.165.288 3.168h-12.384c-.021.725.064 1.419.256 2.08.192.64.502 1.216.928 1.728.427.491.971.885 1.632 1.184.662.299 1.44.448 2.336.448 1.152 0 2.091-.267 2.816-.8.747-.533 1.238-1.344 1.472-2.432zm17.732 5.184c-.47.277-1.12.416-1.952.416-.704 0-1.27-.192-1.696-.576-.406-.405-.608-1.056-.608-1.952-.747.896-1.622 1.547-2.624 1.952-.982.384-2.048.576-3.2.576-.747 0-1.462-.085-2.144-.256-.662-.171-1.238-.437-1.728-.8-.491-.363-.886-.832-1.184-1.408-.278-.597-.416-1.312-.416-2.144 0-.939.16-1.707.48-2.304s.736-1.077 1.248-1.44c.533-.384 1.13-.672 1.792-.864.682-.192 1.376-.352 2.08-.48.746-.149 1.45-.256 2.112-.32.682-.085 1.28-.192 1.792-.32.512-.149.917-.352 1.216-.608.298-.277.448-.672.448-1.184 0-.597-.118-1.077-.352-1.44-.214-.363-.502-.64-.864-.832-.342-.192-.736-.32-1.184-.384-.427-.064-.854-.096-1.28-.096-1.152 0-2.112.224-2.88.672-.768.427-1.184 1.248-1.248 2.464h-2.72c.042-1.024.256-1.888.64-2.592s.896-1.269 1.536-1.696c.64-.448 1.365-.768 2.176-.96.832-.192 1.717-.288 2.656-.288.746 0 1.482.053 2.208.16.746.107 1.418.331 2.016.672.597.32 1.077.779 1.44 1.376.362.597.544 1.376.544 2.336v8.512c0 .64.032 1.109.096 1.408.085.299.341.448.768.448.234 0 .512-.053.832-.16zm-4.416-8.48c-.342.256-.79.448-1.344.576-.555.107-1.142.203-1.76.288-.598.064-1.206.149-1.824.256-.619.085-1.174.235-1.664.448-.491.213-.896.523-1.216.928-.299.384-.448.917-.448 1.6 0 .448.085.832.256 1.152.192.299.426.544.704.736.298.192.64.331 1.024.416s.789.128 1.216.128c.896 0 1.664-.117 2.304-.352.64-.256 1.162-.565 1.568-.928.405-.384.704-.789.896-1.216.192-.448.288-.864.288-1.248zm6.851-8h2.56v3.488h.064c.662-1.344 1.472-2.336 2.432-2.976s2.176-.939 3.648-.896v2.88c-1.088 0-2.016.149-2.784.448s-1.386.736-1.856 1.312c-.469.576-.81 1.28-1.024 2.112-.213.811-.32 1.749-.32 2.816v7.36h-2.72zm11.315 0h2.56v2.624h.064c1.131-2.005 2.923-3.008 5.376-3.008 1.088 0 1.995.149 2.72.448s1.312.715 1.76 1.248.757 1.173.928 1.92c.192.725.288 1.536.288 2.432v10.88h-2.72v-11.2c0-1.024-.299-1.835-.896-2.432s-1.419-.896-2.464-.896c-.832 0-1.557.128-2.176.384-.597.256-1.099.619-1.504 1.088s-.715 1.024-.928 1.664c-.192.619-.288 1.301-.288 2.048v9.344h-2.72zm27.2-6.304h4.16l7.2 19.2 7.232-19.2h4.16v22.848h-2.88v-19.008h-.064l-7.136 19.008h-2.592l-7.136-19.008h-.064v19.008h-2.88zm29.347 14.592c0 1.003.128 1.899.384 2.688.277.768.65 1.419 1.12 1.952.469.512 1.013.907 1.632 1.184.64.277 1.312.416 2.016.416s1.365-.139 1.984-.416c.64-.277 1.194-.672 1.664-1.184.469-.533.832-1.184 1.088-1.952.277-.789.416-1.685.416-2.688s-.139-1.888-.416-2.656c-.256-.789-.619-1.451-1.088-1.984-.47-.533-1.024-.939-1.664-1.216-.619-.277-1.28-.416-1.984-.416s-1.376.139-2.016.416c-.619.277-1.163.683-1.632 1.216-.47.533-.843 1.195-1.12 1.984-.256.768-.384 1.653-.384 2.656zm-2.88 0c0-1.216.17-2.347.512-3.392.341-1.067.853-1.984 1.536-2.752.682-.789 1.525-1.408 2.528-1.856 1.002-.448 2.154-.672 3.456-.672 1.322 0 2.474.224 3.456.672 1.002.448 1.845 1.067 2.528 1.856.682.768 1.194 1.685 1.536 2.752.341 1.045.512 2.176.512 3.392s-.171 2.347-.512 3.392c-.342 1.045-.854 1.963-1.536 2.752-.683.768-1.526 1.376-2.528 1.824-.982.427-2.134.64-3.456.64-1.302 0-2.454-.213-3.456-.64-1.003-.448-1.846-1.056-2.528-1.824-.683-.789-1.195-1.707-1.536-2.752-.342-1.045-.512-2.176-.512-3.392zm19.175-8.288h2.56v3.488h.064c.661-1.344 1.472-2.336 2.432-2.976s2.176-.939 3.648-.896v2.88c-1.088 0-2.016.149-2.784.448s-1.387.736-1.856 1.312c-.47.576-.811 1.28-1.024 2.112-.214.811-.32 1.749-.32 2.816v7.36h-2.72zm21.677 6.688c-.042-.64-.192-1.248-.448-1.824-.234-.576-.565-1.067-.992-1.472-.405-.427-.896-.757-1.472-.992-.554-.256-1.173-.384-1.856-.384-.704 0-1.344.128-1.92.384-.554.235-1.034.565-1.44.992-.405.427-.725.928-.96 1.504-.234.555-.373 1.152-.416 1.792zm2.624 4.608c-.362 1.856-1.162 3.253-2.4 4.192-1.237.939-2.794 1.408-4.672 1.408-1.322 0-2.474-.213-3.456-.64-.96-.427-1.77-1.024-2.432-1.792-.661-.768-1.162-1.685-1.504-2.752-.32-1.067-.501-2.229-.544-3.488 0-1.259.192-2.411.576-3.456s.918-1.952 1.6-2.72c.704-.768 1.526-1.365 2.464-1.792.96-.427 2.006-.64 3.136-.64 1.472 0 2.688.309 3.648.928.982.597 1.76 1.365 2.336 2.304.598.939 1.003 1.963 1.216 3.072.235 1.109.331 2.165.288 3.168h-12.384c-.021.725.064 1.419.256 2.08.192.64.502 1.216.928 1.728.427.491.971.885 1.632 1.184.662.299 1.44.448 2.336.448 1.152 0 2.091-.267 2.816-.8.747-.533 1.238-1.344 1.472-2.432z" fill="#fff"/><path d="m415.512 85.576c-.021 1.216.299 2.176.96 2.88s1.483 1.152 2.464 1.344v-6.688c-.107-.0427-.256-.0853-.448-.128-.171-.064-.363-.1173-.576-.16-.789-.2133-1.568-.4587-2.336-.736-.768-.2987-1.461-.6827-2.08-1.152-.597-.4907-1.077-1.088-1.44-1.792-.363-.7253-.544-1.6213-.544-2.688 0-1.088.203-2.048.608-2.88.427-.832.981-1.5253 1.664-2.08.683-.576 1.472-1.0133 2.368-1.312.896-.32 1.824-.512 2.784-.576v-2.464h1.888v2.464c.96.1067 1.856.32 2.688.64.853.2987 1.6.7253 2.24 1.28.64.5333 1.163 1.2053 1.568 2.016s.64 1.7707.704 2.88h-4.544c-.021-.8533-.288-1.5787-.8-2.176s-1.131-.896-1.856-.896v5.664l.768.192c.277.064.565.1387.864.224 1.579.4267 2.795.96 3.648 1.6.853.6187 1.483 1.2693 1.888 1.952s.64 1.3653.704 2.048c.085.6827.128 1.2907.128 1.824 0 .4693-.117 1.0667-.352 1.792-.235.704-.661 1.3973-1.28 2.08-.597.6827-1.408 1.2907-2.432 1.824s-2.336.8533-3.936.96v2.72h-1.888v-2.72c-2.389-.1707-4.256-.9067-5.6-2.208s-2.123-3.2107-2.336-5.728zm5.312 4.224c.384-.0427.779-.128 1.184-.256.427-.1493.8-.352 1.12-.608.341-.256.619-.5653.832-.928.213-.384.32-.832.32-1.344 0-.832-.267-1.4507-.8-1.856-.512-.4267-1.397-.8107-2.656-1.152zm-1.888-16.448c-.363 0-.715.0533-1.056.16s-.651.2773-.928.512c-.277.2133-.501.4907-.672.832-.149.32-.224.704-.224 1.152 0 .704.224 1.248.672 1.632s1.184.6933 2.208.928zm12.779 14.6613c-.072-2.1333.177-4.1066.746-5.92.569-1.8489 1.422-3.4489 2.56-4.8 1.138-1.3866 2.56-2.4533 4.267-3.2 1.742-.7822 3.733-1.1733 5.973-1.1733 1.707 0 3.325.2667 4.854.8 1.564.5333 2.933 1.2978 4.106 2.2933 1.174.9956 2.098 2.2223 2.774 3.68.711 1.4578 1.066 3.0934 1.066 4.9067 0 1.8844-.302 3.5022-.906 4.8533-.605 1.3511-1.405 2.56-2.4 3.6267-.996 1.0311-2.134 1.9733-3.414 2.8267-1.244.8533-2.506 1.7066-3.786 2.56-1.28.8177-2.525 1.7063-3.734 2.6663s-2.275 2.08-3.2 3.36h17.654v6.507h-27.414c0-2.169.302-4.053.907-5.653.64-1.6 1.493-3.023 2.56-4.267 1.067-1.28 2.311-2.4533 3.733-3.52 1.458-1.0667 2.987-2.1511 4.587-3.2533.818-.5689 1.689-1.1378 2.613-1.7067.925-.6044 1.76-1.2622 2.507-1.9733.782-.7111 1.422-1.5111 1.92-2.4.533-.8889.8-1.9023.8-3.04 0-1.8134-.533-3.2178-1.6-4.2134-1.031-1.0311-2.365-1.5466-4-1.5466-1.102 0-2.045.2666-2.827.8-.746.4977-1.351 1.1733-1.813 2.0266-.462.8178-.8 1.7423-1.013 2.7734-.178.9955-.267 1.9911-.267 2.9866zm52.728-8.1066h-15.413l-1.493 8.48.106.1066c1.031-1.0311 2.134-1.76 3.307-2.1866 1.173-.4623 2.507-.6934 4-.6934 1.849 0 3.484.3378 4.907 1.0134 1.422.6755 2.613 1.5822 3.573 2.72.996 1.1377 1.742 2.4889 2.24 4.0533.533 1.5289.8 3.1644.8 4.9067 0 1.9203-.373 3.7153-1.12 5.3863-.747 1.636-1.76 3.058-3.04 4.267-1.244 1.209-2.702 2.151-4.373 2.827-1.671.64-3.449.942-5.334.906-1.813 0-3.555-.231-5.226-.693-1.636-.498-3.094-1.244-4.374-2.24s-2.311-2.222-3.093-3.68c-.747-1.493-1.138-3.218-1.173-5.1733h7.573c.178 1.7063.818 3.0753 1.92 4.1063 1.102.996 2.507 1.494 4.213 1.494.996 0 1.885-.196 2.667-.587.818-.427 1.493-.96 2.027-1.6.569-.676.995-1.44 1.28-2.293.32-.889.48-1.7959.48-2.7203 0-.96-.143-1.8667-.427-2.72-.284-.8534-.711-1.6-1.28-2.24s-1.244-1.1378-2.027-1.4934c-.782-.3555-1.689-.5333-2.72-.5333-1.351 0-2.453.2489-3.306.7467-.854.4622-1.654 1.2089-2.4 2.24h-6.827l3.68-20.64h20.853zm19.946 17.3333c0 1.1022.107 2.1867.32 3.253.214 1.031.569 1.974 1.067 2.827.533.818 1.227 1.476 2.08 1.973.853.498 1.92.747 3.2.747s2.347-.249 3.2-.747c.889-.497 1.582-1.155 2.08-1.973.533-.853.907-1.796 1.12-2.827.213-1.0663.32-2.1508.32-3.253s-.107-2.1867-.32-3.2533c-.213-1.0667-.587-2.0089-1.12-2.8267-.498-.8178-1.191-1.4756-2.08-1.9733-.853-.5334-1.92-.8-3.2-.8s-2.347.2666-3.2.8c-.853.4977-1.547 1.1555-2.08 1.9733-.498.8178-.853 1.76-1.067 2.8267-.213 1.0666-.32 2.1511-.32 3.2533zm-7.573 0c0-2.2044.338-4.1956 1.013-5.9733.676-1.8134 1.636-3.3423 2.88-4.5867 1.245-1.28 2.738-2.2578 4.48-2.9333 1.742-.7111 3.698-1.0667 5.867-1.0667s4.124.3556 5.867 1.0667c1.777.6755 3.288 1.6533 4.533 2.9333 1.244 1.2444 2.204 2.7733 2.88 4.5867.675 1.7777 1.013 3.7689 1.013 5.9733s-.338 4.196-1.013 5.973c-.676 1.778-1.636 3.307-2.88 4.587-1.245 1.244-2.756 2.204-4.533 2.88-1.743.676-3.698 1.013-5.867 1.013s-4.125-.337-5.867-1.013-3.235-1.636-4.48-2.88c-1.244-1.28-2.204-2.809-2.88-4.587-.675-1.777-1.013-3.7686-1.013-5.973zm49.671-8.7467h-8.587v22.5067h-7.573v-22.5067h-4.534v-5.0666h4.534v-2.1334c0-2.4533.764-4.4622 2.293-6.0266 1.529-1.5645 3.84-2.3467 6.933-2.3467.676 0 1.351.0356 2.027.1067.676.0355 1.333.0711 1.973.1066v5.6534c-.924-.1067-1.849-.16-2.773-.16-1.031 0-1.778.2489-2.24.7466-.427.4623-.64 1.2623-.64 2.4v1.6534h8.587v-2.1334c0-2.4533.764-4.4622 2.293-6.0266 1.529-1.5645 3.84-2.3467 6.933-2.3467.676 0 1.351.0356 2.027.1067.676.0355 1.333.0711 1.973.1066v5.6534c-.924-.1067-1.849-.16-2.773-.16-1.031 0-1.778.2489-2.24.7466-.427.4623-.64 1.2623-.64 2.4v1.6534h5.227v5.0666h-5.227v22.5067h-7.573zm224.827-2.9173c-.022 1.216.298 2.176.96 2.88.661.704 1.482 1.152 2.464 1.344v-6.688c-.107-.0427-.256-.0853-.448-.128-.171-.064-.363-.1173-.576-.16-.79-.2133-1.568-.4587-2.336-.736-.768-.2987-1.462-.6827-2.08-1.152-.598-.4907-1.078-1.088-1.44-1.792-.363-.7253-.544-1.6213-.544-2.688 0-1.088.202-2.048.608-2.88.426-.832.981-1.5253 1.664-2.08.682-.576 1.472-1.0133 2.368-1.312.896-.32 1.824-.512 2.784-.576v-2.464h1.888v2.464c.96.1067 1.856.32 2.688.64.853.2987 1.6.7253 2.24 1.28.64.5333 1.162 1.2053 1.568 2.016.405.8107.64 1.7707.704 2.88h-4.544c-.022-.8533-.288-1.5787-.8-2.176s-1.131-.896-1.856-.896v5.664c.256.064.512.128.768.192.277.064.565.1387.864.224 1.578.4267 2.794.96 3.648 1.6.853.6187 1.482 1.2693 1.888 1.952.405.6827.64 1.3653.704 2.048.085.6827.128 1.2907.128 1.824 0 .4693-.118 1.0667-.352 1.792-.235.704-.662 1.3973-1.28 2.08-.598.6827-1.408 1.2907-2.432 1.824s-2.336.8533-3.936.96v2.72h-1.888v-2.72c-2.39-.1707-4.256-.9067-5.6-2.208s-2.123-3.2107-2.336-5.728zm5.312 4.224c.384-.0427.778-.128 1.184-.256.426-.1493.8-.352 1.12-.608.341-.256.618-.5653.832-.928.213-.384.32-.832.32-1.344 0-.832-.267-1.4507-.8-1.856-.512-.4267-1.398-.8107-2.656-1.152zm-1.888-16.448c-.363 0-.715.0533-1.056.16-.342.1067-.651.2773-.928.512-.278.2133-.502.4907-.672.832-.15.32-.224.704-.224 1.152 0 .704.224 1.248.672 1.632s1.184.6933 2.208.928zm31.712 37.648h-7.574v-24.2133h-9.386v-5.7067c1.315.0356 2.577-.0533 3.786-.2667 1.245-.2489 2.347-.6577 3.307-1.2266.995-.6045 1.831-1.3867 2.507-2.3467.675-.96 1.12-2.1511 1.333-3.5733h6.027zm14.222-18.8267c0 1.0667.035 2.3645.106 3.8934.071 1.4933.285 2.9511.64 4.3733.391 1.387.996 2.578 1.814 3.573.817.996 1.991 1.494 3.52 1.494 1.564 0 2.755-.498 3.573-1.494.853-.995 1.458-2.186 1.813-3.573.391-1.4222.623-2.88.694-4.3733.071-1.5289.106-2.8267.106-3.8934 0-.64-.017-1.4044-.053-2.2933 0-.9244-.071-1.8667-.213-2.8267-.107-.96-.285-1.9022-.534-2.8266-.213-.96-.551-1.8134-1.013-2.56-.462-.7467-1.049-1.3511-1.76-1.8134-.711-.4622-1.582-.6933-2.613-.6933s-1.903.2311-2.614.6933c-.675.4623-1.244 1.0667-1.706 1.8134-.427.7466-.765 1.6-1.014 2.56-.249.9244-.426 1.8666-.533 2.8266s-.178 1.9023-.213 2.8267zm-7.574 0c0-3.6266.356-6.6666 1.067-9.12.747-2.4889 1.742-4.48 2.987-5.9733 1.244-1.4933 2.684-2.56 4.32-3.2 1.671-.64 3.431-.96 5.28-.96 1.884 0 3.644.32 5.28.96 1.671.64 3.129 1.7067 4.373 3.2 1.28 1.4933 2.276 3.4844 2.987 5.9733.746 2.4534 1.12 5.4934 1.12 9.12 0 3.7334-.374 6.8623-1.12 9.3867-.711 2.489-1.707 4.48-2.987 5.973-1.244 1.494-2.702 2.56-4.373 3.2-1.636.64-3.396.96-5.28.96-1.849 0-3.609-.32-5.28-.96-1.636-.64-3.076-1.706-4.32-3.2-1.245-1.493-2.24-3.484-2.987-5.973-.711-2.5244-1.067-5.6533-1.067-9.3867zm37.209 0c0 1.0667.036 2.3645.107 3.8934.071 1.4933.284 2.9511.64 4.3733.391 1.387.995 2.578 1.813 3.573.818.996 1.991 1.494 3.52 1.494 1.565 0 2.756-.498 3.573-1.494.854-.995 1.458-2.186 1.814-3.573.391-1.4222.622-2.88.693-4.3733.071-1.5289.107-2.8267.107-3.8934 0-.64-.018-1.4044-.054-2.2933 0-.9244-.071-1.8667-.213-2.8267-.107-.96-.284-1.9022-.533-2.8266-.214-.96-.551-1.8134-1.014-2.56-.462-.7467-1.048-1.3511-1.76-1.8134-.711-.4622-1.582-.6933-2.613-.6933s-1.902.2311-2.613.6933c-.676.4623-1.245 1.0667-1.707 1.8134-.427.7466-.764 1.6-1.013 2.56-.249.9244-.427 1.8666-.534 2.8266-.106.96-.177 1.9023-.213 2.8267zm-7.573 0c0-3.6266.355-6.6666 1.066-9.12.747-2.4889 1.743-4.48 2.987-5.9733 1.245-1.4933 2.685-2.56 4.32-3.2 1.671-.64 3.431-.96 5.28-.96 1.885 0 3.645.32 5.28.96 1.671.64 3.129 1.7067 4.373 3.2 1.28 1.4933 2.276 3.4844 2.987 5.9733.747 2.4534 1.12 5.4934 1.12 9.12 0 3.7334-.373 6.8623-1.12 9.3867-.711 2.489-1.707 4.48-2.987 5.973-1.244 1.494-2.702 2.56-4.373 3.2-1.635.64-3.395.96-5.28.96-1.849 0-3.609-.32-5.28-.96-1.635-.64-3.075-1.706-4.32-3.2-1.244-1.493-2.24-3.484-2.987-5.973-.711-2.5244-1.066-5.6533-1.066-9.3867z" fill="#bd0000"/><path d="m571.45 83.48h3.573l9.067 23.467 8.48-23.467h3.36l-11.947 31.68c-.497 1.173-.96 2.133-1.386 2.88-.427.782-.907 1.387-1.44 1.813-.498.463-1.103.783-1.814.96-.675.214-1.546.32-2.613.32-.676-.035-1.209-.071-1.6-.106-.356 0-.676-.054-.96-.16v-2.827c.391.071.764.124 1.12.16.391.071.782.107 1.173.107.747 0 1.351-.107 1.814-.32.497-.214.924-.516 1.28-.907.355-.356.657-.8.906-1.333.249-.534.516-1.12.8-1.76l1.174-3.094zm37.808 2.0267c-1.6 0-3.005.3377-4.214 1.0133s-2.222 1.5644-3.04 2.6667c-.782 1.1022-1.386 2.3644-1.813 3.7866-.391 1.3867-.587 2.8089-.587 4.2667s.196 2.898.587 4.32c.427 1.387 1.031 2.631 1.813 3.733.818 1.103 1.831 1.991 3.04 2.667s2.614 1.013 4.214 1.013 3.004-.337 4.213-1.013 2.204-1.564 2.987-2.667c.817-1.102 1.422-2.346 1.813-3.733.427-1.422.64-2.8622.64-4.32s-.213-2.88-.64-4.2667c-.391-1.4222-.996-2.6844-1.813-3.7866-.783-1.1023-1.778-1.9911-2.987-2.6667s-2.613-1.0133-4.213-1.0133zm0-2.8267c2.097 0 3.946.3911 5.546 1.1733 1.636.7823 3.005 1.8311 4.107 3.1467s1.938 2.8622 2.507 4.64c.568 1.7422.853 3.6089.853 5.6s-.285 3.876-.853 5.653c-.569 1.743-1.405 3.271-2.507 4.587s-2.471 2.364-4.107 3.147c-1.6.746-3.449 1.12-5.546 1.12-2.098 0-3.965-.374-5.6-1.12-1.6-.783-2.952-1.831-4.054-3.147s-1.938-2.844-2.506-4.587c-.569-1.777-.854-3.6619-.854-5.653s.285-3.8578.854-5.6c.568-1.7778 1.404-3.3244 2.506-4.64s2.454-2.3644 4.054-3.1467c1.635-.7822 3.502-1.1733 5.6-1.1733zm38.702 28.32h-3.094v-4.96h-.106c-.889 1.849-2.187 3.271-3.894 4.267-1.671.96-3.538 1.44-5.6 1.44-1.742 0-3.235-.249-4.48-.747-1.209-.462-2.204-1.138-2.986-2.027-.747-.889-1.298-1.973-1.654-3.253-.355-1.28-.533-2.738-.533-4.373v-17.867h3.36v17.92c.071 2.489.64 4.373 1.707 5.653 1.102 1.28 2.986 1.92 5.653 1.92 1.458 0 2.702-.302 3.733-.906 1.031-.64 1.885-1.476 2.56-2.507.676-1.031 1.174-2.204 1.494-3.52.32-1.351.48-2.72.48-4.1067v-14.4533h3.36zm4.752-27.52h3.093v6.4533h.107c.853-2.24 2.169-3.9644 3.947-5.1733 1.813-1.2089 3.964-1.76 6.453-1.6533v3.36c-1.529-.0711-2.915.1422-4.16.64-1.244.4622-2.329 1.1377-3.253 2.0266-.889.8889-1.582 1.9556-2.08 3.2-.498 1.2089-.747 2.5423-.747 4v14.6667h-3.36zm42.333-10.56h3.36v5.3867h-3.36zm-12.053 13.3867h-4.693v-2.8267h4.693v-2.5067c0-1.1733.089-2.2577.267-3.2533s.515-1.8489 1.013-2.56 1.173-1.2622 2.027-1.6533c.889-.3911 2.009-.5867 3.36-.5867.498 0 .96.0178 1.386.0533.427.0356.907.0889 1.44.16v2.88c-.462-.0711-.888-.1244-1.28-.16-.391-.0711-.782-.1066-1.173-.1066-.924 0-1.635.1422-2.133.4266-.498.2845-.871.6756-1.12 1.1734-.214.4622-.338 1.0133-.374 1.6533-.035.64-.053 1.3333-.053 2.08v2.4h5.44v2.8267h-5.44v24.6933h-3.36zm12.053-2.8267h3.36v27.52h-3.36zm8.232 0h3.093v6.4533h.107c.853-2.24 2.169-3.9644 3.946-5.1733 1.814-1.2089 3.965-1.76 6.454-1.6533v3.36c-1.529-.0711-2.916.1422-4.16.64-1.245.4622-2.329 1.1377-3.254 2.0266-.889.8889-1.582 1.9556-2.08 3.2-.497 1.2089-.746 2.5423-.746 4v14.6667h-3.36zm31.703 8.0533c-.036-1.0311-.249-1.92-.64-2.6666-.392-.7823-.925-1.4223-1.6-1.92-.64-.4978-1.387-.8534-2.24-1.0667-.854-.2489-1.76-.3733-2.72-.3733-.747 0-1.512.0889-2.294.2666-.746.1423-1.44.4089-2.08.8-.64.3556-1.155.8356-1.546 1.44-.392.6045-.587 1.3511-.587 2.24 0 .7467.178 1.3867.533 1.92.391.4978.871.9245 1.44 1.28.569.3556 1.191.6578 1.867.9067.675.2133 1.298.3911 1.867.5333l4.48 1.0134c.96.1422 1.902.4089 2.826.8.96.3555 1.796.8355 2.507 1.44.747.6044 1.351 1.3511 1.813 2.2403.462.889.694 1.937.694 3.146 0 1.494-.338 2.774-1.014 3.84-.675 1.031-1.546 1.885-2.613 2.56-1.031.64-2.205 1.103-3.52 1.387-1.316.284-2.613.427-3.893.427-3.236 0-5.867-.765-7.894-2.294-1.991-1.529-3.129-3.982-3.413-7.36h3.36c.142 2.276.96 4 2.453 5.174 1.529 1.137 3.414 1.706 5.654 1.706.817 0 1.653-.089 2.506-.266.889-.178 1.707-.48 2.454-.907.746-.427 1.351-.96 1.813-1.6.498-.676.747-1.493.747-2.453 0-.818-.178-1.494-.534-2.027-.32-.569-.764-1.031-1.333-1.387-.569-.3908-1.227-.7108-1.973-.9597-.712-.2489-1.44-.4622-2.187-.64l-4.32-.96c-1.102-.2844-2.116-.6044-3.04-.96-.925-.3911-1.742-.8533-2.453-1.3866-.676-.5689-1.209-1.2445-1.6-2.0267-.392-.8178-.587-1.8133-.587-2.9867 0-1.3866.302-2.5777.907-3.5733.64-.9956 1.457-1.7956 2.453-2.4.995-.6044 2.098-1.0489 3.307-1.3333 1.244-.2845 2.471-.4267 3.68-.4267 1.386 0 2.666.1778 3.84.5333 1.208.3556 2.257.9067 3.146 1.6534.925.7466 1.654 1.6711 2.187 2.7733s.835 2.4.907 3.8933zm12.93-8.0533h5.6v2.8267h-5.6v18.5603c0 1.102.142 1.973.427 2.613.32.604 1.084.942 2.293 1.013.96 0 1.92-.053 2.88-.16v2.827c-.498 0-.996.018-1.493.053-.498.036-.996.054-1.494.054-2.24 0-3.804-.427-4.693-1.28-.889-.889-1.316-2.507-1.28-4.854v-18.8263h-4.8v-2.8267h4.8v-8.2667h3.36zm165.72 2.0267c-1.6 0-3.004.3377-4.213 1.0133s-2.223 1.5644-3.04 2.6667c-.783 1.1022-1.387 2.3644-1.814 3.7866-.391 1.3867-.586 2.8089-.586 4.2667s.195 2.898.586 4.32c.427 1.387 1.031 2.631 1.814 3.733.817 1.103 1.831 1.991 3.04 2.667s2.613 1.013 4.213 1.013 3.004-.337 4.213-1.013 2.205-1.564 2.987-2.667c.818-1.102 1.422-2.346 1.813-3.733.427-1.422.64-2.8622.64-4.32s-.213-2.88-.64-4.2667c-.391-1.4222-.995-2.6844-1.813-3.7866-.782-1.1023-1.778-1.9911-2.987-2.6667s-2.613-1.0133-4.213-1.0133zm0-2.8267c2.098 0 3.947.3911 5.547 1.1733 1.635.7823 3.004 1.8311 4.106 3.1467 1.103 1.3156 1.938 2.8622 2.507 4.64.569 1.7422.853 3.6089.853 5.6s-.284 3.876-.853 5.653c-.569 1.743-1.404 3.271-2.507 4.587-1.102 1.316-2.471 2.364-4.106 3.147-1.6.746-3.449 1.12-5.547 1.12s-3.964-.374-5.6-1.12c-1.6-.783-2.951-1.831-4.053-3.147-1.103-1.316-1.938-2.844-2.507-4.587-.569-1.777-.853-3.6619-.853-5.653s.284-3.8578.853-5.6c.569-1.7778 1.404-3.3244 2.507-4.64 1.102-1.3156 2.453-2.3644 4.053-3.1467 1.636-.7822 3.502-1.1733 5.6-1.1733zm13.315.8h3.734l8.64 24.16h.106l8.534-24.16h3.466l-10.293 27.52h-3.573zm45.968 11.84c-.036-1.28-.267-2.5067-.693-3.68-.392-1.1733-.96-2.2044-1.707-3.0933-.747-.9245-1.653-1.6534-2.72-2.1867-1.067-.5689-2.276-.8533-3.627-.8533-1.386 0-2.613.2844-3.68.8533-1.066.5333-1.973 1.2622-2.72 2.1867-.746.8889-1.351 1.9377-1.813 3.1466-.427 1.1734-.711 2.3823-.853 3.6267zm-17.813 2.8267c0 1.2089.16 2.4713.48 3.7863.355 1.28.906 2.436 1.653 3.467s1.689 1.884 2.827 2.56c1.137.676 2.506 1.013 4.106 1.013 2.454 0 4.374-.64 5.76-1.92 1.387-1.28 2.347-2.986 2.88-5.12h3.36c-.711 3.129-2.026 5.547-3.946 7.254-1.885 1.706-4.569 2.56-8.054 2.56-2.169 0-4.053-.374-5.653-1.12-1.565-.783-2.845-1.831-3.84-3.147-.996-1.351-1.742-2.898-2.24-4.64-.462-1.778-.693-3.6444-.693-5.6 0-1.8133.231-3.5911.693-5.3333.498-1.7423 1.244-3.2889 2.24-4.64.995-1.3867 2.275-2.4889 3.84-3.3067 1.6-.8533 3.484-1.28 5.653-1.28 2.205 0 4.089.4444 5.654 1.3333 1.564.8889 2.826 2.0623 3.786 3.52.996 1.4223 1.707 3.0756 2.134 4.96.426 1.8489.604 3.7334.533 5.6534zm24.083-14.6667h3.093v6.4533h.107c.853-2.24 2.168-3.9644 3.946-5.1733 1.814-1.2089 3.965-1.76 6.454-1.6533v3.36c-1.529-.0711-2.916.1422-4.16.64-1.245.4622-2.329 1.1377-3.254 2.0266-.889.8889-1.582 1.9556-2.08 3.2-.498 1.2089-.746 2.5423-.746 4v14.6667h-3.36zm31.707 8.0533c-.04-1.0311-.25-1.92-.64-2.6666-.4-.7823-.93-1.4223-1.6-1.92-.64-.4978-1.39-.8534-2.24-1.0667-.86-.2489-1.76-.3733-2.72-.3733-.75 0-1.52.0889-2.3.2666-.74.1423-1.438.4089-2.078.8-.64.3556-1.155.8356-1.547 1.44-.391.6045-.586 1.3511-.586 2.24 0 .7467.178 1.3867.533 1.92.391.4978.871.9245 1.44 1.28.569.3556 1.188.6578 1.868.9067.67.2133 1.3.3911 1.87.5333l4.48 1.0134c.96.1422 1.9.4089 2.82.8.96.3555 1.8.8355 2.51 1.44.75.6044 1.35 1.3511 1.81 2.2403.46.889.7 1.937.7 3.146 0 1.494-.34 2.774-1.02 3.84-.67 1.031-1.54 1.885-2.61 2.56-1.03.64-2.21 1.103-3.52 1.387-1.32.284-2.61.427-3.89.427-3.24 0-5.871-.765-7.898-2.294-1.991-1.529-3.129-3.982-3.413-7.36h3.36c.142 2.276.96 4 2.453 5.174 1.528 1.137 3.418 1.706 5.658 1.706.81 0 1.65-.089 2.5-.266.89-.178 1.71-.48 2.46-.907.74-.427 1.35-.96 1.81-1.6.5-.676.75-1.493.75-2.453 0-.818-.18-1.494-.54-2.027-.32-.569-.76-1.031-1.33-1.387-.57-.3908-1.23-.7108-1.97-.9597-.72-.2489-1.44-.4622-2.19-.64l-4.32-.96c-1.1-.2844-2.117-.6044-3.041-.96-.925-.3911-1.742-.8533-2.454-1.3866-.675-.5689-1.208-1.2445-1.6-2.0267-.391-.8178-.586-1.8133-.586-2.9867 0-1.3866.302-2.5777.906-3.5733.64-.9956 1.458-1.7956 2.454-2.4.995-.6044 2.098-1.0489 3.311-1.3333 1.24-.2845 2.47-.4267 3.68-.4267 1.38 0 2.66.1778 3.84.5333 1.2.3556 2.25.9067 3.14 1.6534.93.7466 1.66 1.6711 2.19 2.7733s.83 2.4.91 3.8933zm12.93-8.0533h5.6v2.8267h-5.6v18.5603c0 1.102.14 1.973.42 2.613.32.604 1.09.942 2.3 1.013.96 0 1.92-.053 2.88-.16v2.827c-.5 0-1 .018-1.5.053-.5.036-.99.054-1.49.054-2.24 0-3.81-.427-4.69-1.28-.89-.889-1.32-2.507-1.28-4.854v-18.8263h-4.8v-2.8267h4.8v-8.2667h3.36zm20.47 2.0267c-1.6 0-3 .3377-4.21 1.0133s-2.23 1.5644-3.04 2.6667c-.79 1.1022-1.39 2.3644-1.82 3.7866-.39 1.3867-.58 2.8089-.58 4.2667s.19 2.898.58 4.32c.43 1.387 1.03 2.631 1.82 3.733.81 1.103 1.83 1.991 3.04 2.667s2.61 1.013 4.21 1.013 3-.337 4.21-1.013 2.21-1.564 2.99-2.667c.82-1.102 1.42-2.346 1.81-3.733.43-1.422.64-2.8622.64-4.32s-.21-2.88-.64-4.2667c-.39-1.4222-.99-2.6844-1.81-3.7866-.78-1.1023-1.78-1.9911-2.99-2.6667s-2.61-1.0133-4.21-1.0133zm0-2.8267c2.1 0 3.95.3911 5.55 1.1733 1.63.7823 3 1.8311 4.1 3.1467 1.11 1.3156 1.94 2.8622 2.51 4.64.57 1.7422.85 3.6089.85 5.6s-.28 3.876-.85 5.653c-.57 1.743-1.4 3.271-2.51 4.587-1.1 1.316-2.47 2.364-4.1 3.147-1.6.746-3.45 1.12-5.55 1.12s-3.96-.374-5.6-1.12c-1.6-.783-2.95-1.831-4.05-3.147-1.11-1.316-1.94-2.844-2.51-4.587-.57-1.777-.85-3.6619-.85-5.653s.28-3.8578.85-5.6c.57-1.7778 1.4-3.3244 2.51-4.64 1.1-1.3156 2.45-2.3644 4.05-3.1467 1.64-.7822 3.5-1.1733 5.6-1.1733zm35.82 9.44c-.46-2.0622-1.31-3.68-2.56-4.8533-1.24-1.1734-2.98-1.76-5.22-1.76-1.6 0-3.01.3377-4.22 1.0133s-2.22 1.5644-3.04 2.6667c-.78 1.1022-1.38 2.3644-1.81 3.7866-.39 1.3867-.59 2.8089-.59 4.2667s.2 2.898.59 4.32c.43 1.387 1.03 2.631 1.81 3.733.82 1.103 1.83 1.991 3.04 2.667s2.62 1.013 4.22 1.013c1.03 0 2-.195 2.93-.586.92-.391 1.74-.925 2.45-1.6.71-.711 1.3-1.547 1.76-2.507s.75-2.009.86-3.147h3.36c-.47 3.343-1.69 5.956-3.68 7.84-2 1.849-4.56 2.774-7.68 2.774-2.1 0-3.97-.374-5.6-1.12-1.6-.783-2.96-1.831-4.06-3.147s-1.94-2.844-2.5-4.587c-.57-1.777-.86-3.6619-.86-5.653s.29-3.8578.86-5.6c.56-1.7778 1.4-3.3244 2.5-4.64s2.46-2.3644 4.06-3.1467c1.63-.7822 3.5-1.1733 5.6-1.1733 2.95 0 5.44.7822 7.46 2.3467 2.06 1.5644 3.29 3.9289 3.68 7.0933zm6.65-19.2h3.36v23.8933l15.25-13.3333h4.48l-11.73 10.1867 12.53 17.3333h-4.21l-10.88-14.9867-5.44 4.5337v10.453h-3.36zm38.31 10.56h3.09v5.2267h.11c.78-1.92 2.04-3.3956 3.78-4.4267 1.78-1.0667 3.79-1.6 6.03-1.6 2.1 0 3.91.3911 5.44 1.1733 1.56.7823 2.86 1.8489 3.89 3.2 1.03 1.3156 1.8 2.8623 2.3 4.64.49 1.7423.74 3.5911.74 5.5467s-.25 3.822-.74 5.6c-.5 1.742-1.27 3.289-2.3 4.64-1.03 1.316-2.33 2.364-3.89 3.147-1.53.746-3.34 1.12-5.44 1.12-1 0-1.99-.125-2.99-.374-.99-.249-1.92-.622-2.77-1.12-.85-.497-1.62-1.12-2.29-1.866-.64-.747-1.14-1.618-1.5-2.614h-.1v15.36h-3.36zm22.02 13.76c0-1.4222-.18-2.8267-.53-4.2133-.32-1.4223-.85-2.6845-1.6-3.7867-.71-1.1022-1.64-1.9911-2.77-2.6667-1.14-.7111-2.51-1.0666-4.11-1.0666-1.85 0-3.4.32-4.64.96-1.25.64-2.24 1.4933-2.99 2.56-.74 1.0666-1.28 2.3111-1.6 3.7333-.28 1.4222-.42 2.9156-.42 4.48 0 1.4222.16 2.844.48 4.267.35 1.386.9 2.631 1.65 3.733.78 1.102 1.78 2.009 2.99 2.72 1.24.676 2.75 1.013 4.53 1.013 1.6 0 2.97-.337 4.11-1.013 1.13-.711 2.06-1.618 2.77-2.72.75-1.102 1.28-2.347 1.6-3.733.35-1.423.53-2.8448.53-4.267zm29.29 13.76h-3.09v-4.96h-.11c-.88 1.849-2.18 3.271-3.89 4.267-1.67.96-3.54 1.44-5.6 1.44-1.74 0-3.23-.249-4.48-.747-1.21-.462-2.2-1.138-2.99-2.027-.74-.889-1.29-1.973-1.65-3.253-.35-1.28-.53-2.738-.53-4.373v-17.867h3.36v17.92c.07 2.489.64 4.373 1.7 5.653 1.11 1.28 2.99 1.92 5.66 1.92 1.46 0 2.7-.302 3.73-.906 1.03-.64 1.89-1.476 2.56-2.507.68-1.031 1.17-2.204 1.49-3.52.32-1.351.48-2.72.48-4.1067v-14.4533h3.36zm4.76-27.52h3.09v6.4533h.11c.85-2.24 2.17-3.9644 3.94-5.1733 1.82-1.2089 3.97-1.76 6.46-1.6533v3.36c-1.53-.0711-2.92.1422-4.16.64-1.25.4622-2.33 1.1377-3.26 2.0266-.89.8889-1.58 1.9556-2.08 3.2-.49 1.2089-.74 2.5423-.74 4v14.6667h-3.36zm33.7 8.64c-.47-2.0622-1.32-3.68-2.56-4.8533-1.25-1.1734-2.99-1.76-5.23-1.76-1.6 0-3.01.3377-4.21 1.0133-1.21.6756-2.23 1.5644-3.04 2.6667-.79 1.1022-1.39 2.3644-1.82 3.7866-.39 1.3867-.58 2.8089-.58 4.2667s.19 2.898.58 4.32c.43 1.387 1.03 2.631 1.82 3.733.81 1.103 1.83 1.991 3.04 2.667 1.2.676 2.61 1.013 4.21 1.013 1.03 0 2.01-.195 2.93-.586.93-.391 1.74-.925 2.46-1.6.71-.711 1.29-1.547 1.76-2.507.46-.96.74-2.009.85-3.147h3.36c-.46 3.343-1.69 5.956-3.68 7.84-1.99 1.849-4.55 2.774-7.68 2.774-2.1 0-3.97-.374-5.6-1.12-1.6-.783-2.95-1.831-4.05-3.147-1.11-1.316-1.94-2.844-2.51-4.587-.57-1.777-.85-3.6619-.85-5.653s.28-3.8578.85-5.6c.57-1.7778 1.4-3.3244 2.51-4.64 1.1-1.3156 2.45-2.3644 4.05-3.1467 1.63-.7822 3.5-1.1733 5.6-1.1733 2.95 0 5.44.7822 7.47 2.3467 2.06 1.5644 3.28 3.9289 3.68 7.0933zm6.59-19.2h3.36v15.3067h.1c.64-1.6711 1.78-3.0045 3.42-4 1.63-1.0311 3.43-1.5467 5.38-1.5467 1.92 0 3.52.2489 4.8.7467 1.32.4977 2.37 1.2089 3.15 2.1333.78.8889 1.33 1.9911 1.65 3.3067.32 1.3155.48 2.7911.48 4.4266v17.7067h-3.36v-17.1733c0-1.1734-.1-2.2578-.32-3.2534-.21-1.0311-.58-1.92-1.12-2.6666-.53-.7467-1.26-1.3334-2.18-1.76-.89-.4267-2.01-.64-3.36-.64-1.36 0-2.56.2489-3.63.7466-1.03.4623-1.92 1.12-2.67 1.9734-.71.8177-1.28 1.8133-1.7 2.9866-.4 1.1378-.61 2.3823-.64 3.7334v16.0533h-3.36zm26.77 18.9867c.11-1.6.45-2.9867 1.02-4.16.57-1.1734 1.33-2.1334 2.29-2.88 1-.7467 2.15-1.2978 3.47-1.6534 1.31-.3555 2.77-.5333 4.37-.5333 1.21 0 2.42.1244 3.63.3733 1.21.2134 2.29.64 3.25 1.28s1.74 1.5467 2.35 2.72c.6 1.1378.9 2.6311.9 4.48v14.6137c0 1.351.66 2.026 1.98 2.026.39 0 .74-.071 1.06-.213v2.827c-.39.071-.74.124-1.06.16-.29.035-.66.053-1.12.053-.86 0-1.55-.107-2.08-.32-.5-.249-.89-.587-1.18-1.013-.28-.427-.48-.925-.58-1.494-.07-.604-.11-1.262-.11-1.973h-.11c-.6.889-1.22 1.689-1.86 2.4-.61.676-1.3 1.244-2.08 1.707-.75.462-1.62.817-2.62 1.066-.96.249-2.11.374-3.46.374-1.28 0-2.49-.16-3.63-.48-1.1-.285-2.08-.747-2.93-1.387-.82-.676-1.48-1.511-1.98-2.507-.46-1.031-.69-2.24-.69-3.626 0-1.92.43-3.414 1.28-4.4803.85-1.1023 1.97-1.9378 3.36-2.5067 1.42-.5689 3.01-.96 4.75-1.1733 1.78-.2489 3.57-.48 5.38-.6934.72-.0711 1.34-.16 1.87-.2666.53-.1067.98-.2845 1.33-.5334.36-.2844.63-.6577.8-1.12.22-.4622.32-1.0666.32-1.8133 0-1.1378-.19-2.0622-.58-2.7733-.36-.7467-.87-1.3334-1.55-1.76-.64-.4267-1.4-.7111-2.29-.8534-.86-.1777-1.78-.2666-2.78-.2666-2.13 0-3.87.5155-5.22 1.5466-1.35.9956-2.06 2.6134-2.14 4.8534zm17.92 4.0533h-.1c-.22.3911-.62.6756-1.23.8533-.6.1778-1.14.3023-1.6.3734-1.42.2489-2.9.48-4.43.6933-1.49.1778-2.86.4622-4.1.8533-1.25.3911-2.28.96-3.1 1.7067-.78.711-1.17 1.742-1.17 3.093 0 .854.16 1.618.48 2.294.36.64.82 1.209 1.39 1.706.57.463 1.22.818 1.97 1.067s1.51.373 2.29.373c1.28 0 2.51-.195 3.68-.586 1.18-.391 2.19-.96 3.04-1.707.89-.747 1.59-1.653 2.08-2.72.54-1.067.8-2.276.8-3.627zm24.94-4.4267c-.04-1.0311-.25-1.92-.64-2.6666-.39-.7823-.92-1.4223-1.6-1.92-.64-.4978-1.39-.8534-2.24-1.0667-.85-.2489-1.76-.3733-2.72-.3733-.75 0-1.51.0889-2.29.2666-.75.1423-1.44.4089-2.08.8-.64.3556-1.16.8356-1.55 1.44-.39.6045-.59 1.3511-.59 2.24 0 .7467.18 1.3867.54 1.92.39.4978.87.9245 1.44 1.28.57.3556 1.19.6578 1.86.9067.68.2133 1.3.3911 1.87.5333l4.48 1.0134c.96.1422 1.9.4089 2.83.8.96.3555 1.79.8355 2.5 1.44.75.6044 1.35 1.3511 1.82 2.2403.46.889.69 1.937.69 3.146 0 1.494-.34 2.774-1.01 3.84-.68 1.031-1.55 1.885-2.62 2.56-1.03.64-2.2 1.103-3.52 1.387-1.31.284-2.61.427-3.89.427-3.24 0-5.87-.765-7.89-2.294-1.99-1.529-3.13-3.982-3.42-7.36h3.36c.15 2.276.96 4 2.46 5.174 1.53 1.137 3.41 1.706 5.65 1.706.82 0 1.65-.089 2.51-.266.89-.178 1.7-.48 2.45-.907s1.35-.96 1.81-1.6c.5-.676.75-1.493.75-2.453 0-.818-.18-1.494-.53-2.027-.32-.569-.77-1.031-1.34-1.387-.57-.3908-1.22-.7108-1.97-.9597-.71-.2489-1.44-.4622-2.19-.64l-4.32-.96c-1.1-.2844-2.11-.6044-3.04-.96-.92-.3911-1.74-.8533-2.45-1.3866-.68-.5689-1.21-1.2445-1.6-2.0267-.39-.8178-.59-1.8133-.59-2.9867 0-1.3866.31-2.5777.91-3.5733.64-.9956 1.46-1.7956 2.45-2.4 1-.6044 2.1-1.0489 3.31-1.3333 1.24-.2845 2.47-.4267 3.68-.4267 1.39 0 2.67.1778 3.84.5333 1.21.3556 2.26.9067 3.15 1.6534.92.7466 1.65 1.6711 2.18 2.7733.54 1.1022.84 2.4.91 3.8933zm27.38 3.7867c-.03-1.28-.26-2.5067-.69-3.68-.39-1.1733-.96-2.2044-1.71-3.0933-.74-.9245-1.65-1.6534-2.72-2.1867-1.06-.5689-2.27-.8533-3.62-.8533-1.39 0-2.62.2844-3.68.8533-1.07.5333-1.98 1.2622-2.72 2.1867-.75.8889-1.35 1.9377-1.82 3.1466-.42 1.1734-.71 2.3823-.85 3.6267zm-17.81 2.8267c0 1.2089.16 2.4713.48 3.7863.36 1.28.91 2.436 1.65 3.467.75 1.031 1.69 1.884 2.83 2.56s2.51 1.013 4.11 1.013c2.45 0 4.37-.64 5.76-1.92 1.38-1.28 2.34-2.986 2.88-5.12h3.36c-.71 3.129-2.03 5.547-3.95 7.254-1.88 1.706-4.57 2.56-8.05 2.56-2.17 0-4.06-.374-5.66-1.12-1.56-.783-2.84-1.831-3.84-3.147-.99-1.351-1.74-2.898-2.24-4.64-.46-1.778-.69-3.6444-.69-5.6 0-1.8133.23-3.5911.69-5.3333.5-1.7423 1.25-3.2889 2.24-4.64 1-1.3867 2.28-2.4889 3.84-3.3067 1.6-.8533 3.49-1.28 5.66-1.28 2.2 0 4.09.4444 5.65 1.3333 1.57.8889 2.83 2.0623 3.79 3.52.99 1.4223 1.7 3.0756 2.13 4.96.43 1.8489.61 3.7334.53 5.6534zm23.99-23.2267c.87-.0213 1.66-.064 2.37-.128.72-.0853 1.34-.2667 1.85-.544.54-.2773.97-.6933 1.31-1.248.37-.576.62-1.376.77-2.4h1.63v22.4h-2.01v-16.64h-5.92z" fill="#373636"/><path d="m880.802 92.6626h6.072v3.265h-6.072v6.0724h-3.265v-6.0724h-6.072v-3.265h6.072v-6.0723h3.265z" fill="#bd0000"/><g fill="#373636"><path d="m470.325 35.075c0 .9.117 1.7917.35 2.675.233.8667.6 1.65 1.1 2.35s1.142 1.2667 1.925 1.7c.783.4167 1.717.625 2.8.625s2.017-.2083 2.8-.625c.783-.4333 1.425-1 1.925-1.7s.867-1.4833 1.1-2.35c.233-.8833.35-1.775.35-2.675s-.117-1.7833-.35-2.65c-.233-.8833-.6-1.675-1.1-2.375s-1.142-1.2583-1.925-1.675c-.783-.4333-1.717-.65-2.8-.65s-2.017.2167-2.8.65c-.783.4167-1.425.975-1.925 1.675s-.867 1.4917-1.1 2.375c-.233.8667-.35 1.75-.35 2.65zm-2.375 0c0-1.2167.175-2.3833.525-3.5.367-1.1333.908-2.1333 1.625-3s1.608-1.5583 2.675-2.075 2.308-.775 3.725-.775 2.658.2583 3.725.775 1.958 1.2083 2.675 2.075 1.25 1.8667 1.6 3c.367 1.1167.55 2.2833.55 3.5s-.183 2.3917-.55 3.525c-.35 1.1167-.883 2.1083-1.6 2.975s-1.608 1.5583-2.675 2.075c-1.067.5-2.308.75-3.725.75s-2.658-.25-3.725-.75c-1.067-.5167-1.958-1.2083-2.675-2.075s-1.258-1.8583-1.625-2.975c-.35-1.1333-.525-2.3083-.525-3.525zm19.719-4h2.125v1.75h.05c.35-.7167.9-1.2333 1.65-1.55.75-.3333 1.575-.5 2.475-.5 1 0 1.867.1833 2.6.55.75.3667 1.367.8667 1.85 1.5.5.6167.875 1.3333 1.125 2.15s.375 1.6833.375 2.6-.125 1.7833-.375 2.6c-.233.8167-.6 1.5333-1.1 2.15-.483.6-1.1 1.075-1.85 1.425-.733.35-1.592.525-2.575.525-.317 0-.675-.0333-1.075-.1-.383-.0667-.767-.175-1.15-.325s-.75-.35-1.1-.6c-.333-.2667-.617-.5917-.85-.975h-.05v6.65h-2.125zm10 6.35c0-.6-.083-1.1833-.25-1.75-.15-.5833-.392-1.1-.725-1.55-.317-.45-.733-.8083-1.25-1.075-.5-.2667-1.092-.4-1.775-.4-.717 0-1.325.1417-1.825.425s-.908.6583-1.225 1.125c-.317.45-.55.9667-.7 1.55-.133.5833-.2 1.175-.2 1.775 0 .6333.075 1.25.225 1.85.15.5833.383 1.1.7 1.55.333.45.758.8167 1.275 1.1.517.2667 1.142.4 1.875.4s1.342-.1417 1.825-.425c.5-.2833.9-.6583 1.2-1.125s.517-1 .65-1.6.2-1.2167.2-1.85zm13.719-1.125c-.033-.5-.15-.975-.35-1.425-.183-.45-.441-.8333-.775-1.15-.316-.3333-.7-.5917-1.15-.775-.433-.2-.916-.3-1.45-.3-.55 0-1.05.1-1.5.3-.433.1833-.808.4417-1.125.775-.316.3333-.566.725-.75 1.175-.183.4333-.291.9-.325 1.4zm2.05 3.6c-.283 1.45-.908 2.5417-1.875 3.275-.966.7333-2.183 1.1-3.65 1.1-1.033 0-1.933-.1667-2.7-.5-.75-.3333-1.383-.8-1.9-1.4-.516-.6-.908-1.3167-1.175-2.15-.25-.8333-.391-1.7417-.425-2.725 0-.9833.15-1.8833.45-2.7s.717-1.525 1.25-2.125c.55-.6 1.192-1.0667 1.925-1.4.75-.3333 1.567-.5 2.45-.5 1.15 0 2.1.2417 2.85.725.767.4667 1.375 1.0667 1.825 1.8.467.7333.784 1.5333.95 2.4.184.8667.259 1.6917.225 2.475h-9.675c-.016.5667.05 1.1083.2 1.625.15.5.392.95.725 1.35.334.3833.759.6917 1.275.925.517.2333 1.125.35 1.825.35.9 0 1.634-.2083 2.2-.625.584-.4167.967-1.05 1.15-1.9zm2.403-8.825h2v2.05h.05c.884-1.5667 2.284-2.35 4.2-2.35.85 0 1.559.1167 2.125.35.567.2333 1.025.5583 1.375.975s.592.9167.725 1.5c.15.5667.225 1.2.225 1.9v8.5h-2.125v-8.75c0-.8-.233-1.4333-.7-1.9-.466-.4667-1.108-.7-1.925-.7-.65 0-1.216.1-1.7.3-.466.2-.858.4833-1.175.85-.316.3667-.558.8-.725 1.3-.15.4833-.225 1.0167-.225 1.6v7.3h-2.125zm32.3 12.875c-.367.2167-.875.325-1.525.325-.55 0-.992-.15-1.325-.45-.317-.3167-.475-.825-.475-1.525-.584.7-1.267 1.2083-2.05 1.525-.767.3-1.6.45-2.5.45-.584 0-1.142-.0667-1.675-.2-.517-.1333-.967-.3417-1.35-.625-.384-.2833-.692-.65-.925-1.1-.217-.4667-.325-1.025-.325-1.675 0-.7333.125-1.3333.375-1.8s.575-.8417.975-1.125c.416-.3.883-.525 1.4-.675.533-.15 1.075-.275 1.625-.375.583-.1167 1.133-.2 1.65-.25.533-.0667 1-.15 1.4-.25.4-.1167.716-.275.95-.475.233-.2167.35-.525.35-.925 0-.4667-.092-.8417-.275-1.125-.167-.2833-.392-.5-.675-.65-.267-.15-.575-.25-.925-.3-.334-.05-.667-.075-1-.075-.9 0-1.65.175-2.25.525-.6.3333-.925.975-.975 1.925h-2.125c.033-.8.2-1.475.5-2.025s.7-.9917 1.2-1.325c.5-.35 1.066-.6 1.7-.75.65-.15 1.341-.225 2.075-.225.583 0 1.158.0417 1.725.125.583.0833 1.108.2583 1.575.525.466.25.841.6083 1.125 1.075.283.4667.425 1.075.425 1.825v6.65c0 .5.025.8667.075 1.1.066.2333.266.35.6.35.183 0 .4-.0417.65-.125zm-3.45-6.625c-.267.2-.617.35-1.05.45-.434.0833-.892.1583-1.375.225-.467.05-.942.1167-1.425.2-.484.0667-.917.1833-1.3.35-.384.1667-.7.4083-.95.725-.234.3-.35.7167-.35 1.25 0 .35.066.65.2.9.15.2333.333.425.55.575.233.15.5.2583.8.325s.616.1.95.1c.7 0 1.3-.0917 1.8-.275.5-.2.908-.4417 1.225-.725.316-.3.55-.6167.7-.95.15-.35.225-.675.225-.975zm5.428-6.25h2v2.05h.05c.883-1.5667 2.283-2.35 4.2-2.35.85 0 1.558.1167 2.125.35.566.2333 1.025.5583 1.375.975s.591.9167.725 1.5c.15.5667.225 1.2.225 1.9v8.5h-2.125v-8.75c0-.8-.234-1.4333-.7-1.9-.467-.4667-1.109-.7-1.925-.7-.65 0-1.217.1-1.7.3-.467.2-.859.4833-1.175.85-.317.3667-.559.8-.725 1.3-.15.4833-.225 1.0167-.225 1.6v7.3h-2.125zm15.441 6.575c0 .6.075 1.1917.225 1.775.167.5667.408 1.075.725 1.525.333.45.75.8083 1.25 1.075.517.2667 1.117.4 1.8.4.717 0 1.325-.1417 1.825-.425s.908-.65 1.225-1.1c.317-.4667.542-.9917.675-1.575.15-.5833.225-1.175.225-1.775 0-.6333-.075-1.2417-.225-1.825-.15-.6-.392-1.125-.725-1.575-.317-.45-.733-.8083-1.25-1.075-.517-.2833-1.142-.425-1.875-.425-.717 0-1.325.1417-1.825.425s-.9.6583-1.2 1.125-.517 1-.65 1.6-.2 1.2167-.2 1.85zm10 6.35h-2.125v-1.75h-.05c-.35.7167-.9 1.2333-1.65 1.55s-1.575.475-2.475.475c-1 0-1.875-.1833-2.625-.55-.733-.3667-1.35-.8583-1.85-1.475-.483-.6167-.85-1.3333-1.1-2.15s-.375-1.6833-.375-2.6.117-1.7833.35-2.6c.25-.8167.617-1.525 1.1-2.125.5-.6167 1.117-1.1 1.85-1.45.75-.3667 1.617-.55 2.6-.55.333 0 .692.0333 1.075.1s.767.1833 1.15.35c.383.15.742.3583 1.075.625.35.25.642.5667.875.95h.05v-6.65h2.125zm20.928 0h-2v-2.05h-.05c-.45.8-1.025 1.3917-1.725 1.775-.7.3667-1.525.55-2.475.55-.85 0-1.559-.1083-2.125-.325-.567-.2333-1.025-.5583-1.375-.975s-.6-.9083-.75-1.475c-.134-.5833-.2-1.225-.2-1.925v-8.5h2.125v8.75c0 .8.233 1.4333.7 1.9.466.4667 1.108.7 1.925.7.65 0 1.208-.1 1.675-.3.483-.2.883-.4833 1.2-.85.316-.3667.55-.7917.7-1.275.166-.5.25-1.0417.25-1.625v-7.3h2.125zm4.491-4.075c.017.4667.125.8667.325 1.2.2.3167.458.575.775.775.333.1833.7.3167 1.1.4.417.0833.842.125 1.275.125.333 0 .683-.025 1.05-.075s.7-.1417 1-.275c.317-.1333.575-.325.775-.575.2-.2667.3-.6.3-1 0-.55-.208-.9667-.625-1.25s-.942-.5083-1.575-.675c-.617-.1833-1.292-.3417-2.025-.475-.733-.15-1.417-.35-2.05-.6-.617-.2667-1.133-.6333-1.55-1.1s-.625-1.1167-.625-1.95c0-.65.142-1.2083.425-1.675.3-.4667.675-.8417 1.125-1.125.467-.3.983-.5167 1.55-.65.583-.15 1.158-.225 1.725-.225.733 0 1.408.0667 2.025.2.617.1167 1.158.3333 1.625.65.483.3.867.7167 1.15 1.25.283.5167.45 1.1667.5 1.95h-2.125c-.033-.4167-.142-.7583-.325-1.025-.183-.2833-.417-.5083-.7-.675s-.6-.2833-.95-.35c-.333-.0833-.675-.125-1.025-.125-.317 0-.642.025-.975.075-.317.05-.608.1417-.875.275-.267.1167-.483.2833-.65.5-.167.2-.25.4667-.25.8 0 .3667.125.675.375.925.267.2333.6.4333 1 .6.4.15.85.2833 1.35.4.5.1 1 .2083 1.5.325.533.1167 1.05.2583 1.55.425.517.1667.967.3917 1.35.675.4.2667.717.6083.95 1.025.25.4167.375.9333.375 1.55 0 .7833-.167 1.4333-.5 1.95-.317.5167-.742.9333-1.275 1.25-.517.3167-1.108.5333-1.775.65-.65.1333-1.3.2-1.95.2-.717 0-1.4-.075-2.05-.225s-1.225-.3917-1.725-.725c-.5-.35-.9-.8-1.2-1.35-.3-.5667-.467-1.25-.5-2.05zm20.175-3.625c-.033-.5-.15-.975-.35-1.425-.183-.45-.442-.8333-.775-1.15-.317-.3333-.7-.5917-1.15-.775-.433-.2-.917-.3-1.45-.3-.55 0-1.05.1-1.5.3-.433.1833-.808.4417-1.125.775s-.567.725-.75 1.175c-.183.4333-.292.9-.325 1.4zm2.05 3.6c-.283 1.45-.908 2.5417-1.875 3.275s-2.183 1.1-3.65 1.1c-1.033 0-1.933-.1667-2.7-.5-.75-.3333-1.383-.8-1.9-1.4s-.908-1.3167-1.175-2.15c-.25-.8333-.392-1.7417-.425-2.725 0-.9833.15-1.8833.45-2.7s.717-1.525 1.25-2.125c.55-.6 1.192-1.0667 1.925-1.4.75-.3333 1.567-.5 2.45-.5 1.15 0 2.1.2417 2.85.725.767.4667 1.375 1.0667 1.825 1.8.467.7333.783 1.5333.95 2.4.183.8667.258 1.6917.225 2.475h-9.675c-.017.5667.05 1.1083.2 1.625.15.5.392.95.725 1.35.333.3833.758.6917 1.275.925s1.125.35 1.825.35c.9 0 1.633-.2083 2.2-.625.583-.4167.967-1.05 1.15-1.9zm20.811 4.05c-.367.2167-.875.325-1.525.325-.55 0-.992-.15-1.325-.45-.317-.3167-.475-.825-.475-1.525-.583.7-1.267 1.2083-2.05 1.525-.767.3-1.6.45-2.5.45-.583 0-1.142-.0667-1.675-.2-.517-.1333-.967-.3417-1.35-.625s-.692-.65-.925-1.1c-.217-.4667-.325-1.025-.325-1.675 0-.7333.125-1.3333.375-1.8s.575-.8417.975-1.125c.417-.3.883-.525 1.4-.675.533-.15 1.075-.275 1.625-.375.583-.1167 1.133-.2 1.65-.25.533-.0667 1-.15 1.4-.25.4-.1167.717-.275.95-.475.233-.2167.35-.525.35-.925 0-.4667-.092-.8417-.275-1.125-.167-.2833-.392-.5-.675-.65-.267-.15-.575-.25-.925-.3-.333-.05-.667-.075-1-.075-.9 0-1.65.175-2.25.525-.6.3333-.925.975-.975 1.925h-2.125c.033-.8.2-1.475.5-2.025s.7-.9917 1.2-1.325c.5-.35 1.067-.6 1.7-.75.65-.15 1.342-.225 2.075-.225.583 0 1.158.0417 1.725.125.583.0833 1.108.2583 1.575.525.467.25.842.6083 1.125 1.075s.425 1.075.425 1.825v6.65c0 .5.025.8667.075 1.1.067.2333.267.35.6.35.183 0 .4-.0417.65-.125zm-3.45-6.625c-.267.2-.617.35-1.05.45-.433.0833-.892.1583-1.375.225-.467.05-.942.1167-1.425.2-.483.0667-.917.1833-1.3.35s-.7.4083-.95.725c-.233.3-.35.7167-.35 1.25 0 .35.067.65.2.9.15.2333.333.425.55.575.233.15.5.2583.8.325s.617.1.95.1c.7 0 1.3-.0917 1.8-.275.5-.2.908-.4417 1.225-.725.317-.3.55-.6167.7-.95.15-.35.225-.675.225-.975zm5.428-6.25h2v2.05h.05c.883-1.5667 2.283-2.35 4.2-2.35.85 0 1.558.1167 2.125.35.566.2333 1.025.5583 1.375.975s.591.9167.725 1.5c.15.5667.225 1.2.225 1.9v8.5h-2.125v-8.75c0-.8-.234-1.4333-.7-1.9-.467-.4667-1.109-.7-1.925-.7-.65 0-1.217.1-1.7.3-.467.2-.859.4833-1.175.85-.317.3667-.559.8-.725 1.3-.15.4833-.225 1.0167-.225 1.6v7.3h-2.125zm22.574 4c0 .9.117 1.7917.35 2.675.234.8667.6 1.65 1.1 2.35s1.142 1.2667 1.925 1.7c.784.4167 1.717.625 2.8.625 1.084 0 2.017-.2083 2.8-.625.784-.4333 1.425-1 1.925-1.7s.867-1.4833 1.1-2.35c.234-.8833.35-1.775.35-2.675s-.116-1.7833-.35-2.65c-.233-.8833-.6-1.675-1.1-2.375s-1.141-1.2583-1.925-1.675c-.783-.4333-1.716-.65-2.8-.65-1.083 0-2.016.2167-2.8.65-.783.4167-1.425.975-1.925 1.675s-.866 1.4917-1.1 2.375c-.233.8667-.35 1.75-.35 2.65zm-2.375 0c0-1.2167.175-2.3833.525-3.5.367-1.1333.909-2.1333 1.625-3 .717-.8667 1.609-1.5583 2.675-2.075 1.067-.5167 2.309-.775 3.725-.775 1.417 0 2.659.2583 3.725.775 1.067.5167 1.959 1.2083 2.675 2.075.717.8667 1.25 1.8667 1.6 3 .367 1.1167.55 2.2833.55 3.5s-.183 2.3917-.55 3.525c-.35 1.1167-.883 2.1083-1.6 2.975-.716.8667-1.608 1.5583-2.675 2.075-1.066.5-2.308.75-3.725.75-1.416 0-2.658-.25-3.725-.75-1.066-.5167-1.958-1.2083-2.675-2.075-.716-.8667-1.258-1.8583-1.625-2.975-.35-1.1333-.525-2.3083-.525-3.525zm25.469 8.925h-2.275l-4.8-12.925h2.375l3.625 10.775h.05l3.525-10.775h2.225zm15.65-7.7c-.033-.5-.15-.975-.35-1.425-.183-.45-.441-.8333-.775-1.15-.316-.3333-.7-.5917-1.15-.775-.433-.2-.916-.3-1.45-.3-.55 0-1.05.1-1.5.3-.433.1833-.808.4417-1.125.775-.316.3333-.566.725-.75 1.175-.183.4333-.291.9-.325 1.4zm2.05 3.6c-.283 1.45-.908 2.5417-1.875 3.275-.966.7333-2.183 1.1-3.65 1.1-1.033 0-1.933-.1667-2.7-.5-.75-.3333-1.383-.8-1.9-1.4-.516-.6-.908-1.3167-1.175-2.15-.25-.8333-.391-1.7417-.425-2.725 0-.9833.15-1.8833.45-2.7s.717-1.525 1.25-2.125c.55-.6 1.192-1.0667 1.925-1.4.75-.3333 1.567-.5 2.45-.5 1.15 0 2.1.2417 2.85.725.767.4667 1.375 1.0667 1.825 1.8.467.7333.784 1.5333.95 2.4.184.8667.259 1.6917.225 2.475h-9.675c-.016.5667.05 1.1083.2 1.625.15.5.392.95.725 1.35.334.3833.759.6917 1.275.925.517.2333 1.125.35 1.825.35.9 0 1.634-.2083 2.2-.625.584-.4167.967-1.05 1.15-1.9zm2.328-8.825h2v2.725h.05c.517-1.05 1.15-1.825 1.9-2.325s1.7-.7333 2.85-.7v2.25c-.85 0-1.575.1167-2.175.35s-1.083.575-1.45 1.025-.633 1-.8 1.65c-.167.6333-.25 1.3667-.25 2.2v5.75h-2.125zm9.7 8.85c.017.4667.125.8667.325 1.2.2.3167.459.575.775.775.334.1833.7.3167 1.1.4.417.0833.842.125 1.275.125.334 0 .684-.025 1.05-.075.367-.05.7-.1417 1-.275.317-.1333.575-.325.775-.575.2-.2667.3-.6.3-1 0-.55-.208-.9667-.625-1.25-.416-.2833-.941-.5083-1.575-.675-.616-.1833-1.291-.3417-2.025-.475-.733-.15-1.416-.35-2.05-.6-.616-.2667-1.133-.6333-1.55-1.1-.416-.4667-.625-1.1167-.625-1.95 0-.65.142-1.2083.425-1.675.3-.4667.675-.8417 1.125-1.125.467-.3.984-.5167 1.55-.65.584-.15 1.159-.225 1.725-.225.734 0 1.409.0667 2.025.2.617.1167 1.159.3333 1.625.65.484.3.867.7167 1.15 1.25.284.5167.45 1.1667.5 1.95h-2.125c-.033-.4167-.141-.7583-.325-1.025-.183-.2833-.416-.5083-.7-.675-.283-.1667-.6-.2833-.95-.35-.333-.0833-.675-.125-1.025-.125-.316 0-.641.025-.975.075-.316.05-.608.1417-.875.275-.266.1167-.483.2833-.65.5-.166.2-.25.4667-.25.8 0 .3667.125.675.375.925.267.2333.6.4333 1 .6.4.15.85.2833 1.35.4.5.1 1 .2083 1.5.325.534.1167 1.05.2583 1.55.425.517.1667.967.3917 1.35.675.4.2667.717.6083.95 1.025.25.4167.375.9333.375 1.55 0 .7833-.166 1.4333-.5 1.95-.316.5167-.741.9333-1.275 1.25-.516.3167-1.108.5333-1.775.65-.65.1333-1.3.2-1.95.2-.716 0-1.4-.075-2.05-.225s-1.225-.3917-1.725-.725c-.5-.35-.9-.8-1.2-1.35-.3-.5667-.466-1.25-.5-2.05zm14.15-8.85h2.575v1.875h-2.575v8.025c0 .25.017.45.05.6.05.15.134.2667.25.35.117.0833.275.1417.475.175.217.0167.492.025.825.025h.975v1.875h-1.625c-.55 0-1.025-.0333-1.425-.1-.383-.0833-.7-.225-.95-.425-.233-.2-.408-.4833-.525-.85-.116-.3667-.175-.85-.175-1.45v-8.225h-2.2v-1.875h2.2v-3.875h2.125zm6.486 6.475c0 .7833.1 1.4833.3 2.1.217.6.508 1.1083.875 1.525.367.4.792.7083 1.275.925.5.2167 1.025.325 1.575.325s1.067-.1083 1.55-.325c.5-.2167.933-.525 1.3-.925.367-.4167.65-.925.85-1.525.217-.6167.325-1.3167.325-2.1s-.108-1.475-.325-2.075c-.2-.6167-.483-1.1333-.85-1.55s-.8-.7333-1.3-.95c-.483-.2167-1-.325-1.55-.325s-1.075.1083-1.575.325c-.483.2167-.908.5333-1.275.95s-.658.9333-.875 1.55c-.2.6-.3 1.2917-.3 2.075zm-2.25 0c0-.95.133-1.8333.4-2.65.267-.8333.667-1.55 1.2-2.15.533-.6167 1.192-1.1 1.975-1.45s1.683-.525 2.7-.525c1.033 0 1.933.175 2.7.525.783.35 1.442.8333 1.975 1.45.533.6.933 1.3167 1.2 2.15.267.8167.4 1.7.4 2.65s-.133 1.8333-.4 2.65-.667 1.5333-1.2 2.15c-.533.6-1.192 1.075-1.975 1.425-.767.3333-1.667.5-2.7.5-1.017 0-1.917-.1667-2.7-.5-.783-.35-1.442-.825-1.975-1.425-.533-.6167-.933-1.3333-1.2-2.15s-.4-1.7-.4-2.65zm23.83-2.325c-.166-.8167-.516-1.45-1.05-1.9-.533-.45-1.25-.675-2.15-.675-.766 0-1.408.1417-1.925.425-.516.2833-.933.6583-1.25 1.125-.3.4667-.516 1.0083-.65 1.625-.133.6-.2 1.225-.2 1.875 0 .6.067 1.1833.2 1.75.15.5667.375 1.075.675 1.525.3.4333.692.7833 1.175 1.05.484.2667 1.059.4 1.725.4 1.05 0 1.867-.275 2.45-.825.6-.55.967-1.325 1.1-2.325h2.175c-.233 1.6-.833 2.8333-1.8 3.7-.95.8667-2.25 1.3-3.9 1.3-.983 0-1.858-.1583-2.625-.475-.75-.3167-1.383-.7667-1.9-1.35-.5-.5833-.883-1.275-1.15-2.075-.25-.8167-.375-1.7083-.375-2.675s.125-1.8667.375-2.7c.25-.85.625-1.5833 1.125-2.2.517-.6333 1.159-1.125 1.925-1.475.767-.3667 1.659-.55 2.675-.55.734 0 1.417.0917 2.05.275.65.1667 1.217.4333 1.7.8.5.3667.909.8333 1.225 1.4.317.55.517 1.2083.6 1.975zm4.778-9.075h2.125v10.575l5.9-5.65h2.85l-5.125 4.7 5.5 8.225h-2.7l-4.425-6.75-2 1.85v4.9h-2.125zm32.697 5.375c-.267-1.2667-.858-2.2167-1.775-2.85-.9-.6333-1.975-.95-3.225-.95-1.067 0-1.983.2-2.75.6-.75.4-1.375.9417-1.875 1.625-.483.6667-.842 1.4333-1.075 2.3s-.35 1.7667-.35 2.7c0 1.0167.117 1.9833.35 2.9.233.9.592 1.6917 1.075 2.375.5.6667 1.133 1.2 1.9 1.6s1.683.6 2.75.6c.783 0 1.475-.125 2.075-.375.617-.2667 1.142-.625 1.575-1.075.45-.4667.8-1.0167 1.05-1.65s.4-1.3167.45-2.05h2.375c-.233 2.25-1.008 4-2.325 5.25s-3.117 1.875-5.4 1.875c-1.383 0-2.592-.2333-3.625-.7-1.033-.4833-1.892-1.1417-2.575-1.975s-1.2-1.8167-1.55-2.95c-.333-1.1333-.5-2.35-.5-3.65s.183-2.5167.55-3.65c.367-1.15.9-2.15 1.6-3 .717-.85 1.6-1.5167 2.65-2 1.067-.5 2.283-.75 3.65-.75.933 0 1.817.125 2.65.375s1.575.6167 2.225 1.1 1.192 1.0917 1.625 1.825c.433.7167.717 1.55.85 2.5zm5.067-.45h2v2.725h.05c.517-1.05 1.15-1.825 1.9-2.325s1.7-.7333 2.85-.7v2.25c-.85 0-1.575.1167-2.175.35s-1.083.575-1.45 1.025-.633 1-.8 1.65c-.167.6333-.25 1.3667-.25 2.2v5.75h-2.125zm16.936 5.225c-.034-.5-.15-.975-.35-1.425-.184-.45-.442-.8333-.775-1.15-.317-.3333-.7-.5917-1.15-.775-.434-.2-.917-.3-1.45-.3-.55 0-1.05.1-1.5.3-.434.1833-.809.4417-1.125.775-.317.3333-.567.725-.75 1.175-.184.4333-.292.9-.325 1.4zm2.05 3.6c-.284 1.45-.909 2.5417-1.875 3.275-.967.7333-2.184 1.1-3.65 1.1-1.034 0-1.934-.1667-2.7-.5-.75-.3333-1.384-.8-1.9-1.4-.517-.6-.909-1.3167-1.175-2.15-.25-.8333-.392-1.7417-.425-2.725 0-.9833.15-1.8833.45-2.7s.716-1.525 1.25-2.125c.55-.6 1.191-1.0667 1.925-1.4.75-.3333 1.566-.5 2.45-.5 1.15 0 2.1.2417 2.85.725.766.4667 1.375 1.0667 1.825 1.8.466.7333.783 1.5333.95 2.4.183.8667.258 1.6917.225 2.475h-9.675c-.017.5667.05 1.1083.2 1.625.15.5.391.95.725 1.35.333.3833.758.6917 1.275.925.516.2333 1.125.35 1.825.35.9 0 1.633-.2083 2.2-.625.583-.4167.966-1.05 1.15-1.9zm3.953-2.25c0 .6.075 1.1917.225 1.775.166.5667.408 1.075.725 1.525.333.45.75.8083 1.25 1.075.516.2667 1.116.4 1.8.4.716 0 1.325-.1417 1.825-.425s.908-.65 1.225-1.1c.316-.4667.541-.9917.675-1.575.15-.5833.225-1.175.225-1.775 0-.6333-.075-1.2417-.225-1.825-.15-.6-.392-1.125-.725-1.575-.317-.45-.734-.8083-1.25-1.075-.517-.2833-1.142-.425-1.875-.425-.717 0-1.325.1417-1.825.425s-.9.6583-1.2 1.125-.517 1-.65 1.6c-.134.6-.2 1.2167-.2 1.85zm10 6.35h-2.125v-1.75h-.05c-.35.7167-.9 1.2333-1.65 1.55s-1.575.475-2.475.475c-1 0-1.875-.1833-2.625-.55-.734-.3667-1.35-.8583-1.85-1.475-.484-.6167-.85-1.3333-1.1-2.15s-.375-1.6833-.375-2.6.116-1.7833.35-2.6c.25-.8167.616-1.525 1.1-2.125.5-.6167 1.116-1.1 1.85-1.45.75-.3667 1.616-.55 2.6-.55.333 0 .691.0333 1.075.1.383.0667.766.1833 1.15.35.383.15.741.3583 1.075.625.35.25.641.5667.875.95h.05v-6.65h2.125zm5.519-15.25h-2.125v-2.6h2.125zm-2.125 2.325h2.125v12.925h-2.125zm8.367 0h2.575v1.875h-2.575v8.025c0 .25.017.45.05.6.05.15.133.2667.25.35s.275.1417.475.175c.217.0167.492.025.825.025h.975v1.875h-1.625c-.55 0-1.025-.0333-1.425-.1-.383-.0833-.7-.225-.95-.425-.233-.2-.408-.4833-.525-.85s-.175-.85-.175-1.45v-8.225h-2.2v-1.875h2.2v-3.875h2.125zm24.794.45c-.267-1.2667-.859-2.2167-1.775-2.85-.9-.6333-1.975-.95-3.225-.95-1.067 0-1.984.2-2.75.6-.75.4-1.375.9417-1.875 1.625-.484.6667-.842 1.4333-1.075 2.3-.234.8667-.35 1.7667-.35 2.7 0 1.0167.116 1.9833.35 2.9.233.9.591 1.6917 1.075 2.375.5.6667 1.133 1.2 1.9 1.6.766.4 1.683.6 2.75.6.783 0 1.475-.125 2.075-.375.616-.2667 1.141-.625 1.575-1.075.45-.4667.8-1.0167 1.05-1.65s.4-1.3167.45-2.05h2.375c-.234 2.25-1.009 4-2.325 5.25-1.317 1.25-3.117 1.875-5.4 1.875-1.384 0-2.592-.2333-3.625-.7-1.034-.4833-1.892-1.1417-2.575-1.975-.684-.8333-1.2-1.8167-1.55-2.95-.334-1.1333-.5-2.35-.5-3.65s.183-2.5167.55-3.65c.366-1.15.9-2.15 1.6-3 .716-.85 1.6-1.5167 2.65-2 1.066-.5 2.283-.75 3.65-.75.933 0 1.816.125 2.65.375.833.25 1.575.6167 2.225 1.1s1.191 1.0917 1.625 1.825c.433.7167.716 1.55.85 2.5zm16.592 12.425c-.367.2167-.875.325-1.525.325-.55 0-.992-.15-1.325-.45-.317-.3167-.475-.825-.475-1.525-.584.7-1.267 1.2083-2.05 1.525-.767.3-1.6.45-2.5.45-.584 0-1.142-.0667-1.675-.2-.517-.1333-.967-.3417-1.35-.625-.384-.2833-.692-.65-.925-1.1-.217-.4667-.325-1.025-.325-1.675 0-.7333.125-1.3333.375-1.8s.575-.8417.975-1.125c.416-.3.883-.525 1.4-.675.533-.15 1.075-.275 1.625-.375.583-.1167 1.133-.2 1.65-.25.533-.0667 1-.15 1.4-.25.4-.1167.716-.275.95-.475.233-.2167.35-.525.35-.925 0-.4667-.092-.8417-.275-1.125-.167-.2833-.392-.5-.675-.65-.267-.15-.575-.25-.925-.3-.334-.05-.667-.075-1-.075-.9 0-1.65.175-2.25.525-.6.3333-.925.975-.975 1.925h-2.125c.033-.8.2-1.475.5-2.025s.7-.9917 1.2-1.325c.5-.35 1.066-.6 1.7-.75.65-.15 1.341-.225 2.075-.225.583 0 1.158.0417 1.725.125.583.0833 1.108.2583 1.575.525.466.25.841.6083 1.125 1.075.283.4667.425 1.075.425 1.825v6.65c0 .5.025.8667.075 1.1.066.2333.266.35.6.35.183 0 .4-.0417.65-.125zm-3.45-6.625c-.267.2-.617.35-1.05.45-.434.0833-.892.1583-1.375.225-.467.05-.942.1167-1.425.2-.484.0667-.917.1833-1.3.35-.384.1667-.7.4083-.95.725-.234.3-.35.7167-.35 1.25 0 .35.066.65.2.9.15.2333.333.425.55.575.233.15.5.2583.8.325s.616.1.95.1c.7 0 1.3-.0917 1.8-.275.5-.2.908-.4417 1.225-.725.316-.3.55-.6167.7-.95.15-.35.225-.675.225-.975zm5.352-6.25h2v2.725h.05c.517-1.05 1.15-1.825 1.9-2.325s1.7-.7333 2.85-.7v2.25c-.85 0-1.575.1167-2.175.35s-1.083.575-1.45 1.025c-.366.45-.633 1-.8 1.65-.166.6333-.25 1.3667-.25 2.2v5.75h-2.125zm9.511 6.575c0 .6.075 1.1917.225 1.775.167.5667.408 1.075.725 1.525.333.45.75.8083 1.25 1.075.517.2667 1.117.4 1.8.4.717 0 1.325-.1417 1.825-.425s.908-.65 1.225-1.1c.317-.4667.542-.9917.675-1.575.15-.5833.225-1.175.225-1.775 0-.6333-.075-1.2417-.225-1.825-.15-.6-.392-1.125-.725-1.575-.317-.45-.733-.8083-1.25-1.075-.517-.2833-1.142-.425-1.875-.425-.717 0-1.325.1417-1.825.425s-.9.6583-1.2 1.125-.517 1-.65 1.6-.2 1.2167-.2 1.85zm10 6.35h-2.125v-1.75h-.05c-.35.7167-.9 1.2333-1.65 1.55s-1.575.475-2.475.475c-1 0-1.875-.1833-2.625-.55-.733-.3667-1.35-.8583-1.85-1.475-.483-.6167-.85-1.3333-1.1-2.15s-.375-1.6833-.375-2.6.117-1.7833.35-2.6c.25-.8167.617-1.525 1.1-2.125.5-.6167 1.117-1.1 1.85-1.45.75-.3667 1.617-.55 2.6-.55.333 0 .692.0333 1.075.1s.767.1833 1.15.35c.383.15.742.3583 1.075.625.35.25.642.5667.875.95h.05v-6.65h2.125zm23.027 0h-2.25l-2.625-10.275h-.05l-2.6 10.275h-2.3l-4.15-12.925h2.35l2.925 10.575h.05l2.6-10.575h2.325l2.7 10.575h.05l2.9-10.575h2.2zm8.396-15.25h-2.125v-2.6h2.125zm-2.125 2.325h2.125v12.925h-2.125zm8.367 0h2.575v1.875h-2.575v8.025c0 .25.016.45.05.6.05.15.133.2667.25.35.116.0833.275.1417.475.175.216.0167.491.025.825.025h.975v1.875h-1.625c-.55 0-1.025-.0333-1.425-.1-.384-.0833-.7-.225-.95-.425-.234-.2-.409-.4833-.525-.85-.117-.3667-.175-.85-.175-1.45v-8.225h-2.2v-1.875h2.2v-3.875h2.125zm4.935-4.925h2.125v6.825h.05c.167-.4.4-.7333.7-1 .3-.2833.634-.5083 1-.675.384-.1833.775-.3167 1.175-.4.417-.0833.817-.125 1.2-.125.85 0 1.559.1167 2.125.35.567.2333 1.025.5583 1.375.975s.592.9167.725 1.5c.15.5667.225 1.2.225 1.9v8.5h-2.125v-8.75c0-.8-.233-1.4333-.7-1.9-.466-.4667-1.108-.7-1.925-.7-.65 0-1.216.1-1.7.3-.466.2-.858.4833-1.175.85-.316.3667-.558.8-.725 1.3-.15.4833-.225 1.0167-.225 1.6v7.3h-2.125zm16.142 2.6h-2.125v-2.6h2.125zm-2.125 2.325h2.125v12.925h-2.125zm5.417 0h2v2.05h.05c.883-1.5667 2.283-2.35 4.2-2.35.85 0 1.558.1167 2.125.35s1.025.5583 1.375.975.592.9167.725 1.5c.15.5667.225 1.2.225 1.9v8.5h-2.125v-8.75c0-.8-.233-1.4333-.7-1.9s-1.108-.7-1.925-.7c-.65 0-1.217.1-1.7.3-.467.2-.858.4833-1.175.85s-.558.8-.725 1.3c-.15.4833-.225 1.0167-.225 1.6v7.3h-2.125zm23.8 0h2.57v1.875h-2.57v8.025c0 .25.016.45.05.6.05.15.133.2667.25.35.116.0833.27.1417.47.175.22.0167.5.025.83.025h.97v1.875h-1.62c-.55 0-1.025-.0333-1.425-.1-.384-.0833-.7-.225-.95-.425-.234-.2-.409-.4833-.525-.85-.117-.3667-.175-.85-.175-1.45v-8.225h-2.2v-1.875h2.2v-3.875h2.125zm4.94-4.925h2.12v6.825h.05c.17-.4.4-.7333.7-1 .3-.2833.63-.5083 1-.675.38-.1833.78-.3167 1.18-.4.41-.0833.81-.125 1.2-.125.85 0 1.55.1167 2.12.35s1.03.5583 1.38.975.59.9167.72 1.5c.15.5667.23 1.2.23 1.9v8.5h-2.13v-8.75c0-.8-.23-1.4333-.7-1.9s-1.11-.7-1.92-.7c-.65 0-1.22.1-1.7.3-.47.2-.86.4833-1.18.85s-.56.8-.72 1.3c-.15.4833-.23 1.0167-.23 1.6v7.3h-2.12zm22.86 10.15c-.03-.5-.15-.975-.35-1.425-.18-.45-.44-.8333-.77-1.15-.32-.3333-.7-.5917-1.15-.775-.44-.2-.92-.3-1.45-.3-.55 0-1.05.1-1.5.3-.44.1833-.81.4417-1.13.775-.31.3333-.56.725-.75 1.175-.18.4333-.29.9-.32 1.4zm2.05 3.6c-.28 1.45-.91 2.5417-1.87 3.275-.97.7333-2.19 1.1-3.65 1.1-1.04 0-1.94-.1667-2.7-.5-.75-.3333-1.39-.8-1.9-1.4-.52-.6-.91-1.3167-1.18-2.15-.25-.8333-.39-1.7417-.42-2.725 0-.9833.15-1.8833.45-2.7s.71-1.525 1.25-2.125c.55-.6 1.19-1.0667 1.92-1.4.75-.3333 1.57-.5 2.45-.5 1.15 0 2.1.2417 2.85.725.77.4667 1.38 1.0667 1.83 1.8.46.7333.78 1.5333.95 2.4.18.8667.26 1.6917.22 2.475h-9.67c-.02.5667.05 1.1083.2 1.625.15.5.39.95.72 1.35.34.3833.76.6917 1.28.925.51.2333 1.12.35 1.82.35.9 0 1.64-.2083 2.2-.625.59-.4167.97-1.05 1.15-1.9zm16.89 4.1v-12.925h2.12v12.925zm0-15.25v-2.6h2.12v2.6zm-6.65 4.2h-2.18v-1.875h2.18v-1.925c0-1.05.3-1.8417.9-2.375.61-.55 1.51-.825 2.67-.825.2 0 .43.0167.68.05.26.0333.5.0833.7.15v1.85c-.19-.0667-.39-.1083-.6-.125-.22-.0333-.42-.05-.6-.05-.52 0-.92.1-1.2.3-.29.2-.43.5833-.43 1.15v1.8h2.5v1.875h-2.5v11.05h-2.12zm11.99-1.875h2v2.725h.05c.51-1.05 1.15-1.825 1.9-2.325s1.7-.7333 2.85-.7v2.25c-.85 0-1.58.1167-2.18.35s-1.08.575-1.45 1.025c-.36.45-.63 1-.8 1.65-.16.6333-.25 1.3667-.25 2.2v5.75h-2.12zm9.7 8.85c.01.4667.12.8667.32 1.2.2.3167.46.575.78.775.33.1833.7.3167 1.1.4.41.0833.84.125 1.27.125.34 0 .69-.025 1.05-.075.37-.05.7-.1417 1-.275.32-.1333.58-.325.78-.575.2-.2667.3-.6.3-1 0-.55-.21-.9667-.63-1.25-.41-.2833-.94-.5083-1.57-.675-.62-.1833-1.29-.3417-2.03-.475-.73-.15-1.41-.35-2.05-.6-.61-.2667-1.13-.6333-1.55-1.1-.41-.4667-.62-1.1167-.62-1.95 0-.65.14-1.2083.42-1.675.3-.4667.68-.8417 1.13-1.125.46-.3.98-.5167 1.55-.65.58-.15 1.16-.225 1.72-.225.74 0 1.41.0667 2.03.2.61.1167 1.16.3333 1.62.65.49.3.87.7167 1.15 1.25.29.5167.45 1.1667.5 1.95h-2.12c-.04-.4167-.14-.7583-.33-1.025-.18-.2833-.41-.5083-.7-.675-.28-.1667-.6-.2833-.95-.35-.33-.0833-.67-.125-1.02-.125-.32 0-.64.025-.98.075-.31.05-.61.1417-.87.275-.27.1167-.49.2833-.65.5-.17.2-.25.4667-.25.8 0 .3667.12.675.37.925.27.2333.6.4333 1 .6.4.15.85.2833 1.35.4.5.1 1 .2083 1.5.325.54.1167 1.05.2583 1.55.425.52.1667.97.3917 1.35.675.4.2667.72.6083.95 1.025.25.4167.38.9333.38 1.55 0 .7833-.17 1.4333-.5 1.95-.32.5167-.74.9333-1.28 1.25-.51.3167-1.11.5333-1.77.65-.65.1333-1.3.2-1.95.2-.72 0-1.4-.075-2.05-.225s-1.23-.3917-1.73-.725c-.5-.35-.9-.8-1.2-1.35-.3-.5667-.46-1.25-.5-2.05zm14.15-8.85h2.57v1.875h-2.57v8.025c0 .25.01.45.05.6.05.15.13.2667.25.35.11.0833.27.1417.47.175.22.0167.49.025.83.025h.97v1.875h-1.62c-.55 0-1.03-.0333-1.43-.1-.38-.0833-.7-.225-.95-.425-.23-.2-.41-.4833-.52-.85-.12-.3667-.18-.85-.18-1.45v-8.225h-2.2v-1.875h2.2v-3.875h2.13zm15.74 2.8c.08.0167.16.025.23.025h.25.45c.45 0 .87-.0583 1.27-.175.42-.1333.78-.3167 1.08-.55.31-.25.56-.5583.75-.925.18-.3667.27-.7833.27-1.25 0-.95-.3-1.6583-.9-2.125-.6-.4833-1.35-.725-2.25-.725-.57 0-1.07.1083-1.5.325-.42.2-.77.475-1.05.825-.27.35-.47.7583-.6 1.225s-.2.9583-.2 1.475h-2.12c.03-.85.16-1.625.4-2.325.25-.7.6-1.3 1.05-1.8s1-.8917 1.67-1.175c.68-.2833 1.47-.425 2.35-.425.77 0 1.48.1 2.13.3.66.1833 1.24.4667 1.72.85s.86.875 1.13 1.475c.28.6.42 1.3083.42 2.125 0 .8-.23 1.5083-.7 2.125s-1.05 1.0833-1.75 1.4v.05c1.08.2333 1.88.7417 2.4 1.525.53.7833.8 1.7083.8 2.775 0 .8833-.17 1.6667-.5 2.35-.32.6667-.75 1.225-1.3 1.675s-1.2.7917-1.95 1.025c-.73.2167-1.52.325-2.35.325-.9 0-1.72-.125-2.45-.375s-1.36-.6167-1.87-1.1c-.52-.5-.92-1.1083-1.2-1.825-.27-.7167-.4-1.5333-.38-2.45h2.13c.03 1.15.36 2.0917 1 2.825.63.7167 1.55 1.075 2.77 1.075.52 0 1.01-.075 1.48-.225.46-.1667.87-.3917 1.22-.675.35-.3.63-.6583.83-1.075.21-.4333.32-.9167.32-1.45 0-.55-.1-1.0333-.3-1.45-.2-.4333-.47-.7917-.8-1.075-.33-.3-.73-.5167-1.2-.65-.45-.15-.94-.225-1.47-.225-.45 0-.88.025-1.28.075zm11.74 1.4c0 .6667.02 1.4167.05 2.25.05.8167.19 1.5917.4 2.325.24.7167.6 1.325 1.1 1.825s1.2.75 2.1.75 1.6-.25 2.1-.75.86-1.1083 1.08-1.825c.23-.7333.36-1.5083.4-2.325.05-.8333.07-1.5833.07-2.25 0-.4333-.01-.9083-.02-1.425 0-.5333-.04-1.0583-.13-1.575-.06-.5333-.17-1.05-.32-1.55-.14-.5-.34-.9333-.63-1.3-.26-.3833-.61-.6917-1.02-.925-.42-.2333-.93-.35-1.53-.35s-1.11.1167-1.52.35c-.42.2333-.77.5417-1.05.925-.27.3667-.48.8-.63 1.3-.13.5-.24 1.0167-.32 1.55-.07.5167-.11 1.0417-.13 1.575zm-2.25.025c0-.65.02-1.325.05-2.025.04-.7.12-1.3833.25-2.05.14-.6667.33-1.3.58-1.9s.59-1.125 1.02-1.575c.44-.45.98-.8083 1.63-1.075.66-.2667 1.46-.4 2.37-.4.92 0 1.7.1333 2.35.4.67.2667 1.22.625 1.65 1.075.44.45.78.975 1.03 1.575s.44 1.2333.57 1.9c.14.6667.22 1.35.25 2.05.04.7.05 1.375.05 2.025s-.01 1.325-.05 2.025c-.03.7-.11 1.3833-.25 2.05-.13.6667-.32 1.3-.57 1.9-.25.5833-.59 1.1-1.03 1.55-.43.45-.97.8083-1.62 1.075-.65.25-1.44.375-2.38.375-.91 0-1.71-.125-2.37-.375-.65-.2667-1.19-.625-1.63-1.075-.43-.45-.77-.9667-1.02-1.55-.25-.6-.44-1.2333-.58-1.9-.13-.6667-.21-1.35-.25-2.05-.03-.7-.05-1.375-.05-2.025zm22.95 2.35c0 .6.08 1.1917.23 1.775.16.5667.41 1.075.72 1.525.34.45.75.8083 1.25 1.075.52.2667 1.12.4 1.8.4.72 0 1.33-.1417 1.83-.425s.91-.65 1.22-1.1c.32-.4667.54-.9917.68-1.575.15-.5833.22-1.175.22-1.775 0-.6333-.07-1.2417-.22-1.825-.15-.6-.39-1.125-.73-1.575-.31-.45-.73-.8083-1.25-1.075-.51-.2833-1.14-.425-1.87-.425-.72 0-1.33.1417-1.83.425s-.9.6583-1.2 1.125-.51 1-.65 1.6c-.13.6-.2 1.2167-.2 1.85zm10 6.35h-2.12v-1.75h-.05c-.35.7167-.9 1.2333-1.65 1.55s-1.58.475-2.48.475c-1 0-1.87-.1833-2.62-.55-.74-.3667-1.35-.8583-1.85-1.475-.49-.6167-.85-1.3333-1.1-2.15s-.38-1.6833-.38-2.6.12-1.7833.35-2.6c.25-.8167.62-1.525 1.1-2.125.5-.6167 1.12-1.1 1.85-1.45.75-.3667 1.62-.55 2.6-.55.34 0 .69.0333 1.08.1.38.0667.76.1833 1.15.35.38.15.74.3583 1.07.625.35.25.64.5667.88.95h.05v-6.65h2.12zm14.72-.05c-.36.2167-.87.325-1.52.325-.55 0-.99-.15-1.33-.45-.31-.3167-.47-.825-.47-1.525-.59.7-1.27 1.2083-2.05 1.525-.77.3-1.6.45-2.5.45-.59 0-1.14-.0667-1.68-.2-.51-.1333-.96-.3417-1.35-.625-.38-.2833-.69-.65-.92-1.1-.22-.4667-.33-1.025-.33-1.675 0-.7333.13-1.3333.38-1.8s.57-.8417.97-1.125c.42-.3.89-.525 1.4-.675.54-.15 1.08-.275 1.63-.375.58-.1167 1.13-.2 1.65-.25.53-.0667 1-.15 1.4-.25.4-.1167.71-.275.95-.475.23-.2167.35-.525.35-.925 0-.4667-.09-.8417-.28-1.125-.16-.2833-.39-.5-.67-.65-.27-.15-.58-.25-.93-.3-.33-.05-.66-.075-1-.075-.9 0-1.65.175-2.25.525-.6.3333-.92.975-.97 1.925h-2.13c.04-.8.2-1.475.5-2.025s.7-.9917 1.2-1.325c.5-.35 1.07-.6 1.7-.75.65-.15 1.34-.225 2.08-.225.58 0 1.16.0417 1.72.125.59.0833 1.11.2583 1.58.525.46.25.84.6083 1.12 1.075.29.4667.43 1.075.43 1.825v6.65c0 .5.02.8667.07 1.1.07.2333.27.35.6.35.19 0 .4-.0417.65-.125zm-3.45-6.625c-.26.2-.61.35-1.05.45-.43.0833-.89.1583-1.37.225-.47.05-.94.1167-1.43.2-.48.0667-.91.1833-1.3.35-.38.1667-.7.4083-.95.725-.23.3-.35.7167-.35 1.25 0 .35.07.65.2.9.15.2333.34.425.55.575.24.15.5.2583.8.325s.62.1.95.1c.7 0 1.3-.0917 1.8-.275.5-.2.91-.4417 1.23-.725.31-.3.55-.6167.7-.95.15-.35.22-.675.22-.975zm10.5 8.4c-.25.6333-.5 1.1667-.75 1.6-.23.4333-.5.7833-.8 1.05-.28.2833-.6.4833-.97.6-.35.1333-.76.2-1.23.2-.25 0-.5-.0167-.75-.05s-.49-.0917-.72-.175v-1.95c.18.0833.39.15.62.2.25.0667.46.1.63.1.43 0 .79-.1083 1.07-.325.3-.2.53-.4917.68-.875l.87-2.175-5.12-12.85h2.4l3.77 10.575h.05l3.63-10.575h2.25zm8.73-5.8c.02.4667.12.8667.32 1.2.2.3167.46.575.78.775.33.1833.7.3167 1.1.4.42.0833.84.125 1.27.125.34 0 .69-.025 1.05-.075.37-.05.7-.1417 1-.275.32-.1333.58-.325.78-.575.2-.2667.3-.6.3-1 0-.55-.21-.9667-.63-1.25-.41-.2833-.94-.5083-1.57-.675-.62-.1833-1.29-.3417-2.03-.475-.73-.15-1.41-.35-2.05-.6-.61-.2667-1.13-.6333-1.55-1.1-.41-.4667-.62-1.1167-.62-1.95 0-.65.14-1.2083.42-1.675.3-.4667.68-.8417 1.13-1.125.47-.3.98-.5167 1.55-.65.58-.15 1.16-.225 1.72-.225.74 0 1.41.0667 2.03.2.62.1167 1.16.3333 1.62.65.49.3.87.7167 1.15 1.25.29.5167.45 1.1667.5 1.95h-2.12c-.03-.4167-.14-.7583-.33-1.025-.18-.2833-.41-.5083-.7-.675-.28-.1667-.6-.2833-.95-.35-.33-.0833-.67-.125-1.02-.125-.32 0-.64.025-.98.075-.31.05-.6.1417-.87.275-.27.1167-.48.2833-.65.5-.17.2-.25.4667-.25.8 0 .3667.12.675.37.925.27.2333.6.4333 1 .6.4.15.85.2833 1.35.4.5.1 1 .2083 1.5.325.54.1167 1.05.2583 1.55.425.52.1667.97.3917 1.35.675.4.2667.72.6083.95 1.025.25.4167.38.9333.38 1.55 0 .7833-.17 1.4333-.5 1.95-.32.5167-.74.9333-1.28 1.25-.51.3167-1.1.5333-1.77.65-.65.1333-1.3.2-1.95.2-.72 0-1.4-.075-2.05-.225s-1.23-.3917-1.73-.725c-.5-.35-.9-.8-1.2-1.35-.3-.5667-.46-1.25-.5-2.05zm29.61 4.025c-.37.2167-.88.325-1.53.325-.55 0-.99-.15-1.32-.45-.32-.3167-.48-.825-.48-1.525-.58.7-1.26 1.2083-2.05 1.525-.76.3-1.6.45-2.5.45-.58 0-1.14-.0667-1.67-.2-.52-.1333-.97-.3417-1.35-.625-.39-.2833-.69-.65-.93-1.1-.21-.4667-.32-1.025-.32-1.675 0-.7333.12-1.3333.37-1.8s.58-.8417.98-1.125c.41-.3.88-.525 1.4-.675.53-.15 1.07-.275 1.62-.375.59-.1167 1.14-.2 1.65-.25.54-.0667 1-.15 1.4-.25.4-.1167.72-.275.95-.475.24-.2167.35-.525.35-.925 0-.4667-.09-.8417-.27-1.125-.17-.2833-.39-.5-.68-.65-.26-.15-.57-.25-.92-.3-.34-.05-.67-.075-1-.075-.9 0-1.65.175-2.25.525-.6.3333-.93.975-.98 1.925h-2.12c.03-.8.2-1.475.5-2.025s.7-.9917 1.2-1.325c.5-.35 1.06-.6 1.7-.75.65-.15 1.34-.225 2.07-.225.59 0 1.16.0417 1.73.125.58.0833 1.11.2583 1.57.525.47.25.84.6083 1.13 1.075.28.4667.42 1.075.42 1.825v6.65c0 .5.03.8667.08 1.1.06.2333.26.35.6.35.18 0 .4-.0417.65-.125zm-3.45-6.625c-.27.2-.62.35-1.05.45-.44.0833-.89.1583-1.38.225-.46.05-.94.1167-1.42.2-.49.0667-.92.1833-1.3.35-.39.1667-.7.4083-.95.725-.24.3-.35.7167-.35 1.25 0 .35.06.65.2.9.15.2333.33.425.55.575.23.15.5.2583.8.325s.61.1.95.1c.7 0 1.3-.0917 1.8-.275.5-.2.91-.4417 1.22-.725.32-.3.55-.6167.7-.95.15-.35.23-.675.23-.975zm5.43-6.25h2v2.05h.05c.88-1.5667 2.28-2.35 4.2-2.35.85 0 1.55.1167 2.12.35s1.03.5583 1.38.975.59.9167.72 1.5c.15.5667.23 1.2.23 1.9v8.5h-2.13v-8.75c0-.8-.23-1.4333-.7-1.9s-1.11-.7-1.92-.7c-.65 0-1.22.1-1.7.3-.47.2-.86.4833-1.18.85s-.56.8-.72 1.3c-.15.4833-.23 1.0167-.23 1.6v7.3h-2.12zm15.44 6.575c0 .6.07 1.1917.22 1.775.17.5667.41 1.075.73 1.525.33.45.75.8083 1.25 1.075.51.2667 1.11.4 1.8.4.71 0 1.32-.1417 1.82-.425s.91-.65 1.23-1.1c.31-.4667.54-.9917.67-1.575.15-.5833.23-1.175.23-1.775 0-.6333-.08-1.2417-.23-1.825-.15-.6-.39-1.125-.72-1.575-.32-.45-.74-.8083-1.25-1.075-.52-.2833-1.14-.425-1.88-.425-.71 0-1.32.1417-1.82.425s-.9.6583-1.2 1.125-.52 1-.65 1.6c-.14.6-.2 1.2167-.2 1.85zm10 6.35h-2.13v-1.75h-.05c-.35.7167-.9 1.2333-1.65 1.55s-1.57.475-2.47.475c-1 0-1.88-.1833-2.63-.55-.73-.3667-1.35-.8583-1.85-1.475-.48-.6167-.85-1.3333-1.1-2.15s-.37-1.6833-.37-2.6.11-1.7833.35-2.6c.25-.8167.61-1.525 1.1-2.125.5-.6167 1.11-1.1 1.85-1.45.75-.3667 1.61-.55 2.6-.55.33 0 .69.0333 1.07.1.39.0667.77.1833 1.15.35.39.15.74.3583 1.08.625.35.25.64.5667.87.95h.05v-6.65h2.13zm21.37-1.1c0 2.1167-.48 3.7-1.45 4.75-.96 1.05-2.48 1.575-4.55 1.575-.6 0-1.21-.0667-1.85-.2-.61-.1333-1.18-.35-1.7-.65-.5-.3-.91-.6917-1.25-1.175-.33-.4833-.51-1.075-.55-1.775h2.13c.02.3833.13.7083.35.975.23.2667.51.4833.82.65.34.1667.7.2833 1.08.35.38.0833.75.125 1.1.125.7 0 1.29-.125 1.77-.375.49-.2333.89-.5667 1.2-1 .32-.4167.55-.925.68-1.525.15-.6.22-1.2583.22-1.975v-.85h-.05c-.36.8-.92 1.3917-1.67 1.775-.73.3667-1.52.55-2.35.55-.97 0-1.81-.175-2.53-.525-.71-.35-1.31-.8167-1.8-1.4-.48-.6-.85-1.2917-1.1-2.075-.23-.8-.35-1.6417-.35-2.525 0-.7667.1-1.55.3-2.35.2-.8167.54-1.55 1-2.2.47-.6667 1.09-1.2083 1.85-1.625.77-.4333 1.71-.65 2.83-.65.82 0 1.57.1833 2.25.55.68.35 1.22.8833 1.6 1.6h.02v-1.85h2zm-5.95-.625c.7 0 1.3-.1417 1.78-.425.5-.3.9-.6833 1.2-1.15.3-.4833.52-1.025.65-1.625.15-.6.22-1.2.22-1.8 0-.5667-.06-1.125-.2-1.675-.13-.55-.35-1.0417-.65-1.475-.28-.45-.65-.8083-1.12-1.075s-1.03-.4-1.7-.4c-.68 0-1.27.1333-1.75.4-.48.25-.88.5917-1.2 1.025-.3.4333-.53.9333-.68 1.5-.13.5667-.2 1.1583-.2 1.775 0 .5833.06 1.1667.18 1.75s.32 1.1167.6 1.6c.28.4667.66.85 1.12 1.15.47.2833 1.05.425 1.75.425zm18.13-5.975c-.03-.5-.15-.975-.35-1.425-.18-.45-.44-.8333-.77-1.15-.32-.3333-.7-.5917-1.15-.775-.43-.2-.92-.3-1.45-.3-.55 0-1.05.1-1.5.3-.43.1833-.81.4417-1.13.775-.31.3333-.56.725-.75 1.175-.18.4333-.29.9-.32 1.4zm2.05 3.6c-.28 1.45-.9 2.5417-1.87 3.275s-2.18 1.1-3.65 1.1c-1.03 0-1.93-.1667-2.7-.5-.75-.3333-1.38-.8-1.9-1.4s-.91-1.3167-1.18-2.15c-.25-.8333-.39-1.7417-.42-2.725 0-.9833.15-1.8833.45-2.7s.72-1.525 1.25-2.125c.55-.6 1.19-1.0667 1.92-1.4.75-.3333 1.57-.5 2.45-.5 1.15 0 2.1.2417 2.85.725.77.4667 1.38 1.0667 1.83 1.8.47.7333.78 1.5333.95 2.4.18.8667.26 1.6917.22 2.475h-9.67c-.02.5667.05 1.1083.2 1.625.15.5.39.95.72 1.35.34.3833.76.6917 1.28.925s1.12.35 1.82.35c.9 0 1.64-.2083 2.2-.625.59-.4167.97-1.05 1.15-1.9zm5.36-8.825h2.57v1.875h-2.57v8.025c0 .25.01.45.05.6.05.15.13.2667.25.35.11.0833.27.1417.47.175.22.0167.49.025.83.025h.97v1.875h-1.62c-.55 0-1.03-.0333-1.43-.1-.38-.0833-.7-.225-.95-.425-.23-.2-.41-.4833-.52-.85-.12-.3667-.18-.85-.18-1.45v-8.225h-2.2v-1.875h2.2v-3.875h2.13z"/><path d="m766.126 227.517c-.181-.861-.584-1.507-1.207-1.938-.612-.431-1.343-.646-2.193-.646-.725 0-1.349.136-1.87.408-.51.272-.935.64-1.275 1.105-.329.453-.572.975-.731 1.564s-.238 1.201-.238 1.836c0 .691.079 1.349.238 1.972.159.612.402 1.15.731 1.615.34.453.771.816 1.292 1.088s1.145.408 1.87.408c.533 0 1.003-.085 1.411-.255.419-.181.776-.425 1.071-.731.306-.317.544-.691.714-1.122s.272-.895.306-1.394h1.615c-.159 1.53-.686 2.72-1.581 3.57s-2.119 1.275-3.672 1.275c-.941 0-1.762-.159-2.465-.476-.703-.329-1.286-.776-1.751-1.343s-.816-1.235-1.054-2.006c-.227-.771-.34-1.598-.34-2.482s.125-1.711.374-2.482c.249-.782.612-1.462 1.088-2.04.487-.578 1.088-1.031 1.802-1.36.725-.34 1.553-.51 2.482-.51.635 0 1.235.085 1.802.255s1.071.419 1.513.748.81.742 1.105 1.241c.295.487.487 1.054.578 1.7zm4.55 4.097c0 .533.068 1.009.204 1.428.148.408.346.754.595 1.037.25.272.539.482.867.629.34.147.697.221 1.071.221s.726-.074 1.054-.221c.34-.147.635-.357.884-.629.25-.283.442-.629.578-1.037.148-.419.221-.895.221-1.428s-.073-1.003-.221-1.411c-.136-.419-.328-.771-.578-1.054-.249-.283-.544-.499-.884-.646-.328-.147-.68-.221-1.054-.221s-.731.074-1.071.221c-.328.147-.617.363-.867.646-.249.283-.447.635-.595 1.054-.136.408-.204.878-.204 1.411zm-1.53 0c0-.646.091-1.247.272-1.802.182-.567.454-1.054.816-1.462.363-.419.811-.748 1.343-.986.533-.238 1.145-.357 1.836-.357.703 0 1.315.119 1.836.357.533.238.981.567 1.343.986.363.408.635.895.816 1.462.182.555.272 1.156.272 1.802s-.09 1.247-.272 1.802c-.181.555-.453 1.043-.816 1.462-.362.408-.81.731-1.343.969-.521.227-1.133.34-1.836.34-.691 0-1.303-.113-1.836-.34-.532-.238-.98-.561-1.343-.969-.362-.419-.634-.907-.816-1.462-.181-.555-.272-1.156-.272-1.802zm17.514 4.386h-1.36v-1.394h-.034c-.306.544-.697.946-1.173 1.207-.476.249-1.037.374-1.683.374-.578 0-1.059-.074-1.445-.221-.385-.159-.697-.38-.935-.663s-.408-.618-.51-1.003c-.09-.397-.136-.833-.136-1.309v-5.78h1.445v5.95c0 .544.159.975.476 1.292.318.317.754.476 1.309.476.442 0 .822-.068 1.139-.204.329-.136.601-.329.816-.578.216-.249.374-.538.476-.867.114-.34.17-.708.17-1.105v-4.964h1.445zm2.221-8.789h1.445v1.19h.034c.238-.487.612-.839 1.122-1.054.51-.227 1.071-.34 1.683-.34.68 0 1.27.125 1.768.374.51.249.93.589 1.258 1.02.34.419.595.907.765 1.462s.255 1.145.255 1.768-.085 1.213-.255 1.768c-.158.555-.408 1.043-.748 1.462-.328.408-.748.731-1.258.969-.498.238-1.082.357-1.751.357-.215 0-.459-.023-.731-.068-.26-.045-.521-.119-.782-.221-.26-.102-.51-.238-.748-.408-.226-.181-.419-.402-.578-.663h-.034v4.522h-1.445zm6.8 4.318c0-.408-.056-.805-.17-1.19-.102-.397-.266-.748-.493-1.054-.215-.306-.498-.55-.85-.731-.34-.181-.742-.272-1.207-.272-.487 0-.901.096-1.241.289s-.617.448-.833.765c-.215.306-.374.657-.476 1.054-.09.397-.136.799-.136 1.207 0 .431.051.85.153 1.258.102.397.261.748.476 1.054.227.306.516.555.867.748.352.181.777.272 1.275.272.499 0 .913-.096 1.241-.289.34-.193.612-.448.816-.765s.352-.68.442-1.088c.091-.408.136-.827.136-1.258zm4.281.085c0 .533.068 1.009.204 1.428.147.408.345.754.595 1.037.249.272.538.482.867.629.34.147.697.221 1.071.221s.725-.074 1.054-.221c.34-.147.634-.357.884-.629.249-.283.442-.629.578-1.037.147-.419.221-.895.221-1.428s-.074-1.003-.221-1.411c-.136-.419-.329-.771-.578-1.054-.25-.283-.544-.499-.884-.646-.329-.147-.68-.221-1.054-.221s-.731.074-1.071.221c-.329.147-.618.363-.867.646-.25.283-.448.635-.595 1.054-.136.408-.204.878-.204 1.411zm-1.53 0c0-.646.09-1.247.272-1.802.181-.567.453-1.054.816-1.462.362-.419.81-.748 1.343-.986.532-.238 1.144-.357 1.836-.357.702 0 1.314.119 1.836.357.532.238.98.567 1.343.986.362.408.634.895.816 1.462.181.555.272 1.156.272 1.802s-.091 1.247-.272 1.802c-.182.555-.454 1.043-.816 1.462-.363.408-.811.731-1.343.969-.522.227-1.134.34-1.836.34-.692 0-1.304-.113-1.836-.34-.533-.238-.981-.561-1.343-.969-.363-.419-.635-.907-.816-1.462-.182-.555-.272-1.156-.272-1.802zm10.237-4.403h1.36v1.394h.034c.601-1.065 1.553-1.598 2.856-1.598.578 0 1.06.079 1.445.238.386.159.697.38.935.663s.403.623.493 1.02c.102.385.153.816.153 1.292v5.78h-1.445v-5.95c0-.544-.158-.975-.476-1.292-.317-.317-.753-.476-1.309-.476-.442 0-.827.068-1.156.204-.317.136-.583.329-.799.578-.215.249-.379.544-.493.884-.102.329-.153.691-.153 1.088v4.964h-1.445zm22.882 8.789h-1.53l-1.785-6.987h-.034l-1.768 6.987h-1.564l-2.822-8.789h1.598l1.989 7.191h.034l1.768-7.191h1.581l1.836 7.191h.034l1.972-7.191h1.496zm5.709-10.37h-1.445v-1.768h1.445zm-1.445 1.581h1.445v8.789h-1.445zm3.768-3.349h1.445v12.138h-1.445zm3.769 0h1.445v12.138h-1.445zm8.466 0h1.445v4.539h.034c.238-.487.612-.839 1.122-1.054.51-.227 1.071-.34 1.683-.34.68 0 1.269.125 1.768.374.51.249.929.589 1.258 1.02.34.419.595.907.765 1.462s.255 1.145.255 1.768-.085 1.213-.255 1.768c-.159.555-.408 1.043-.748 1.462-.329.408-.748.731-1.258.969-.499.238-1.082.357-1.751.357-.215 0-.459-.023-.731-.068-.261-.045-.521-.119-.782-.221s-.51-.238-.748-.408c-.227-.181-.419-.402-.578-.663h-.034v1.173h-1.445zm6.8 7.667c0-.408-.057-.805-.17-1.19-.102-.397-.266-.748-.493-1.054-.215-.306-.499-.55-.85-.731-.34-.181-.742-.272-1.207-.272-.487 0-.901.096-1.241.289s-.618.448-.833.765c-.215.306-.374.657-.476 1.054-.091.397-.136.799-.136 1.207 0 .431.051.85.153 1.258.102.397.261.748.476 1.054.227.306.516.555.867.748.351.181.776.272 1.275.272s.912-.096 1.241-.289c.34-.193.612-.448.816-.765s.351-.68.442-1.088.136-.827.136-1.258zm9.329-.765c-.023-.34-.102-.663-.238-.969-.125-.306-.3-.567-.527-.782-.215-.227-.476-.402-.782-.527-.295-.136-.623-.204-.986-.204-.374 0-.714.068-1.02.204-.295.125-.55.3-.765.527s-.385.493-.51.799c-.125.295-.198.612-.221.952zm1.394 2.448c-.193.986-.618 1.728-1.275 2.227s-1.485.748-2.482.748c-.703 0-1.315-.113-1.836-.34-.51-.227-.941-.544-1.292-.952s-.618-.895-.799-1.462c-.17-.567-.266-1.184-.289-1.853 0-.669.102-1.281.306-1.836s.487-1.037.85-1.445c.374-.408.81-.725 1.309-.952.51-.227 1.065-.34 1.666-.34.782 0 1.428.164 1.938.493.521.317.935.725 1.241 1.224.317.499.533 1.043.646 1.632.125.589.176 1.15.153 1.683h-6.579c-.011.385.034.754.136 1.105.102.34.266.646.493.918.227.261.516.47.867.629s.765.238 1.241.238c.612 0 1.111-.142 1.496-.425.397-.283.657-.714.782-1.292zm7.249.017c.012.317.085.589.221.816.136.215.312.391.527.527.227.125.476.215.748.272.284.057.573.085.867.085.227 0 .465-.017.714-.051.25-.034.476-.096.68-.187.216-.091.391-.221.527-.391.136-.181.204-.408.204-.68 0-.374-.141-.657-.425-.85-.283-.193-.64-.346-1.071-.459-.419-.125-.878-.232-1.377-.323-.498-.102-.963-.238-1.394-.408-.419-.181-.77-.431-1.054-.748-.283-.317-.425-.759-.425-1.326 0-.442.097-.822.289-1.139.204-.317.459-.572.765-.765.318-.204.669-.351 1.054-.442.397-.102.788-.153 1.173-.153.499 0 .958.045 1.377.136.42.079.788.227 1.105.442.329.204.59.487.782.85.193.351.306.793.34 1.326h-1.445c-.022-.283-.096-.516-.221-.697-.124-.193-.283-.346-.476-.459-.192-.113-.408-.193-.646-.238-.226-.057-.459-.085-.697-.085-.215 0-.436.017-.663.051-.215.034-.413.096-.595.187-.181.079-.328.193-.442.34-.113.136-.17.317-.17.544 0 .249.085.459.255.629.182.159.408.295.68.408.272.102.578.193.918.272.34.068.68.142 1.02.221.363.079.714.176 1.054.289.352.113.658.266.918.459.272.181.488.414.646.697.17.283.255.635.255 1.054 0 .533-.113.975-.34 1.326-.215.351-.504.635-.867.85-.351.215-.753.363-1.207.442-.442.091-.884.136-1.326.136-.487 0-.952-.051-1.394-.153s-.833-.266-1.173-.493c-.34-.238-.612-.544-.816-.918-.204-.385-.317-.85-.34-1.394zm13.719-2.465c-.022-.34-.102-.663-.238-.969-.124-.306-.3-.567-.527-.782-.215-.227-.476-.402-.782-.527-.294-.136-.623-.204-.986-.204-.374 0-.714.068-1.02.204-.294.125-.549.3-.765.527-.215.227-.385.493-.51.799-.124.295-.198.612-.221.952zm1.394 2.448c-.192.986-.617 1.728-1.275 2.227-.657.499-1.484.748-2.482.748-.702 0-1.314-.113-1.836-.34-.51-.227-.94-.544-1.292-.952-.351-.408-.617-.895-.799-1.462-.17-.567-.266-1.184-.289-1.853 0-.669.102-1.281.306-1.836s.488-1.037.85-1.445c.374-.408.811-.725 1.309-.952.51-.227 1.066-.34 1.666-.34.782 0 1.428.164 1.938.493.522.317.935.725 1.241 1.224.318.499.533 1.043.646 1.632.125.589.176 1.15.153 1.683h-6.579c-.011.385.034.754.136 1.105.102.34.267.646.493.918.227.261.516.47.867.629.352.159.765.238 1.241.238.612 0 1.111-.142 1.496-.425.397-.283.658-.714.782-1.292zm1.634-6.001h1.36v1.394h.034c.601-1.065 1.553-1.598 2.856-1.598.578 0 1.06.079 1.445.238.386.159.697.38.935.663s.403.623.493 1.02c.102.385.153.816.153 1.292v5.78h-1.445v-5.95c0-.544-.158-.975-.476-1.292-.317-.317-.753-.476-1.309-.476-.442 0-.827.068-1.156.204-.317.136-.583.329-.799.578-.215.249-.379.544-.493.884-.102.329-.153.691-.153 1.088v4.964h-1.445zm11.453 0h1.751v1.275h-1.751v5.457c0 .17.011.306.034.408.034.102.09.181.17.238.079.057.187.096.323.119.147.011.334.017.561.017h.663v1.275h-1.105c-.374 0-.697-.023-.969-.068-.261-.057-.476-.153-.646-.289-.159-.136-.278-.329-.357-.578-.08-.249-.119-.578-.119-.986v-5.593h-1.496v-1.275h1.496v-2.635h1.445zm12.048 8.789h-1.547l-3.264-8.789h1.615l2.465 7.327h.034l2.397-7.327h1.513zm6.069-10.37h-1.445v-1.768h1.445zm-1.445 1.581h1.445v8.789h-1.445zm11.47 8.755c-.249.147-.595.221-1.037.221-.374 0-.674-.102-.901-.306-.215-.215-.323-.561-.323-1.037-.397.476-.861.822-1.394 1.037-.521.204-1.088.306-1.7.306-.397 0-.776-.045-1.139-.136-.351-.091-.657-.232-.918-.425s-.47-.442-.629-.748c-.147-.317-.221-.697-.221-1.139 0-.499.085-.907.255-1.224s.391-.572.663-.765c.283-.204.601-.357.952-.459.363-.102.731-.187 1.105-.255.397-.079.771-.136 1.122-.17.363-.045.68-.102.952-.17.272-.079.487-.187.646-.323.159-.147.238-.357.238-.629 0-.317-.062-.572-.187-.765-.113-.193-.266-.34-.459-.442-.181-.102-.391-.17-.629-.204-.227-.034-.453-.051-.68-.051-.612 0-1.122.119-1.53.357-.408.227-.629.663-.663 1.309h-1.445c.023-.544.136-1.003.34-1.377s.476-.674.816-.901c.34-.238.725-.408 1.156-.51.442-.102.912-.153 1.411-.153.397 0 .788.028 1.173.085.397.057.754.176 1.071.357.317.17.572.414.765.731s.289.731.289 1.241v4.522c0 .34.017.589.051.748.045.159.181.238.408.238.125 0 .272-.028.442-.085zm-2.346-4.505c-.181.136-.419.238-.714.306-.295.057-.606.108-.935.153-.317.034-.64.079-.969.136-.329.045-.623.125-.884.238s-.476.278-.646.493c-.159.204-.238.487-.238.85 0 .238.045.442.136.612.102.159.227.289.374.391.159.102.34.176.544.221s.419.068.646.068c.476 0 .884-.062 1.224-.187.34-.136.618-.3.833-.493.215-.204.374-.419.476-.646.102-.238.153-.459.153-.663zm14.525-.697c-.022-.34-.102-.663-.238-.969-.124-.306-.3-.567-.527-.782-.215-.227-.476-.402-.782-.527-.294-.136-.623-.204-.986-.204-.374 0-.714.068-1.02.204-.294.125-.549.3-.765.527-.215.227-.385.493-.51.799-.124.295-.198.612-.221.952zm1.394 2.448c-.192.986-.617 1.728-1.275 2.227-.657.499-1.484.748-2.482.748-.702 0-1.314-.113-1.836-.34-.51-.227-.94-.544-1.292-.952-.351-.408-.617-.895-.799-1.462-.17-.567-.266-1.184-.289-1.853 0-.669.102-1.281.306-1.836s.488-1.037.85-1.445c.374-.408.811-.725 1.309-.952.51-.227 1.066-.34 1.666-.34.782 0 1.428.164 1.938.493.522.317.935.725 1.241 1.224.318.499.533 1.043.646 1.632.125.589.176 1.15.153 1.683h-6.579c-.011.385.034.754.136 1.105.102.34.267.646.493.918.227.261.516.47.867.629.352.159.765.238 1.241.238.612 0 1.111-.142 1.496-.425.397-.283.658-.714.782-1.292zm1.634-6.001h1.36v1.292h.034c.657-.997 1.604-1.496 2.839-1.496.544 0 1.037.113 1.479.34s.754.612.935 1.156c.295-.476.68-.844 1.156-1.105.487-.261 1.02-.391 1.598-.391.442 0 .839.051 1.19.153.363.091.669.238.918.442.261.204.459.47.595.799.147.317.221.703.221 1.156v6.443h-1.445v-5.763c0-.272-.023-.527-.068-.765s-.13-.442-.255-.612c-.125-.181-.3-.323-.527-.425-.215-.102-.499-.153-.85-.153-.714 0-1.275.204-1.683.612s-.612.952-.612 1.632v5.474h-1.445v-5.763c0-.283-.028-.544-.085-.782-.045-.238-.13-.442-.255-.612-.125-.181-.295-.317-.51-.408-.204-.102-.47-.153-.799-.153-.419 0-.782.085-1.088.255-.295.17-.538.374-.731.612-.181.238-.317.487-.408.748-.079.249-.119.459-.119.629v5.474h-1.445zm22.279 8.755c-.249.147-.595.221-1.037.221-.374 0-.674-.102-.901-.306-.215-.215-.323-.561-.323-1.037-.396.476-.861.822-1.394 1.037-.521.204-1.088.306-1.7.306-.396 0-.776-.045-1.139-.136-.351-.091-.657-.232-.918-.425-.26-.193-.47-.442-.629-.748-.147-.317-.221-.697-.221-1.139 0-.499.085-.907.255-1.224s.391-.572.663-.765c.284-.204.601-.357.952-.459.363-.102.731-.187 1.105-.255.397-.079.771-.136 1.122-.17.363-.045.68-.102.952-.17.272-.079.488-.187.646-.323.159-.147.238-.357.238-.629 0-.317-.062-.572-.187-.765-.113-.193-.266-.34-.459-.442-.181-.102-.391-.17-.629-.204-.226-.034-.453-.051-.68-.051-.612 0-1.122.119-1.53.357-.408.227-.629.663-.663 1.309h-1.445c.023-.544.136-1.003.34-1.377s.476-.674.816-.901c.34-.238.726-.408 1.156-.51.442-.102.913-.153 1.411-.153.397 0 .788.028 1.173.085.397.057.754.176 1.071.357.318.17.573.414.765.731.193.317.289.731.289 1.241v4.522c0 .34.017.589.051.748.046.159.182.238.408.238.125 0 .272-.028.442-.085zm-2.346-4.505c-.181.136-.419.238-.714.306-.294.057-.606.108-.935.153-.317.034-.64.079-.969.136-.328.045-.623.125-.884.238-.26.113-.476.278-.646.493-.158.204-.238.487-.238.85 0 .238.046.442.136.612.102.159.227.289.374.391.159.102.34.176.544.221s.42.068.646.068c.476 0 .884-.062 1.224-.187.34-.136.618-.3.833-.493.216-.204.374-.419.476-.646.102-.238.153-.459.153-.663zm5.221-5.831h-1.445v-1.768h1.445zm-1.445 1.581h1.445v8.789h-1.445zm3.769-3.349h1.445v12.138h-1.445zm4.006 10.251h1.887v1.887h-1.887z"/></g></svg>