<svg width="767" height="767" viewBox="0 0 767 767" fill="none" xmlns="http://www.w3.org/2000/svg">
<path d="M626.056 611.014H622.91V609.336H622.84C622.42 610.035 621.877 610.54 621.208 610.851C620.54 611.162 619.857 611.317 619.157 611.317C618.272 611.317 617.541 611.201 616.967 610.968C616.407 610.734 615.964 610.408 615.638 609.989C615.312 609.554 615.079 609.033 614.939 608.427C614.815 607.806 614.752 607.122 614.752 606.376V598.964H618.062V605.77C618.062 606.765 618.217 607.51 618.528 608.008C618.839 608.489 619.39 608.73 620.183 608.73C621.084 608.73 621.737 608.466 622.141 607.938C622.545 607.394 622.747 606.508 622.747 605.281V598.964H626.056V611.014ZM634.651 608.847C635.195 608.847 635.646 608.738 636.003 608.52C636.376 608.303 636.671 608.023 636.889 607.681C637.122 607.324 637.285 606.912 637.378 606.446C637.471 605.98 637.518 605.506 637.518 605.024C637.518 604.543 637.464 604.069 637.355 603.603C637.262 603.136 637.099 602.725 636.865 602.367C636.632 601.994 636.329 601.699 635.956 601.482C635.599 601.249 635.156 601.132 634.628 601.132C634.084 601.132 633.626 601.249 633.253 601.482C632.895 601.699 632.6 601.987 632.367 602.344C632.15 602.701 631.994 603.113 631.901 603.579C631.808 604.045 631.761 604.527 631.761 605.024C631.761 605.506 631.808 605.98 631.901 606.446C632.01 606.912 632.173 607.324 632.39 607.681C632.624 608.023 632.927 608.303 633.299 608.52C633.672 608.738 634.123 608.847 634.651 608.847ZM628.568 598.964H631.715V600.503H631.761C632.165 599.85 632.678 599.376 633.299 599.081C633.921 598.786 634.605 598.638 635.35 598.638C636.298 598.638 637.114 598.817 637.798 599.174C638.481 599.532 639.049 600.005 639.499 600.596C639.95 601.186 640.284 601.878 640.501 602.67C640.719 603.447 640.828 604.263 640.828 605.117C640.828 605.925 640.719 606.702 640.501 607.448C640.284 608.194 639.95 608.854 639.499 609.429C639.064 610.004 638.512 610.463 637.844 610.804C637.192 611.146 636.423 611.317 635.537 611.317C634.791 611.317 634.1 611.17 633.463 610.874C632.841 610.564 632.328 610.113 631.924 609.523H631.878V615.233H628.568V598.964ZM653.498 598.964H655.922V601.179H653.498V607.145C653.498 607.705 653.592 608.077 653.778 608.264C653.965 608.45 654.337 608.544 654.897 608.544C655.083 608.544 655.262 608.536 655.433 608.52C655.604 608.505 655.767 608.481 655.922 608.45V611.014C655.643 611.061 655.332 611.092 654.99 611.107C654.648 611.123 654.314 611.131 653.988 611.131C653.475 611.131 652.986 611.092 652.52 611.014C652.069 610.952 651.665 610.82 651.308 610.618C650.966 610.416 650.694 610.128 650.492 609.756C650.29 609.383 650.189 608.893 650.189 608.287V601.179H648.184V598.964H650.189V595.352H653.498V598.964ZM660.434 605.001C660.434 605.483 660.48 605.957 660.574 606.423C660.667 606.873 660.822 607.285 661.04 607.658C661.273 608.015 661.576 608.303 661.949 608.52C662.322 608.738 662.788 608.847 663.347 608.847C663.906 608.847 664.373 608.738 664.745 608.52C665.134 608.303 665.437 608.015 665.654 607.658C665.888 607.285 666.051 606.873 666.144 606.423C666.237 605.957 666.284 605.483 666.284 605.001C666.284 604.519 666.237 604.045 666.144 603.579C666.051 603.113 665.888 602.701 665.654 602.344C665.437 601.987 665.134 601.699 664.745 601.482C664.373 601.249 663.906 601.132 663.347 601.132C662.788 601.132 662.322 601.249 661.949 601.482C661.576 601.699 661.273 601.987 661.04 602.344C660.822 602.701 660.667 603.113 660.574 603.579C660.48 604.045 660.434 604.519 660.434 605.001ZM657.124 605.001C657.124 604.038 657.272 603.167 657.567 602.391C657.862 601.598 658.282 600.93 658.826 600.386C659.369 599.827 660.022 599.4 660.783 599.104C661.545 598.794 662.399 598.638 663.347 598.638C664.295 598.638 665.149 598.794 665.911 599.104C666.688 599.4 667.348 599.827 667.892 600.386C668.436 600.93 668.855 601.598 669.151 602.391C669.446 603.167 669.593 604.038 669.593 605.001C669.593 605.964 669.446 606.834 669.151 607.611C668.855 608.388 668.436 609.056 667.892 609.616C667.348 610.16 666.688 610.579 665.911 610.874C665.149 611.17 664.295 611.317 663.347 611.317C662.399 611.317 661.545 611.17 660.783 610.874C660.022 610.579 659.369 610.16 658.826 609.616C658.282 609.056 657.862 608.388 657.567 607.611C657.272 606.834 657.124 605.964 657.124 605.001Z" fill="#FFFEF9"/>
<path d="M577.4 637.06L573.711 657.999L573.977 658.264C576.519 655.72 579.241 653.898 582.141 652.799C585.042 651.701 588.334 651.155 592.016 651.161C596.581 651.161 600.622 651.996 604.139 653.664C607.542 655.251 610.572 657.54 613.028 660.381C615.505 663.302 617.385 666.68 618.562 670.325C619.851 674.256 620.495 678.369 620.469 682.506C620.507 687.065 619.564 691.578 617.703 695.74C615.933 699.722 613.406 703.323 610.262 706.342C607.131 709.339 603.439 711.688 599.398 713.255C595.205 714.886 590.728 715.666 586.23 715.549C581.888 715.567 577.564 714.968 573.39 713.77C569.452 712.658 565.763 710.803 562.522 708.304C559.36 705.844 556.776 702.72 554.951 699.154C553.063 695.51 552.081 691.274 552.002 686.444H570.704C571.14 690.658 572.721 694.016 575.444 696.519C578.168 699.023 581.636 700.273 585.847 700.271C588.153 700.306 590.434 699.786 592.498 698.757C594.405 697.79 596.095 696.447 597.468 694.809C598.861 693.132 599.933 691.213 600.63 689.147C601.373 687.009 601.752 684.761 601.75 682.496C601.764 680.215 601.407 677.947 600.696 675.78C600.031 673.74 598.955 671.857 597.534 670.249C596.145 668.68 594.44 667.423 592.531 666.56C590.411 665.648 588.121 665.201 585.814 665.25C582.475 665.25 579.753 665.843 577.649 667.029C575.546 668.215 573.57 670.08 571.722 672.625H554.875L563.964 621.661H615.456V637.06H577.4Z" fill="#FFFEF9"/>
<path d="M715.421 678.6V681.483H720.702V686.11H715.421V709.624H709.229V686.11H699.812V709.624H693.607V686.11H688.98V681.483H693.607V679.144C693.607 677.368 693.825 675.926 694.262 674.816C694.615 673.829 695.215 672.949 696.005 672.26C696.721 671.665 697.571 671.253 698.482 671.061C699.438 670.859 700.414 670.759 701.392 670.763C703.388 670.763 704.839 670.89 705.746 671.143V675.986C705.327 675.873 704.899 675.792 704.468 675.743C703.935 675.684 703.399 675.656 702.863 675.661C702.102 675.64 701.353 675.849 700.713 676.261C700.115 676.66 699.816 677.44 699.816 678.6V681.483H709.232V679.144C709.232 677.368 709.45 675.926 709.887 674.816C710.24 673.83 710.839 672.95 711.627 672.26C712.343 671.666 713.193 671.255 714.104 671.061C715.061 670.859 716.038 670.759 717.017 670.763C719.011 670.763 720.462 670.89 721.371 671.143V675.986C720.952 675.873 720.524 675.792 720.093 675.743C719.56 675.684 719.024 675.656 718.488 675.661C717.726 675.64 716.976 675.849 716.335 676.261C715.749 676.66 715.421 677.444 715.421 678.6Z" fill="#FFFEF9"/>
<path d="M684.596 684.914C683.345 683.582 681.824 682.533 680.134 681.838C678.229 681.067 676.189 680.687 674.135 680.72C673.029 680.715 671.925 680.814 670.839 681.019L705.447 622.119H703.062L688.02 647.695C687.804 646.787 687.571 645.902 687.322 645.05C685.516 638.935 683.054 634.033 679.937 630.346C676.82 626.659 673.216 624.022 669.125 622.434C664.942 620.836 660.498 620.031 656.02 620.062C651.58 620.037 647.176 620.842 643.032 622.434C638.943 624.015 635.36 626.653 632.282 630.346C629.205 634.04 626.766 638.941 624.966 645.05C623.162 651.166 622.26 658.702 622.26 667.658C622.26 676.888 623.162 684.603 624.966 690.802C626.77 697.001 629.209 701.946 632.282 705.637C635.36 709.329 638.943 711.966 643.032 713.55C644.765 714.22 646.55 714.748 648.369 715.129L645.489 720.027H647.933L660.259 699.058C660.412 699.89 660.632 700.709 660.914 701.506C661.503 703.243 662.449 704.837 663.69 706.188C664.941 707.521 666.464 708.57 668.155 709.264C672.027 710.749 676.311 710.749 680.183 709.264C681.873 708.569 683.394 707.52 684.645 706.188C685.886 704.837 686.831 703.243 687.42 701.506C688.692 697.634 688.692 693.458 687.42 689.586C686.815 687.849 685.853 686.257 684.596 684.914ZM655.984 700.641C652.203 700.641 649.302 699.41 647.282 696.948C645.182 694.337 643.675 691.301 642.865 688.05C641.936 684.514 641.387 680.89 641.227 677.238C641.05 673.503 640.962 670.316 640.965 667.677C640.965 666.096 640.986 664.183 641.03 661.94C641.074 659.697 641.228 657.389 641.492 655.017C641.754 652.637 642.192 650.279 642.803 647.963C643.363 645.765 644.229 643.656 645.375 641.699C646.424 639.904 647.867 638.371 649.595 637.213C651.309 636.073 653.441 635.502 655.99 635.5C658.539 635.498 660.694 636.069 662.454 637.213C664.221 638.366 665.707 639.898 666.805 641.699C667.985 643.639 668.853 645.753 669.377 647.963C669.944 650.289 670.382 652.644 670.688 655.017C670.989 657.314 671.165 659.625 671.215 661.94C671.257 664.181 671.279 666.094 671.281 667.677C671.281 670.148 671.203 673.096 671.048 676.523L656.881 700.608C656.59 700.628 656.288 700.638 655.984 700.638V700.641ZM681.657 699.15C681.368 700.288 680.88 701.366 680.216 702.335C679.565 703.278 678.709 704.062 677.712 704.628C676.602 705.201 675.37 705.5 674.12 705.5C672.87 705.5 671.638 705.201 670.527 704.628C669.53 704.064 668.673 703.28 668.024 702.335C667.358 701.368 666.87 700.289 666.583 699.15C665.963 696.787 665.963 694.305 666.583 691.942C666.862 690.801 667.351 689.721 668.024 688.757C668.681 687.829 669.536 687.058 670.527 686.5C671.638 685.927 672.87 685.628 674.12 685.628C675.37 685.628 676.602 685.927 677.712 686.5C678.702 687.06 679.557 687.83 680.216 688.757C680.887 689.722 681.375 690.801 681.657 691.942C682.273 694.305 682.273 696.787 681.657 699.15Z" fill="#FFFEF9"/>
<path d="M695.552 625.825C695.42 625.176 695.158 624.561 694.782 624.016C694.415 623.5 693.928 623.081 693.364 622.794C692.68 622.473 691.93 622.319 691.175 622.345C690.44 622.328 689.711 622.477 689.042 622.781C688.46 623.058 687.951 623.466 687.555 623.973C687.151 624.5 686.856 625.101 686.686 625.743C686.495 626.446 686.4 627.173 686.405 627.902C686.399 628.624 686.479 629.345 686.644 630.048C686.781 630.669 687.049 631.253 687.43 631.761C687.811 632.251 688.309 632.638 688.878 632.885C689.564 633.177 690.305 633.317 691.05 633.295C691.781 633.312 692.507 633.178 693.183 632.902C693.755 632.659 694.26 632.284 694.658 631.807C695.054 631.314 695.345 630.746 695.513 630.136C695.706 629.447 695.801 628.733 695.795 628.016C695.793 627.279 695.711 626.544 695.552 625.825ZM692.872 628.983C692.847 629.338 692.772 629.688 692.649 630.022C692.535 630.34 692.341 630.624 692.086 630.847C691.787 631.066 691.426 631.184 691.055 631.184C690.685 631.184 690.324 631.066 690.025 630.847C689.781 630.621 689.597 630.337 689.491 630.022C689.377 629.682 689.311 629.328 689.294 628.97C689.278 628.593 689.268 628.259 689.268 627.958C689.268 627.656 689.268 627.276 689.311 626.863C689.333 626.471 689.413 626.083 689.547 625.713C689.668 625.374 689.865 625.067 690.123 624.816C690.412 624.56 690.79 624.429 691.175 624.452C691.358 624.44 691.541 624.47 691.711 624.538C691.881 624.606 692.033 624.711 692.158 624.845C692.398 625.121 692.575 625.446 692.675 625.798C692.789 626.177 692.859 626.567 692.885 626.961C692.915 627.364 692.928 627.705 692.928 627.987C692.928 628.269 692.902 628.626 692.872 628.983ZM710.031 635.208C709.901 634.576 709.638 633.979 709.261 633.455C708.89 632.953 708.403 632.549 707.842 632.276C707.156 631.962 706.407 631.813 705.653 631.84C704.92 631.822 704.191 631.966 703.52 632.263C702.943 632.525 702.435 632.919 702.036 633.413C701.632 633.918 701.336 634.5 701.165 635.123C700.972 635.817 700.877 636.535 700.883 637.256C700.88 637.983 700.96 638.709 701.122 639.418C701.264 640.049 701.531 640.646 701.908 641.171C702.28 641.673 702.773 642.073 703.34 642.334C704.024 642.635 704.766 642.779 705.512 642.757C706.244 642.775 706.972 642.635 707.645 642.347C708.222 642.095 708.728 641.706 709.12 641.214C709.514 640.704 709.805 640.122 709.975 639.5C710.167 638.806 710.262 638.088 710.257 637.367C710.262 636.638 710.186 635.911 710.031 635.198V635.208ZM707.35 638.337C707.326 638.71 707.251 639.078 707.128 639.431C707.013 639.766 706.821 640.069 706.567 640.316C706.287 640.568 705.918 640.699 705.542 640.68C705.353 640.692 705.164 640.666 704.985 640.604C704.807 640.541 704.643 640.443 704.503 640.316C704.258 640.067 704.075 639.764 703.969 639.431C703.856 639.072 703.79 638.7 703.773 638.324C703.756 637.931 703.746 637.583 703.746 637.285C703.746 636.987 703.746 636.61 703.789 636.217C703.812 635.842 703.893 635.473 704.028 635.123C704.148 634.8 704.345 634.511 704.602 634.281C704.9 634.045 705.274 633.929 705.653 633.953C705.835 633.942 706.017 633.97 706.186 634.036C706.356 634.101 706.509 634.203 706.636 634.333C706.872 634.591 707.049 634.898 707.154 635.231C707.268 635.586 707.338 635.953 707.363 636.325C707.393 636.709 707.406 637.043 707.406 637.308C707.406 637.574 707.38 637.944 707.35 638.327V638.337Z" fill="#FFFEF9"/>
<path d="M723.801 675.477L724.328 673.918L726.966 674.95V672.073H728.604V674.95L731.225 673.918L731.802 675.477L729.069 676.388L730.747 678.639L729.475 679.573L727.775 677.227L726.137 679.573L724.793 678.639L726.471 676.388L723.801 675.477Z" fill="#FFFEF9"/>
<path d="M40 670C40 667.791 41.7909 666 44 666H337C339.209 666 341 667.791 341 670V732C341 734.209 339.209 736 337 736H44C41.7909 736 40 734.209 40 732V670Z" fill="#BD0000"/>
<path d="M87.712 696.84C87.5413 695.197 86.944 694.013 85.92 693.288C84.9173 692.541 83.6267 692.168 82.048 692.168C81.408 692.168 80.7787 692.232 80.16 692.36C79.5413 692.488 78.9867 692.701 78.496 693C78.0267 693.299 77.6427 693.704 77.344 694.216C77.0667 694.707 76.928 695.325 76.928 696.072C76.928 696.776 77.1307 697.352 77.536 697.8C77.9627 698.227 78.5173 698.579 79.2 698.856C79.904 699.133 80.6933 699.368 81.568 699.56C82.4427 699.731 83.328 699.923 84.224 700.136C85.1413 700.349 86.0373 700.605 86.912 700.904C87.7867 701.181 88.5653 701.565 89.248 702.056C89.952 702.547 90.5067 703.165 90.912 703.912C91.3387 704.659 91.552 705.597 91.552 706.728C91.552 707.944 91.2747 708.989 90.72 709.864C90.1867 710.717 89.4933 711.421 88.64 711.976C87.7867 712.509 86.8267 712.893 85.76 713.128C84.7147 713.384 83.6693 713.512 82.624 713.512C81.344 713.512 80.128 713.352 78.976 713.032C77.8453 712.712 76.8427 712.232 75.968 711.592C75.1147 710.931 74.432 710.099 73.92 709.096C73.4293 708.072 73.184 706.867 73.184 705.48H76.064C76.064 706.44 76.2453 707.272 76.608 707.976C76.992 708.659 77.4827 709.224 78.08 709.672C78.6987 710.12 79.4133 710.451 80.224 710.664C81.0347 710.877 81.8667 710.984 82.72 710.984C83.4027 710.984 84.0853 710.92 84.768 710.792C85.472 710.664 86.1013 710.451 86.656 710.152C87.2107 709.832 87.6587 709.405 88 708.872C88.3413 708.339 88.512 707.656 88.512 706.824C88.512 706.035 88.2987 705.395 87.872 704.904C87.4667 704.413 86.912 704.019 86.208 703.72C85.5253 703.4 84.7467 703.144 83.872 702.952C82.9973 702.76 82.1013 702.568 81.184 702.376C80.288 702.163 79.4027 701.928 78.528 701.672C77.6533 701.395 76.864 701.043 76.16 700.616C75.4773 700.168 74.9227 699.603 74.496 698.92C74.0907 698.216 73.888 697.341 73.888 696.296C73.888 695.144 74.1227 694.152 74.592 693.32C75.0613 692.467 75.68 691.773 76.448 691.24C77.2373 690.685 78.1227 690.28 79.104 690.024C80.1067 689.747 81.1307 689.608 82.176 689.608C83.3493 689.608 84.4373 689.747 85.44 690.024C86.4427 690.301 87.3173 690.739 88.064 691.336C88.832 691.933 89.4293 692.691 89.856 693.608C90.304 694.504 90.5493 695.581 90.592 696.84H87.712ZM94.798 690.152H97.518V698.888H97.582C97.7953 698.376 98.094 697.949 98.478 697.608C98.862 697.245 99.2887 696.957 99.758 696.744C100.249 696.509 100.75 696.339 101.262 696.232C101.795 696.125 102.307 696.072 102.798 696.072C103.886 696.072 104.793 696.221 105.518 696.52C106.243 696.819 106.83 697.235 107.278 697.768C107.726 698.301 108.035 698.941 108.206 699.688C108.398 700.413 108.494 701.224 108.494 702.12V713H105.774V701.8C105.774 700.776 105.475 699.965 104.878 699.368C104.281 698.771 103.459 698.472 102.414 698.472C101.582 698.472 100.857 698.6 100.238 698.856C99.6407 699.112 99.1393 699.475 98.734 699.944C98.3287 700.413 98.0193 700.968 97.806 701.608C97.614 702.227 97.518 702.909 97.518 703.656V713H94.798V690.152ZM114.563 704.744C114.563 705.747 114.691 706.643 114.947 707.432C115.225 708.2 115.598 708.851 116.067 709.384C116.537 709.896 117.081 710.291 117.699 710.568C118.339 710.845 119.011 710.984 119.715 710.984C120.419 710.984 121.081 710.845 121.699 710.568C122.339 710.291 122.894 709.896 123.363 709.384C123.833 708.851 124.195 708.2 124.451 707.432C124.729 706.643 124.867 705.747 124.867 704.744C124.867 703.741 124.729 702.856 124.451 702.088C124.195 701.299 123.833 700.637 123.363 700.104C122.894 699.571 122.339 699.165 121.699 698.888C121.081 698.611 120.419 698.472 119.715 698.472C119.011 698.472 118.339 698.611 117.699 698.888C117.081 699.165 116.537 699.571 116.067 700.104C115.598 700.637 115.225 701.299 114.947 702.088C114.691 702.856 114.563 703.741 114.563 704.744ZM111.683 704.744C111.683 703.528 111.854 702.397 112.195 701.352C112.537 700.285 113.049 699.368 113.731 698.6C114.414 697.811 115.257 697.192 116.259 696.744C117.262 696.296 118.414 696.072 119.715 696.072C121.038 696.072 122.19 696.296 123.171 696.744C124.174 697.192 125.017 697.811 125.699 698.6C126.382 699.368 126.894 700.285 127.235 701.352C127.577 702.397 127.747 703.528 127.747 704.744C127.747 705.96 127.577 707.091 127.235 708.136C126.894 709.181 126.382 710.099 125.699 710.888C125.017 711.656 124.174 712.264 123.171 712.712C122.19 713.139 121.038 713.352 119.715 713.352C118.414 713.352 117.262 713.139 116.259 712.712C115.257 712.264 114.414 711.656 113.731 710.888C113.049 710.099 112.537 709.181 112.195 708.136C111.854 707.091 111.683 705.96 111.683 704.744ZM131.05 696.456H133.77V698.696H133.834C134.282 697.779 134.986 697.117 135.946 696.712C136.906 696.285 137.962 696.072 139.114 696.072C140.394 696.072 141.504 696.307 142.442 696.776C143.402 697.245 144.192 697.885 144.81 698.696C145.45 699.485 145.93 700.403 146.25 701.448C146.57 702.493 146.73 703.603 146.73 704.776C146.73 705.949 146.57 707.059 146.25 708.104C145.952 709.149 145.482 710.067 144.842 710.856C144.224 711.624 143.434 712.232 142.474 712.68C141.536 713.128 140.437 713.352 139.178 713.352C138.773 713.352 138.314 713.309 137.802 713.224C137.312 713.139 136.821 713 136.33 712.808C135.84 712.616 135.37 712.36 134.922 712.04C134.496 711.699 134.133 711.283 133.834 710.792H133.77V719.304H131.05V696.456ZM143.85 704.584C143.85 703.816 143.744 703.069 143.53 702.344C143.338 701.597 143.029 700.936 142.602 700.36C142.197 699.784 141.664 699.325 141.002 698.984C140.362 698.643 139.605 698.472 138.73 698.472C137.813 698.472 137.034 698.653 136.394 699.016C135.754 699.379 135.232 699.859 134.826 700.456C134.421 701.032 134.122 701.693 133.93 702.44C133.76 703.187 133.674 703.944 133.674 704.712C133.674 705.523 133.77 706.312 133.962 707.08C134.154 707.827 134.453 708.488 134.858 709.064C135.285 709.64 135.829 710.109 136.49 710.472C137.152 710.813 137.952 710.984 138.89 710.984C139.829 710.984 140.608 710.803 141.226 710.44C141.866 710.077 142.378 709.597 142.762 709C143.146 708.403 143.424 707.72 143.594 706.952C143.765 706.184 143.85 705.395 143.85 704.584ZM163.213 703.56H170.957L167.149 692.904H167.085L163.213 703.56ZM165.485 690.152H168.845L177.773 713H174.413L171.917 706.12H162.253L159.693 713H156.589L165.485 690.152ZM179.739 690.152H182.459V713H179.739V690.152ZM186.833 690.152H189.553V713H186.833V690.152ZM203.121 690.152H206.161V699.976H218.193V690.152H221.233V713H218.193V702.536H206.161V713H203.121V690.152ZM227.751 704.744C227.751 705.747 227.879 706.643 228.135 707.432C228.412 708.2 228.785 708.851 229.255 709.384C229.724 709.896 230.268 710.291 230.887 710.568C231.527 710.845 232.199 710.984 232.903 710.984C233.607 710.984 234.268 710.845 234.887 710.568C235.527 710.291 236.081 709.896 236.551 709.384C237.02 708.851 237.383 708.2 237.639 707.432C237.916 706.643 238.055 705.747 238.055 704.744C238.055 703.741 237.916 702.856 237.639 702.088C237.383 701.299 237.02 700.637 236.551 700.104C236.081 699.571 235.527 699.165 234.887 698.888C234.268 698.611 233.607 698.472 232.903 698.472C232.199 698.472 231.527 698.611 230.887 698.888C230.268 699.165 229.724 699.571 229.255 700.104C228.785 700.637 228.412 701.299 228.135 702.088C227.879 702.856 227.751 703.741 227.751 704.744ZM224.871 704.744C224.871 703.528 225.041 702.397 225.383 701.352C225.724 700.285 226.236 699.368 226.919 698.6C227.601 697.811 228.444 697.192 229.447 696.744C230.449 696.296 231.601 696.072 232.903 696.072C234.225 696.072 235.377 696.296 236.359 696.744C237.361 697.192 238.204 697.811 238.887 698.6C239.569 699.368 240.081 700.285 240.423 701.352C240.764 702.397 240.935 703.528 240.935 704.744C240.935 705.96 240.764 707.091 240.423 708.136C240.081 709.181 239.569 710.099 238.887 710.888C238.204 711.656 237.361 712.264 236.359 712.712C235.377 713.139 234.225 713.352 232.903 713.352C231.601 713.352 230.449 713.139 229.447 712.712C228.444 712.264 227.601 711.656 226.919 710.888C226.236 710.099 225.724 709.181 225.383 708.136C225.041 707.091 224.871 705.96 224.871 704.744ZM244.302 690.152H247.022V713H244.302V690.152ZM254.116 693.48H251.396V690.152H254.116V693.48ZM251.396 696.456H254.116V713H251.396V696.456ZM260.313 704.872C260.313 705.64 260.409 706.397 260.601 707.144C260.815 707.869 261.124 708.52 261.529 709.096C261.956 709.672 262.489 710.131 263.129 710.472C263.791 710.813 264.559 710.984 265.433 710.984C266.351 710.984 267.129 710.803 267.769 710.44C268.409 710.077 268.932 709.608 269.337 709.032C269.743 708.435 270.031 707.763 270.201 707.016C270.393 706.269 270.489 705.512 270.489 704.744C270.489 703.933 270.393 703.155 270.201 702.408C270.009 701.64 269.7 700.968 269.273 700.392C268.868 699.816 268.335 699.357 267.673 699.016C267.012 698.653 266.212 698.472 265.273 698.472C264.356 698.472 263.577 698.653 262.937 699.016C262.297 699.379 261.785 699.859 261.401 700.456C261.017 701.053 260.74 701.736 260.569 702.504C260.399 703.272 260.313 704.061 260.313 704.872ZM273.113 713H270.393V710.76H270.329C269.881 711.677 269.177 712.339 268.217 712.744C267.257 713.149 266.201 713.352 265.049 713.352C263.769 713.352 262.649 713.117 261.689 712.648C260.751 712.179 259.961 711.549 259.321 710.76C258.703 709.971 258.233 709.053 257.913 708.008C257.593 706.963 257.433 705.853 257.433 704.68C257.433 703.507 257.583 702.397 257.881 701.352C258.201 700.307 258.671 699.4 259.289 698.632C259.929 697.843 260.719 697.224 261.657 696.776C262.617 696.307 263.727 696.072 264.985 696.072C265.412 696.072 265.871 696.115 266.361 696.2C266.852 696.285 267.343 696.435 267.833 696.648C268.324 696.84 268.783 697.107 269.209 697.448C269.657 697.768 270.031 698.173 270.329 698.664H270.393V690.152H273.113V713ZM291.954 712.936C291.485 713.213 290.834 713.352 290.002 713.352C289.298 713.352 288.733 713.16 288.306 712.776C287.901 712.371 287.698 711.72 287.698 710.824C286.951 711.72 286.077 712.371 285.074 712.776C284.093 713.16 283.026 713.352 281.874 713.352C281.127 713.352 280.413 713.267 279.73 713.096C279.069 712.925 278.493 712.659 278.002 712.296C277.511 711.933 277.117 711.464 276.818 710.888C276.541 710.291 276.402 709.576 276.402 708.744C276.402 707.805 276.562 707.037 276.882 706.44C277.202 705.843 277.618 705.363 278.13 705C278.663 704.616 279.261 704.328 279.922 704.136C280.605 703.944 281.298 703.784 282.002 703.656C282.749 703.507 283.453 703.4 284.114 703.336C284.797 703.251 285.394 703.144 285.906 703.016C286.418 702.867 286.823 702.664 287.122 702.408C287.421 702.131 287.57 701.736 287.57 701.224C287.57 700.627 287.453 700.147 287.218 699.784C287.005 699.421 286.717 699.144 286.354 698.952C286.013 698.76 285.618 698.632 285.17 698.568C284.743 698.504 284.317 698.472 283.89 698.472C282.738 698.472 281.778 698.696 281.01 699.144C280.242 699.571 279.826 700.392 279.762 701.608H277.042C277.085 700.584 277.298 699.72 277.682 699.016C278.066 698.312 278.578 697.747 279.218 697.32C279.858 696.872 280.583 696.552 281.394 696.36C282.226 696.168 283.111 696.072 284.05 696.072C284.797 696.072 285.533 696.125 286.258 696.232C287.005 696.339 287.677 696.563 288.274 696.904C288.871 697.224 289.351 697.683 289.714 698.28C290.077 698.877 290.258 699.656 290.258 700.616V709.128C290.258 709.768 290.29 710.237 290.354 710.536C290.439 710.835 290.695 710.984 291.122 710.984C291.357 710.984 291.634 710.931 291.954 710.824V712.936ZM287.538 704.456C287.197 704.712 286.749 704.904 286.194 705.032C285.639 705.139 285.053 705.235 284.434 705.32C283.837 705.384 283.229 705.469 282.61 705.576C281.991 705.661 281.437 705.811 280.946 706.024C280.455 706.237 280.05 706.547 279.73 706.952C279.431 707.336 279.282 707.869 279.282 708.552C279.282 709 279.367 709.384 279.538 709.704C279.73 710.003 279.965 710.248 280.242 710.44C280.541 710.632 280.882 710.771 281.266 710.856C281.65 710.941 282.055 710.984 282.482 710.984C283.378 710.984 284.146 710.867 284.786 710.632C285.426 710.376 285.949 710.067 286.354 709.704C286.759 709.32 287.058 708.915 287.25 708.488C287.442 708.04 287.538 707.624 287.538 707.24V704.456ZM300.982 715.208C300.662 716.019 300.342 716.701 300.022 717.256C299.723 717.811 299.382 718.259 298.998 718.6C298.635 718.963 298.219 719.219 297.75 719.368C297.302 719.539 296.779 719.624 296.182 719.624C295.862 719.624 295.542 719.603 295.222 719.56C294.902 719.517 294.592 719.443 294.294 719.336V716.84C294.528 716.947 294.795 717.032 295.094 717.096C295.414 717.181 295.68 717.224 295.894 717.224C296.448 717.224 296.907 717.085 297.27 716.808C297.654 716.552 297.942 716.179 298.134 715.688L299.254 712.904L292.694 696.456H295.766L300.598 709.992H300.661L305.302 696.456H308.182L300.982 715.208Z" fill="#FFFEF9"/>
<path d="M44.312 614.92H41.932V612.008H44.312V614.92ZM41.932 617.524H44.312V632H41.932V617.524ZM51.303 617.524H54.187V619.624H51.303V628.612C51.303 628.892 51.3217 629.116 51.359 629.284C51.415 629.452 51.5084 629.583 51.639 629.676C51.7697 629.769 51.947 629.835 52.171 629.872C52.4137 629.891 52.7217 629.9 53.095 629.9H54.187V632H52.367C51.751 632 51.219 631.963 50.771 631.888C50.3417 631.795 49.987 631.636 49.707 631.412C49.4457 631.188 49.2497 630.871 49.119 630.46C48.9884 630.049 48.923 629.508 48.923 628.836V619.624H46.459V617.524H48.923V613.184H51.303V617.524ZM57.3631 612.008H60.4711V615.116C60.4711 615.676 60.4057 616.208 60.2751 616.712C60.1631 617.197 59.9764 617.627 59.7151 618C59.4724 618.373 59.1551 618.672 58.7631 618.896C58.3897 619.12 57.9324 619.232 57.3911 619.232V617.832C57.7084 617.832 57.9697 617.757 58.1751 617.608C58.3804 617.44 58.5484 617.225 58.6791 616.964C58.8097 616.703 58.8937 616.413 58.9311 616.096C58.9871 615.76 59.0151 615.433 59.0151 615.116H57.3631V612.008ZM64.0019 627.436C64.0206 627.959 64.1419 628.407 64.3659 628.78C64.5899 629.135 64.8792 629.424 65.2339 629.648C65.6072 629.853 66.0179 630.003 66.4659 630.096C66.9326 630.189 67.4086 630.236 67.8939 630.236C68.2672 630.236 68.6592 630.208 69.0699 630.152C69.4806 630.096 69.8539 629.993 70.1899 629.844C70.5446 629.695 70.8339 629.48 71.0579 629.2C71.2819 628.901 71.3939 628.528 71.3939 628.08C71.3939 627.464 71.1606 626.997 70.6939 626.68C70.2272 626.363 69.6392 626.111 68.9299 625.924C68.2392 625.719 67.4832 625.541 66.6619 625.392C65.8406 625.224 65.0752 625 64.3659 624.72C63.6752 624.421 63.0966 624.011 62.6299 623.488C62.1632 622.965 61.9299 622.237 61.9299 621.304C61.9299 620.576 62.0886 619.951 62.4059 619.428C62.7419 618.905 63.1619 618.485 63.6659 618.168C64.1886 617.832 64.7672 617.589 65.4019 617.44C66.0552 617.272 66.6992 617.188 67.3339 617.188C68.1552 617.188 68.9112 617.263 69.6019 617.412C70.2926 617.543 70.8992 617.785 71.4219 618.14C71.9632 618.476 72.3926 618.943 72.7099 619.54C73.0272 620.119 73.2139 620.847 73.2699 621.724H70.8899C70.8526 621.257 70.7312 620.875 70.5259 620.576C70.3206 620.259 70.0592 620.007 69.7419 619.82C69.4246 619.633 69.0699 619.503 68.6779 619.428C68.3046 619.335 67.9219 619.288 67.5299 619.288C67.1752 619.288 66.8112 619.316 66.4379 619.372C66.0832 619.428 65.7566 619.531 65.4579 619.68C65.1592 619.811 64.9166 619.997 64.7299 620.24C64.5432 620.464 64.4499 620.763 64.4499 621.136C64.4499 621.547 64.5899 621.892 64.8699 622.172C65.1686 622.433 65.5419 622.657 65.9899 622.844C66.4379 623.012 66.9419 623.161 67.5019 623.292C68.0619 623.404 68.6219 623.525 69.1819 623.656C69.7792 623.787 70.3579 623.945 70.9179 624.132C71.4966 624.319 72.0006 624.571 72.4299 624.888C72.8779 625.187 73.2326 625.569 73.4939 626.036C73.7739 626.503 73.9139 627.081 73.9139 627.772C73.9139 628.649 73.7272 629.377 73.3539 629.956C72.9992 630.535 72.5232 631.001 71.9259 631.356C71.3472 631.711 70.6846 631.953 69.9379 632.084C69.2099 632.233 68.4819 632.308 67.7539 632.308C66.9512 632.308 66.1859 632.224 65.4579 632.056C64.7299 631.888 64.0859 631.617 63.5259 631.244C62.9659 630.852 62.5179 630.348 62.1819 629.732C61.8459 629.097 61.6592 628.332 61.6219 627.436H64.0019ZM87.6429 617.524H90.5269V619.624H87.6429V628.612C87.6429 628.892 87.6615 629.116 87.6989 629.284C87.7549 629.452 87.8482 629.583 87.9789 629.676C88.1095 629.769 88.2869 629.835 88.5109 629.872C88.7535 629.891 89.0615 629.9 89.4349 629.9H90.5269V632H88.7069C88.0909 632 87.5589 631.963 87.1109 631.888C86.6815 631.795 86.3269 631.636 86.0469 631.412C85.7855 631.188 85.5895 630.871 85.4589 630.46C85.3282 630.049 85.2629 629.508 85.2629 628.836V619.624H82.7989V617.524H85.2629V613.184H87.6429V617.524ZM95.6909 614.92H93.3109V612.008H95.6909V614.92ZM93.3109 617.524H95.6909V632H93.3109V617.524ZM99.3779 617.524H101.618V619.652H101.674C102.757 618.009 104.315 617.188 106.35 617.188C107.246 617.188 108.058 617.375 108.786 617.748C109.514 618.121 110.027 618.756 110.326 619.652C110.811 618.868 111.446 618.261 112.23 617.832C113.033 617.403 113.91 617.188 114.862 617.188C115.59 617.188 116.243 617.272 116.822 617.44C117.419 617.589 117.923 617.832 118.334 618.168C118.763 618.504 119.09 618.943 119.314 619.484C119.557 620.007 119.678 620.641 119.678 621.388V632H117.298V622.508C117.298 622.06 117.261 621.64 117.186 621.248C117.111 620.856 116.971 620.52 116.766 620.24C116.561 619.941 116.271 619.708 115.898 619.54C115.543 619.372 115.077 619.288 114.498 619.288C113.322 619.288 112.398 619.624 111.726 620.296C111.054 620.968 110.718 621.864 110.718 622.984V632H108.338V622.508C108.338 622.041 108.291 621.612 108.198 621.22C108.123 620.828 107.983 620.492 107.778 620.212C107.573 619.913 107.293 619.689 106.938 619.54C106.602 619.372 106.163 619.288 105.622 619.288C104.931 619.288 104.334 619.428 103.83 619.708C103.345 619.988 102.943 620.324 102.626 620.716C102.327 621.108 102.103 621.519 101.954 621.948C101.823 622.359 101.758 622.704 101.758 622.984V632H99.3779V617.524ZM133.301 623.376C133.264 622.816 133.133 622.284 132.909 621.78C132.704 621.276 132.414 620.847 132.041 620.492C131.686 620.119 131.257 619.829 130.753 619.624C130.268 619.4 129.726 619.288 129.129 619.288C128.513 619.288 127.953 619.4 127.449 619.624C126.964 619.829 126.544 620.119 126.189 620.492C125.834 620.865 125.554 621.304 125.349 621.808C125.144 622.293 125.022 622.816 124.985 623.376H133.301ZM135.597 627.408C135.28 629.032 134.58 630.255 133.497 631.076C132.414 631.897 131.052 632.308 129.409 632.308C128.252 632.308 127.244 632.121 126.385 631.748C125.545 631.375 124.836 630.852 124.257 630.18C123.678 629.508 123.24 628.705 122.941 627.772C122.661 626.839 122.502 625.821 122.465 624.72C122.465 623.619 122.633 622.611 122.969 621.696C123.305 620.781 123.772 619.988 124.369 619.316C124.985 618.644 125.704 618.121 126.525 617.748C127.365 617.375 128.28 617.188 129.269 617.188C130.557 617.188 131.621 617.459 132.461 618C133.32 618.523 134.001 619.195 134.505 620.016C135.028 620.837 135.382 621.733 135.569 622.704C135.774 623.675 135.858 624.599 135.821 625.476H124.985C124.966 626.111 125.041 626.717 125.209 627.296C125.377 627.856 125.648 628.36 126.021 628.808C126.394 629.237 126.87 629.583 127.449 629.844C128.028 630.105 128.709 630.236 129.493 630.236C130.501 630.236 131.322 630.003 131.957 629.536C132.61 629.069 133.04 628.36 133.245 627.408H135.597ZM150.841 617.524H153.753V620.184H150.841V627.352C150.841 628.024 150.953 628.472 151.177 628.696C151.401 628.92 151.849 629.032 152.521 629.032C152.745 629.032 152.96 629.023 153.165 629.004C153.37 628.985 153.566 628.957 153.753 628.92V632C153.417 632.056 153.044 632.093 152.633 632.112C152.222 632.131 151.821 632.14 151.429 632.14C150.813 632.14 150.225 632.093 149.665 632C149.124 631.925 148.638 631.767 148.209 631.524C147.798 631.281 147.472 630.936 147.229 630.488C146.986 630.04 146.865 629.452 146.865 628.724V620.184H144.457V617.524H146.865V613.184H150.841V617.524ZM159.173 624.776C159.173 625.355 159.229 625.924 159.341 626.484C159.453 627.025 159.639 627.52 159.901 627.968C160.181 628.397 160.545 628.743 160.993 629.004C161.441 629.265 162.001 629.396 162.673 629.396C163.345 629.396 163.905 629.265 164.353 629.004C164.819 628.743 165.183 628.397 165.445 627.968C165.725 627.52 165.921 627.025 166.033 626.484C166.145 625.924 166.201 625.355 166.201 624.776C166.201 624.197 166.145 623.628 166.033 623.068C165.921 622.508 165.725 622.013 165.445 621.584C165.183 621.155 164.819 620.809 164.353 620.548C163.905 620.268 163.345 620.128 162.673 620.128C162.001 620.128 161.441 620.268 160.993 620.548C160.545 620.809 160.181 621.155 159.901 621.584C159.639 622.013 159.453 622.508 159.341 623.068C159.229 623.628 159.173 624.197 159.173 624.776ZM155.197 624.776C155.197 623.619 155.374 622.573 155.729 621.64C156.083 620.688 156.587 619.885 157.241 619.232C157.894 618.56 158.678 618.047 159.593 617.692C160.507 617.319 161.534 617.132 162.673 617.132C163.811 617.132 164.838 617.319 165.753 617.692C166.686 618.047 167.479 618.56 168.133 619.232C168.786 619.885 169.29 620.688 169.645 621.64C169.999 622.573 170.177 623.619 170.177 624.776C170.177 625.933 169.999 626.979 169.645 627.912C169.29 628.845 168.786 629.648 168.133 630.32C167.479 630.973 166.686 631.477 165.753 631.832C164.838 632.187 163.811 632.364 162.673 632.364C161.534 632.364 160.507 632.187 159.593 631.832C158.678 631.477 157.894 630.973 157.241 630.32C156.587 629.648 156.083 628.845 155.729 627.912C155.374 626.979 155.197 625.933 155.197 624.776ZM190.831 624.72C190.831 624.123 190.775 623.553 190.663 623.012C190.551 622.452 190.355 621.967 190.075 621.556C189.814 621.127 189.468 620.781 189.039 620.52C188.61 620.259 188.068 620.128 187.415 620.128C186.762 620.128 186.211 620.259 185.763 620.52C185.315 620.781 184.951 621.127 184.671 621.556C184.41 621.985 184.214 622.48 184.083 623.04C183.971 623.581 183.915 624.151 183.915 624.748C183.915 625.308 183.98 625.868 184.111 626.428C184.242 626.988 184.447 627.492 184.727 627.94C185.026 628.369 185.39 628.724 185.819 629.004C186.267 629.265 186.799 629.396 187.415 629.396C188.068 629.396 188.61 629.265 189.039 629.004C189.487 628.743 189.842 628.397 190.103 627.968C190.364 627.52 190.551 627.016 190.663 626.456C190.775 625.896 190.831 625.317 190.831 624.72ZM190.887 630.152H190.831C190.364 630.936 189.748 631.505 188.983 631.86C188.236 632.196 187.387 632.364 186.435 632.364C185.352 632.364 184.4 632.159 183.579 631.748C182.758 631.319 182.076 630.749 181.535 630.04C181.012 629.312 180.611 628.481 180.331 627.548C180.07 626.615 179.939 625.644 179.939 624.636C179.939 623.665 180.07 622.732 180.331 621.836C180.611 620.921 181.012 620.119 181.535 619.428C182.076 618.737 182.748 618.187 183.551 617.776C184.354 617.347 185.287 617.132 186.351 617.132C187.21 617.132 188.022 617.319 188.787 617.692C189.571 618.047 190.187 618.579 190.635 619.288H190.691V612.008H194.667V632H190.887V630.152ZM207.416 623.208C207.229 622.2 206.893 621.435 206.408 620.912C205.941 620.389 205.223 620.128 204.252 620.128C203.617 620.128 203.085 620.24 202.656 620.464C202.245 620.669 201.909 620.931 201.648 621.248C201.405 621.565 201.228 621.901 201.116 622.256C201.023 622.611 200.967 622.928 200.948 623.208H207.416ZM200.948 625.728C201.004 627.016 201.331 627.949 201.928 628.528C202.525 629.107 203.384 629.396 204.504 629.396C205.307 629.396 205.997 629.2 206.576 628.808C207.155 628.397 207.509 627.968 207.64 627.52H211.14C210.58 629.256 209.721 630.497 208.564 631.244C207.407 631.991 206.007 632.364 204.364 632.364C203.225 632.364 202.199 632.187 201.284 631.832C200.369 631.459 199.595 630.936 198.96 630.264C198.325 629.592 197.831 628.789 197.476 627.856C197.14 626.923 196.972 625.896 196.972 624.776C196.972 623.693 197.149 622.685 197.504 621.752C197.859 620.819 198.363 620.016 199.016 619.344C199.669 618.653 200.444 618.112 201.34 617.72C202.255 617.328 203.263 617.132 204.364 617.132C205.596 617.132 206.669 617.375 207.584 617.86C208.499 618.327 209.245 618.961 209.824 619.764C210.421 620.567 210.851 621.481 211.112 622.508C211.373 623.535 211.467 624.608 211.392 625.728H200.948ZM223.606 622.62C223.345 620.959 222.365 620.128 220.666 620.128C220.032 620.128 219.5 620.277 219.07 620.576C218.641 620.856 218.286 621.229 218.006 621.696C217.745 622.144 217.558 622.648 217.446 623.208C217.334 623.749 217.278 624.291 217.278 624.832C217.278 625.355 217.334 625.887 217.446 626.428C217.558 626.969 217.736 627.464 217.978 627.912C218.24 628.341 218.585 628.696 219.014 628.976C219.444 629.256 219.966 629.396 220.582 629.396C221.534 629.396 222.262 629.135 222.766 628.612C223.289 628.071 223.616 627.352 223.746 626.456H227.582C227.321 628.379 226.574 629.844 225.342 630.852C224.11 631.86 222.533 632.364 220.61 632.364C219.528 632.364 218.529 632.187 217.614 631.832C216.718 631.459 215.953 630.945 215.318 630.292C214.684 629.639 214.189 628.864 213.834 627.968C213.48 627.053 213.302 626.055 213.302 624.972C213.302 623.852 213.461 622.816 213.778 621.864C214.114 620.893 214.6 620.063 215.234 619.372C215.869 618.663 216.644 618.112 217.558 617.72C218.473 617.328 219.518 617.132 220.694 617.132C221.553 617.132 222.374 617.244 223.158 617.468C223.961 617.692 224.67 618.037 225.286 618.504C225.921 618.952 226.434 619.521 226.826 620.212C227.218 620.884 227.442 621.687 227.498 622.62H223.606ZM233.356 624.776C233.356 625.355 233.412 625.924 233.524 626.484C233.636 627.025 233.823 627.52 234.084 627.968C234.364 628.397 234.728 628.743 235.176 629.004C235.624 629.265 236.184 629.396 236.856 629.396C237.528 629.396 238.088 629.265 238.536 629.004C239.003 628.743 239.367 628.397 239.628 627.968C239.908 627.52 240.104 627.025 240.216 626.484C240.328 625.924 240.384 625.355 240.384 624.776C240.384 624.197 240.328 623.628 240.216 623.068C240.104 622.508 239.908 622.013 239.628 621.584C239.367 621.155 239.003 620.809 238.536 620.548C238.088 620.268 237.528 620.128 236.856 620.128C236.184 620.128 235.624 620.268 235.176 620.548C234.728 620.809 234.364 621.155 234.084 621.584C233.823 622.013 233.636 622.508 233.524 623.068C233.412 623.628 233.356 624.197 233.356 624.776ZM229.38 624.776C229.38 623.619 229.558 622.573 229.912 621.64C230.267 620.688 230.771 619.885 231.424 619.232C232.078 618.56 232.862 618.047 233.776 617.692C234.691 617.319 235.718 617.132 236.856 617.132C237.995 617.132 239.022 617.319 239.936 617.692C240.87 618.047 241.663 618.56 242.316 619.232C242.97 619.885 243.474 620.688 243.828 621.64C244.183 622.573 244.36 623.619 244.36 624.776C244.36 625.933 244.183 626.979 243.828 627.912C243.474 628.845 242.97 629.648 242.316 630.32C241.663 630.973 240.87 631.477 239.936 631.832C239.022 632.187 237.995 632.364 236.856 632.364C235.718 632.364 234.691 632.187 233.776 631.832C232.862 631.477 232.078 630.973 231.424 630.32C230.771 629.648 230.267 628.845 229.912 627.912C229.558 626.979 229.38 625.933 229.38 624.776ZM246.946 617.524H250.726V620.212H250.782C250.968 619.764 251.22 619.353 251.538 618.98C251.855 618.588 252.219 618.261 252.63 618C253.04 617.72 253.479 617.505 253.946 617.356C254.412 617.207 254.898 617.132 255.402 617.132C255.663 617.132 255.952 617.179 256.27 617.272V620.968C256.083 620.931 255.859 620.903 255.598 620.884C255.336 620.847 255.084 620.828 254.842 620.828C254.114 620.828 253.498 620.949 252.994 621.192C252.49 621.435 252.079 621.771 251.762 622.2C251.463 622.611 251.248 623.096 251.118 623.656C250.987 624.216 250.922 624.823 250.922 625.476V632H246.946V617.524ZM257.66 621.976C257.716 621.043 257.95 620.268 258.36 619.652C258.771 619.036 259.294 618.541 259.928 618.168C260.563 617.795 261.272 617.533 262.056 617.384C262.859 617.216 263.662 617.132 264.464 617.132C265.192 617.132 265.93 617.188 266.676 617.3C267.423 617.393 268.104 617.589 268.72 617.888C269.336 618.187 269.84 618.607 270.232 619.148C270.624 619.671 270.82 620.371 270.82 621.248V628.78C270.82 629.433 270.858 630.059 270.932 630.656C271.007 631.253 271.138 631.701 271.324 632H267.292C267.218 631.776 267.152 631.552 267.096 631.328C267.059 631.085 267.031 630.843 267.012 630.6C266.378 631.253 265.631 631.711 264.772 631.972C263.914 632.233 263.036 632.364 262.14 632.364C261.45 632.364 260.806 632.28 260.208 632.112C259.611 631.944 259.088 631.683 258.64 631.328C258.192 630.973 257.838 630.525 257.576 629.984C257.334 629.443 257.212 628.799 257.212 628.052C257.212 627.231 257.352 626.559 257.632 626.036C257.931 625.495 258.304 625.065 258.752 624.748C259.219 624.431 259.742 624.197 260.32 624.048C260.918 623.88 261.515 623.749 262.112 623.656C262.71 623.563 263.298 623.488 263.876 623.432C264.455 623.376 264.968 623.292 265.416 623.18C265.864 623.068 266.219 622.909 266.48 622.704C266.742 622.48 266.863 622.163 266.844 621.752C266.844 621.323 266.77 620.987 266.62 620.744C266.49 620.483 266.303 620.287 266.06 620.156C265.836 620.007 265.566 619.913 265.248 619.876C264.95 619.82 264.623 619.792 264.268 619.792C263.484 619.792 262.868 619.96 262.42 620.296C261.972 620.632 261.711 621.192 261.636 621.976H257.66ZM266.844 624.916C266.676 625.065 266.462 625.187 266.2 625.28C265.958 625.355 265.687 625.42 265.388 625.476C265.108 625.532 264.81 625.579 264.492 625.616C264.175 625.653 263.858 625.7 263.54 625.756C263.242 625.812 262.943 625.887 262.644 625.98C262.364 626.073 262.112 626.204 261.888 626.372C261.683 626.521 261.515 626.717 261.384 626.96C261.254 627.203 261.188 627.511 261.188 627.884C261.188 628.239 261.254 628.537 261.384 628.78C261.515 629.023 261.692 629.219 261.916 629.368C262.14 629.499 262.402 629.592 262.7 629.648C262.999 629.704 263.307 629.732 263.624 629.732C264.408 629.732 265.015 629.601 265.444 629.34C265.874 629.079 266.191 628.771 266.396 628.416C266.602 628.043 266.723 627.669 266.76 627.296C266.816 626.923 266.844 626.624 266.844 626.4V624.916ZM278.947 617.524H281.859V620.184H278.947V627.352C278.947 628.024 279.059 628.472 279.283 628.696C279.507 628.92 279.955 629.032 280.627 629.032C280.851 629.032 281.065 629.023 281.271 629.004C281.476 628.985 281.672 628.957 281.859 628.92V632C281.523 632.056 281.149 632.093 280.739 632.112C280.328 632.131 279.927 632.14 279.535 632.14C278.919 632.14 278.331 632.093 277.771 632C277.229 631.925 276.744 631.767 276.315 631.524C275.904 631.281 275.577 630.936 275.335 630.488C275.092 630.04 274.971 629.452 274.971 628.724V620.184H272.563V617.524H274.971V613.184H278.947V617.524ZM293.494 623.208C293.308 622.2 292.972 621.435 292.486 620.912C292.02 620.389 291.301 620.128 290.33 620.128C289.696 620.128 289.164 620.24 288.734 620.464C288.324 620.669 287.988 620.931 287.726 621.248C287.484 621.565 287.306 621.901 287.194 622.256C287.101 622.611 287.045 622.928 287.026 623.208H293.494ZM287.026 625.728C287.082 627.016 287.409 627.949 288.006 628.528C288.604 629.107 289.462 629.396 290.582 629.396C291.385 629.396 292.076 629.2 292.654 628.808C293.233 628.397 293.588 627.968 293.718 627.52H297.218C296.658 629.256 295.8 630.497 294.642 631.244C293.485 631.991 292.085 632.364 290.442 632.364C289.304 632.364 288.277 632.187 287.362 631.832C286.448 631.459 285.673 630.936 285.038 630.264C284.404 629.592 283.909 628.789 283.554 627.856C283.218 626.923 283.05 625.896 283.05 624.776C283.05 623.693 283.228 622.685 283.582 621.752C283.937 620.819 284.441 620.016 285.094 619.344C285.748 618.653 286.522 618.112 287.418 617.72C288.333 617.328 289.341 617.132 290.442 617.132C291.674 617.132 292.748 617.375 293.662 617.86C294.577 618.327 295.324 618.961 295.902 619.764C296.5 620.567 296.929 621.481 297.19 622.508C297.452 623.535 297.545 624.608 297.47 625.728H287.026Z" fill="#FFFEF9"/>
<path d="M50.4 429.46H57.225V432.905H50.4V455.525C50.4 456.868 50.5733 457.93 50.92 458.71C51.31 459.447 52.2417 459.858 53.715 459.945C54.885 459.945 56.055 459.88 57.225 459.75V463.195C56.6183 463.195 56.0117 463.217 55.405 463.26C54.7983 463.303 54.1917 463.325 53.585 463.325C50.855 463.325 48.9483 462.805 47.865 461.765C46.7817 460.682 46.2617 458.71 46.305 455.85V432.905H40.455V429.46H46.305V419.385H50.4V429.46ZM61.1184 416.59H65.2134V435.245H65.3434C66.1234 433.208 67.5101 431.583 69.5034 430.37C71.4967 429.113 73.6851 428.485 76.0684 428.485C78.4084 428.485 80.3584 428.788 81.9184 429.395C83.5217 430.002 84.8001 430.868 85.7534 431.995C86.7067 433.078 87.3784 434.422 87.7684 436.025C88.1584 437.628 88.3534 439.427 88.3534 441.42V463H84.2584V442.07C84.2584 440.64 84.1284 439.318 83.8684 438.105C83.6084 436.848 83.1534 435.765 82.5034 434.855C81.8534 433.945 80.9651 433.23 79.8384 432.71C78.7551 432.19 77.3901 431.93 75.7434 431.93C74.0967 431.93 72.6234 432.233 71.3234 432.84C70.0667 433.403 68.9834 434.205 68.0734 435.245C67.2067 436.242 66.5134 437.455 65.9934 438.885C65.5167 440.272 65.2567 441.788 65.2134 443.435V463H61.1184V416.59ZM118.261 443.89C118.217 442.33 117.936 440.835 117.416 439.405C116.939 437.975 116.246 436.718 115.336 435.635C114.426 434.508 113.321 433.62 112.021 432.97C110.721 432.277 109.247 431.93 107.601 431.93C105.911 431.93 104.416 432.277 103.116 432.97C101.816 433.62 100.711 434.508 99.8005 435.635C98.8905 436.718 98.1538 437.997 97.5905 439.47C97.0705 440.9 96.7238 442.373 96.5505 443.89H118.261ZM96.5505 447.335C96.5505 448.808 96.7455 450.347 97.1355 451.95C97.5688 453.51 98.2405 454.918 99.1505 456.175C100.061 457.432 101.209 458.472 102.596 459.295C103.982 460.118 105.651 460.53 107.601 460.53C110.591 460.53 112.931 459.75 114.621 458.19C116.311 456.63 117.481 454.55 118.131 451.95H122.226C121.359 455.763 119.756 458.71 117.416 460.79C115.119 462.87 111.847 463.91 107.601 463.91C104.957 463.91 102.661 463.455 100.711 462.545C98.8038 461.592 97.2438 460.313 96.0305 458.71C94.8172 457.063 93.9072 455.178 93.3005 453.055C92.7372 450.888 92.4555 448.613 92.4555 446.23C92.4555 444.02 92.7372 441.853 93.3005 439.73C93.9072 437.607 94.8172 435.722 96.0305 434.075C97.2438 432.385 98.8038 431.042 100.711 430.045C102.661 429.005 104.957 428.485 107.601 428.485C110.287 428.485 112.584 429.027 114.491 430.11C116.397 431.193 117.936 432.623 119.106 434.4C120.319 436.133 121.186 438.148 121.706 440.445C122.226 442.698 122.442 444.995 122.356 447.335H96.5505Z" fill="#FFFEF9"/>
<path d="M66.39 498.225C65.7833 494.368 63.5083 492.44 59.565 492.44C58.0917 492.44 56.8567 492.787 55.86 493.48C54.8633 494.13 54.04 494.997 53.39 496.08C52.7833 497.12 52.35 498.29 52.09 499.59C51.83 500.847 51.7 502.103 51.7 503.36C51.7 504.573 51.83 505.808 52.09 507.065C52.35 508.322 52.7617 509.47 53.325 510.51C53.9317 511.507 54.7333 512.33 55.73 512.98C56.7267 513.63 57.94 513.955 59.37 513.955C61.58 513.955 63.27 513.348 64.44 512.135C65.6533 510.878 66.4117 509.21 66.715 507.13H75.62C75.0133 511.593 73.28 514.995 70.42 517.335C67.56 519.675 63.8983 520.845 59.435 520.845C56.9217 520.845 54.6033 520.433 52.48 519.61C50.4 518.743 48.6233 517.552 47.15 516.035C45.6767 514.518 44.5283 512.72 43.705 510.64C42.8817 508.517 42.47 506.198 42.47 503.685C42.47 501.085 42.8383 498.68 43.575 496.47C44.355 494.217 45.4817 492.288 46.955 490.685C48.4283 489.038 50.2267 487.76 52.35 486.85C54.4733 485.94 56.9 485.485 59.63 485.485C61.6233 485.485 63.53 485.745 65.35 486.265C67.2133 486.785 68.86 487.587 70.29 488.67C71.7633 489.71 72.955 491.032 73.865 492.635C74.775 494.195 75.295 496.058 75.425 498.225H66.39ZM78.8842 473.59H88.1142V491.075H88.3092C89.4792 489.125 90.9742 487.717 92.7942 486.85C94.6142 485.94 96.3909 485.485 98.1242 485.485C100.594 485.485 102.609 485.832 104.169 486.525C105.773 487.175 107.029 488.107 107.939 489.32C108.849 490.49 109.478 491.942 109.824 493.675C110.214 495.365 110.409 497.25 110.409 499.33V520H101.179V501.02C101.179 498.247 100.746 496.188 99.8792 494.845C99.0126 493.458 97.4742 492.765 95.2642 492.765C92.7509 492.765 90.9309 493.523 89.8042 495.04C88.6776 496.513 88.1142 498.962 88.1142 502.385V520H78.8842V473.59ZM115.464 486.395H124.239V492.635H124.369C124.803 491.595 125.388 490.642 126.124 489.775C126.861 488.865 127.706 488.107 128.659 487.5C129.613 486.85 130.631 486.352 131.714 486.005C132.798 485.658 133.924 485.485 135.094 485.485C135.701 485.485 136.373 485.593 137.109 485.81V494.39C136.676 494.303 136.156 494.238 135.549 494.195C134.943 494.108 134.358 494.065 133.794 494.065C132.104 494.065 130.674 494.347 129.504 494.91C128.334 495.473 127.381 496.253 126.644 497.25C125.951 498.203 125.453 499.33 125.149 500.63C124.846 501.93 124.694 503.338 124.694 504.855V520H115.464V486.395ZM148.268 481.195H139.038V473.59H148.268V481.195ZM139.038 486.395H148.268V520H139.038V486.395ZM160.736 509.08C160.736 510.077 160.931 510.943 161.321 511.68C161.754 512.373 162.296 512.958 162.946 513.435C163.596 513.868 164.333 514.193 165.156 514.41C166.023 514.627 166.911 514.735 167.821 514.735C168.471 514.735 169.143 514.67 169.836 514.54C170.573 514.367 171.223 514.128 171.786 513.825C172.393 513.478 172.891 513.045 173.281 512.525C173.671 511.962 173.866 511.268 173.866 510.445C173.866 509.058 172.934 508.018 171.071 507.325C169.251 506.632 166.694 505.938 163.401 505.245C162.058 504.942 160.736 504.595 159.436 504.205C158.179 503.772 157.053 503.23 156.056 502.58C155.059 501.887 154.258 501.042 153.651 500.045C153.044 499.005 152.741 497.748 152.741 496.275C152.741 494.108 153.153 492.332 153.976 490.945C154.843 489.558 155.969 488.475 157.356 487.695C158.743 486.872 160.303 486.308 162.036 486.005C163.769 485.658 165.546 485.485 167.366 485.485C169.186 485.485 170.941 485.658 172.631 486.005C174.364 486.352 175.903 486.937 177.246 487.76C178.589 488.583 179.694 489.688 180.561 491.075C181.471 492.418 182.013 494.13 182.186 496.21H173.411C173.281 494.433 172.609 493.242 171.396 492.635C170.183 491.985 168.753 491.66 167.106 491.66C166.586 491.66 166.023 491.703 165.416 491.79C164.809 491.833 164.246 491.963 163.726 492.18C163.249 492.397 162.838 492.722 162.491 493.155C162.144 493.545 161.971 494.087 161.971 494.78C161.971 495.603 162.274 496.275 162.881 496.795C163.488 497.315 164.268 497.748 165.221 498.095C166.218 498.398 167.344 498.68 168.601 498.94C169.858 499.2 171.136 499.482 172.436 499.785C173.779 500.088 175.079 500.457 176.336 500.89C177.636 501.323 178.784 501.908 179.781 502.645C180.778 503.338 181.579 504.227 182.186 505.31C182.793 506.35 183.096 507.65 183.096 509.21C183.096 511.42 182.641 513.283 181.731 514.8C180.864 516.273 179.716 517.465 178.286 518.375C176.856 519.285 175.209 519.913 173.346 520.26C171.526 520.65 169.663 520.845 167.756 520.845C165.806 520.845 163.899 520.65 162.036 520.26C160.173 519.87 158.504 519.22 157.031 518.31C155.601 517.4 154.409 516.208 153.456 514.735C152.546 513.218 152.048 511.333 151.961 509.08H160.736ZM198.248 486.395H205.008V492.57H198.248V509.21C198.248 510.77 198.508 511.81 199.028 512.33C199.548 512.85 200.588 513.11 202.148 513.11C202.668 513.11 203.166 513.088 203.643 513.045C204.12 513.002 204.575 512.937 205.008 512.85V520C204.228 520.13 203.361 520.217 202.408 520.26C201.455 520.303 200.523 520.325 199.613 520.325C198.183 520.325 196.818 520.217 195.518 520C194.261 519.827 193.135 519.458 192.138 518.895C191.185 518.332 190.426 517.53 189.863 516.49C189.3 515.45 189.018 514.085 189.018 512.395V492.57H183.428V486.395H189.018V476.32H198.248V486.395ZM207.71 486.395H216.42V490.945H216.55C217.763 489.212 219.215 487.868 220.905 486.915C222.638 485.962 224.61 485.485 226.82 485.485C228.943 485.485 230.871 485.897 232.605 486.72C234.381 487.543 235.725 488.995 236.635 491.075C237.631 489.602 238.975 488.302 240.665 487.175C242.398 486.048 244.435 485.485 246.775 485.485C248.551 485.485 250.198 485.702 251.715 486.135C253.231 486.568 254.531 487.262 255.615 488.215C256.698 489.168 257.543 490.425 258.15 491.985C258.756 493.502 259.06 495.343 259.06 497.51V520H249.83V500.955C249.83 499.828 249.786 498.767 249.7 497.77C249.613 496.773 249.375 495.907 248.985 495.17C248.595 494.433 248.01 493.848 247.23 493.415C246.493 492.982 245.475 492.765 244.175 492.765C242.875 492.765 241.813 493.025 240.99 493.545C240.21 494.022 239.581 494.672 239.105 495.495C238.671 496.275 238.368 497.185 238.195 498.225C238.065 499.222 238 500.24 238 501.28V520H228.77V501.15C228.77 500.153 228.748 499.178 228.705 498.225C228.661 497.228 228.466 496.318 228.12 495.495C227.816 494.672 227.275 494.022 226.495 493.545C225.758 493.025 224.653 492.765 223.18 492.765C222.746 492.765 222.161 492.873 221.425 493.09C220.731 493.263 220.038 493.632 219.345 494.195C218.695 494.715 218.131 495.495 217.655 496.535C217.178 497.532 216.94 498.853 216.94 500.5V520H207.71V486.395ZM264.016 496.73C264.146 494.563 264.688 492.765 265.641 491.335C266.594 489.905 267.808 488.757 269.281 487.89C270.754 487.023 272.401 486.417 274.221 486.07C276.084 485.68 277.948 485.485 279.811 485.485C281.501 485.485 283.213 485.615 284.946 485.875C286.679 486.092 288.261 486.547 289.691 487.24C291.121 487.933 292.291 488.908 293.201 490.165C294.111 491.378 294.566 493.003 294.566 495.04V512.525C294.566 514.042 294.653 515.493 294.826 516.88C294.999 518.267 295.303 519.307 295.736 520H286.376C286.203 519.48 286.051 518.96 285.921 518.44C285.834 517.877 285.769 517.313 285.726 516.75C284.253 518.267 282.519 519.328 280.526 519.935C278.533 520.542 276.496 520.845 274.416 520.845C272.813 520.845 271.318 520.65 269.931 520.26C268.544 519.87 267.331 519.263 266.291 518.44C265.251 517.617 264.428 516.577 263.821 515.32C263.258 514.063 262.976 512.568 262.976 510.835C262.976 508.928 263.301 507.368 263.951 506.155C264.644 504.898 265.511 503.902 266.551 503.165C267.634 502.428 268.848 501.887 270.191 501.54C271.578 501.15 272.964 500.847 274.351 500.63C275.738 500.413 277.103 500.24 278.446 500.11C279.789 499.98 280.981 499.785 282.021 499.525C283.061 499.265 283.884 498.897 284.491 498.42C285.098 497.9 285.379 497.163 285.336 496.21C285.336 495.213 285.163 494.433 284.816 493.87C284.513 493.263 284.079 492.808 283.516 492.505C282.996 492.158 282.368 491.942 281.631 491.855C280.938 491.725 280.179 491.66 279.356 491.66C277.536 491.66 276.106 492.05 275.066 492.83C274.026 493.61 273.419 494.91 273.246 496.73H264.016ZM285.336 503.555C284.946 503.902 284.448 504.183 283.841 504.4C283.278 504.573 282.649 504.725 281.956 504.855C281.306 504.985 280.613 505.093 279.876 505.18C279.139 505.267 278.403 505.375 277.666 505.505C276.973 505.635 276.279 505.808 275.586 506.025C274.936 506.242 274.351 506.545 273.831 506.935C273.354 507.282 272.964 507.737 272.661 508.3C272.358 508.863 272.206 509.578 272.206 510.445C272.206 511.268 272.358 511.962 272.661 512.525C272.964 513.088 273.376 513.543 273.896 513.89C274.416 514.193 275.023 514.41 275.716 514.54C276.409 514.67 277.124 514.735 277.861 514.735C279.681 514.735 281.089 514.432 282.086 513.825C283.083 513.218 283.819 512.503 284.296 511.68C284.773 510.813 285.054 509.947 285.141 509.08C285.271 508.213 285.336 507.52 285.336 507V503.555ZM306.93 509.08C306.93 510.077 307.125 510.943 307.515 511.68C307.948 512.373 308.49 512.958 309.14 513.435C309.79 513.868 310.527 514.193 311.35 514.41C312.217 514.627 313.105 514.735 314.015 514.735C314.665 514.735 315.337 514.67 316.03 514.54C316.767 514.367 317.417 514.128 317.98 513.825C318.587 513.478 319.085 513.045 319.475 512.525C319.865 511.962 320.06 511.268 320.06 510.445C320.06 509.058 319.128 508.018 317.265 507.325C315.445 506.632 312.888 505.938 309.595 505.245C308.252 504.942 306.93 504.595 305.63 504.205C304.373 503.772 303.247 503.23 302.25 502.58C301.253 501.887 300.452 501.042 299.845 500.045C299.238 499.005 298.935 497.748 298.935 496.275C298.935 494.108 299.347 492.332 300.17 490.945C301.037 489.558 302.163 488.475 303.55 487.695C304.937 486.872 306.497 486.308 308.23 486.005C309.963 485.658 311.74 485.485 313.56 485.485C315.38 485.485 317.135 485.658 318.825 486.005C320.558 486.352 322.097 486.937 323.44 487.76C324.783 488.583 325.888 489.688 326.755 491.075C327.665 492.418 328.207 494.13 328.38 496.21H319.605C319.475 494.433 318.803 493.242 317.59 492.635C316.377 491.985 314.947 491.66 313.3 491.66C312.78 491.66 312.217 491.703 311.61 491.79C311.003 491.833 310.44 491.963 309.92 492.18C309.443 492.397 309.032 492.722 308.685 493.155C308.338 493.545 308.165 494.087 308.165 494.78C308.165 495.603 308.468 496.275 309.075 496.795C309.682 497.315 310.462 497.748 311.415 498.095C312.412 498.398 313.538 498.68 314.795 498.94C316.052 499.2 317.33 499.482 318.63 499.785C319.973 500.088 321.273 500.457 322.53 500.89C323.83 501.323 324.978 501.908 325.975 502.645C326.972 503.338 327.773 504.227 328.38 505.31C328.987 506.35 329.29 507.65 329.29 509.21C329.29 511.42 328.835 513.283 327.925 514.8C327.058 516.273 325.91 517.465 324.48 518.375C323.05 519.285 321.403 519.913 319.54 520.26C317.72 520.65 315.857 520.845 313.95 520.845C312 520.845 310.093 520.65 308.23 520.26C306.367 519.87 304.698 519.22 303.225 518.31C301.795 517.4 300.603 516.208 299.65 514.735C298.74 513.218 298.242 511.333 298.155 509.08H306.93Z" fill="#FFFEF9"/>
<path d="M50.66 566.08C50.66 567.077 50.855 567.943 51.245 568.68C51.6783 569.373 52.22 569.958 52.87 570.435C53.52 570.868 54.2567 571.193 55.08 571.41C55.9467 571.627 56.835 571.735 57.745 571.735C58.395 571.735 59.0667 571.67 59.76 571.54C60.4967 571.367 61.1467 571.128 61.71 570.825C62.3167 570.478 62.815 570.045 63.205 569.525C63.595 568.962 63.79 568.268 63.79 567.445C63.79 566.058 62.8583 565.018 60.995 564.325C59.175 563.632 56.6183 562.938 53.325 562.245C51.9817 561.942 50.66 561.595 49.36 561.205C48.1033 560.772 46.9767 560.23 45.98 559.58C44.9833 558.887 44.1817 558.042 43.575 557.045C42.9683 556.005 42.665 554.748 42.665 553.275C42.665 551.108 43.0767 549.332 43.9 547.945C44.7667 546.558 45.8933 545.475 47.28 544.695C48.6667 543.872 50.2267 543.308 51.96 543.005C53.6933 542.658 55.47 542.485 57.29 542.485C59.11 542.485 60.865 542.658 62.555 543.005C64.2883 543.352 65.8267 543.937 67.17 544.76C68.5133 545.583 69.6183 546.688 70.485 548.075C71.395 549.418 71.9367 551.13 72.11 553.21H63.335C63.205 551.433 62.5333 550.242 61.32 549.635C60.1067 548.985 58.6767 548.66 57.03 548.66C56.51 548.66 55.9467 548.703 55.34 548.79C54.7333 548.833 54.17 548.963 53.65 549.18C53.1733 549.397 52.7617 549.722 52.415 550.155C52.0683 550.545 51.895 551.087 51.895 551.78C51.895 552.603 52.1983 553.275 52.805 553.795C53.4117 554.315 54.1917 554.748 55.145 555.095C56.1417 555.398 57.2683 555.68 58.525 555.94C59.7817 556.2 61.06 556.482 62.36 556.785C63.7033 557.088 65.0033 557.457 66.26 557.89C67.56 558.323 68.7083 558.908 69.705 559.645C70.7017 560.338 71.5033 561.227 72.11 562.31C72.7167 563.35 73.02 564.65 73.02 566.21C73.02 568.42 72.565 570.283 71.655 571.8C70.7883 573.273 69.64 574.465 68.21 575.375C66.78 576.285 65.1333 576.913 63.27 577.26C61.45 577.65 59.5867 577.845 57.68 577.845C55.73 577.845 53.8233 577.65 51.96 577.26C50.0967 576.87 48.4283 576.22 46.955 575.31C45.525 574.4 44.3333 573.208 43.38 571.735C42.47 570.218 41.9717 568.333 41.885 566.08H50.66ZM76.4721 530.59H85.7021V548.075H85.8971C87.0671 546.125 88.5621 544.717 90.3821 543.85C92.2021 542.94 93.9788 542.485 95.7121 542.485C98.1821 542.485 100.197 542.832 101.757 543.525C103.36 544.175 104.617 545.107 105.527 546.32C106.437 547.49 107.065 548.942 107.412 550.675C107.802 552.365 107.997 554.25 107.997 556.33V577H98.7671V558.02C98.7671 555.247 98.3338 553.188 97.4671 551.845C96.6004 550.458 95.0621 549.765 92.8521 549.765C90.3388 549.765 88.5188 550.523 87.3921 552.04C86.2654 553.513 85.7021 555.962 85.7021 559.385V577H76.4721V530.59ZM121.242 560.23C121.242 561.573 121.372 562.895 121.632 564.195C121.892 565.452 122.326 566.6 122.932 567.64C123.582 568.637 124.427 569.438 125.467 570.045C126.507 570.652 127.807 570.955 129.367 570.955C130.927 570.955 132.227 570.652 133.267 570.045C134.351 569.438 135.196 568.637 135.802 567.64C136.452 566.6 136.907 565.452 137.167 564.195C137.427 562.895 137.557 561.573 137.557 560.23C137.557 558.887 137.427 557.565 137.167 556.265C136.907 554.965 136.452 553.817 135.802 552.82C135.196 551.823 134.351 551.022 133.267 550.415C132.227 549.765 130.927 549.44 129.367 549.44C127.807 549.44 126.507 549.765 125.467 550.415C124.427 551.022 123.582 551.823 122.932 552.82C122.326 553.817 121.892 554.965 121.632 556.265C121.372 557.565 121.242 558.887 121.242 560.23ZM112.012 560.23C112.012 557.543 112.424 555.117 113.247 552.95C114.071 550.74 115.241 548.877 116.757 547.36C118.274 545.8 120.094 544.608 122.217 543.785C124.341 542.918 126.724 542.485 129.367 542.485C132.011 542.485 134.394 542.918 136.517 543.785C138.684 544.608 140.526 545.8 142.042 547.36C143.559 548.877 144.729 550.74 145.552 552.95C146.376 555.117 146.787 557.543 146.787 560.23C146.787 562.917 146.376 565.343 145.552 567.51C144.729 569.677 143.559 571.54 142.042 573.1C140.526 574.617 138.684 575.787 136.517 576.61C134.394 577.433 132.011 577.845 129.367 577.845C126.724 577.845 124.341 577.433 122.217 576.61C120.094 575.787 118.274 574.617 116.757 573.1C115.241 571.54 114.071 569.677 113.247 567.51C112.424 565.343 112.012 562.917 112.012 560.23ZM167.804 570.955C169.32 570.955 170.577 570.652 171.574 570.045C172.614 569.438 173.437 568.658 174.044 567.705C174.694 566.708 175.149 565.56 175.409 564.26C175.669 562.96 175.799 561.638 175.799 560.295C175.799 558.952 175.647 557.63 175.344 556.33C175.084 555.03 174.629 553.882 173.979 552.885C173.329 551.845 172.484 551.022 171.444 550.415C170.447 549.765 169.212 549.44 167.739 549.44C166.222 549.44 164.944 549.765 163.904 550.415C162.907 551.022 162.084 551.823 161.434 552.82C160.827 553.817 160.394 554.965 160.134 556.265C159.874 557.565 159.744 558.908 159.744 560.295C159.744 561.638 159.874 562.96 160.134 564.26C160.437 565.56 160.892 566.708 161.499 567.705C162.149 568.658 162.994 569.438 164.034 570.045C165.074 570.652 166.33 570.955 167.804 570.955ZM150.839 543.395H159.614V547.685H159.744C160.87 545.865 162.3 544.543 164.034 543.72C165.767 542.897 167.674 542.485 169.754 542.485C172.397 542.485 174.672 542.983 176.579 543.98C178.485 544.977 180.067 546.298 181.324 547.945C182.58 549.592 183.512 551.52 184.119 553.73C184.725 555.897 185.029 558.172 185.029 560.555C185.029 562.808 184.725 564.975 184.119 567.055C183.512 569.135 182.58 570.977 181.324 572.58C180.11 574.183 178.572 575.462 176.709 576.415C174.889 577.368 172.744 577.845 170.274 577.845C168.194 577.845 166.265 577.433 164.489 576.61C162.755 575.743 161.325 574.487 160.199 572.84H160.069V588.765H150.839V543.395Z" fill="#FFFEF9"/>
</svg>
