<svg width="767" height="430" viewBox="0 0 767 430" fill="none" xmlns="http://www.w3.org/2000/svg">
<path d="M73.3446 80.07C72.9546 78.33 72.2346 76.965 71.1846 75.975C70.1346 74.985 68.6646 74.49 66.7746 74.49C65.4246 74.49 64.2396 74.775 63.2196 75.345C62.1996 75.915 61.3446 76.665 60.6546 77.595C59.9946 78.525 59.4846 79.59 59.1246 80.79C58.7946 81.96 58.6296 83.16 58.6296 84.39C58.6296 85.62 58.7946 86.835 59.1246 88.035C59.4846 89.205 59.9946 90.255 60.6546 91.185C61.3446 92.115 62.1996 92.865 63.2196 93.435C64.2396 94.005 65.4246 94.29 66.7746 94.29C67.6446 94.29 68.4696 94.125 69.2496 93.795C70.0296 93.465 70.7196 93.015 71.3196 92.445C71.9196 91.845 72.4146 91.14 72.8046 90.33C73.1946 89.52 73.4346 88.635 73.5246 87.675H76.3596C75.9696 90.495 74.9346 92.7 73.2546 94.29C71.5746 95.85 69.4146 96.63 66.7746 96.63C65.0046 96.63 63.4296 96.315 62.0496 95.685C60.6996 95.025 59.5596 94.14 58.6296 93.03C57.6996 91.92 56.9946 90.63 56.5146 89.16C56.0346 87.66 55.7946 86.07 55.7946 84.39C55.7946 82.71 56.0346 81.135 56.5146 79.665C56.9946 78.165 57.6996 76.86 58.6296 75.75C59.5596 74.64 60.6996 73.755 62.0496 73.095C63.4296 72.435 65.0046 72.105 66.7746 72.105C69.2646 72.105 71.3646 72.765 73.0746 74.085C74.8146 75.405 75.8496 77.4 76.1796 80.07H73.3446ZM80.2546 63.87H83.0896V76.785H83.1796C83.7196 75.375 84.6796 74.25 86.0596 73.41C87.4396 72.54 88.9546 72.105 90.6046 72.105C92.2246 72.105 93.5746 72.315 94.6546 72.735C95.7646 73.155 96.6496 73.755 97.3096 74.535C97.9696 75.285 98.4346 76.215 98.7046 77.325C98.9746 78.435 99.1096 79.68 99.1096 81.06V96H96.2746V81.51C96.2746 80.52 96.1846 79.605 96.0046 78.765C95.8246 77.895 95.5096 77.145 95.0596 76.515C94.6096 75.885 93.9946 75.39 93.2146 75.03C92.4646 74.67 91.5196 74.49 90.3796 74.49C89.2396 74.49 88.2196 74.7 87.3196 75.12C86.4496 75.51 85.6996 76.065 85.0696 76.785C84.4696 77.475 83.9896 78.315 83.6296 79.305C83.2996 80.265 83.1196 81.315 83.0896 82.455V96H80.2546V63.87ZM104.47 72.78H107.08V78.225H107.17C107.89 76.335 109 74.88 110.5 73.86C112.03 72.84 113.845 72.375 115.945 72.465V75.3C114.655 75.24 113.485 75.42 112.435 75.84C111.385 76.23 110.47 76.8 109.69 77.55C108.94 78.3 108.355 79.2 107.935 80.25C107.515 81.27 107.305 82.395 107.305 83.625V96H104.47V72.78ZM118.709 63.87H121.544V68.415H118.709V63.87ZM118.709 72.78H121.544V96H118.709V72.78ZM140.875 79.575C140.845 78.705 140.665 77.955 140.335 77.325C140.005 76.665 139.555 76.125 138.985 75.705C138.445 75.285 137.815 74.985 137.095 74.805C136.375 74.595 135.61 74.49 134.8 74.49C134.17 74.49 133.525 74.565 132.865 74.715C132.235 74.835 131.65 75.06 131.11 75.39C130.57 75.69 130.135 76.095 129.805 76.605C129.475 77.115 129.31 77.745 129.31 78.495C129.31 79.125 129.46 79.665 129.76 80.115C130.09 80.535 130.495 80.895 130.975 81.195C131.455 81.495 131.98 81.75 132.55 81.96C133.12 82.14 133.645 82.29 134.125 82.41L137.905 83.265C138.715 83.385 139.51 83.61 140.29 83.94C141.1 84.24 141.805 84.645 142.405 85.155C143.035 85.665 143.545 86.295 143.935 87.045C144.325 87.795 144.52 88.68 144.52 89.7C144.52 90.96 144.235 92.04 143.665 92.94C143.095 93.81 142.36 94.53 141.46 95.1C140.59 95.64 139.6 96.03 138.49 96.27C137.38 96.51 136.285 96.63 135.205 96.63C132.475 96.63 130.255 95.985 128.545 94.695C126.865 93.405 125.905 91.335 125.665 88.485H128.5C128.62 90.405 129.31 91.86 130.57 92.85C131.86 93.81 133.45 94.29 135.34 94.29C136.03 94.29 136.735 94.215 137.455 94.065C138.205 93.915 138.895 93.66 139.525 93.3C140.155 92.94 140.665 92.49 141.055 91.95C141.475 91.38 141.685 90.69 141.685 89.88C141.685 89.19 141.535 88.62 141.235 88.17C140.965 87.69 140.59 87.3 140.11 87C139.63 86.67 139.075 86.4 138.445 86.19C137.845 85.98 137.23 85.8 136.6 85.65L132.955 84.84C132.025 84.6 131.17 84.33 130.39 84.03C129.61 83.7 128.92 83.31 128.32 82.86C127.75 82.38 127.3 81.81 126.97 81.15C126.64 80.46 126.475 79.62 126.475 78.63C126.475 77.46 126.73 76.455 127.24 75.615C127.78 74.775 128.47 74.1 129.31 73.59C130.15 73.08 131.08 72.705 132.1 72.465C133.15 72.225 134.185 72.105 135.205 72.105C136.375 72.105 137.455 72.255 138.445 72.555C139.465 72.855 140.35 73.32 141.1 73.95C141.88 74.58 142.495 75.36 142.945 76.29C143.395 77.22 143.65 78.315 143.71 79.575H140.875ZM153.135 72.78H157.86V75.165H153.135V90.825C153.135 91.755 153.255 92.49 153.495 93.03C153.765 93.54 154.41 93.825 155.43 93.885C156.24 93.885 157.05 93.84 157.86 93.75V96.135C157.44 96.135 157.02 96.15 156.6 96.18C156.18 96.21 155.76 96.225 155.34 96.225C153.45 96.225 152.13 95.865 151.38 95.145C150.63 94.395 150.27 93.03 150.3 91.05V75.165H146.25V72.78H150.3V65.805H153.135V72.78ZM161.95 72.78H164.56V76.695H164.695C165.445 75.255 166.42 74.13 167.62 73.32C168.85 72.51 170.41 72.105 172.3 72.105C173.83 72.105 175.21 72.48 176.44 73.23C177.7 73.98 178.54 75.12 178.96 76.65C179.65 75.12 180.67 73.98 182.02 73.23C183.37 72.48 184.81 72.105 186.34 72.105C191.47 72.105 194.035 74.82 194.035 80.25V96H191.2V80.385C191.2 78.465 190.795 77.01 189.985 76.02C189.175 75 187.75 74.49 185.71 74.49C184.48 74.49 183.46 74.73 182.65 75.21C181.84 75.66 181.195 76.275 180.715 77.055C180.235 77.835 179.89 78.735 179.68 79.755C179.5 80.745 179.41 81.78 179.41 82.86V96H176.575V80.25C176.575 79.47 176.485 78.735 176.305 78.045C176.155 77.325 175.885 76.71 175.495 76.2C175.135 75.66 174.64 75.24 174.01 74.94C173.38 74.64 172.615 74.49 171.715 74.49C170.515 74.49 169.465 74.715 168.565 75.165C167.695 75.585 166.975 76.185 166.405 76.965C165.865 77.715 165.46 78.615 165.19 79.665C164.92 80.685 164.785 81.81 164.785 83.04V96H161.95V72.78ZM199.165 79.89C199.255 78.54 199.54 77.37 200.02 76.38C200.5 75.39 201.145 74.58 201.955 73.95C202.795 73.32 203.77 72.855 204.88 72.555C205.99 72.255 207.22 72.105 208.57 72.105C209.59 72.105 210.61 72.21 211.63 72.42C212.65 72.6 213.565 72.96 214.375 73.5C215.185 74.04 215.845 74.805 216.355 75.795C216.865 76.755 217.12 78.015 217.12 79.575V91.905C217.12 93.045 217.675 93.615 218.785 93.615C219.115 93.615 219.415 93.555 219.685 93.435V95.82C219.355 95.88 219.055 95.925 218.785 95.955C218.545 95.985 218.23 96 217.84 96C217.12 96 216.535 95.91 216.085 95.73C215.665 95.52 215.335 95.235 215.095 94.875C214.855 94.515 214.69 94.095 214.6 93.615C214.54 93.105 214.51 92.55 214.51 91.95H214.42C213.91 92.7 213.385 93.375 212.845 93.975C212.335 94.545 211.75 95.025 211.09 95.415C210.46 95.805 209.725 96.105 208.885 96.315C208.075 96.525 207.1 96.63 205.96 96.63C204.88 96.63 203.86 96.495 202.9 96.225C201.97 95.985 201.145 95.595 200.425 95.055C199.735 94.485 199.18 93.78 198.76 92.94C198.37 92.07 198.175 91.05 198.175 89.88C198.175 88.26 198.535 87 199.255 86.1C199.975 85.17 200.92 84.465 202.09 83.985C203.29 83.505 204.625 83.175 206.095 82.995C207.595 82.785 209.11 82.59 210.64 82.41C211.24 82.35 211.765 82.275 212.215 82.185C212.665 82.095 213.04 81.945 213.34 81.735C213.64 81.495 213.865 81.18 214.015 80.79C214.195 80.4 214.285 79.89 214.285 79.26C214.285 78.3 214.12 77.52 213.79 76.92C213.49 76.29 213.055 75.795 212.485 75.435C211.945 75.075 211.3 74.835 210.55 74.715C209.83 74.565 209.05 74.49 208.21 74.49C206.41 74.49 204.94 74.925 203.8 75.795C202.66 76.635 202.06 78 202 79.89H199.165ZM214.285 83.31H214.195C214.015 83.64 213.67 83.88 213.16 84.03C212.65 84.18 212.2 84.285 211.81 84.345C210.61 84.555 209.365 84.75 208.075 84.93C206.815 85.08 205.66 85.32 204.61 85.65C203.56 85.98 202.69 86.46 202 87.09C201.34 87.69 201.01 88.56 201.01 89.7C201.01 90.42 201.145 91.065 201.415 91.635C201.715 92.175 202.105 92.655 202.585 93.075C203.065 93.465 203.62 93.765 204.25 93.975C204.88 94.185 205.525 94.29 206.185 94.29C207.265 94.29 208.3 94.125 209.29 93.795C210.28 93.465 211.135 92.985 211.855 92.355C212.605 91.725 213.19 90.96 213.61 90.06C214.06 89.16 214.285 88.14 214.285 87V83.31ZM236.675 79.575C236.645 78.705 236.465 77.955 236.135 77.325C235.805 76.665 235.355 76.125 234.785 75.705C234.245 75.285 233.615 74.985 232.895 74.805C232.175 74.595 231.41 74.49 230.6 74.49C229.97 74.49 229.325 74.565 228.665 74.715C228.035 74.835 227.45 75.06 226.91 75.39C226.37 75.69 225.935 76.095 225.605 76.605C225.275 77.115 225.11 77.745 225.11 78.495C225.11 79.125 225.26 79.665 225.56 80.115C225.89 80.535 226.295 80.895 226.775 81.195C227.255 81.495 227.78 81.75 228.35 81.96C228.92 82.14 229.445 82.29 229.925 82.41L233.705 83.265C234.515 83.385 235.31 83.61 236.09 83.94C236.9 84.24 237.605 84.645 238.205 85.155C238.835 85.665 239.345 86.295 239.735 87.045C240.125 87.795 240.32 88.68 240.32 89.7C240.32 90.96 240.035 92.04 239.465 92.94C238.895 93.81 238.16 94.53 237.26 95.1C236.39 95.64 235.4 96.03 234.29 96.27C233.18 96.51 232.085 96.63 231.005 96.63C228.275 96.63 226.055 95.985 224.345 94.695C222.665 93.405 221.705 91.335 221.465 88.485H224.3C224.42 90.405 225.11 91.86 226.37 92.85C227.66 93.81 229.25 94.29 231.14 94.29C231.83 94.29 232.535 94.215 233.255 94.065C234.005 93.915 234.695 93.66 235.325 93.3C235.955 92.94 236.465 92.49 236.855 91.95C237.275 91.38 237.485 90.69 237.485 89.88C237.485 89.19 237.335 88.62 237.035 88.17C236.765 87.69 236.39 87.3 235.91 87C235.43 86.67 234.875 86.4 234.245 86.19C233.645 85.98 233.03 85.8 232.4 85.65L228.755 84.84C227.825 84.6 226.97 84.33 226.19 84.03C225.41 83.7 224.72 83.31 224.12 82.86C223.55 82.38 223.1 81.81 222.77 81.15C222.44 80.46 222.275 79.62 222.275 78.63C222.275 77.46 222.53 76.455 223.04 75.615C223.58 74.775 224.27 74.1 225.11 73.59C225.95 73.08 226.88 72.705 227.9 72.465C228.95 72.225 229.985 72.105 231.005 72.105C232.175 72.105 233.255 72.255 234.245 72.555C235.265 72.855 236.15 73.32 236.9 73.95C237.68 74.58 238.295 75.36 238.745 76.29C239.195 77.22 239.45 78.315 239.51 79.575H236.675Z" fill="#FFFEF9"/>
<path d="M84.9434 121.235H91.7034V127.41H84.9434V144.05C84.9434 145.61 85.2034 146.65 85.7234 147.17C86.2434 147.69 87.2834 147.95 88.8434 147.95C89.3634 147.95 89.8617 147.928 90.3384 147.885C90.8151 147.842 91.2701 147.777 91.7034 147.69V154.84C90.9234 154.97 90.0567 155.057 89.1034 155.1C88.1501 155.143 87.2184 155.165 86.3084 155.165C84.8784 155.165 83.5134 155.057 82.2134 154.84C80.9567 154.667 79.8301 154.298 78.8334 153.735C77.8801 153.172 77.1217 152.37 76.5584 151.33C75.9951 150.29 75.7134 148.925 75.7134 147.235V127.41H70.1234V121.235H75.7134V111.16H84.9434V121.235ZM96.095 121.235H104.87V127.475H105C105.433 126.435 106.018 125.482 106.755 124.615C107.492 123.705 108.337 122.947 109.29 122.34C110.243 121.69 111.262 121.192 112.345 120.845C113.428 120.498 114.555 120.325 115.725 120.325C116.332 120.325 117.003 120.433 117.74 120.65V129.23C117.307 129.143 116.787 129.078 116.18 129.035C115.573 128.948 114.988 128.905 114.425 128.905C112.735 128.905 111.305 129.187 110.135 129.75C108.965 130.313 108.012 131.093 107.275 132.09C106.582 133.043 106.083 134.17 105.78 135.47C105.477 136.77 105.325 138.178 105.325 139.695V154.84H96.095V121.235ZM142.836 134.43C142.403 132.09 141.623 130.313 140.496 129.1C139.413 127.887 137.744 127.28 135.491 127.28C134.018 127.28 132.783 127.54 131.786 128.06C130.833 128.537 130.053 129.143 129.446 129.88C128.883 130.617 128.471 131.397 128.211 132.22C127.994 133.043 127.864 133.78 127.821 134.43H142.836ZM127.821 140.28C127.951 143.27 128.709 145.437 130.096 146.78C131.483 148.123 133.476 148.795 136.076 148.795C137.939 148.795 139.543 148.34 140.886 147.43C142.229 146.477 143.053 145.48 143.356 144.44H151.481C150.181 148.47 148.188 151.352 145.501 153.085C142.814 154.818 139.564 155.685 135.751 155.685C133.108 155.685 130.724 155.273 128.601 154.45C126.478 153.583 124.679 152.37 123.206 150.81C121.733 149.25 120.584 147.387 119.761 145.22C118.981 143.053 118.591 140.67 118.591 138.07C118.591 135.557 119.003 133.217 119.826 131.05C120.649 128.883 121.819 127.02 123.336 125.46C124.853 123.857 126.651 122.6 128.731 121.69C130.854 120.78 133.194 120.325 135.751 120.325C138.611 120.325 141.103 120.888 143.226 122.015C145.349 123.098 147.083 124.572 148.426 126.435C149.813 128.298 150.809 130.422 151.416 132.805C152.023 135.188 152.239 137.68 152.066 140.28H127.821ZM180.16 134.43C179.727 132.09 178.947 130.313 177.82 129.1C176.737 127.887 175.069 127.28 172.815 127.28C171.342 127.28 170.107 127.54 169.11 128.06C168.157 128.537 167.377 129.143 166.77 129.88C166.207 130.617 165.795 131.397 165.535 132.22C165.319 133.043 165.189 133.78 165.145 134.43H180.16ZM165.145 140.28C165.275 143.27 166.034 145.437 167.42 146.78C168.807 148.123 170.8 148.795 173.4 148.795C175.264 148.795 176.867 148.34 178.21 147.43C179.554 146.477 180.377 145.48 180.68 144.44H188.805C187.505 148.47 185.512 151.352 182.825 153.085C180.139 154.818 176.889 155.685 173.075 155.685C170.432 155.685 168.049 155.273 165.925 154.45C163.802 153.583 162.004 152.37 160.53 150.81C159.057 149.25 157.909 147.387 157.085 145.22C156.305 143.053 155.915 140.67 155.915 138.07C155.915 135.557 156.327 133.217 157.15 131.05C157.974 128.883 159.144 127.02 160.66 125.46C162.177 123.857 163.975 122.6 166.055 121.69C168.179 120.78 170.519 120.325 173.075 120.325C175.935 120.325 178.427 120.888 180.55 122.015C182.674 123.098 184.407 124.572 185.75 126.435C187.137 128.298 188.134 130.422 188.74 132.805C189.347 135.188 189.564 137.68 189.39 140.28H165.145ZM202.014 143.92C202.014 144.917 202.209 145.783 202.599 146.52C203.033 147.213 203.574 147.798 204.224 148.275C204.874 148.708 205.611 149.033 206.434 149.25C207.301 149.467 208.189 149.575 209.099 149.575C209.749 149.575 210.421 149.51 211.114 149.38C211.851 149.207 212.501 148.968 213.064 148.665C213.671 148.318 214.169 147.885 214.559 147.365C214.949 146.802 215.144 146.108 215.144 145.285C215.144 143.898 214.213 142.858 212.349 142.165C210.529 141.472 207.973 140.778 204.679 140.085C203.336 139.782 202.014 139.435 200.714 139.045C199.458 138.612 198.331 138.07 197.334 137.42C196.338 136.727 195.536 135.882 194.929 134.885C194.323 133.845 194.019 132.588 194.019 131.115C194.019 128.948 194.431 127.172 195.254 125.785C196.121 124.398 197.248 123.315 198.634 122.535C200.021 121.712 201.581 121.148 203.314 120.845C205.048 120.498 206.824 120.325 208.644 120.325C210.464 120.325 212.219 120.498 213.909 120.845C215.643 121.192 217.181 121.777 218.524 122.6C219.868 123.423 220.973 124.528 221.839 125.915C222.749 127.258 223.291 128.97 223.464 131.05H214.689C214.559 129.273 213.888 128.082 212.674 127.475C211.461 126.825 210.031 126.5 208.384 126.5C207.864 126.5 207.301 126.543 206.694 126.63C206.088 126.673 205.524 126.803 205.004 127.02C204.528 127.237 204.116 127.562 203.769 127.995C203.423 128.385 203.249 128.927 203.249 129.62C203.249 130.443 203.553 131.115 204.159 131.635C204.766 132.155 205.546 132.588 206.499 132.935C207.496 133.238 208.623 133.52 209.879 133.78C211.136 134.04 212.414 134.322 213.714 134.625C215.058 134.928 216.358 135.297 217.614 135.73C218.914 136.163 220.063 136.748 221.059 137.485C222.056 138.178 222.858 139.067 223.464 140.15C224.071 141.19 224.374 142.49 224.374 144.05C224.374 146.26 223.919 148.123 223.009 149.64C222.143 151.113 220.994 152.305 219.564 153.215C218.134 154.125 216.488 154.753 214.624 155.1C212.804 155.49 210.941 155.685 209.034 155.685C207.084 155.685 205.178 155.49 203.314 155.1C201.451 154.71 199.783 154.06 198.309 153.15C196.879 152.24 195.688 151.048 194.734 149.575C193.824 148.058 193.326 146.173 193.239 143.92H202.014Z" fill="#FFFEF9"/>
<path d="M85.9824 354.86C85.833 353.423 85.3104 352.387 84.4144 351.752C83.537 351.099 82.4077 350.772 81.0264 350.772C80.4664 350.772 79.9157 350.828 79.3744 350.94C78.833 351.052 78.3477 351.239 77.9184 351.5C77.5077 351.761 77.1717 352.116 76.9104 352.564C76.6677 352.993 76.5464 353.535 76.5464 354.188C76.5464 354.804 76.7237 355.308 77.0784 355.7C77.4517 356.073 77.937 356.381 78.5344 356.624C79.1504 356.867 79.841 357.072 80.6064 357.24C81.3717 357.389 82.1464 357.557 82.9304 357.744C83.733 357.931 84.517 358.155 85.2824 358.416C86.0477 358.659 86.729 358.995 87.3264 359.424C87.9424 359.853 88.4277 360.395 88.7824 361.048C89.1557 361.701 89.3424 362.523 89.3424 363.512C89.3424 364.576 89.0997 365.491 88.6144 366.256C88.1477 367.003 87.541 367.619 86.7944 368.104C86.0477 368.571 85.2077 368.907 84.2744 369.112C83.3597 369.336 82.445 369.448 81.5304 369.448C80.4104 369.448 79.3464 369.308 78.3384 369.028C77.349 368.748 76.4717 368.328 75.7064 367.768C74.9597 367.189 74.3624 366.461 73.9144 365.584C73.485 364.688 73.2704 363.633 73.2704 362.42H75.7904C75.7904 363.26 75.949 363.988 76.2664 364.604C76.6024 365.201 77.0317 365.696 77.5544 366.088C78.0957 366.48 78.721 366.769 79.4304 366.956C80.1397 367.143 80.8677 367.236 81.6144 367.236C82.2117 367.236 82.809 367.18 83.4064 367.068C84.0224 366.956 84.573 366.769 85.0584 366.508C85.5437 366.228 85.9357 365.855 86.2344 365.388C86.533 364.921 86.6824 364.324 86.6824 363.596C86.6824 362.905 86.4957 362.345 86.1224 361.916C85.7677 361.487 85.2824 361.141 84.6664 360.88C84.069 360.6 83.3877 360.376 82.6224 360.208C81.857 360.04 81.073 359.872 80.2704 359.704C79.4864 359.517 78.7117 359.312 77.9464 359.088C77.181 358.845 76.4904 358.537 75.8744 358.164C75.277 357.772 74.7917 357.277 74.4184 356.68C74.0637 356.064 73.8864 355.299 73.8864 354.384C73.8864 353.376 74.0917 352.508 74.5024 351.78C74.913 351.033 75.4544 350.427 76.1264 349.96C76.817 349.475 77.5917 349.12 78.4504 348.896C79.3277 348.653 80.2237 348.532 81.1384 348.532C82.165 348.532 83.117 348.653 83.9944 348.896C84.8717 349.139 85.637 349.521 86.2904 350.044C86.9624 350.567 87.485 351.229 87.8584 352.032C88.2504 352.816 88.465 353.759 88.5024 354.86H85.9824ZM105.007 368.944C104.596 369.187 104.027 369.308 103.299 369.308C102.683 369.308 102.188 369.14 101.815 368.804C101.46 368.449 101.283 367.88 101.283 367.096C100.629 367.88 99.864 368.449 98.9866 368.804C98.128 369.14 97.1946 369.308 96.1866 369.308C95.5333 369.308 94.908 369.233 94.3106 369.084C93.732 368.935 93.228 368.701 92.7986 368.384C92.3693 368.067 92.024 367.656 91.7626 367.152C91.52 366.629 91.3986 366.004 91.3986 365.276C91.3986 364.455 91.5386 363.783 91.8186 363.26C92.0986 362.737 92.4626 362.317 92.9106 362C93.3773 361.664 93.9 361.412 94.4786 361.244C95.076 361.076 95.6826 360.936 96.2986 360.824C96.952 360.693 97.568 360.6 98.1466 360.544C98.744 360.469 99.2666 360.376 99.7146 360.264C100.163 360.133 100.517 359.956 100.779 359.732C101.04 359.489 101.171 359.144 101.171 358.696C101.171 358.173 101.068 357.753 100.863 357.436C100.676 357.119 100.424 356.876 100.107 356.708C99.808 356.54 99.4626 356.428 99.0706 356.372C98.6973 356.316 98.324 356.288 97.9506 356.288C96.9426 356.288 96.1026 356.484 95.4306 356.876C94.7586 357.249 94.3946 357.968 94.3386 359.032H91.9586C91.996 358.136 92.1826 357.38 92.5186 356.764C92.8546 356.148 93.3026 355.653 93.8626 355.28C94.4226 354.888 95.0573 354.608 95.7666 354.44C96.4946 354.272 97.2693 354.188 98.0906 354.188C98.744 354.188 99.388 354.235 100.023 354.328C100.676 354.421 101.264 354.617 101.787 354.916C102.309 355.196 102.729 355.597 103.047 356.12C103.364 356.643 103.523 357.324 103.523 358.164V365.612C103.523 366.172 103.551 366.583 103.607 366.844C103.681 367.105 103.905 367.236 104.279 367.236C104.484 367.236 104.727 367.189 105.007 367.096V368.944ZM101.143 361.524C100.844 361.748 100.452 361.916 99.9666 362.028C99.4813 362.121 98.968 362.205 98.4266 362.28C97.904 362.336 97.372 362.411 96.8306 362.504C96.2893 362.579 95.804 362.709 95.3746 362.896C94.9453 363.083 94.5906 363.353 94.3106 363.708C94.0493 364.044 93.9186 364.511 93.9186 365.108C93.9186 365.5 93.9933 365.836 94.1426 366.116C94.3106 366.377 94.516 366.592 94.7586 366.76C95.02 366.928 95.3186 367.049 95.6546 367.124C95.9906 367.199 96.3453 367.236 96.7186 367.236C97.5026 367.236 98.1746 367.133 98.7346 366.928C99.2946 366.704 99.752 366.433 100.107 366.116C100.461 365.78 100.723 365.425 100.891 365.052C101.059 364.66 101.143 364.296 101.143 363.96V361.524ZM113.746 369H111.198L105.822 354.524H108.482L112.542 366.592H112.598L116.546 354.524H119.038L113.746 369ZM131.274 360.376C131.236 359.816 131.106 359.284 130.882 358.78C130.676 358.276 130.387 357.847 130.014 357.492C129.659 357.119 129.23 356.829 128.726 356.624C128.24 356.4 127.699 356.288 127.102 356.288C126.486 356.288 125.926 356.4 125.422 356.624C124.936 356.829 124.516 357.119 124.162 357.492C123.807 357.865 123.527 358.304 123.322 358.808C123.116 359.293 122.995 359.816 122.958 360.376H131.274ZM133.57 364.408C133.252 366.032 132.552 367.255 131.47 368.076C130.387 368.897 129.024 369.308 127.382 369.308C126.224 369.308 125.216 369.121 124.358 368.748C123.518 368.375 122.808 367.852 122.23 367.18C121.651 366.508 121.212 365.705 120.914 364.772C120.634 363.839 120.475 362.821 120.438 361.72C120.438 360.619 120.606 359.611 120.942 358.696C121.278 357.781 121.744 356.988 122.342 356.316C122.958 355.644 123.676 355.121 124.498 354.748C125.338 354.375 126.252 354.188 127.242 354.188C128.53 354.188 129.594 354.459 130.434 355C131.292 355.523 131.974 356.195 132.478 357.016C133 357.837 133.355 358.733 133.542 359.704C133.747 360.675 133.831 361.599 133.794 362.476H122.958C122.939 363.111 123.014 363.717 123.182 364.296C123.35 364.856 123.62 365.36 123.994 365.808C124.367 366.237 124.843 366.583 125.422 366.844C126 367.105 126.682 367.236 127.466 367.236C128.474 367.236 129.295 367.003 129.93 366.536C130.583 366.069 131.012 365.36 131.218 364.408H133.57ZM144.418 349.008H147.246L157.774 365.22H157.83V349.008H160.35V369H157.438L146.994 352.956H146.938V369H144.418V349.008ZM165.997 361.776C165.997 362.653 166.109 363.437 166.333 364.128C166.575 364.8 166.902 365.369 167.313 365.836C167.723 366.284 168.199 366.629 168.741 366.872C169.301 367.115 169.889 367.236 170.505 367.236C171.121 367.236 171.699 367.115 172.241 366.872C172.801 366.629 173.286 366.284 173.697 365.836C174.107 365.369 174.425 364.8 174.649 364.128C174.891 363.437 175.013 362.653 175.013 361.776C175.013 360.899 174.891 360.124 174.649 359.452C174.425 358.761 174.107 358.183 173.697 357.716C173.286 357.249 172.801 356.895 172.241 356.652C171.699 356.409 171.121 356.288 170.505 356.288C169.889 356.288 169.301 356.409 168.741 356.652C168.199 356.895 167.723 357.249 167.313 357.716C166.902 358.183 166.575 358.761 166.333 359.452C166.109 360.124 165.997 360.899 165.997 361.776ZM163.477 361.776C163.477 360.712 163.626 359.723 163.925 358.808C164.223 357.875 164.671 357.072 165.269 356.4C165.866 355.709 166.603 355.168 167.481 354.776C168.358 354.384 169.366 354.188 170.505 354.188C171.662 354.188 172.67 354.384 173.529 354.776C174.406 355.168 175.143 355.709 175.741 356.4C176.338 357.072 176.786 357.875 177.085 358.808C177.383 359.723 177.533 360.712 177.533 361.776C177.533 362.84 177.383 363.829 177.085 364.744C176.786 365.659 176.338 366.461 175.741 367.152C175.143 367.824 174.406 368.356 173.529 368.748C172.67 369.121 171.662 369.308 170.505 369.308C169.366 369.308 168.358 369.121 167.481 368.748C166.603 368.356 165.866 367.824 165.269 367.152C164.671 366.461 164.223 365.659 163.925 364.744C163.626 363.829 163.477 362.84 163.477 361.776ZM194.675 369H192.155L189.215 357.492H189.159L186.247 369H183.671L179.023 354.524H181.655L184.931 366.368H184.987L187.899 354.524H190.503L193.527 366.368H193.583L196.831 354.524H199.295L194.675 369Z" fill="#FFFEF9"/>
<path d="M215.76 368.384L213.888 367.184L219.952 361.072V361.968L213.888 355.856L215.76 354.656L222.32 361.52L215.76 368.384Z" fill="#FFFEF9"/>
<path d="M98.5129 196.136C98.5129 196.489 98.5819 196.795 98.7199 197.056C98.8733 197.301 99.0649 197.508 99.2949 197.677C99.5249 197.83 99.7856 197.945 100.077 198.022C100.384 198.099 100.698 198.137 101.02 198.137C101.25 198.137 101.488 198.114 101.733 198.068C101.994 198.007 102.224 197.922 102.423 197.815C102.638 197.692 102.814 197.539 102.952 197.355C103.09 197.156 103.159 196.91 103.159 196.619C103.159 196.128 102.829 195.76 102.17 195.515C101.526 195.27 100.621 195.024 99.4559 194.779C98.9806 194.672 98.5129 194.549 98.0529 194.411C97.6083 194.258 97.2096 194.066 96.8569 193.836C96.5043 193.591 96.2206 193.292 96.0059 192.939C95.7913 192.571 95.6839 192.126 95.6839 191.605C95.6839 190.838 95.8296 190.21 96.1209 189.719C96.4276 189.228 96.8263 188.845 97.3169 188.569C97.8076 188.278 98.3596 188.078 98.9729 187.971C99.5863 187.848 100.215 187.787 100.859 187.787C101.503 187.787 102.124 187.848 102.722 187.971C103.335 188.094 103.88 188.301 104.355 188.592C104.83 188.883 105.221 189.274 105.528 189.765C105.85 190.24 106.042 190.846 106.103 191.582H102.998C102.952 190.953 102.714 190.532 102.285 190.317C101.856 190.087 101.35 189.972 100.767 189.972C100.583 189.972 100.384 189.987 100.169 190.018C99.9543 190.033 99.7549 190.079 99.5709 190.156C99.4023 190.233 99.2566 190.348 99.1339 190.501C99.0113 190.639 98.9499 190.831 98.9499 191.076C98.9499 191.367 99.0573 191.605 99.2719 191.789C99.4866 191.973 99.7626 192.126 100.1 192.249C100.453 192.356 100.851 192.456 101.296 192.548C101.741 192.64 102.193 192.74 102.653 192.847C103.128 192.954 103.588 193.085 104.033 193.238C104.493 193.391 104.899 193.598 105.252 193.859C105.605 194.104 105.888 194.419 106.103 194.802C106.318 195.17 106.425 195.63 106.425 196.182C106.425 196.964 106.264 197.623 105.942 198.16C105.635 198.681 105.229 199.103 104.723 199.425C104.217 199.747 103.634 199.969 102.975 200.092C102.331 200.23 101.672 200.299 100.997 200.299C100.307 200.299 99.6323 200.23 98.9729 200.092C98.3136 199.954 97.7233 199.724 97.2019 199.402C96.6959 199.08 96.2743 198.658 95.9369 198.137C95.6149 197.6 95.4386 196.933 95.4079 196.136H98.5129ZM112.476 188.109H114.868V190.294H112.476V196.182C112.476 196.734 112.568 197.102 112.752 197.286C112.936 197.47 113.304 197.562 113.856 197.562C114.04 197.562 114.217 197.554 114.385 197.539C114.554 197.524 114.715 197.501 114.868 197.47V200C114.592 200.046 114.286 200.077 113.948 200.092C113.611 200.107 113.281 200.115 112.959 200.115C112.453 200.115 111.97 200.077 111.51 200C111.066 199.939 110.667 199.808 110.314 199.609C109.977 199.41 109.709 199.126 109.509 198.758C109.31 198.39 109.21 197.907 109.21 197.309V190.294H107.232V188.109H109.21V184.544H112.476V188.109ZM116.284 191.766C116.33 190.999 116.522 190.363 116.859 189.857C117.197 189.351 117.626 188.945 118.147 188.638C118.669 188.331 119.251 188.117 119.895 187.994C120.555 187.856 121.214 187.787 121.873 187.787C122.471 187.787 123.077 187.833 123.69 187.925C124.304 188.002 124.863 188.163 125.369 188.408C125.875 188.653 126.289 188.998 126.611 189.443C126.933 189.872 127.094 190.447 127.094 191.168V197.355C127.094 197.892 127.125 198.405 127.186 198.896C127.248 199.387 127.355 199.755 127.508 200H124.196C124.135 199.816 124.081 199.632 124.035 199.448C124.005 199.249 123.982 199.049 123.966 198.85C123.445 199.387 122.832 199.762 122.126 199.977C121.421 200.192 120.7 200.299 119.964 200.299C119.397 200.299 118.868 200.23 118.377 200.092C117.887 199.954 117.457 199.739 117.089 199.448C116.721 199.157 116.43 198.789 116.215 198.344C116.016 197.899 115.916 197.37 115.916 196.757C115.916 196.082 116.031 195.53 116.261 195.101C116.507 194.656 116.813 194.304 117.181 194.043C117.565 193.782 117.994 193.591 118.469 193.468C118.96 193.33 119.451 193.223 119.941 193.146C120.432 193.069 120.915 193.008 121.39 192.962C121.866 192.916 122.287 192.847 122.655 192.755C123.023 192.663 123.315 192.533 123.529 192.364C123.744 192.18 123.844 191.919 123.828 191.582C123.828 191.229 123.767 190.953 123.644 190.754C123.537 190.539 123.384 190.378 123.184 190.271C123 190.148 122.778 190.072 122.517 190.041C122.272 189.995 122.004 189.972 121.712 189.972C121.068 189.972 120.562 190.11 120.194 190.386C119.826 190.662 119.612 191.122 119.55 191.766H116.284ZM123.828 194.181C123.69 194.304 123.514 194.403 123.299 194.48C123.1 194.541 122.878 194.595 122.632 194.641C122.402 194.687 122.157 194.725 121.896 194.756C121.636 194.787 121.375 194.825 121.114 194.871C120.869 194.917 120.624 194.978 120.378 195.055C120.148 195.132 119.941 195.239 119.757 195.377C119.589 195.5 119.451 195.661 119.343 195.86C119.236 196.059 119.182 196.312 119.182 196.619C119.182 196.91 119.236 197.156 119.343 197.355C119.451 197.554 119.596 197.715 119.78 197.838C119.964 197.945 120.179 198.022 120.424 198.068C120.67 198.114 120.923 198.137 121.183 198.137C121.827 198.137 122.326 198.03 122.678 197.815C123.031 197.6 123.292 197.347 123.46 197.056C123.629 196.749 123.729 196.443 123.759 196.136C123.805 195.829 123.828 195.584 123.828 195.4V194.181ZM129.629 188.109H132.734V190.317H132.78C132.934 189.949 133.141 189.612 133.401 189.305C133.662 188.983 133.961 188.715 134.298 188.5C134.636 188.27 134.996 188.094 135.379 187.971C135.763 187.848 136.161 187.787 136.575 187.787C136.79 187.787 137.028 187.825 137.288 187.902V190.938C137.135 190.907 136.951 190.884 136.736 190.869C136.522 190.838 136.315 190.823 136.115 190.823C135.517 190.823 135.011 190.923 134.597 191.122C134.183 191.321 133.846 191.597 133.585 191.95C133.34 192.287 133.164 192.686 133.056 193.146C132.949 193.606 132.895 194.104 132.895 194.641V200H129.629V188.109ZM142.709 188.109H145.101V190.294H142.709V196.182C142.709 196.734 142.801 197.102 142.985 197.286C143.169 197.47 143.537 197.562 144.089 197.562C144.273 197.562 144.449 197.554 144.618 197.539C144.787 197.524 144.948 197.501 145.101 197.47V200C144.825 200.046 144.518 200.077 144.181 200.092C143.844 200.107 143.514 200.115 143.192 200.115C142.686 200.115 142.203 200.077 141.743 200C141.298 199.939 140.9 199.808 140.547 199.609C140.21 199.41 139.941 199.126 139.742 198.758C139.543 198.39 139.443 197.907 139.443 197.309V190.294H137.465V188.109H139.443V184.544H142.709V188.109ZM150.013 186.269H146.747V183.578H150.013V186.269ZM146.747 188.109H150.013V200H146.747V188.109ZM152.584 188.109H155.689V189.765H155.758C156.172 189.075 156.709 188.577 157.368 188.27C158.028 187.948 158.702 187.787 159.392 187.787C160.266 187.787 160.979 187.91 161.531 188.155C162.099 188.385 162.543 188.715 162.865 189.144C163.187 189.558 163.41 190.072 163.532 190.685C163.67 191.283 163.739 191.95 163.739 192.686V200H160.473V193.284C160.473 192.303 160.32 191.574 160.013 191.099C159.707 190.608 159.162 190.363 158.38 190.363C157.491 190.363 156.847 190.631 156.448 191.168C156.05 191.689 155.85 192.556 155.85 193.767V200H152.584V188.109ZM171.761 197.194C172.221 197.194 172.628 197.102 172.98 196.918C173.333 196.734 173.624 196.489 173.854 196.182C174.084 195.875 174.253 195.53 174.36 195.147C174.483 194.748 174.544 194.334 174.544 193.905C174.544 193.414 174.498 192.954 174.406 192.525C174.314 192.08 174.161 191.689 173.946 191.352C173.732 191.015 173.448 190.746 173.095 190.547C172.743 190.348 172.298 190.248 171.761 190.248C171.301 190.248 170.903 190.34 170.565 190.524C170.243 190.708 169.967 190.961 169.737 191.283C169.523 191.59 169.362 191.95 169.254 192.364C169.162 192.763 169.116 193.184 169.116 193.629C169.116 194.058 169.155 194.488 169.231 194.917C169.323 195.331 169.469 195.707 169.668 196.044C169.883 196.381 170.159 196.657 170.496 196.872C170.834 197.087 171.255 197.194 171.761 197.194ZM177.649 199.241C177.649 199.716 177.58 200.261 177.442 200.874C177.32 201.487 177.044 202.055 176.614 202.576C176.185 203.113 175.564 203.565 174.751 203.933C173.939 204.301 172.85 204.485 171.485 204.485C170.903 204.485 170.305 204.408 169.691 204.255C169.093 204.117 168.541 203.895 168.035 203.588C167.545 203.281 167.131 202.883 166.793 202.392C166.471 201.917 166.287 201.342 166.241 200.667H169.484C169.638 201.28 169.937 201.702 170.381 201.932C170.826 202.177 171.34 202.3 171.922 202.3C172.842 202.3 173.509 202.024 173.923 201.472C174.353 200.92 174.56 200.222 174.544 199.379V197.815H174.498C174.146 198.444 173.64 198.911 172.98 199.218C172.336 199.509 171.654 199.655 170.933 199.655C170.044 199.655 169.277 199.502 168.633 199.195C167.989 198.873 167.46 198.444 167.046 197.907C166.632 197.355 166.326 196.719 166.126 195.998C165.942 195.262 165.85 194.488 165.85 193.675C165.85 192.908 165.958 192.172 166.172 191.467C166.402 190.746 166.732 190.118 167.161 189.581C167.591 189.029 168.12 188.592 168.748 188.27C169.392 187.948 170.128 187.787 170.956 187.787C171.738 187.787 172.421 187.933 173.003 188.224C173.601 188.515 174.1 189.006 174.498 189.696H174.544V188.109H177.649V199.241ZM186.542 191.766C186.588 190.999 186.78 190.363 187.117 189.857C187.455 189.351 187.884 188.945 188.405 188.638C188.927 188.331 189.509 188.117 190.153 187.994C190.813 187.856 191.472 187.787 192.131 187.787C192.729 187.787 193.335 187.833 193.948 187.925C194.562 188.002 195.121 188.163 195.627 188.408C196.133 188.653 196.547 188.998 196.869 189.443C197.191 189.872 197.352 190.447 197.352 191.168V197.355C197.352 197.892 197.383 198.405 197.444 198.896C197.506 199.387 197.613 199.755 197.766 200H194.454C194.393 199.816 194.339 199.632 194.293 199.448C194.263 199.249 194.24 199.049 194.224 198.85C193.703 199.387 193.09 199.762 192.384 199.977C191.679 200.192 190.958 200.299 190.222 200.299C189.655 200.299 189.126 200.23 188.635 200.092C188.145 199.954 187.715 199.739 187.347 199.448C186.979 199.157 186.688 198.789 186.473 198.344C186.274 197.899 186.174 197.37 186.174 196.757C186.174 196.082 186.289 195.53 186.519 195.101C186.765 194.656 187.071 194.304 187.439 194.043C187.823 193.782 188.252 193.591 188.727 193.468C189.218 193.33 189.709 193.223 190.199 193.146C190.69 193.069 191.173 193.008 191.648 192.962C192.124 192.916 192.545 192.847 192.913 192.755C193.281 192.663 193.573 192.533 193.787 192.364C194.002 192.18 194.102 191.919 194.086 191.582C194.086 191.229 194.025 190.953 193.902 190.754C193.795 190.539 193.642 190.378 193.442 190.271C193.258 190.148 193.036 190.072 192.775 190.041C192.53 189.995 192.262 189.972 191.97 189.972C191.326 189.972 190.82 190.11 190.452 190.386C190.084 190.662 189.87 191.122 189.808 191.766H186.542ZM194.086 194.181C193.948 194.304 193.772 194.403 193.557 194.48C193.358 194.541 193.136 194.595 192.89 194.641C192.66 194.687 192.415 194.725 192.154 194.756C191.894 194.787 191.633 194.825 191.372 194.871C191.127 194.917 190.882 194.978 190.636 195.055C190.406 195.132 190.199 195.239 190.015 195.377C189.847 195.5 189.709 195.661 189.601 195.86C189.494 196.059 189.44 196.312 189.44 196.619C189.44 196.91 189.494 197.156 189.601 197.355C189.709 197.554 189.854 197.715 190.038 197.838C190.222 197.945 190.437 198.022 190.682 198.068C190.928 198.114 191.181 198.137 191.441 198.137C192.085 198.137 192.584 198.03 192.936 197.815C193.289 197.6 193.55 197.347 193.718 197.056C193.887 196.749 193.987 196.443 194.017 196.136C194.063 195.829 194.086 195.584 194.086 195.4V194.181ZM204.027 188.109H206.419V190.294H204.027V196.182C204.027 196.734 204.119 197.102 204.303 197.286C204.487 197.47 204.855 197.562 205.407 197.562C205.591 197.562 205.768 197.554 205.936 197.539C206.105 197.524 206.266 197.501 206.419 197.47V200C206.143 200.046 205.837 200.077 205.499 200.092C205.162 200.107 204.832 200.115 204.51 200.115C204.004 200.115 203.521 200.077 203.061 200C202.617 199.939 202.218 199.808 201.865 199.609C201.528 199.41 201.26 199.126 201.06 198.758C200.861 198.39 200.761 197.907 200.761 197.309V190.294H198.783V188.109H200.761V184.544H204.027V188.109Z" fill="#FFFEF9"/>
<path d="M50.7517 241.117C50.715 243.206 51.2648 244.855 52.401 246.065C53.5372 247.274 54.9482 248.044 56.6342 248.374V236.884C56.4509 236.81 56.1944 236.737 55.8645 236.664C55.5713 236.554 55.2414 236.462 54.8749 236.389C53.5188 236.022 52.1811 235.601 50.8616 235.124C49.5422 234.611 48.351 233.952 47.2882 233.145C46.2619 232.302 45.4373 231.276 44.8142 230.067C44.1912 228.82 43.8796 227.281 43.8796 225.448C43.8796 223.579 44.2278 221.93 44.9242 220.501C45.6572 219.071 46.6101 217.88 47.783 216.927C48.9558 215.938 50.3119 215.186 51.8512 214.673C53.3906 214.123 54.9849 213.793 56.6342 213.684V209.45H59.8778V213.684C61.5271 213.867 63.0664 214.233 64.4958 214.783C65.9619 215.296 67.2446 216.029 68.3442 216.982C69.4437 217.898 70.3417 219.053 71.038 220.446C71.7344 221.838 72.1376 223.488 72.2475 225.394H64.4408C64.4042 223.927 63.9461 222.681 63.0664 221.655C62.1868 220.629 61.1239 220.116 59.8778 220.116V229.847C60.3176 229.957 60.7574 230.067 61.1972 230.176C61.6737 230.286 62.1685 230.415 62.6816 230.561C65.3938 231.294 67.4829 232.211 68.9489 233.31C70.415 234.373 71.4962 235.491 72.1925 236.664C72.8889 237.837 73.2921 239.009 73.402 240.182C73.5486 241.355 73.6219 242.4 73.6219 243.316C73.6219 244.122 73.4203 245.148 73.0172 246.395C72.614 247.604 71.881 248.795 70.8181 249.968C69.7919 251.141 68.3992 252.185 66.6399 253.102C64.8807 254.018 62.6266 254.568 59.8778 254.751V259.424H56.6342V254.751C52.5293 254.458 49.3223 253.193 47.0133 250.958C44.7043 248.722 43.3665 245.442 43 241.117H50.7517ZM59.8778 248.374C60.5375 248.3 61.2156 248.154 61.9119 247.934C62.6449 247.677 63.2863 247.329 63.8361 246.889C64.4225 246.45 64.899 245.918 65.2655 245.295C65.632 244.635 65.8153 243.866 65.8153 242.986C65.8153 241.557 65.3571 240.494 64.4408 239.797C63.5612 239.064 62.0402 238.405 59.8778 237.818V248.374ZM56.6342 220.116C56.0111 220.116 55.4064 220.207 54.82 220.391C54.2335 220.574 53.7021 220.867 53.2256 221.27C52.7492 221.637 52.3643 222.113 52.0711 222.7C51.8146 223.249 51.6863 223.909 51.6863 224.679C51.6863 225.888 52.0711 226.823 52.8408 227.483C53.6105 228.142 54.8749 228.674 56.6342 229.077V220.116Z" fill="#FFFEF9"/>
<path d="M115.496 261.217C118.18 261.217 120.494 260.754 122.437 259.828C124.381 258.81 126 257.468 127.296 255.802C128.592 254.137 129.563 252.239 130.211 250.111C130.859 247.89 131.183 245.576 131.183 243.17C131.183 240.948 130.813 238.773 130.072 236.645C129.425 234.424 128.407 232.48 127.018 230.814C125.723 229.056 124.103 227.668 122.159 226.65C120.216 225.632 117.995 225.123 115.496 225.123C113.182 225.123 111.1 225.632 109.249 226.65C107.398 227.668 105.825 229.01 104.529 230.675C103.233 232.341 102.261 234.239 101.614 236.367C100.966 238.496 100.642 240.671 100.642 242.892C100.642 245.206 100.92 247.473 101.475 249.694C102.123 251.823 103.048 253.766 104.251 255.525C105.454 257.191 106.981 258.579 108.832 259.69C110.776 260.708 112.997 261.217 115.496 261.217ZM101.336 283.012C101.984 286.251 103.465 289.074 105.778 291.48C108.092 293.886 110.961 295.089 114.385 295.089C117.995 295.089 120.956 294.071 123.27 292.035C125.584 289.907 127.435 287.362 128.823 284.4C130.211 281.346 131.183 278.107 131.738 274.682C132.386 271.258 132.803 268.204 132.988 265.52L132.71 265.242C130.026 269.129 126.879 271.906 123.27 273.572C119.661 275.238 115.496 276.071 110.776 276.071C106.611 276.071 102.539 275.191 98.5595 273.433C94.5799 271.582 91.2019 269.129 88.4254 266.075C85.834 263.114 83.9368 259.736 82.7337 255.941C81.5305 252.147 80.929 248.306 80.929 244.419C80.929 239.421 81.7156 234.794 83.289 230.537C84.9548 226.187 87.2686 222.439 90.2301 219.292C93.2842 216.053 96.8936 213.508 101.058 211.657C105.223 209.806 109.85 208.88 114.941 208.88C122.345 208.88 128.407 210.361 133.126 213.323C137.939 216.192 141.78 220.032 144.649 224.845C147.518 229.565 149.508 234.933 150.618 240.948C151.729 246.964 152.284 253.026 152.284 259.134C152.284 265.15 151.59 271.166 150.202 277.181C148.814 283.197 146.592 288.657 143.538 293.562C140.484 298.375 136.551 302.308 131.738 305.362C126.926 308.324 121.049 309.805 114.108 309.805C109.943 309.805 106.056 309.203 102.447 308C98.8372 306.889 95.6442 305.177 92.8678 302.864C90.0913 300.55 87.8238 297.727 86.0654 294.395C84.307 291.064 83.1501 287.269 82.5948 283.012H101.336ZM192.635 261.217C195.319 261.217 197.633 260.754 199.576 259.828C201.52 258.81 203.139 257.468 204.435 255.802C205.731 254.137 206.702 252.239 207.35 250.111C207.998 247.89 208.322 245.576 208.322 243.17C208.322 240.948 207.952 238.773 207.211 236.645C206.564 234.424 205.546 232.48 204.157 230.814C202.862 229.056 201.242 227.668 199.299 226.65C197.355 225.632 195.134 225.123 192.635 225.123C190.321 225.123 188.239 225.632 186.388 226.65C184.537 227.668 182.964 229.01 181.668 230.675C180.372 232.341 179.401 234.239 178.753 236.367C178.105 238.496 177.781 240.671 177.781 242.892C177.781 245.206 178.059 247.473 178.614 249.694C179.262 251.823 180.187 253.766 181.39 255.525C182.593 257.191 184.121 258.579 185.972 259.69C187.915 260.708 190.136 261.217 192.635 261.217ZM178.475 283.012C179.123 286.251 180.604 289.074 182.917 291.48C185.231 293.886 188.1 295.089 191.524 295.089C195.134 295.089 198.095 294.071 200.409 292.035C202.723 289.907 204.574 287.362 205.962 284.4C207.35 281.346 208.322 278.107 208.877 274.682C209.525 271.258 209.942 268.204 210.127 265.52L209.849 265.242C207.165 269.129 204.019 271.906 200.409 273.572C196.8 275.238 192.635 276.071 187.915 276.071C183.75 276.071 179.678 275.191 175.699 273.433C171.719 271.582 168.341 269.129 165.564 266.075C162.973 263.114 161.076 259.736 159.873 255.941C158.67 252.147 158.068 248.306 158.068 244.419C158.068 239.421 158.855 234.794 160.428 230.537C162.094 226.187 164.408 222.439 167.369 219.292C170.423 216.053 174.033 213.508 178.197 211.657C182.362 209.806 186.99 208.88 192.08 208.88C199.484 208.88 205.546 210.361 210.266 213.323C215.078 216.192 218.919 220.032 221.788 224.845C224.657 229.565 226.647 234.933 227.757 240.948C228.868 246.964 229.423 253.026 229.423 259.134C229.423 265.15 228.729 271.166 227.341 277.181C225.953 283.197 223.731 288.657 220.677 293.562C217.623 298.375 213.69 302.308 208.877 305.362C204.065 308.324 198.188 309.805 191.247 309.805C187.082 309.805 183.195 309.203 179.586 308C175.976 306.889 172.783 305.177 170.007 302.864C167.23 300.55 164.963 297.727 163.204 294.395C161.446 291.064 160.289 287.269 159.734 283.012H178.475Z" fill="#FFFEF9"/>
</svg>
