<svg width="399" height="399" viewBox="0 0 399 399" fill="none" xmlns="http://www.w3.org/2000/svg">
<path d="M119.208 343.152H135.272V347.376H124.232V352.656H133.8V356.56H124.232V366H119.208V343.152ZM153.217 366H148.897V363.696H148.801C148.225 364.656 147.478 365.349 146.561 365.776C145.643 366.203 144.705 366.416 143.745 366.416C142.529 366.416 141.526 366.256 140.737 365.936C139.969 365.616 139.361 365.168 138.913 364.592C138.465 363.995 138.145 363.28 137.953 362.448C137.782 361.595 137.697 360.656 137.697 359.632V349.456H142.241V358.8C142.241 360.165 142.454 361.189 142.881 361.872C143.307 362.533 144.065 362.864 145.153 362.864C146.39 362.864 147.286 362.501 147.841 361.776C148.395 361.029 148.673 359.813 148.673 358.128V349.456H153.217V366ZM156.666 349.456H160.986V352.528H161.05C161.263 352.016 161.551 351.547 161.914 351.12C162.276 350.672 162.692 350.299 163.161 350C163.631 349.68 164.132 349.435 164.666 349.264C165.199 349.093 165.754 349.008 166.33 349.008C166.628 349.008 166.959 349.061 167.322 349.168V353.392C167.108 353.349 166.852 353.317 166.554 353.296C166.255 353.253 165.967 353.232 165.69 353.232C164.858 353.232 164.154 353.371 163.578 353.648C163.002 353.925 162.532 354.309 162.17 354.8C161.828 355.269 161.583 355.824 161.434 356.464C161.284 357.104 161.21 357.797 161.21 358.544V366H156.666V349.456ZM169.666 349.456H173.986V351.76H174.082C174.658 350.8 175.404 350.107 176.322 349.68C177.239 349.232 178.178 349.008 179.138 349.008C180.354 349.008 181.346 349.179 182.114 349.52C182.903 349.84 183.522 350.299 183.97 350.896C184.418 351.472 184.727 352.187 184.898 353.04C185.09 353.872 185.186 354.8 185.186 355.824V366H180.642V356.656C180.642 355.291 180.428 354.277 180.002 353.616C179.575 352.933 178.818 352.592 177.73 352.592C176.492 352.592 175.596 352.965 175.042 353.712C174.487 354.437 174.21 355.643 174.21 357.328V366H169.666V349.456ZM193.306 346.896H188.762V343.152H193.306V346.896ZM188.762 349.456H193.306V366H188.762V349.456ZM202.644 349.456H205.972V352.496H202.644V360.688C202.644 361.456 202.772 361.968 203.028 362.224C203.284 362.48 203.796 362.608 204.564 362.608C204.82 362.608 205.066 362.597 205.3 362.576C205.535 362.555 205.759 362.523 205.972 362.48V366C205.588 366.064 205.162 366.107 204.692 366.128C204.223 366.149 203.764 366.16 203.316 366.16C202.612 366.16 201.94 366.107 201.3 366C200.682 365.915 200.127 365.733 199.636 365.456C199.167 365.179 198.794 364.784 198.516 364.272C198.239 363.76 198.1 363.088 198.1 362.256V352.496H195.348V349.456H198.1V344.496H202.644V349.456ZM223.654 366H219.334V363.696H219.238C218.662 364.656 217.916 365.349 216.998 365.776C216.081 366.203 215.142 366.416 214.182 366.416C212.966 366.416 211.964 366.256 211.174 365.936C210.406 365.616 209.798 365.168 209.35 364.592C208.902 363.995 208.582 363.28 208.39 362.448C208.22 361.595 208.134 360.656 208.134 359.632V349.456H212.678V358.8C212.678 360.165 212.892 361.189 213.318 361.872C213.745 362.533 214.502 362.864 215.59 362.864C216.828 362.864 217.724 362.501 218.278 361.776C218.833 361.029 219.11 359.813 219.11 358.128V349.456H223.654V366ZM227.103 349.456H231.423V352.528H231.487C231.7 352.016 231.988 351.547 232.351 351.12C232.714 350.672 233.13 350.299 233.599 350C234.068 349.68 234.57 349.435 235.103 349.264C235.636 349.093 236.191 349.008 236.767 349.008C237.066 349.008 237.396 349.061 237.759 349.168V353.392C237.546 353.349 237.29 353.317 236.991 353.296C236.692 353.253 236.404 353.232 236.127 353.232C235.295 353.232 234.591 353.371 234.015 353.648C233.439 353.925 232.97 354.309 232.607 354.8C232.266 355.269 232.02 355.824 231.871 356.464C231.722 357.104 231.647 357.797 231.647 358.544V366H227.103V349.456ZM250.114 355.952C249.901 354.8 249.517 353.925 248.962 353.328C248.429 352.731 247.607 352.432 246.498 352.432C245.773 352.432 245.165 352.56 244.674 352.816C244.205 353.051 243.821 353.349 243.522 353.712C243.245 354.075 243.042 354.459 242.914 354.864C242.807 355.269 242.743 355.632 242.722 355.952H250.114ZM242.722 358.832C242.786 360.304 243.159 361.371 243.842 362.032C244.525 362.693 245.506 363.024 246.786 363.024C247.703 363.024 248.493 362.8 249.154 362.352C249.815 361.883 250.221 361.392 250.37 360.88H254.37C253.73 362.864 252.749 364.283 251.426 365.136C250.103 365.989 248.503 366.416 246.626 366.416C245.325 366.416 244.151 366.213 243.106 365.808C242.061 365.381 241.175 364.784 240.45 364.016C239.725 363.248 239.159 362.331 238.754 361.264C238.37 360.197 238.178 359.024 238.178 357.744C238.178 356.507 238.381 355.355 238.786 354.288C239.191 353.221 239.767 352.304 240.514 351.536C241.261 350.747 242.146 350.128 243.17 349.68C244.215 349.232 245.367 349.008 246.626 349.008C248.034 349.008 249.261 349.285 250.306 349.84C251.351 350.373 252.205 351.099 252.866 352.016C253.549 352.933 254.039 353.979 254.338 355.152C254.637 356.325 254.743 357.552 254.658 358.832H242.722Z" fill="#FFFEF9"/>
<path d="M272.554 363.272L270.01 361.352L275.626 355.864V356.856L270.01 351.384L272.554 349.464L279.178 356.36L272.554 363.272Z" fill="#FFFEF9"/>
</svg>
