<svg width="399" height="399" viewBox="0 0 399 399" fill="none" xmlns="http://www.w3.org/2000/svg">
<path d="M130.232 352.4H135.32C136.216 352.4 136.952 352.187 137.528 351.76C138.104 351.333 138.392 350.64 138.392 349.68C138.392 349.147 138.296 348.709 138.104 348.368C137.912 348.027 137.656 347.76 137.336 347.568C137.016 347.376 136.643 347.248 136.216 347.184C135.811 347.099 135.384 347.056 134.936 347.056H130.232V352.4ZM125.208 343.152H135.96C137.048 343.152 138.04 343.248 138.936 343.44C139.832 343.632 140.6 343.952 141.24 344.4C141.88 344.827 142.371 345.403 142.712 346.128C143.075 346.853 143.256 347.749 143.256 348.816C143.256 349.968 142.989 350.928 142.456 351.696C141.944 352.464 141.176 353.093 140.152 353.584C141.56 353.989 142.605 354.704 143.288 355.728C143.992 356.731 144.344 357.947 144.344 359.376C144.344 360.528 144.12 361.531 143.672 362.384C143.224 363.216 142.616 363.899 141.848 364.432C141.101 364.965 140.237 365.36 139.256 365.616C138.296 365.872 137.304 366 136.28 366H125.208V343.152ZM130.232 362.096H135.608C136.099 362.096 136.568 362.053 137.016 361.968C137.464 361.861 137.859 361.701 138.2 361.488C138.541 361.253 138.808 360.944 139 360.56C139.213 360.176 139.32 359.685 139.32 359.088C139.32 357.915 138.989 357.083 138.328 356.592C137.667 356.08 136.792 355.824 135.704 355.824H130.232V362.096ZM158.395 355.952C158.182 354.8 157.798 353.925 157.243 353.328C156.71 352.731 155.889 352.432 154.779 352.432C154.054 352.432 153.446 352.56 152.955 352.816C152.486 353.051 152.102 353.349 151.803 353.712C151.526 354.075 151.323 354.459 151.195 354.864C151.089 355.269 151.025 355.632 151.003 355.952H158.395ZM151.003 358.832C151.067 360.304 151.441 361.371 152.123 362.032C152.806 362.693 153.787 363.024 155.067 363.024C155.985 363.024 156.774 362.8 157.435 362.352C158.097 361.883 158.502 361.392 158.651 360.88H162.651C162.011 362.864 161.03 364.283 159.707 365.136C158.385 365.989 156.785 366.416 154.907 366.416C153.606 366.416 152.433 366.213 151.387 365.808C150.342 365.381 149.457 364.784 148.731 364.016C148.006 363.248 147.441 362.331 147.035 361.264C146.651 360.197 146.459 359.024 146.459 357.744C146.459 356.507 146.662 355.355 147.067 354.288C147.473 353.221 148.049 352.304 148.795 351.536C149.542 350.747 150.427 350.128 151.451 349.68C152.497 349.232 153.649 349.008 154.907 349.008C156.315 349.008 157.542 349.285 158.587 349.84C159.633 350.373 160.486 351.099 161.147 352.016C161.83 352.933 162.321 353.979 162.619 355.152C162.918 356.325 163.025 357.552 162.939 358.832H151.003ZM177.378 357.68C177.378 356.997 177.314 356.347 177.186 355.728C177.058 355.088 176.834 354.533 176.514 354.064C176.216 353.573 175.821 353.179 175.33 352.88C174.84 352.581 174.221 352.432 173.474 352.432C172.728 352.432 172.098 352.581 171.586 352.88C171.074 353.179 170.658 353.573 170.338 354.064C170.04 354.555 169.816 355.12 169.666 355.76C169.538 356.379 169.474 357.029 169.474 357.712C169.474 358.352 169.549 358.992 169.698 359.632C169.848 360.272 170.082 360.848 170.402 361.36C170.744 361.851 171.16 362.256 171.65 362.576C172.162 362.875 172.77 363.024 173.474 363.024C174.221 363.024 174.84 362.875 175.33 362.576C175.842 362.277 176.248 361.883 176.546 361.392C176.845 360.88 177.058 360.304 177.186 359.664C177.314 359.024 177.378 358.363 177.378 357.68ZM177.442 363.888H177.378C176.845 364.784 176.141 365.435 175.266 365.84C174.413 366.224 173.442 366.416 172.354 366.416C171.117 366.416 170.029 366.181 169.09 365.712C168.152 365.221 167.373 364.571 166.754 363.76C166.157 362.928 165.698 361.979 165.378 360.912C165.08 359.845 164.93 358.736 164.93 357.584C164.93 356.475 165.08 355.408 165.378 354.384C165.698 353.339 166.157 352.421 166.754 351.632C167.373 350.843 168.141 350.213 169.058 349.744C169.976 349.253 171.042 349.008 172.258 349.008C173.24 349.008 174.168 349.221 175.042 349.648C175.938 350.053 176.642 350.661 177.154 351.472H177.218V343.152H181.762V366H177.442V363.888ZM196.941 357.68C196.941 356.997 196.877 356.347 196.749 355.728C196.621 355.088 196.397 354.533 196.077 354.064C195.778 353.573 195.383 353.179 194.893 352.88C194.402 352.581 193.783 352.432 193.037 352.432C192.29 352.432 191.661 352.581 191.149 352.88C190.637 353.179 190.221 353.573 189.901 354.064C189.602 354.555 189.378 355.12 189.229 355.76C189.101 356.379 189.037 357.029 189.037 357.712C189.037 358.352 189.111 358.992 189.261 359.632C189.41 360.272 189.645 360.848 189.965 361.36C190.306 361.851 190.722 362.256 191.213 362.576C191.725 362.875 192.333 363.024 193.037 363.024C193.783 363.024 194.402 362.875 194.893 362.576C195.405 362.277 195.81 361.883 196.109 361.392C196.407 360.88 196.621 360.304 196.749 359.664C196.877 359.024 196.941 358.363 196.941 357.68ZM197.005 363.888H196.941C196.407 364.784 195.703 365.435 194.829 365.84C193.975 366.224 193.005 366.416 191.917 366.416C190.679 366.416 189.591 366.181 188.653 365.712C187.714 365.221 186.935 364.571 186.317 363.76C185.719 362.928 185.261 361.979 184.941 360.912C184.642 359.845 184.493 358.736 184.493 357.584C184.493 356.475 184.642 355.408 184.941 354.384C185.261 353.339 185.719 352.421 186.317 351.632C186.935 350.843 187.703 350.213 188.621 349.744C189.538 349.253 190.605 349.008 191.821 349.008C192.802 349.008 193.73 349.221 194.605 349.648C195.501 350.053 196.205 350.661 196.717 351.472H196.781V343.152H201.325V366H197.005V363.888ZM209.431 346.896H204.887V343.152H209.431V346.896ZM204.887 349.456H209.431V366H204.887V349.456ZM213.009 349.456H217.329V351.76H217.425C218.001 350.8 218.748 350.107 219.665 349.68C220.583 349.232 221.521 349.008 222.481 349.008C223.697 349.008 224.689 349.179 225.457 349.52C226.247 349.84 226.865 350.299 227.313 350.896C227.761 351.472 228.071 352.187 228.241 353.04C228.433 353.872 228.529 354.8 228.529 355.824V366H223.985V356.656C223.985 355.291 223.772 354.277 223.345 353.616C222.919 352.933 222.161 352.592 221.073 352.592C219.836 352.592 218.94 352.965 218.385 353.712C217.831 354.437 217.553 355.643 217.553 357.328V366H213.009V349.456ZM239.69 362.096C240.33 362.096 240.895 361.968 241.386 361.712C241.877 361.456 242.282 361.115 242.602 360.688C242.922 360.261 243.157 359.781 243.306 359.248C243.477 358.693 243.562 358.117 243.562 357.52C243.562 356.837 243.498 356.197 243.37 355.6C243.242 354.981 243.029 354.437 242.73 353.968C242.431 353.499 242.037 353.125 241.546 352.848C241.055 352.571 240.437 352.432 239.69 352.432C239.05 352.432 238.495 352.56 238.026 352.816C237.578 353.072 237.194 353.424 236.874 353.872C236.575 354.299 236.351 354.8 236.202 355.376C236.074 355.931 236.01 356.517 236.01 357.136C236.01 357.733 236.063 358.331 236.17 358.928C236.298 359.504 236.501 360.027 236.778 360.496C237.077 360.965 237.461 361.349 237.93 361.648C238.399 361.947 238.986 362.096 239.69 362.096ZM247.882 364.944C247.882 365.605 247.786 366.363 247.594 367.216C247.423 368.069 247.039 368.859 246.442 369.584C245.845 370.331 244.981 370.96 243.85 371.472C242.719 371.984 241.205 372.24 239.306 372.24C238.495 372.24 237.663 372.133 236.81 371.92C235.978 371.728 235.21 371.419 234.506 370.992C233.823 370.565 233.247 370.011 232.778 369.328C232.33 368.667 232.074 367.867 232.01 366.928H236.522C236.735 367.781 237.151 368.368 237.77 368.688C238.389 369.029 239.103 369.2 239.914 369.2C241.194 369.2 242.122 368.816 242.698 368.048C243.295 367.28 243.583 366.309 243.562 365.136V362.96H243.498C243.007 363.835 242.303 364.485 241.386 364.912C240.49 365.317 239.541 365.52 238.538 365.52C237.301 365.52 236.234 365.307 235.338 364.88C234.442 364.432 233.706 363.835 233.13 363.088C232.554 362.32 232.127 361.435 231.85 360.432C231.594 359.408 231.466 358.331 231.466 357.2C231.466 356.133 231.615 355.109 231.914 354.128C232.234 353.125 232.693 352.251 233.29 351.504C233.887 350.736 234.623 350.128 235.498 349.68C236.394 349.232 237.418 349.008 238.57 349.008C239.658 349.008 240.607 349.211 241.418 349.616C242.25 350.021 242.943 350.704 243.498 351.664H243.562V349.456H247.882V364.944Z" fill="#FFFEF9"/>
<path d="M266.554 363.272L264.01 361.352L269.626 355.864V356.856L264.01 351.384L266.554 349.464L273.178 356.36L266.554 363.272Z" fill="#FFFEF9"/>
</svg>
