<svg width="767" height="767" viewBox="0 0 767 767" fill="none" xmlns="http://www.w3.org/2000/svg">
<path d="M278.5 560C278.5 557.791 280.291 556 282.5 556H484.5C486.709 556 488.5 557.791 488.5 560V622C488.5 624.209 486.709 626 484.5 626H282.5C280.291 626 278.5 624.209 278.5 622V560Z" fill="#D10000"/>
<path d="M326.212 586.84C326.041 585.197 325.444 584.013 324.42 583.288C323.417 582.541 322.127 582.168 320.548 582.168C319.908 582.168 319.279 582.232 318.66 582.36C318.041 582.488 317.487 582.701 316.996 583C316.527 583.299 316.143 583.704 315.844 584.216C315.567 584.707 315.428 585.325 315.428 586.072C315.428 586.776 315.631 587.352 316.036 587.8C316.463 588.227 317.017 588.579 317.7 588.856C318.404 589.133 319.193 589.368 320.068 589.56C320.943 589.731 321.828 589.923 322.724 590.136C323.641 590.349 324.537 590.605 325.412 590.904C326.287 591.181 327.065 591.565 327.748 592.056C328.452 592.547 329.007 593.165 329.412 593.912C329.839 594.659 330.052 595.597 330.052 596.728C330.052 597.944 329.775 598.989 329.22 599.864C328.687 600.717 327.993 601.421 327.14 601.976C326.287 602.509 325.327 602.893 324.26 603.128C323.215 603.384 322.169 603.512 321.124 603.512C319.844 603.512 318.628 603.352 317.476 603.032C316.345 602.712 315.343 602.232 314.468 601.592C313.615 600.931 312.932 600.099 312.42 599.096C311.929 598.072 311.684 596.867 311.684 595.48H314.564C314.564 596.44 314.745 597.272 315.108 597.976C315.492 598.659 315.983 599.224 316.58 599.672C317.199 600.12 317.913 600.451 318.724 600.664C319.535 600.877 320.367 600.984 321.22 600.984C321.903 600.984 322.585 600.92 323.268 600.792C323.972 600.664 324.601 600.451 325.156 600.152C325.711 599.832 326.159 599.405 326.5 598.872C326.841 598.339 327.012 597.656 327.012 596.824C327.012 596.035 326.799 595.395 326.372 594.904C325.967 594.413 325.412 594.019 324.708 593.72C324.025 593.4 323.247 593.144 322.372 592.952C321.497 592.76 320.601 592.568 319.684 592.376C318.788 592.163 317.903 591.928 317.028 591.672C316.153 591.395 315.364 591.043 314.66 590.616C313.977 590.168 313.423 589.603 312.996 588.92C312.591 588.216 312.388 587.341 312.388 586.296C312.388 585.144 312.623 584.152 313.092 583.32C313.561 582.467 314.18 581.773 314.948 581.24C315.737 580.685 316.623 580.28 317.604 580.024C318.607 579.747 319.631 579.608 320.676 579.608C321.849 579.608 322.937 579.747 323.94 580.024C324.943 580.301 325.817 580.739 326.564 581.336C327.332 581.933 327.929 582.691 328.356 583.608C328.804 584.504 329.049 585.581 329.092 586.84H326.212ZM347.954 602.936C347.485 603.213 346.834 603.352 346.002 603.352C345.298 603.352 344.733 603.16 344.306 602.776C343.901 602.371 343.698 601.72 343.698 600.824C342.951 601.72 342.077 602.371 341.074 602.776C340.093 603.16 339.026 603.352 337.874 603.352C337.127 603.352 336.413 603.267 335.73 603.096C335.069 602.925 334.493 602.659 334.002 602.296C333.511 601.933 333.117 601.464 332.818 600.888C332.541 600.291 332.402 599.576 332.402 598.744C332.402 597.805 332.562 597.037 332.882 596.44C333.202 595.843 333.618 595.363 334.13 595C334.663 594.616 335.261 594.328 335.922 594.136C336.605 593.944 337.298 593.784 338.002 593.656C338.749 593.507 339.453 593.4 340.114 593.336C340.797 593.251 341.394 593.144 341.906 593.016C342.418 592.867 342.823 592.664 343.122 592.408C343.421 592.131 343.57 591.736 343.57 591.224C343.57 590.627 343.453 590.147 343.218 589.784C343.005 589.421 342.717 589.144 342.354 588.952C342.013 588.76 341.618 588.632 341.17 588.568C340.743 588.504 340.317 588.472 339.89 588.472C338.738 588.472 337.778 588.696 337.01 589.144C336.242 589.571 335.826 590.392 335.762 591.608H333.042C333.085 590.584 333.298 589.72 333.682 589.016C334.066 588.312 334.578 587.747 335.218 587.32C335.858 586.872 336.583 586.552 337.394 586.36C338.226 586.168 339.111 586.072 340.05 586.072C340.797 586.072 341.533 586.125 342.258 586.232C343.005 586.339 343.677 586.563 344.274 586.904C344.871 587.224 345.351 587.683 345.714 588.28C346.077 588.877 346.258 589.656 346.258 590.616V599.128C346.258 599.768 346.29 600.237 346.354 600.536C346.439 600.835 346.695 600.984 347.122 600.984C347.357 600.984 347.634 600.931 347.954 600.824V602.936ZM343.538 594.456C343.197 594.712 342.749 594.904 342.194 595.032C341.639 595.139 341.053 595.235 340.434 595.32C339.837 595.384 339.229 595.469 338.61 595.576C337.991 595.661 337.437 595.811 336.946 596.024C336.455 596.237 336.05 596.547 335.73 596.952C335.431 597.336 335.282 597.869 335.282 598.552C335.282 599 335.367 599.384 335.538 599.704C335.73 600.003 335.965 600.248 336.242 600.44C336.541 600.632 336.882 600.771 337.266 600.856C337.65 600.941 338.055 600.984 338.482 600.984C339.378 600.984 340.146 600.867 340.786 600.632C341.426 600.376 341.949 600.067 342.354 599.704C342.759 599.32 343.058 598.915 343.25 598.488C343.442 598.04 343.538 597.624 343.538 597.24V594.456ZM357.942 603H355.03L348.886 586.456H351.926L356.566 600.248H356.63L361.142 586.456H363.99L357.942 603ZM377.974 593.144C377.931 592.504 377.782 591.896 377.526 591.32C377.291 590.744 376.96 590.253 376.534 589.848C376.128 589.421 375.638 589.091 375.062 588.856C374.507 588.6 373.888 588.472 373.206 588.472C372.502 588.472 371.862 588.6 371.286 588.856C370.731 589.091 370.251 589.421 369.846 589.848C369.44 590.275 369.12 590.776 368.886 591.352C368.651 591.907 368.512 592.504 368.47 593.144H377.974ZM380.597 597.752C380.235 599.608 379.435 601.005 378.198 601.944C376.96 602.883 375.403 603.352 373.526 603.352C372.203 603.352 371.051 603.139 370.07 602.712C369.11 602.285 368.299 601.688 367.638 600.92C366.976 600.152 366.475 599.235 366.134 598.168C365.814 597.101 365.632 595.939 365.59 594.68C365.59 593.421 365.782 592.269 366.166 591.224C366.55 590.179 367.083 589.272 367.766 588.504C368.47 587.736 369.291 587.139 370.23 586.712C371.19 586.285 372.235 586.072 373.366 586.072C374.838 586.072 376.054 586.381 377.014 587C377.995 587.597 378.774 588.365 379.35 589.304C379.947 590.243 380.352 591.267 380.566 592.376C380.8 593.485 380.896 594.541 380.854 595.544H368.47C368.448 596.269 368.534 596.963 368.726 597.624C368.918 598.264 369.227 598.84 369.654 599.352C370.08 599.843 370.624 600.237 371.286 600.536C371.947 600.835 372.726 600.984 373.622 600.984C374.774 600.984 375.712 600.717 376.438 600.184C377.184 599.651 377.675 598.84 377.91 597.752H380.597ZM392.995 580.152H396.227L408.259 598.68H408.323V580.152H411.203V603H407.875L395.939 584.664H395.875V603H392.995V580.152ZM417.657 594.744C417.657 595.747 417.785 596.643 418.041 597.432C418.318 598.2 418.692 598.851 419.161 599.384C419.63 599.896 420.174 600.291 420.793 600.568C421.433 600.845 422.105 600.984 422.809 600.984C423.513 600.984 424.174 600.845 424.793 600.568C425.433 600.291 425.988 599.896 426.457 599.384C426.926 598.851 427.289 598.2 427.545 597.432C427.822 596.643 427.961 595.747 427.961 594.744C427.961 593.741 427.822 592.856 427.545 592.088C427.289 591.299 426.926 590.637 426.457 590.104C425.988 589.571 425.433 589.165 424.793 588.888C424.174 588.611 423.513 588.472 422.809 588.472C422.105 588.472 421.433 588.611 420.793 588.888C420.174 589.165 419.63 589.571 419.161 590.104C418.692 590.637 418.318 591.299 418.041 592.088C417.785 592.856 417.657 593.741 417.657 594.744ZM414.777 594.744C414.777 593.528 414.948 592.397 415.289 591.352C415.63 590.285 416.142 589.368 416.825 588.6C417.508 587.811 418.35 587.192 419.353 586.744C420.356 586.296 421.508 586.072 422.809 586.072C424.132 586.072 425.284 586.296 426.265 586.744C427.268 587.192 428.11 587.811 428.793 588.6C429.476 589.368 429.988 590.285 430.329 591.352C430.67 592.397 430.841 593.528 430.841 594.744C430.841 595.96 430.67 597.091 430.329 598.136C429.988 599.181 429.476 600.099 428.793 600.888C428.11 601.656 427.268 602.264 426.265 602.712C425.284 603.139 424.132 603.352 422.809 603.352C421.508 603.352 420.356 603.139 419.353 602.712C418.35 602.264 417.508 601.656 416.825 600.888C416.142 600.099 415.63 599.181 415.289 598.136C414.948 597.091 414.777 595.96 414.777 594.744ZM450.432 603H447.552L444.192 589.848H444.128L440.8 603H437.856L432.544 586.456H435.552L439.296 599.992H439.36L442.688 586.456H445.664L449.12 599.992H449.184L452.896 586.456H455.712L450.432 603Z" fill="white"/>
<path d="M230.831 199.076H239.782C241.592 199.076 243.059 198.617 244.181 197.699C245.303 196.781 245.864 195.378 245.864 193.491C245.864 191.604 245.303 190.201 244.181 189.283C243.059 188.365 241.592 187.906 239.782 187.906H230.831V199.076ZM228.229 185.688H240.356C241.58 185.688 242.689 185.866 243.683 186.223C244.678 186.555 245.532 187.065 246.246 187.753C246.96 188.416 247.509 189.232 247.891 190.201C248.274 191.171 248.465 192.267 248.465 193.491C248.465 194.715 248.274 195.812 247.891 196.781C247.509 197.75 246.96 198.579 246.246 199.267C245.532 199.93 244.678 200.44 243.683 200.797C242.689 201.129 241.58 201.295 240.356 201.295H230.831V213H228.229V185.688ZM281.32 198.655H291.036C291.826 198.655 292.579 198.541 293.293 198.311C294.007 198.056 294.631 197.699 295.167 197.24C295.703 196.781 296.123 196.233 296.429 195.595C296.761 194.932 296.927 194.18 296.927 193.338C296.927 191.655 296.442 190.329 295.473 189.36C294.504 188.391 293.025 187.906 291.036 187.906H281.32V198.655ZM278.718 185.688H291.227C292.349 185.688 293.407 185.828 294.402 186.108C295.422 186.389 296.302 186.822 297.041 187.409C297.806 187.97 298.406 188.71 298.839 189.628C299.298 190.52 299.528 191.579 299.528 192.803C299.528 194.537 299.081 196.041 298.189 197.316C297.296 198.592 295.97 199.408 294.211 199.765V199.841C295.103 199.969 295.843 200.211 296.429 200.568C297.016 200.899 297.488 201.333 297.845 201.868C298.227 202.404 298.495 203.029 298.648 203.743C298.826 204.431 298.941 205.184 298.992 206C299.018 206.459 299.043 207.02 299.069 207.683C299.094 208.346 299.145 209.022 299.222 209.71C299.298 210.373 299.413 211.011 299.566 211.623C299.745 212.209 299.974 212.668 300.255 213H297.386C297.233 212.745 297.105 212.439 297.003 212.082C296.927 211.699 296.863 211.317 296.812 210.934C296.786 210.526 296.761 210.131 296.735 209.749C296.71 209.366 296.684 209.034 296.659 208.754C296.608 207.785 296.519 206.829 296.391 205.885C296.289 204.916 296.047 204.062 295.664 203.322C295.307 202.557 294.772 201.945 294.058 201.486C293.369 201.027 292.413 200.823 291.189 200.874H281.32V213H278.718V185.688ZM330.818 185.688H333.419V213H330.818V185.688ZM362.517 185.688H365.271L374.146 210.131H374.223L383.021 185.688H385.775L375.638 213H372.616L362.517 185.688ZM416.342 202.289H427.091L421.812 188.289L416.342 202.289ZM420.473 185.688H423.38L434.091 213H431.299L427.971 204.508H415.539L412.249 213H409.495L420.473 185.688ZM457.445 185.688H479.058V187.906H469.533V213H466.932V187.906H457.445V185.688ZM508.002 185.688H526.861V187.906H510.603V197.775H525.828V199.994H510.603V210.781H527.052V213H508.002V185.688Z" fill="#FFFEF9"/>
<path d="M290.107 460.79C289.423 457.097 288.192 454.293 286.414 452.379C284.704 450.464 282.071 449.506 278.515 449.506C276.19 449.506 274.241 449.917 272.668 450.737C271.164 451.49 269.933 452.447 268.975 453.61C268.086 454.772 267.437 456.003 267.026 457.302C266.684 458.602 266.479 459.764 266.411 460.79H290.107ZM266.411 470.022C266.616 474.741 267.813 478.16 270.001 480.28C272.189 482.4 275.335 483.46 279.438 483.46C282.379 483.46 284.909 482.742 287.029 481.306C289.149 479.801 290.449 478.229 290.927 476.587H303.75C301.698 482.947 298.552 487.495 294.312 490.23C290.072 492.966 284.943 494.334 278.925 494.334C274.754 494.334 270.993 493.684 267.642 492.385C264.291 491.017 261.453 489.102 259.128 486.64C256.803 484.178 254.99 481.238 253.691 477.818C252.46 474.399 251.845 470.638 251.845 466.535C251.845 462.568 252.494 458.875 253.794 455.456C255.093 452.037 256.939 449.096 259.333 446.634C261.726 444.104 264.564 442.121 267.847 440.685C271.198 439.248 274.891 438.53 278.925 438.53C283.439 438.53 287.371 439.419 290.722 441.197C294.073 442.907 296.808 445.232 298.928 448.173C301.117 451.113 302.69 454.464 303.647 458.226C304.605 461.987 304.946 465.919 304.673 470.022H266.411ZM339.572 493H323.365L305.208 439.966H320.493L331.674 476.177H331.879L343.06 439.966H357.524L339.572 493ZM396.148 460.79C395.464 457.097 394.233 454.293 392.455 452.379C390.746 450.464 388.113 449.506 384.557 449.506C382.231 449.506 380.282 449.917 378.71 450.737C377.205 451.49 375.974 452.447 375.017 453.61C374.128 454.772 373.478 456.003 373.068 457.302C372.726 458.602 372.521 459.764 372.452 460.79H396.148ZM372.452 470.022C372.657 474.741 373.854 478.16 376.042 480.28C378.231 482.4 381.377 483.46 385.48 483.46C388.42 483.46 390.951 482.742 393.071 481.306C395.191 479.801 396.49 478.229 396.969 476.587H409.791C407.739 482.947 404.594 487.495 400.354 490.23C396.114 492.966 390.985 494.334 384.967 494.334C380.795 494.334 377.034 493.684 373.683 492.385C370.332 491.017 367.494 489.102 365.169 486.64C362.844 484.178 361.032 481.238 359.732 477.818C358.501 474.399 357.886 470.638 357.886 466.535C357.886 462.568 358.536 458.875 359.835 455.456C361.134 452.037 362.981 449.096 365.374 446.634C367.768 444.104 370.606 442.121 373.888 440.685C377.239 439.248 380.932 438.53 384.967 438.53C389.48 438.53 393.413 439.419 396.763 441.197C400.114 442.907 402.85 445.232 404.97 448.173C407.158 451.113 408.731 454.464 409.688 458.226C410.646 461.987 410.988 465.919 410.714 470.022H372.452ZM416.276 439.966H430.124V447.352H430.432C432.278 444.275 434.672 442.052 437.613 440.685C440.553 439.248 443.562 438.53 446.639 438.53C450.538 438.53 453.717 439.077 456.179 440.172C458.71 441.197 460.693 442.668 462.129 444.583C463.565 446.429 464.557 448.72 465.104 451.455C465.719 454.122 466.027 457.097 466.027 460.38V493H451.461V463.047C451.461 458.67 450.777 455.422 449.409 453.302C448.041 451.113 445.614 450.019 442.126 450.019C438.16 450.019 435.287 451.216 433.509 453.61C431.731 455.935 430.842 459.798 430.842 465.201V493H416.276V439.966ZM492.469 439.966H503.137V449.712H492.469V475.972C492.469 478.434 492.88 480.075 493.7 480.896C494.521 481.716 496.162 482.127 498.624 482.127C499.445 482.127 500.231 482.092 500.983 482.024C501.736 481.956 502.454 481.853 503.137 481.716V493C501.907 493.205 500.539 493.342 499.034 493.41C497.53 493.479 496.059 493.513 494.623 493.513C492.367 493.513 490.212 493.342 488.161 493C486.178 492.726 484.4 492.145 482.827 491.256C481.322 490.367 480.126 489.102 479.236 487.461C478.347 485.819 477.903 483.665 477.903 480.998V449.712H469.081V439.966H477.903V424.067H492.469V439.966Z" fill="#FFFEF9"/>
<rect x="323.895" y="244.879" width="97.8726" height="1" fill="#D9D9D9"/>
</svg>
