<svg width="399" height="399" viewBox="0 0 399 399" fill="none" xmlns="http://www.w3.org/2000/svg">
<path d="M154.232 353.488H159.736C160.888 353.488 161.752 353.232 162.328 352.72C162.904 352.208 163.192 351.376 163.192 350.224C163.192 349.115 162.904 348.315 162.328 347.824C161.752 347.312 160.888 347.056 159.736 347.056H154.232V353.488ZM149.208 343.152H161.528C162.552 343.152 163.469 343.323 164.28 343.664C165.112 343.984 165.816 344.432 166.392 345.008C166.989 345.584 167.437 346.256 167.736 347.024C168.056 347.771 168.216 348.581 168.216 349.456C168.216 350.8 167.928 351.963 167.352 352.944C166.797 353.925 165.88 354.672 164.6 355.184V355.248C165.219 355.419 165.731 355.685 166.136 356.048C166.541 356.389 166.872 356.805 167.128 357.296C167.384 357.765 167.565 358.288 167.672 358.864C167.8 359.44 167.885 360.016 167.928 360.592C167.949 360.955 167.971 361.381 167.992 361.872C168.013 362.363 168.045 362.864 168.088 363.376C168.152 363.888 168.237 364.379 168.344 364.848C168.472 365.296 168.653 365.68 168.888 366H163.864C163.587 365.275 163.416 364.411 163.352 363.408C163.288 362.405 163.192 361.445 163.064 360.528C162.893 359.333 162.531 358.459 161.976 357.904C161.421 357.349 160.515 357.072 159.256 357.072H154.232V366H149.208V343.152ZM187.342 366H183.022V363.696H182.926C182.35 364.656 181.603 365.349 180.686 365.776C179.768 366.203 178.83 366.416 177.87 366.416C176.654 366.416 175.651 366.256 174.862 365.936C174.094 365.616 173.486 365.168 173.038 364.592C172.59 363.995 172.27 363.28 172.078 362.448C171.907 361.595 171.822 360.656 171.822 359.632V349.456H176.366V358.8C176.366 360.165 176.579 361.189 177.006 361.872C177.432 362.533 178.19 362.864 179.278 362.864C180.515 362.864 181.411 362.501 181.966 361.776C182.52 361.029 182.798 359.813 182.798 358.128V349.456H187.342V366ZM198.503 362.096C199.143 362.096 199.708 361.968 200.199 361.712C200.689 361.456 201.095 361.115 201.415 360.688C201.735 360.261 201.969 359.781 202.119 359.248C202.289 358.693 202.375 358.117 202.375 357.52C202.375 356.837 202.311 356.197 202.183 355.6C202.055 354.981 201.841 354.437 201.543 353.968C201.244 353.499 200.849 353.125 200.359 352.848C199.868 352.571 199.249 352.432 198.503 352.432C197.863 352.432 197.308 352.56 196.839 352.816C196.391 353.072 196.007 353.424 195.687 353.872C195.388 354.299 195.164 354.8 195.015 355.376C194.887 355.931 194.823 356.517 194.823 357.136C194.823 357.733 194.876 358.331 194.983 358.928C195.111 359.504 195.313 360.027 195.591 360.496C195.889 360.965 196.273 361.349 196.743 361.648C197.212 361.947 197.799 362.096 198.503 362.096ZM206.694 364.944C206.694 365.605 206.599 366.363 206.407 367.216C206.236 368.069 205.852 368.859 205.255 369.584C204.657 370.331 203.793 370.96 202.663 371.472C201.532 371.984 200.017 372.24 198.119 372.24C197.308 372.24 196.476 372.133 195.623 371.92C194.791 371.728 194.023 371.419 193.319 370.992C192.636 370.565 192.06 370.011 191.591 369.328C191.143 368.667 190.887 367.867 190.823 366.928H195.335C195.548 367.781 195.964 368.368 196.583 368.688C197.201 369.029 197.916 369.2 198.727 369.2C200.007 369.2 200.935 368.816 201.511 368.048C202.108 367.28 202.396 366.309 202.375 365.136V362.96H202.311C201.82 363.835 201.116 364.485 200.199 364.912C199.303 365.317 198.353 365.52 197.351 365.52C196.113 365.52 195.047 365.307 194.151 364.88C193.255 364.432 192.519 363.835 191.943 363.088C191.367 362.32 190.94 361.435 190.663 360.432C190.407 359.408 190.279 358.331 190.279 357.2C190.279 356.133 190.428 355.109 190.727 354.128C191.047 353.125 191.505 352.251 192.103 351.504C192.7 350.736 193.436 350.128 194.311 349.68C195.207 349.232 196.231 349.008 197.383 349.008C198.471 349.008 199.42 349.211 200.231 349.616C201.063 350.021 201.756 350.704 202.311 351.664H202.375V349.456H206.694V364.944ZM213.873 360.624C213.873 361.115 213.969 361.541 214.161 361.904C214.374 362.245 214.641 362.533 214.961 362.768C215.281 362.981 215.644 363.141 216.049 363.248C216.476 363.355 216.913 363.408 217.361 363.408C217.681 363.408 218.012 363.376 218.353 363.312C218.716 363.227 219.036 363.109 219.313 362.96C219.612 362.789 219.857 362.576 220.049 362.32C220.241 362.043 220.337 361.701 220.337 361.296C220.337 360.613 219.878 360.101 218.961 359.76C218.065 359.419 216.806 359.077 215.185 358.736C214.524 358.587 213.873 358.416 213.233 358.224C212.614 358.011 212.06 357.744 211.569 357.424C211.078 357.083 210.684 356.667 210.385 356.176C210.086 355.664 209.937 355.045 209.937 354.32C209.937 353.253 210.14 352.379 210.545 351.696C210.972 351.013 211.526 350.48 212.209 350.096C212.892 349.691 213.66 349.413 214.513 349.264C215.366 349.093 216.241 349.008 217.137 349.008C218.033 349.008 218.897 349.093 219.729 349.264C220.582 349.435 221.34 349.723 222.001 350.128C222.662 350.533 223.206 351.077 223.633 351.76C224.081 352.421 224.348 353.264 224.433 354.288H220.113C220.049 353.413 219.718 352.827 219.121 352.528C218.524 352.208 217.82 352.048 217.009 352.048C216.753 352.048 216.476 352.069 216.177 352.112C215.878 352.133 215.601 352.197 215.345 352.304C215.11 352.411 214.908 352.571 214.737 352.784C214.566 352.976 214.481 353.243 214.481 353.584C214.481 353.989 214.63 354.32 214.929 354.576C215.228 354.832 215.612 355.045 216.081 355.216C216.572 355.365 217.126 355.504 217.745 355.632C218.364 355.76 218.993 355.899 219.633 356.048C220.294 356.197 220.934 356.379 221.553 356.592C222.193 356.805 222.758 357.093 223.249 357.456C223.74 357.797 224.134 358.235 224.433 358.768C224.732 359.28 224.881 359.92 224.881 360.688C224.881 361.776 224.657 362.693 224.209 363.44C223.782 364.165 223.217 364.752 222.513 365.2C221.809 365.648 220.998 365.957 220.081 366.128C219.185 366.32 218.268 366.416 217.329 366.416C216.369 366.416 215.43 366.32 214.513 366.128C213.596 365.936 212.774 365.616 212.049 365.168C211.345 364.72 210.758 364.133 210.289 363.408C209.841 362.661 209.596 361.733 209.553 360.624H213.873Z" fill="#FFFEF9"/>
<path d="M242.554 363.272L240.01 361.352L245.626 355.864V356.856L240.01 351.384L242.554 349.464L249.178 356.36L242.554 363.272Z" fill="#FFFEF9"/>
</svg>
