<svg width="399" height="399" viewBox="0 0 399 399" fill="none" xmlns="http://www.w3.org/2000/svg">
<path d="M143.084 358.8C143.084 359.547 143.009 360.368 142.86 361.264C142.711 362.16 142.369 363.003 141.836 363.792C141.303 364.56 140.535 365.211 139.532 365.744C138.529 366.256 137.175 366.512 135.468 366.512C134.508 366.512 133.58 366.373 132.684 366.096C131.788 365.84 130.988 365.435 130.284 364.88C129.58 364.304 129.015 363.579 128.588 362.704C128.161 361.808 127.948 360.731 127.948 359.472V357.488H132.492V358.512C132.492 359.067 132.535 359.579 132.62 360.048C132.705 360.517 132.855 360.923 133.068 361.264C133.281 361.584 133.569 361.84 133.932 362.032C134.316 362.224 134.807 362.32 135.404 362.32C136.065 362.32 136.577 362.203 136.94 361.968C137.303 361.733 137.559 361.435 137.708 361.072C137.879 360.688 137.975 360.283 137.996 359.856C138.039 359.408 138.06 358.981 138.06 358.576V343.152H143.084V358.8ZM158.145 355.952C157.932 354.8 157.548 353.925 156.993 353.328C156.46 352.731 155.639 352.432 154.529 352.432C153.804 352.432 153.196 352.56 152.705 352.816C152.236 353.051 151.852 353.349 151.553 353.712C151.276 354.075 151.073 354.459 150.945 354.864C150.839 355.269 150.775 355.632 150.753 355.952H158.145ZM150.753 358.832C150.817 360.304 151.191 361.371 151.873 362.032C152.556 362.693 153.537 363.024 154.817 363.024C155.735 363.024 156.524 362.8 157.185 362.352C157.847 361.883 158.252 361.392 158.401 360.88H162.401C161.761 362.864 160.78 364.283 159.457 365.136C158.135 365.989 156.535 366.416 154.657 366.416C153.356 366.416 152.183 366.213 151.137 365.808C150.092 365.381 149.207 364.784 148.481 364.016C147.756 363.248 147.191 362.331 146.785 361.264C146.401 360.197 146.209 359.024 146.209 357.744C146.209 356.507 146.412 355.355 146.817 354.288C147.223 353.221 147.799 352.304 148.545 351.536C149.292 350.747 150.177 350.128 151.201 349.68C152.247 349.232 153.399 349.008 154.657 349.008C156.065 349.008 157.292 349.285 158.337 349.84C159.383 350.373 160.236 351.099 160.897 352.016C161.58 352.933 162.071 353.979 162.369 355.152C162.668 356.325 162.775 357.552 162.689 358.832H150.753ZM184.296 366H179.624L176.68 354.896H176.616L173.8 366H169.096L163.848 349.456H168.648L171.688 360.688H171.752L174.504 349.456H178.92L181.736 360.656H181.8L184.84 349.456H189.512L184.296 366ZM202.583 355.952C202.369 354.8 201.985 353.925 201.431 353.328C200.897 352.731 200.076 352.432 198.967 352.432C198.241 352.432 197.633 352.56 197.143 352.816C196.673 353.051 196.289 353.349 195.991 353.712C195.713 354.075 195.511 354.459 195.383 354.864C195.276 355.269 195.212 355.632 195.191 355.952H202.583ZM195.191 358.832C195.255 360.304 195.628 361.371 196.311 362.032C196.993 362.693 197.975 363.024 199.255 363.024C200.172 363.024 200.961 362.8 201.623 362.352C202.284 361.883 202.689 361.392 202.839 360.88H206.839C206.199 362.864 205.217 364.283 203.895 365.136C202.572 365.989 200.972 366.416 199.095 366.416C197.793 366.416 196.62 366.213 195.575 365.808C194.529 365.381 193.644 364.784 192.919 364.016C192.193 363.248 191.628 362.331 191.223 361.264C190.839 360.197 190.647 359.024 190.647 357.744C190.647 356.507 190.849 355.355 191.255 354.288C191.66 353.221 192.236 352.304 192.983 351.536C193.729 350.747 194.615 350.128 195.639 349.68C196.684 349.232 197.836 349.008 199.095 349.008C200.503 349.008 201.729 349.285 202.775 349.84C203.82 350.373 204.673 351.099 205.335 352.016C206.017 352.933 206.508 353.979 206.807 355.152C207.105 356.325 207.212 357.552 207.127 358.832H195.191ZM209.95 343.152H214.494V366H209.95V343.152ZM218.072 349.456H222.392V352.528H222.456C222.669 352.016 222.957 351.547 223.32 351.12C223.682 350.672 224.098 350.299 224.568 350C225.037 349.68 225.538 349.435 226.072 349.264C226.605 349.093 227.16 349.008 227.736 349.008C228.034 349.008 228.365 349.061 228.728 349.168V353.392C228.514 353.349 228.258 353.317 227.96 353.296C227.661 353.253 227.373 353.232 227.096 353.232C226.264 353.232 225.56 353.371 224.984 353.648C224.408 353.925 223.938 354.309 223.576 354.8C223.234 355.269 222.989 355.824 222.84 356.464C222.69 357.104 222.616 357.797 222.616 358.544V366H218.072V349.456ZM238.669 368.048C238.179 369.392 237.496 370.352 236.621 370.928C235.747 371.504 234.531 371.792 232.973 371.792C232.504 371.792 232.035 371.771 231.565 371.728C231.117 371.707 230.659 371.675 230.189 371.632V367.888C230.616 367.931 231.053 367.973 231.501 368.016C231.949 368.059 232.397 368.069 232.845 368.048C233.443 367.984 233.88 367.749 234.157 367.344C234.456 366.939 234.605 366.491 234.605 366C234.605 365.637 234.541 365.296 234.413 364.976L228.621 349.456H233.453L237.197 360.784H237.261L240.877 349.456H245.581L238.669 368.048Z" fill="#FFFEF9"/>
<path d="M262.054 363.272L259.51 361.352L265.126 355.864V356.856L259.51 351.384L262.054 349.464L268.678 356.36L262.054 363.272Z" fill="#FFFEF9"/>
</svg>
