<svg width="767" height="430" viewBox="0 0 767 430" fill="none" xmlns="http://www.w3.org/2000/svg">
<path d="M82.7595 63.87H85.5945V76.785H85.6845C86.2245 75.375 87.1845 74.25 88.5645 73.41C89.9445 72.54 91.4595 72.105 93.1095 72.105C94.7295 72.105 96.0795 72.315 97.1595 72.735C98.2695 73.155 99.1545 73.755 99.8145 74.535C100.474 75.285 100.939 76.215 101.209 77.325C101.479 78.435 101.614 79.68 101.614 81.06V96H98.7795V81.51C98.7795 80.52 98.6895 79.605 98.5095 78.765C98.3295 77.895 98.0145 77.145 97.5645 76.515C97.1145 75.885 96.4995 75.39 95.7195 75.03C94.9695 74.67 94.0245 74.49 92.8845 74.49C91.7445 74.49 90.7245 74.7 89.8245 75.12C88.9545 75.51 88.2045 76.065 87.5745 76.785C86.9745 77.475 86.4945 78.315 86.1345 79.305C85.8045 80.265 85.6245 81.315 85.5945 82.455V96H82.7595V63.87ZM116.784 74.49C115.434 74.49 114.249 74.775 113.229 75.345C112.209 75.915 111.354 76.665 110.664 77.595C110.004 78.525 109.494 79.59 109.134 80.79C108.804 81.96 108.639 83.16 108.639 84.39C108.639 85.62 108.804 86.835 109.134 88.035C109.494 89.205 110.004 90.255 110.664 91.185C111.354 92.115 112.209 92.865 113.229 93.435C114.249 94.005 115.434 94.29 116.784 94.29C118.134 94.29 119.319 94.005 120.339 93.435C121.359 92.865 122.199 92.115 122.859 91.185C123.549 90.255 124.059 89.205 124.389 88.035C124.749 86.835 124.929 85.62 124.929 84.39C124.929 83.16 124.749 81.96 124.389 80.79C124.059 79.59 123.549 78.525 122.859 77.595C122.199 76.665 121.359 75.915 120.339 75.345C119.319 74.775 118.134 74.49 116.784 74.49ZM116.784 72.105C118.554 72.105 120.114 72.435 121.464 73.095C122.844 73.755 123.999 74.64 124.929 75.75C125.859 76.86 126.564 78.165 127.044 79.665C127.524 81.135 127.764 82.71 127.764 84.39C127.764 86.07 127.524 87.66 127.044 89.16C126.564 90.63 125.859 91.92 124.929 93.03C123.999 94.14 122.844 95.025 121.464 95.685C120.114 96.315 118.554 96.63 116.784 96.63C115.014 96.63 113.439 96.315 112.059 95.685C110.709 95.025 109.569 94.14 108.639 93.03C107.709 91.92 107.004 90.63 106.524 89.16C106.044 87.66 105.804 86.07 105.804 84.39C105.804 82.71 106.044 81.135 106.524 79.665C107.004 78.165 107.709 76.86 108.639 75.75C109.569 74.64 110.709 73.755 112.059 73.095C113.439 72.435 115.014 72.105 116.784 72.105ZM132.024 63.87H134.859V96H132.024V63.87ZM140.33 63.87H143.165V68.415H140.33V63.87ZM140.33 72.78H143.165V96H140.33V72.78ZM169.021 96H166.411V91.59H166.321C166.021 92.34 165.571 93.03 164.971 93.66C164.401 94.29 163.741 94.83 162.991 95.28C162.241 95.7 161.431 96.03 160.561 96.27C159.721 96.51 158.881 96.63 158.041 96.63C156.271 96.63 154.726 96.315 153.406 95.685C152.116 95.025 151.036 94.14 150.166 93.03C149.296 91.89 148.651 90.585 148.231 89.115C147.811 87.615 147.601 86.04 147.601 84.39C147.601 82.74 147.811 81.18 148.231 79.71C148.651 78.21 149.296 76.905 150.166 75.795C151.036 74.655 152.116 73.755 153.406 73.095C154.726 72.435 156.271 72.105 158.041 72.105C158.911 72.105 159.751 72.21 160.561 72.42C161.401 72.63 162.181 72.96 162.901 73.41C163.621 73.83 164.251 74.355 164.791 74.985C165.361 75.615 165.796 76.35 166.096 77.19H166.186V63.87H169.021V96ZM150.436 84.39C150.436 85.59 150.571 86.79 150.841 87.99C151.141 89.16 151.591 90.21 152.191 91.14C152.821 92.07 153.616 92.835 154.576 93.435C155.536 94.005 156.691 94.29 158.041 94.29C159.541 94.29 160.801 94.005 161.821 93.435C162.871 92.835 163.711 92.07 164.341 91.14C165.001 90.21 165.466 89.16 165.736 87.99C166.036 86.79 166.186 85.59 166.186 84.39C166.186 83.19 166.036 82.005 165.736 80.835C165.466 79.635 165.001 78.57 164.341 77.64C163.711 76.71 162.871 75.96 161.821 75.39C160.801 74.79 159.541 74.49 158.041 74.49C156.691 74.49 155.536 74.79 154.576 75.39C153.616 75.96 152.821 76.71 152.191 77.64C151.591 78.57 151.141 79.635 150.841 80.835C150.571 82.005 150.436 83.19 150.436 84.39ZM174.16 79.89C174.25 78.54 174.535 77.37 175.015 76.38C175.495 75.39 176.14 74.58 176.95 73.95C177.79 73.32 178.765 72.855 179.875 72.555C180.985 72.255 182.215 72.105 183.565 72.105C184.585 72.105 185.605 72.21 186.625 72.42C187.645 72.6 188.56 72.96 189.37 73.5C190.18 74.04 190.84 74.805 191.35 75.795C191.86 76.755 192.115 78.015 192.115 79.575V91.905C192.115 93.045 192.67 93.615 193.78 93.615C194.11 93.615 194.41 93.555 194.68 93.435V95.82C194.35 95.88 194.05 95.925 193.78 95.955C193.54 95.985 193.225 96 192.835 96C192.115 96 191.53 95.91 191.08 95.73C190.66 95.52 190.33 95.235 190.09 94.875C189.85 94.515 189.685 94.095 189.595 93.615C189.535 93.105 189.505 92.55 189.505 91.95H189.415C188.905 92.7 188.38 93.375 187.84 93.975C187.33 94.545 186.745 95.025 186.085 95.415C185.455 95.805 184.72 96.105 183.88 96.315C183.07 96.525 182.095 96.63 180.955 96.63C179.875 96.63 178.855 96.495 177.895 96.225C176.965 95.985 176.14 95.595 175.42 95.055C174.73 94.485 174.175 93.78 173.755 92.94C173.365 92.07 173.17 91.05 173.17 89.88C173.17 88.26 173.53 87 174.25 86.1C174.97 85.17 175.915 84.465 177.085 83.985C178.285 83.505 179.62 83.175 181.09 82.995C182.59 82.785 184.105 82.59 185.635 82.41C186.235 82.35 186.76 82.275 187.21 82.185C187.66 82.095 188.035 81.945 188.335 81.735C188.635 81.495 188.86 81.18 189.01 80.79C189.19 80.4 189.28 79.89 189.28 79.26C189.28 78.3 189.115 77.52 188.785 76.92C188.485 76.29 188.05 75.795 187.48 75.435C186.94 75.075 186.295 74.835 185.545 74.715C184.825 74.565 184.045 74.49 183.205 74.49C181.405 74.49 179.935 74.925 178.795 75.795C177.655 76.635 177.055 78 176.995 79.89H174.16ZM189.28 83.31H189.19C189.01 83.64 188.665 83.88 188.155 84.03C187.645 84.18 187.195 84.285 186.805 84.345C185.605 84.555 184.36 84.75 183.07 84.93C181.81 85.08 180.655 85.32 179.605 85.65C178.555 85.98 177.685 86.46 176.995 87.09C176.335 87.69 176.005 88.56 176.005 89.7C176.005 90.42 176.14 91.065 176.41 91.635C176.71 92.175 177.1 92.655 177.58 93.075C178.06 93.465 178.615 93.765 179.245 93.975C179.875 94.185 180.52 94.29 181.18 94.29C182.26 94.29 183.295 94.125 184.285 93.795C185.275 93.465 186.13 92.985 186.85 92.355C187.6 91.725 188.185 90.96 188.605 90.06C189.055 89.16 189.28 88.14 189.28 87V83.31ZM195.155 72.78H198.17L205.82 92.58L212.975 72.78H215.81L205.73 99.51C205.31 100.5 204.92 101.31 204.56 101.94C204.2 102.6 203.795 103.11 203.345 103.47C202.925 103.86 202.415 104.13 201.815 104.28C201.245 104.46 200.51 104.55 199.61 104.55C199.04 104.52 198.59 104.49 198.26 104.46C197.96 104.46 197.69 104.415 197.45 104.325V101.94C197.78 102 198.095 102.045 198.395 102.075C198.725 102.135 199.055 102.165 199.385 102.165C200.015 102.165 200.525 102.075 200.915 101.895C201.335 101.715 201.695 101.46 201.995 101.13C202.295 100.83 202.55 100.455 202.76 100.005C202.97 99.555 203.195 99.06 203.435 98.52L204.425 95.91L195.155 72.78Z" fill="#FFFEF9"/>
<path d="M85.6726 137.94C85.6726 136.553 85.5426 135.232 85.2826 133.975C85.0226 132.675 84.5676 131.548 83.9176 130.595C83.311 129.598 82.5093 128.797 81.5126 128.19C80.516 127.583 79.2593 127.28 77.7426 127.28C76.226 127.28 74.9476 127.583 73.9076 128.19C72.8676 128.797 72.0226 129.598 71.3726 130.595C70.766 131.592 70.311 132.74 70.0076 134.04C69.7476 135.297 69.6176 136.618 69.6176 138.005C69.6176 139.305 69.7693 140.605 70.0726 141.905C70.376 143.205 70.8526 144.375 71.5026 145.415C72.196 146.412 73.041 147.235 74.0376 147.885C75.0776 148.492 76.3126 148.795 77.7426 148.795C79.2593 148.795 80.516 148.492 81.5126 147.885C82.5526 147.278 83.376 146.477 83.9826 145.48C84.5893 144.44 85.0226 143.27 85.2826 141.97C85.5426 140.67 85.6726 139.327 85.6726 137.94ZM85.8026 150.55H85.6726C84.5893 152.37 83.1593 153.692 81.3826 154.515C79.6493 155.295 77.6776 155.685 75.4676 155.685C72.9543 155.685 70.7443 155.208 68.8376 154.255C66.931 153.258 65.3493 151.937 64.0926 150.29C62.8793 148.6 61.9476 146.672 61.2976 144.505C60.691 142.338 60.3876 140.085 60.3876 137.745C60.3876 135.492 60.691 133.325 61.2976 131.245C61.9476 129.122 62.8793 127.258 64.0926 125.655C65.3493 124.052 66.9093 122.773 68.7726 121.82C70.636 120.823 72.8026 120.325 75.2726 120.325C77.266 120.325 79.151 120.758 80.9276 121.625C82.7476 122.448 84.1776 123.683 85.2176 125.33H85.3476V108.43H94.5776V154.84H85.8026V150.55ZM124.174 134.43C123.741 132.09 122.961 130.313 121.834 129.1C120.751 127.887 119.082 127.28 116.829 127.28C115.356 127.28 114.121 127.54 113.124 128.06C112.171 128.537 111.391 129.143 110.784 129.88C110.221 130.617 109.809 131.397 109.549 132.22C109.332 133.043 109.202 133.78 109.159 134.43H124.174ZM109.159 140.28C109.289 143.27 110.047 145.437 111.434 146.78C112.821 148.123 114.814 148.795 117.414 148.795C119.277 148.795 120.881 148.34 122.224 147.43C123.567 146.477 124.391 145.48 124.694 144.44H132.819C131.519 148.47 129.526 151.352 126.839 153.085C124.152 154.818 120.902 155.685 117.089 155.685C114.446 155.685 112.062 155.273 109.939 154.45C107.816 153.583 106.017 152.37 104.544 150.81C103.071 149.25 101.922 147.387 101.099 145.22C100.319 143.053 99.9289 140.67 99.9289 138.07C99.9289 135.557 100.341 133.217 101.164 131.05C101.987 128.883 103.157 127.02 104.674 125.46C106.191 123.857 107.989 122.6 110.069 121.69C112.192 120.78 114.532 120.325 117.089 120.325C119.949 120.325 122.441 120.888 124.564 122.015C126.687 123.098 128.421 124.572 129.764 126.435C131.151 128.298 132.147 130.422 132.754 132.805C133.361 135.188 133.577 137.68 133.404 140.28H109.159ZM161.758 133.065C161.151 129.208 158.876 127.28 154.933 127.28C153.46 127.28 152.225 127.627 151.228 128.32C150.231 128.97 149.408 129.837 148.758 130.92C148.151 131.96 147.718 133.13 147.458 134.43C147.198 135.687 147.068 136.943 147.068 138.2C147.068 139.413 147.198 140.648 147.458 141.905C147.718 143.162 148.13 144.31 148.693 145.35C149.3 146.347 150.101 147.17 151.098 147.82C152.095 148.47 153.308 148.795 154.738 148.795C156.948 148.795 158.638 148.188 159.808 146.975C161.021 145.718 161.78 144.05 162.083 141.97H170.988C170.381 146.433 168.648 149.835 165.788 152.175C162.928 154.515 159.266 155.685 154.803 155.685C152.29 155.685 149.971 155.273 147.848 154.45C145.768 153.583 143.991 152.392 142.518 150.875C141.045 149.358 139.896 147.56 139.073 145.48C138.25 143.357 137.838 141.038 137.838 138.525C137.838 135.925 138.206 133.52 138.943 131.31C139.723 129.057 140.85 127.128 142.323 125.525C143.796 123.878 145.595 122.6 147.718 121.69C149.841 120.78 152.268 120.325 154.998 120.325C156.991 120.325 158.898 120.585 160.718 121.105C162.581 121.625 164.228 122.427 165.658 123.51C167.131 124.55 168.323 125.872 169.233 127.475C170.143 129.035 170.663 130.898 170.793 133.065H161.758ZM184.392 138.07C184.392 139.413 184.522 140.735 184.782 142.035C185.042 143.292 185.476 144.44 186.082 145.48C186.732 146.477 187.577 147.278 188.617 147.885C189.657 148.492 190.957 148.795 192.517 148.795C194.077 148.795 195.377 148.492 196.417 147.885C197.501 147.278 198.346 146.477 198.952 145.48C199.602 144.44 200.057 143.292 200.317 142.035C200.577 140.735 200.707 139.413 200.707 138.07C200.707 136.727 200.577 135.405 200.317 134.105C200.057 132.805 199.602 131.657 198.952 130.66C198.346 129.663 197.501 128.862 196.417 128.255C195.377 127.605 194.077 127.28 192.517 127.28C190.957 127.28 189.657 127.605 188.617 128.255C187.577 128.862 186.732 129.663 186.082 130.66C185.476 131.657 185.042 132.805 184.782 134.105C184.522 135.405 184.392 136.727 184.392 138.07ZM175.162 138.07C175.162 135.383 175.574 132.957 176.397 130.79C177.221 128.58 178.391 126.717 179.907 125.2C181.424 123.64 183.244 122.448 185.367 121.625C187.491 120.758 189.874 120.325 192.517 120.325C195.161 120.325 197.544 120.758 199.667 121.625C201.834 122.448 203.676 123.64 205.192 125.2C206.709 126.717 207.879 128.58 208.702 130.79C209.526 132.957 209.937 135.383 209.937 138.07C209.937 140.757 209.526 143.183 208.702 145.35C207.879 147.517 206.709 149.38 205.192 150.94C203.676 152.457 201.834 153.627 199.667 154.45C197.544 155.273 195.161 155.685 192.517 155.685C189.874 155.685 187.491 155.273 185.367 154.45C183.244 153.627 181.424 152.457 179.907 150.94C178.391 149.38 177.221 147.517 176.397 145.35C175.574 143.183 175.162 140.757 175.162 138.07ZM215.939 121.235H224.714V127.475H224.844C225.277 126.435 225.862 125.482 226.599 124.615C227.335 123.705 228.18 122.947 229.134 122.34C230.087 121.69 231.105 121.192 232.189 120.845C233.272 120.498 234.399 120.325 235.569 120.325C236.175 120.325 236.847 120.433 237.584 120.65V129.23C237.15 129.143 236.63 129.078 236.024 129.035C235.417 128.948 234.832 128.905 234.269 128.905C232.579 128.905 231.149 129.187 229.979 129.75C228.809 130.313 227.855 131.093 227.119 132.09C226.425 133.043 225.927 134.17 225.624 135.47C225.32 136.77 225.169 138.178 225.169 139.695V154.84H215.939V121.235Z" fill="#FFFEF9"/>
<path d="M85.9824 354.86C85.833 353.423 85.3104 352.387 84.4144 351.752C83.537 351.099 82.4077 350.772 81.0264 350.772C80.4664 350.772 79.9157 350.828 79.3744 350.94C78.833 351.052 78.3477 351.239 77.9184 351.5C77.5077 351.761 77.1717 352.116 76.9104 352.564C76.6677 352.993 76.5464 353.535 76.5464 354.188C76.5464 354.804 76.7237 355.308 77.0784 355.7C77.4517 356.073 77.937 356.381 78.5344 356.624C79.1504 356.867 79.841 357.072 80.6064 357.24C81.3717 357.389 82.1464 357.557 82.9304 357.744C83.733 357.931 84.517 358.155 85.2824 358.416C86.0477 358.659 86.729 358.995 87.3264 359.424C87.9424 359.853 88.4277 360.395 88.7824 361.048C89.1557 361.701 89.3424 362.523 89.3424 363.512C89.3424 364.576 89.0997 365.491 88.6144 366.256C88.1477 367.003 87.541 367.619 86.7944 368.104C86.0477 368.571 85.2077 368.907 84.2744 369.112C83.3597 369.336 82.445 369.448 81.5304 369.448C80.4104 369.448 79.3464 369.308 78.3384 369.028C77.349 368.748 76.4717 368.328 75.7064 367.768C74.9597 367.189 74.3624 366.461 73.9144 365.584C73.485 364.688 73.2704 363.633 73.2704 362.42H75.7904C75.7904 363.26 75.949 363.988 76.2664 364.604C76.6024 365.201 77.0317 365.696 77.5544 366.088C78.0957 366.48 78.721 366.769 79.4304 366.956C80.1397 367.143 80.8677 367.236 81.6144 367.236C82.2117 367.236 82.809 367.18 83.4064 367.068C84.0224 366.956 84.573 366.769 85.0584 366.508C85.5437 366.228 85.9357 365.855 86.2344 365.388C86.533 364.921 86.6824 364.324 86.6824 363.596C86.6824 362.905 86.4957 362.345 86.1224 361.916C85.7677 361.487 85.2824 361.141 84.6664 360.88C84.069 360.6 83.3877 360.376 82.6224 360.208C81.857 360.04 81.073 359.872 80.2704 359.704C79.4864 359.517 78.7117 359.312 77.9464 359.088C77.181 358.845 76.4904 358.537 75.8744 358.164C75.277 357.772 74.7917 357.277 74.4184 356.68C74.0637 356.064 73.8864 355.299 73.8864 354.384C73.8864 353.376 74.0917 352.508 74.5024 351.78C74.913 351.033 75.4544 350.427 76.1264 349.96C76.817 349.475 77.5917 349.12 78.4504 348.896C79.3277 348.653 80.2237 348.532 81.1384 348.532C82.165 348.532 83.117 348.653 83.9944 348.896C84.8717 349.139 85.637 349.521 86.2904 350.044C86.9624 350.567 87.485 351.229 87.8584 352.032C88.2504 352.816 88.465 353.759 88.5024 354.86H85.9824ZM105.007 368.944C104.596 369.187 104.027 369.308 103.299 369.308C102.683 369.308 102.188 369.14 101.815 368.804C101.46 368.449 101.283 367.88 101.283 367.096C100.629 367.88 99.864 368.449 98.9866 368.804C98.128 369.14 97.1946 369.308 96.1866 369.308C95.5333 369.308 94.908 369.233 94.3106 369.084C93.732 368.935 93.228 368.701 92.7986 368.384C92.3693 368.067 92.024 367.656 91.7626 367.152C91.52 366.629 91.3986 366.004 91.3986 365.276C91.3986 364.455 91.5386 363.783 91.8186 363.26C92.0986 362.737 92.4626 362.317 92.9106 362C93.3773 361.664 93.9 361.412 94.4786 361.244C95.076 361.076 95.6826 360.936 96.2986 360.824C96.952 360.693 97.568 360.6 98.1466 360.544C98.744 360.469 99.2666 360.376 99.7146 360.264C100.163 360.133 100.517 359.956 100.779 359.732C101.04 359.489 101.171 359.144 101.171 358.696C101.171 358.173 101.068 357.753 100.863 357.436C100.676 357.119 100.424 356.876 100.107 356.708C99.808 356.54 99.4626 356.428 99.0706 356.372C98.6973 356.316 98.324 356.288 97.9506 356.288C96.9426 356.288 96.1026 356.484 95.4306 356.876C94.7586 357.249 94.3946 357.968 94.3386 359.032H91.9586C91.996 358.136 92.1826 357.38 92.5186 356.764C92.8546 356.148 93.3026 355.653 93.8626 355.28C94.4226 354.888 95.0573 354.608 95.7666 354.44C96.4946 354.272 97.2693 354.188 98.0906 354.188C98.744 354.188 99.388 354.235 100.023 354.328C100.676 354.421 101.264 354.617 101.787 354.916C102.309 355.196 102.729 355.597 103.047 356.12C103.364 356.643 103.523 357.324 103.523 358.164V365.612C103.523 366.172 103.551 366.583 103.607 366.844C103.681 367.105 103.905 367.236 104.279 367.236C104.484 367.236 104.727 367.189 105.007 367.096V368.944ZM101.143 361.524C100.844 361.748 100.452 361.916 99.9666 362.028C99.4813 362.121 98.968 362.205 98.4266 362.28C97.904 362.336 97.372 362.411 96.8306 362.504C96.2893 362.579 95.804 362.709 95.3746 362.896C94.9453 363.083 94.5906 363.353 94.3106 363.708C94.0493 364.044 93.9186 364.511 93.9186 365.108C93.9186 365.5 93.9933 365.836 94.1426 366.116C94.3106 366.377 94.516 366.592 94.7586 366.76C95.02 366.928 95.3186 367.049 95.6546 367.124C95.9906 367.199 96.3453 367.236 96.7186 367.236C97.5026 367.236 98.1746 367.133 98.7346 366.928C99.2946 366.704 99.752 366.433 100.107 366.116C100.461 365.78 100.723 365.425 100.891 365.052C101.059 364.66 101.143 364.296 101.143 363.96V361.524ZM113.746 369H111.198L105.822 354.524H108.482L112.542 366.592H112.598L116.546 354.524H119.038L113.746 369ZM131.274 360.376C131.236 359.816 131.106 359.284 130.882 358.78C130.676 358.276 130.387 357.847 130.014 357.492C129.659 357.119 129.23 356.829 128.726 356.624C128.24 356.4 127.699 356.288 127.102 356.288C126.486 356.288 125.926 356.4 125.422 356.624C124.936 356.829 124.516 357.119 124.162 357.492C123.807 357.865 123.527 358.304 123.322 358.808C123.116 359.293 122.995 359.816 122.958 360.376H131.274ZM133.57 364.408C133.252 366.032 132.552 367.255 131.47 368.076C130.387 368.897 129.024 369.308 127.382 369.308C126.224 369.308 125.216 369.121 124.358 368.748C123.518 368.375 122.808 367.852 122.23 367.18C121.651 366.508 121.212 365.705 120.914 364.772C120.634 363.839 120.475 362.821 120.438 361.72C120.438 360.619 120.606 359.611 120.942 358.696C121.278 357.781 121.744 356.988 122.342 356.316C122.958 355.644 123.676 355.121 124.498 354.748C125.338 354.375 126.252 354.188 127.242 354.188C128.53 354.188 129.594 354.459 130.434 355C131.292 355.523 131.974 356.195 132.478 357.016C133 357.837 133.355 358.733 133.542 359.704C133.747 360.675 133.831 361.599 133.794 362.476H122.958C122.939 363.111 123.014 363.717 123.182 364.296C123.35 364.856 123.62 365.36 123.994 365.808C124.367 366.237 124.843 366.583 125.422 366.844C126 367.105 126.682 367.236 127.466 367.236C128.474 367.236 129.295 367.003 129.93 366.536C130.583 366.069 131.012 365.36 131.218 364.408H133.57ZM144.418 349.008H147.246L157.774 365.22H157.83V349.008H160.35V369H157.438L146.994 352.956H146.938V369H144.418V349.008ZM165.997 361.776C165.997 362.653 166.109 363.437 166.333 364.128C166.575 364.8 166.902 365.369 167.313 365.836C167.723 366.284 168.199 366.629 168.741 366.872C169.301 367.115 169.889 367.236 170.505 367.236C171.121 367.236 171.699 367.115 172.241 366.872C172.801 366.629 173.286 366.284 173.697 365.836C174.107 365.369 174.425 364.8 174.649 364.128C174.891 363.437 175.013 362.653 175.013 361.776C175.013 360.899 174.891 360.124 174.649 359.452C174.425 358.761 174.107 358.183 173.697 357.716C173.286 357.249 172.801 356.895 172.241 356.652C171.699 356.409 171.121 356.288 170.505 356.288C169.889 356.288 169.301 356.409 168.741 356.652C168.199 356.895 167.723 357.249 167.313 357.716C166.902 358.183 166.575 358.761 166.333 359.452C166.109 360.124 165.997 360.899 165.997 361.776ZM163.477 361.776C163.477 360.712 163.626 359.723 163.925 358.808C164.223 357.875 164.671 357.072 165.269 356.4C165.866 355.709 166.603 355.168 167.481 354.776C168.358 354.384 169.366 354.188 170.505 354.188C171.662 354.188 172.67 354.384 173.529 354.776C174.406 355.168 175.143 355.709 175.741 356.4C176.338 357.072 176.786 357.875 177.085 358.808C177.383 359.723 177.533 360.712 177.533 361.776C177.533 362.84 177.383 363.829 177.085 364.744C176.786 365.659 176.338 366.461 175.741 367.152C175.143 367.824 174.406 368.356 173.529 368.748C172.67 369.121 171.662 369.308 170.505 369.308C169.366 369.308 168.358 369.121 167.481 368.748C166.603 368.356 165.866 367.824 165.269 367.152C164.671 366.461 164.223 365.659 163.925 364.744C163.626 363.829 163.477 362.84 163.477 361.776ZM194.675 369H192.155L189.215 357.492H189.159L186.247 369H183.671L179.023 354.524H181.655L184.931 366.368H184.987L187.899 354.524H190.503L193.527 366.368H193.583L196.831 354.524H199.295L194.675 369Z" fill="#FFFEF9"/>
<path d="M215.76 368.384L213.888 367.184L219.952 361.072V361.968L213.888 355.856L215.76 354.656L222.32 361.52L215.76 368.384Z" fill="#FFFEF9"/>
<path d="M126.195 200H123.09V198.344H123.021C122.607 199.034 122.07 199.532 121.411 199.839C120.752 200.146 120.077 200.299 119.387 200.299C118.513 200.299 117.792 200.184 117.225 199.954C116.673 199.724 116.236 199.402 115.914 198.988C115.592 198.559 115.362 198.045 115.224 197.447C115.101 196.834 115.04 196.159 115.04 195.423V188.109H118.306V194.825C118.306 195.806 118.459 196.542 118.766 197.033C119.073 197.508 119.617 197.746 120.399 197.746C121.288 197.746 121.932 197.485 122.331 196.964C122.73 196.427 122.929 195.553 122.929 194.342V188.109H126.195V200ZM128.674 188.109H131.779V189.765H131.848C132.262 189.075 132.799 188.577 133.458 188.27C134.117 187.948 134.792 187.787 135.482 187.787C136.356 187.787 137.069 187.91 137.621 188.155C138.188 188.385 138.633 188.715 138.955 189.144C139.277 189.558 139.499 190.072 139.622 190.685C139.76 191.283 139.829 191.95 139.829 192.686V200H136.563V193.284C136.563 192.303 136.41 191.574 136.103 191.099C135.796 190.608 135.252 190.363 134.47 190.363C133.581 190.363 132.937 190.631 132.538 191.168C132.139 191.689 131.94 192.556 131.94 193.767V200H128.674V188.109ZM150.749 194.02C150.749 193.529 150.703 193.062 150.611 192.617C150.519 192.157 150.358 191.758 150.128 191.421C149.913 191.068 149.629 190.785 149.277 190.57C148.924 190.355 148.479 190.248 147.943 190.248C147.406 190.248 146.954 190.355 146.586 190.57C146.218 190.785 145.919 191.068 145.689 191.421C145.474 191.774 145.313 192.18 145.206 192.64C145.114 193.085 145.068 193.552 145.068 194.043C145.068 194.503 145.121 194.963 145.229 195.423C145.336 195.883 145.505 196.297 145.735 196.665C145.98 197.018 146.279 197.309 146.632 197.539C147 197.754 147.437 197.861 147.943 197.861C148.479 197.861 148.924 197.754 149.277 197.539C149.645 197.324 149.936 197.041 150.151 196.688C150.365 196.32 150.519 195.906 150.611 195.446C150.703 194.986 150.749 194.511 150.749 194.02ZM150.795 198.482H150.749C150.365 199.126 149.859 199.594 149.231 199.885C148.617 200.161 147.92 200.299 147.138 200.299C146.248 200.299 145.466 200.13 144.792 199.793C144.117 199.44 143.557 198.973 143.113 198.39C142.683 197.792 142.354 197.11 142.124 196.343C141.909 195.576 141.802 194.779 141.802 193.951C141.802 193.154 141.909 192.387 142.124 191.651C142.354 190.9 142.683 190.24 143.113 189.673C143.557 189.106 144.109 188.653 144.769 188.316C145.428 187.963 146.195 187.787 147.069 187.787C147.774 187.787 148.441 187.94 149.07 188.247C149.714 188.538 150.22 188.975 150.588 189.558H150.634V183.578H153.9V200H150.795V198.482ZM164.372 192.778C164.219 191.95 163.943 191.321 163.544 190.892C163.161 190.463 162.571 190.248 161.773 190.248C161.252 190.248 160.815 190.34 160.462 190.524C160.125 190.693 159.849 190.907 159.634 191.168C159.435 191.429 159.289 191.705 159.197 191.996C159.121 192.287 159.075 192.548 159.059 192.778H164.372ZM159.059 194.848C159.105 195.906 159.374 196.673 159.864 197.148C160.355 197.623 161.06 197.861 161.98 197.861C162.64 197.861 163.207 197.7 163.682 197.378C164.158 197.041 164.449 196.688 164.556 196.32H167.431C166.971 197.746 166.266 198.766 165.315 199.379C164.365 199.992 163.215 200.299 161.865 200.299C160.93 200.299 160.087 200.153 159.335 199.862C158.584 199.555 157.948 199.126 157.426 198.574C156.905 198.022 156.499 197.363 156.207 196.596C155.931 195.829 155.793 194.986 155.793 194.066C155.793 193.177 155.939 192.349 156.23 191.582C156.522 190.815 156.936 190.156 157.472 189.604C158.009 189.037 158.645 188.592 159.381 188.27C160.133 187.948 160.961 187.787 161.865 187.787C162.877 187.787 163.759 187.986 164.51 188.385C165.262 188.768 165.875 189.29 166.35 189.949C166.841 190.608 167.194 191.36 167.408 192.203C167.623 193.046 167.7 193.928 167.638 194.848H159.059ZM169.575 188.109H172.68V190.317H172.726C172.88 189.949 173.087 189.612 173.347 189.305C173.608 188.983 173.907 188.715 174.244 188.5C174.582 188.27 174.942 188.094 175.325 187.971C175.709 187.848 176.107 187.787 176.521 187.787C176.736 187.787 176.974 187.825 177.234 187.902V190.938C177.081 190.907 176.897 190.884 176.682 190.869C176.468 190.838 176.261 190.823 176.061 190.823C175.463 190.823 174.957 190.923 174.543 191.122C174.129 191.321 173.792 191.597 173.531 191.95C173.286 192.287 173.11 192.686 173.002 193.146C172.895 193.606 172.841 194.104 172.841 194.641V200H169.575V188.109Z" fill="#FFFEF9"/>
<path d="M48.7517 241.117C48.715 243.206 49.2648 244.855 50.401 246.065C51.5372 247.274 52.9482 248.044 54.6342 248.374V236.884C54.4509 236.81 54.1944 236.737 53.8645 236.664C53.5713 236.554 53.2414 236.462 52.8749 236.389C51.5188 236.022 50.1811 235.601 48.8616 235.124C47.5422 234.611 46.351 233.952 45.2882 233.145C44.2619 232.302 43.4373 231.276 42.8142 230.067C42.1912 228.82 41.8796 227.281 41.8796 225.448C41.8796 223.579 42.2278 221.93 42.9242 220.501C43.6572 219.071 44.6101 217.88 45.783 216.927C46.9558 215.938 48.3119 215.186 49.8512 214.673C51.3906 214.123 52.9849 213.793 54.6342 213.684V209.45H57.8778V213.684C59.5271 213.867 61.0664 214.233 62.4958 214.783C63.9619 215.296 65.2446 216.029 66.3442 216.982C67.4437 217.898 68.3417 219.053 69.038 220.446C69.7344 221.838 70.1376 223.488 70.2475 225.394H62.4408C62.4042 223.927 61.9461 222.681 61.0664 221.655C60.1868 220.629 59.1239 220.116 57.8778 220.116V229.847C58.3176 229.957 58.7574 230.067 59.1972 230.176C59.6737 230.286 60.1685 230.415 60.6816 230.561C63.3938 231.294 65.4829 232.211 66.9489 233.31C68.415 234.373 69.4962 235.491 70.1925 236.664C70.8889 237.837 71.2921 239.009 71.402 240.182C71.5486 241.355 71.6219 242.4 71.6219 243.316C71.6219 244.122 71.4203 245.148 71.0172 246.395C70.614 247.604 69.881 248.795 68.8181 249.968C67.7919 251.141 66.3992 252.185 64.6399 253.102C62.8807 254.018 60.6266 254.568 57.8778 254.751V259.424H54.6342V254.751C50.5293 254.458 47.3223 253.193 45.0133 250.958C42.7043 248.722 41.3665 245.442 41 241.117H48.7517ZM57.8778 248.374C58.5375 248.3 59.2156 248.154 59.9119 247.934C60.6449 247.677 61.2863 247.329 61.8361 246.889C62.4225 246.45 62.899 245.918 63.2655 245.295C63.632 244.635 63.8153 243.866 63.8153 242.986C63.8153 241.557 63.3571 240.494 62.4408 239.797C61.5612 239.064 60.0402 238.405 57.8778 237.818V248.374ZM54.6342 220.116C54.0111 220.116 53.4064 220.207 52.82 220.391C52.2335 220.574 51.7021 220.867 51.2256 221.27C50.7492 221.637 50.3643 222.113 50.0711 222.7C49.8146 223.249 49.6863 223.909 49.6863 224.679C49.6863 225.888 50.0711 226.823 50.8408 227.483C51.6105 228.142 52.8749 228.674 54.6342 229.077V220.116Z" fill="#FFFEF9"/>
<path d="M119.327 235.534H118.91L93.783 269.268H119.327V235.534ZM119.327 285.511H78.2348V267.464L120.437 210.824H138.068V269.268H150.978V285.511H138.068V308H119.327V285.511ZM190.635 261.217C193.319 261.217 195.633 260.754 197.576 259.828C199.52 258.81 201.139 257.468 202.435 255.802C203.731 254.137 204.702 252.239 205.35 250.111C205.998 247.89 206.322 245.576 206.322 243.17C206.322 240.948 205.952 238.773 205.211 236.645C204.564 234.424 203.546 232.48 202.157 230.814C200.862 229.056 199.242 227.668 197.299 226.65C195.355 225.632 193.134 225.123 190.635 225.123C188.321 225.123 186.239 225.632 184.388 226.65C182.537 227.668 180.964 229.01 179.668 230.675C178.372 232.341 177.401 234.239 176.753 236.367C176.105 238.496 175.781 240.671 175.781 242.892C175.781 245.206 176.059 247.473 176.614 249.694C177.262 251.823 178.187 253.766 179.39 255.525C180.593 257.191 182.121 258.579 183.972 259.69C185.915 260.708 188.136 261.217 190.635 261.217ZM176.475 283.012C177.123 286.251 178.604 289.074 180.917 291.48C183.231 293.886 186.1 295.089 189.524 295.089C193.134 295.089 196.095 294.071 198.409 292.035C200.723 289.907 202.574 287.362 203.962 284.4C205.35 281.346 206.322 278.107 206.877 274.682C207.525 271.258 207.942 268.204 208.127 265.52L207.849 265.242C205.165 269.129 202.019 271.906 198.409 273.572C194.8 275.238 190.635 276.071 185.915 276.071C181.75 276.071 177.678 275.191 173.699 273.433C169.719 271.582 166.341 269.129 163.564 266.075C160.973 263.114 159.076 259.736 157.873 255.941C156.67 252.147 156.068 248.306 156.068 244.419C156.068 239.421 156.855 234.794 158.428 230.537C160.094 226.187 162.408 222.439 165.369 219.292C168.423 216.053 172.033 213.508 176.197 211.657C180.362 209.806 184.99 208.88 190.08 208.88C197.484 208.88 203.546 210.361 208.266 213.323C213.078 216.192 216.919 220.032 219.788 224.845C222.657 229.565 224.647 234.933 225.757 240.948C226.868 246.964 227.423 253.026 227.423 259.134C227.423 265.15 226.729 271.166 225.341 277.181C223.953 283.197 221.731 288.657 218.677 293.562C215.623 298.375 211.69 302.308 206.877 305.362C202.065 308.324 196.188 309.805 189.247 309.805C185.082 309.805 181.195 309.203 177.586 308C173.976 306.889 170.783 305.177 168.007 302.864C165.23 300.55 162.963 297.727 161.204 294.395C159.446 291.064 158.289 287.269 157.734 283.012H176.475Z" fill="#FFFEF9"/>
</svg>
