<svg fill="none" height="350" viewBox="0 0 767 350" width="767" xmlns="http://www.w3.org/2000/svg" xmlns:xlink="http://www.w3.org/1999/xlink"><clipPath id="a"><path d="m0 0h767v350h-767z"/></clipPath><g clip-path="url(#a)"><path d="m184 242c0-2.209 1.791-4 4-4h220c2.209 0 4 1.791 4 4v62c0 2.209-1.791 4-4 4h-220c-2.209 0-4-1.791-4-4z" fill="#bd0000"/><path d="m218.496 262.152h3.04v20.288h12.096v2.56h-15.136zm28.821 12.992c-.042-.64-.192-1.248-.448-1.824-.234-.576-.565-1.067-.992-1.472-.405-.427-.896-.757-1.472-.992-.554-.256-1.173-.384-1.856-.384-.704 0-1.344.128-1.92.384-.554.235-1.034.565-1.44.992-.405.427-.725.928-.96 1.504-.234.555-.373 1.152-.416 1.792zm2.624 4.608c-.362 1.856-1.162 3.253-2.4 4.192-1.237.939-2.794 1.408-4.672 1.408-1.322 0-2.474-.213-3.456-.64-.96-.427-1.77-1.024-2.432-1.792-.661-.768-1.162-1.685-1.504-2.752-.32-1.067-.501-2.229-.544-3.488 0-1.259.192-2.411.576-3.456s.918-1.952 1.6-2.72c.704-.768 1.526-1.365 2.464-1.792.96-.427 2.006-.64 3.136-.64 1.472 0 2.688.309 3.648.928.982.597 1.76 1.365 2.336 2.304.598.939 1.003 1.963 1.216 3.072.235 1.109.331 2.165.288 3.168h-12.384c-.021.725.064 1.419.256 2.08.192.64.502 1.216.928 1.728.427.491.971.885 1.632 1.184.662.299 1.44.448 2.336.448 1.152 0 2.091-.267 2.816-.8.747-.533 1.238-1.344 1.472-2.432zm17.732 5.184c-.47.277-1.12.416-1.952.416-.704 0-1.27-.192-1.696-.576-.406-.405-.608-1.056-.608-1.952-.747.896-1.622 1.547-2.624 1.952-.982.384-2.048.576-3.2.576-.747 0-1.462-.085-2.144-.256-.662-.171-1.238-.437-1.728-.8-.491-.363-.886-.832-1.184-1.408-.278-.597-.416-1.312-.416-2.144 0-.939.16-1.707.48-2.304s.736-1.077 1.248-1.44c.533-.384 1.13-.672 1.792-.864.682-.192 1.376-.352 2.08-.48.746-.149 1.45-.256 2.112-.32.682-.085 1.28-.192 1.792-.32.512-.149.917-.352 1.216-.608.298-.277.448-.672.448-1.184 0-.597-.118-1.077-.352-1.44-.214-.363-.502-.64-.864-.832-.342-.192-.736-.32-1.184-.384-.427-.064-.854-.096-1.28-.096-1.152 0-2.112.224-2.88.672-.768.427-1.184 1.248-1.248 2.464h-2.72c.042-1.024.256-1.888.64-2.592s.896-1.269 1.536-1.696c.64-.448 1.365-.768 2.176-.96.832-.192 1.717-.288 2.656-.288.746 0 1.482.053 2.208.16.746.107 1.418.331 2.016.672.597.32 1.077.779 1.44 1.376.362.597.544 1.376.544 2.336v8.512c0 .64.032 1.109.096 1.408.085.299.341.448.768.448.234 0 .512-.053.832-.16zm-4.416-8.48c-.342.256-.79.448-1.344.576-.555.107-1.142.203-1.76.288-.598.064-1.206.149-1.824.256-.619.085-1.174.235-1.664.448-.491.213-.896.523-1.216.928-.299.384-.448.917-.448 1.6 0 .448.085.832.256 1.152.192.299.426.544.704.736.298.192.64.331 1.024.416s.789.128 1.216.128c.896 0 1.664-.117 2.304-.352.64-.256 1.162-.565 1.568-.928.405-.384.704-.789.896-1.216.192-.448.288-.864.288-1.248zm6.851-8h2.56v3.488h.064c.662-1.344 1.472-2.336 2.432-2.976s2.176-.939 3.648-.896v2.88c-1.088 0-2.016.149-2.784.448s-1.386.736-1.856 1.312c-.469.576-.81 1.28-1.024 2.112-.213.811-.32 1.749-.32 2.816v7.36h-2.72zm11.315 0h2.56v2.624h.064c1.131-2.005 2.923-3.008 5.376-3.008 1.088 0 1.995.149 2.72.448s1.312.715 1.76 1.248.757 1.173.928 1.92c.192.725.288 1.536.288 2.432v10.88h-2.72v-11.2c0-1.024-.299-1.835-.896-2.432s-1.419-.896-2.464-.896c-.832 0-1.557.128-2.176.384-.597.256-1.099.619-1.504 1.088s-.715 1.024-.928 1.664c-.192.619-.288 1.301-.288 2.048v9.344h-2.72zm27.2-6.304h4.16l7.2 19.2 7.232-19.2h4.16v22.848h-2.88v-19.008h-.064l-7.136 19.008h-2.592l-7.136-19.008h-.064v19.008h-2.88zm29.347 14.592c0 1.003.128 1.899.384 2.688.277.768.65 1.419 1.12 1.952.469.512 1.013.907 1.632 1.184.64.277 1.312.416 2.016.416s1.365-.139 1.984-.416c.64-.277 1.194-.672 1.664-1.184.469-.533.832-1.184 1.088-1.952.277-.789.416-1.685.416-2.688s-.139-1.888-.416-2.656c-.256-.789-.619-1.451-1.088-1.984-.47-.533-1.024-.939-1.664-1.216-.619-.277-1.28-.416-1.984-.416s-1.376.139-2.016.416c-.619.277-1.163.683-1.632 1.216-.47.533-.843 1.195-1.12 1.984-.256.768-.384 1.653-.384 2.656zm-2.88 0c0-1.216.17-2.347.512-3.392.341-1.067.853-1.984 1.536-2.752.682-.789 1.525-1.408 2.528-1.856 1.002-.448 2.154-.672 3.456-.672 1.322 0 2.474.224 3.456.672 1.002.448 1.845 1.067 2.528 1.856.682.768 1.194 1.685 1.536 2.752.341 1.045.512 2.176.512 3.392s-.171 2.347-.512 3.392c-.342 1.045-.854 1.963-1.536 2.752-.683.768-1.526 1.376-2.528 1.824-.982.427-2.134.64-3.456.64-1.302 0-2.454-.213-3.456-.64-1.003-.448-1.846-1.056-2.528-1.824-.683-.789-1.195-1.707-1.536-2.752-.342-1.045-.512-2.176-.512-3.392zm19.175-8.288h2.56v3.488h.064c.661-1.344 1.472-2.336 2.432-2.976s2.176-.939 3.648-.896v2.88c-1.088 0-2.016.149-2.784.448s-1.387.736-1.856 1.312c-.47.576-.811 1.28-1.024 2.112-.214.811-.32 1.749-.32 2.816v7.36h-2.72zm21.677 6.688c-.042-.64-.192-1.248-.448-1.824-.234-.576-.565-1.067-.992-1.472-.405-.427-.896-.757-1.472-.992-.554-.256-1.173-.384-1.856-.384-.704 0-1.344.128-1.92.384-.554.235-1.034.565-1.44.992-.405.427-.725.928-.96 1.504-.234.555-.373 1.152-.416 1.792zm2.624 4.608c-.362 1.856-1.162 3.253-2.4 4.192-1.237.939-2.794 1.408-4.672 1.408-1.322 0-2.474-.213-3.456-.64-.96-.427-1.77-1.024-2.432-1.792-.661-.768-1.162-1.685-1.504-2.752-.32-1.067-.501-2.229-.544-3.488 0-1.259.192-2.411.576-3.456s.918-1.952 1.6-2.72c.704-.768 1.526-1.365 2.464-1.792.96-.427 2.006-.64 3.136-.64 1.472 0 2.688.309 3.648.928.982.597 1.76 1.365 2.336 2.304.598.939 1.003 1.963 1.216 3.072.235 1.109.331 2.165.288 3.168h-12.384c-.021.725.064 1.419.256 2.08.192.64.502 1.216.928 1.728.427.491.971.885 1.632 1.184.662.299 1.44.448 2.336.448 1.152 0 2.091-.267 2.816-.8.747-.533 1.238-1.344 1.472-2.432z" fill="#fff"/><path d="m37.5007 38.29c0 1.08.14 2.15.42 3.21.28 1.04.72 1.98 1.32 2.82s1.37 1.52 2.31 2.04c.94.5 2.06.75 3.36.75s2.42-.25 3.36-.75c.94-.52 1.71-1.2 2.31-2.04s1.04-1.78 1.32-2.82c.28-1.06.42-2.13.42-3.21s-.14-2.14-.42-3.18c-.28-1.06-.72-2.01-1.32-2.85s-1.37-1.51-2.31-2.01c-.94-.52-2.06-.78-3.36-.78s-2.42.26-3.36.78c-.94.5-1.71 1.17-2.31 2.01s-1.04 1.79-1.32 2.85c-.28 1.04-.42 2.1-.42 3.18zm-2.85 0c0-1.46.21-2.86.63-4.2.44-1.36 1.09-2.56 1.95-3.6s1.93-1.87 3.21-2.49 2.77-.93 4.47-.93 3.19.31 4.47.93 2.35 1.45 3.21 2.49 1.5 2.24 1.92 3.6c.44 1.34.66 2.74.66 4.2s-.22 2.87-.66 4.23c-.42 1.34-1.06 2.53-1.92 3.57s-1.93 1.87-3.21 2.49c-1.28.6-2.77.9-4.47.9s-3.19-.3-4.47-.9c-1.28-.62-2.35-1.45-3.21-2.49s-1.51-2.23-1.95-3.57c-.42-1.36-.63-2.77-.63-4.23zm23.663-4.8h2.55v2.1h.06c.42-.86 1.08-1.48 1.98-1.86.9-.4 1.89-.6 2.97-.6 1.2 0 2.24.22 3.12.66.9.44 1.64 1.04 2.22 1.8.6.74 1.05 1.6 1.35 2.58s.45 2.02.45 3.12-.15 2.14-.45 3.12c-.28.98-.72 1.84-1.32 2.58-.58.72-1.32 1.29-2.22 1.71-.88.42-1.91.63-3.09.63-.38 0-.81-.04-1.29-.12-.46-.08-.92-.21-1.38-.39s-.9-.42-1.32-.72c-.4-.32-.74-.71-1.02-1.17h-.06v7.98h-2.55zm12 7.62c0-.72-.1-1.42-.3-2.1-.18-.7-.47-1.32-.87-1.86-.38-.54-.88-.97-1.5-1.29-.6-.32-1.31-.48-2.13-.48-.86 0-1.59.17-2.19.51s-1.09.79-1.47 1.35c-.38.54-.66 1.16-.84 1.86-.16.7-.24 1.41-.24 2.13 0 .76.09 1.5.27 2.22.18.7.46 1.32.84 1.86.4.54.91.98 1.53 1.32.62.32 1.37.48 2.25.48s1.61-.17 2.19-.51c.6-.34 1.08-.79 1.44-1.35s.62-1.2.78-1.92.24-1.46.24-2.22zm16.4632-1.35c-.04-.6-.18-1.17-.42-1.71-.22-.54-.53-1-.93-1.38-.38-.4-.84-.71-1.38-.93-.52-.24-1.1-.36-1.74-.36-.66 0-1.26.12-1.8.36-.52.22-.97.53-1.35.93s-.68.87-.9 1.41c-.22.52-.35 1.08-.39 1.68zm2.46 4.32c-.34 1.74-1.09 3.05-2.25 3.93s-2.62 1.32-4.38 1.32c-1.24 0-2.32-.2-3.24-.6-.9-.4-1.66-.96-2.28-1.68s-1.09-1.58-1.41-2.58c-.3-1-.47-2.09-.51-3.27 0-1.18.18-2.26.54-3.24s.86-1.83 1.5-2.55c.66-.72 1.43-1.28 2.31-1.68.9-.4 1.88-.6 2.94-.6 1.38 0 2.52.29 3.42.87.92.56 1.65 1.28 2.19 2.16.56.88.94 1.84 1.14 2.88.22 1.04.31 2.03.27 2.97h-11.61c-.02.68.06 1.33.24 1.95.18.6.47 1.14.87 1.62.4.46.91.83 1.53 1.11s1.35.42 2.19.42c1.08 0 1.96-.25 2.64-.75.7-.5 1.16-1.26 1.38-2.28zm2.8833-10.59h2.4v2.46h.06c1.06-1.88 2.74-2.82 5.04-2.82 1.0198 0 1.8698.14 2.5498.42s1.23.67 1.65 1.17.71 1.1.87 1.8c.18.68.27 1.44.27 2.28v10.2h-2.55v-10.5c0-.96-.28-1.72-.84-2.28s-1.33-.84-2.3098-.84c-.78 0-1.46.12-2.04.36-.56.24-1.03.58-1.41 1.02s-.67.96-.87 1.56c-.18.58-.27 1.22-.27 1.92v8.76h-2.55zm38.7598 15.45c-.44.26-1.05.39-1.83.39-.66 0-1.19-.18-1.59-.54-.38-.38-.57-.99-.57-1.83-.7.84-1.52 1.45-2.46 1.83-.92.36-1.92.54-3 .54-.7 0-1.37-.08-2.01-.24-.62-.16-1.16-.41-1.62-.75s-.83-.78-1.11-1.32c-.26-.56-.39-1.23-.39-2.01 0-.88.15-1.6.45-2.16s.69-1.01 1.17-1.35c.5-.36 1.06-.63 1.68-.81.64-.18 1.29-.33 1.95-.45.7-.14 1.36-.24 1.98-.3.64-.08 1.2-.18 1.68-.3.48-.14.86-.33 1.14-.57.28-.26.42-.63.42-1.11 0-.56-.11-1.01-.33-1.35-.2-.34-.47-.6-.81-.78-.32-.18-.69-.3-1.11-.36-.4-.06-.8-.09-1.2-.09-1.08 0-1.98.21-2.7.63-.72.4-1.11 1.17-1.17 2.31h-2.55c.04-.96.24-1.77.6-2.43s.84-1.19 1.44-1.59c.6-.42 1.28-.72 2.04-.9.78-.18 1.61-.27 2.49-.27.7 0 1.39.05 2.07.15.7.1 1.33.31 1.89.63.56.3 1.01.73 1.35 1.29s.51 1.29.51 2.19v7.98c0 .6.03 1.04.09 1.32.08.28.32.42.72.42.22 0 .48-.05.78-.15zm-4.14-7.95c-.32.24-.74.42-1.26.54-.52.1-1.07.19-1.65.27-.56.06-1.13.14-1.71.24-.58.08-1.1.22-1.56.42s-.84.49-1.14.87c-.28.36-.42.86-.42 1.5 0 .42.08.78.24 1.08.18.28.4.51.66.69.28.18.6.31.96.39s.74.12 1.14.12c.84 0 1.56-.11 2.16-.33.6-.24 1.09-.53 1.47-.87.38-.36.66-.74.84-1.14.18-.42.27-.81.27-1.17zm6.513-7.5h2.4v2.46h.06c1.06-1.88 2.74-2.82 5.04-2.82 1.02 0 1.87.14 2.55.42s1.23.67 1.65 1.17.71 1.1.87 1.8c.18.68.27 1.44.27 2.28v10.2h-2.55v-10.5c0-.96-.28-1.72-.84-2.28s-1.33-.84-2.31-.84c-.78 0-1.46.12-2.04.36-.56.24-1.03.58-1.41 1.02s-.67.96-.87 1.56c-.18.58-.27 1.22-.27 1.92v8.76h-2.55zm18.53 7.89c0 .72.09 1.43.27 2.13.2.68.49 1.29.87 1.83.4.54.9.97 1.5 1.29.62.32 1.34.48 2.16.48.86 0 1.59-.17 2.19-.51s1.09-.78 1.47-1.32c.38-.56.65-1.19.81-1.89.18-.7.27-1.41.27-2.13 0-.76-.09-1.49-.27-2.19-.18-.72-.47-1.35-.87-1.89-.38-.54-.88-.97-1.5-1.29-.62-.34-1.37-.51-2.25-.51-.86 0-1.59.17-2.19.51s-1.08.79-1.44 1.35-.62 1.2-.78 1.92-.24 1.46-.24 2.22zm12 7.62h-2.55v-2.1h-.06c-.42.86-1.08 1.48-1.98 1.86s-1.89.57-2.97.57c-1.2 0-2.25-.22-3.15-.66-.88-.44-1.62-1.03-2.22-1.77-.58-.74-1.02-1.6-1.32-2.58s-.45-2.02-.45-3.12.14-2.14.42-3.12c.3-.98.74-1.83 1.32-2.55.6-.74 1.34-1.32 2.22-1.74.9-.44 1.94-.66 3.12-.66.4 0 .83.04 1.29.12s.92.22 1.38.42c.46.18.89.43 1.29.75.42.3.77.68 1.05 1.14h.06v-7.98h2.55zm25.113 0h-2.4v-2.46h-.06c-.54.96-1.23 1.67-2.07 2.13-.84.44-1.83.66-2.97.66-1.02 0-1.87-.13-2.55-.39-.68-.28-1.23-.67-1.65-1.17s-.72-1.09-.9-1.77c-.16-.7-.24-1.47-.24-2.31v-10.2h2.55v10.5c0 .96.28 1.72.84 2.28s1.33.84 2.31.84c.78 0 1.45-.12 2.01-.36.58-.24 1.06-.58 1.44-1.02s.66-.95.84-1.53c.2-.6.3-1.25.3-1.95v-8.76h2.55zm5.39-4.89c.02.56.15 1.04.39 1.44.24.38.55.69.93.93.4.22.84.38 1.32.48.5.1 1.01.15 1.53.15.4 0 .82-.03 1.26-.09s.84-.17 1.2-.33c.38-.16.69-.39.93-.69.24-.32.36-.72.36-1.2 0-.66-.25-1.16-.75-1.5s-1.13-.61-1.89-.81c-.74-.22-1.55-.41-2.43-.57-.88-.18-1.7-.42-2.46-.72-.74-.32-1.36-.76-1.86-1.32s-.75-1.34-.75-2.34c0-.78.17-1.45.51-2.01.36-.56.81-1.01 1.35-1.35.56-.36 1.18-.62 1.86-.78.7-.18 1.39-.27 2.07-.27.88 0 1.69.08 2.43.24.74.14 1.39.4 1.95.78.58.36 1.04.86 1.38 1.5.34.62.54 1.4.6 2.34h-2.55c-.04-.5-.17-.91-.39-1.23-.22-.34-.5-.61-.84-.81s-.72-.34-1.14-.42c-.4-.1-.81-.15-1.23-.15-.38 0-.77.03-1.17.09-.38.06-.73.17-1.05.33-.32.14-.58.34-.78.6-.2.24-.3.56-.3.96 0 .44.15.81.45 1.11.32.28.72.52 1.2.72.48.18 1.02.34 1.62.48.6.12 1.2.25 1.8.39.64.14 1.26.31 1.86.51.62.2 1.16.47 1.62.81.48.32.86.73 1.14 1.23.3.5.45 1.12.45 1.86 0 .94-.2 1.72-.6 2.34-.38.62-.89 1.12-1.53 1.5-.62.38-1.33.64-2.13.78-.78.16-1.56.24-2.34.24-.86 0-1.68-.09-2.46-.27s-1.47-.47-2.07-.87c-.6-.42-1.08-.96-1.44-1.62-.36-.68-.56-1.5-.6-2.46zm24.21-4.35c-.04-.6-.18-1.17-.42-1.71-.22-.54-.53-1-.93-1.38-.38-.4-.84-.71-1.38-.93-.52-.24-1.1-.36-1.74-.36-.66 0-1.26.12-1.8.36-.52.22-.97.53-1.35.93s-.68.87-.9 1.41c-.22.52-.35 1.08-.39 1.68zm2.46 4.32c-.34 1.74-1.09 3.05-2.25 3.93s-2.62 1.32-4.38 1.32c-1.24 0-2.32-.2-3.24-.6-.9-.4-1.66-.96-2.28-1.68s-1.09-1.58-1.41-2.58c-.3-1-.47-2.09-.51-3.27 0-1.18.18-2.26.54-3.24s.86-1.83 1.5-2.55c.66-.72 1.43-1.28 2.31-1.68.9-.4 1.88-.6 2.94-.6 1.38 0 2.52.29 3.42.87.92.56 1.65 1.28 2.19 2.16.56.88.94 1.84 1.14 2.88.22 1.04.31 2.03.27 2.97h-11.61c-.02.68.06 1.33.24 1.95.18.6.47 1.14.87 1.62.4.46.91.83 1.53 1.11s1.35.42 2.19.42c1.08 0 1.96-.25 2.64-.75.7-.5 1.16-1.26 1.38-2.28zm24.973 4.86c-.44.26-1.05.39-1.83.39-.66 0-1.19-.18-1.59-.54-.38-.38-.57-.99-.57-1.83-.7.84-1.52 1.45-2.46 1.83-.92.36-1.92.54-3 .54-.7 0-1.37-.08-2.01-.24-.62-.16-1.16-.41-1.62-.75s-.83-.78-1.11-1.32c-.26-.56-.39-1.23-.39-2.01 0-.88.15-1.6.45-2.16s.69-1.01 1.17-1.35c.5-.36 1.06-.63 1.68-.81.64-.18 1.29-.33 1.95-.45.7-.14 1.36-.24 1.98-.3.64-.08 1.2-.18 1.68-.3.48-.14.86-.33 1.14-.57.28-.26.42-.63.42-1.11 0-.56-.11-1.01-.33-1.35-.2-.34-.47-.6-.81-.78-.32-.18-.69-.3-1.11-.36-.4-.06-.8-.09-1.2-.09-1.08 0-1.98.21-2.7.63-.72.4-1.11 1.17-1.17 2.31h-2.55c.04-.96.24-1.77.6-2.43s.84-1.19 1.44-1.59c.6-.42 1.28-.72 2.04-.9.78-.18 1.61-.27 2.49-.27.7 0 1.39.05 2.07.15.7.1 1.33.31 1.89.63.56.3 1.01.73 1.35 1.29s.51 1.29.51 2.19v7.98c0 .6.03 1.04.09 1.32.08.28.32.42.72.42.22 0 .48-.05.78-.15zm-4.14-7.95c-.32.24-.74.42-1.26.54-.52.1-1.07.19-1.65.27-.56.06-1.13.14-1.71.24-.58.08-1.1.22-1.56.42s-.84.49-1.14.87c-.28.36-.42.86-.42 1.5 0 .42.08.78.24 1.08.18.28.4.51.66.69.28.18.6.31.96.39s.74.12 1.14.12c.84 0 1.56-.11 2.16-.33.6-.24 1.09-.53 1.47-.87.38-.36.66-.74.84-1.14.18-.42.27-.81.27-1.17zm6.513-7.5h2.4v2.46h.06c1.06-1.88 2.74-2.82 5.04-2.82 1.02 0 1.87.14 2.55.42s1.23.67 1.65 1.17.71 1.1.87 1.8c.18.68.27 1.44.27 2.28v10.2h-2.55v-10.5c0-.96-.28-1.72-.84-2.28s-1.33-.84-2.31-.84c-.78 0-1.46.12-2.04.36-.56.24-1.03.58-1.41 1.02s-.67.96-.87 1.56c-.18.58-.27 1.22-.27 1.92v8.76h-2.55zm27.089 4.8c0 1.08.14 2.15.42 3.21.28 1.04.72 1.98 1.32 2.82s1.37 1.52 2.31 2.04c.94.5 2.06.75 3.36.75s2.42-.25 3.36-.75c.94-.52 1.71-1.2 2.31-2.04s1.04-1.78 1.32-2.82c.28-1.06.42-2.13.42-3.21s-.14-2.14-.42-3.18c-.28-1.06-.72-2.01-1.32-2.85s-1.37-1.51-2.31-2.01c-.94-.52-2.06-.78-3.36-.78s-2.42.26-3.36.78c-.94.5-1.71 1.17-2.31 2.01s-1.04 1.79-1.32 2.85c-.28 1.04-.42 2.1-.42 3.18zm-2.85 0c0-1.46.21-2.86.63-4.2.44-1.36 1.09-2.56 1.95-3.6s1.93-1.87 3.21-2.49 2.77-.93 4.47-.93 3.19.31 4.47.93 2.35 1.45 3.21 2.49 1.5 2.24 1.92 3.6c.44 1.34.66 2.74.66 4.2s-.22 2.87-.66 4.23c-.42 1.34-1.06 2.53-1.92 3.57s-1.93 1.87-3.21 2.49c-1.28.6-2.77.9-4.47.9s-3.19-.3-4.47-.9c-1.28-.62-2.35-1.45-3.21-2.49s-1.51-2.23-1.95-3.57c-.42-1.36-.63-2.77-.63-4.23zm30.563 10.71h-2.73l-5.76-15.51h2.85l4.35 12.93h.06l4.23-12.93h2.67zm18.78-9.24c-.04-.6-.18-1.17-.42-1.71-.22-.54-.53-1-.93-1.38-.38-.4-.84-.71-1.38-.93-.52-.24-1.1-.36-1.74-.36-.66 0-1.26.12-1.8.36-.52.22-.97.53-1.35.93s-.68.87-.9 1.41c-.22.52-.35 1.08-.39 1.68zm2.46 4.32c-.34 1.74-1.09 3.05-2.25 3.93s-2.62 1.32-4.38 1.32c-1.24 0-2.32-.2-3.24-.6-.9-.4-1.66-.96-2.28-1.68s-1.09-1.58-1.41-2.58c-.3-1-.47-2.09-.51-3.27 0-1.18.18-2.26.54-3.24s.86-1.83 1.5-2.55c.66-.72 1.43-1.28 2.31-1.68.9-.4 1.88-.6 2.94-.6 1.38 0 2.52.29 3.42.87.92.56 1.65 1.28 2.19 2.16.56.88.94 1.84 1.14 2.88.22 1.04.31 2.03.27 2.97h-11.61c-.02.68.06 1.33.24 1.95.18.6.47 1.14.87 1.62.4.46.91.83 1.53 1.11s1.35.42 2.19.42c1.08 0 1.96-.25 2.64-.75.7-.5 1.16-1.26 1.38-2.28zm2.794-10.59h2.4v3.27h.06c.62-1.26 1.38-2.19 2.28-2.79s2.04-.88 3.42-.84v2.7c-1.02 0-1.89.14-2.61.42s-1.3.69-1.74 1.23-.76 1.2-.96 1.98c-.2.76-.3 1.64-.3 2.64v6.9h-2.55zm11.64 10.62c.02.56.15 1.04.39 1.44.24.38.55.69.93.93.4.22.84.38 1.32.48.5.1 1.01.15 1.53.15.4 0 .82-.03 1.26-.09s.84-.17 1.2-.33c.38-.16.69-.39.93-.69.24-.32.36-.72.36-1.2 0-.66-.25-1.16-.75-1.5s-1.13-.61-1.89-.81c-.74-.22-1.55-.41-2.43-.57-.88-.18-1.7-.42-2.46-.72-.74-.32-1.36-.76-1.86-1.32s-.75-1.34-.75-2.34c0-.78.17-1.45.51-2.01.36-.56.81-1.01 1.35-1.35.56-.36 1.18-.62 1.86-.78.7-.18 1.39-.27 2.07-.27.88 0 1.69.08 2.43.24.74.14 1.39.4 1.95.78.58.36 1.04.86 1.38 1.5.34.62.54 1.4.6 2.34h-2.55c-.04-.5-.17-.91-.39-1.23-.22-.34-.5-.61-.84-.81s-.72-.34-1.14-.42c-.4-.1-.81-.15-1.23-.15-.38 0-.77.03-1.17.09-.38.06-.73.17-1.05.33-.32.14-.58.34-.78.6-.2.24-.3.56-.3.96 0 .44.15.81.45 1.11.32.28.72.52 1.2.72.48.18 1.02.34 1.62.48.6.12 1.2.25 1.8.39.64.14 1.26.31 1.86.51.62.2 1.16.47 1.62.81.48.32.86.73 1.14 1.23.3.5.45 1.12.45 1.86 0 .94-.2 1.72-.6 2.34-.38.62-.89 1.12-1.53 1.5-.62.38-1.33.64-2.13.78-.78.16-1.56.24-2.34.24-.86 0-1.68-.09-2.46-.27s-1.47-.47-2.07-.87c-.6-.42-1.08-.96-1.44-1.62-.36-.68-.56-1.5-.6-2.46zm16.98-10.62h3.09v2.25h-3.09v9.63c0 .3.02.54.06.72.06.18.16.32.3.42s.33.17.57.21c.26.02.59.03.99.03h1.17v2.25h-1.95c-.66 0-1.23-.04-1.71-.12-.46-.1-.84-.27-1.14-.51-.28-.24-.49-.58-.63-1.02s-.21-1.02-.21-1.74v-9.87h-2.64v-2.25h2.64v-4.65h2.55zm7.783 7.77c0 .94.12 1.78.36 2.52.26.72.61 1.33 1.05 1.83.44.48.95.85 1.53 1.11.6.26 1.23.39 1.89.39s1.28-.13 1.86-.39c.6-.26 1.12-.63 1.56-1.11.44-.5.78-1.11 1.02-1.83.26-.74.39-1.58.39-2.52s-.13-1.77-.39-2.49c-.24-.74-.58-1.36-1.02-1.86s-.96-.88-1.56-1.14c-.58-.26-1.2-.39-1.86-.39s-1.29.13-1.89.39c-.58.26-1.09.64-1.53 1.14s-.79 1.12-1.05 1.86c-.24.72-.36 1.55-.36 2.49zm-2.7 0c0-1.14.16-2.2.48-3.18.32-1 .8-1.86 1.44-2.58.64-.74 1.43-1.32 2.37-1.74s2.02-.63 3.24-.63c1.24 0 2.32.21 3.24.63.94.42 1.73 1 2.37 1.74.64.72 1.12 1.58 1.44 2.58.32.98.48 2.04.48 3.18s-.16 2.2-.48 3.18-.8 1.84-1.44 2.58c-.64.72-1.43 1.29-2.37 1.71-.92.4-2 .6-3.24.6-1.22 0-2.3-.2-3.24-.6-.94-.42-1.73-.99-2.37-1.71-.64-.74-1.12-1.6-1.44-2.58s-.48-2.04-.48-3.18zm28.596-2.79c-.2-.98-.62-1.74-1.26-2.28s-1.5-.81-2.58-.81c-.92 0-1.69.17-2.31.51s-1.12.79-1.5 1.35c-.36.56-.62 1.21-.78 1.95-.16.72-.24 1.47-.24 2.25 0 .72.08 1.42.24 2.1.18.68.45 1.29.81 1.83.36.52.83.94 1.41 1.26s1.27.48 2.07.48c1.26 0 2.24-.33 2.94-.99.72-.66 1.16-1.59 1.32-2.79h2.61c-.28 1.92-1 3.4-2.16 4.44-1.14 1.04-2.7 1.56-4.68 1.56-1.18 0-2.23-.19-3.15-.57-.9-.38-1.66-.92-2.28-1.62-.6-.7-1.06-1.53-1.38-2.49-.3-.98-.45-2.05-.45-3.21s.15-2.24.45-3.24c.3-1.02.75-1.9 1.35-2.64.62-.76 1.39-1.35 2.31-1.77.92-.44 1.99-.66 3.21-.66.88 0 1.7.11 2.46.33.78.2 1.46.52 2.04.96.6.44 1.09 1 1.47 1.68.38.66.62 1.45.72 2.37zm5.734-10.89h2.55v12.69l7.08-6.78h3.42l-6.15 5.64 6.6 9.87h-3.24l-5.31-8.1-2.4 2.22v5.88h-2.55zm39.236 6.45c-.32-1.52-1.03-2.66-2.13-3.42-1.08-.76-2.37-1.14-3.87-1.14-1.28 0-2.38.24-3.3.72-.9.48-1.65 1.13-2.25 1.95-.58.8-1.01 1.72-1.29 2.76s-.42 2.12-.42 3.24c0 1.22.14 2.38.42 3.48.28 1.08.71 2.03 1.29 2.85.6.8 1.36 1.44 2.28 1.92s2.02.72 3.3.72c.94 0 1.77-.15 2.49-.45.74-.32 1.37-.75 1.89-1.29.54-.56.96-1.22 1.26-1.98s.48-1.58.54-2.46h2.85c-.28 2.7-1.21 4.8-2.79 6.3s-3.74 2.25-6.48 2.25c-1.66 0-3.11-.28-4.35-.84-1.24-.58-2.27-1.37-3.09-2.37s-1.44-2.18-1.86-3.54c-.4-1.36-.6-2.82-.6-4.38s.22-3.02.66-4.38c.44-1.38 1.08-2.58 1.92-3.6.86-1.02 1.92-1.82 3.18-2.4 1.28-.6 2.74-.9 4.38-.9 1.12 0 2.18.15 3.18.45s1.89.74 2.67 1.32 1.43 1.31 1.95 2.19c.52.86.86 1.86 1.02 3zm6.08-.54h2.4v3.27h.06c.62-1.26 1.38-2.19 2.28-2.79s2.04-.88 3.42-.84v2.7c-1.02 0-1.89.14-2.61.42s-1.3.69-1.74 1.23-.76 1.2-.96 1.98c-.2.76-.3 1.64-.3 2.64v6.9h-2.55zm20.323 6.27c-.04-.6-.18-1.17-.42-1.71-.22-.54-.53-1-.93-1.38-.38-.4-.84-.71-1.38-.93-.52-.24-1.1-.36-1.74-.36-.66 0-1.26.12-1.8.36-.52.22-.97.53-1.35.93s-.68.87-.9 1.41c-.22.52-.35 1.08-.39 1.68zm2.46 4.32c-.34 1.74-1.09 3.05-2.25 3.93s-2.62 1.32-4.38 1.32c-1.24 0-2.32-.2-3.24-.6-.9-.4-1.66-.96-2.28-1.68s-1.09-1.58-1.41-2.58c-.3-1-.47-2.09-.51-3.27 0-1.18.18-2.26.54-3.24s.86-1.83 1.5-2.55c.66-.72 1.43-1.28 2.31-1.68.9-.4 1.88-.6 2.94-.6 1.38 0 2.52.29 3.42.87.92.56 1.65 1.28 2.19 2.16.56.88.94 1.84 1.14 2.88.22 1.04.31 2.03.27 2.97h-11.61c-.02.68.06 1.33.24 1.95.18.6.47 1.14.87 1.62.4.46.91.83 1.53 1.11s1.35.42 2.19.42c1.08 0 1.96-.25 2.64-.75.7-.5 1.16-1.26 1.38-2.28zm4.743-2.7c0 .72.09 1.43.27 2.13.2.68.49 1.29.87 1.83.4.54.9.97 1.5 1.29.62.32 1.34.48 2.16.48.86 0 1.59-.17 2.19-.51s1.09-.78 1.47-1.32c.38-.56.65-1.19.81-1.89.18-.7.27-1.41.27-2.13 0-.76-.09-1.49-.27-2.19-.18-.72-.47-1.35-.87-1.89-.38-.54-.88-.97-1.5-1.29-.62-.34-1.37-.51-2.25-.51-.86 0-1.59.17-2.19.51s-1.08.79-1.44 1.35-.62 1.2-.78 1.92-.24 1.46-.24 2.22zm12 7.62h-2.55v-2.1h-.06c-.42.86-1.08 1.48-1.98 1.86s-1.89.57-2.97.57c-1.2 0-2.25-.22-3.15-.66-.88-.44-1.62-1.03-2.22-1.77-.58-.74-1.02-1.6-1.32-2.58s-.45-2.02-.45-3.12.14-2.14.42-3.12c.3-.98.74-1.83 1.32-2.55.6-.74 1.34-1.32 2.22-1.74.9-.44 1.94-.66 3.12-.66.4 0 .83.04 1.29.12s.92.22 1.38.42c.46.18.89.43 1.29.75.42.3.77.68 1.05 1.14h.06v-7.98h2.55zm6.624-18.3h-2.55v-3.12h2.55zm-2.55 2.79h2.55v15.51h-2.55zm10.04 0h3.09v2.25h-3.09v9.63c0 .3.02.54.06.72.06.18.16.32.3.42s.33.17.57.21c.26.02.59.03.99.03h1.17v2.25h-1.95c-.66 0-1.23-.04-1.71-.12-.46-.1-.84-.27-1.14-.51-.28-.24-.49-.58-.63-1.02s-.21-1.02-.21-1.74v-9.87h-2.64v-2.25h2.64v-4.65h2.55zm29.752.54c-.32-1.52-1.03-2.66-2.13-3.42-1.08-.76-2.37-1.14-3.87-1.14-1.28 0-2.38.24-3.3.72-.9.48-1.65 1.13-2.25 1.95-.58.8-1.01 1.72-1.29 2.76s-.42 2.12-.42 3.24c0 1.22.14 2.38.42 3.48.28 1.08.71 2.03 1.29 2.85.6.8 1.36 1.44 2.28 1.92s2.02.72 3.3.72c.94 0 1.77-.15 2.49-.45.74-.32 1.37-.75 1.89-1.29.54-.56.96-1.22 1.26-1.98s.48-1.58.54-2.46h2.85c-.28 2.7-1.21 4.8-2.79 6.3s-3.74 2.25-6.48 2.25c-1.66 0-3.11-.28-4.35-.84-1.24-.58-2.27-1.37-3.09-2.37s-1.44-2.18-1.86-3.54c-.4-1.36-.6-2.82-.6-4.38s.22-3.02.66-4.38c.44-1.38 1.08-2.58 1.92-3.6.86-1.02 1.92-1.82 3.18-2.4 1.28-.6 2.74-.9 4.38-.9 1.12 0 2.18.15 3.18.45s1.89.74 2.67 1.32 1.43 1.31 1.95 2.19c.52.86.86 1.86 1.02 3zm19.911 14.91c-.44.26-1.05.39-1.83.39-.66 0-1.19-.18-1.59-.54-.38-.38-.57-.99-.57-1.83-.7.84-1.52 1.45-2.46 1.83-.92.36-1.92.54-3 .54-.7 0-1.37-.08-2.01-.24-.62-.16-1.16-.41-1.62-.75s-.83-.78-1.11-1.32c-.26-.56-.39-1.23-.39-2.01 0-.88.15-1.6.45-2.16s.69-1.01 1.17-1.35c.5-.36 1.06-.63 1.68-.81.64-.18 1.29-.33 1.95-.45.7-.14 1.36-.24 1.98-.3.64-.08 1.2-.18 1.68-.3.48-.14.86-.33 1.14-.57.28-.26.42-.63.42-1.11 0-.56-.11-1.01-.33-1.35-.2-.34-.47-.6-.81-.78-.32-.18-.69-.3-1.11-.36-.4-.06-.8-.09-1.2-.09-1.08 0-1.98.21-2.7.63-.72.4-1.11 1.17-1.17 2.31h-2.55c.04-.96.24-1.77.6-2.43s.84-1.19 1.44-1.59c.6-.42 1.28-.72 2.04-.9.78-.18 1.61-.27 2.49-.27.7 0 1.39.05 2.07.15.7.1 1.33.31 1.89.63.56.3 1.01.73 1.35 1.29s.51 1.29.51 2.19v7.98c0 .6.03 1.04.09 1.32.08.28.32.42.72.42.22 0 .48-.05.78-.15zm-4.14-7.95c-.32.24-.74.42-1.26.54-.52.1-1.07.19-1.65.27-.56.06-1.13.14-1.71.24-.58.08-1.1.22-1.56.42s-.84.49-1.14.87c-.28.36-.42.86-.42 1.5 0 .42.08.78.24 1.08.18.28.4.51.66.69.28.18.6.31.96.39s.74.12 1.14.12c.84 0 1.56-.11 2.16-.33.6-.24 1.09-.53 1.47-.87.38-.36.66-.74.84-1.14.18-.42.27-.81.27-1.17zm6.423-7.5h2.4v3.27h.06c.62-1.26 1.38-2.19 2.28-2.79s2.04-.88 3.42-.84v2.7c-1.02 0-1.89.14-2.61.42s-1.3.69-1.74 1.23-.76 1.2-.96 1.98c-.2.76-.3 1.64-.3 2.64v6.9h-2.55zm11.413 7.89c0 .72.09 1.43.27 2.13.2.68.49 1.29.87 1.83.4.54.9.97 1.5 1.29.62.32 1.34.48 2.16.48.86 0 1.59-.17 2.19-.51s1.09-.78 1.47-1.32c.38-.56.65-1.19.81-1.89.18-.7.27-1.41.27-2.13 0-.76-.09-1.49-.27-2.19-.18-.72-.47-1.35-.87-1.89-.38-.54-.88-.97-1.5-1.29-.62-.34-1.37-.51-2.25-.51-.86 0-1.59.17-2.19.51s-1.08.79-1.44 1.35-.62 1.2-.78 1.92-.24 1.46-.24 2.22zm12 7.62h-2.55v-2.1h-.06c-.42.86-1.08 1.48-1.98 1.86s-1.89.57-2.97.57c-1.2 0-2.25-.22-3.15-.66-.88-.44-1.62-1.03-2.22-1.77-.58-.74-1.02-1.6-1.32-2.58s-.45-2.02-.45-3.12.14-2.14.42-3.12c.3-.98.74-1.83 1.32-2.55.6-.74 1.34-1.32 2.22-1.74.9-.44 1.94-.66 3.12-.66.4 0 .83.04 1.29.12s.92.22 1.38.42c.46.18.89.43 1.29.75.42.3.77.68 1.05 1.14h.06v-7.98h2.55zm-455.59 35h-2.7l-3.15-12.33h-.06l-3.12 12.33h-2.76l-4.9798-15.51h2.82l3.5098 12.69h.06l3.12-12.69h2.79l3.24 12.69h.06l3.48-12.69h2.64zm10.075-18.3h-2.55v-3.12h2.55zm-2.55 2.79h2.55v15.51h-2.55zm10.04 0h3.09v2.25h-3.09v9.63c0 .3.02.54.06.72.06.18.16.32.3.42s.33.17.57.21c.26.02.59.03.99.03h1.17v2.25h-1.95c-.66 0-1.23-.04-1.71-.12-.46-.1-.84-.27-1.14-.51-.28-.24-.49-.58-.63-1.02s-.21-1.02-.21-1.74v-9.87h-2.64v-2.25h2.64v-4.65h2.55zm5.923-5.91h2.55v8.19h.06c.2-.48.48-.88.84-1.2.36-.34.76-.61 1.2-.81.46-.22.93-.38 1.41-.48.5-.1.98-.15 1.44-.15 1.02 0 1.87.14 2.55.42s1.23.67 1.65 1.17.71 1.1.87 1.8c.18.68.27 1.44.27 2.28v10.2h-2.55v-10.5c0-.96-.28-1.72-.84-2.28s-1.33-.84-2.31-.84c-.78 0-1.46.12-2.04.36-.56.24-1.03.58-1.41 1.02s-.67.96-.87 1.56c-.18.58-.27 1.22-.27 1.92v8.76h-2.55zm19.37 3.12h-2.55v-3.12h2.55zm-2.55 2.79h2.55v15.51h-2.55zm6.5 0h2.4v2.46h.06c1.06-1.88 2.74-2.82 5.04-2.82 1.02 0 1.87.14 2.55.42s1.23.67 1.65 1.17.71 1.1.87 1.8c.18.68.27 1.44.27 2.28v10.2h-2.55v-10.5c0-.96-.28-1.72-.84-2.28s-1.33-.84-2.31-.84c-.78 0-1.46.12-2.04.36-.56.24-1.03.58-1.41 1.02s-.67.96-.87 1.56c-.18.58-.27 1.22-.27 1.92v8.76h-2.55zm28.56 0h3.09v2.25h-3.09v9.63c0 .3.02.54.06.72.06.18.16.32.3.42s.33.17.57.21c.26.02.59.03.99.03h1.17v2.25h-1.95c-.66 0-1.23-.04-1.71-.12-.46-.1-.84-.27-1.14-.51-.28-.24-.49-.58-.63-1.02s-.21-1.02-.21-1.74v-9.87h-2.64v-2.25h2.64v-4.65h2.55zm5.923-5.91h2.55v8.19h.06c.2-.48.48-.88.84-1.2.36-.34.76-.61 1.2-.81.46-.22.93-.38 1.41-.48.5-.1.98-.15 1.44-.15 1.02 0 1.87.14 2.55.42s1.23.67 1.65 1.17.71 1.1.87 1.8c.18.68.27 1.44.27 2.28v10.2h-2.55v-10.5c0-.96-.28-1.72-.84-2.28s-1.33-.84-2.31-.84c-.78 0-1.46.12-2.04.36-.56.24-1.03.58-1.41 1.02s-.67.96-.87 1.56c-.18.58-.27 1.22-.27 1.92v8.76h-2.55zm27.44 12.18c-.04-.6-.18-1.17-.42-1.71-.22-.54-.53-1-.93-1.38-.38-.4-.84-.71-1.38-.93-.52-.24-1.1-.36-1.74-.36-.66 0-1.26.12-1.8.36-.52.22-.97.53-1.35.93s-.68.87-.9 1.41c-.22.52-.35 1.08-.39 1.68zm2.46 4.32c-.34 1.74-1.09 3.05-2.25 3.93s-2.62 1.32-4.38 1.32c-1.24 0-2.32-.2-3.24-.6-.9-.4-1.66-.96-2.28-1.68s-1.09-1.58-1.41-2.58c-.3-1-.47-2.09-.51-3.27 0-1.18.18-2.26.54-3.24s.86-1.83 1.5-2.55c.66-.72 1.43-1.28 2.31-1.68.9-.4 1.88-.6 2.94-.6 1.38 0 2.52.29 3.42.87.92.56 1.65 1.28 2.19 2.16.56.88.94 1.84 1.14 2.88.22 1.04.31 2.03.27 2.97h-11.61c-.02.68.06 1.33.24 1.95.18.6.47 1.14.87 1.62.4.46.91.83 1.53 1.11s1.35.42 2.19.42c1.08 0 1.96-.25 2.64-.75.7-.5 1.16-1.26 1.38-2.28zm20.262 4.92v-15.51h2.55v15.51zm0-18.3v-3.12h2.55v3.12zm-7.98 5.04h-2.61v-2.25h2.61v-2.31c0-1.26.36-2.21 1.08-2.85.74-.66 1.81-.99 3.21-.99.24 0 .51.02.81.06.32.04.6.1.84.18v2.22c-.22-.08-.46-.13-.72-.15-.26-.04-.5-.06-.72-.06-.62 0-1.1.12-1.44.36s-.51.7-.51 1.38v2.16h3v2.25h-3v13.26h-2.55zm14.388-2.25h2.4v3.27h.06c.62-1.26 1.38-2.19 2.28-2.79s2.04-.88 3.42-.84v2.7c-1.02 0-1.89.14-2.61.42s-1.3.69-1.74 1.23-.76 1.2-.96 1.98c-.2.76-.3 1.64-.3 2.64v6.9h-2.55zm11.64 10.62c.02.56.15 1.04.39 1.44.24.38.55.69.93.93.4.22.84.38 1.32.48.5.1 1.01.15 1.53.15.4 0 .82-.03 1.26-.09s.84-.17 1.2-.33c.38-.16.69-.39.93-.69.24-.32.36-.72.36-1.2 0-.66-.25-1.16-.75-1.5s-1.13-.61-1.89-.81c-.74-.22-1.55-.41-2.43-.57-.88-.18-1.7-.42-2.46-.72-.74-.32-1.36-.76-1.86-1.32s-.75-1.34-.75-2.34c0-.78.17-1.45.51-2.01.36-.56.81-1.01 1.35-1.35.56-.36 1.18-.62 1.86-.78.7-.18 1.39-.27 2.07-.27.88 0 1.69.08 2.43.24.74.14 1.39.4 1.95.78.58.36 1.04.86 1.38 1.5.34.62.54 1.4.6 2.34h-2.55c-.04-.5-.17-.91-.39-1.23-.22-.34-.5-.61-.84-.81s-.72-.34-1.14-.42c-.4-.1-.81-.15-1.23-.15-.38 0-.77.03-1.17.09-.38.06-.73.17-1.05.33-.32.14-.58.34-.78.6-.2.24-.3.56-.3.96 0 .44.15.81.45 1.11.32.28.72.52 1.2.72.48.18 1.02.34 1.62.48.6.12 1.2.25 1.8.39.64.14 1.26.31 1.86.51.62.2 1.16.47 1.62.81.48.32.86.73 1.14 1.23.3.5.45 1.12.45 1.86 0 .94-.2 1.72-.6 2.34-.38.62-.89 1.12-1.53 1.5-.62.38-1.33.64-2.13.78-.78.16-1.56.24-2.34.24-.86 0-1.68-.09-2.46-.27s-1.47-.47-2.07-.87c-.6-.42-1.08-.96-1.44-1.62-.36-.68-.56-1.5-.6-2.46zm16.98-10.62h3.09v2.25h-3.09v9.63c0 .3.02.54.06.72.06.18.16.32.3.42s.33.17.57.21c.26.02.59.03.99.03h1.17v2.25h-1.95c-.66 0-1.23-.04-1.71-.12-.46-.1-.84-.27-1.14-.51-.28-.24-.49-.58-.63-1.02s-.21-1.02-.21-1.74v-9.87h-2.64v-2.25h2.64v-4.65h2.55zm18.892 3.36c.1.02.19.03.27.03h.3.54c.54 0 1.05-.07 1.53-.21.5-.16.93-.38 1.29-.66.38-.3.68-.67.9-1.11s.33-.94.33-1.5c0-1.14-.36-1.99-1.08-2.55-.72-.58-1.62-.87-2.7-.87-.68 0-1.28.13-1.8.39-.5.24-.92.57-1.26.99-.32.42-.56.91-.72 1.47s-.24 1.15-.24 1.77h-2.55c.04-1.02.2-1.95.48-2.79.3-.84.72-1.56 1.26-2.16s1.21-1.07 2.01-1.41c.82-.34 1.76-.51 2.82-.51.92 0 1.77.12 2.55.36.8.22 1.49.56 2.07 1.02s1.03 1.05 1.35 1.77c.34.72.51 1.57.51 2.55 0 .96-.28 1.81-.84 2.55s-1.26 1.3-2.1 1.68v.06c1.3.28 2.26.89 2.88 1.83.64.94.96 2.05.96 3.33 0 1.06-.2 2-.6 2.82-.38.8-.9 1.47-1.56 2.01s-1.44.95-2.34 1.23c-.88.26-1.82.39-2.82.39-1.08 0-2.06-.15-2.94-.45s-1.63-.74-2.25-1.32c-.62-.6-1.1-1.33-1.44-2.19-.32-.86-.47-1.84-.45-2.94h2.55c.04 1.38.44 2.51 1.2 3.39.76.86 1.87 1.29 3.33 1.29.62 0 1.21-.09 1.77-.27.56-.2 1.05-.47 1.47-.81.42-.36.75-.79.99-1.29.26-.52.39-1.1.39-1.74 0-.66-.12-1.24-.36-1.74-.24-.52-.56-.95-.96-1.29-.4-.36-.88-.62-1.44-.78-.54-.18-1.13-.27-1.77-.27-.54 0-1.05.03-1.53.09zm14.09 1.68c0 .8.02 1.7.06 2.7.06.98.22 1.91.48 2.79.28.86.72 1.59 1.32 2.19s1.44.9 2.52.9 1.92-.3 2.52-.9 1.03-1.33 1.29-2.19c.28-.88.44-1.81.48-2.79.06-1 .09-1.9.09-2.7 0-.52-.01-1.09-.03-1.71 0-.64-.05-1.27-.15-1.89-.08-.64-.21-1.26-.39-1.86-.16-.6-.41-1.12-.75-1.56-.32-.46-.73-.83-1.23-1.11s-1.11-.42-1.83-.42-1.33.14-1.83.42-.92.65-1.26 1.11c-.32.44-.57.96-.75 1.56-.16.6-.29 1.22-.39 1.86-.08.62-.13 1.25-.15 1.89zm-2.7.03c0-.78.02-1.59.06-2.43s.14-1.66.3-2.46.39-1.56.69-2.28.71-1.35 1.23-1.89 1.17-.97 1.95-1.29c.8-.32 1.75-.48 2.85-.48s2.04.16 2.82.48c.8.32 1.46.75 1.98 1.29s.93 1.17 1.23 1.89.53 1.48.69 2.28.26 1.62.3 2.46.06 1.65.06 2.43-.02 1.59-.06 2.43-.14 1.66-.3 2.46-.39 1.56-.69 2.28c-.3.7-.71 1.32-1.23 1.86s-1.17.97-1.95 1.29c-.78.3-1.73.45-2.85.45-1.1 0-2.05-.15-2.85-.45-.78-.32-1.43-.75-1.95-1.29s-.93-1.16-1.23-1.86c-.3-.72-.53-1.48-.69-2.28s-.26-1.62-.3-2.46-.06-1.65-.06-2.43zm27.54 2.82c0 .72.09 1.43.27 2.13.2.68.49 1.29.87 1.83.4.54.9.97 1.5 1.29.62.32 1.34.48 2.16.48.86 0 1.59-.17 2.19-.51s1.09-.78 1.47-1.32c.38-.56.65-1.19.81-1.89.18-.7.27-1.41.27-2.13 0-.76-.09-1.49-.27-2.19-.18-.72-.47-1.35-.87-1.89-.38-.54-.88-.97-1.5-1.29-.62-.34-1.37-.51-2.25-.51-.86 0-1.59.17-2.19.51s-1.08.79-1.44 1.35-.62 1.2-.78 1.92-.24 1.46-.24 2.22zm12 7.62h-2.55v-2.1h-.06c-.42.86-1.08 1.48-1.98 1.86s-1.89.57-2.97.57c-1.2 0-2.25-.22-3.15-.66-.88-.44-1.62-1.03-2.22-1.77-.58-.74-1.02-1.6-1.32-2.58s-.45-2.02-.45-3.12.14-2.14.42-3.12c.3-.98.74-1.83 1.32-2.55.6-.74 1.34-1.32 2.22-1.74.9-.44 1.94-.66 3.12-.66.4 0 .83.04 1.29.12s.92.22 1.38.42c.46.18.89.43 1.29.75.42.3.77.68 1.05 1.14h.06v-7.98h2.55zm17.663-.06c-.44.26-1.05.39-1.83.39-.66 0-1.19-.18-1.59-.54-.38-.38-.57-.99-.57-1.83-.7.84-1.52 1.45-2.46 1.83-.92.36-1.92.54-3 .54-.7 0-1.37-.08-2.01-.24-.62-.16-1.16-.41-1.62-.75s-.83-.78-1.11-1.32c-.26-.56-.39-1.23-.39-2.01 0-.88.15-1.6.45-2.16s.69-1.01 1.17-1.35c.5-.36 1.06-.63 1.68-.81.64-.18 1.29-.33 1.95-.45.7-.14 1.36-.24 1.98-.3.64-.08 1.2-.18 1.68-.3.48-.14.86-.33 1.14-.57.28-.26.42-.63.42-1.11 0-.56-.11-1.01-.33-1.35-.2-.34-.47-.6-.81-.78-.32-.18-.69-.3-1.11-.36-.4-.06-.8-.09-1.2-.09-1.08 0-1.98.21-2.7.63-.72.4-1.11 1.17-1.17 2.31h-2.55c.04-.96.24-1.77.6-2.43s.84-1.19 1.44-1.59c.6-.42 1.28-.72 2.04-.9.78-.18 1.61-.27 2.49-.27.7 0 1.39.05 2.07.15.7.1 1.33.31 1.89.63.56.3 1.01.73 1.35 1.29s.51 1.29.51 2.19v7.98c0 .6.03 1.04.09 1.32.08.28.32.42.72.42.22 0 .48-.05.78-.15zm-4.14-7.95c-.32.24-.74.42-1.26.54-.52.1-1.07.19-1.65.27-.56.06-1.13.14-1.71.24-.58.08-1.1.22-1.56.42s-.84.49-1.14.87c-.28.36-.42.86-.42 1.5 0 .42.08.78.24 1.08.18.28.4.51.66.69.28.18.6.31.96.39s.74.12 1.14.12c.84 0 1.56-.11 2.16-.33.6-.24 1.09-.53 1.47-.87.38-.36.66-.74.84-1.14.18-.42.27-.81.27-1.17zm12.603 10.08c-.3.76-.6 1.4-.9 1.92-.28.52-.6.94-.96 1.26-.34.34-.73.58-1.17.72-.42.16-.91.24-1.47.24-.3 0-.6-.02-.9-.06s-.59-.11-.87-.21v-2.34c.22.1.47.18.75.24.3.08.55.12.75.12.52 0 .95-.13 1.29-.39.36-.24.63-.59.81-1.05l1.05-2.61-6.15-15.42h2.88l4.53 12.69h.06l4.35-12.69h2.7zm10.47-6.96c.02.56.15 1.04.39 1.44.24.38.55.69.93.93.4.22.84.38 1.32.48.5.1 1.01.15 1.53.15.4 0 .82-.03 1.26-.09s.84-.17 1.2-.33c.38-.16.69-.39.93-.69.24-.32.36-.72.36-1.2 0-.66-.25-1.16-.75-1.5s-1.13-.61-1.89-.81c-.74-.22-1.55-.41-2.43-.57-.88-.18-1.7-.42-2.46-.72-.74-.32-1.36-.76-1.86-1.32s-.75-1.34-.75-2.34c0-.78.17-1.45.51-2.01.36-.56.81-1.01 1.35-1.35.56-.36 1.18-.62 1.86-.78.7-.18 1.39-.27 2.07-.27.88 0 1.69.08 2.43.24.74.14 1.39.4 1.95.78.58.36 1.04.86 1.38 1.5.34.62.54 1.4.6 2.34h-2.55c-.04-.5-.17-.91-.39-1.23-.22-.34-.5-.61-.84-.81s-.72-.34-1.14-.42c-.4-.1-.81-.15-1.23-.15-.38 0-.77.03-1.17.09-.38.06-.73.17-1.05.33-.32.14-.58.34-.78.6-.2.24-.3.56-.3.96 0 .44.15.81.45 1.11.32.28.72.52 1.2.72.48.18 1.02.34 1.62.48.6.12 1.2.25 1.8.39.64.14 1.26.31 1.86.51.62.2 1.16.47 1.62.81.48.32.86.73 1.14 1.23.3.5.45 1.12.45 1.86 0 .94-.2 1.72-.6 2.34-.38.62-.89 1.12-1.53 1.5-.62.38-1.33.64-2.13.78-.78.16-1.56.24-2.34.24-.86 0-1.68-.09-2.46-.27s-1.47-.47-2.07-.87c-.6-.42-1.08-.96-1.44-1.62-.36-.68-.56-1.5-.6-2.46zm35.53 4.83c-.44.26-1.05.39-1.83.39-.66 0-1.19-.18-1.59-.54-.38-.38-.57-.99-.57-1.83-.7.84-1.52 1.45-2.46 1.83-.92.36-1.92.54-3 .54-.7 0-1.37-.08-2.01-.24-.62-.16-1.16-.41-1.62-.75s-.83-.78-1.11-1.32c-.26-.56-.39-1.23-.39-2.01 0-.88.15-1.6.45-2.16s.69-1.01 1.17-1.35c.5-.36 1.06-.63 1.68-.81.64-.18 1.29-.33 1.95-.45.7-.14 1.36-.24 1.98-.3.64-.08 1.2-.18 1.68-.3.48-.14.86-.33 1.14-.57.28-.26.42-.63.42-1.11 0-.56-.11-1.01-.33-1.35-.2-.34-.47-.6-.81-.78-.32-.18-.69-.3-1.11-.36-.4-.06-.8-.09-1.2-.09-1.08 0-1.98.21-2.7.63-.72.4-1.11 1.17-1.17 2.31h-2.55c.04-.96.24-1.77.6-2.43s.84-1.19 1.44-1.59c.6-.42 1.28-.72 2.04-.9.78-.18 1.61-.27 2.49-.27.7 0 1.39.05 2.07.15.7.1 1.33.31 1.89.63.56.3 1.01.73 1.35 1.29s.51 1.29.51 2.19v7.98c0 .6.03 1.04.09 1.32.08.28.32.42.72.42.22 0 .48-.05.78-.15zm-4.14-7.95c-.32.24-.74.42-1.26.54-.52.1-1.07.19-1.65.27-.56.06-1.13.14-1.71.24-.58.08-1.1.22-1.56.42s-.84.49-1.14.87c-.28.36-.42.86-.42 1.5 0 .42.08.78.24 1.08.18.28.4.51.66.69.28.18.6.31.96.39s.74.12 1.14.12c.84 0 1.56-.11 2.16-.33.6-.24 1.09-.53 1.47-.87.38-.36.66-.74.84-1.14.18-.42.27-.81.27-1.17zm6.513-7.5h2.4v2.46h.06c1.06-1.88 2.74-2.82 5.04-2.82 1.02 0 1.87.14 2.55.42s1.23.67 1.65 1.17.71 1.1.87 1.8c.18.68.27 1.44.27 2.28v10.2h-2.55v-10.5c0-.96-.28-1.72-.84-2.28s-1.33-.84-2.31-.84c-.78 0-1.46.12-2.04.36-.56.24-1.03.58-1.41 1.02s-.67.96-.87 1.56c-.18.58-.27 1.22-.27 1.92v8.76h-2.55zm18.53 7.89c0 .72.09 1.43.27 2.13.2.68.49 1.29.87 1.83.4.54.9.97 1.5 1.29.62.32 1.34.48 2.16.48.86 0 1.59-.17 2.19-.51s1.09-.78 1.47-1.32c.38-.56.65-1.19.81-1.89.18-.7.27-1.41.27-2.13 0-.76-.09-1.49-.27-2.19-.18-.72-.47-1.35-.87-1.89-.38-.54-.88-.97-1.5-1.29-.62-.34-1.37-.51-2.25-.51-.86 0-1.59.17-2.19.51s-1.08.79-1.44 1.35-.62 1.2-.78 1.92-.24 1.46-.24 2.22zm12 7.62h-2.55v-2.1h-.06c-.42.86-1.08 1.48-1.98 1.86s-1.89.57-2.97.57c-1.2 0-2.25-.22-3.15-.66-.88-.44-1.62-1.03-2.22-1.77-.58-.74-1.02-1.6-1.32-2.58s-.45-2.02-.45-3.12.14-2.14.42-3.12c.3-.98.74-1.83 1.32-2.55.6-.74 1.34-1.32 2.22-1.74.9-.44 1.94-.66 3.12-.66.4 0 .83.04 1.29.12s.92.22 1.38.42c.46.18.89.43 1.29.75.42.3.77.68 1.05 1.14h.06v-7.98h2.55zm25.653-1.32c0 2.54-.58 4.44-1.74 5.7s-2.98 1.89-5.46 1.89c-.72 0-1.46-.08-2.22-.24-.74-.16-1.42-.42-2.04-.78-.6-.36-1.1-.83-1.5-1.41s-.62-1.29-.66-2.13h2.55c.02.46.16.85.42 1.17.28.32.61.58.99.78.4.2.83.34 1.29.42.46.1.9.15 1.32.15.84 0 1.55-.15 2.13-.45.58-.28 1.06-.68 1.44-1.2.38-.5.65-1.11.81-1.83.18-.72.27-1.51.27-2.37v-1.02h-.06c-.44.96-1.11 1.67-2.01 2.13-.88.44-1.82.66-2.82.66-1.16 0-2.17-.21-3.03-.63s-1.58-.98-2.16-1.68c-.58-.72-1.02-1.55-1.32-2.49-.28-.96-.42-1.97-.42-3.03 0-.92.12-1.86.36-2.82.24-.98.64-1.86 1.2-2.64.56-.8 1.3-1.45 2.22-1.95.92-.52 2.05-.78 3.39-.78.98 0 1.88.22 2.7.66.82.42 1.46 1.06 1.92 1.92h.03v-2.22h2.4zm-7.14-.75c.84 0 1.55-.17 2.13-.51.6-.36 1.08-.82 1.44-1.38.36-.58.62-1.23.78-1.95.18-.72.27-1.44.27-2.16 0-.68-.08-1.35-.24-2.01s-.42-1.25-.78-1.77c-.34-.54-.79-.97-1.35-1.29s-1.24-.48-2.04-.48c-.82 0-1.52.16-2.1.48-.58.3-1.06.71-1.44 1.23-.36.52-.63 1.12-.81 1.8-.16.68-.24 1.39-.24 2.13 0 .7.07 1.4.21 2.1s.38 1.34.72 1.92c.34.56.79 1.02 1.35 1.38.56.34 1.26.51 2.1.51zm21.757-7.17c-.04-.6-.18-1.17-.42-1.71-.22-.54-.53-1-.93-1.38-.38-.4-.84-.71-1.38-.93-.52-.24-1.1-.36-1.74-.36-.66 0-1.26.12-1.8.36-.52.22-.97.53-1.35.93s-.68.87-.9 1.41c-.22.52-.35 1.08-.39 1.68zm2.46 4.32c-.34 1.74-1.09 3.05-2.25 3.93s-2.62 1.32-4.38 1.32c-1.24 0-2.32-.2-3.24-.6-.9-.4-1.66-.96-2.28-1.68s-1.09-1.58-1.41-2.58c-.3-1-.47-2.09-.51-3.27 0-1.18.18-2.26.54-3.24s.86-1.83 1.5-2.55c.66-.72 1.43-1.28 2.31-1.68.9-.4 1.88-.6 2.94-.6 1.38 0 2.52.29 3.42.87.92.56 1.65 1.28 2.19 2.16.56.88.94 1.84 1.14 2.88.22 1.04.31 2.03.27 2.97h-11.61c-.02.68.06 1.33.24 1.95.18.6.47 1.14.87 1.62.4.46.91.83 1.53 1.11s1.35.42 2.19.42c1.08 0 1.96-.25 2.64-.75.7-.5 1.16-1.26 1.38-2.28zm6.423-10.59h3.09v2.25h-3.09v9.63c0 .3.02.54.06.72.06.18.16.32.3.42s.33.17.57.21c.26.02.59.03.99.03h1.17v2.25h-1.95c-.66 0-1.23-.04-1.71-.12-.46-.1-.84-.27-1.14-.51-.28-.24-.49-.58-.63-1.02s-.21-1.02-.21-1.74v-9.87h-2.64v-2.25h2.64v-4.65h2.55z" fill="#373636"/><g fill="#bd0000"><path d="m159.231 124.112c-.088-2.648.221-5.098.927-7.349.706-2.296 1.766-4.282 3.178-5.96 1.413-1.721 3.178-3.045 5.297-3.972 2.163-.971 4.635-1.457 7.416-1.457 2.119 0 4.127.331 6.025.993 1.943.662 3.642 1.611 5.099 2.847s2.604 2.759 3.443 4.569c.883 1.81 1.324 3.84 1.324 6.092 0 2.339-.375 4.348-1.125 6.025-.751 1.677-1.744 3.178-2.98 4.502-1.236 1.281-2.649 2.45-4.238 3.51-1.545 1.059-3.112 2.119-4.701 3.178-1.589 1.015-3.134 2.119-4.635 3.311-1.5 1.191-2.825 2.582-3.972 4.171h21.916v8.078h-34.033c0-2.693.375-5.032 1.125-7.019.795-1.986 1.854-3.752 3.178-5.297 1.325-1.589 2.87-3.045 4.635-4.37 1.81-1.324 3.708-2.67 5.695-4.039 1.015-.706 2.096-1.412 3.244-2.118 1.148-.751 2.185-1.567 3.112-2.45.971-.883 1.766-1.876 2.384-2.98.662-1.103.993-2.361.993-3.774 0-2.251-.662-3.995-1.986-5.231-1.281-1.28-2.936-1.92-4.966-1.92-1.369 0-2.539.331-3.51.993-.927.618-1.677 1.457-2.251 2.516-.574 1.016-.993 2.163-1.258 3.443-.221 1.236-.331 2.472-.331 3.708zm67.449-10.064h-19.136l-1.854 10.528.133.132c1.28-1.28 2.648-2.185 4.105-2.715 1.456-.573 3.112-.86 4.966-.86 2.295 0 4.326.419 6.091 1.258 1.766.838 3.245 1.964 4.437 3.377 1.236 1.412 2.163 3.09 2.781 5.032.662 1.898.993 3.928.993 6.091 0 2.384-.464 4.613-1.391 6.688-.927 2.03-2.185 3.796-3.774 5.297-1.545 1.501-3.355 2.67-5.429 3.509-2.075.795-4.282 1.17-6.622 1.126-2.251 0-4.414-.287-6.488-.861-2.031-.618-3.841-1.545-5.43-2.781s-2.869-2.759-3.84-4.569c-.927-1.854-1.413-3.994-1.457-6.422h9.402c.221 2.119 1.016 3.818 2.384 5.098 1.368 1.236 3.112 1.854 5.231 1.854 1.236 0 2.339-.243 3.31-.728 1.016-.53 1.854-1.192 2.516-1.987.707-.838 1.236-1.787 1.59-2.847.397-1.103.596-2.229.596-3.377 0-1.191-.177-2.317-.53-3.377-.353-1.059-.883-1.986-1.589-2.78-.707-.795-1.545-1.413-2.516-1.854-.971-.442-2.097-.663-3.377-.663-1.678 0-3.046.309-4.105.927-1.06.574-2.053 1.501-2.98 2.781h-8.475l4.568-25.624h25.89z"/><path d="m141.71 122.682c-.021 1.168.287 2.091.922 2.767s1.425 1.107 2.367 1.291v-6.425c-.102-.041-.246-.082-.43-.123-.164-.062-.348-.113-.553-.154-.759-.205-1.507-.441-2.245-.707-.738-.287-1.404-.656-1.998-1.107-.574-.471-1.035-1.045-1.383-1.721-.349-.697-.523-1.558-.523-2.583 0-1.045.195-1.967.584-2.767.41-.799.943-1.465 1.599-1.998.656-.553 1.414-.974 2.275-1.261.861-.307 1.752-.491 2.674-.553v-2.367h1.814v2.367c.923.103 1.783.308 2.583.615.82.287 1.537.697 2.152 1.23.615.512 1.117 1.158 1.506 1.937.39.778.615 1.701.677 2.766h-4.366c-.021-.819-.277-1.516-.769-2.09s-1.086-.861-1.783-.861v5.442c.246.061.492.123.738.184.267.062.543.133.83.215 1.517.41 2.685.923 3.505 1.537.82.595 1.424 1.22 1.814 1.876.389.656.615 1.312.676 1.967.082.656.123 1.24.123 1.753 0 .451-.113 1.025-.338 1.721-.226.677-.635 1.343-1.23 1.999-.574.656-1.353 1.24-2.336 1.752-.984.513-2.245.82-3.782.922v2.614h-1.814v-2.614c-2.295-.164-4.089-.871-5.38-2.121s-2.039-3.084-2.244-5.503zm5.103 4.058c.369-.041.748-.123 1.138-.246.41-.143.768-.338 1.076-.584.328-.246.594-.543.799-.891.205-.369.308-.8.308-1.292 0-.799-.257-1.393-.769-1.783-.492-.41-1.343-.779-2.552-1.107zm-1.814-15.802c-.348 0-.686.051-1.014.154-.328.102-.625.266-.892.492-.266.205-.481.471-.645.799-.144.307-.216.676-.216 1.107 0 .676.216 1.199.646 1.568s1.138.666 2.121.891z"/><path d="m241.207 141.438c0 .956.093 1.897.278 2.823.185.894.493 1.712.925 2.452.463.71 1.065 1.281 1.805 1.713.741.432 1.666.648 2.777.648s2.036-.216 2.777-.648c.771-.432 1.373-1.003 1.805-1.713.462-.74.786-1.558.971-2.452.185-.926.278-1.867.278-2.823 0-.957-.093-1.898-.278-2.823-.185-.926-.509-1.743-.971-2.453-.432-.71-1.034-1.28-1.805-1.712-.741-.463-1.666-.695-2.777-.695s-2.036.232-2.777.695c-.74.432-1.342 1.002-1.805 1.712-.432.71-.74 1.527-.925 2.453-.185.925-.278 1.866-.278 2.823zm-6.571 0c0-1.913.293-3.641.879-5.183.586-1.574 1.419-2.901 2.499-3.98 1.08-1.111 2.376-1.96 3.887-2.546 1.512-.617 3.209-.925 5.091-.925s3.579.308 5.091.925c1.542.586 2.853 1.435 3.933 2.546 1.08 1.079 1.913 2.406 2.499 3.98.586 1.542.88 3.27.88 5.183s-.294 3.64-.88 5.183-1.419 2.869-2.499 3.98c-1.08 1.08-2.391 1.913-3.933 2.499-1.512.586-3.209.879-5.091.879s-3.579-.293-5.091-.879c-1.511-.586-2.807-1.419-3.887-2.499-1.08-1.111-1.913-2.437-2.499-3.98s-.879-3.27-.879-5.183zm43.1-7.59h-7.451v19.53h-6.571v-19.53h-3.934v-4.396h3.934v-1.852c0-2.128.663-3.872 1.99-5.229 1.326-1.358 3.332-2.036 6.016-2.036.586 0 1.172.031 1.758.092.587.031 1.157.062 1.713.093v4.905c-.802-.092-1.605-.139-2.407-.139-.894 0-1.542.216-1.943.648-.371.401-.556 1.096-.556 2.083v1.435h7.451v-1.852c0-2.128.663-3.872 1.99-5.229 1.327-1.358 3.332-2.036 6.016-2.036.586 0 1.173.031 1.759.092.586.031 1.157.062 1.712.093v4.905c-.802-.092-1.604-.139-2.406-.139-.895 0-1.543.216-1.944.648-.37.401-.555 1.096-.555 2.083v1.435h4.535v4.396h-4.535v19.53h-6.572z"/></g><path d="m299.397 129.498h3.101l7.867 20.362 7.359-20.362h2.915l-10.366 27.489c-.432 1.018-.833 1.851-1.203 2.499-.371.679-.787 1.204-1.25 1.574-.432.401-.956.679-1.573.833-.587.185-1.342.278-2.268.278-.586-.031-1.049-.062-1.388-.093-.309 0-.587-.046-.833-.139v-2.453c.339.062.663.108.971.139.34.062.679.093 1.019.093.647 0 1.172-.093 1.573-.278.432-.185.802-.447 1.111-.787.308-.308.57-.694.786-1.157.216-.462.448-.971.695-1.527l1.018-2.684zm32.807 1.758c-1.389 0-2.607.294-3.656.88s-1.928 1.357-2.638 2.314c-.679.956-1.203 2.051-1.574 3.285-.339 1.204-.509 2.438-.509 3.703s.17 2.514.509 3.748c.371 1.204.895 2.283 1.574 3.24.71.956 1.589 1.728 2.638 2.314s2.267.879 3.656.879c1.388 0 2.607-.293 3.656-.879s1.913-1.358 2.591-2.314c.71-.957 1.235-2.036 1.574-3.24.37-1.234.555-2.483.555-3.748s-.185-2.499-.555-3.703c-.339-1.234-.864-2.329-1.574-3.285-.678-.957-1.542-1.728-2.591-2.314s-2.268-.88-3.656-.88zm0-2.452c1.82 0 3.424.339 4.813 1.018 1.419.679 2.607 1.589 3.563 2.73.957 1.142 1.682 2.484 2.175 4.026.494 1.512.741 3.132.741 4.86 0 1.727-.247 3.363-.741 4.905-.493 1.512-1.218 2.839-2.175 3.98-.956 1.142-2.144 2.052-3.563 2.731-1.389.648-2.993.971-4.813.971s-3.44-.323-4.859-.971c-1.389-.679-2.561-1.589-3.518-2.731-.956-1.141-1.681-2.468-2.175-3.98-.493-1.542-.74-3.178-.74-4.905 0-1.728.247-3.348.74-4.86.494-1.542 1.219-2.884 2.175-4.026.957-1.141 2.129-2.051 3.518-2.73 1.419-.679 3.039-1.018 4.859-1.018zm33.583 24.574h-2.685v-4.304h-.092c-.771 1.604-1.898 2.838-3.378 3.702-1.451.833-3.07 1.249-4.86 1.249-1.512 0-2.807-.215-3.887-.647-1.049-.401-1.913-.988-2.592-1.759-.648-.771-1.126-1.712-1.434-2.823-.309-1.111-.463-2.376-.463-3.795v-15.503h2.915v15.549c.062 2.16.556 3.795 1.481 4.906.957 1.111 2.592 1.666 4.906 1.666 1.265 0 2.345-.262 3.239-.787.895-.555 1.636-1.28 2.222-2.175s1.018-1.913 1.296-3.054c.277-1.173.416-2.36.416-3.564v-12.541h2.916zm4.123-23.88h2.685v5.6h.092c.741-1.944 1.882-3.44 3.425-4.489 1.573-1.049 3.44-1.528 5.599-1.435v2.915c-1.326-.061-2.529.124-3.609.556-1.08.401-2.021.987-2.823 1.758-.772.772-1.373 1.697-1.805 2.777-.432 1.049-.648 2.206-.648 3.471v12.727h-2.916zm36.734-9.163h2.916v4.674h-2.916zm-10.459 11.616h-4.072v-2.453h4.072v-2.175c0-1.018.077-1.959.231-2.823.155-.864.448-1.605.88-2.222s1.018-1.095 1.758-1.434c.772-.34 1.744-.509 2.916-.509.432 0 .833.015 1.203.046s.787.077 1.25.139v2.499c-.401-.062-.772-.108-1.111-.139-.339-.062-.679-.093-1.018-.093-.802 0-1.419.124-1.851.371-.432.246-.756.586-.972 1.018-.185.401-.293.879-.324 1.434-.031.556-.046 1.157-.046 1.805v2.083h4.72v2.453h-4.72v21.427h-2.916zm10.459-2.453h2.916v23.88h-2.916zm7.142 0h2.685v5.6h.092c.741-1.944 1.882-3.44 3.425-4.489 1.573-1.049 3.44-1.528 5.6-1.435v2.915c-1.327-.061-2.53.124-3.61.556-1.08.401-2.021.987-2.823 1.758-.771.772-1.373 1.697-1.805 2.777-.432 1.049-.648 2.206-.648 3.471v12.727h-2.916zm27.51 6.988c-.031-.895-.216-1.666-.555-2.314-.34-.679-.803-1.234-1.389-1.666-.555-.432-1.203-.741-1.944-.926-.74-.216-1.527-.324-2.36-.324-.648 0-1.311.078-1.99.232-.648.123-1.249.355-1.805.694-.555.309-1.002.725-1.342 1.25-.339.524-.509 1.172-.509 1.943 0 .648.155 1.203.463 1.666.339.432.756.802 1.25 1.111.493.308 1.033.571 1.619.787.587.185 1.126.339 1.62.462l3.887.88c.834.123 1.651.355 2.453.694.833.308 1.558.725 2.175 1.249.648.525 1.173 1.173 1.574 1.944s.601 1.682.601 2.731c0 1.295-.293 2.406-.879 3.332-.586.894-1.342 1.635-2.268 2.221-.894.555-1.912.956-3.054 1.203-1.141.247-2.268.37-3.378.37-2.808 0-5.091-.663-6.849-1.989-1.728-1.327-2.715-3.456-2.962-6.387h2.915c.124 1.975.833 3.471 2.129 4.489 1.327.987 2.962 1.481 4.906 1.481.709 0 1.434-.077 2.175-.231.771-.155 1.481-.417 2.129-.787.647-.37 1.172-.833 1.573-1.388.432-.587.648-1.296.648-2.129 0-.71-.154-1.296-.463-1.759-.278-.494-.663-.895-1.157-1.203-.493-.34-1.064-.617-1.712-.833-.617-.216-1.25-.401-1.898-.555l-3.748-.833c-.957-.247-1.836-.525-2.638-.834-.802-.339-1.512-.74-2.129-1.203-.586-.493-1.049-1.08-1.388-1.758-.34-.71-.509-1.574-.509-2.592 0-1.203.262-2.237.786-3.101.556-.863 1.265-1.558 2.129-2.082.864-.525 1.821-.91 2.87-1.157 1.079-.247 2.144-.37 3.193-.37 1.203 0 2.314.154 3.332.462 1.049.309 1.959.787 2.73 1.435.802.648 1.435 1.45 1.898 2.407.462.956.725 2.082.786 3.378zm11.22-6.988h4.859v2.453h-4.859v16.105c0 .956.123 1.712.37 2.267.278.525.941.818 1.99.879.833 0 1.666-.046 2.499-.138v2.452c-.432 0-.864.016-1.296.047s-.864.046-1.295.046c-1.944 0-3.302-.37-4.073-1.111-.771-.771-1.142-2.175-1.111-4.211v-16.336h-4.165v-2.453h4.165v-7.173h2.916z" fill="#5a5a5a"/><path d="m76.9012 213h-9.4022v-30.061h-11.6535v-7.084c1.6333.044 3.2003-.067 4.7011-.331 1.545-.309 2.9134-.817 4.1052-1.523 1.236-.751 2.2733-1.722 3.112-2.914s1.3905-2.67 1.6553-4.436h7.4821zm13.6838-23.373c0 1.324.0441 2.935.1324 4.833.0883 1.854.3532 3.664.7946 5.43.4855 1.721 1.236 3.2 2.2512 4.436 1.0153 1.236 2.472 1.854 4.3701 1.854 1.9427 0 3.4207-.618 4.4367-1.854 1.059-1.236 1.809-2.715 2.251-4.436.485-1.766.772-3.576.861-5.43.088-1.898.132-3.509.132-4.833 0-.795-.022-1.744-.066-2.847 0-1.148-.089-2.318-.265-3.51-.133-1.191-.353-2.361-.662-3.509-.265-1.192-.684-2.251-1.258-3.178s-1.302-1.677-2.185-2.251-1.9646-.861-3.2447-.861c-1.2802 0-2.3616.287-3.2445.861-.8387.574-1.5449 1.324-2.1188 2.251-.5297.927-.949 1.986-1.258 3.178-.309 1.148-.5297 2.318-.6621 3.509-.1325 1.192-.2208 2.362-.2649 3.51zm-9.4022 0c0-4.503.4414-8.277 1.3242-11.322.927-3.09 2.163-5.562 3.708-7.416 1.5449-1.854 3.3327-3.179 5.3632-3.973 2.0747-.795 4.2597-1.192 6.5551-1.192 2.3397 0 4.5247.397 6.5547 1.192 2.075.794 3.885 2.119 5.43 3.973 1.589 1.854 2.825 4.326 3.708 7.416.927 3.045 1.39 6.819 1.39 11.322 0 4.635-.463 8.519-1.39 11.653-.883 3.09-2.119 5.562-3.708 7.416-1.545 1.854-3.355 3.178-5.43 3.973-2.03.795-4.215 1.192-6.5547 1.192-2.2954 0-4.4804-.397-6.5551-1.192-2.0305-.795-3.8183-2.119-5.3632-3.973-1.545-1.854-2.781-4.326-3.708-7.416-.8828-3.134-1.3242-7.018-1.3242-11.653zm46.8562 0c0 1.324.044 2.935.133 4.833.088 1.854.353 3.664.794 5.43.486 1.721 1.236 3.2 2.251 4.436 1.016 1.236 2.472 1.854 4.37 1.854 1.943 0 3.421-.618 4.437-1.854 1.059-1.236 1.81-2.715 2.251-4.436.486-1.766.772-3.576.861-5.43.088-1.898.132-3.509.132-4.833 0-.795-.022-1.744-.066-2.847 0-1.148-.088-2.318-.265-3.51-.132-1.191-.353-2.361-.662-3.509-.265-1.192-.684-2.251-1.258-3.178s-1.302-1.677-2.185-2.251-1.964-.861-3.245-.861c-1.28 0-2.361.287-3.244.861-.839.574-1.545 1.324-2.119 2.251-.529.927-.949 1.986-1.258 3.178-.309 1.148-.53 2.318-.662 3.509-.132 1.192-.221 2.362-.265 3.51zm-9.402 0c0-4.503.441-8.277 1.324-11.322.927-3.09 2.163-5.562 3.708-7.416s3.333-3.179 5.363-3.973c2.075-.795 4.26-1.192 6.555-1.192 2.34 0 4.525.397 6.556 1.192 2.074.794 3.884 2.119 5.429 3.973 1.589 1.854 2.825 4.326 3.708 7.416.927 3.045 1.39 6.819 1.39 11.322 0 4.635-.463 8.519-1.39 11.653-.883 3.09-2.119 5.562-3.708 7.416-1.545 1.854-3.355 3.178-5.429 3.973-2.031.795-4.216 1.192-6.556 1.192-2.295 0-4.48-.397-6.555-1.192-2.03-.795-3.818-2.119-5.363-3.973s-2.781-4.326-3.708-7.416c-.883-3.134-1.324-7.018-1.324-11.653z" fill="#bd0000"/><path d="m36.7098 183.032c-.0205 1.168.287 2.091.9223 2.767.6354.676 1.4245 1.107 2.3673 1.291v-6.425c-.1025-.041-.246-.082-.4304-.123-.164-.062-.3485-.113-.5534-.154-.7584-.205-1.5064-.441-2.2443-.707-.7378-.287-1.4039-.656-1.9983-1.107-.5739-.471-1.035-1.045-1.3835-1.721-.3484-.697-.5226-1.558-.5226-2.583 0-1.045.1947-1.967.5841-2.767.4099-.799.9428-1.465 1.5987-1.998.6558-.553 1.4142-.974 2.275-1.261.8608-.307 1.7524-.491 2.6747-.553v-2.367h1.8138v2.367c.9223.103 1.7832.307 2.5825.615.8198.287 1.5372.697 2.152 1.23.6149.512 1.117 1.158 1.5065 1.937.3894.778.6148 1.701.6763 2.766h-4.3656c-.0205-.819-.2766-1.516-.7685-2.09s-1.0863-.861-1.7832-.861v5.442c.246.061.4919.123.7379.184.2664.062.5431.133.8301.215 1.5166.41 2.6849.923 3.5047 1.537.8198.595 1.4245 1.22 1.8139 1.876s.6148 1.312.6763 1.967c.082.656.123 1.24.123 1.753 0 .451-.1127 1.025-.3382 1.721-.2254.677-.6353 1.343-1.2297 1.999-.5739.656-1.3527 1.24-2.3365 1.752-.9838.513-2.2443.82-3.7815.922v2.614h-1.8138v-2.614c-2.2955-.164-4.0889-.871-5.3801-2.121-1.2913-1.25-2.0393-3.084-2.2443-5.503zm5.1034 4.058c.369-.041.7481-.123 1.1375-.246.41-.143.7686-.338 1.0761-.584.3279-.246.5943-.543.7993-.891.205-.369.3074-.8.3074-1.292 0-.799-.2562-1.393-.7686-1.783-.4919-.41-1.3424-.779-2.5517-1.107zm-1.8138-15.802c-.3485 0-.6866.051-1.0146.154-.3279.102-.6251.266-.8915.492-.2665.205-.4817.471-.6456.799-.1435.307-.2152.676-.2152 1.107 0 .676.2152 1.199.6456 1.568s1.1375.666 2.1213.891z" fill="#bd0000"/><path d="m167.883 189.593h6.118v3.289h-6.118v6.118h-3.289v-6.118h-6.118v-3.289h6.118v-6.118h3.289z" fill="#bd0000"/><path d="m196.988 187.484c-1.388 0-2.607.293-3.656.879-1.048.586-1.928 1.358-2.637 2.314-.679.956-1.204 2.052-1.574 3.286-.339 1.203-.509 2.437-.509 3.702s.17 2.515.509 3.749c.37 1.203.895 2.283 1.574 3.239.709.957 1.589 1.728 2.637 2.314 1.049.586 2.268.879 3.656.879 1.389 0 2.608-.293 3.657-.879 1.048-.586 1.912-1.357 2.591-2.314.71-.956 1.234-2.036 1.574-3.239.37-1.234.555-2.484.555-3.749s-.185-2.499-.555-3.702c-.34-1.234-.864-2.33-1.574-3.286-.679-.956-1.543-1.728-2.591-2.314-1.049-.586-2.268-.879-3.657-.879zm0-2.453c1.821 0 3.425.339 4.813 1.018 1.42.679 2.608 1.589 3.564 2.731.956 1.141 1.681 2.483 2.175 4.026.494 1.512.74 3.131.74 4.859s-.246 3.363-.74 4.906c-.494 1.511-1.219 2.838-2.175 3.98-.956 1.141-2.144 2.051-3.564 2.73-1.388.648-2.992.972-4.813.972-1.82 0-3.44-.324-4.859-.972-1.388-.679-2.561-1.589-3.517-2.73-.956-1.142-1.681-2.469-2.175-3.98-.494-1.543-.74-3.178-.74-4.906s.246-3.347.74-4.859c.494-1.543 1.219-2.885 2.175-4.026.956-1.142 2.129-2.052 3.517-2.731 1.419-.679 3.039-1.018 4.859-1.018zm11.555.694h3.239l7.497 20.964h.093l7.404-20.964h3.008l-8.931 23.88h-3.101zm39.887 10.274c-.031-1.111-.232-2.175-.602-3.193-.339-1.018-.833-1.913-1.481-2.684-.648-.803-1.434-1.435-2.36-1.898-.926-.493-1.975-.74-3.147-.74-1.203 0-2.268.247-3.193.74-.926.463-1.713 1.095-2.36 1.898-.648.771-1.173 1.681-1.574 2.73-.37 1.018-.617 2.067-.74 3.147zm-15.457 2.453c0 1.049.138 2.144.416 3.286.309 1.11.787 2.113 1.435 3.008.648.894 1.465 1.635 2.453 2.221.987.586 2.175.879 3.563.879 2.129 0 3.795-.555 4.998-1.666 1.203-1.11 2.036-2.591 2.499-4.442h2.916c-.617 2.715-1.759 4.813-3.425 6.293-1.635 1.481-3.964 2.222-6.988 2.222-1.882 0-3.517-.324-4.906-.972-1.357-.679-2.468-1.589-3.332-2.73-.863-1.173-1.511-2.515-1.943-4.027-.401-1.542-.602-3.162-.602-4.859 0-1.573.201-3.116.602-4.628.432-1.512 1.08-2.854 1.943-4.026.864-1.203 1.975-2.16 3.332-2.869 1.389-.741 3.024-1.111 4.906-1.111 1.913 0 3.548.386 4.906 1.157 1.357.771 2.452 1.789 3.285 3.054.864 1.234 1.481 2.669 1.851 4.304.371 1.605.525 3.24.463 4.906zm20.897-12.727h2.684v5.6h.093c.74-1.944 1.882-3.44 3.424-4.489 1.574-1.049 3.44-1.527 5.6-1.435v2.916c-1.327-.062-2.53.123-3.61.555-1.08.401-2.021.987-2.823 1.759-.771.771-1.373 1.697-1.805 2.776-.432 1.049-.647 2.206-.647 3.471v12.727h-2.916zm27.509 6.988c-.031-.894-.216-1.666-.555-2.314-.339-.678-.802-1.234-1.388-1.666-.556-.432-1.204-.74-1.944-.925-.741-.216-1.527-.324-2.36-.324-.648 0-1.312.077-1.99.231-.648.124-1.25.355-1.805.694-.555.309-1.003.725-1.342 1.25-.34.524-.509 1.172-.509 1.944 0 .647.154 1.203.463 1.666.339.432.755.802 1.249 1.11.494.309 1.034.571 1.62.787.586.185 1.126.339 1.62.463l3.887.879c.833.124 1.651.355 2.453.694.833.309 1.558.725 2.175 1.25.648.524 1.172 1.172 1.573 1.943.401.772.602 1.682.602 2.731 0 1.296-.293 2.406-.879 3.332-.587.895-1.342 1.635-2.268 2.221-.895.556-1.913.957-3.054 1.204-1.142.246-2.268.37-3.379.37-2.807 0-5.09-.663-6.849-1.99-1.728-1.327-2.715-3.456-2.962-6.387h2.916c.123 1.975.833 3.471 2.129 4.489 1.326.988 2.961 1.481 4.905 1.481.71 0 1.435-.077 2.175-.231.771-.154 1.481-.417 2.129-.787s1.172-.833 1.573-1.388c.432-.586.648-1.296.648-2.129 0-.71-.154-1.296-.462-1.759-.278-.493-.664-.894-1.157-1.203-.494-.339-1.065-.617-1.713-.833-.617-.216-1.249-.401-1.897-.555l-3.749-.833c-.956-.247-1.835-.525-2.638-.833-.802-.34-1.511-.741-2.128-1.203-.587-.494-1.049-1.08-1.389-1.759-.339-.71-.509-1.573-.509-2.592 0-1.203.262-2.236.787-3.1.555-.864 1.265-1.558 2.129-2.083.864-.524 1.82-.91 2.869-1.157 1.08-.247 2.144-.37 3.193-.37 1.203 0 2.314.154 3.332.463 1.049.308 1.959.787 2.731 1.434.802.648 1.434 1.45 1.897 2.407.463.956.725 2.082.787 3.378zm11.22-6.988h4.86v2.453h-4.86v16.105c0 .956.124 1.712.371 2.268.277.524.941.817 1.99.879.833 0 1.666-.046 2.499-.139v2.453c-.432 0-.864.015-1.296.046s-.864.046-1.296.046c-1.944 0-3.301-.37-4.073-1.11-.771-.772-1.141-2.175-1.11-4.212v-16.336h-4.165v-2.453h4.165v-7.173h2.915zm17.767 1.759c-1.389 0-2.607.293-3.656.879s-1.929 1.358-2.638 2.314c-.679.956-1.203 2.052-1.574 3.286-.339 1.203-.509 2.437-.509 3.702s.17 2.515.509 3.749c.371 1.203.895 2.283 1.574 3.239.709.957 1.589 1.728 2.638 2.314s2.267.879 3.656.879c1.388 0 2.607-.293 3.656-.879s1.913-1.357 2.591-2.314c.71-.956 1.234-2.036 1.574-3.239.37-1.234.555-2.484.555-3.749s-.185-2.499-.555-3.702c-.34-1.234-.864-2.33-1.574-3.286-.678-.956-1.542-1.728-2.591-2.314s-2.268-.879-3.656-.879zm0-2.453c1.82 0 3.424.339 4.813 1.018 1.419.679 2.607 1.589 3.563 2.731.956 1.141 1.682 2.483 2.175 4.026.494 1.512.741 3.131.741 4.859s-.247 3.363-.741 4.906c-.493 1.511-1.219 2.838-2.175 3.98-.956 1.141-2.144 2.051-3.563 2.73-1.389.648-2.993.972-4.813.972-1.821 0-3.44-.324-4.86-.972-1.388-.679-2.56-1.589-3.517-2.73-.956-1.142-1.681-2.469-2.175-3.98-.494-1.543-.74-3.178-.74-4.906s.246-3.347.74-4.859c.494-1.543 1.219-2.885 2.175-4.026.957-1.142 2.129-2.052 3.517-2.731 1.42-.679 3.039-1.018 4.86-1.018zm31.083 8.191c-.401-1.789-1.141-3.193-2.221-4.211s-2.592-1.527-4.535-1.527c-1.389 0-2.607.293-3.656.879s-1.929 1.358-2.638 2.314c-.679.956-1.203 2.052-1.574 3.286-.339 1.203-.509 2.437-.509 3.702s.17 2.515.509 3.749c.371 1.203.895 2.283 1.574 3.239.709.957 1.589 1.728 2.638 2.314s2.267.879 3.656.879c.894 0 1.743-.169 2.545-.509.802-.339 1.512-.802 2.129-1.388.617-.617 1.126-1.342 1.527-2.175s.648-1.743.74-2.731h2.916c-.401 2.901-1.466 5.168-3.193 6.803-1.728 1.605-3.949 2.407-6.664 2.407-1.821 0-3.44-.324-4.86-.972-1.388-.679-2.56-1.589-3.517-2.73-.956-1.142-1.681-2.469-2.175-3.98-.494-1.543-.74-3.178-.74-4.906s.246-3.347.74-4.859c.494-1.543 1.219-2.885 2.175-4.026.957-1.142 2.129-2.052 3.517-2.731 1.42-.679 3.039-1.018 4.86-1.018 2.56 0 4.72.679 6.479 2.036 1.789 1.358 2.853 3.409 3.193 6.155zm5.765-16.66h2.915v20.733l13.236-11.57h3.887l-10.181 8.839 10.875 15.041h-3.656l-9.441-13.004-4.72 3.933v9.071h-2.915zm33.242 9.163h2.685v4.535h.092c.679-1.666 1.774-2.946 3.286-3.841 1.543-.925 3.286-1.388 5.229-1.388 1.821 0 3.394.339 4.721 1.018 1.357.679 2.483 1.604 3.378 2.777.895 1.141 1.558 2.483 1.99 4.026.432 1.512.648 3.116.648 4.813s-.216 3.317-.648 4.859c-.432 1.512-1.095 2.854-1.99 4.027-.895 1.141-2.021 2.051-3.378 2.73-1.327.648-2.9.972-4.721.972-.863 0-1.727-.108-2.591-.324s-1.666-.54-2.407-.972c-.74-.432-1.404-.972-1.99-1.62-.555-.648-.987-1.404-1.296-2.267h-.092v13.328h-2.916zm19.113 11.94c0-1.234-.154-2.453-.462-3.656-.278-1.234-.741-2.329-1.389-3.286-.617-.956-1.419-1.727-2.406-2.314-.987-.617-2.175-.925-3.564-.925-1.604 0-2.946.277-4.026.833-1.08.555-1.944 1.296-2.591 2.221-.648.926-1.111 2.006-1.389 3.24-.247 1.234-.37 2.53-.37 3.887 0 1.234.139 2.468.416 3.702.309 1.204.787 2.283 1.435 3.24.679.956 1.543 1.743 2.592 2.36 1.08.586 2.391.879 3.933.879 1.389 0 2.577-.293 3.564-.879.987-.617 1.789-1.404 2.406-2.36.648-.957 1.111-2.036 1.389-3.24.308-1.234.462-2.468.462-3.702zm25.418 11.94h-2.685v-4.304h-.092c-.771 1.604-1.898 2.838-3.379 3.702-1.45.833-3.069 1.25-4.859 1.25-1.512 0-2.807-.216-3.887-.648-1.049-.401-1.913-.987-2.592-1.759-.648-.771-1.126-1.712-1.434-2.823-.309-1.11-.463-2.375-.463-3.794v-15.504h2.915v15.55c.062 2.159.556 3.795 1.481 4.905.957 1.111 2.592 1.666 4.906 1.666 1.265 0 2.345-.262 3.239-.786.895-.556 1.635-1.281 2.222-2.175.586-.895 1.018-1.913 1.295-3.055.278-1.172.417-2.36.417-3.563v-12.542h2.916zm4.123-23.88h2.685v5.6h.092c.741-1.944 1.882-3.44 3.425-4.489 1.573-1.049 3.44-1.527 5.599-1.435v2.916c-1.326-.062-2.529.123-3.609.555-1.08.401-2.021.987-2.823 1.759-.772.771-1.373 1.697-1.805 2.776-.432 1.049-.648 2.206-.648 3.471v12.727h-2.916zm29.242 7.497c-.401-1.789-1.142-3.193-2.222-4.211s-2.591-1.527-4.535-1.527c-1.388 0-2.607.293-3.656.879s-1.928 1.358-2.638 2.314c-.679.956-1.203 2.052-1.573 3.286-.34 1.203-.51 2.437-.51 3.702s.17 2.515.51 3.749c.37 1.203.894 2.283 1.573 3.239.71.957 1.589 1.728 2.638 2.314s2.268.879 3.656.879c.895 0 1.743-.169 2.545-.509.802-.339 1.512-.802 2.129-1.388.617-.617 1.126-1.342 1.527-2.175s.648-1.743.741-2.731h2.915c-.401 2.901-1.465 5.168-3.193 6.803-1.728 1.605-3.949 2.407-6.664 2.407-1.82 0-3.44-.324-4.859-.972-1.389-.679-2.561-1.589-3.518-2.73-.956-1.142-1.681-2.469-2.175-3.98-.493-1.543-.74-3.178-.74-4.906s.247-3.347.74-4.859c.494-1.543 1.219-2.885 2.175-4.026.957-1.142 2.129-2.052 3.518-2.731 1.419-.679 3.039-1.018 4.859-1.018 2.561 0 4.72.679 6.479 2.036 1.789 1.358 2.854 3.409 3.193 6.155zm5.718-16.66h2.915v13.282h.093c.555-1.45 1.542-2.607 2.961-3.471 1.42-.895 2.978-1.342 4.675-1.342 1.666 0 3.054.216 4.165.648 1.141.432 2.051 1.049 2.73 1.851.679.771 1.157 1.728 1.435 2.869.277 1.142.416 2.422.416 3.841v15.365h-2.915v-14.902c0-1.018-.093-1.959-.278-2.823-.185-.894-.509-1.666-.972-2.314s-1.095-1.157-1.897-1.527c-.772-.37-1.743-.555-2.916-.555-1.172 0-2.221.216-3.147.648-.894.401-1.666.972-2.314 1.712-.617.71-1.11 1.573-1.481 2.592-.339.987-.524 2.067-.555 3.239v13.93h-2.915zm23.236 16.475c.093-1.388.386-2.591.88-3.61.493-1.018 1.157-1.851 1.99-2.499.864-.647 1.866-1.126 3.008-1.434 1.141-.309 2.406-.463 3.795-.463 1.049 0 2.098.108 3.147.324 1.049.185 1.99.555 2.823 1.111.833.555 1.511 1.342 2.036 2.36.524.987.787 2.283.787 3.887v12.681c0 1.172.57 1.758 1.712 1.758.339 0 .648-.062.925-.185v2.453c-.339.062-.647.108-.925.139-.247.031-.571.046-.972.046-.74 0-1.342-.093-1.805-.278-.432-.216-.771-.509-1.018-.879s-.416-.802-.509-1.296c-.062-.524-.093-1.095-.093-1.712h-.092c-.525.771-1.065 1.465-1.62 2.082-.524.587-1.126 1.08-1.805 1.481-.648.401-1.404.71-2.267.926-.833.216-1.836.324-3.008.324-1.111 0-2.16-.139-3.147-.417-.957-.246-1.805-.648-2.546-1.203-.709-.586-1.28-1.311-1.712-2.175-.401-.895-.602-1.944-.602-3.147 0-1.666.371-2.962 1.111-3.887.74-.957 1.712-1.682 2.916-2.175 1.234-.494 2.607-.833 4.118-1.019 1.543-.216 3.101-.416 4.674-.601.618-.062 1.157-.139 1.62-.232.463-.092.849-.246 1.157-.462.309-.247.54-.571.694-.972.186-.401.278-.926.278-1.574 0-.987-.17-1.789-.509-2.406-.309-.648-.756-1.157-1.342-1.527-.555-.371-1.219-.617-1.99-.741-.741-.154-1.543-.231-2.407-.231-1.851 0-3.362.447-4.535 1.342-1.172.864-1.789 2.267-1.851 4.211zm15.55 3.517h-.092c-.186.34-.54.587-1.065.741-.524.154-.987.262-1.388.324-1.234.216-2.515.416-3.841.601-1.296.155-2.484.401-3.564.741-1.08.339-1.974.833-2.684 1.481-.679.617-1.018 1.512-1.018 2.684 0 .74.139 1.404.416 1.99.309.555.71 1.049 1.204 1.481.493.401 1.064.709 1.712.925s1.311.324 1.99.324c1.111 0 2.175-.169 3.193-.509 1.018-.339 1.898-.833 2.638-1.481.771-.648 1.373-1.434 1.805-2.36.463-.925.694-1.974.694-3.147zm21.638-3.841c-.031-.894-.216-1.666-.556-2.314-.339-.678-.802-1.234-1.388-1.666-.555-.432-1.203-.74-1.944-.925-.74-.216-1.527-.324-2.36-.324-.648 0-1.311.077-1.99.231-.648.124-1.249.355-1.805.694-.555.309-1.002.725-1.342 1.25-.339.524-.509 1.172-.509 1.944 0 .647.154 1.203.463 1.666.339.432.756.802 1.25 1.11.493.309 1.033.571 1.619.787.586.185 1.126.339 1.62.463l3.887.879c.833.124 1.651.355 2.453.694.833.309 1.558.725 2.175 1.25.648.524 1.173 1.172 1.574 1.943.401.772.601 1.682.601 2.731 0 1.296-.293 2.406-.879 3.332-.586.895-1.342 1.635-2.268 2.221-.894.556-1.912.957-3.054 1.204-1.141.246-2.268.37-3.378.37-2.808 0-5.091-.663-6.85-1.99-1.727-1.327-2.715-3.456-2.961-6.387h2.915c.124 1.975.833 3.471 2.129 4.489 1.327.988 2.962 1.481 4.906 1.481.709 0 1.434-.077 2.175-.231.771-.154 1.481-.417 2.128-.787.648-.37 1.173-.833 1.574-1.388.432-.586.648-1.296.648-2.129 0-.71-.154-1.296-.463-1.759-.278-.493-.663-.894-1.157-1.203-.494-.339-1.064-.617-1.712-.833-.617-.216-1.25-.401-1.898-.555l-3.748-.833c-.957-.247-1.836-.525-2.638-.833-.802-.34-1.512-.741-2.129-1.203-.586-.494-1.049-1.08-1.388-1.759-.34-.71-.509-1.573-.509-2.592 0-1.203.262-2.236.786-3.1.556-.864 1.265-1.558 2.129-2.083.864-.524 1.821-.91 2.869-1.157 1.08-.247 2.145-.37 3.194-.37 1.203 0 2.314.154 3.332.463 1.049.308 1.959.787 2.73 1.434.802.648 1.435 1.45 1.898 2.407.462.956.725 2.082.786 3.378zm23.761 3.286c-.031-1.111-.231-2.175-.601-3.193-.34-1.018-.833-1.913-1.481-2.684-.648-.803-1.435-1.435-2.36-1.898-.926-.493-1.975-.74-3.147-.74-1.204 0-2.268.247-3.194.74-.925.463-1.712 1.095-2.36 1.898-.648.771-1.172 1.681-1.573 2.73-.37 1.018-.617 2.067-.741 3.147zm-15.457 2.453c0 1.049.139 2.144.417 3.286.308 1.11.787 2.113 1.434 3.008.648.894 1.466 1.635 2.453 2.221s2.175.879 3.564.879c2.128 0 3.794-.555 4.998-1.666 1.203-1.11 2.036-2.591 2.499-4.442h2.915c-.617 2.715-1.758 4.813-3.424 6.293-1.635 1.481-3.965 2.222-6.988 2.222-1.882 0-3.518-.324-4.906-.972-1.357-.679-2.468-1.589-3.332-2.73-.864-1.173-1.512-2.515-1.944-4.027-.401-1.542-.601-3.162-.601-4.859 0-1.573.2-3.116.601-4.628.432-1.512 1.08-2.854 1.944-4.026.864-1.203 1.975-2.16 3.332-2.869 1.388-.741 3.024-1.111 4.906-1.111 1.913 0 3.548.386 4.905 1.157 1.358.771 2.453 1.789 3.286 3.054.864 1.234 1.481 2.669 1.851 4.304.37 1.605.525 3.24.463 4.906z" fill="#5a5a5a"/><path d="m554.729 173.562c.437-.01.832-.032 1.184-.064.363-.042.672-.133.929-.272.266-.138.485-.346.656-.624.181-.288.309-.688.384-1.2h.816v11.203h-1.008v-8.322h-2.961z" fill="#3b2f2f"/><path d="m199.126 322.517c-.181-.861-.584-1.507-1.207-1.938-.612-.431-1.343-.646-2.193-.646-.725 0-1.349.136-1.87.408-.51.272-.935.64-1.275 1.105-.329.453-.572.975-.731 1.564s-.238 1.201-.238 1.836c0 .691.079 1.349.238 1.972.159.612.402 1.15.731 1.615.34.453.771.816 1.292 1.088s1.145.408 1.87.408c.533 0 1.003-.085 1.411-.255.419-.181.776-.425 1.071-.731.306-.317.544-.691.714-1.122s.272-.895.306-1.394h1.615c-.159 1.53-.686 2.72-1.581 3.57s-2.119 1.275-3.672 1.275c-.941 0-1.762-.159-2.465-.476-.703-.329-1.286-.776-1.751-1.343s-.816-1.235-1.054-2.006c-.227-.771-.34-1.598-.34-2.482s.125-1.711.374-2.482c.249-.782.612-1.462 1.088-2.04.487-.578 1.088-1.031 1.802-1.36.725-.34 1.553-.51 2.482-.51.635 0 1.235.085 1.802.255s1.071.419 1.513.748.81.742 1.105 1.241c.295.487.487 1.054.578 1.7zm4.55 4.097c0 .533.068 1.009.204 1.428.148.408.346.754.595 1.037.25.272.539.482.867.629.34.147.697.221 1.071.221s.726-.074 1.054-.221c.34-.147.635-.357.884-.629.25-.283.442-.629.578-1.037.148-.419.221-.895.221-1.428s-.073-1.003-.221-1.411c-.136-.419-.328-.771-.578-1.054-.249-.283-.544-.499-.884-.646-.328-.147-.68-.221-1.054-.221s-.731.074-1.071.221c-.328.147-.617.363-.867.646-.249.283-.447.635-.595 1.054-.136.408-.204.878-.204 1.411zm-1.53 0c0-.646.091-1.247.272-1.802.182-.567.454-1.054.816-1.462.363-.419.811-.748 1.343-.986.533-.238 1.145-.357 1.836-.357.703 0 1.315.119 1.836.357.533.238.981.567 1.343.986.363.408.635.895.816 1.462.182.555.272 1.156.272 1.802s-.09 1.247-.272 1.802c-.181.555-.453 1.043-.816 1.462-.362.408-.81.731-1.343.969-.521.227-1.133.34-1.836.34-.691 0-1.303-.113-1.836-.34-.532-.238-.98-.561-1.343-.969-.362-.419-.634-.907-.816-1.462-.181-.555-.272-1.156-.272-1.802zm17.514 4.386h-1.36v-1.394h-.034c-.306.544-.697.946-1.173 1.207-.476.249-1.037.374-1.683.374-.578 0-1.059-.074-1.445-.221-.385-.159-.697-.38-.935-.663s-.408-.618-.51-1.003c-.09-.397-.136-.833-.136-1.309v-5.78h1.445v5.95c0 .544.159.975.476 1.292.318.317.754.476 1.309.476.442 0 .822-.068 1.139-.204.329-.136.601-.329.816-.578.216-.249.374-.538.476-.867.114-.34.17-.708.17-1.105v-4.964h1.445zm2.221-8.789h1.445v1.19h.034c.238-.487.612-.839 1.122-1.054.51-.227 1.071-.34 1.683-.34.68 0 1.27.125 1.768.374.51.249.93.589 1.258 1.02.34.419.595.907.765 1.462s.255 1.145.255 1.768-.085 1.213-.255 1.768c-.158.555-.408 1.043-.748 1.462-.328.408-.748.731-1.258.969-.498.238-1.082.357-1.751.357-.215 0-.459-.023-.731-.068-.26-.045-.521-.119-.782-.221-.26-.102-.51-.238-.748-.408-.226-.181-.419-.402-.578-.663h-.034v4.522h-1.445zm6.8 4.318c0-.408-.056-.805-.17-1.19-.102-.397-.266-.748-.493-1.054-.215-.306-.498-.55-.85-.731-.34-.181-.742-.272-1.207-.272-.487 0-.901.096-1.241.289s-.617.448-.833.765c-.215.306-.374.657-.476 1.054-.09.397-.136.799-.136 1.207 0 .431.051.85.153 1.258.102.397.261.748.476 1.054.227.306.516.555.867.748.352.181.777.272 1.275.272.499 0 .913-.096 1.241-.289.34-.193.612-.448.816-.765s.352-.68.442-1.088c.091-.408.136-.827.136-1.258zm4.281.085c0 .533.068 1.009.204 1.428.147.408.345.754.595 1.037.249.272.538.482.867.629.34.147.697.221 1.071.221s.725-.074 1.054-.221c.34-.147.634-.357.884-.629.249-.283.442-.629.578-1.037.147-.419.221-.895.221-1.428s-.074-1.003-.221-1.411c-.136-.419-.329-.771-.578-1.054-.25-.283-.544-.499-.884-.646-.329-.147-.68-.221-1.054-.221s-.731.074-1.071.221c-.329.147-.618.363-.867.646-.25.283-.448.635-.595 1.054-.136.408-.204.878-.204 1.411zm-1.53 0c0-.646.09-1.247.272-1.802.181-.567.453-1.054.816-1.462.362-.419.81-.748 1.343-.986.532-.238 1.144-.357 1.836-.357.702 0 1.314.119 1.836.357.532.238.98.567 1.343.986.362.408.634.895.816 1.462.181.555.272 1.156.272 1.802s-.091 1.247-.272 1.802c-.182.555-.454 1.043-.816 1.462-.363.408-.811.731-1.343.969-.522.227-1.134.34-1.836.34-.692 0-1.304-.113-1.836-.34-.533-.238-.981-.561-1.343-.969-.363-.419-.635-.907-.816-1.462-.182-.555-.272-1.156-.272-1.802zm10.237-4.403h1.36v1.394h.034c.601-1.065 1.553-1.598 2.856-1.598.578 0 1.06.079 1.445.238.386.159.697.38.935.663s.403.623.493 1.02c.102.385.153.816.153 1.292v5.78h-1.445v-5.95c0-.544-.158-.975-.476-1.292-.317-.317-.753-.476-1.309-.476-.442 0-.827.068-1.156.204-.317.136-.583.329-.799.578-.215.249-.379.544-.493.884-.102.329-.153.691-.153 1.088v4.964h-1.445zm22.882 8.789h-1.53l-1.785-6.987h-.034l-1.768 6.987h-1.564l-2.822-8.789h1.598l1.989 7.191h.034l1.768-7.191h1.581l1.836 7.191h.034l1.972-7.191h1.496zm5.709-10.37h-1.445v-1.768h1.445zm-1.445 1.581h1.445v8.789h-1.445zm3.768-3.349h1.445v12.138h-1.445zm3.769 0h1.445v12.138h-1.445zm8.466 0h1.445v4.539h.034c.238-.487.612-.839 1.122-1.054.51-.227 1.071-.34 1.683-.34.68 0 1.269.125 1.768.374.51.249.929.589 1.258 1.02.34.419.595.907.765 1.462s.255 1.145.255 1.768-.085 1.213-.255 1.768c-.159.555-.408 1.043-.748 1.462-.329.408-.748.731-1.258.969-.499.238-1.082.357-1.751.357-.215 0-.459-.023-.731-.068-.261-.045-.521-.119-.782-.221s-.51-.238-.748-.408c-.227-.181-.419-.402-.578-.663h-.034v1.173h-1.445zm6.8 7.667c0-.408-.057-.805-.17-1.19-.102-.397-.266-.748-.493-1.054-.215-.306-.499-.55-.85-.731-.34-.181-.742-.272-1.207-.272-.487 0-.901.096-1.241.289s-.618.448-.833.765c-.215.306-.374.657-.476 1.054-.091.397-.136.799-.136 1.207 0 .431.051.85.153 1.258.102.397.261.748.476 1.054.227.306.516.555.867.748.351.181.776.272 1.275.272s.912-.096 1.241-.289c.34-.193.612-.448.816-.765s.351-.68.442-1.088.136-.827.136-1.258zm9.329-.765c-.023-.34-.102-.663-.238-.969-.125-.306-.3-.567-.527-.782-.215-.227-.476-.402-.782-.527-.295-.136-.623-.204-.986-.204-.374 0-.714.068-1.02.204-.295.125-.55.3-.765.527s-.385.493-.51.799c-.125.295-.198.612-.221.952zm1.394 2.448c-.193.986-.618 1.728-1.275 2.227s-1.485.748-2.482.748c-.703 0-1.315-.113-1.836-.34-.51-.227-.941-.544-1.292-.952s-.618-.895-.799-1.462c-.17-.567-.266-1.184-.289-1.853 0-.669.102-1.281.306-1.836s.487-1.037.85-1.445c.374-.408.81-.725 1.309-.952.51-.227 1.065-.34 1.666-.34.782 0 1.428.164 1.938.493.521.317.935.725 1.241 1.224.317.499.533 1.043.646 1.632.125.589.176 1.15.153 1.683h-6.579c-.011.385.034.754.136 1.105.102.34.266.646.493.918.227.261.516.47.867.629s.765.238 1.241.238c.612 0 1.111-.142 1.496-.425.397-.283.657-.714.782-1.292zm7.249.017c.012.317.085.589.221.816.136.215.312.391.527.527.227.125.476.215.748.272.284.057.573.085.867.085.227 0 .465-.017.714-.051.25-.034.476-.096.68-.187.216-.091.391-.221.527-.391.136-.181.204-.408.204-.68 0-.374-.141-.657-.425-.85-.283-.193-.64-.346-1.071-.459-.419-.125-.878-.232-1.377-.323-.498-.102-.963-.238-1.394-.408-.419-.181-.77-.431-1.054-.748-.283-.317-.425-.759-.425-1.326 0-.442.097-.822.289-1.139.204-.317.459-.572.765-.765.318-.204.669-.351 1.054-.442.397-.102.788-.153 1.173-.153.499 0 .958.045 1.377.136.42.079.788.227 1.105.442.329.204.59.487.782.85.193.351.306.793.34 1.326h-1.445c-.022-.283-.096-.516-.221-.697-.124-.193-.283-.346-.476-.459-.192-.113-.408-.193-.646-.238-.226-.057-.459-.085-.697-.085-.215 0-.436.017-.663.051-.215.034-.413.096-.595.187-.181.079-.328.193-.442.34-.113.136-.17.317-.17.544 0 .249.085.459.255.629.182.159.408.295.68.408.272.102.578.193.918.272.34.068.68.142 1.02.221.363.079.714.176 1.054.289.352.113.658.266.918.459.272.181.488.414.646.697.17.283.255.635.255 1.054 0 .533-.113.975-.34 1.326-.215.351-.504.635-.867.85-.351.215-.753.363-1.207.442-.442.091-.884.136-1.326.136-.487 0-.952-.051-1.394-.153s-.833-.266-1.173-.493c-.34-.238-.612-.544-.816-.918-.204-.385-.317-.85-.34-1.394zm13.719-2.465c-.022-.34-.102-.663-.238-.969-.124-.306-.3-.567-.527-.782-.215-.227-.476-.402-.782-.527-.294-.136-.623-.204-.986-.204-.374 0-.714.068-1.02.204-.294.125-.549.3-.765.527-.215.227-.385.493-.51.799-.124.295-.198.612-.221.952zm1.394 2.448c-.192.986-.617 1.728-1.275 2.227-.657.499-1.484.748-2.482.748-.702 0-1.314-.113-1.836-.34-.51-.227-.94-.544-1.292-.952-.351-.408-.617-.895-.799-1.462-.17-.567-.266-1.184-.289-1.853 0-.669.102-1.281.306-1.836s.488-1.037.85-1.445c.374-.408.811-.725 1.309-.952.51-.227 1.066-.34 1.666-.34.782 0 1.428.164 1.938.493.522.317.935.725 1.241 1.224.318.499.533 1.043.646 1.632.125.589.176 1.15.153 1.683h-6.579c-.011.385.034.754.136 1.105.102.34.267.646.493.918.227.261.516.47.867.629.352.159.765.238 1.241.238.612 0 1.111-.142 1.496-.425.397-.283.658-.714.782-1.292zm1.634-6.001h1.36v1.394h.034c.601-1.065 1.553-1.598 2.856-1.598.578 0 1.06.079 1.445.238.386.159.697.38.935.663s.403.623.493 1.02c.102.385.153.816.153 1.292v5.78h-1.445v-5.95c0-.544-.158-.975-.476-1.292-.317-.317-.753-.476-1.309-.476-.442 0-.827.068-1.156.204-.317.136-.583.329-.799.578-.215.249-.379.544-.493.884-.102.329-.153.691-.153 1.088v4.964h-1.445zm11.453 0h1.751v1.275h-1.751v5.457c0 .17.011.306.034.408.034.102.09.181.17.238.079.057.187.096.323.119.147.011.334.017.561.017h.663v1.275h-1.105c-.374 0-.697-.023-.969-.068-.261-.057-.476-.153-.646-.289-.159-.136-.278-.329-.357-.578-.08-.249-.119-.578-.119-.986v-5.593h-1.496v-1.275h1.496v-2.635h1.445zm12.048 8.789h-1.547l-3.264-8.789h1.615l2.465 7.327h.034l2.397-7.327h1.513zm6.069-10.37h-1.445v-1.768h1.445zm-1.445 1.581h1.445v8.789h-1.445zm11.47 8.755c-.249.147-.595.221-1.037.221-.374 0-.674-.102-.901-.306-.215-.215-.323-.561-.323-1.037-.397.476-.861.822-1.394 1.037-.521.204-1.088.306-1.7.306-.397 0-.776-.045-1.139-.136-.351-.091-.657-.232-.918-.425s-.47-.442-.629-.748c-.147-.317-.221-.697-.221-1.139 0-.499.085-.907.255-1.224s.391-.572.663-.765c.283-.204.601-.357.952-.459.363-.102.731-.187 1.105-.255.397-.079.771-.136 1.122-.17.363-.045.68-.102.952-.17.272-.079.487-.187.646-.323.159-.147.238-.357.238-.629 0-.317-.062-.572-.187-.765-.113-.193-.266-.34-.459-.442-.181-.102-.391-.17-.629-.204-.227-.034-.453-.051-.68-.051-.612 0-1.122.119-1.53.357-.408.227-.629.663-.663 1.309h-1.445c.023-.544.136-1.003.34-1.377s.476-.674.816-.901c.34-.238.725-.408 1.156-.51.442-.102.912-.153 1.411-.153.397 0 .788.028 1.173.085.397.057.754.176 1.071.357.317.17.572.414.765.731s.289.731.289 1.241v4.522c0 .34.017.589.051.748.045.159.181.238.408.238.125 0 .272-.028.442-.085zm-2.346-4.505c-.181.136-.419.238-.714.306-.295.057-.606.108-.935.153-.317.034-.64.079-.969.136-.329.045-.623.125-.884.238s-.476.278-.646.493c-.159.204-.238.487-.238.85 0 .238.045.442.136.612.102.159.227.289.374.391.159.102.34.176.544.221s.419.068.646.068c.476 0 .884-.062 1.224-.187.34-.136.618-.3.833-.493.215-.204.374-.419.476-.646.102-.238.153-.459.153-.663zm14.525-.697c-.022-.34-.102-.663-.238-.969-.124-.306-.3-.567-.527-.782-.215-.227-.476-.402-.782-.527-.294-.136-.623-.204-.986-.204-.374 0-.714.068-1.02.204-.294.125-.549.3-.765.527-.215.227-.385.493-.51.799-.124.295-.198.612-.221.952zm1.394 2.448c-.192.986-.617 1.728-1.275 2.227-.657.499-1.484.748-2.482.748-.702 0-1.314-.113-1.836-.34-.51-.227-.94-.544-1.292-.952-.351-.408-.617-.895-.799-1.462-.17-.567-.266-1.184-.289-1.853 0-.669.102-1.281.306-1.836s.488-1.037.85-1.445c.374-.408.811-.725 1.309-.952.51-.227 1.066-.34 1.666-.34.782 0 1.428.164 1.938.493.522.317.935.725 1.241 1.224.318.499.533 1.043.646 1.632.125.589.176 1.15.153 1.683h-6.579c-.011.385.034.754.136 1.105.102.34.267.646.493.918.227.261.516.47.867.629.352.159.765.238 1.241.238.612 0 1.111-.142 1.496-.425.397-.283.658-.714.782-1.292zm1.634-6.001h1.36v1.292h.034c.657-.997 1.604-1.496 2.839-1.496.544 0 1.037.113 1.479.34s.754.612.935 1.156c.295-.476.68-.844 1.156-1.105.487-.261 1.02-.391 1.598-.391.442 0 .839.051 1.19.153.363.091.669.238.918.442.261.204.459.47.595.799.147.317.221.703.221 1.156v6.443h-1.445v-5.763c0-.272-.023-.527-.068-.765s-.13-.442-.255-.612c-.125-.181-.3-.323-.527-.425-.215-.102-.499-.153-.85-.153-.714 0-1.275.204-1.683.612s-.612.952-.612 1.632v5.474h-1.445v-5.763c0-.283-.028-.544-.085-.782-.045-.238-.13-.442-.255-.612-.125-.181-.295-.317-.51-.408-.204-.102-.47-.153-.799-.153-.419 0-.782.085-1.088.255-.295.17-.538.374-.731.612-.181.238-.317.487-.408.748-.079.249-.119.459-.119.629v5.474h-1.445zm22.279 8.755c-.249.147-.595.221-1.037.221-.374 0-.674-.102-.901-.306-.215-.215-.323-.561-.323-1.037-.396.476-.861.822-1.394 1.037-.521.204-1.088.306-1.7.306-.396 0-.776-.045-1.139-.136-.351-.091-.657-.232-.918-.425-.26-.193-.47-.442-.629-.748-.147-.317-.221-.697-.221-1.139 0-.499.085-.907.255-1.224s.391-.572.663-.765c.284-.204.601-.357.952-.459.363-.102.731-.187 1.105-.255.397-.079.771-.136 1.122-.17.363-.045.68-.102.952-.17.272-.079.488-.187.646-.323.159-.147.238-.357.238-.629 0-.317-.062-.572-.187-.765-.113-.193-.266-.34-.459-.442-.181-.102-.391-.17-.629-.204-.226-.034-.453-.051-.68-.051-.612 0-1.122.119-1.53.357-.408.227-.629.663-.663 1.309h-1.445c.023-.544.136-1.003.34-1.377s.476-.674.816-.901c.34-.238.726-.408 1.156-.51.442-.102.913-.153 1.411-.153.397 0 .788.028 1.173.085.397.057.754.176 1.071.357.318.17.573.414.765.731.193.317.289.731.289 1.241v4.522c0 .34.017.589.051.748.046.159.182.238.408.238.125 0 .272-.028.442-.085zm-2.346-4.505c-.181.136-.419.238-.714.306-.294.057-.606.108-.935.153-.317.034-.64.079-.969.136-.328.045-.623.125-.884.238-.26.113-.476.278-.646.493-.158.204-.238.487-.238.85 0 .238.046.442.136.612.102.159.227.289.374.391.159.102.34.176.544.221s.42.068.646.068c.476 0 .884-.062 1.224-.187.34-.136.618-.3.833-.493.216-.204.374-.419.476-.646.102-.238.153-.459.153-.663zm5.221-5.831h-1.445v-1.768h1.445zm-1.445 1.581h1.445v8.789h-1.445zm3.769-3.349h1.445v12.138h-1.445zm4.006 10.251h1.887v1.887h-1.887z" fill="#373636"/></g></svg>