<svg width="767" height="767" viewBox="0 0 767 767" fill="none" xmlns="http://www.w3.org/2000/svg">
<path d="M279 658C279 655.791 280.791 654 283 654H485C487.209 654 489 655.791 489 658V720C489 722.209 487.209 724 485 724H283C280.791 724 279 722.209 279 720V658Z" fill="#BD0000"/>
<path d="M326.712 684.84C326.541 683.197 325.944 682.013 324.92 681.288C323.917 680.541 322.627 680.168 321.048 680.168C320.408 680.168 319.779 680.232 319.16 680.36C318.541 680.488 317.987 680.701 317.496 681C317.027 681.299 316.643 681.704 316.344 682.216C316.067 682.707 315.928 683.325 315.928 684.072C315.928 684.776 316.131 685.352 316.536 685.8C316.963 686.227 317.517 686.579 318.2 686.856C318.904 687.133 319.693 687.368 320.568 687.56C321.443 687.731 322.328 687.923 323.224 688.136C324.141 688.349 325.037 688.605 325.912 688.904C326.787 689.181 327.565 689.565 328.248 690.056C328.952 690.547 329.507 691.165 329.912 691.912C330.339 692.659 330.552 693.597 330.552 694.728C330.552 695.944 330.275 696.989 329.72 697.864C329.187 698.717 328.493 699.421 327.64 699.976C326.787 700.509 325.827 700.893 324.76 701.128C323.715 701.384 322.669 701.512 321.624 701.512C320.344 701.512 319.128 701.352 317.976 701.032C316.845 700.712 315.843 700.232 314.968 699.592C314.115 698.931 313.432 698.099 312.92 697.096C312.429 696.072 312.184 694.867 312.184 693.48H315.064C315.064 694.44 315.245 695.272 315.608 695.976C315.992 696.659 316.483 697.224 317.08 697.672C317.699 698.12 318.413 698.451 319.224 698.664C320.035 698.877 320.867 698.984 321.72 698.984C322.403 698.984 323.085 698.92 323.768 698.792C324.472 698.664 325.101 698.451 325.656 698.152C326.211 697.832 326.659 697.405 327 696.872C327.341 696.339 327.512 695.656 327.512 694.824C327.512 694.035 327.299 693.395 326.872 692.904C326.467 692.413 325.912 692.019 325.208 691.72C324.525 691.4 323.747 691.144 322.872 690.952C321.997 690.76 321.101 690.568 320.184 690.376C319.288 690.163 318.403 689.928 317.528 689.672C316.653 689.395 315.864 689.043 315.16 688.616C314.477 688.168 313.923 687.603 313.496 686.92C313.091 686.216 312.888 685.341 312.888 684.296C312.888 683.144 313.123 682.152 313.592 681.32C314.061 680.467 314.68 679.773 315.448 679.24C316.237 678.685 317.123 678.28 318.104 678.024C319.107 677.747 320.131 677.608 321.176 677.608C322.349 677.608 323.437 677.747 324.44 678.024C325.443 678.301 326.317 678.739 327.064 679.336C327.832 679.933 328.429 680.691 328.856 681.608C329.304 682.504 329.549 683.581 329.592 684.84H326.712ZM348.454 700.936C347.985 701.213 347.334 701.352 346.502 701.352C345.798 701.352 345.233 701.16 344.806 700.776C344.401 700.371 344.198 699.72 344.198 698.824C343.451 699.72 342.577 700.371 341.574 700.776C340.593 701.16 339.526 701.352 338.374 701.352C337.627 701.352 336.913 701.267 336.23 701.096C335.569 700.925 334.993 700.659 334.502 700.296C334.011 699.933 333.617 699.464 333.318 698.888C333.041 698.291 332.902 697.576 332.902 696.744C332.902 695.805 333.062 695.037 333.382 694.44C333.702 693.843 334.118 693.363 334.63 693C335.163 692.616 335.761 692.328 336.422 692.136C337.105 691.944 337.798 691.784 338.502 691.656C339.249 691.507 339.953 691.4 340.614 691.336C341.297 691.251 341.894 691.144 342.406 691.016C342.918 690.867 343.323 690.664 343.622 690.408C343.921 690.131 344.07 689.736 344.07 689.224C344.07 688.627 343.953 688.147 343.718 687.784C343.505 687.421 343.217 687.144 342.854 686.952C342.513 686.76 342.118 686.632 341.67 686.568C341.243 686.504 340.817 686.472 340.39 686.472C339.238 686.472 338.278 686.696 337.51 687.144C336.742 687.571 336.326 688.392 336.262 689.608H333.542C333.585 688.584 333.798 687.72 334.182 687.016C334.566 686.312 335.078 685.747 335.718 685.32C336.358 684.872 337.083 684.552 337.894 684.36C338.726 684.168 339.611 684.072 340.55 684.072C341.297 684.072 342.033 684.125 342.758 684.232C343.505 684.339 344.177 684.563 344.774 684.904C345.371 685.224 345.851 685.683 346.214 686.28C346.577 686.877 346.758 687.656 346.758 688.616V697.128C346.758 697.768 346.79 698.237 346.854 698.536C346.939 698.835 347.195 698.984 347.622 698.984C347.857 698.984 348.134 698.931 348.454 698.824V700.936ZM344.038 692.456C343.697 692.712 343.249 692.904 342.694 693.032C342.139 693.139 341.553 693.235 340.934 693.32C340.337 693.384 339.729 693.469 339.11 693.576C338.491 693.661 337.937 693.811 337.446 694.024C336.955 694.237 336.55 694.547 336.23 694.952C335.931 695.336 335.782 695.869 335.782 696.552C335.782 697 335.867 697.384 336.038 697.704C336.23 698.003 336.465 698.248 336.742 698.44C337.041 698.632 337.382 698.771 337.766 698.856C338.15 698.941 338.555 698.984 338.982 698.984C339.878 698.984 340.646 698.867 341.286 698.632C341.926 698.376 342.449 698.067 342.854 697.704C343.259 697.32 343.558 696.915 343.75 696.488C343.942 696.04 344.038 695.624 344.038 695.24V692.456ZM358.442 701H355.53L349.386 684.456H352.426L357.066 698.248H357.13L361.642 684.456H364.49L358.442 701ZM378.474 691.144C378.431 690.504 378.282 689.896 378.026 689.32C377.791 688.744 377.46 688.253 377.034 687.848C376.628 687.421 376.138 687.091 375.562 686.856C375.007 686.6 374.388 686.472 373.706 686.472C373.002 686.472 372.362 686.6 371.786 686.856C371.231 687.091 370.751 687.421 370.346 687.848C369.94 688.275 369.62 688.776 369.386 689.352C369.151 689.907 369.012 690.504 368.97 691.144H378.474ZM381.097 695.752C380.735 697.608 379.935 699.005 378.698 699.944C377.46 700.883 375.903 701.352 374.026 701.352C372.703 701.352 371.551 701.139 370.57 700.712C369.61 700.285 368.799 699.688 368.138 698.92C367.476 698.152 366.975 697.235 366.634 696.168C366.314 695.101 366.132 693.939 366.09 692.68C366.09 691.421 366.282 690.269 366.666 689.224C367.05 688.179 367.583 687.272 368.266 686.504C368.97 685.736 369.791 685.139 370.73 684.712C371.69 684.285 372.735 684.072 373.866 684.072C375.338 684.072 376.554 684.381 377.514 685C378.495 685.597 379.274 686.365 379.85 687.304C380.447 688.243 380.852 689.267 381.066 690.376C381.3 691.485 381.396 692.541 381.354 693.544H368.97C368.948 694.269 369.034 694.963 369.226 695.624C369.418 696.264 369.727 696.84 370.154 697.352C370.58 697.843 371.124 698.237 371.786 698.536C372.447 698.835 373.226 698.984 374.122 698.984C375.274 698.984 376.212 698.717 376.938 698.184C377.684 697.651 378.175 696.84 378.41 695.752H381.097ZM393.495 678.152H396.727L408.759 696.68H408.823V678.152H411.703V701H408.375L396.439 682.664H396.375V701H393.495V678.152ZM418.157 692.744C418.157 693.747 418.285 694.643 418.541 695.432C418.818 696.2 419.192 696.851 419.661 697.384C420.13 697.896 420.674 698.291 421.293 698.568C421.933 698.845 422.605 698.984 423.309 698.984C424.013 698.984 424.674 698.845 425.293 698.568C425.933 698.291 426.488 697.896 426.957 697.384C427.426 696.851 427.789 696.2 428.045 695.432C428.322 694.643 428.461 693.747 428.461 692.744C428.461 691.741 428.322 690.856 428.045 690.088C427.789 689.299 427.426 688.637 426.957 688.104C426.488 687.571 425.933 687.165 425.293 686.888C424.674 686.611 424.013 686.472 423.309 686.472C422.605 686.472 421.933 686.611 421.293 686.888C420.674 687.165 420.13 687.571 419.661 688.104C419.192 688.637 418.818 689.299 418.541 690.088C418.285 690.856 418.157 691.741 418.157 692.744ZM415.277 692.744C415.277 691.528 415.448 690.397 415.789 689.352C416.13 688.285 416.642 687.368 417.325 686.6C418.008 685.811 418.85 685.192 419.853 684.744C420.856 684.296 422.008 684.072 423.309 684.072C424.632 684.072 425.784 684.296 426.765 684.744C427.768 685.192 428.61 685.811 429.293 686.6C429.976 687.368 430.488 688.285 430.829 689.352C431.17 690.397 431.341 691.528 431.341 692.744C431.341 693.96 431.17 695.091 430.829 696.136C430.488 697.181 429.976 698.099 429.293 698.888C428.61 699.656 427.768 700.264 426.765 700.712C425.784 701.139 424.632 701.352 423.309 701.352C422.008 701.352 420.856 701.139 419.853 700.712C418.85 700.264 418.008 699.656 417.325 698.888C416.642 698.099 416.13 697.181 415.789 696.136C415.448 695.091 415.277 693.96 415.277 692.744ZM450.932 701H448.052L444.692 687.848H444.628L441.3 701H438.356L433.044 684.456H436.052L439.796 697.992H439.86L443.188 684.456H446.164L449.62 697.992H449.684L453.396 684.456H456.212L450.932 701Z" fill="white"/>
<g clip-path="url(#clip0_3093_2423)">
<path d="M536.375 286.933V308.283H553.288V286.933H561.604V331.879L561.142 332.318H553.75L553.288 331.879V311.883H536.375V331.879L535.913 332.318H528.676V286.933H536.375Z" fill="#373636"/>
<path d="M284.974 294.748C284.422 295.149 282.844 292 282.369 291.436C277.685 285.904 266.637 286.318 267.124 294.886C267.714 305.21 293.354 308.019 289.812 323.06C287.079 334.651 269.088 336.332 260.836 329.608C260.4 329.244 259.489 328.504 259.438 327.952L261.76 322.107C262.235 321.994 262.389 322.508 262.581 322.797C265.571 327.325 268.241 331.113 274.593 330.436C281.843 329.658 285.205 323.976 280.367 318.055C273.733 309.939 257.513 308.383 260.875 294.196C263.518 283.082 278.827 283.056 286.694 288.739L284.987 294.748H284.974Z" fill="#373636"/>
<path d="M516.683 286.933V290.244H498.217V308.283H512.833L513.243 308.785C513.333 309.061 513.282 309.349 513.308 309.625C513.372 310.365 513.462 311.431 512.833 311.896H498.217V328.73H516.683V332.343H490.376L489.914 331.891V286.933H516.683Z" fill="#373636"/>
<path d="M408.518 332.311L403.449 320.432L389.32 320.319L384.829 332.01L380.363 332.299L398.046 286.023L416.666 332.311H408.518ZM401.896 316.694L396.507 302.87L390.809 316.694H401.883H401.896Z" fill="#373636"/>
<path d="M317.127 286.023L300.047 332.311H304.346L308.927 320.482L323.081 320.331L328.201 332.311H336.042L317.127 286.023ZM310.505 316.694L315.741 302.857L321.58 316.694H310.505Z" fill="#373636"/>
<path d="M427.603 286.933L439.601 317.001L451.138 286.933H455.757L438.523 333.02L437.753 333.233L419.441 286.933H427.603Z" fill="#373636"/>
<path d="M232.043 286.637L227.115 293.85H236.958L232.338 301.063H241.872C241 303.772 238.549 305.992 237.253 308.577H247.095L242.476 315.338V332.323H241.552V315.338C241.552 314.974 237.946 310.019 237.24 309.48V332.323H236.624V309.48L232.312 315.338V332.323H231.696V315.639L227.385 309.781V332.323H226.461V309.48L222.149 315.639V332.323H221.533V315.639L217.221 309.781V332.323H216.297V309.48L211.986 315.639V332.323H211.37V315.639C211.37 314.962 206.955 309.919 206.75 308.577H216.593L211.665 301.063H221.507L216.58 293.85H226.73L221.802 286.637H231.953H232.043ZM231.735 301.063L226.961 294.151L222.187 301.063H231.722H231.735ZM226.82 308.577C225.267 306.833 224.01 303.76 222.47 302.166C222.252 301.941 222.2 301.564 221.751 301.665L216.977 308.577H226.82ZM227.128 308.577H236.97L232.197 301.665C231.773 301.564 231.683 301.928 231.478 302.166C229.887 304.036 228.501 306.532 227.115 308.577H227.128Z" fill="#373636"/>
<path d="M376.054 286.933C375.913 288.011 376.464 289.441 375.592 290.244H357.28V308.283H372.358V311.896H357.28V332.33H349.285V286.933H376.054Z" fill="#373636"/>
<path d="M476.67 286.933V331.879L476.221 332.318H468.829L468.367 331.879V286.933H476.67Z" fill="#373636"/>
<path d="M345.873 345.261L349.273 359.674L353.547 345.424H355.459L359.732 359.674L363.132 345.261H364.967C364.121 347.218 361.118 361.744 360.373 362.246C360.104 362.434 358.705 362.484 358.538 362.346L354.817 347.644C354.021 347.557 354.329 347.644 354.201 348.083C352.789 352.75 351.853 357.655 350.492 362.346L348.516 362.083L344.089 345.662C343.884 344.872 345.424 345.349 345.886 345.261H345.873Z" fill="#373636"/>
<path d="M300.973 345.248L303.064 345.31L312.971 359.974V345.248H314.819V362.37L312.727 362.308L302.821 347.644V362.37H300.973V345.248Z" fill="#373636"/>
<path d="M440.825 345.249C445.945 345.864 447.087 351.709 442.519 353.817C445.881 355.372 443.853 359.461 445.291 362.083L443.443 362.384C442.788 360.766 443.404 356.426 442.198 355.334C442.07 355.222 440.902 354.569 440.825 354.569H434.203V362.384L432.355 362.083V345.249C435.025 345.487 438.207 344.935 440.812 345.249H440.825ZM434.203 353.064H440.825C442.082 353.064 443.674 351.207 443.699 349.915C443.725 348.711 442.288 346.754 441.133 346.754H434.203V353.064Z" fill="#373636"/>
<path d="M413.518 345.032C426.094 343.69 425.914 364.1 413.774 362.946C404.022 362.017 404.214 346.023 413.518 345.032ZM413.197 346.513C406.049 347.717 406.152 363.046 416.123 361.39C423.578 360.148 423.27 344.819 413.197 346.513Z" fill="#373636"/>
<path d="M336.356 345.248V346.753H326.5V352.762H335.432V354.267H326.5V360.878H336.664V362.37H324.652V345.248H336.356Z" fill="#373636"/>
<path d="M456.368 345.248V353.966L465.12 345.524L467.134 345.248L460.385 352.272L468.366 362.37L466.275 362.308L459.255 353.376L456.368 355.91V362.37H454.828V345.248H456.368Z" fill="#373636"/>
<path d="M390.824 354.706L384.664 345.235L386.833 345.661L391.44 353.338L396.65 345.661C397.137 345.122 398.215 345.047 398.818 345.373C398.202 346.74 392.672 353.991 392.672 354.693V362.358H390.824V354.693V354.706Z" fill="#373636"/>
</g>
<path d="M207.825 392.87H210.66V425H207.825V392.87ZM214.781 392.87H217.616V397.415H214.781V392.87ZM214.781 401.78H217.616V425H214.781V401.78ZM221.692 401.78H224.302V405.695H224.437C225.187 404.255 226.162 403.13 227.362 402.32C228.592 401.51 230.152 401.105 232.042 401.105C233.572 401.105 234.952 401.48 236.182 402.23C237.442 402.98 238.282 404.12 238.702 405.65C239.392 404.12 240.412 402.98 241.762 402.23C243.112 401.48 244.552 401.105 246.082 401.105C251.212 401.105 253.777 403.82 253.777 409.25V425H250.942V409.385C250.942 407.465 250.537 406.01 249.727 405.02C248.917 404 247.492 403.49 245.452 403.49C244.222 403.49 243.202 403.73 242.392 404.21C241.582 404.66 240.937 405.275 240.457 406.055C239.977 406.835 239.632 407.735 239.422 408.755C239.242 409.745 239.152 410.78 239.152 411.86V425H236.317V409.25C236.317 408.47 236.227 407.735 236.047 407.045C235.897 406.325 235.627 405.71 235.237 405.2C234.877 404.66 234.382 404.24 233.752 403.94C233.122 403.64 232.357 403.49 231.457 403.49C230.257 403.49 229.207 403.715 228.307 404.165C227.437 404.585 226.717 405.185 226.147 405.965C225.607 406.715 225.202 407.615 224.932 408.665C224.662 409.685 224.527 410.81 224.527 412.04V425H221.692V401.78ZM257.872 392.87H260.707V397.415H257.872V392.87ZM257.872 401.78H260.707V425H257.872V401.78ZM269.283 401.78H274.008V404.165H269.283V419.825C269.283 420.755 269.403 421.49 269.643 422.03C269.913 422.54 270.558 422.825 271.578 422.885C272.388 422.885 273.198 422.84 274.008 422.75V425.135C273.588 425.135 273.168 425.15 272.748 425.18C272.328 425.21 271.908 425.225 271.488 425.225C269.598 425.225 268.278 424.865 267.528 424.145C266.778 423.395 266.418 422.03 266.448 420.05V404.165H262.398V401.78H266.448V394.805H269.283V401.78ZM293.443 411.77C293.413 410.69 293.218 409.655 292.858 408.665C292.528 407.675 292.048 406.805 291.418 406.055C290.788 405.275 290.023 404.66 289.123 404.21C288.223 403.73 287.203 403.49 286.063 403.49C284.893 403.49 283.858 403.73 282.958 404.21C282.058 404.66 281.293 405.275 280.663 406.055C280.033 406.805 279.523 407.69 279.133 408.71C278.773 409.7 278.533 410.72 278.413 411.77H293.443ZM278.413 414.155C278.413 415.175 278.548 416.24 278.818 417.35C279.118 418.43 279.583 419.405 280.213 420.275C280.843 421.145 281.638 421.865 282.598 422.435C283.558 423.005 284.713 423.29 286.063 423.29C288.133 423.29 289.753 422.75 290.923 421.67C292.093 420.59 292.903 419.15 293.353 417.35H296.188C295.588 419.99 294.478 422.03 292.858 423.47C291.268 424.91 289.003 425.63 286.063 425.63C284.233 425.63 282.643 425.315 281.293 424.685C279.973 424.025 278.893 423.14 278.053 422.03C277.213 420.89 276.583 419.585 276.163 418.115C275.773 416.615 275.578 415.04 275.578 413.39C275.578 411.86 275.773 410.36 276.163 408.89C276.583 407.42 277.213 406.115 278.053 404.975C278.893 403.805 279.973 402.875 281.293 402.185C282.643 401.465 284.233 401.105 286.063 401.105C287.923 401.105 289.513 401.48 290.833 402.23C292.153 402.98 293.218 403.97 294.028 405.2C294.868 406.4 295.468 407.795 295.828 409.385C296.188 410.945 296.338 412.535 296.278 414.155H278.413ZM319.163 425H316.553V420.59H316.463C316.163 421.34 315.713 422.03 315.113 422.66C314.543 423.29 313.883 423.83 313.133 424.28C312.383 424.7 311.573 425.03 310.703 425.27C309.863 425.51 309.023 425.63 308.183 425.63C306.413 425.63 304.868 425.315 303.548 424.685C302.258 424.025 301.178 423.14 300.308 422.03C299.438 420.89 298.793 419.585 298.373 418.115C297.953 416.615 297.743 415.04 297.743 413.39C297.743 411.74 297.953 410.18 298.373 408.71C298.793 407.21 299.438 405.905 300.308 404.795C301.178 403.655 302.258 402.755 303.548 402.095C304.868 401.435 306.413 401.105 308.183 401.105C309.053 401.105 309.893 401.21 310.703 401.42C311.543 401.63 312.323 401.96 313.043 402.41C313.763 402.83 314.393 403.355 314.933 403.985C315.503 404.615 315.938 405.35 316.238 406.19H316.328V392.87H319.163V425ZM300.578 413.39C300.578 414.59 300.713 415.79 300.983 416.99C301.283 418.16 301.733 419.21 302.333 420.14C302.963 421.07 303.758 421.835 304.718 422.435C305.678 423.005 306.833 423.29 308.183 423.29C309.683 423.29 310.943 423.005 311.963 422.435C313.013 421.835 313.853 421.07 314.483 420.14C315.143 419.21 315.608 418.16 315.878 416.99C316.178 415.79 316.328 414.59 316.328 413.39C316.328 412.19 316.178 411.005 315.878 409.835C315.608 408.635 315.143 407.57 314.483 406.64C313.853 405.71 313.013 404.96 311.963 404.39C310.943 403.79 309.683 403.49 308.183 403.49C306.833 403.49 305.678 403.79 304.718 404.39C303.758 404.96 302.963 405.71 302.333 406.64C301.733 407.57 301.283 408.635 300.983 409.835C300.713 411.005 300.578 412.19 300.578 413.39ZM323.223 413.93V411.32H334.473V413.93H323.223ZM343.028 401.78H347.753V404.165H343.028V419.825C343.028 420.755 343.148 421.49 343.388 422.03C343.658 422.54 344.303 422.825 345.323 422.885C346.133 422.885 346.943 422.84 347.753 422.75V425.135C347.333 425.135 346.913 425.15 346.493 425.18C346.073 425.21 345.653 425.225 345.233 425.225C343.343 425.225 342.023 424.865 341.273 424.145C340.523 423.395 340.163 422.03 340.193 420.05V404.165H336.143V401.78H340.193V394.805H343.028V401.78ZM350.539 392.87H353.374V397.415H350.539V392.87ZM350.539 401.78H353.374V425H350.539V401.78ZM357.449 401.78H360.059V405.695H360.194C360.944 404.255 361.919 403.13 363.119 402.32C364.349 401.51 365.909 401.105 367.799 401.105C369.329 401.105 370.709 401.48 371.939 402.23C373.199 402.98 374.039 404.12 374.459 405.65C375.149 404.12 376.169 402.98 377.519 402.23C378.869 401.48 380.309 401.105 381.839 401.105C386.969 401.105 389.534 403.82 389.534 409.25V425H386.699V409.385C386.699 407.465 386.294 406.01 385.484 405.02C384.674 404 383.249 403.49 381.209 403.49C379.979 403.49 378.959 403.73 378.149 404.21C377.339 404.66 376.694 405.275 376.214 406.055C375.734 406.835 375.389 407.735 375.179 408.755C374.999 409.745 374.909 410.78 374.909 411.86V425H372.074V409.25C372.074 408.47 371.984 407.735 371.804 407.045C371.654 406.325 371.384 405.71 370.994 405.2C370.634 404.66 370.139 404.24 369.509 403.94C368.879 403.64 368.114 403.49 367.214 403.49C366.014 403.49 364.964 403.715 364.064 404.165C363.194 404.585 362.474 405.185 361.904 405.965C361.364 406.715 360.959 407.615 360.689 408.665C360.419 409.685 360.284 410.81 360.284 412.04V425H357.449V401.78ZM410.28 411.77C410.25 410.69 410.055 409.655 409.695 408.665C409.365 407.675 408.885 406.805 408.255 406.055C407.625 405.275 406.86 404.66 405.96 404.21C405.06 403.73 404.04 403.49 402.9 403.49C401.73 403.49 400.695 403.73 399.795 404.21C398.895 404.66 398.13 405.275 397.5 406.055C396.87 406.805 396.36 407.69 395.97 408.71C395.61 409.7 395.37 410.72 395.25 411.77H410.28ZM395.25 414.155C395.25 415.175 395.385 416.24 395.655 417.35C395.955 418.43 396.42 419.405 397.05 420.275C397.68 421.145 398.475 421.865 399.435 422.435C400.395 423.005 401.55 423.29 402.9 423.29C404.97 423.29 406.59 422.75 407.76 421.67C408.93 420.59 409.74 419.15 410.19 417.35H413.025C412.425 419.99 411.315 422.03 409.695 423.47C408.105 424.91 405.84 425.63 402.9 425.63C401.07 425.63 399.48 425.315 398.13 424.685C396.81 424.025 395.73 423.14 394.89 422.03C394.05 420.89 393.42 419.585 393 418.115C392.61 416.615 392.415 415.04 392.415 413.39C392.415 411.86 392.61 410.36 393 408.89C393.42 407.42 394.05 406.115 394.89 404.975C395.73 403.805 396.81 402.875 398.13 402.185C399.48 401.465 401.07 401.105 402.9 401.105C404.76 401.105 406.35 401.48 407.67 402.23C408.99 402.98 410.055 403.97 410.865 405.2C411.705 406.4 412.305 407.795 412.665 409.385C413.025 410.945 413.175 412.535 413.115 414.155H395.25ZM440.649 408.575C440.619 407.705 440.439 406.955 440.109 406.325C439.779 405.665 439.329 405.125 438.759 404.705C438.219 404.285 437.589 403.985 436.869 403.805C436.149 403.595 435.384 403.49 434.574 403.49C433.944 403.49 433.299 403.565 432.639 403.715C432.009 403.835 431.424 404.06 430.884 404.39C430.344 404.69 429.909 405.095 429.579 405.605C429.249 406.115 429.084 406.745 429.084 407.495C429.084 408.125 429.234 408.665 429.534 409.115C429.864 409.535 430.269 409.895 430.749 410.195C431.229 410.495 431.754 410.75 432.324 410.96C432.894 411.14 433.419 411.29 433.899 411.41L437.679 412.265C438.489 412.385 439.284 412.61 440.064 412.94C440.874 413.24 441.579 413.645 442.179 414.155C442.809 414.665 443.319 415.295 443.709 416.045C444.099 416.795 444.294 417.68 444.294 418.7C444.294 419.96 444.009 421.04 443.439 421.94C442.869 422.81 442.134 423.53 441.234 424.1C440.364 424.64 439.374 425.03 438.264 425.27C437.154 425.51 436.059 425.63 434.979 425.63C432.249 425.63 430.029 424.985 428.319 423.695C426.639 422.405 425.679 420.335 425.439 417.485H428.274C428.394 419.405 429.084 420.86 430.344 421.85C431.634 422.81 433.224 423.29 435.114 423.29C435.804 423.29 436.509 423.215 437.229 423.065C437.979 422.915 438.669 422.66 439.299 422.3C439.929 421.94 440.439 421.49 440.829 420.95C441.249 420.38 441.459 419.69 441.459 418.88C441.459 418.19 441.309 417.62 441.009 417.17C440.739 416.69 440.364 416.3 439.884 416C439.404 415.67 438.849 415.4 438.219 415.19C437.619 414.98 437.004 414.8 436.374 414.65L432.729 413.84C431.799 413.6 430.944 413.33 430.164 413.03C429.384 412.7 428.694 412.31 428.094 411.86C427.524 411.38 427.074 410.81 426.744 410.15C426.414 409.46 426.249 408.62 426.249 407.63C426.249 406.46 426.504 405.455 427.014 404.615C427.554 403.775 428.244 403.1 429.084 402.59C429.924 402.08 430.854 401.705 431.874 401.465C432.924 401.225 433.959 401.105 434.979 401.105C436.149 401.105 437.229 401.255 438.219 401.555C439.239 401.855 440.124 402.32 440.874 402.95C441.654 403.58 442.269 404.36 442.719 405.29C443.169 406.22 443.424 407.315 443.484 408.575H440.649ZM446.789 408.89C446.879 407.54 447.164 406.37 447.644 405.38C448.124 404.39 448.769 403.58 449.579 402.95C450.419 402.32 451.394 401.855 452.504 401.555C453.614 401.255 454.844 401.105 456.194 401.105C457.214 401.105 458.234 401.21 459.254 401.42C460.274 401.6 461.189 401.96 461.999 402.5C462.809 403.04 463.469 403.805 463.979 404.795C464.489 405.755 464.744 407.015 464.744 408.575V420.905C464.744 422.045 465.299 422.615 466.409 422.615C466.739 422.615 467.039 422.555 467.309 422.435V424.82C466.979 424.88 466.679 424.925 466.409 424.955C466.169 424.985 465.854 425 465.464 425C464.744 425 464.159 424.91 463.709 424.73C463.289 424.52 462.959 424.235 462.719 423.875C462.479 423.515 462.314 423.095 462.224 422.615C462.164 422.105 462.134 421.55 462.134 420.95H462.044C461.534 421.7 461.009 422.375 460.469 422.975C459.959 423.545 459.374 424.025 458.714 424.415C458.084 424.805 457.349 425.105 456.509 425.315C455.699 425.525 454.724 425.63 453.584 425.63C452.504 425.63 451.484 425.495 450.524 425.225C449.594 424.985 448.769 424.595 448.049 424.055C447.359 423.485 446.804 422.78 446.384 421.94C445.994 421.07 445.799 420.05 445.799 418.88C445.799 417.26 446.159 416 446.879 415.1C447.599 414.17 448.544 413.465 449.714 412.985C450.914 412.505 452.249 412.175 453.719 411.995C455.219 411.785 456.734 411.59 458.264 411.41C458.864 411.35 459.389 411.275 459.839 411.185C460.289 411.095 460.664 410.945 460.964 410.735C461.264 410.495 461.489 410.18 461.639 409.79C461.819 409.4 461.909 408.89 461.909 408.26C461.909 407.3 461.744 406.52 461.414 405.92C461.114 405.29 460.679 404.795 460.109 404.435C459.569 404.075 458.924 403.835 458.174 403.715C457.454 403.565 456.674 403.49 455.834 403.49C454.034 403.49 452.564 403.925 451.424 404.795C450.284 405.635 449.684 407 449.624 408.89H446.789ZM461.909 412.31H461.819C461.639 412.64 461.294 412.88 460.784 413.03C460.274 413.18 459.824 413.285 459.434 413.345C458.234 413.555 456.989 413.75 455.699 413.93C454.439 414.08 453.284 414.32 452.234 414.65C451.184 414.98 450.314 415.46 449.624 416.09C448.964 416.69 448.634 417.56 448.634 418.7C448.634 419.42 448.769 420.065 449.039 420.635C449.339 421.175 449.729 421.655 450.209 422.075C450.689 422.465 451.244 422.765 451.874 422.975C452.504 423.185 453.149 423.29 453.809 423.29C454.889 423.29 455.924 423.125 456.914 422.795C457.904 422.465 458.759 421.985 459.479 421.355C460.229 420.725 460.814 419.96 461.234 419.06C461.684 418.16 461.909 417.14 461.909 416V412.31ZM466.434 401.78H469.584L476.874 422.165H476.964L484.164 401.78H487.089L478.404 425H475.389L466.434 401.78ZM488.569 392.87H491.404V397.415H488.569V392.87ZM488.569 401.78H491.404V425H488.569V401.78ZM495.435 401.78H498.27V405.785H498.36C498.9 404.375 499.86 403.25 501.24 402.41C502.62 401.54 504.135 401.105 505.785 401.105C507.405 401.105 508.755 401.315 509.835 401.735C510.945 402.155 511.83 402.755 512.49 403.535C513.15 404.285 513.615 405.215 513.885 406.325C514.155 407.435 514.29 408.68 514.29 410.06V425H511.455V410.51C511.455 409.52 511.365 408.605 511.185 407.765C511.005 406.895 510.69 406.145 510.24 405.515C509.79 404.885 509.175 404.39 508.395 404.03C507.645 403.67 506.7 403.49 505.56 403.49C504.42 403.49 503.4 403.7 502.5 404.12C501.63 404.51 500.88 405.065 500.25 405.785C499.65 406.475 499.17 407.315 498.81 408.305C498.48 409.265 498.3 410.315 498.27 411.455V425H495.435V401.78ZM537.92 423.11C537.92 424.82 537.725 426.365 537.335 427.745C536.975 429.125 536.39 430.295 535.58 431.255C534.77 432.215 533.705 432.95 532.385 433.46C531.095 433.97 529.505 434.225 527.615 434.225C526.445 434.225 525.305 434.09 524.195 433.82C523.085 433.55 522.08 433.13 521.18 432.56C520.31 431.99 519.575 431.255 518.975 430.355C518.405 429.485 518.075 428.435 517.985 427.205H520.82C520.97 428.075 521.255 428.795 521.675 429.365C522.125 429.965 522.65 430.445 523.25 430.805C523.88 431.165 524.57 431.42 525.32 431.57C526.07 431.75 526.835 431.84 527.615 431.84C530.255 431.84 532.16 431.09 533.33 429.59C534.5 428.09 535.085 425.93 535.085 423.11V419.96H534.995C534.335 421.4 533.36 422.555 532.07 423.425C530.81 424.295 529.325 424.73 527.615 424.73C525.755 424.73 524.165 424.43 522.845 423.83C521.525 423.2 520.43 422.345 519.56 421.265C518.72 420.185 518.105 418.925 517.715 417.485C517.325 416.015 517.13 414.455 517.13 412.805C517.13 411.215 517.355 409.715 517.805 408.305C518.285 406.865 518.96 405.62 519.83 404.57C520.73 403.49 521.825 402.65 523.115 402.05C524.435 401.42 525.935 401.105 527.615 401.105C528.485 401.105 529.295 401.225 530.045 401.465C530.825 401.705 531.53 402.05 532.16 402.5C532.79 402.92 533.345 403.415 533.825 403.985C534.335 404.555 534.725 405.155 534.995 405.785H535.085V401.78H537.92V423.11ZM527.615 422.345C528.845 422.345 529.925 422.09 530.855 421.58C531.785 421.04 532.565 420.35 533.195 419.51C533.825 418.64 534.29 417.65 534.59 416.54C534.92 415.43 535.085 414.29 535.085 413.12C535.085 411.98 534.95 410.84 534.68 409.7C534.41 408.56 533.975 407.525 533.375 406.595C532.775 405.665 531.995 404.915 531.035 404.345C530.105 403.775 528.965 403.49 527.615 403.49C526.265 403.49 525.11 403.775 524.15 404.345C523.19 404.885 522.395 405.605 521.765 406.505C521.135 407.405 520.67 408.44 520.37 409.61C520.1 410.75 519.965 411.92 519.965 413.12C519.965 414.29 520.115 415.43 520.415 416.54C520.715 417.65 521.18 418.64 521.81 419.51C522.44 420.35 523.235 421.04 524.195 421.58C525.155 422.09 526.295 422.345 527.615 422.345ZM555.86 408.575C555.83 407.705 555.65 406.955 555.32 406.325C554.99 405.665 554.54 405.125 553.97 404.705C553.43 404.285 552.8 403.985 552.08 403.805C551.36 403.595 550.595 403.49 549.785 403.49C549.155 403.49 548.51 403.565 547.85 403.715C547.22 403.835 546.635 404.06 546.095 404.39C545.555 404.69 545.12 405.095 544.79 405.605C544.46 406.115 544.295 406.745 544.295 407.495C544.295 408.125 544.445 408.665 544.745 409.115C545.075 409.535 545.48 409.895 545.96 410.195C546.44 410.495 546.965 410.75 547.535 410.96C548.105 411.14 548.63 411.29 549.11 411.41L552.89 412.265C553.7 412.385 554.495 412.61 555.275 412.94C556.085 413.24 556.79 413.645 557.39 414.155C558.02 414.665 558.53 415.295 558.92 416.045C559.31 416.795 559.505 417.68 559.505 418.7C559.505 419.96 559.22 421.04 558.65 421.94C558.08 422.81 557.345 423.53 556.445 424.1C555.575 424.64 554.585 425.03 553.475 425.27C552.365 425.51 551.27 425.63 550.19 425.63C547.46 425.63 545.24 424.985 543.53 423.695C541.85 422.405 540.89 420.335 540.65 417.485H543.485C543.605 419.405 544.295 420.86 545.555 421.85C546.845 422.81 548.435 423.29 550.325 423.29C551.015 423.29 551.72 423.215 552.44 423.065C553.19 422.915 553.88 422.66 554.51 422.3C555.14 421.94 555.65 421.49 556.04 420.95C556.46 420.38 556.67 419.69 556.67 418.88C556.67 418.19 556.52 417.62 556.22 417.17C555.95 416.69 555.575 416.3 555.095 416C554.615 415.67 554.06 415.4 553.43 415.19C552.83 414.98 552.215 414.8 551.585 414.65L547.94 413.84C547.01 413.6 546.155 413.33 545.375 413.03C544.595 412.7 543.905 412.31 543.305 411.86C542.735 411.38 542.285 410.81 541.955 410.15C541.625 409.46 541.46 408.62 541.46 407.63C541.46 406.46 541.715 405.455 542.225 404.615C542.765 403.775 543.455 403.1 544.295 402.59C545.135 402.08 546.065 401.705 547.085 401.465C548.135 401.225 549.17 401.105 550.19 401.105C551.36 401.105 552.44 401.255 553.43 401.555C554.45 401.855 555.335 402.32 556.085 402.95C556.865 403.58 557.48 404.36 557.93 405.29C558.38 406.22 558.635 407.315 558.695 408.575H555.86Z" fill="#373636"/>
<path d="M283.15 465.23C283.15 466.573 283.28 467.895 283.54 469.195C283.8 470.452 284.233 471.6 284.84 472.64C285.49 473.637 286.335 474.438 287.375 475.045C288.415 475.652 289.715 475.955 291.275 475.955C292.835 475.955 294.135 475.652 295.175 475.045C296.258 474.438 297.103 473.637 297.71 472.64C298.36 471.6 298.815 470.452 299.075 469.195C299.335 467.895 299.465 466.573 299.465 465.23C299.465 463.887 299.335 462.565 299.075 461.265C298.815 459.965 298.36 458.817 297.71 457.82C297.103 456.823 296.258 456.022 295.175 455.415C294.135 454.765 292.835 454.44 291.275 454.44C289.715 454.44 288.415 454.765 287.375 455.415C286.335 456.022 285.49 456.823 284.84 457.82C284.233 458.817 283.8 459.965 283.54 461.265C283.28 462.565 283.15 463.887 283.15 465.23ZM273.92 465.23C273.92 462.543 274.332 460.117 275.155 457.95C275.978 455.74 277.148 453.877 278.665 452.36C280.182 450.8 282.002 449.608 284.125 448.785C286.248 447.918 288.632 447.485 291.275 447.485C293.918 447.485 296.302 447.918 298.425 448.785C300.592 449.608 302.433 450.8 303.95 452.36C305.467 453.877 306.637 455.74 307.46 457.95C308.283 460.117 308.695 462.543 308.695 465.23C308.695 467.917 308.283 470.343 307.46 472.51C306.637 474.677 305.467 476.54 303.95 478.1C302.433 479.617 300.592 480.787 298.425 481.61C296.302 482.433 293.918 482.845 291.275 482.845C288.632 482.845 286.248 482.433 284.125 481.61C282.002 480.787 280.182 479.617 278.665 478.1C277.148 476.54 275.978 474.677 275.155 472.51C274.332 470.343 273.92 467.917 273.92 465.23ZM312.746 448.395H321.521V453.075H321.716C322.886 451.125 324.403 449.717 326.266 448.85C328.13 447.94 330.036 447.485 331.986 447.485C334.456 447.485 336.471 447.832 338.031 448.525C339.635 449.175 340.891 450.107 341.801 451.32C342.711 452.49 343.34 453.942 343.686 455.675C344.076 457.365 344.271 459.25 344.271 461.33V482H335.041V463.02C335.041 460.247 334.608 458.188 333.741 456.845C332.875 455.458 331.336 454.765 329.126 454.765C326.613 454.765 324.793 455.523 323.666 457.04C322.54 458.513 321.976 460.962 321.976 464.385V482H312.746V448.395ZM365.468 448.395H374.243V454.635H374.373C374.806 453.595 375.391 452.642 376.128 451.775C376.864 450.865 377.709 450.107 378.663 449.5C379.616 448.85 380.634 448.352 381.718 448.005C382.801 447.658 383.928 447.485 385.098 447.485C385.704 447.485 386.376 447.593 387.113 447.81V456.39C386.679 456.303 386.159 456.238 385.553 456.195C384.946 456.108 384.361 456.065 383.798 456.065C382.108 456.065 380.678 456.347 379.508 456.91C378.338 457.473 377.384 458.253 376.648 459.25C375.954 460.203 375.456 461.33 375.153 462.63C374.849 463.93 374.698 465.338 374.698 466.855V482H365.468V448.395ZM420.306 482H411.531V477.32H411.336C410.166 479.27 408.65 480.678 406.786 481.545C404.923 482.412 403.016 482.845 401.066 482.845C398.596 482.845 396.56 482.52 394.956 481.87C393.396 481.22 392.161 480.31 391.251 479.14C390.341 477.927 389.691 476.475 389.301 474.785C388.955 473.052 388.781 471.145 388.781 469.065V448.395H398.011V467.375C398.011 470.148 398.445 472.228 399.311 473.615C400.178 474.958 401.716 475.63 403.926 475.63C406.44 475.63 408.26 474.893 409.386 473.42C410.513 471.903 411.076 469.433 411.076 466.01V448.395H420.306V482ZM441.026 474.07C442.326 474.07 443.475 473.81 444.471 473.29C445.468 472.77 446.291 472.077 446.941 471.21C447.591 470.343 448.068 469.368 448.371 468.285C448.718 467.158 448.891 465.988 448.891 464.775C448.891 463.388 448.761 462.088 448.501 460.875C448.241 459.618 447.808 458.513 447.201 457.56C446.595 456.607 445.793 455.848 444.796 455.285C443.8 454.722 442.543 454.44 441.026 454.44C439.726 454.44 438.6 454.7 437.646 455.22C436.736 455.74 435.956 456.455 435.306 457.365C434.7 458.232 434.245 459.25 433.941 460.42C433.681 461.547 433.551 462.738 433.551 463.995C433.551 465.208 433.66 466.422 433.876 467.635C434.136 468.805 434.548 469.867 435.111 470.82C435.718 471.773 436.498 472.553 437.451 473.16C438.405 473.767 439.596 474.07 441.026 474.07ZM457.666 479.855C457.666 481.198 457.471 482.737 457.081 484.47C456.735 486.203 455.955 487.807 454.741 489.28C453.528 490.797 451.773 492.075 449.476 493.115C447.18 494.155 444.103 494.675 440.246 494.675C438.6 494.675 436.91 494.458 435.176 494.025C433.486 493.635 431.926 493.007 430.496 492.14C429.11 491.273 427.94 490.147 426.986 488.76C426.076 487.417 425.556 485.792 425.426 483.885H434.591C435.025 485.618 435.87 486.81 437.126 487.46C438.383 488.153 439.835 488.5 441.481 488.5C444.081 488.5 445.966 487.72 447.136 486.16C448.35 484.6 448.935 482.628 448.891 480.245V475.825H448.761C447.765 477.602 446.335 478.923 444.471 479.79C442.651 480.613 440.723 481.025 438.686 481.025C436.173 481.025 434.006 480.592 432.186 479.725C430.366 478.815 428.871 477.602 427.701 476.085C426.531 474.525 425.665 472.727 425.101 470.69C424.581 468.61 424.321 466.422 424.321 464.125C424.321 461.958 424.625 459.878 425.231 457.885C425.881 455.848 426.813 454.072 428.026 452.555C429.24 450.995 430.735 449.76 432.511 448.85C434.331 447.94 436.411 447.485 438.751 447.485C440.961 447.485 442.89 447.897 444.536 448.72C446.226 449.543 447.635 450.93 448.761 452.88H448.891V448.395H457.666V479.855ZM470.298 471.08C470.298 472.077 470.493 472.943 470.883 473.68C471.316 474.373 471.858 474.958 472.508 475.435C473.158 475.868 473.894 476.193 474.718 476.41C475.584 476.627 476.473 476.735 477.383 476.735C478.033 476.735 478.704 476.67 479.398 476.54C480.134 476.367 480.784 476.128 481.348 475.825C481.954 475.478 482.453 475.045 482.843 474.525C483.233 473.962 483.428 473.268 483.428 472.445C483.428 471.058 482.496 470.018 480.633 469.325C478.813 468.632 476.256 467.938 472.963 467.245C471.619 466.942 470.298 466.595 468.998 466.205C467.741 465.772 466.614 465.23 465.618 464.58C464.621 463.887 463.819 463.042 463.213 462.045C462.606 461.005 462.303 459.748 462.303 458.275C462.303 456.108 462.714 454.332 463.538 452.945C464.404 451.558 465.531 450.475 466.918 449.695C468.304 448.872 469.864 448.308 471.598 448.005C473.331 447.658 475.108 447.485 476.928 447.485C478.748 447.485 480.503 447.658 482.193 448.005C483.926 448.352 485.464 448.937 486.808 449.76C488.151 450.583 489.256 451.688 490.123 453.075C491.033 454.418 491.574 456.13 491.748 458.21H482.973C482.843 456.433 482.171 455.242 480.958 454.635C479.744 453.985 478.314 453.66 476.668 453.66C476.148 453.66 475.584 453.703 474.978 453.79C474.371 453.833 473.808 453.963 473.288 454.18C472.811 454.397 472.399 454.722 472.053 455.155C471.706 455.545 471.533 456.087 471.533 456.78C471.533 457.603 471.836 458.275 472.443 458.795C473.049 459.315 473.829 459.748 474.783 460.095C475.779 460.398 476.906 460.68 478.163 460.94C479.419 461.2 480.698 461.482 481.998 461.785C483.341 462.088 484.641 462.457 485.898 462.89C487.198 463.323 488.346 463.908 489.343 464.645C490.339 465.338 491.141 466.227 491.748 467.31C492.354 468.35 492.658 469.65 492.658 471.21C492.658 473.42 492.203 475.283 491.293 476.8C490.426 478.273 489.278 479.465 487.848 480.375C486.418 481.285 484.771 481.913 482.908 482.26C481.088 482.65 479.224 482.845 477.318 482.845C475.368 482.845 473.461 482.65 471.598 482.26C469.734 481.87 468.066 481.22 466.593 480.31C465.163 479.4 463.971 478.208 463.018 476.735C462.108 475.218 461.609 473.333 461.523 471.08H470.298Z" fill="#373636"/>
<defs>
<clipPath id="clip0_3093_2423">
<rect width="354.805" height="78" fill="white" transform="translate(206.801 285)"/>
</clipPath>
</defs>
</svg>
