<svg width="767" height="767" viewBox="0 0 767 767" fill="none" xmlns="http://www.w3.org/2000/svg">
<path d="M279 658C279 655.791 280.791 654 283 654H485C487.209 654 489 655.791 489 658V720C489 722.209 487.209 724 485 724H283C280.791 724 279 722.209 279 720V658Z" fill="#BD0000"/>
<path d="M326.712 684.84C326.541 683.197 325.944 682.013 324.92 681.288C323.917 680.541 322.627 680.168 321.048 680.168C320.408 680.168 319.779 680.232 319.16 680.36C318.541 680.488 317.987 680.701 317.496 681C317.027 681.299 316.643 681.704 316.344 682.216C316.067 682.707 315.928 683.325 315.928 684.072C315.928 684.776 316.131 685.352 316.536 685.8C316.963 686.227 317.517 686.579 318.2 686.856C318.904 687.133 319.693 687.368 320.568 687.56C321.443 687.731 322.328 687.923 323.224 688.136C324.141 688.349 325.037 688.605 325.912 688.904C326.787 689.181 327.565 689.565 328.248 690.056C328.952 690.547 329.507 691.165 329.912 691.912C330.339 692.659 330.552 693.597 330.552 694.728C330.552 695.944 330.275 696.989 329.72 697.864C329.187 698.717 328.493 699.421 327.64 699.976C326.787 700.509 325.827 700.893 324.76 701.128C323.715 701.384 322.669 701.512 321.624 701.512C320.344 701.512 319.128 701.352 317.976 701.032C316.845 700.712 315.843 700.232 314.968 699.592C314.115 698.931 313.432 698.099 312.92 697.096C312.429 696.072 312.184 694.867 312.184 693.48H315.064C315.064 694.44 315.245 695.272 315.608 695.976C315.992 696.659 316.483 697.224 317.08 697.672C317.699 698.12 318.413 698.451 319.224 698.664C320.035 698.877 320.867 698.984 321.72 698.984C322.403 698.984 323.085 698.92 323.768 698.792C324.472 698.664 325.101 698.451 325.656 698.152C326.211 697.832 326.659 697.405 327 696.872C327.341 696.339 327.512 695.656 327.512 694.824C327.512 694.035 327.299 693.395 326.872 692.904C326.467 692.413 325.912 692.019 325.208 691.72C324.525 691.4 323.747 691.144 322.872 690.952C321.997 690.76 321.101 690.568 320.184 690.376C319.288 690.163 318.403 689.928 317.528 689.672C316.653 689.395 315.864 689.043 315.16 688.616C314.477 688.168 313.923 687.603 313.496 686.92C313.091 686.216 312.888 685.341 312.888 684.296C312.888 683.144 313.123 682.152 313.592 681.32C314.061 680.467 314.68 679.773 315.448 679.24C316.237 678.685 317.123 678.28 318.104 678.024C319.107 677.747 320.131 677.608 321.176 677.608C322.349 677.608 323.437 677.747 324.44 678.024C325.443 678.301 326.317 678.739 327.064 679.336C327.832 679.933 328.429 680.691 328.856 681.608C329.304 682.504 329.549 683.581 329.592 684.84H326.712ZM348.454 700.936C347.985 701.213 347.334 701.352 346.502 701.352C345.798 701.352 345.233 701.16 344.806 700.776C344.401 700.371 344.198 699.72 344.198 698.824C343.451 699.72 342.577 700.371 341.574 700.776C340.593 701.16 339.526 701.352 338.374 701.352C337.627 701.352 336.913 701.267 336.23 701.096C335.569 700.925 334.993 700.659 334.502 700.296C334.011 699.933 333.617 699.464 333.318 698.888C333.041 698.291 332.902 697.576 332.902 696.744C332.902 695.805 333.062 695.037 333.382 694.44C333.702 693.843 334.118 693.363 334.63 693C335.163 692.616 335.761 692.328 336.422 692.136C337.105 691.944 337.798 691.784 338.502 691.656C339.249 691.507 339.953 691.4 340.614 691.336C341.297 691.251 341.894 691.144 342.406 691.016C342.918 690.867 343.323 690.664 343.622 690.408C343.921 690.131 344.07 689.736 344.07 689.224C344.07 688.627 343.953 688.147 343.718 687.784C343.505 687.421 343.217 687.144 342.854 686.952C342.513 686.76 342.118 686.632 341.67 686.568C341.243 686.504 340.817 686.472 340.39 686.472C339.238 686.472 338.278 686.696 337.51 687.144C336.742 687.571 336.326 688.392 336.262 689.608H333.542C333.585 688.584 333.798 687.72 334.182 687.016C334.566 686.312 335.078 685.747 335.718 685.32C336.358 684.872 337.083 684.552 337.894 684.36C338.726 684.168 339.611 684.072 340.55 684.072C341.297 684.072 342.033 684.125 342.758 684.232C343.505 684.339 344.177 684.563 344.774 684.904C345.371 685.224 345.851 685.683 346.214 686.28C346.577 686.877 346.758 687.656 346.758 688.616V697.128C346.758 697.768 346.79 698.237 346.854 698.536C346.939 698.835 347.195 698.984 347.622 698.984C347.857 698.984 348.134 698.931 348.454 698.824V700.936ZM344.038 692.456C343.697 692.712 343.249 692.904 342.694 693.032C342.139 693.139 341.553 693.235 340.934 693.32C340.337 693.384 339.729 693.469 339.11 693.576C338.491 693.661 337.937 693.811 337.446 694.024C336.955 694.237 336.55 694.547 336.23 694.952C335.931 695.336 335.782 695.869 335.782 696.552C335.782 697 335.867 697.384 336.038 697.704C336.23 698.003 336.465 698.248 336.742 698.44C337.041 698.632 337.382 698.771 337.766 698.856C338.15 698.941 338.555 698.984 338.982 698.984C339.878 698.984 340.646 698.867 341.286 698.632C341.926 698.376 342.449 698.067 342.854 697.704C343.259 697.32 343.558 696.915 343.75 696.488C343.942 696.04 344.038 695.624 344.038 695.24V692.456ZM358.442 701H355.53L349.386 684.456H352.426L357.066 698.248H357.13L361.642 684.456H364.49L358.442 701ZM378.474 691.144C378.431 690.504 378.282 689.896 378.026 689.32C377.791 688.744 377.46 688.253 377.034 687.848C376.628 687.421 376.138 687.091 375.562 686.856C375.007 686.6 374.388 686.472 373.706 686.472C373.002 686.472 372.362 686.6 371.786 686.856C371.231 687.091 370.751 687.421 370.346 687.848C369.94 688.275 369.62 688.776 369.386 689.352C369.151 689.907 369.012 690.504 368.97 691.144H378.474ZM381.097 695.752C380.735 697.608 379.935 699.005 378.698 699.944C377.46 700.883 375.903 701.352 374.026 701.352C372.703 701.352 371.551 701.139 370.57 700.712C369.61 700.285 368.799 699.688 368.138 698.92C367.476 698.152 366.975 697.235 366.634 696.168C366.314 695.101 366.132 693.939 366.09 692.68C366.09 691.421 366.282 690.269 366.666 689.224C367.05 688.179 367.583 687.272 368.266 686.504C368.97 685.736 369.791 685.139 370.73 684.712C371.69 684.285 372.735 684.072 373.866 684.072C375.338 684.072 376.554 684.381 377.514 685C378.495 685.597 379.274 686.365 379.85 687.304C380.447 688.243 380.852 689.267 381.066 690.376C381.3 691.485 381.396 692.541 381.354 693.544H368.97C368.948 694.269 369.034 694.963 369.226 695.624C369.418 696.264 369.727 696.84 370.154 697.352C370.58 697.843 371.124 698.237 371.786 698.536C372.447 698.835 373.226 698.984 374.122 698.984C375.274 698.984 376.212 698.717 376.938 698.184C377.684 697.651 378.175 696.84 378.41 695.752H381.097ZM393.495 678.152H396.727L408.759 696.68H408.823V678.152H411.703V701H408.375L396.439 682.664H396.375V701H393.495V678.152ZM418.157 692.744C418.157 693.747 418.285 694.643 418.541 695.432C418.818 696.2 419.192 696.851 419.661 697.384C420.13 697.896 420.674 698.291 421.293 698.568C421.933 698.845 422.605 698.984 423.309 698.984C424.013 698.984 424.674 698.845 425.293 698.568C425.933 698.291 426.488 697.896 426.957 697.384C427.426 696.851 427.789 696.2 428.045 695.432C428.322 694.643 428.461 693.747 428.461 692.744C428.461 691.741 428.322 690.856 428.045 690.088C427.789 689.299 427.426 688.637 426.957 688.104C426.488 687.571 425.933 687.165 425.293 686.888C424.674 686.611 424.013 686.472 423.309 686.472C422.605 686.472 421.933 686.611 421.293 686.888C420.674 687.165 420.13 687.571 419.661 688.104C419.192 688.637 418.818 689.299 418.541 690.088C418.285 690.856 418.157 691.741 418.157 692.744ZM415.277 692.744C415.277 691.528 415.448 690.397 415.789 689.352C416.13 688.285 416.642 687.368 417.325 686.6C418.008 685.811 418.85 685.192 419.853 684.744C420.856 684.296 422.008 684.072 423.309 684.072C424.632 684.072 425.784 684.296 426.765 684.744C427.768 685.192 428.61 685.811 429.293 686.6C429.976 687.368 430.488 688.285 430.829 689.352C431.17 690.397 431.341 691.528 431.341 692.744C431.341 693.96 431.17 695.091 430.829 696.136C430.488 697.181 429.976 698.099 429.293 698.888C428.61 699.656 427.768 700.264 426.765 700.712C425.784 701.139 424.632 701.352 423.309 701.352C422.008 701.352 420.856 701.139 419.853 700.712C418.85 700.264 418.008 699.656 417.325 698.888C416.642 698.099 416.13 697.181 415.789 696.136C415.448 695.091 415.277 693.96 415.277 692.744ZM450.932 701H448.052L444.692 687.848H444.628L441.3 701H438.356L433.044 684.456H436.052L439.796 697.992H439.86L443.188 684.456H446.164L449.62 697.992H449.684L453.396 684.456H456.212L450.932 701Z" fill="#FBF9F3"/>
<path d="M156.561 79.7878H153.011V77.8941H152.932C152.458 78.6832 151.844 79.253 151.09 79.6037C150.336 79.9544 149.565 80.1298 148.776 80.1298C147.776 80.1298 146.952 79.9983 146.303 79.7352C145.672 79.4722 145.173 79.104 144.804 78.6305C144.436 78.1396 144.173 77.5522 144.015 76.8683C143.875 76.1669 143.805 75.3954 143.805 74.5537V66.1896H147.54V73.8699C147.54 74.9921 147.715 75.8338 148.066 76.3949C148.416 76.9384 149.039 77.2102 149.933 77.2102C150.95 77.2102 151.687 76.9121 152.143 76.316C152.598 75.7022 152.826 74.7028 152.826 73.3175V66.1896H156.561V79.7878ZM166.261 77.3417C166.875 77.3417 167.383 77.219 167.786 76.9735C168.207 76.728 168.54 76.4124 168.786 76.0266C169.049 75.6233 169.233 75.1587 169.338 74.6326C169.443 74.1066 169.496 73.5718 169.496 73.0282C169.496 72.4846 169.435 71.9498 169.312 71.4238C169.207 70.8977 169.023 70.433 168.76 70.0297C168.497 69.6089 168.155 69.2757 167.734 69.0303C167.33 68.7672 166.831 68.6357 166.235 68.6357C165.621 68.6357 165.104 68.7672 164.683 69.0303C164.279 69.2757 163.946 69.6001 163.683 70.0034C163.438 70.4067 163.262 70.8714 163.157 71.3975C163.052 71.9235 162.999 72.4671 162.999 73.0282C162.999 73.5718 163.052 74.1066 163.157 74.6326C163.28 75.1587 163.464 75.6233 163.71 76.0266C163.973 76.4124 164.315 76.728 164.735 76.9735C165.156 77.219 165.665 77.3417 166.261 77.3417ZM159.396 66.1896H162.947V67.9256H162.999C163.455 67.1891 164.034 66.6543 164.735 66.3211C165.437 65.988 166.208 65.8214 167.05 65.8214C168.12 65.8214 169.04 66.023 169.812 66.4263C170.583 66.8296 171.223 67.3645 171.732 68.0308C172.24 68.6971 172.617 69.4774 172.863 70.3717C173.108 71.2484 173.231 72.169 173.231 73.1334C173.231 74.0452 173.108 74.9219 172.863 75.7636C172.617 76.6053 172.24 77.3505 171.732 77.9993C171.241 78.6481 170.618 79.1654 169.864 79.5511C169.128 79.9369 168.26 80.1298 167.26 80.1298C166.419 80.1298 165.638 79.9632 164.919 79.63C164.218 79.2793 163.639 78.7708 163.184 78.1045H163.131V84.5485H159.396V66.1896ZM187.53 66.1896H190.265V68.6883H187.53V75.4217C187.53 76.0529 187.635 76.4738 187.846 76.6842C188.056 76.8946 188.477 76.9998 189.108 76.9998C189.319 76.9998 189.52 76.991 189.713 76.9735C189.906 76.956 190.09 76.9297 190.265 76.8946V79.7878C189.95 79.8404 189.599 79.8755 189.213 79.8931C188.828 79.9106 188.451 79.9194 188.082 79.9194C187.504 79.9194 186.951 79.8755 186.425 79.7878C185.917 79.7177 185.461 79.5687 185.058 79.3407C184.672 79.1128 184.365 78.7884 184.137 78.3675C183.909 77.9467 183.795 77.3943 183.795 76.7105V68.6883H181.533V66.1896H183.795V62.1128H187.53V66.1896ZM195.357 73.0019C195.357 73.5455 195.409 74.0803 195.514 74.6063C195.62 75.1148 195.795 75.5795 196.04 76.0003C196.303 76.4036 196.645 76.728 197.066 76.9735C197.487 77.219 198.013 77.3417 198.644 77.3417C199.276 77.3417 199.802 77.219 200.223 76.9735C200.661 76.728 201.003 76.4036 201.248 76.0003C201.511 75.5795 201.695 75.1148 201.801 74.6063C201.906 74.0803 201.958 73.5455 201.958 73.0019C201.958 72.4583 201.906 71.9235 201.801 71.3975C201.695 70.8714 201.511 70.4067 201.248 70.0034C201.003 69.6001 200.661 69.2757 200.223 69.0303C199.802 68.7672 199.276 68.6357 198.644 68.6357C198.013 68.6357 197.487 68.7672 197.066 69.0303C196.645 69.2757 196.303 69.6001 196.04 70.0034C195.795 70.4067 195.62 70.8714 195.514 71.3975C195.409 71.9235 195.357 72.4583 195.357 73.0019ZM191.622 73.0019C191.622 71.9147 191.788 70.9328 192.121 70.056C192.455 69.1618 192.928 68.4078 193.542 67.7941C194.155 67.1628 194.892 66.6806 195.751 66.3474C196.61 65.9967 197.575 65.8214 198.644 65.8214C199.714 65.8214 200.678 65.9967 201.538 66.3474C202.414 66.6806 203.16 67.1628 203.773 67.7941C204.387 68.4078 204.86 69.1618 205.194 70.056C205.527 70.9328 205.693 71.9147 205.693 73.0019C205.693 74.089 205.527 75.071 205.194 75.9477C204.86 76.8245 204.387 77.5785 203.773 78.2097C203.16 78.8234 202.414 79.2969 201.538 79.63C200.678 79.9632 199.714 80.1298 198.644 80.1298C197.575 80.1298 196.61 79.9632 195.751 79.63C194.892 79.2969 194.155 78.8234 193.542 78.2097C192.928 77.5785 192.455 76.8245 192.121 75.9477C191.788 75.071 191.622 74.089 191.622 73.0019Z" fill="#FFFEF9"/>
<path d="M77.4646 115.864C78.9312 110.983 81.3527 106.443 84.5884 102.506C87.8235 98.6466 91.9157 95.5963 96.5387 93.5988C101.335 91.4716 106.852 90.4081 113.091 90.4081C117.709 90.383 122.299 91.1319 126.67 92.6239C130.821 94.0213 134.673 96.186 138.025 99.0053C141.327 101.823 143.986 105.316 145.821 109.25C147.749 113.307 148.713 117.862 148.713 122.914C148.713 128.158 147.872 132.661 146.191 136.422C144.55 140.118 142.291 143.506 139.51 146.441C136.666 149.422 133.506 152.084 130.086 154.381C126.57 156.755 123.032 159.105 119.472 161.431C115.912 163.758 112.448 166.257 109.08 168.928C105.696 171.621 102.7 174.769 100.176 178.282H149.293V196.378H72.9961C72.9961 190.343 73.8578 185.099 75.5812 180.646C77.2519 176.298 79.6358 172.259 82.6348 168.695C85.7335 165.06 89.2443 161.796 93.0968 158.972C97.1073 156.002 101.338 152.984 105.79 149.916C108.064 148.336 110.49 146.728 113.065 145.094C115.575 143.507 117.935 141.693 120.115 139.676C122.217 137.726 124.018 135.475 125.458 132.995C126.92 130.419 127.663 127.497 127.611 124.535C127.611 119.488 126.151 115.549 123.231 112.717C120.312 109.886 116.575 108.477 112.023 108.489C108.956 108.489 106.358 109.207 104.231 110.642C102.095 112.083 100.338 114.017 99.109 116.281C97.793 118.693 96.8668 121.298 96.3651 123.999C95.8254 126.762 95.5521 129.571 95.549 132.386H75.3596C75.1288 126.799 75.8405 121.214 77.4646 115.864Z" fill="#FFFEF9"/>
<path d="M257.087 156.516V159.766H263.04V164.98H257.087V191.485H250.096V164.98H239.482V191.485H232.488V164.98H227.273V159.766H232.488V157.129C232.488 155.127 232.734 153.501 233.227 152.25C233.624 151.138 234.301 150.146 235.191 149.37C235.998 148.699 236.956 148.235 237.983 148.018C239.061 147.79 240.161 147.677 241.263 147.682C243.513 147.682 245.149 147.825 246.17 148.111V153.569C245.698 153.442 245.216 153.351 244.73 153.296C244.129 153.229 243.525 153.198 242.921 153.203C242.063 153.18 241.219 153.415 240.498 153.879C239.823 154.33 239.486 155.209 239.486 156.516V159.766H250.1V157.129C250.1 155.127 250.346 153.501 250.838 152.25C251.236 151.139 251.911 150.148 252.799 149.37C253.607 148.7 254.565 148.236 255.591 148.018C256.67 147.79 257.771 147.677 258.874 147.682C261.122 147.682 262.758 147.825 263.782 148.111V153.569C263.31 153.442 262.828 153.351 262.342 153.296C261.741 153.229 261.137 153.198 260.532 153.203C259.674 153.18 258.829 153.415 258.106 153.879C257.43 154.33 257.087 155.212 257.087 156.516Z" fill="#FFFEF9"/>
<path d="M222.347 163.632C220.937 162.13 219.222 160.948 217.317 160.164C215.162 159.292 212.854 158.863 210.529 158.905C209.283 158.898 208.039 159.01 206.814 159.241L245.823 92.8523H243.135L226.18 121.68C225.936 120.657 225.674 119.659 225.394 118.699C223.357 111.806 220.583 106.281 217.07 102.125C213.556 97.9695 209.494 94.9967 204.883 93.2069C200.168 91.4057 195.158 90.4989 190.111 90.5332C185.107 90.5055 180.143 91.4122 175.472 93.2069C170.863 94.9893 166.824 97.9621 163.355 102.125C159.886 106.289 157.138 111.813 155.109 118.699C153.075 125.593 152.059 134.087 152.059 144.181C152.059 154.585 153.075 163.281 155.109 170.268C157.143 177.255 159.891 182.829 163.355 186.99C166.824 191.15 170.863 194.123 175.472 195.908C177.426 196.664 179.438 197.259 181.488 197.688L178.216 203.22H180.986L194.879 179.585C195.051 180.523 195.298 181.445 195.617 182.344C196.281 184.302 197.346 186.099 198.745 187.621C200.156 189.123 201.872 190.306 203.779 191.089C208.143 192.763 212.972 192.763 217.336 191.089C219.24 190.305 220.955 189.122 222.365 187.621C223.764 186.099 224.829 184.302 225.493 182.344C226.926 177.98 226.926 173.273 225.493 168.909C224.824 166.95 223.752 165.152 222.347 163.632ZM190.096 181.358C185.834 181.358 182.565 179.971 180.288 177.196C177.921 174.253 176.222 170.831 175.309 167.166C174.262 163.181 173.643 159.095 173.463 154.979C173.264 150.769 173.165 147.177 173.168 144.203C173.168 142.42 173.192 140.265 173.241 137.737C173.291 135.208 173.464 132.607 173.762 129.933C174.057 127.25 174.551 124.592 175.239 121.982C175.871 119.505 176.846 117.128 178.138 114.921C179.322 112.898 180.948 111.17 182.895 109.866C184.827 108.581 187.23 107.937 190.104 107.934C192.977 107.932 195.405 108.576 197.39 109.866C199.38 111.165 201.056 112.892 202.294 114.921C203.624 117.109 204.602 119.492 205.193 121.982C205.832 124.603 206.325 127.258 206.67 129.933C207.009 132.522 207.208 135.127 207.265 137.737C207.314 140.263 207.339 142.418 207.339 144.203C207.339 146.987 207.251 150.311 207.076 154.174L191.108 181.321C190.768 181.343 190.429 181.354 190.085 181.354L190.096 181.358ZM219.034 179.678C218.708 180.96 218.158 182.175 217.409 183.267C216.676 184.33 215.711 185.214 214.588 185.852C213.336 186.498 211.947 186.835 210.539 186.835C209.13 186.835 207.741 186.498 206.489 185.852C205.364 185.216 204.399 184.332 203.668 183.267C202.916 182.177 202.366 180.961 202.043 179.678C201.344 177.014 201.344 174.216 202.043 171.553C202.358 170.266 202.909 169.049 203.668 167.964C204.408 166.917 205.372 166.048 206.489 165.419C207.741 164.773 209.13 164.437 210.539 164.437C211.947 164.437 213.336 164.773 214.588 165.419C215.704 166.05 216.667 166.919 217.409 167.964C218.166 169.051 218.716 170.267 219.034 171.553C219.728 174.217 219.728 177.014 219.034 179.678Z" fill="#FFFEF9"/>
<path d="M234.682 97.0293C234.533 96.2983 234.238 95.6049 233.814 94.9908C233.4 94.4095 232.851 93.937 232.215 93.6133C231.445 93.2515 230.599 93.0781 229.748 93.1074C228.92 93.0878 228.098 93.2557 227.344 93.5985C226.689 93.9107 226.115 94.3709 225.668 94.9428C225.213 95.5364 224.88 96.2141 224.689 96.937C224.473 97.73 224.366 98.5488 224.371 99.3707C224.365 100.185 224.455 100.997 224.641 101.79C224.795 102.489 225.098 103.148 225.527 103.721C225.953 104.271 226.509 104.707 227.145 104.988C227.918 105.317 228.753 105.474 229.593 105.449C230.416 105.469 231.235 105.318 231.997 105.006C232.642 104.733 233.211 104.31 233.659 103.773C234.105 103.217 234.433 102.576 234.623 101.889C234.841 101.112 234.948 100.307 234.941 99.4999C234.943 98.6695 234.857 97.8412 234.682 97.0293ZM231.661 100.589C231.633 100.99 231.549 101.384 231.41 101.76C231.281 102.119 231.062 102.439 230.775 102.691C230.438 102.938 230.031 103.071 229.614 103.071C229.196 103.071 228.789 102.938 228.452 102.691C228.177 102.436 227.97 102.116 227.85 101.76C227.722 101.377 227.647 100.978 227.629 100.575C227.61 100.15 227.599 99.7732 227.599 99.4334C227.599 99.0937 227.599 98.6654 227.647 98.2C227.673 97.7574 227.762 97.3208 227.913 96.9038C228.05 96.5215 228.272 96.1754 228.563 95.8919C228.888 95.6036 229.314 95.4561 229.748 95.482C229.954 95.4691 230.16 95.5022 230.352 95.5788C230.544 95.6555 230.716 95.7738 230.856 95.9251C231.127 96.236 231.327 96.603 231.44 96.9998C231.567 97.4266 231.647 97.8663 231.676 98.3108C231.709 98.765 231.724 99.1491 231.724 99.4667C231.724 99.7843 231.694 100.187 231.661 100.589ZM251.001 107.606C250.855 106.893 250.559 106.22 250.133 105.63C249.715 105.065 249.167 104.608 248.534 104.301C247.761 103.947 246.917 103.779 246.068 103.81C245.241 103.789 244.42 103.952 243.663 104.286C243.012 104.582 242.44 105.026 241.991 105.582C241.535 106.151 241.201 106.807 241.008 107.51C240.791 108.293 240.684 109.102 240.691 109.914C240.687 110.734 240.777 111.552 240.96 112.351C241.12 113.063 241.421 113.735 241.846 114.327C242.266 114.893 242.821 115.344 243.46 115.638C244.231 115.977 245.067 116.14 245.909 116.115C246.734 116.135 247.554 115.977 248.313 115.653C248.963 115.369 249.533 114.93 249.975 114.375C250.419 113.801 250.747 113.145 250.939 112.444C251.156 111.661 251.262 110.852 251.256 110.04C251.262 109.218 251.176 108.398 251.001 107.595V107.606ZM247.98 111.133C247.952 111.553 247.868 111.968 247.729 112.366C247.6 112.744 247.384 113.085 247.098 113.363C246.782 113.648 246.366 113.795 245.942 113.773C245.729 113.787 245.516 113.758 245.315 113.688C245.114 113.617 244.929 113.507 244.771 113.363C244.495 113.083 244.289 112.741 244.169 112.366C244.042 111.962 243.967 111.542 243.948 111.118C243.929 110.675 243.918 110.283 243.918 109.947C243.918 109.611 243.918 109.187 243.966 108.743C243.993 108.321 244.083 107.905 244.236 107.51C244.371 107.146 244.593 106.82 244.882 106.561C245.218 106.296 245.64 106.164 246.068 106.192C246.272 106.179 246.477 106.211 246.668 106.285C246.859 106.358 247.033 106.473 247.175 106.62C247.441 106.911 247.64 107.256 247.759 107.632C247.887 108.032 247.967 108.446 247.995 108.865C248.028 109.297 248.043 109.674 248.043 109.973C248.043 110.272 248.014 110.69 247.98 111.122V111.133Z" fill="#FFFEF9"/>
<path d="M266.523 152.996L267.118 151.238L270.091 152.402V149.159H271.937V152.402L274.892 151.238L275.527 152.996L272.447 154.023L274.338 156.56L272.909 157.612L270.988 154.968L269.142 157.612L267.628 156.56L269.518 154.023L266.523 152.996Z" fill="#FFFEF9"/>
<line x1="334.324" y1="155.965" x2="682.062" y2="155.965" stroke="#BD0000" stroke-width="2"/>
<path d="M468.899 81.4609C468.92 82.0409 469.054 82.538 469.303 82.9523C469.552 83.3458 469.873 83.6669 470.266 83.9155C470.68 84.1433 471.136 84.309 471.633 84.4126C472.151 84.5162 472.679 84.5679 473.218 84.5679C473.632 84.5679 474.067 84.5369 474.523 84.4747C474.979 84.4126 475.393 84.2987 475.766 84.133C476.159 83.9672 476.48 83.729 476.729 83.4183C476.977 83.0869 477.102 82.6726 477.102 82.1755C477.102 81.492 476.843 80.9741 476.325 80.622C475.807 80.2698 475.155 79.9902 474.367 79.7831C473.601 79.5552 472.762 79.3584 471.851 79.1927C470.939 79.0063 470.09 78.7577 469.303 78.447C468.537 78.1156 467.894 77.6599 467.377 77.0799C466.859 76.4999 466.6 75.6921 466.6 74.6564C466.6 73.8486 466.776 73.1547 467.128 72.5747C467.501 71.9947 467.967 71.5286 468.526 71.1765C469.106 70.8037 469.748 70.5344 470.453 70.3687C471.178 70.1823 471.892 70.089 472.596 70.089C473.508 70.089 474.347 70.1719 475.113 70.3376C475.88 70.4826 476.553 70.7519 477.133 71.1454C477.733 71.5183 478.21 72.0361 478.562 72.699C478.914 73.3411 479.121 74.1489 479.183 75.1225H476.542C476.501 74.6046 476.366 74.18 476.139 73.8486C475.911 73.4965 475.621 73.2168 475.269 73.0097C474.916 72.8025 474.523 72.6575 474.088 72.5747C473.674 72.4711 473.249 72.4193 472.814 72.4193C472.42 72.4193 472.016 72.4504 471.602 72.5125C471.209 72.5747 470.846 72.6886 470.515 72.8543C470.183 72.9993 469.914 73.2065 469.707 73.4757C469.5 73.7243 469.396 74.0557 469.396 74.47C469.396 74.9257 469.552 75.3089 469.862 75.6196C470.194 75.9096 470.608 76.1582 471.105 76.3653C471.602 76.5517 472.161 76.7174 472.783 76.8624C473.404 76.9867 474.026 77.1214 474.647 77.2664C475.31 77.4113 475.952 77.5874 476.574 77.7946C477.216 78.0017 477.775 78.2813 478.251 78.6335C478.748 78.9649 479.142 79.3895 479.432 79.9074C479.743 80.4252 479.898 81.0673 479.898 81.8337C479.898 82.8073 479.691 83.6151 479.277 84.2572C478.883 84.8994 478.355 85.4172 477.692 85.8108C477.05 86.2043 476.315 86.4736 475.486 86.6186C474.678 86.7843 473.87 86.8672 473.063 86.8672C472.172 86.8672 471.323 86.774 470.515 86.5875C469.707 86.4011 468.992 86.1008 468.371 85.6865C467.749 85.2515 467.252 84.6922 466.879 84.0087C466.507 83.3044 466.299 82.4551 466.258 81.4609H468.899ZM493.041 76.9556C492.999 76.3342 492.854 75.7439 492.606 75.1846C492.378 74.6253 492.057 74.1489 491.643 73.7554C491.249 73.3411 490.773 73.02 490.213 72.7922C489.675 72.5436 489.074 72.4193 488.411 72.4193C487.728 72.4193 487.106 72.5436 486.547 72.7922C486.009 73.02 485.543 73.3411 485.149 73.7554C484.755 74.1696 484.445 74.6564 484.217 75.2157C483.989 75.7542 483.854 76.3342 483.813 76.9556H493.041ZM495.589 81.4298C495.237 83.2319 494.46 84.5887 493.258 85.5001C492.057 86.4115 490.545 86.8672 488.722 86.8672C487.438 86.8672 486.319 86.66 485.366 86.2458C484.434 85.8315 483.647 85.2515 483.005 84.5058C482.363 83.7601 481.876 82.8694 481.545 81.8337C481.234 80.798 481.058 79.6691 481.017 78.447C481.017 77.2249 481.203 76.1064 481.576 75.0914C481.949 74.0764 482.467 73.1961 483.129 72.4504C483.813 71.7047 484.61 71.1247 485.522 70.7105C486.454 70.2962 487.469 70.089 488.567 70.089C489.996 70.089 491.177 70.3894 492.109 70.9901C493.062 71.5701 493.818 72.3158 494.377 73.2272C494.957 74.1386 495.351 75.1328 495.558 76.21C495.785 77.2871 495.879 78.3124 495.837 79.2859H483.813C483.792 79.9902 483.875 80.6634 484.062 81.3055C484.248 81.9269 484.548 82.4862 484.963 82.9833C485.377 83.4598 485.905 83.843 486.547 84.133C487.189 84.4229 487.945 84.5679 488.815 84.5679C489.934 84.5679 490.845 84.309 491.55 83.7912C492.275 83.2733 492.751 82.4862 492.979 81.4298H495.589ZM497.798 64.341H500.439V86.5254H497.798V64.341ZM514.753 76.9556C514.711 76.3342 514.566 75.7439 514.318 75.1846C514.09 74.6253 513.769 74.1489 513.355 73.7554C512.961 73.3411 512.485 73.02 511.925 72.7922C511.387 72.5436 510.786 72.4193 510.123 72.4193C509.44 72.4193 508.818 72.5436 508.259 72.7922C507.72 73.02 507.254 73.3411 506.861 73.7554C506.467 74.1696 506.157 74.6564 505.929 75.2157C505.701 75.7542 505.566 76.3342 505.525 76.9556H514.753ZM517.301 81.4298C516.948 83.2319 516.172 84.5887 514.97 85.5001C513.769 86.4115 512.257 86.8672 510.434 86.8672C509.15 86.8672 508.031 86.66 507.078 86.2458C506.146 85.8315 505.359 85.2515 504.717 84.5058C504.075 83.7601 503.588 82.8694 503.257 81.8337C502.946 80.798 502.77 79.6691 502.728 78.447C502.728 77.2249 502.915 76.1064 503.288 75.0914C503.661 74.0764 504.178 73.1961 504.841 72.4504C505.525 71.7047 506.322 71.1247 507.234 70.7105C508.166 70.2962 509.181 70.089 510.279 70.089C511.708 70.089 512.888 70.3894 513.821 70.9901C514.773 71.5701 515.529 72.3158 516.089 73.2272C516.669 74.1386 517.062 75.1328 517.269 76.21C517.497 77.2871 517.591 78.3124 517.549 79.2859H505.525C505.504 79.9902 505.587 80.6634 505.773 81.3055C505.96 81.9269 506.26 82.4862 506.674 82.9833C507.089 83.4598 507.617 83.843 508.259 84.133C508.901 84.4229 509.657 84.5679 510.527 84.5679C511.646 84.5679 512.557 84.309 513.261 83.7912C513.986 83.2733 514.463 82.4862 514.691 81.4298H517.301ZM530.26 75.6196C530.053 74.6046 529.618 73.8175 528.955 73.2582C528.293 72.699 527.402 72.4193 526.283 72.4193C525.33 72.4193 524.533 72.5954 523.891 72.9475C523.249 73.2997 522.731 73.7657 522.337 74.3457C521.965 74.9257 521.695 75.5989 521.53 76.3653C521.364 77.111 521.281 77.8878 521.281 78.6956C521.281 79.4413 521.364 80.1663 521.53 80.8705C521.716 81.5748 521.996 82.2066 522.368 82.7658C522.741 83.3044 523.228 83.7394 523.829 84.0708C524.429 84.4022 525.144 84.5679 525.973 84.5679C527.278 84.5679 528.293 84.2262 529.018 83.5426C529.763 82.8591 530.219 81.8959 530.385 80.653H533.088C532.798 82.6416 532.052 84.1744 530.851 85.2515C529.67 86.3286 528.054 86.8672 526.004 86.8672C524.782 86.8672 523.694 86.6704 522.741 86.2768C521.809 85.8833 521.022 85.324 520.38 84.599C519.758 83.874 519.282 83.0144 518.951 82.0202C518.64 81.0052 518.485 79.897 518.485 78.6956C518.485 77.4942 518.64 76.3757 518.951 75.34C519.261 74.2836 519.727 73.3722 520.349 72.6058C520.991 71.8186 521.788 71.2076 522.741 70.7726C523.694 70.3169 524.802 70.089 526.066 70.089C526.977 70.089 527.826 70.203 528.614 70.4308C529.421 70.638 530.126 70.9694 530.726 71.4251C531.348 71.8808 531.855 72.4608 532.249 73.165C532.642 73.8486 532.891 74.6668 532.995 75.6196H530.26ZM538.777 70.4619H541.977V72.7922H538.777V82.7658C538.777 83.0766 538.798 83.3251 538.839 83.5115C538.901 83.698 539.005 83.843 539.15 83.9465C539.295 84.0501 539.492 84.1226 539.74 84.164C540.01 84.1847 540.351 84.1951 540.766 84.1951H541.977V86.5254H539.958C539.274 86.5254 538.684 86.484 538.187 86.4011C537.71 86.2975 537.317 86.1215 537.006 85.8729C536.716 85.6243 536.499 85.2722 536.354 84.8165C536.209 84.3608 536.136 83.7601 536.136 83.0144V72.7922H533.402V70.4619H536.136V65.6459H538.777V70.4619ZM341.606 105.988H348.743V109.716H348.85C349.844 108.296 351.034 107.195 352.419 106.414C353.839 105.633 355.455 105.242 357.266 105.242C359.006 105.242 360.586 105.58 362.006 106.254C363.462 106.929 364.563 108.119 365.308 109.823C366.125 108.616 367.226 107.55 368.611 106.627C370.031 105.704 371.7 105.242 373.618 105.242C375.073 105.242 376.423 105.42 377.666 105.775C378.908 106.13 379.974 106.698 380.861 107.479C381.749 108.261 382.442 109.29 382.939 110.569C383.436 111.811 383.684 113.321 383.684 115.096V133.525H376.121V117.919C376.121 116.996 376.085 116.126 376.014 115.309C375.943 114.492 375.748 113.782 375.429 113.179C375.109 112.575 374.63 112.096 373.99 111.74C373.387 111.385 372.552 111.208 371.487 111.208C370.422 111.208 369.552 111.421 368.877 111.847C368.238 112.238 367.723 112.77 367.332 113.445C366.977 114.084 366.729 114.83 366.587 115.682C366.48 116.499 366.427 117.333 366.427 118.185V133.525H358.863V118.079C358.863 117.262 358.846 116.463 358.81 115.682C358.775 114.865 358.615 114.12 358.331 113.445C358.082 112.77 357.638 112.238 356.999 111.847C356.396 111.421 355.49 111.208 354.283 111.208C353.928 111.208 353.448 111.297 352.845 111.474C352.277 111.616 351.708 111.918 351.14 112.38C350.608 112.806 350.146 113.445 349.755 114.297C349.365 115.114 349.169 116.197 349.169 117.546V133.525H341.606V105.988ZM387.746 114.457C387.852 112.681 388.296 111.208 389.077 110.036C389.859 108.864 390.853 107.923 392.06 107.213C393.268 106.503 394.617 106.006 396.108 105.722C397.635 105.402 399.162 105.242 400.689 105.242C402.074 105.242 403.476 105.349 404.897 105.562C406.317 105.739 407.613 106.112 408.785 106.68C409.957 107.249 410.916 108.047 411.661 109.077C412.407 110.072 412.78 111.403 412.78 113.072V127.4C412.78 128.643 412.851 129.832 412.993 130.969C413.135 132.105 413.384 132.957 413.739 133.525H406.069C405.927 133.099 405.802 132.673 405.696 132.247C405.625 131.785 405.571 131.324 405.536 130.862C404.329 132.105 402.908 132.975 401.275 133.472C399.641 133.969 397.972 134.218 396.268 134.218C394.954 134.218 393.729 134.058 392.593 133.738C391.457 133.419 390.462 132.922 389.61 132.247C388.758 131.572 388.083 130.72 387.586 129.69C387.124 128.661 386.894 127.436 386.894 126.015C386.894 124.453 387.16 123.174 387.693 122.18C388.261 121.15 388.971 120.334 389.823 119.73C390.711 119.126 391.705 118.683 392.806 118.398C393.942 118.079 395.078 117.83 396.215 117.653C397.351 117.475 398.47 117.333 399.57 117.227C400.671 117.12 401.648 116.96 402.5 116.747C403.352 116.534 404.027 116.232 404.524 115.842C405.021 115.416 405.252 114.812 405.216 114.031C405.216 113.214 405.074 112.575 404.79 112.113C404.542 111.616 404.187 111.243 403.725 110.995C403.299 110.711 402.784 110.533 402.18 110.462C401.612 110.356 400.991 110.302 400.316 110.302C398.825 110.302 397.653 110.622 396.801 111.261C395.948 111.9 395.451 112.966 395.309 114.457H387.746ZM405.216 120.05C404.897 120.334 404.488 120.565 403.991 120.742C403.53 120.884 403.015 121.008 402.447 121.115C401.914 121.221 401.346 121.31 400.742 121.381C400.139 121.452 399.535 121.541 398.931 121.648C398.363 121.754 397.795 121.896 397.227 122.074C396.694 122.251 396.215 122.5 395.789 122.819C395.398 123.103 395.078 123.476 394.83 123.938C394.581 124.4 394.457 124.985 394.457 125.696C394.457 126.37 394.581 126.938 394.83 127.4C395.078 127.862 395.416 128.235 395.842 128.519C396.268 128.767 396.765 128.945 397.333 129.051C397.901 129.158 398.487 129.211 399.091 129.211C400.582 129.211 401.736 128.962 402.553 128.465C403.37 127.968 403.974 127.382 404.364 126.708C404.755 125.997 404.986 125.287 405.057 124.577C405.163 123.867 405.216 123.299 405.216 122.873V120.05ZM426.64 105.988H432.18V111.048H426.64V124.684C426.64 125.962 426.853 126.814 427.279 127.24C427.705 127.666 428.558 127.879 429.836 127.879C430.262 127.879 430.67 127.862 431.061 127.826C431.452 127.791 431.824 127.737 432.18 127.666V133.525C431.54 133.632 430.83 133.703 430.049 133.738C429.268 133.774 428.504 133.792 427.759 133.792C426.587 133.792 425.468 133.703 424.403 133.525C423.373 133.383 422.45 133.082 421.633 132.62C420.852 132.158 420.231 131.501 419.769 130.649C419.307 129.797 419.077 128.678 419.077 127.294V111.048H414.496V105.988H419.077V97.7321H426.64V105.988ZM443.768 105.988H449.307V111.048H443.768V124.684C443.768 125.962 443.981 126.814 444.407 127.24C444.833 127.666 445.685 127.879 446.964 127.879C447.39 127.879 447.798 127.862 448.189 127.826C448.579 127.791 448.952 127.737 449.307 127.666V133.525C448.668 133.632 447.958 133.703 447.177 133.738C446.395 133.774 445.632 133.792 444.886 133.792C443.715 133.792 442.596 133.703 441.531 133.525C440.501 133.383 439.578 133.082 438.761 132.62C437.98 132.158 437.358 131.501 436.897 130.649C436.435 129.797 436.204 128.678 436.204 127.294V111.048H431.624V105.988H436.204V97.7321H443.768V105.988ZM451.308 105.988H458.499V111.101H458.605C458.96 110.249 459.44 109.468 460.043 108.758C460.647 108.012 461.339 107.391 462.121 106.893C462.902 106.361 463.736 105.952 464.624 105.668C465.512 105.384 466.435 105.242 467.394 105.242C467.891 105.242 468.441 105.331 469.045 105.509V112.539C468.69 112.468 468.264 112.415 467.767 112.38C467.269 112.309 466.79 112.273 466.328 112.273C464.944 112.273 463.772 112.504 462.813 112.966C461.854 113.427 461.073 114.066 460.469 114.883C459.901 115.664 459.493 116.587 459.244 117.653C458.996 118.718 458.871 119.872 458.871 121.115V133.525H451.308V105.988ZM488.012 116.801C487.657 114.883 487.018 113.427 486.094 112.433C485.207 111.439 483.839 110.942 481.993 110.942C480.786 110.942 479.774 111.155 478.957 111.581C478.176 111.971 477.537 112.468 477.039 113.072C476.578 113.676 476.24 114.315 476.027 114.99C475.85 115.664 475.743 116.268 475.708 116.801H488.012ZM475.708 121.594C475.814 124.044 476.436 125.82 477.572 126.921C478.708 128.021 480.342 128.572 482.472 128.572C483.999 128.572 485.313 128.199 486.414 127.453C487.515 126.672 488.189 125.855 488.438 125.003H495.096C494.031 128.306 492.397 130.667 490.196 132.087C487.994 133.508 485.331 134.218 482.206 134.218C480.04 134.218 478.087 133.88 476.347 133.206C474.607 132.496 473.133 131.501 471.926 130.223C470.719 128.945 469.778 127.418 469.103 125.642C468.464 123.867 468.144 121.914 468.144 119.783C468.144 117.724 468.482 115.806 469.156 114.031C469.831 112.255 470.79 110.728 472.033 109.45C473.275 108.136 474.749 107.106 476.454 106.361C478.193 105.615 480.111 105.242 482.206 105.242C484.55 105.242 486.591 105.704 488.331 106.627C490.071 107.515 491.492 108.722 492.592 110.249C493.729 111.776 494.545 113.516 495.043 115.469C495.54 117.422 495.717 119.464 495.575 121.594H475.708ZM504.322 124.577C504.322 125.394 504.482 126.104 504.802 126.708C505.157 127.276 505.601 127.755 506.133 128.146C506.666 128.501 507.269 128.767 507.944 128.945C508.654 129.122 509.382 129.211 510.128 129.211C510.661 129.211 511.211 129.158 511.779 129.051C512.383 128.909 512.915 128.714 513.377 128.465C513.874 128.181 514.283 127.826 514.602 127.4C514.922 126.938 515.081 126.37 515.081 125.696C515.081 124.559 514.318 123.707 512.791 123.139C511.3 122.571 509.205 122.003 506.506 121.434C505.405 121.186 504.322 120.902 503.257 120.582C502.227 120.227 501.304 119.783 500.487 119.251C499.67 118.683 499.014 117.99 498.516 117.173C498.019 116.321 497.771 115.291 497.771 114.084C497.771 112.309 498.108 110.853 498.783 109.716C499.493 108.58 500.416 107.692 501.552 107.053C502.689 106.379 503.967 105.917 505.387 105.668C506.808 105.384 508.264 105.242 509.755 105.242C511.246 105.242 512.685 105.384 514.069 105.668C515.49 105.952 516.75 106.432 517.851 107.107C518.952 107.781 519.857 108.687 520.568 109.823C521.313 110.924 521.757 112.326 521.899 114.031H514.709C514.602 112.575 514.052 111.598 513.057 111.101C512.063 110.569 510.891 110.302 509.542 110.302C509.116 110.302 508.654 110.338 508.157 110.409C507.66 110.444 507.198 110.551 506.772 110.728C506.382 110.906 506.044 111.172 505.76 111.527C505.476 111.847 505.334 112.291 505.334 112.859C505.334 113.534 505.583 114.084 506.08 114.51C506.577 114.936 507.216 115.291 507.997 115.575C508.814 115.824 509.737 116.055 510.767 116.268C511.797 116.481 512.844 116.712 513.91 116.96C515.01 117.209 516.076 117.511 517.106 117.866C518.171 118.221 519.112 118.7 519.928 119.304C520.745 119.872 521.402 120.6 521.899 121.488C522.396 122.34 522.645 123.405 522.645 124.684C522.645 126.495 522.272 128.021 521.526 129.264C520.816 130.472 519.875 131.448 518.703 132.194C517.532 132.939 516.182 133.454 514.655 133.738C513.164 134.058 511.637 134.218 510.075 134.218C508.477 134.218 506.914 134.058 505.387 133.738C503.861 133.419 502.493 132.886 501.286 132.141C500.114 131.395 499.138 130.418 498.357 129.211C497.611 127.968 497.203 126.424 497.132 124.577H504.322ZM531.333 124.577C531.333 125.394 531.493 126.104 531.812 126.708C532.167 127.276 532.611 127.755 533.144 128.146C533.676 128.501 534.28 128.767 534.955 128.945C535.665 129.122 536.393 129.211 537.139 129.211C537.671 129.211 538.222 129.158 538.79 129.051C539.393 128.909 539.926 128.714 540.388 128.465C540.885 128.181 541.293 127.826 541.613 127.4C541.932 126.938 542.092 126.37 542.092 125.696C542.092 124.559 541.329 123.707 539.802 123.139C538.31 122.571 536.215 122.003 533.517 121.434C532.416 121.186 531.333 120.902 530.268 120.582C529.238 120.227 528.314 119.783 527.498 119.251C526.681 118.683 526.024 117.99 525.527 117.173C525.03 116.321 524.781 115.291 524.781 114.084C524.781 112.309 525.119 110.853 525.793 109.716C526.504 108.58 527.427 107.692 528.563 107.053C529.699 106.379 530.978 105.917 532.398 105.668C533.818 105.384 535.274 105.242 536.766 105.242C538.257 105.242 539.695 105.384 541.08 105.668C542.5 105.952 543.761 106.432 544.862 107.107C545.963 107.781 546.868 108.687 547.578 109.823C548.324 110.924 548.768 112.326 548.91 114.031H541.719C541.613 112.575 541.062 111.598 540.068 111.101C539.074 110.569 537.902 110.302 536.553 110.302C536.127 110.302 535.665 110.338 535.168 110.409C534.671 110.444 534.209 110.551 533.783 110.728C533.392 110.906 533.055 111.172 532.771 111.527C532.487 111.847 532.345 112.291 532.345 112.859C532.345 113.534 532.593 114.084 533.09 114.51C533.588 114.936 534.227 115.291 535.008 115.575C535.825 115.824 536.748 116.055 537.778 116.268C538.807 116.481 539.855 116.712 540.92 116.96C542.021 117.209 543.086 117.511 544.116 117.866C545.181 118.221 546.122 118.7 546.939 119.304C547.756 119.872 548.413 120.6 548.91 121.488C549.407 122.34 549.656 123.405 549.656 124.684C549.656 126.495 549.283 128.021 548.537 129.264C547.827 130.472 546.886 131.448 545.714 132.194C544.542 132.939 543.193 133.454 541.666 133.738C540.175 134.058 538.648 134.218 537.085 134.218C535.487 134.218 533.925 134.058 532.398 133.738C530.871 133.419 529.504 132.886 528.297 132.141C527.125 131.395 526.148 130.418 525.367 129.211C524.622 127.968 524.213 126.424 524.142 124.577H531.333ZM571.02 116.801C570.665 114.883 570.026 113.427 569.103 112.433C568.215 111.439 566.848 110.942 565.001 110.942C563.794 110.942 562.782 111.155 561.965 111.581C561.184 111.971 560.545 112.468 560.048 113.072C559.586 113.676 559.249 114.315 559.036 114.99C558.858 115.664 558.752 116.268 558.716 116.801H571.02ZM558.716 121.594C558.823 124.044 559.444 125.82 560.58 126.921C561.717 128.021 563.35 128.572 565.481 128.572C567.008 128.572 568.322 128.199 569.422 127.453C570.523 126.672 571.198 125.855 571.446 125.003H578.104C577.039 128.306 575.406 130.667 573.204 132.087C571.002 133.508 568.339 134.218 565.214 134.218C563.048 134.218 561.095 133.88 559.355 133.206C557.615 132.496 556.142 131.501 554.935 130.223C553.727 128.945 552.786 127.418 552.112 125.642C551.472 123.867 551.153 121.914 551.153 119.783C551.153 117.724 551.49 115.806 552.165 114.031C552.839 112.255 553.798 110.728 555.041 109.45C556.284 108.136 557.757 107.106 559.462 106.361C561.202 105.615 563.119 105.242 565.214 105.242C567.558 105.242 569.6 105.704 571.34 106.627C573.08 107.515 574.5 108.722 575.601 110.249C576.737 111.776 577.554 113.516 578.051 115.469C578.548 117.422 578.726 119.464 578.584 121.594H558.716ZM587.331 124.577C587.331 125.394 587.49 126.104 587.81 126.708C588.165 127.276 588.609 127.755 589.142 128.146C589.674 128.501 590.278 128.767 590.953 128.945C591.663 129.122 592.391 129.211 593.136 129.211C593.669 129.211 594.219 129.158 594.788 129.051C595.391 128.909 595.924 128.714 596.385 128.465C596.883 128.181 597.291 127.826 597.611 127.4C597.93 126.938 598.09 126.37 598.09 125.696C598.09 124.559 597.326 123.707 595.8 123.139C594.308 122.571 592.213 122.003 589.514 121.434C588.414 121.186 587.331 120.902 586.265 120.582C585.236 120.227 584.312 119.783 583.496 119.251C582.679 118.683 582.022 117.99 581.525 117.173C581.028 116.321 580.779 115.291 580.779 114.084C580.779 112.309 581.116 110.853 581.791 109.716C582.501 108.58 583.425 107.692 584.561 107.053C585.697 106.379 586.976 105.917 588.396 105.668C589.816 105.384 591.272 105.242 592.764 105.242C594.255 105.242 595.693 105.384 597.078 105.668C598.498 105.952 599.759 106.432 600.86 107.107C601.96 107.781 602.866 108.687 603.576 109.823C604.322 110.924 604.766 112.326 604.908 114.031H597.717C597.611 112.575 597.06 111.598 596.066 111.101C595.072 110.569 593.9 110.302 592.55 110.302C592.124 110.302 591.663 110.338 591.166 110.409C590.668 110.444 590.207 110.551 589.781 110.728C589.39 110.906 589.053 111.172 588.769 111.527C588.485 111.847 588.343 112.291 588.343 112.859C588.343 113.534 588.591 114.084 589.088 114.51C589.585 114.936 590.225 115.291 591.006 115.575C591.823 115.824 592.746 116.055 593.776 116.268C594.805 116.481 595.853 116.712 596.918 116.96C598.019 117.209 599.084 117.511 600.114 117.866C601.179 118.221 602.12 118.7 602.937 119.304C603.754 119.872 604.411 120.6 604.908 121.488C605.405 122.34 605.653 123.405 605.653 124.684C605.653 126.495 605.281 128.021 604.535 129.264C603.825 130.472 602.884 131.448 601.712 132.194C600.54 132.939 599.191 133.454 597.664 133.738C596.172 134.058 594.646 134.218 593.083 134.218C591.485 134.218 589.923 134.058 588.396 133.738C586.869 133.419 585.502 132.886 584.295 132.141C583.123 131.395 582.146 130.418 581.365 129.211C580.619 127.968 580.211 126.424 580.14 124.577H587.331ZM641.896 119.783C641.896 118.612 641.771 117.493 641.523 116.428C641.274 115.362 640.884 114.421 640.351 113.605C639.818 112.788 639.144 112.149 638.327 111.687C637.546 111.19 636.587 110.942 635.451 110.942C634.35 110.942 633.391 111.19 632.575 111.687C631.758 112.149 631.083 112.788 630.551 113.605C630.018 114.421 629.627 115.362 629.379 116.428C629.13 117.493 629.006 118.612 629.006 119.783C629.006 120.92 629.13 122.02 629.379 123.086C629.627 124.151 630.018 125.092 630.551 125.909C631.083 126.725 631.758 127.382 632.575 127.879C633.391 128.341 634.35 128.572 635.451 128.572C636.587 128.572 637.546 128.341 638.327 127.879C639.144 127.382 639.818 126.725 640.351 125.909C640.884 125.092 641.274 124.151 641.523 123.086C641.771 122.02 641.896 120.92 641.896 119.783ZM621.709 95.495H629.272V109.344H629.379C630.302 107.923 631.545 106.893 633.107 106.254C634.705 105.58 636.356 105.242 638.061 105.242C639.446 105.242 640.813 105.526 642.162 106.094C643.511 106.663 644.719 107.533 645.784 108.704C646.885 109.876 647.773 111.385 648.447 113.232C649.122 115.043 649.459 117.209 649.459 119.73C649.459 122.251 649.122 124.435 648.447 126.282C647.773 128.092 646.885 129.584 645.784 130.756C644.719 131.927 643.511 132.797 642.162 133.366C640.813 133.934 639.446 134.218 638.061 134.218C636.037 134.218 634.226 133.898 632.628 133.259C631.03 132.62 629.823 131.537 629.006 130.01H628.899V133.525H621.709V95.495ZM666.255 136.934C665.438 139.171 664.302 140.769 662.846 141.728C661.39 142.687 659.366 143.166 656.774 143.166C655.993 143.166 655.211 143.131 654.43 143.06C653.685 143.024 652.921 142.971 652.14 142.9V136.668C652.85 136.739 653.578 136.81 654.324 136.881C655.069 136.952 655.815 136.97 656.561 136.934C657.555 136.828 658.283 136.437 658.745 135.762C659.242 135.088 659.49 134.342 659.49 133.525C659.49 132.922 659.384 132.354 659.171 131.821L649.53 105.988H657.573L663.805 124.843H663.911L669.93 105.988H677.76L666.255 136.934Z" fill="#FFFEF9"/>
<path d="M596.73 179.766C596.73 178.584 597.636 177.712 598.717 177.712C599.823 177.712 600.737 178.584 600.737 179.766C600.737 180.939 599.823 181.811 598.717 181.811C597.636 181.811 596.73 180.931 596.73 179.766ZM600.427 179.766C600.427 178.71 599.706 177.989 598.725 177.989C597.761 177.989 597.057 178.71 597.057 179.766C597.057 180.814 597.761 181.535 598.725 181.535C599.706 181.526 600.427 180.814 600.427 179.766ZM599.605 180.923H599.245L598.834 180.328C598.767 180.336 598.709 180.344 598.633 180.344H598.348V180.923H598.046V178.567H598.633C599.312 178.567 599.605 178.978 599.605 179.481C599.605 179.816 599.438 180.101 599.128 180.252L599.605 180.923ZM598.616 180.093C599.136 180.093 599.295 179.841 599.295 179.481C599.295 179.112 599.128 178.827 598.616 178.827H598.348V180.093H598.616Z" fill="#FFFEF9"/>
<path d="M417 219.857H417.595C418.66 219.857 419.598 219.438 420.42 218.6C421.241 217.761 421.644 216.579 421.644 215.062V182.172C421.644 180.361 421.183 179.095 420.269 178.383C419.355 177.67 418.266 177.302 417 177.26V176.757H430.931V177.26C429.707 177.302 428.626 177.662 427.679 178.358C426.731 179.045 426.262 180.319 426.262 182.172V213.964C426.262 215.859 426.731 217.166 427.679 217.895C428.626 218.625 430.176 218.993 432.322 218.993H436.077C437.712 218.993 439.019 218.792 440 218.398C440.972 218.004 441.752 217.401 442.322 216.596C442.892 215.792 443.479 214.643 444.065 213.168H444.568L442.909 220.326H417V219.857Z" fill="#FFFEF9"/>
<path d="M450.194 203.797V182.113C450.194 180.814 449.934 179.716 449.406 178.827C448.887 177.939 447.638 177.419 445.668 177.26V176.757H459.364V177.26C457.352 177.494 456.07 178.081 455.517 179.003C454.964 179.934 454.687 180.965 454.687 182.113V203.437C454.687 207.778 455.131 210.98 456.02 213.051C456.967 215.255 458.383 216.982 460.278 218.222C462.172 219.463 464.318 220.083 466.723 220.083C467.729 220.083 468.92 219.907 470.303 219.547C471.686 219.186 472.976 218.6 474.175 217.77C477.779 215.305 479.59 211.349 479.59 205.909V182.113C479.59 180.914 479.313 179.841 478.76 178.919C478.207 177.989 476.907 177.444 474.854 177.26V176.757H488.785V177.26C486.773 177.36 485.482 177.922 484.912 178.945C484.342 179.967 484.057 181.006 484.057 182.054V215.062C484.057 216.202 484.25 217.108 484.636 217.77C485.021 218.432 485.549 218.901 486.237 219.178C486.916 219.454 487.754 219.681 488.734 219.857V220.326H479.598V213.109L479.447 212.992C478.182 215.934 476.296 218.08 473.781 219.438C471.266 220.796 468.643 221.475 465.902 221.475C462.809 221.475 460.018 220.737 457.545 219.253C455.073 217.778 453.254 215.951 452.089 213.78C451.259 212.246 450.739 210.637 450.521 208.977" fill="#FFFEF9"/>
<path d="M529.562 186.522H529.059C528.682 184.393 527.684 182.591 526.058 181.107C524.432 179.632 522.563 178.551 520.45 177.872C518.338 177.193 516.368 176.849 514.533 176.849C512.027 176.849 509.68 177.377 507.475 178.433C505.279 179.49 503.376 180.973 501.784 182.901C500.183 184.82 498.942 187.134 498.054 189.825C497.165 192.515 496.721 195.44 496.721 198.592C496.721 201.651 497.149 204.485 498.004 207.091C498.859 209.706 500.116 211.97 501.759 213.897C503.402 215.817 505.313 217.275 507.484 218.256C509.654 219.245 512.06 219.731 514.7 219.731C516.905 219.731 519.336 219.279 521.976 218.382C524.616 217.485 527.005 215.993 529.134 213.897V215.582C526.511 217.611 524.113 219.103 521.934 220.05C519.755 220.997 517.039 221.466 513.787 221.466C510.359 221.466 507.224 220.838 504.399 219.589C501.566 218.34 499.177 216.647 497.224 214.518C495.271 212.389 493.796 209.991 492.79 207.326C491.784 204.661 491.281 201.92 491.281 199.103C491.281 194.862 492.329 190.923 494.416 187.285C496.503 183.647 499.336 180.772 502.907 178.651C506.478 176.531 510.35 175.475 514.533 175.475C517.114 175.475 519.864 175.86 522.789 176.631L525.865 177.486C526.46 177.604 526.963 177.662 527.374 177.662C528.145 177.662 528.656 177.545 528.908 177.319C529.159 177.092 529.36 176.682 529.503 176.095H529.972L529.562 186.522Z" fill="#FFFEF9"/>
<path d="M549.653 176.765V177.268C548.354 177.268 547.248 177.637 546.342 178.366C545.437 179.095 544.985 180.311 544.985 182.004V215.071C544.985 216.747 545.471 217.963 546.435 218.725C547.399 219.488 548.471 219.865 549.662 219.865V220.335H535.84V219.865C537.097 219.865 538.195 219.496 539.109 218.759C540.022 218.021 540.483 216.789 540.483 215.079V181.996C540.483 180.185 540.022 178.936 539.109 178.266C538.195 177.595 537.106 177.26 535.84 177.26V176.757H549.653V176.765Z" fill="#FFFEF9"/>
<path d="M556.367 177.269V176.766H573.139C575.486 176.766 577.649 176.967 579.635 177.37C581.614 177.772 583.391 178.308 584.958 178.979C586.525 179.65 587.883 180.387 589.023 181.183C590.163 181.98 591.136 182.793 591.923 183.623C593.306 185.006 594.48 186.539 595.444 188.224C596.408 189.909 597.137 191.686 597.615 193.564C598.101 195.433 598.336 197.369 598.336 199.364C598.336 201.359 598.101 203.245 597.623 205.047C597.154 206.841 596.466 208.5 595.586 210.034C594.698 211.56 593.642 212.951 592.41 214.192C591.177 215.432 589.744 216.555 588.11 217.561C586.71 218.391 585.101 219.061 583.29 219.573C581.471 220.084 579.024 220.344 575.922 220.344H556.376V219.874H556.971C558.329 219.874 559.351 219.363 560.013 218.332C560.684 217.31 561.019 216.22 561.019 215.08V182.172C561.019 181.066 560.835 180.144 560.474 179.39C560.106 178.644 559.619 178.099 559.007 177.764C558.396 177.428 557.717 177.261 556.971 177.261H556.367V177.269ZM565.504 178.836V213.353C565.504 215.046 565.772 216.295 566.317 217.092C566.861 217.888 567.7 218.408 568.848 218.642C569.988 218.877 571.664 218.994 573.877 218.994C577.029 218.994 579.694 218.684 581.865 218.064C584.036 217.444 586.131 216.061 588.168 213.907C589.669 212.306 590.867 210.361 591.773 208.048C592.678 205.743 593.13 202.951 593.13 199.674C593.13 197.092 592.762 194.536 592.032 191.996C591.303 189.465 590.188 187.21 588.688 185.24C587.012 183.011 584.857 181.267 582.226 180.002C579.594 178.736 576.425 178.107 572.72 178.107C570.809 178.124 568.404 178.359 565.504 178.836Z" fill="#FFFEF9"/>
</svg>
