<svg xmlns="http://www.w3.org/2000/svg" width="179" height="66" fill="none">
  <g clip-path="url(#a)">
    <mask id="b" width="179" height="66" x="0" y="0" maskUnits="userSpaceOnUse" style="mask-type:luminance">
      <path fill="#fff" d="M179 0H0v66h179V0Z"/>
    </mask>
    <g fill="#D90023" mask="url(#b)">
      <path d="M142.197 61.47a9.81 9.81 0 0 1-3.862-.718 8.228 8.228 0 0 1-2.866-1.974 8.446 8.446 0 0 1-1.781-3.006 12.28 12.28 0 0 1 0-7.652 8.448 8.448 0 0 1 1.781-3.007 8.247 8.247 0 0 1 2.866-1.973 10.757 10.757 0 0 1 7.725 0 8.253 8.253 0 0 1 2.865 1.973 8.488 8.488 0 0 1 1.783 3.007 12.28 12.28 0 0 1 0 7.652 8.486 8.486 0 0 1-1.783 3.006 8.224 8.224 0 0 1-2.865 1.974 9.829 9.829 0 0 1-3.863.717Zm0-3.146a4.566 4.566 0 0 0 2.315-.56 4.806 4.806 0 0 0 1.607-1.467c.427-.622.74-1.314.927-2.045a9.17 9.17 0 0 0 0-4.63 6.174 6.174 0 0 0-.927-2.043 4.927 4.927 0 0 0-1.607-1.452 5.024 5.024 0 0 0-4.612 0 4.93 4.93 0 0 0-1.609 1.452 6.195 6.195 0 0 0-.927 2.044 9.192 9.192 0 0 0 0 4.63c.187.73.501 1.422.927 2.044a4.82 4.82 0 0 0 1.609 1.468 4.558 4.558 0 0 0 2.297.56Zm8.664-15.412h2.98V41.41c0-1.14.138-2.066.415-2.778.226-.634.612-1.2 1.119-1.642a3.686 3.686 0 0 1 1.59-.77 8.947 8.947 0 0 1 1.866-.19c1.28 0 2.212.08 2.795.243v3.11a5.741 5.741 0 0 0-.829-.158 8.751 8.751 0 0 0-1.037-.052c-.488-.014-.97.12-1.38.384-.387.257-.577.756-.577 1.503v1.851h3.39v2.971h-3.39V60.98h-3.962v-15.1h-2.971l-.009-2.969Z"/>
      <path d="M160.719 42.912h2.971V41.41c0-1.14.139-2.066.415-2.778a3.934 3.934 0 0 1 1.117-1.642 3.704 3.704 0 0 1 1.591-.77 8.958 8.958 0 0 1 1.865-.19c1.282 0 2.213.08 2.795.243v3.11a5.598 5.598 0 0 0-.829-.158 8.73 8.73 0 0 0-1.037-.052c-.489-.014-.97.12-1.381.384-.383.257-.576.756-.576 1.503v1.851h3.39v2.971h-3.39v15.097h-3.96V45.881h-2.971v-2.969Zm-22.774-31.296a6.476 6.476 0 0 1 1.115-2.268 5.323 5.323 0 0 1 1.907-1.528 6.196 6.196 0 0 1 2.735-.558c1.128 0 2.064.192 2.807.575a5.01 5.01 0 0 1 1.817 1.565 6.3 6.3 0 0 1 .991 2.322c.194.922.291 1.862.288 2.805a9.752 9.752 0 0 1-.361 2.718 5.936 5.936 0 0 1-1.097 2.14 4.98 4.98 0 0 1-1.891 1.403 6.75 6.75 0 0 1-2.735.504 6.649 6.649 0 0 1-2.788-.52 4.774 4.774 0 0 1-1.835-1.441 5.755 5.755 0 0 1-1.007-2.194 11.81 11.81 0 0 1-.305-2.753 10.24 10.24 0 0 1 .359-2.77Zm3.346 4.147c.021.459.105.912.253 1.347.133.407.369.772.684 1.062a2.23 2.23 0 0 0 2.644 0c.324-.288.572-.653.719-1.062.158-.428.255-.876.288-1.33.038-.467.054-.894.054-1.278 0-.383-.016-.796-.054-1.312a6.781 6.781 0 0 0-.27-1.495 3.192 3.192 0 0 0-.665-1.223 1.583 1.583 0 0 0-1.244-.504 1.87 1.87 0 0 0-1.35.469 3 3 0 0 0-.736 1.15 5.213 5.213 0 0 0-.306 1.476 20.21 20.21 0 0 0-.054 1.404c.001.377.013.806.037 1.287v.009Zm20.691-8.78-14.826 26.732h-3.13L158.924 6.97l3.058.012Zm-5.469 16.658c.219-.8.598-1.545 1.115-2.193a5.305 5.305 0 0 1 1.907-1.477 6.411 6.411 0 0 1 2.735-.539c1.128 0 2.064.186 2.807.558.719.35 1.341.87 1.817 1.512.484.671.821 1.438.989 2.249.197.91.294 1.839.287 2.77a9.909 9.909 0 0 1-.358 2.735 6.34 6.34 0 0 1-1.099 2.195 4.969 4.969 0 0 1-1.889 1.451 6.609 6.609 0 0 1-2.735.52 6.445 6.445 0 0 1-2.788-.538 4.8 4.8 0 0 1-1.834-1.493 6.105 6.105 0 0 1-1.008-2.25 11.953 11.953 0 0 1-.307-2.77 9.9 9.9 0 0 1 .361-2.738v.008Zm3.346 4.103c.02.483.104.962.253 1.422.133.427.367.815.682 1.132a2.1 2.1 0 0 0 2.646 0c.325-.315.572-.703.719-1.132.158-.453.255-.925.288-1.403.036-.491.054-.93.054-1.315 0-.358-.019-.785-.054-1.277a5.892 5.892 0 0 0-.27-1.404 3.074 3.074 0 0 0-.665-1.15 1.62 1.62 0 0 0-1.244-.485 1.959 1.959 0 0 0-1.35.431 2.765 2.765 0 0 0-.738 1.078 4.79 4.79 0 0 0-.304 1.404c-.037.503-.054.96-.054 1.368 0 .409.012.819.032 1.323l.005.008Zm13.078 10.704.334-.984 1.669.65v-1.82h1.036v1.82l1.659-.65.365.984-1.729.577 1.062 1.426-.805.591-1.076-1.486-1.036 1.486-.851-.59 1.062-1.427-1.69-.577ZM16.097 44.98c0 2.322-.655 4.05-1.965 5.18-1.29 1.152-3.156 1.728-5.598 1.728-.774 0-1.558-.08-2.352-.238a7.142 7.142 0 0 1-2.144-.804 5.228 5.228 0 0 1-1.608-1.49c-.437-.615-.695-1.369-.774-2.262H5.05c.1.476.268.863.507 1.161.238.298.516.526.833.685a2.96 2.96 0 0 0 1.102.327c.397.06.814.09 1.25.09 1.37 0 2.373-.338 3.008-1.013.635-.675.953-1.647.953-2.918v-2.352h-.06a5.131 5.131 0 0 1-1.965 1.995 5.153 5.153 0 0 1-2.65.715c-1.23 0-2.283-.209-3.156-.626a6.377 6.377 0 0 1-2.144-1.756 7.61 7.61 0 0 1-1.22-2.59 12.154 12.154 0 0 1-.388-3.127c0-1.033.159-2.015.476-2.948a7.343 7.343 0 0 1 1.37-2.442 6.515 6.515 0 0 1 2.174-1.697c.873-.417 1.856-.625 2.948-.625.972 0 1.865.208 2.68.625.813.397 1.439 1.032 1.875 1.906h.06V30.39h3.394v14.59Zm-7.533-1.876c.754 0 1.39-.149 1.906-.447a3.778 3.778 0 0 0 1.28-1.22 5.126 5.126 0 0 0 .715-1.728c.158-.655.238-1.31.238-1.965s-.08-1.29-.238-1.905a4.938 4.938 0 0 0-.745-1.638 3.371 3.371 0 0 0-1.28-1.132c-.516-.278-1.142-.416-1.876-.416-.754 0-1.39.158-1.906.476a3.767 3.767 0 0 0-1.25 1.25 5.158 5.158 0 0 0-.685 1.727 8.895 8.895 0 0 0-.209 1.906c0 .635.08 1.26.239 1.876.158.596.397 1.132.714 1.608.338.476.755.863 1.25 1.161.517.298 1.132.447 1.847.447Zm20.628-6.372a5.173 5.173 0 0 0-.357-1.548 3.629 3.629 0 0 0-.775-1.28 3.365 3.365 0 0 0-1.19-.894 3.297 3.297 0 0 0-1.549-.357 4.03 4.03 0 0 0-1.638.327 3.627 3.627 0 0 0-1.25.864 4.46 4.46 0 0 0-.834 1.28 4.734 4.734 0 0 0-.328 1.608h7.92Zm-7.92 2.233c0 .595.079 1.171.238 1.727a4.44 4.44 0 0 0 .774 1.459c.337.417.764.754 1.28 1.012.516.239 1.132.358 1.846.358.993 0 1.787-.209 2.383-.626.615-.436 1.071-1.082 1.37-1.935h3.215a6.4 6.4 0 0 1-.923 2.233 6.654 6.654 0 0 1-1.578 1.668 6.725 6.725 0 0 1-2.084.982 7.865 7.865 0 0 1-2.383.357c-1.21 0-2.282-.198-3.215-.595a6.795 6.795 0 0 1-2.383-1.667c-.635-.715-1.121-1.569-1.459-2.561-.317-.993-.476-2.085-.476-3.276a9.38 9.38 0 0 1 .506-3.096 8.115 8.115 0 0 1 1.49-2.59 7.184 7.184 0 0 1 2.351-1.787c.913-.437 1.946-.655 3.097-.655 1.21 0 2.293.258 3.246.774a6.962 6.962 0 0 1 2.412 1.995c.635.834 1.091 1.796 1.37 2.888a8.528 8.528 0 0 1 .237 3.335H21.272Zm11.453-8.576h2.56v-4.615h3.395v4.616h3.067v2.53H38.68v8.219c0 .357.01.665.03.923.04.258.11.476.209.655.119.178.287.317.506.417.218.079.516.119.893.119h.715c.238-.02.476-.06.714-.12v2.62c-.377.04-.744.08-1.101.12-.358.04-.725.06-1.102.06-.893 0-1.618-.08-2.174-.239-.536-.178-.963-.427-1.28-.744a2.863 2.863 0 0 1-.625-1.25c-.1-.497-.16-1.063-.18-1.698V32.92h-2.56v-2.53Z"/>
    </g>
    <path fill="#D90023" d="M76.273 64h-12.15V25.15H49.06v-9.156a30.229 30.229 0 0 0 6.076-.428c1.997-.4 3.765-1.056 5.305-1.969a13.33 13.33 0 0 0 4.022-3.765c1.084-1.54 1.797-3.451 2.14-5.733h9.67V64Zm48.235-49.889h-24.73L97.38 27.717l.171.171c1.655-1.654 3.423-2.824 5.306-3.508 1.882-.742 4.022-1.113 6.418-1.113 2.966 0 5.591.542 7.873 1.626 2.282 1.084 4.193 2.539 5.733 4.364 1.597 1.826 2.795 3.994 3.594 6.504.856 2.453 1.284 5.077 1.284 7.873 0 3.08-.599 5.961-1.797 8.642a21.726 21.726 0 0 1-4.878 6.846c-1.997 1.94-4.336 3.452-7.017 4.536-2.681 1.027-5.534 1.511-8.557 1.454-2.91 0-5.705-.37-8.386-1.112-2.625-.799-4.964-1.997-7.017-3.594a18.421 18.421 0 0 1-4.964-5.905c-1.198-2.396-1.825-5.162-1.882-8.3h12.151c.285 2.738 1.312 4.934 3.08 6.589 1.769 1.597 4.023 2.396 6.761 2.396 1.597 0 3.023-.314 4.279-.941 1.312-.685 2.396-1.54 3.251-2.567a11.102 11.102 0 0 0 2.054-3.68 12.78 12.78 0 0 0 .77-4.364c0-1.54-.228-2.995-.684-4.365-.457-1.369-1.141-2.567-2.054-3.594a9.645 9.645 0 0 0-3.252-2.396c-1.255-.57-2.71-.855-4.364-.855-2.168 0-3.936.399-5.306 1.198-1.369.741-2.652 1.94-3.85 3.594H85.144L91.05 4.099h33.459V14.11Z"/>
  </g>
  <defs>
    <clipPath id="a">
      <path fill="#fff" d="M0 0h179v66H0z"/>
    </clipPath>
  </defs>
</svg>
